<?xml version="1.0" encoding="utf-8"?>
<!-- Generator: Adobe Illustrator 20.1.0, SVG Export Plug-In . SVG Version: 6.00 Build 0)  -->
<svg version="1.1" id="レイヤー_1" xmlns="http://www.w3.org/2000/svg" xmlns:xlink="http://www.w3.org/1999/xlink" x="0px"
	 y="0px" viewBox="0 0 15 15" enable-background="new 0 0 15 15" xml:space="preserve">
<path fill="#FFFFFF" d="M8.2,2.7C7.9,2.6,7.5,2,7.5,2s0,0.1-0.1,0.5C7.2,3.1,6,3.3,6,3.3s-1.2,2-1.4,2.2s0,3.4,0,3.5S6,10,6,10
	l1.5-2C7.5,8,8.9,3.3,8.2,2.7z"/>
<path fill="#FFFFFF" d="M4.2,11.2l-1.5-0.5l-1.9,0.8l-0.7,0.3c0,0,0.1,0.1,0.5,0.1s2.7,0,3,0s1.1-0.3,1.1-0.3
	C4.4,11.4,4.2,11.2,4.2,11.2z"/>
<path fill="#FFFFFF" d="M14.6,11.7L13.4,11c0,0-2,0-2.6,0.3c-0.3,0.3-0.3,0.3-0.3,0.3l1.8,0.5l2.5-0.3h0.1L14.6,11.7z"/>
<path fill="#00864A" d="M4.2,11.2c0,0-0.5-0.5-0.5-0.7c-0.4-0.1-0.5-0.3-1.2-0.4c-0.8,0-0.7,0-0.8,0c0.1,0.3,0.3,0.4,0.5,0.5
	c-0.5,0.1-1.4,0.5-1.8,1C0.3,11.7,0,11.7,0,11.7s0.1,0.1,0.4,0c0.3,0,1.9-0.8,2.6-0.7C3.8,11.2,4.2,11.2,4.2,11.2z"/>
<path fill="#00864A" d="M5.5,12c0,0-0.8-0.4-0.8-0.5c-0.1,0-0.8-0.3-1.6-0.3c-1,0.1-2.3,0.5-2.3,0.5H0.3c0.4,0.4,1.1,0.8,1.6,0.7
	c0.7,0,1.4-0.3,1.4-0.3S3,12.3,3,12.9c0.1-0.1,0.3-0.1,0.4-0.1s0.8,0,1.2-0.5C4.9,12.1,5,12,5.5,12z"/>
<path fill="#003366" d="M10.8,11.3c0,0,0.5-0.5,0.5-0.7c0.4-0.3,0.5-0.4,1.2-0.4c0.8,0,0.7,0,0.8,0c0,0.3-0.1,0.3-0.4,0.4
	c0.4,0.1,1.2,0.5,1.6,1c0.1,0.1,0.4,0.1,0.4,0.1s-0.1,0.1-0.4,0c-0.4-0.1-1.9-0.8-2.6-0.7C11.2,11.2,10.8,11.3,10.8,11.3z"/>
<path fill="#003366" d="M9.5,12.1c0,0,0.8-0.4,0.8-0.5c0.1,0,0.8-0.3,1.6-0.3c0.8,0.1,2.2,0.5,2.2,0.5h0.4c-0.3,0.3-1,0.7-1.5,0.7
	c-0.8,0-1.5-0.3-1.5-0.3s0.4,0.1,0.4,0.8c-0.1-0.3-0.3-0.3-0.4-0.3s-0.8,0-1.2-0.5C10.1,12.1,10,12,9.5,12.1z"/>
<path fill="#FF3399" d="M8.6,3C8.3,2.8,8,2.6,7.8,2.3c0,0.3-0.1,0.5-0.3,0.7C7.2,3.4,7.4,3,6.3,4.9C5,7.6,6.1,8.6,6.4,9.1
	C3.5,6.8,7,3.3,7.2,2.8C7.4,2.6,7.5,2.3,7.5,2l0,0C7.2,2.3,7.1,2.6,6.8,2.7c-2,0.7-4,2.5-4,4.8c0,2.6,2,4.8,4.6,4.8S12,10.1,12,7.5
	C12,5.4,10.8,3.8,8.6,3z"/>
</svg>
