<?xml version="1.0" encoding="utf-8"?>
<!-- Generator: Adobe Illustrator 20.1.0, SVG Export Plug-In . SVG Version: 6.00 Build 0)  -->
<svg version="1.1" id="レイヤー_1" xmlns="http://www.w3.org/2000/svg" xmlns:xlink="http://www.w3.org/1999/xlink" x="0px"
	 y="0px" viewBox="0 0 15 15" enable-background="new 0 0 15 15" xml:space="preserve">
<g>
	<polygon points="0,0.9 0,12.2 3.7,12.2 3.7,10.9 1.2,10.9 1.2,2.2 13.7,2.2 13.7,10.9 12.5,10.9 12.5,12.2 15,12.2 15,0.9 	"/>
	<circle cx="6.7" cy="4.8" r="1.7"/>
	<path d="M11.4,9.1l-3.2-2C8,7,7.8,6.9,7.6,6.9H5.9C5.4,6.9,5,7.3,5,7.8v4.6c0,0.5,0.4,0.9,0.9,0.9h1.7c0.5,0,0.9-0.4,0.9-0.9V8.6
		l1.8,1.2l-1.1,1.4c-0.2,0.2-0.1,0.6,0.1,0.8c0.2,0.2,0.6,0.1,0.8-0.1l1.3-1.8C11.5,10,11.9,9.6,11.4,9.1z"/>
</g>
</svg>
