<?xml version="1.0" encoding="utf-8"?>
<!-- Generator: Adobe Illustrator 20.0.0, SVG Export Plug-In . SVG Version: 6.00 Build 0)  -->
<svg version="1.1" id="bijutsukan" xmlns="http://www.w3.org/2000/svg" xmlns:xlink="http://www.w3.org/1999/xlink" x="0px" y="0px"
	 viewBox="0 0 15 15" enable-background="new 0 0 15 15" xml:space="preserve">
<polygon points="1.9,3.3 1.9,11.5 4.6,11.5 4.6,10.9 2.6,10.9 2.6,4 12.5,4 12.5,10.9 10.5,10.9 10.5,11.5 13.2,11.5 13.2,3.3 "/>
<circle cx="6.5" cy="6.2" r="1.3"/>
<path d="M9.9,9.5L7.5,8C7.4,7.9,7.3,7.9,7.1,7.9H5.8c-0.4,0-0.7,0.3-0.7,0.7V12c0,0.4,0.3,0.7,0.7,0.7h1.3c0.4,0,0.7-0.3,0.7-0.7
	V9.1L9.1,10l-0.8,1.1c-0.1,0.2-0.1,0.4,0.1,0.6c0.2,0.1,0.4,0.1,0.6-0.1l1-1.4C10,10.2,10.3,9.8,9.9,9.5z"/>
</svg>
