<?xml version="1.0" encoding="utf-8"?>
<!-- Generator: Adobe Illustrator 20.0.0, SVG Export Plug-In . SVG Version: 6.00 Build 0)  -->
<svg version="1.1" id="bikkuri_x5F_donky" xmlns="http://www.w3.org/2000/svg" xmlns:xlink="http://www.w3.org/1999/xlink" x="0px"
	 y="0px" viewBox="0 0 15 15" enable-background="new 0 0 15 15" xml:space="preserve">
<path fill="#F80E11" d="M2.8,7.2c0,0,0.2-3.4-0.5-4.8c0.1-0.4,0.5,0,0.5,0S5.4,4,9.6,2.8c0.2,0,0.4,0.3-0.1,0.7S7.1,6.1,6.6,7.6
	c-0.5,1.5-0.8,3.5,0.7,3.7c0.4,0,2.2-0.2,0.9-4.9c-0.1-0.2-0.3-1,0.5-0.3c0.8,0.7,2.7,2,4.9,1.9c0.2,0,0.6,0,0.2,0.6
	c-0.4,0.6-0.9,1.3-1,1.8c-0.1,0.1-0.2,0.4-0.7-0.1s-1.3-0.9-1.4-0.9s0.9,5.2-3.9,5.3c-2.4-0.2-3.8-2.1-3.1-6.2c0.2-0.9,0.9-2,0.9-2
	S5,5.9,4.5,6C4.1,6.2,3.1,7.1,3.1,7.1S2.9,7.5,2.8,7.2z"/>
<circle fill="#F80E11" cx="10.3" cy="5.5" r="1.1"/>
<circle fill="#F80E11" cx="13" cy="6.6" r="1.1"/>
</svg>
