<?xml version="1.0" encoding="utf-8"?>
<!-- Generator: Adobe Illustrator 20.0.0, SVG Export Plug-In . SVG Version: 6.00 Build 0)  -->
<svg version="1.1" id="bus_x5F_tei" xmlns="http://www.w3.org/2000/svg" xmlns:xlink="http://www.w3.org/1999/xlink" x="0px"
	 y="0px" viewBox="0 0 15 15" enable-background="new 0 0 15 15" xml:space="preserve">
<path d="M7.5,1.1c-2,0-3.6,1.6-3.6,3.6c0,1.8,1.3,3.3,3.1,3.6v4.6H5.3v1h4.3v-1H8.1V8.3c0.8-0.1,1.6-0.5,2.1-1.2
	c0.6-0.7,0.9-1.5,0.9-2.4C11.1,2.7,9.5,1.1,7.5,1.1z M7.5,7.3c-1.4,0-2.6-1.2-2.6-2.6c0-1.4,1.2-2.6,2.6-2.6s2.6,1.2,2.6,2.6
	C10.1,6.2,8.9,7.3,7.5,7.3z"/>
</svg>
