<?xml version="1.0" encoding="utf-8"?>
<!-- Generator: Adobe Illustrator 20.0.0, SVG Export Plug-In . SVG Version: 6.00 Build 0)  -->
<svg version="1.1" id="car_x5F_youhinten" xmlns="http://www.w3.org/2000/svg" xmlns:xlink="http://www.w3.org/1999/xlink" x="0px"
	 y="0px" viewBox="0 0 15 15" enable-background="new 0 0 15 15" xml:space="preserve">
<path d="M12.24,10.81h-0.1c0.01,0,0.04-0.04,0.04-0.06V8.27c0-0.12-0.06-0.23-0.15-0.3l0,0L11.4,7.44l-0.47-2.28
	c0-0.22-0.23-0.42-0.51-0.42H4.23c-0.28,0-0.51,0.2-0.51,0.42L3.25,7.4L2.58,7.97l0.02,0C2.52,8.04,2.5,8.15,2.5,8.27v2.48
	c0,0.03-0.03,0.06-0.03,0.06H2.38c-0.08,0-0.13,0.08-0.13,0.17v0.54c0,0.08,0.05,0.13,0.13,0.13h0.7v0.72
	c0,0.32,0.26,0.61,0.58,0.61h0.5c0.32,0,0.59-0.28,0.59-0.61v-0.72h5.19v0.72c0,0.32,0.26,0.61,0.58,0.61h0.5
	c0.32,0,0.58-0.28,0.58-0.61v-0.72h0.65c0.08,0,0.19-0.05,0.19-0.13v-0.54C12.43,10.9,12.32,10.81,12.24,10.81z M3.9,10.49
	c-0.45,0-0.81-0.36-0.81-0.81c0-0.45,0.36-0.81,0.81-0.81c0.45,0,0.81,0.36,0.81,0.81C4.71,10.13,4.34,10.49,3.9,10.49z M4.53,7.24
	c-0.29,0-0.32-0.15-0.32-0.36l0.22-1.17c0-0.18,0.2-0.33,0.45-0.33H9.7c0.25,0,0.45,0.15,0.45,0.33l0.28,1.26
	c0,0.21-0.09,0.27-0.38,0.27H4.53z M8.95,11.01c0,0.11-0.09,0.2-0.2,0.2H5.97c-0.11,0-0.2-0.09-0.2-0.2v-0.88
	c0-0.11,0.09-0.2,0.2-0.2h2.79c0.11,0,0.2,0.09,0.2,0.2V11.01z M10.62,10.49c-0.45,0-0.81-0.36-0.81-0.81
	c0-0.45,0.36-0.81,0.81-0.81s0.81,0.36,0.81,0.81C11.43,10.13,11.06,10.49,10.62,10.49z"/>
<path d="M12.43,2.93l0.01-0.55l-1.5-0.59l-0.64,0.98c-0.01,0-0.01,0-0.02,0L7.23,2.75L4.55,2.67L3.9,1.61L2.39,2.15L2.38,2.7
	l1.23-0.29l0.46,0.68L3.58,3.75L2.37,3.42L2.36,3.97l1.5,0.59L4.5,3.58c0.01,0,0.01,0,0.02,0L7.57,3.6l2.67,0.08l0.65,1.06L12.4,4.2
	l0.01-0.55l-1.23,0.29l-0.46-0.68l0.49-0.66L12.43,2.93z"/>
</svg>
