<?xml version="1.0" encoding="utf-8"?>
<!-- Generator: Adobe Illustrator 20.1.0, SVG Export Plug-In . SVG Version: 6.00 Build 0)  -->
<svg version="1.1" id="レイヤー_1" xmlns="http://www.w3.org/2000/svg" xmlns:xlink="http://www.w3.org/1999/xlink" x="0px"
	 y="0px" viewBox="0 0 15 15" enable-background="new 0 0 15 15" xml:space="preserve">
<g>
	<path fill="#2f2f2f" d="M11.8,2.6l0.5-1.1h1.9C13.8,0.6,13,0,12,0c-1,0-1.8,0.6-2.3,1.4C9.6,1.5,9.5,1.8,9.4,2.2H5.6C5.5,1.8,5.4,1.5,5.3,1.4
		C4.9,0.6,4,0,3,0C2,0,1.2,0.6,0.8,1.4h1.9l0.5,1.1L2.7,3.7H0.8C1.2,4.5,2,5.1,3,5.1c1,0,1.8-0.6,2.3-1.4C5.5,3.5,5.6,3.2,5.6,3h3.8
		c0,0.3,0.1,0.5,0.3,0.8c0.4,0.8,1.3,1.4,2.3,1.4c1,0,1.9-0.6,2.3-1.4h-1.9L11.8,2.6z"/>
	<path fill="#2f2f2f" d="M14.2,8.4v-1c0-0.1-0.1-0.2-0.2-0.2h-1.4c-0.1,0-0.2,0.1-0.2,0.2v0.1l-1.4-2C10.9,5.3,10.6,5,10.3,5L4.7,5
		C4.4,5,4.1,5.2,3.9,5.5l-1.4,2V7.4c0-0.1-0.1-0.2-0.2-0.2H0.9c-0.1,0-0.2,0.1-0.2,0.2v1c0,0.1,0.1,0.2,0.2,0.2h0.7L1.2,9
		C1.1,9,1.1,9.2,1.1,9.3v3c0,0,0,0.1,0,0.1H0.9c-0.1,0-0.2,0.1-0.2,0.2v0.7c0,0.1,0.1,0.2,0.2,0.2h0.9v0.9c0,0.4,0.3,0.7,0.7,0.7
		h0.7c0.4,0,0.8-0.3,0.8-0.7v-0.9h6.9v0.9c0,0.4,0.4,0.7,0.8,0.7h0.7c0.4,0,0.7-0.3,0.7-0.7v-0.9h0.9c0.1,0,0.2-0.1,0.2-0.2v-0.7
		c0-0.1-0.1-0.2-0.2-0.2h-0.1c0,0,0,0,0-0.1v-3c0-0.1,0-0.3-0.1-0.4l-0.4-0.4h0.7C14.2,8.6,14.2,8.5,14.2,8.4z M2.9,12.4
		c-0.6,0-1.1-0.5-1.1-1.1c0-0.6,0.5-1.1,1.1-1.1c0.6,0,1.1,0.5,1.1,1.1C3.9,11.9,3.5,12.4,2.9,12.4z M9.6,12.6
		c0,0.1-0.1,0.2-0.3,0.2H5.6c-0.1,0-0.3-0.1-0.3-0.2v-1c0-0.1,0.1-0.2,0.4-0.2h3.5c0.2,0,0.4,0.1,0.4,0.2L9.6,12.6L9.6,12.6z
		 M3.3,8.7c-0.5,0-0.6-0.2-0.4-0.4L4.4,6C4.5,5.8,4.7,5.6,5,5.6l5,0c0.3,0,0.5,0.2,0.6,0.4l1.5,2.3c0.1,0.2,0,0.5-0.4,0.4L3.3,8.7
		L3.3,8.7z M12.1,12.4c-0.6,0-1.1-0.5-1.1-1.1c0-0.6,0.5-1.1,1.1-1.1c0.6,0,1.1,0.5,1.1,1.1C13.2,11.9,12.7,12.4,12.1,12.4z"/>
</g>
</svg>
