<?xml version="1.0" encoding="utf-8"?>
<!-- Generator: Adobe Illustrator 20.1.0, SVG Export Plug-In . SVG Version: 6.00 Build 0)  -->
<svg version="1.1" id="レイヤー_1" xmlns="http://www.w3.org/2000/svg" xmlns:xlink="http://www.w3.org/1999/xlink" x="0px"
	 y="0px" viewBox="0 0 15 15" enable-background="new 0 0 15 15" xml:space="preserve">
<g id="circle_x5F_k">
	<circle fill="#FF6600" cx="7.5" cy="7.5" r="7.5"/>
	<circle fill="#FF0000" cx="7.4" cy="7.4" r="6.5"/>
	<circle fill="#FFFFFF" cx="7.5" cy="7.5" r="5.4"/>
	<path fill="#FF0000" d="M11.8,10.7L8.9,6.8l1.6-1.6c0.5-0.5,0.5-1.3,0-1.8c-0.5-0.5-1.3-0.5-1.8,0l-2,2V4.5c0-0.7-0.6-1.3-1.3-1.3
		S4,3.8,4,4.5v5.8c0,0.7,0.6,1.3,1.3,1.3s1.3-0.6,1.3-1.3V9c0.1,0,0.1-0.1,0.2-0.2l0.2-0.2l2.6,3.6c0.3,0.4,1,0.6,1.4,0.2l0.5-0.4
		C12,11.8,12.1,11.2,11.8,10.7z"/>
</g>
</svg>
