<?xml version="1.0" encoding="utf-8"?>
<!-- Generator: Adobe Illustrator 20.1.0, SVG Export Plug-In . SVG Version: 6.00 Build 0)  -->
<svg version="1.1" id="circle_x5F_k" xmlns="http://www.w3.org/2000/svg" xmlns:xlink="http://www.w3.org/1999/xlink" x="0px"
	 y="0px" viewBox="0 0 15 15" enable-background="new 0 0 15 15" xml:space="preserve">
<circle fill="#F27025" cx="7.5" cy="7.5" r="7.5"/>
<circle fill="#EE1C25" cx="7.4167" cy="7.4167" r="6.5"/>
<circle fill="#FFFFFF" cx="7.5" cy="7.4583" r="5.375"/>
<path fill="#EF1B27" d="M11.7649,10.7057L8.9485,6.8015l1.5631-1.5631c0.5092-0.5092,0.5092-1.3425,0-1.8517
	c-0.5092-0.5092-1.3425-0.5092-1.8517,0L6.6667,5.3799V4.5c0-0.7333-0.6-1.3333-1.3333-1.3333S4,3.7667,4,4.5v5.75
	c0,0.7333,0.6,1.3333,1.3333,1.3333s1.3333-0.6,1.3333-1.3333V9.047C6.736,9.0006,6.8022,8.9477,6.8634,8.8866l0.2093-0.2093
	l2.5684,3.5604c0.3218,0.446,0.95,0.5477,1.3961,0.226l0.5018-0.362C11.985,11.7799,12.0866,11.1517,11.7649,10.7057z"/>
</svg>
