<?xml version="1.0" encoding="utf-8"?>
<!-- Generator: Adobe Illustrator 20.0.0, SVG Export Plug-In . SVG Version: 6.00 Build 0)  -->
<svg version="1.1" id="cocostore" xmlns="http://www.w3.org/2000/svg" xmlns:xlink="http://www.w3.org/1999/xlink" x="0px" y="0px"
	 viewBox="0 0 15 15" enable-background="new 0 0 15 15" xml:space="preserve">
<g>
	<circle fill="#FFFFFF" cx="7.5" cy="7.5" r="7.5"/>
	<path fill="#D11071" d="M7.5,0C4.36,0,1.68,1.93,0.56,4.67h13.88C13.32,1.93,10.64,0,7.5,0z"/>
	<path fill="#D11071" d="M7.5,15c3.11,0,5.77-1.89,6.91-4.58H0.59C1.73,13.11,4.39,15,7.5,15z"/>
</g>
<path d="M2.02,6.31c0,0,0.39-0.44,0.78,0c0.27,0.19,0.5,0.5,0.79,0.52S4.07,6.5,3.98,6.12S3.93,5.4,3.18,5.5
	c-0.22-0.1-1.54-0.65-2.32,0.56C0.65,6.32-0.38,9.27,2.19,9.58c0.39,0.13,1.27-0.31,1.27-0.31s0.85-0.39,0.69-0.91
	C3.96,7.72,3.36,8.4,3.36,8.4S2.57,9,2.14,8.18C1.94,7.86,1.66,6.74,2.02,6.31z"/>
<path d="M5.73,6.43c-0.83,0-1.49,0.71-1.49,1.59S4.91,9.6,5.73,9.6c0.83,0,1.49-0.71,1.49-1.59S6.56,6.43,5.73,6.43z M5.86,8.83
	C5.68,8.86,5.48,8.51,5.41,8.04c-0.07-0.46,0.02-0.86,0.2-0.88s0.38,0.33,0.45,0.79C6.12,8.41,6.03,8.8,5.86,8.83z"/>
<path d="M8.54,7.63c0,0,0.13-0.72,0.55-0.43C9.08,7.36,8.87,8,9.64,7.94c0.62-0.05,0.2-0.93,0.2-0.93s-0.8-0.99-1.96-0.09
	C7.75,7.06,6.59,8.82,8.44,9.53c0.47,0.13,0.97,0.15,1.53-0.38c0.14-0.11,0.29-0.73-0.25-0.39c-0.16,0.09-1.09,0.2-1.14-0.5
	C8.54,7.93,8.55,8,8.54,7.63z"/>
<path d="M11.78,6.48c-0.83,0-1.49,0.71-1.49,1.59s0.67,1.59,1.49,1.59c0.83,0,1.49-0.71,1.49-1.59S12.61,6.48,11.78,6.48z
	 M11.91,8.89c-0.18,0.03-0.38-0.33-0.45-0.79c-0.07-0.46,0.02-0.86,0.2-0.88S12.04,7.54,12.11,8C12.17,8.47,12.08,8.86,11.91,8.89z"
	/>
<circle cx="13.97" cy="9.19" r="0.55"/>
<path d="M14.22,8.4c0,0-0.39,0.21-0.47-0.07C13.67,8.05,13.5,6.1,13.5,6.1s-0.16-0.43,0.26-0.66c0.42-0.23,0.72-0.32,0.7,0.19
	C14.44,6.14,14.3,8.17,14.22,8.4z"/>
</svg>
