<?xml version="1.0" encoding="utf-8"?>
<!-- Generator: Adobe Illustrator 20.0.0, SVG Export Plug-In . SVG Version: 6.00 Build 0)  -->
<svg version="1.1" id="cocos" xmlns="http://www.w3.org/2000/svg" xmlns:xlink="http://www.w3.org/1999/xlink" x="0px" y="0px"
	 viewBox="0 0 15 15" enable-background="new 0 0 15 15" xml:space="preserve">
<g>
	<path fill="#2E1006" d="M2.72,7.26V6.04c0,0-0.05-1.2-1.03-1.2S0.57,5.58,0.57,5.93c0,0.35,0,3.65,0,3.65s-0.03,1.03,0.97,1.03
		s1.19-0.76,1.19-1.23s0-1.16,0-1.16h-0.7v0.54c0,0,0,0.42-0.38,0.42S1.17,8.93,1.17,8.65s0-1.89,0-1.89S1.14,6.24,1.64,6.24
		s0.42,0.48,0.42,0.48v0.53H2.72z"/>
	<path fill="#2E1006" d="M4.42,4.9h-0.1c-0.59,0-1.07,0.48-1.07,1.07v3.51c0,0.59,0.48,1.07,1.07,1.07h0.1
		c0.59,0,1.07-0.48,1.07-1.07V5.97C5.49,5.38,5.01,4.9,4.42,4.9z M4.87,8.72c0,0.23-0.19,0.42-0.42,0.42H4.29
		c-0.23,0-0.42-0.19-0.42-0.42V6.73c0-0.23,0.19-0.42,0.42-0.42h0.17c0.23,0,0.42,0.19,0.42,0.42V8.72z"/>
	<path fill="#2E1006" d="M8.18,7.26V6.04c0,0-0.05-1.2-1.03-1.2S6.02,5.58,6.02,5.93c0,0.35,0,3.65,0,3.65s-0.03,1.03,0.97,1.03
		s1.19-0.76,1.19-1.23s0-1.16,0-1.16h-0.7v0.54c0,0,0,0.42-0.38,0.42c-0.38,0-0.47-0.25-0.47-0.53s0-1.89,0-1.89S6.59,6.24,7.1,6.24
		s0.42,0.48,0.42,0.48v0.53H8.18z"/>
	<path fill="#2E1006" d="M9.88,4.9h-0.1C9.19,4.9,8.7,5.38,8.7,5.97v3.51c0,0.59,0.48,1.07,1.07,1.07h0.1
		c0.59,0,1.07-0.48,1.07-1.07V5.97C10.94,5.38,10.46,4.9,9.88,4.9z M10.32,8.72c0,0.23-0.19,0.42-0.42,0.42H9.74
		c-0.23,0-0.42-0.19-0.42-0.42V6.73c0-0.23,0.19-0.42,0.42-0.42h0.17c0.23,0,0.42,0.19,0.42,0.42V8.72z"/>
	<path fill="#2E1006" d="M11.55,4.39L10.99,4.9c0,0,0.41,0.14,0.32,1.14C11.68,5.77,12.26,5.39,11.55,4.39z"/>
	<path fill="#2E1006" d="M14.41,7.27v-1.3c0,0,0.02-1.1-1.16-1.1s-1.09,1.34-1.09,1.34V6.9c0,0,0.06,0.64,0.64,0.93
		s0.93,0.41,0.93,0.84s-0.02,0.54-0.4,0.54s-0.49-0.36-0.49-0.49s0.02-0.48,0.02-0.48h-0.7v1.32c0,0-0.12,1.05,1.21,1.05
		s1.04-1.94,1.04-1.94s0.13-0.77-0.8-1.16s-0.7-1.01-0.7-1.01s0.1-0.25,0.42-0.25s0.41,0.2,0.4,0.52s-0.01,0.5-0.01,0.5H14.41z"/>
</g>
</svg>
