<?xml version="1.0" encoding="utf-8"?>
<!-- Generator: Adobe Illustrator 20.1.0, SVG Export Plug-In . SVG Version: 6.00 Build 0)  -->
<svg version="1.1" id="レイヤー_1" xmlns="http://www.w3.org/2000/svg" xmlns:xlink="http://www.w3.org/1999/xlink" x="0px"
	 y="0px" viewBox="0 0 15 15" enable-background="new 0 0 15 15" xml:space="preserve">
<g id="cocos">
	<rect y="2.7" fill="#FFFFFF" width="15" height="6.8"/>
	<g>
		<path fill="#583030" d="M2.7,5.9V4.7c0,0,0-1.2-1-1.2S0.6,4.2,0.6,4.6s0,3.6,0,3.6s0,1,1,1S2.7,8.5,2.7,8c0-0.5,0-1.2,0-1.2H2v0.5
			c0,0,0,0.4-0.4,0.4S1.2,7.6,1.2,7.3c0-0.3,0-1.9,0-1.9s0-0.5,0.5-0.5s0.4,0.5,0.4,0.5v0.5L2.7,5.9L2.7,5.9z"/>
		<path fill="#583030" d="M4.4,3.6H4.3C3.7,3.6,3.2,4,3.2,4.6v3.5c0,0.6,0.5,1.1,1.1,1.1h0.1c0.6,0,1.1-0.5,1.1-1.1V4.6
			C5.5,4,5,3.6,4.4,3.6z M4.9,7.4c0,0.2-0.2,0.4-0.4,0.4H4.3c-0.2,0-0.4-0.2-0.4-0.4v-2C3.9,5.2,4.1,5,4.3,5h0.2
			c0.2,0,0.4,0.2,0.4,0.4V7.4z"/>
		<path fill="#583030" d="M8.2,5.9V4.7c0,0-0.1-1.2-1-1.2S6,4.2,6,4.6s0,3.6,0,3.6s0,1,1,1S8.2,8.5,8.2,8c0-0.5,0-1.2,0-1.2H7.5v0.5
			c0,0,0,0.4-0.4,0.4c-0.4,0-0.5-0.2-0.5-0.5c0-0.3,0-1.9,0-1.9s0-0.5,0.5-0.5s0.4,0.5,0.4,0.5v0.5L8.2,5.9L8.2,5.9L8.2,5.9z"/>
		<path fill="#583030" d="M9.9,3.6H9.8C9.2,3.6,8.7,4,8.7,4.6v3.5c0,0.6,0.5,1.1,1.1,1.1h0.1c0.6,0,1.1-0.5,1.1-1.1V4.6
			C10.9,4,10.5,3.6,9.9,3.6z M10.3,7.4c0,0.2-0.2,0.4-0.4,0.4H9.7c-0.2,0-0.4-0.2-0.4-0.4v-2C9.3,5.2,9.5,5,9.7,5h0.2
			c0.2,0,0.4,0.2,0.4,0.4V7.4z"/>
		<path fill="#583030" d="M11.6,3.1L11,3.6c0,0,0.4,0.1,0.3,1.1C11.7,4.4,12.3,4.1,11.6,3.1z"/>
		<path fill="#583030" d="M14.4,5.9V4.6c0,0,0-1.1-1.2-1.1s-1.1,1.3-1.1,1.3v0.7c0,0,0.1,0.6,0.6,0.9s0.9,0.4,0.9,0.8
			c0,0.4,0,0.5-0.4,0.5c-0.4,0-0.5-0.4-0.5-0.5c0-0.1,0-0.5,0-0.5h-0.7v1.3c0,0-0.1,1.1,1.2,1.1s1-1.9,1-1.9s0.1-0.8-0.8-1.2
			c-0.9-0.4-0.7-1-0.7-1s0.1-0.2,0.4-0.2s0.4,0.2,0.4,0.5c0,0.3,0,0.5,0,0.5H14.4z"/>
	</g>
</g>
</svg>
