<?xml version="1.0" encoding="utf-8"?>
<!-- Generator: Adobe Illustrator 21.1.0, SVG Export Plug-In . SVG Version: 6.00 Build 0)  -->
<svg version="1.1" id="レイヤー_1" xmlns="http://www.w3.org/2000/svg" xmlns:xlink="http://www.w3.org/1999/xlink" x="0px"
	 y="0px" viewBox="0 0 14 14" enable-background="new 0 0 14 14" xml:space="preserve">
<g>
	<rect fill="#FF0000" width="14" height="14" rx="2" ry="2"/>
	<path d="M5.39,12.469c-0.191,0-0.663-0.037-0.663-0.037c-0.546-0.14-1.988-0.518-2.45-1.447c-0.191-0.383-0.191-0.817,0.005-1.283
		c0.303-0.728,0.504-1.195,0.597-1.395C2.501,7.938,0.817,6.09,2.119,3.724C2.165,3.64,3.435,1.563,6.277,1.563
		c0.98,0,2.562,0.103,3.696,0.574c4.032,2.016,2.254,6.781,2.254,6.781C10.836,11.275,9.156,12.763,5.39,12.469z"/>
	<path fill="#FFFF00" d="M9.31,2.497c-4.951-2.067-6.949,1.05-7.084,1.288c-1.391,2.529,0.705,4.41,0.803,4.499
		c0.023-0.042,0.009,0.009,0.009,0.009l0,0c-0.005,0-0.009-0.005-0.009-0.009C2.991,8.349,2.851,8.647,2.394,9.749
		c-0.747,1.797,1.764,2.408,2.408,2.576c4.746,0.303,6.099-3.117,6.305-3.593C12.497,4.223,9.823,2.795,9.31,2.497z M6.249,9.683
		C5.647,9.632,5.054,9.394,5.427,8.512C5.801,7.63,6.599,5.815,6.599,5.815s0.579-1.05-2.086-1.017l-0.541,1.05
		c0,0-0.677-0.999,0.541-1.61s3.696-0.625,4.205,1.475C9.226,7.812,7.733,9.478,6.249,9.683z"/>
	<path fill="#FFFFFF" d="M5.665,4.265c0,0,1.951-0.42,2.637,1.013c0.56,1.171,0.28,2.744-1.027,3.71
		C6.972,9.24,6.193,9.632,6.496,8.717c0.303-0.915,1.237-2.917,1.237-2.917s0.303-0.406-0.271-0.728
		c-0.499-0.28-0.336-0.271-1.591-0.541C5.647,4.494,5.091,4.331,5.665,4.265z"/>
</g>
</svg>
