<?xml version="1.0" encoding="utf-8"?>
<!-- Generator: Adobe Illustrator 21.1.0, SVG Export Plug-In . SVG Version: 6.00 Build 0)  -->
<svg version="1.1" id="レイヤー_1" xmlns="http://www.w3.org/2000/svg" xmlns:xlink="http://www.w3.org/1999/xlink" x="0px"
	 y="0px" viewBox="0 0 14 14" enable-background="new 0 0 14 14" xml:space="preserve">
<g>
	<rect x="0.002" y="0.002" fill="#009933" width="13.997" height="13.997" rx="2" ry="2"/>
	<path fill="#FFFFFF" d="M12.114,0.505H1.994C1.695,0.505,1.457,0.729,1.457,1l1.12,10.666c0,0.219,0.191,0.397,0.434,0.397h2.221
		v0.523h3.644v-0.523h2.23c0.233,0,0.434-0.177,0.434-0.397L12.664,1C12.659,0.729,12.412,0.505,12.114,0.505z"/>
	<path fill="#F18200" d="M7.051,4.499H3.435V2.152h6.504C9.944,2.148,8.054,3.081,7.051,4.499z"/>
	<path fill="#E70012" d="M10.905,2.148c0,0-3.504,1.194-4.586,4.549c2.697,0,2.697,0,2.697,0S9.253,5.628,10.91,4.76
		C10.905,2.148,10.905,2.148,10.905,2.148z"/>
	<path fill="#E70012" d="M5.726,9.198c0,0-0.28,2.156-0.131,3.042c1.082,0,3.014,0,3.014,0V9.198L5.726,9.198L5.726,9.198z"/>
	<polygon fill="#019B43" points="4.177,7.443 4.177,7.079 3.188,7.079 3.188,8.848 4.177,8.848 4.177,8.474 3.809,8.474 
		3.809,8.124 4.177,8.124 4.177,7.802 3.799,7.802 3.799,7.443 	"/>
	<polygon fill="#019B43" points="4.453,7.079 4.453,8.848 5.456,8.848 5.456,8.474 5.05,8.474 5.05,7.079 	"/>
	<polygon fill="#019B43" points="6.58,7.443 6.58,7.079 5.596,7.079 5.596,8.848 6.58,8.848 6.58,8.474 6.216,8.474 6.216,8.124 
		6.58,8.124 6.58,7.802 6.207,7.802 6.207,7.443 	"/>
	<polygon fill="#019B43" points="9.37,7.443 9.37,7.079 8.376,7.079 8.376,8.848 9.37,8.848 9.37,8.474 8.997,8.474 8.997,8.124 
		9.37,8.124 9.37,7.802 8.988,7.802 8.988,7.443 	"/>
	<polygon fill="#019B43" points="6.79,7.079 7.075,8.848 7.886,8.848 8.218,7.079 7.756,7.079 7.565,8.171 7.355,7.079 	"/>
	<rect x="9.65" y="7.079" fill="#019B43" width="0.588" height="1.764"/>
	<path fill="#019B43" d="M9.944,7.191h0.378c0,0,0.14-0.173,0.462-0.173c0.163,0,0.313,0.149,0.313,0.434c0,0.28,0,1.395,0,1.395
		h-0.574V7.532c0,0-0.042-0.196-0.462-0.042C9.65,7.639,9.944,7.191,9.944,7.191z"/>
</g>
</svg>
