<?xml version="1.0" encoding="utf-8"?>
<!-- Generator: Adobe Illustrator 20.0.0, SVG Export Plug-In . SVG Version: 6.00 Build 0)  -->
<svg version="1.1" id="sunkus" xmlns="http://www.w3.org/2000/svg" xmlns:xlink="http://www.w3.org/1999/xlink" x="0px" y="0px"
	 viewBox="0 0 15 15" enable-background="new 0 0 15 15" xml:space="preserve">
<circle fill="#FFFFFF" cx="7.5" cy="7.5" r="7.5"/>
<path fill="#F60400" d="M14.53,4.9C13.47,2.04,10.73,0,7.5,0C4.22,0,1.44,2.11,0.42,5.05C3.17,3.41,8.08,1.78,14.53,4.9z"/>
<path fill="#F60400" d="M7.5,15c2.26,0,4.28-1,5.65-2.58H1.85C3.22,14,5.24,15,7.5,15z"/>
<g>
	<path d="M7.81,11.8c-0.26,0-0.58-0.17-0.97-0.5l-0.02-0.02l-0.04-0.1c-0.06-0.13-0.13-0.3-0.17-0.31C6.55,10.95,6.43,11,6.42,11.01
		l-0.05,0.02l-0.41-0.28L5.95,10.7c-0.01-0.04-0.05-0.38,0.17-0.45c0.21-0.06,0.47-0.2,0.5-0.29C6.68,9.8,6.89,9.31,6.9,9.29
		l0.06-0.13L7.98,10l-0.62,0.45c-0.03,0.05-0.08,0.16-0.06,0.2c0.01,0.01,0.03,0.03,0.07,0.03c0.49,0.05,0.79,0.18,0.9,0.4
		c0.07,0.15,0.05,0.33-0.08,0.53C8.14,11.68,8.02,11.8,7.81,11.8z"/>
	<path fill="#FF2811" d="M6.99,9.33L7.81,10L7.3,10.37c0,0-0.28,0.37,0.06,0.42c0.33,0.03,1.13,0.16,0.75,0.77
		c-0.08,0.11-0.38,0.37-1.19-0.33c-0.14-0.32-0.21-0.51-0.37-0.43c-0.07,0.08-0.17,0.12-0.17,0.12l-0.32-0.22
		c0,0-0.04-0.29,0.1-0.33c0.14-0.04,0.52-0.2,0.57-0.36S6.99,9.33,6.99,9.33z"/>
</g>
<g>
	<path d="M9.53,11.74c-0.01-0.01-0.25-0.3-0.15-0.61C9.39,11.08,9.4,11.04,9.41,11c0.03-0.11,0.04-0.14-0.14-0.37
		C9.09,10.37,9,10.1,9,10.09l-0.03-0.1l1.2-0.37v0.84c0.04,0.05,0.12,0.12,0.2,0.12c0.04,0,0.08-0.02,0.12-0.06
		c0.19-0.2,0.47-0.48,0.75-0.48c0.12,0,0.22,0.05,0.3,0.14c0.06,0.06,0.16,0.23,0.11,0.45c-0.07,0.26-0.34,0.46-0.81,0.6
		c-0.12,0.01-0.2,0.01-0.27,0.01c-0.19,0-0.39,0-0.42,0.04c0,0.01-0.02,0.04,0.02,0.18l0.03,0.09L9.58,11.8L9.53,11.74z"/>
	<path fill="#FF2811" d="M10.06,11.49l-0.05,0.02l-0.4,0.16c0,0-0.21-0.25-0.13-0.52c0.04-0.24,0.14-0.24-0.13-0.59
		c-0.17-0.26-0.25-0.51-0.25-0.51l0.96-0.3v0.73c0,0,0.23,0.35,0.5,0.11c0.26-0.28,0.64-0.63,0.9-0.34c0.1,0.1,0.33,0.59-0.65,0.88
		C10.17,11.15,9.94,11.08,10.06,11.49z"/>
</g>
<path d="M0.85,9.15l0.51-0.21L1.4,8.97c0.01,0.01,0.05,0.03,0.11,0.11C1.57,9.09,1.61,9.1,1.65,9.1c0.11,0,0.11-0.04,0.12-0.11
	c0.01-0.06,0-0.07-0.01-0.07C1.75,8.89,1.68,8.84,1.41,8.84c-0.04,0-0.08,0-0.12,0c-0.5-0.03-0.72-0.27-0.82-0.47
	c-0.15-0.32-0.09-0.69-0.01-0.8c0.26-0.37,0.63-0.42,0.83-0.42c0.01,0,0.02,0,0.02,0L1.28,7.09l0.51-0.25L2.2,7.72L1.61,8.03
	L1.51,7.86c-0.03,0-0.05-0.01-0.07-0.01c-0.05,0-0.09,0.01-0.1,0.03C1.31,7.91,1.32,7.97,1.35,8.07c0.03,0.01,0.21,0.04,0.37,0.06
	c0.12,0.02,0.25,0.03,0.41,0.06c0.68,0.31,0.51,0.93,0.46,1.13C2.48,9.59,2.18,9.74,1.74,9.74c-0.03,0-0.06,0-0.08,0L1.7,9.86
	l-0.46,0.2L0.85,9.15z"/>
<path fill="#029B4B" d="M2.06,7.67L1.74,6.98L1.42,7.14l0.06,0.14c0,0-0.57-0.14-0.93,0.35c-0.11,0.15-0.21,1.05,0.73,1.1
	c0.28-0.01,0.64,0,0.6,0.24C1.87,9.08,1.87,9.28,1.46,9.18C1.38,9.08,1.34,9.06,1.34,9.06L0.99,9.21L1.3,9.92L1.56,9.8L1.49,9.62
	c0,0,0.81,0.13,0.99-0.33C2.55,9.05,2.67,8.56,2.11,8.3C1.59,8.21,1.28,8.21,1.25,8.1C1.21,8,1.11,7.67,1.58,7.76
	c0.04,0.08,0.08,0.13,0.08,0.13L2.06,7.67z"/>
<path d="M5.11,8.74L5.05,6.86H4.84V6.05h0.9V6.1C5.86,6.03,6.04,5.94,6.2,5.94l0.04,0c0.39,0.04,0.65,0.31,0.68,0.72
	c0.04,0.47,0.13,1.89,0.13,1.89l0.01,0.11H6.2L6.13,7.04c0-0.06-0.02-0.18-0.19-0.18c-0.09,0.01-0.1,0.13-0.1,0.13l0.07,1.75H5.11z"
	/>
<path fill="#029B4B" d="M5.15,6.75H4.95V6.16h0.68V6.3c0,0,0.36-0.27,0.59-0.25c0.23,0.02,0.55,0.16,0.59,0.62
	c0.04,0.47,0.13,1.89,0.13,1.89H6.31L6.23,7.03c0,0,0.01-0.3-0.32-0.28C5.75,6.78,5.74,6.98,5.74,6.98L5.8,8.63H5.21L5.15,6.75z"/>
<path d="M11.18,9.17l-0.02-0.13C11.09,9.07,11,9.09,10.9,9.09c-0.18,0-0.34-0.07-0.5-0.22c-0.19-0.26-0.23-0.48-0.15-0.78
	c0.08-0.29,0.5-1.76,0.5-1.76l0.03-0.1l0.75,0.21l-0.4,1.5c0,0.01-0.06,0.23,0.04,0.27c0.03,0.01,0.06,0.02,0.09,0.02
	c0.09,0,0.14-0.06,0.16-0.12C11.44,8,11.74,7,11.84,6.63l0.03-0.1l0.73,0.22l-0.55,1.85l0.15,0.08L12,9.35L11.18,9.17z"/>
<path fill="#029B4B" d="M10.85,6.36l0.54,0.16l-0.38,1.4c0,0-0.1,0.33,0.11,0.39s0.33-0.03,0.38-0.17s0.44-1.49,0.44-1.49l0.53,0.16
	l-0.55,1.83l0.15,0.08l-0.14,0.5l-0.66-0.14l-0.03-0.21c0,0-0.36,0.31-0.77-0.07c-0.14-0.2-0.2-0.38-0.12-0.68
	C10.43,7.83,10.85,6.36,10.85,6.36z"/>
<path d="M13.42,9.89c-0.33-0.07-0.47-0.16-0.62-0.38l-0.04,0.11l-0.5-0.17l0.36-0.9l0.51,0.2l0.01,0.06
	c0.01,0.06,0.06,0.29,0.18,0.29c0.01,0,0.03,0,0.04-0.01c0.02-0.01,0.07-0.05,0.08-0.1c0.01-0.06-0.05-0.14-0.15-0.22L13.22,8.7
	c-0.18-0.2-0.6-0.67-0.15-1.29c0.08-0.08,0.32-0.29,0.64-0.29c0.23,0,0.46,0.11,0.66,0.32l0.05-0.1l0.51,0.25l-0.36,0.87l-0.54-0.2
	l-0.01-0.07c0,0-0.03-0.26-0.15-0.26c-0.02,0-0.04,0.01-0.07,0.02c-0.02,0.01-0.03,0.04-0.03,0.07c-0.01,0.06,0.03,0.2,0.29,0.47
	c0.11,0.16,0.31,0.52,0.17,0.86c-0.1,0.25-0.36,0.43-0.78,0.53l-0.02,0.01L13.42,9.89z"/>
<path fill="#029B4B" d="M12.77,9.28l-0.08,0.21l-0.29-0.1l0.28-0.7l0.35,0.14c0,0,0.06,0.45,0.35,0.37c0.09-0.04,0.32-0.22-0.03-0.5
	c-0.14-0.17-0.63-0.6-0.19-1.21c0.13-0.13,0.67-0.56,1.24,0.15c0.07-0.14,0.07-0.14,0.07-0.14l0.33,0.16l-0.28,0.68l-0.38-0.14
	c0,0-0.04-0.47-0.37-0.33c-0.09,0.07-0.24,0.24,0.22,0.72c0.07,0.1,0.62,0.94-0.55,1.21C13.06,9.7,12.97,9.62,12.77,9.28z"/>
<path d="M4.14,9.04l-0.08-0.1C4.02,9,3.95,9.06,3.86,9.11C3.71,9.2,3.53,9.21,3.32,9.16C3.03,9.03,2.89,8.85,2.81,8.55
	c-0.07-0.3-0.42-1.78-0.42-1.78l-0.02-0.1l0.76-0.18L3.5,8c0,0.01,0.06,0.23,0.16,0.21C3.69,8.21,3.72,8.2,3.75,8.19
	c0.08-0.05,0.09-0.12,0.08-0.18C3.81,7.89,3.58,6.88,3.49,6.49L3.47,6.39l0.75-0.16l0.41,1.88l0.17,0L4.96,8.8L4.14,9.04z"/>
<path fill="#029B4B" d="M2.5,6.75l0.55-0.13L3.4,8.03c0,0,0.07,0.33,0.28,0.29s0.27-0.19,0.25-0.33C3.91,7.85,3.6,6.47,3.6,6.47
	l0.54-0.12l0.41,1.87l0.17,0l0.12,0.51L4.18,8.92L4.05,8.75c0,0-0.16,0.45-0.7,0.31c-0.22-0.1-0.36-0.24-0.44-0.53
	S2.5,6.75,2.5,6.75z"/>
<path d="M9.1,9.97C8.86,9.44,8.5,8.95,8.33,8.72L7.7,9.9L7.6,9.82c0,0-0.06-0.04-0.5-0.4L7.04,9.36l0.05-0.08
	c0.83-1.31,0.68-3.12,0.63-3.54H7.3V5.39L7.26,4.92l0.13,0.01c0.01,0,0.86,0.08,1.08,0.08H8.5l0.06,0.02
	c0.15,0.13,0.17,0.73,0.14,2.02c0,0.19-0.01,0.36-0.01,0.49c0.2-0.01,0.41-0.06,0.48-0.2C9.3,7.14,9.11,6.78,9.03,6.66L8.97,6.58
	l0.08-0.06c0.01-0.01,0.31-0.24,0.52-0.36l0.06-0.03l0.06,0.04c0.25,0.18,0.51,0.73,0.54,0.95c0.04,0.66-0.34,1.13-1.03,1.3
	c0.26,0.35,0.62,1.1,0.7,1.27l0.05,0.11l-0.82,0.27L9.1,9.97z"/>
<path fill="#EEE725" d="M7.41,5.39v0.24h0.4c0,0,0.34,2.17-0.63,3.7c0.43,0.35,0.49,0.4,0.49,0.4l0.64-1.21c0,0,0.55,0.67,0.89,1.4
	c0.61-0.2,0.61-0.2,0.61-0.2S9.23,8.51,9,8.34c0.27-0.04,1.19-0.23,1.13-1.22c-0.03-0.2-0.28-0.72-0.5-0.88
	C9.42,6.37,9.12,6.6,9.12,6.6S9.84,7.66,8.6,7.66C8.59,7.12,8.69,5.27,8.5,5.11C8.35,5.12,7.38,5.04,7.38,5.04L7.41,5.39z"/>
<path fill="#090803" d="M6.94,5.51C6.73,5.25,6.47,4.64,6.91,4.16C6.91,3.95,6.92,3.81,7.07,3.73c0.04-0.02,0.11-0.04,0.18-0.04
	c0.07,0,0.17,0.02,0.26,0.11c0.03,0,0.06,0,0.09,0c0.39,0,0.71,0.16,0.96,0.48c0.07-0.03,0.16-0.07,0.25-0.1
	c0.22-0.09,0.35-0.15,0.43-0.15H9.3l0.06,0.05c0.03,0.04,0.08,0.1,0.06,0.18C9.4,4.33,9.32,4.38,9.25,4.41
	C9.1,4.49,7.07,5.54,7.07,5.54L6.99,5.58L6.94,5.51z"/>
<path fill="#FE2611" d="M7.02,5.45c0,0-0.55-0.7,0-1.24c-0.01-0.27,0.01-0.33,0.1-0.38C7.21,3.78,7.35,3.76,7.47,3.9
	c0.16,0,0.65-0.08,1.06,0.5c0.2-0.06,0.7-0.32,0.74-0.27c0.04,0.06,0.09,0.1-0.07,0.18S7.02,5.45,7.02,5.45z"/>
</svg>
