<?xml version="1.0" encoding="utf-8"?>
<!-- Generator: Adobe Illustrator 20.0.0, SVG Export Plug-In . SVG Version: 6.00 Build 0)  -->
<svg version="1.1" id="ministop" xmlns="http://www.w3.org/2000/svg" xmlns:xlink="http://www.w3.org/1999/xlink" x="0px" y="0px"
	 viewBox="0 0 15 15" enable-background="new 0 0 15 15" xml:space="preserve">
<circle fill="#FFC000" cx="7.5" cy="7.5" r="7.5"/>
<path fill="#FFFFFF" d="M8.17,3.47c1.46-2.02,3.95-0.56,4.08,0.82c1.59,0.86,1.38,2.26,1.38,2.26s1.13,0.53,1.15,1.65
	c0,1.67-1.34,2.14-1.34,2.14s0.02,0.45,0,0.84s-0.58,0.6-0.58,0.6s-9.7,0-10.46,0s-0.62-0.76-0.62-0.76L1.74,7.85
	c0,0-0.29-0.03-0.89-0.09c-0.99-0.31-0.33-1.11-0.33-1.11s3.13-3.21,3.73-3.88s1.15-0.12,1.15-0.12l0.9,0.82H8.17z"/>
<path fill="#140F82" d="M12.75,11.41H2.43c-0.18,0-0.33-0.15-0.33-0.33V7.51H1.06c-0.13,0-0.25-0.08-0.3-0.2
	C0.7,7.18,0.73,7.04,0.82,6.95l3.9-4.01c0.06-0.06,0.14-0.1,0.23-0.1c0.09,0,0.17,0.03,0.23,0.09l1.17,1.12
	c0.13,0.13,0.13,0.34,0.01,0.47C6.23,4.65,6.02,4.65,5.89,4.52L4.96,3.64L1.84,6.85h0.59c0.18,0,0.33,0.15,0.33,0.33v3.57h9.66V9.92
	c0-0.16,0.11-0.29,0.27-0.32c0.04-0.01,1.12-0.24,1.11-1.18c-0.01-0.95-1.05-1.09-1.11-1.16c-0.06-0.07,0.29-1.74-1.39-2.22
	c-0.01-0.59-0.3-1.26-0.76-1.49C10.11,3.33,9.61,3.4,9.13,3.74C8.98,3.85,8.77,3.81,8.67,3.66C8.56,3.51,8.6,3.31,8.75,3.2
	c0.68-0.48,1.44-0.57,2.09-0.24c0.6,0.3,1.01,0.92,1.1,1.64c1.09,0.32,1.36,1.42,1.36,2.2c0.52,0.13,1.15,0.55,1.16,1.61
	c0.01,1.03-0.79,1.56-1.37,1.76v0.9C13.08,11.26,12.93,11.41,12.75,11.41z"/>
<path fill="#140F82" d="M6.16,7.61c-0.23,0-0.41-0.18-0.41-0.41L5.75,6.62l-0.1,0.12C5.57,6.83,5.45,6.96,5.35,7.09
	C5.21,6.99,5.14,6.88,5.06,6.8L4.85,6.58v0.61c0,0.23-0.18,0.41-0.41,0.41S4.02,7.42,4.02,7.19V5.58c0-0.17,0.1-0.32,0.25-0.38
	c0.15-0.06,0.33-0.03,0.45,0.09l0.61,0.61l0.52-0.59C5.97,5.19,6.15,5.14,6.31,5.2c0.16,0.06,0.27,0.21,0.27,0.39v1.61
	C6.58,7.42,6.39,7.61,6.16,7.61z"/>
<path fill="#140F82" d="M7.36,7.61c-0.23,0-0.41-0.18-0.41-0.41V5.58c0-0.23,0.18-0.41,0.41-0.41s0.41,0.18,0.41,0.41v1.61
	C7.77,7.42,7.59,7.61,7.36,7.61z"/>
<path fill="#140F82" d="M10.86,7.61c-0.23,0-0.41-0.18-0.41-0.41V5.58c0-0.23,0.18-0.41,0.41-0.41c0.23,0,0.41,0.18,0.41,0.41v1.61
	C11.27,7.42,11.09,7.61,10.86,7.61z"/>
<path fill="#140F82" d="M9.71,7.61c-0.13,0-0.25-0.06-0.33-0.16L8.88,6.8v0.4c0,0.23-0.18,0.41-0.41,0.41
	c-0.23,0-0.41-0.18-0.41-0.41V5.58c0-0.18,0.11-0.33,0.28-0.39c0.17-0.06,0.35,0,0.46,0.14l0.5,0.65v-0.4
	c0-0.23,0.18-0.41,0.41-0.41c0.23,0,0.41,0.18,0.41,0.41v1.61c0,0.18-0.11,0.33-0.28,0.39C9.79,7.6,9.75,7.61,9.71,7.61z"/>
<path fill="#140F82" d="M6.77,7.88H5.84c-0.24,0-0.43,0.17-0.43,0.38c0,0.21,0.19,0.38,0.43,0.38h0.05v1.29
	c0,0.23,0.18,0.41,0.41,0.41c0.23,0,0.41-0.18,0.41-0.41V8.65h0.06c0.24,0,0.43-0.17,0.43-0.38C7.21,8.05,7.01,7.88,6.77,7.88z"/>
<path fill="#140F82" d="M5.24,8.62c0,0,0.19-0.3,0-0.47C5.05,7.99,4.48,7.61,3.89,8.12C3.73,8.3,3.57,8.99,4.14,9.35
	C4.25,9.43,4.68,9.6,4.48,9.69c0,0-0.06,0.01-0.21-0.08C4.07,9.55,3.8,9.52,3.74,9.66c-0.06,0.14-0.23,0.44,0.3,0.71
	c0.21,0.11,0.84,0.24,1.11-0.13C5.41,9.86,5.5,9.29,5.09,9.01C4.68,8.73,4.46,8.65,4.6,8.54c0.11-0.01,0.25,0.12,0.25,0.12
	S5.12,8.76,5.24,8.62z"/>
<path fill="#140F82" d="M10.91,7.88h-0.65l0,0c-0.02,0-0.03,0-0.04,0C9.83,7.87,9.83,8.13,9.83,8.13s0.02,1.14,0,1.6
	c-0.02,0.46,0.12,0.66,0.45,0.67c0.33,0.01,0.4-0.37,0.4-0.37V9.55C11,9.56,11.81,9.51,11.81,8.7C11.77,7.82,10.91,7.88,10.91,7.88z
	 M10.71,8.91V8.52c0.38-0.01,0.44,0.1,0.45,0.19C11.15,8.99,10.71,8.91,10.71,8.91z"/>
<path fill="#140F82" d="M8.33,7.85c-0.71,0-1.29,0.58-1.29,1.29c0,0.71,0.58,1.29,1.29,1.29c0.71,0,1.29-0.58,1.29-1.29
	C9.62,8.43,9.05,7.85,8.33,7.85z M8.33,9.64c-0.28,0-0.51-0.23-0.51-0.51s0.23-0.51,0.51-0.51c0.28,0,0.51,0.23,0.51,0.51
	S8.61,9.64,8.33,9.64z"/>
</svg>
