<?xml version="1.0" encoding="utf-8"?>
<!-- Generator: Adobe Illustrator 21.1.0, SVG Export Plug-In . SVG Version: 6.00 Build 0)  -->
<svg version="1.1" id="レイヤー_1" xmlns="http://www.w3.org/2000/svg" xmlns:xlink="http://www.w3.org/1999/xlink" x="0px"
	 y="0px" viewBox="0 0 16 16" enable-background="new 0 0 16 16" xml:space="preserve">
<g id="lawson">
	<path fill="#0078B4" d="M15.969,1.611C7.621-2.011,0.031,1.606,0.031,1.606l2.006,6.392l-2.006,6.397c0,0,7.59,3.616,15.939-0.005
		l-1.984-6.392L15.969,1.611z"/>
	<path fill="#FFFFFF" d="M14.972,2.077C8.683-0.362,2.92,1.362,1.028,2.072l1.865,5.92l-1.86,5.931
		c0.77,0.293,2.19,0.754,4.017,1.03c2.423,0.363,6.056,0.461,9.921-1.035l-1.838-5.926L14.972,2.077z M13.963,13.424
		c-2.754,0.938-5.687,1.187-8.739,0.737c-1.312-0.195-2.407-0.488-3.188-0.743l1.697-5.421L2.042,2.581
		c2.179-0.705,6.815-1.735,11.927,0l-1.681,5.416L13.963,13.424z"/>
	<path fill="#FFFFFF" d="M9.518,5.357V5.319V5.113h0.19c-0.016,0-0.033,0.119-0.043,0.173c0.309,0.049,0.499-0.19,0.531-0.336
		c0.043-0.266-0.108-0.417-0.217-0.499l0.358-1.025c0,0,0.352-0.927-0.84-1.025c-1.193-0.103-1.605-0.07-3.003,0.005
		C5.089,2.484,5.701,3.66,5.701,3.66L5.956,4.49C5.848,4.582,5.734,4.739,5.772,4.972C5.804,5.119,6,5.341,6.303,5.292
		C6.287,5.243,6.271,5.119,6.26,5.119h0.282v0.206v0.049C5.018,6.306,5.306,7.873,5.306,7.873s0,2.987,0,4.37
		s1.209,1.366,1.209,1.366H9.41c0,0,1.415,0.011,1.415-1.366s0-4.37,0-4.37S10.825,6.29,9.518,5.357z M9.155,5.113H7.051V4.967
		h2.103V5.113L9.155,5.113z M6.829,3.373c-0.049,0,0.005,0.07,0.005,0.114v1.079l-0.32,0.342L6.417,4.934
		c0,0-0.363-1.101-0.439-1.355c-0.325-0.976,0.32-0.802,0.575-0.878C7.892,2.619,7.951,2.625,9.35,2.674
		c1.095,0.027,0.748,0.737,0.748,0.737L9.523,4.918V4.913L9.307,4.587V3.492c0-0.049-0.146-0.114-0.19-0.114
		C9.117,3.373,6.829,3.373,6.829,3.373z"/>
</g>
</svg>
