<?xml version="1.0" encoding="utf-8"?>
<!-- Generator: Adobe Illustrator 20.0.0, SVG Export Plug-In . SVG Version: 6.00 Build 0)  -->
<svg version="1.1" id="familymart" xmlns="http://www.w3.org/2000/svg" xmlns:xlink="http://www.w3.org/1999/xlink" x="0px" y="0px"
	 viewBox="0 0 15 15" enable-background="new 0 0 15 15" xml:space="preserve">
<g>
	<path fill="#FFFFFF" d="M0.97,11.19h13.05C14.64,10.1,15,8.84,15,7.5c0-0.95-0.18-1.85-0.5-2.69H0.5C0.18,5.65,0,6.55,0,7.5
		C0,8.84,0.36,10.1,0.97,11.19z"/>
	<path fill="#24A62C" d="M7.5,0c-3.19,0-5.91,2-7,4.81H14.5C13.41,2,10.69,0,7.5,0z"/>
	<path fill="#0076C6" d="M7.5,15c2.8,0,5.24-1.54,6.53-3.81H0.97C2.26,13.46,4.7,15,7.5,15z"/>
</g>
<polygon fill="#0076C6" points="0.91,8.76 0.5,8.76 0.5,6.63 1.88,6.63 1.88,7.02 0.91,7.02 0.91,7.41 1.88,7.41 1.88,7.81 
	0.91,7.81 "/>
<path fill="#0076C6" d="M3.16,8.6c0,0,0.01-0.78,0-0.91C3.05,7.04,2.09,7.31,2.09,7.31v0.38c0.55-0.24,0.65-0.02,0.68,0.09
	c-0.68-0.11-0.94,0.3-0.79,0.74c0.39,0.4,0.81,0.11,0.81,0.11l0.02,0.13c0,0,0.04,0,0.41,0C3.16,8.74,3.16,8.6,3.16,8.6z M2.76,8.35
	c0,0-0.24,0.18-0.42,0s0.13-0.42,0.42-0.26V8.35z"/>
<path fill="#0076C6" d="M4.6,7.44C4.24,7.13,3.97,7.27,3.83,7.41V7.26H3.44v1.5h0.39V7.78c0.06-0.06,0.13-0.12,0.21-0.13
	c0.26,0,0.23,0.25,0.23,0.25v0.86h0.42c0,0,0-0.67,0-0.84s0.03-0.28,0.21-0.29c0.18-0.01,0.22,0.21,0.22,0.21v0.93h0.39
	c0,0,0-1.01,0-1.2C5.25,7.05,4.71,7.34,4.6,7.44z"/>
<rect x="5.83" y="7.31" fill="#0076C6" width="0.4" height="1.45"/>
<circle fill="#0076C6" cx="6.03" cy="6.89" r="0.26"/>
<rect x="6.5" y="6.64" fill="#0076C6" width="0.43" height="2.12"/>
<polygon fill="#0076C6" points="7.62,8.61 7.07,7.31 7.54,7.31 7.84,8.09 8.16,7.31 8.57,7.31 7.76,9.38 7.31,9.38 "/>
<polygon fill="#0076C6" points="8.69,8.76 8.69,6.64 9.12,6.64 9.67,7.25 10.26,6.64 10.68,6.64 10.68,8.76 10.26,8.76 10.26,7.31 
	9.69,8.01 9.13,7.31 9.13,8.76 "/>
<path fill="#0076C6" d="M12.13,8.6c0,0,0.01-0.78,0-0.91c-0.11-0.65-1.07-0.38-1.07-0.38v0.38c0.55-0.24,0.65-0.02,0.68,0.09
	c-0.68-0.11-0.94,0.3-0.79,0.74c0.39,0.4,0.81,0.11,0.81,0.11l0.02,0.13c0,0,0.04,0,0.41,0C12.13,8.74,12.13,8.6,12.13,8.6z
	 M11.73,8.35c0,0-0.24,0.18-0.42,0s0.13-0.42,0.42-0.26V8.35z"/>
<path fill="#0076C6" d="M12.79,7.4V7.31h-0.42v1.45l0.42,0V7.81c0.33-0.19,0.49-0.02,0.49-0.02s0-0.21,0-0.48
	C13.04,7.24,12.89,7.31,12.79,7.4z"/>
<path fill="#0076C6" d="M14.03,7.65h0.35V7.28h-0.35V6.8l-0.41,0.14v0.34h-0.25v0.36h0.25v0.59c0,0.73,0.76,0.46,0.76,0.46
	s0-0.05,0-0.35c-0.33,0.13-0.35-0.16-0.35-0.16V7.65z"/>
</svg>
