<?xml version="1.0" encoding="utf-8"?>
<!-- Generator: Adobe Illustrator 21.1.0, SVG Export Plug-In . SVG Version: 6.00 Build 0)  -->
<svg version="1.1" id="レイヤー_1" xmlns="http://www.w3.org/2000/svg" xmlns:xlink="http://www.w3.org/1999/xlink" x="0px"
	 y="0px" viewBox="0 0 14 14" enable-background="new 0 0 14 14" xml:space="preserve">
<g id="ministop">
	<rect fill="#FFCC00" width="14" height="14" rx="2" ry="2"/>
	<path fill="#FFFFFF" d="M7.546,3.621c1.283-1.787,3.5-0.495,3.607,0.728c1.405,0.761,1.223,2.007,1.223,2.007
		s1.003,0.467,1.022,1.461c0,1.475-1.185,1.89-1.185,1.89s0.023,0.401,0,0.747c-0.023,0.345-0.509,0.527-0.509,0.527
		s-8.587,0-9.254,0s-0.546-0.667-0.546-0.667L1.867,7.495c0,0-0.252-0.028-0.784-0.084c-0.877-0.275-0.289-0.98-0.289-0.98
		s2.767-2.847,3.299-3.43S5.11,2.893,5.11,2.893l0.798,0.728L7.546,3.621L7.546,3.621z"/>
	<path fill="#485183" d="M11.606,10.645H2.473c-0.163,0-0.289-0.126-0.289-0.289V7.201H1.255c-0.121,0-0.224-0.07-0.266-0.177
		C0.947,6.916,0.966,6.79,1.045,6.706l3.453-3.542C4.555,3.108,4.625,3.08,4.704,3.08s0.154,0.028,0.205,0.084l1.027,0.989
		c0.112,0.112,0.121,0.299,0.009,0.411C5.833,4.676,5.647,4.685,5.535,4.573L4.709,3.789L1.941,6.636h0.523
		c0.163,0,0.289,0.126,0.289,0.289v3.155h8.549V9.352c0-0.14,0.098-0.261,0.233-0.285c0.042-0.009,0.989-0.21,0.98-1.045
		c-0.009-0.84-0.924-0.966-0.98-1.031c-0.056-0.065,0.252-1.54-1.227-1.965c-0.009-0.523-0.266-1.115-0.672-1.321
		C9.254,3.514,8.811,3.57,8.386,3.873c-0.135,0.093-0.313,0.065-0.411-0.07C7.882,3.668,7.91,3.491,8.045,3.393
		c0.602-0.425,1.279-0.499,1.848-0.21c0.527,0.266,0.891,0.812,0.975,1.456c0.961,0.285,1.209,1.255,1.199,1.941
		c0.457,0.112,1.017,0.485,1.031,1.428c0.009,0.91-0.7,1.386-1.213,1.559v0.798C11.895,10.519,11.769,10.645,11.606,10.645z"/>
	<path fill="#485183" d="M5.777,7.285c-0.205,0-0.369-0.163-0.369-0.369L5.399,6.407L5.306,6.515
		C5.241,6.594,5.138,6.706,5.054,6.818C4.928,6.734,4.872,6.641,4.793,6.571L4.601,6.379v0.541c0,0.205-0.163,0.369-0.369,0.369
		c-0.205,0-0.369-0.163-0.369-0.369V5.493c0-0.149,0.093-0.285,0.224-0.341c0.135-0.056,0.299-0.023,0.397,0.079l0.537,0.541
		L5.479,5.25C5.577,5.138,5.74,5.096,5.88,5.152c0.14,0.056,0.233,0.191,0.233,0.341v1.419C6.137,7.121,5.973,7.285,5.777,7.285z"/>
	<path fill="#485183" d="M6.827,7.285c-0.205,0-0.369-0.163-0.369-0.369V5.488c0-0.205,0.163-0.369,0.369-0.369
		s0.369,0.163,0.369,0.369v1.428C7.196,7.121,7.033,7.285,6.827,7.285z"/>
	<path fill="#485183" d="M9.926,7.285c-0.205,0-0.369-0.163-0.369-0.369V5.488c0-0.205,0.163-0.369,0.369-0.369
		c0.205,0,0.369,0.163,0.369,0.369v1.428C10.295,7.121,10.131,7.285,9.926,7.285z"/>
	<path fill="#485183" d="M8.909,7.285c-0.112,0-0.219-0.051-0.289-0.14L8.181,6.571v0.355c0,0.205-0.163,0.369-0.369,0.369
		S7.443,7.131,7.443,6.925V5.497c0-0.154,0.098-0.299,0.247-0.345c0.149-0.051,0.313,0,0.411,0.121L8.54,5.847V5.493
		c0-0.205,0.163-0.369,0.369-0.369c0.205,0,0.369,0.163,0.369,0.369v1.428c0,0.154-0.098,0.299-0.247,0.345
		C8.988,7.28,8.946,7.285,8.909,7.285z"/>
	<path fill="#485183" d="M6.309,7.527H5.483c-0.21,0-0.383,0.154-0.383,0.341c0,0.191,0.168,0.341,0.383,0.341h0.051v1.143
		c0,0.205,0.163,0.369,0.369,0.369s0.369-0.163,0.369-0.369V8.209h0.051c0.21,0,0.383-0.154,0.383-0.341
		C6.701,7.672,6.524,7.527,6.309,7.527z"/>
	<path fill="#485183" d="M4.956,8.181c0,0,0.168-0.266,0-0.411C4.788,7.621,4.279,7.289,3.761,7.742
		c-0.149,0.154-0.285,0.77,0.219,1.087c0.098,0.07,0.481,0.224,0.299,0.303c0,0-0.056,0.014-0.191-0.07
		C3.92,9.011,3.677,8.983,3.621,9.105c-0.056,0.121-0.205,0.387,0.261,0.63c0.191,0.098,0.742,0.21,0.98-0.112
		c0.238-0.327,0.327-0.835-0.042-1.078c-0.369-0.247-0.56-0.327-0.439-0.415C4.48,8.12,4.606,8.237,4.606,8.237
		S4.849,8.302,4.956,8.181z"/>
	<path fill="#485183" d="M9.968,7.527H9.394l0,0c-0.014,0-0.028,0-0.042,0C9.011,7.518,9.011,7.751,9.011,7.751s0.023,1.008,0,1.414
		C8.988,9.576,9.119,9.753,9.413,9.758c0.289,0.009,0.359-0.331,0.359-0.331v-0.42c0.275,0.009,0.994-0.037,0.994-0.756
		C10.738,7.471,9.968,7.527,9.968,7.527z M9.791,8.437V8.092c0.331-0.009,0.387,0.084,0.401,0.163
		C10.187,8.507,9.791,8.437,9.791,8.437z"/>
	<path fill="#485183" d="M7.695,7.499c-0.63,0-1.143,0.513-1.143,1.143s0.513,1.143,1.143,1.143s1.143-0.513,1.143-1.143
		S8.325,7.499,7.695,7.499z M7.695,9.086c-0.247,0-0.443-0.196-0.443-0.443s0.196-0.443,0.443-0.443s0.443,0.196,0.443,0.443
		S7.943,9.086,7.695,9.086z"/>
</g>
</svg>
