<?xml version="1.0" encoding="utf-8"?>
<!-- Generator: Adobe Illustrator 21.1.0, SVG Export Plug-In . SVG Version: 6.00 Build 0)  -->
<svg version="1.1" id="レイヤー_1" xmlns="http://www.w3.org/2000/svg" xmlns:xlink="http://www.w3.org/1999/xlink" x="0px"
	 y="0px" viewBox="0 0 14 14" enable-background="new 0 0 14 14" xml:space="preserve">
<g id="レイヤー_1_1_">
	<g id="レイヤー_3_1_">
		<rect y="3.992" fill="#FFFFFF" width="14" height="6.253"/>
	</g>
	<g id="familymart">
		<polygon fill="#3393C3" points="0.845,8.178 0.471,8.178 0.471,6.186 1.75,6.186 1.75,6.554 0.845,6.554 0.845,6.914 1.75,6.914 
			1.75,7.292 0.845,7.292 		"/>
		<path fill="#3393C3" d="M2.94,8.034c0,0,0.009-0.728,0-0.849C2.833,6.578,1.941,6.83,1.941,6.83v0.355
			c0.513-0.229,0.602-0.014,0.63,0.084c-0.63-0.107-0.873,0.28-0.737,0.691C2.193,8.328,2.59,8.066,2.59,8.066l0.019,0.117
			c0,0,0.037,0,0.378,0C2.94,8.16,2.94,8.034,2.94,8.034z M2.571,7.8c0,0-0.224,0.163-0.387,0C2.021,7.637,2.301,7.413,2.571,7.558
			V7.8z"/>
		<path fill="#3393C3" d="M4.275,6.946C3.943,6.657,3.696,6.792,3.556,6.918V6.774H3.197v1.405h0.359V7.259
			c0.051-0.061,0.117-0.107,0.196-0.121c0.243,0,0.215,0.233,0.215,0.233v0.807h0.387c0,0,0-0.621,0-0.789
			c0-0.168,0.028-0.261,0.196-0.271C4.713,7.11,4.755,7.315,4.755,7.315v0.863h0.359c0,0,0-0.943,0-1.12
			C4.886,6.582,4.382,6.858,4.275,6.946z"/>
		<rect x="5.418" y="6.825" fill="#3393C3" width="0.369" height="1.353"/>
		<ellipse fill="#3393C3" cx="5.6" cy="6.433" rx="0.238" ry="0.238"/>
		<rect x="6.048" y="6.195" fill="#3393C3" width="0.397" height="1.983"/>
		<polygon fill="#3393C3" points="7.084,8.043 6.571,6.825 7.005,6.825 7.285,7.558 7.588,6.825 7.966,6.825 7.219,8.752 
			6.795,8.752 		"/>
		<polygon fill="#3393C3" points="8.083,8.178 8.083,6.195 8.479,6.195 8.993,6.774 9.543,6.195 9.931,6.195 9.931,8.178 
			9.543,8.178 9.543,6.825 9.007,7.474 8.489,6.825 8.489,8.178 		"/>
		<path fill="#3393C3" d="M11.279,8.029c0,0,0.009-0.728,0-0.849c-0.107-0.607-0.999-0.355-0.999-0.355V7.18
			c0.513-0.229,0.602-0.014,0.63,0.084c-0.63-0.107-0.873,0.28-0.737,0.691c0.359,0.369,0.756,0.107,0.756,0.107l0.019,0.117
			c0,0,0.037,0,0.378,0C11.279,8.16,11.279,8.029,11.279,8.029z M10.911,7.796c0,0-0.224,0.163-0.387,0
			c-0.163-0.163,0.117-0.387,0.387-0.243V7.796z"/>
		<path fill="#3393C3" d="M11.886,6.914V6.83h-0.387v1.353h0.387V7.301c0.303-0.182,0.453-0.019,0.453-0.019s0-0.196,0-0.448
			C12.129,6.755,11.979,6.825,11.886,6.914z"/>
		<path fill="#3393C3" d="M13.039,7.138h0.331V6.797h-0.331V6.349l-0.378,0.126v0.322h-0.233v0.341h0.233v0.551
			c0,0.677,0.705,0.429,0.705,0.429s0-0.047,0-0.331c-0.308,0.117-0.331-0.145-0.331-0.145V7.138L13.039,7.138L13.039,7.138z"/>
	</g>
	<g id="レイヤー_2">
		<rect y="9.322" fill="#3393C3" width="14" height="4.676" rx="2" ry="2"/>
		<rect y="9.322" fill="#3393C3" width="14" height="2.676"/>
		<rect y="0.002" fill="#009933" width="14" height="4.667" rx="2" ry="2"/>
		<rect y="2.002" fill="#009933" width="14" height="2.667"/>
	</g>
</g>
</svg>
