<?xml version="1.0" encoding="utf-8"?>
<!-- Generator: Adobe Illustrator 20.0.0, SVG Export Plug-In . SVG Version: 6.00 Build 0)  -->
<svg version="1.1" id="dailystore" xmlns="http://www.w3.org/2000/svg" xmlns:xlink="http://www.w3.org/1999/xlink" x="0px" y="0px"
	 viewBox="0 0 15 15" enable-background="new 0 0 15 15" xml:space="preserve">
<g>
	<circle fill="#D12220" cx="7.5" cy="7.5" r="7.5"/>
	<path fill="#3D160A" d="M5.77,13.36c-0.21,0-0.71-0.04-0.71-0.04c-0.58-0.15-2.13-0.56-2.62-1.55c-0.2-0.41-0.2-0.87,0-1.37
		C2.77,9.62,2.98,9.12,3.08,8.9c-0.4-0.4-2.21-2.38-0.82-4.91C2.32,3.9,3.68,1.68,6.72,1.68c1.05,0,2.74,0.11,3.96,0.62
		C15,4.45,13.1,9.56,13.1,9.56C11.61,12.08,9.81,13.67,5.77,13.36z"/>
	<g>
		<path fill="#F0DB33" d="M3.25,8.88c0,0,0.01,0.01,0.01,0.01S3.27,8.83,3.25,8.88z"/>
		<path fill="#F0DB33" d="M9.97,2.67C4.67,0.46,2.53,3.8,2.38,4.05C0.89,6.77,3.14,8.78,3.25,8.88c0.03-0.04,0.01,0.01,0.01,0.01
			S3.25,8.88,3.25,8.88C3.2,8.95,3.06,9.26,2.57,10.45c-0.8,1.92,1.89,2.58,2.58,2.76c5.08,0.33,6.54-3.34,6.76-3.85
			C13.39,4.53,10.53,3,9.97,2.67z M6.7,10.37c-0.64-0.05-1.28-0.31-0.88-1.25c0.4-0.94,1.25-2.89,1.25-2.89s0.62-1.13-2.23-1.09
			L4.25,6.27c0,0-0.73-1.07,0.58-1.73s3.96-0.67,4.5,1.58S8.28,10.16,6.7,10.37z"/>
	</g>
	<path fill="#FFFFFF" d="M6.07,4.57c0,0,2.09-0.45,2.82,1.08c0.6,1.25,0.3,2.94-1.1,3.98C7.47,9.9,6.63,10.32,6.96,9.34
		c0.33-0.98,1.33-3.12,1.33-3.12s0.33-0.44-0.29-0.78c-0.53-0.3-0.36-0.29-1.71-0.58C6.05,4.82,5.45,4.64,6.07,4.57z"/>
</g>
</svg>
