<?xml version="1.0" encoding="utf-8"?>
<!-- Generator: Adobe Illustrator 20.1.0, SVG Export Plug-In . SVG Version: 6.00 Build 0)  -->
<svg version="1.1" id="レイヤー_1" xmlns="http://www.w3.org/2000/svg" xmlns:xlink="http://www.w3.org/1999/xlink" x="0px"
	 y="0px" viewBox="0 0 15 15" enable-background="new 0 0 15 15" xml:space="preserve">
<g>
	<path fill="#2f2f2f" d="M14.4,7.5c0-0.8-0.4-1.5-1-1.9c0.5-0.4,0.7-1,0.7-1.7c0-1.1-0.9-2.1-2-2.2c-0.3-0.9-1.1-1.4-2.1-1.4C9.7,0.3,9.3,0.4,9,0.6
		C8.8,0.4,8.6,0.3,8.3,0.2C8.1,0.1,7.8,0,7.5,0C7.2,0,6.9,0.1,6.7,0.2C6.4,0.3,6.2,0.4,6,0.6C5.9,0.5,5.7,0.4,5.5,0.4
		C5.3,0.3,5.1,0.3,4.9,0.3c-1,0-1.8,0.6-2.1,1.4c-1.1,0.1-2,1.1-2,2.2c0,0.7,0.3,1.3,0.7,1.7c-0.6,0.4-1,1.1-1,1.9
		c0,1.1,0.7,1.9,1.7,2.2c-0.1,0.3-0.2,0.5-0.2,0.8c0,1.2,1,2.2,2.2,2.2c0.3,0,0.7-0.1,0.9-0.2c0,0.1,0,0.1,0,0.2
		c0,1.2,1,2.2,2.2,2.2c0.6,0,1.2-0.3,1.6-0.7c0.4-0.4,0.6-1,0.6-1.6c0-0.1,0-0.1,0-0.2c0.1,0.1,0.3,0.1,0.4,0.2
		c0.2,0,0.3,0.1,0.5,0.1c1.2,0,2.2-1,2.2-2.2c0-0.3-0.1-0.6-0.2-0.8C13.7,9.4,14.4,8.6,14.4,7.5z M2.9,4.4C2.5,4.1,3.4,2.9,4,2.7
		C4.4,2.6,4.6,3,4.8,3.6C4.7,3.6,4.6,3.7,4.5,3.8C4.1,4,3.9,4.5,3.8,5C3.5,4.9,3.1,4.6,2.9,4.4z M8.1,11.6H7.5c0,0,0,0,0,0H6.9
		c-0.4,0-0.6-0.4-0.8-0.7c0.3,0,0.5-0.1,0.7-0.1c0.4-0.1,0.6-0.2,0.7-0.4c0.1,0.2,0.3,0.4,0.7,0.4c0.2,0,0.4,0.1,0.7,0.1
		C8.7,11.2,8.5,11.6,8.1,11.6z M10.6,7.7c-0.2,0.6-0.4,0.9-0.6,1.2c0.1,0.1,0.1,0.2,0.1,0.2c0,0.9-0.1,1.2-0.5,1.3
		c-0.4,0.2-0.9,0-1.3,0c-0.6-0.1-0.7-0.4-0.7-0.8V9.1L9,8c0.2-0.1,0.1-0.4-0.2-0.4H6.2C6,7.6,5.9,7.8,6,8l1.3,1.1v0.6
		c-0.1,0.4-0.1,0.7-0.7,0.8c-0.3,0-0.9,0.2-1.3,0C5,10.3,4.9,10,4.9,9.1c0-0.1,0-0.2,0.1-0.2C4.7,8.5,4.6,8.3,4.4,7.7
		C3.8,6.2,3.9,4.6,4.7,4.1C5.5,3.5,6.5,3.8,6.6,4l0.9,0.8L8.4,4c0.1-0.2,1.1-0.5,1.9,0.1C11.1,4.6,11.2,6.2,10.6,7.7z M12.1,4.4
		c-0.2,0.2-0.6,0.4-0.9,0.6c-0.1-0.5-0.3-1-0.7-1.2c-0.1-0.1-0.2-0.1-0.4-0.2c0.3-0.6,0.5-1,0.9-0.9C11.6,2.9,12.5,4.1,12.1,4.4z"/>
	<path fill="#2f2f2f" d="M9.5,5.7C9,5.6,8.7,6,8.5,6.9c0,0,0,0,0.1,0.1C8.7,7,8.9,7.2,9.1,7.2c0.5,0.1,0.8-0.5,0.7-0.6C9.9,6.1,9.7,5.7,9.5,5.7z"/>
	<path fill="#2f2f2f" d="M5.5,5.7c-0.2,0.1-0.4,0.5-0.4,1c0,0.1,0.2,0.7,0.7,0.6c0.2,0,0.4-0.2,0.5-0.3c0.1-0.1,0.1-0.1,0.1-0.1
		C6.3,6,6,5.6,5.5,5.7z"/>
</g>
</svg>
