<?xml version="1.0" encoding="utf-8"?>
<!-- Generator: Adobe Illustrator 20.1.0, SVG Export Plug-In . SVG Version: 6.00 Build 0)  -->
<svg version="1.1" id="doubutsuen" xmlns="http://www.w3.org/2000/svg" xmlns:xlink="http://www.w3.org/1999/xlink" x="0px" y="0px"
	 viewBox="0 0 15 15" enable-background="new 0 0 15 15" xml:space="preserve">
<path d="M14.295,5.8235l-1.2034-0.6387c-0.7909-1.412-2.1481-2.3339-3.9397-2.5739C8.8563,2.5651,8.5744,2.5356,8.3055,2.5184
	c0.4291,0.4627,0.6611,1.1351,0.5791,1.8612C8.7402,5.6569,7.6795,6.6158,6.5153,6.5214c-0.2649-0.0215-0.5121-0.0962-0.7347-0.213
	C5.8778,6.3301,5.9776,6.3459,6.08,6.3542C7.283,6.4518,8.1708,5.615,8.307,4.4099C8.4431,3.2047,7.8131,2.1306,6.5732,1.99
	C6.5498,1.9874,6.5264,1.9856,6.503,1.9843C6.4855,1.985,6.4681,1.9857,6.4507,1.9869c-0.6265,0.0421-1.19,0.4538-1.5158,1.0646
	C4.5981,3.2036,4.4246,3.3278,4.4246,3.3278C4.1859,3.4745,3.9578,3.6583,3.7505,3.8781C3.3644,4.2874,3.1065,4.7611,2.9825,5.234
	c-0.0401,0.1529-0.0662,0.3057-0.078,0.4562c-0.1632,0.939-0.7451,3.1897-0.9129,3.4185C1.8058,9.362,1.2779,9.4446,0.9323,9.242
	c0.005-0.2031-0.026-0.3487-0.0848-0.3571C0.7664,8.8734,0.6632,9.127,0.617,9.4513c-0.0462,0.3243-0.0179,0.5966,0.0631,0.6082
	c0.0097,0.0014,0.0197-0.0011,0.0299-0.007c0.2217,0.0414,1.429,0.2418,1.8235-0.2243c0.3091-0.3653,1.0574-1.5157,1.4647-2.2516
	c0.0731,0.0278,0.1482,0.0507,0.2251,0.0691L4.0956,8.0288c0,0,0.0162,0.0987,0.178,0.0791c0.0492-0.006,0.107-0.0248,0.1635-0.0481
	c-0.0081,0.14-0.0124,0.2914-0.0124,0.4339c0,1.0738,0.2322,2.0847,0.6373,2.9563h2.0042C7.0702,10.6873,7.2293,10,7.4946,9.4464
	C7.9589,9.705,8.5343,9.853,9.1576,9.853c0.6193,0,1.1913-0.1436,1.654-0.3992c0.2639,0.5528,0.4221,1.2335,0.4261,1.9962h2.0042
	c0.4051-0.8717,0.6373-1.8825,0.6373-2.9563c0-0.9155-0.1416-1.7512-0.411-2.4883L14.295,5.8235z"/>
</svg>
