<?xml version="1.0" encoding="utf-8"?>
<!-- Generator: Adobe Illustrator 20.1.0, SVG Export Plug-In . SVG Version: 6.00 Build 0)  -->
<svg version="1.1" id="eki" xmlns="http://www.w3.org/2000/svg" xmlns:xlink="http://www.w3.org/1999/xlink" x="0px" y="0px"
	 viewBox="0 0 15 15" enable-background="new 0 0 15 15" xml:space="preserve">
<rect x="0.432" y="0.35" fill="#FFFFFF" width="14.1" height="14.1"/>
<g>
	<path fill="#04ADDE" d="M1,0C0.45,0,0,0.45,0,1v13c0,0.55,0.45,1,1,1h13c0.55,0,1-0.45,1-1V1c0-0.55-0.45-1-1-1H1z M14,13
		c0,0.55-0.45,1-1,1H2c-0.55,0-1-0.45-1-1V2c0-0.55,0.45-1,1-1h11c0.55,0,1,0.45,1,1V13z"/>
</g>
<path fill="#04ADDE" d="M9.9595,11.7719h1.012c0.6307,0,1.1435-0.4968,1.1435-1.0674v-7.763c0-0.5706-0.5128-1.0196-1.1435-1.0196
	H4.0118c-0.6307,0-1.1268,0.449-1.1268,1.0196v7.763c0,0.5706,0.4961,1.0674,1.1268,1.0674h0.9735v0.0758
	c0,0.0523,0.0162,0.1008,0.038,0.1469l-1.7673,2.429c0.2897,0.2022,0.5954,0.3813,0.9131,0.5416l1.7746-2.6933h3.168l1.7804,2.7019
	c0.3177-0.1593,0.6242-0.3365,0.9141-0.5376l-1.8552-2.5499c0.0014-0.0134,0.0085-0.0248,0.0085-0.0385V11.7719z M5.1051,2.6469
	h4.7898v0.7031H5.1051V2.6469z M3.9136,4.3266h7.1729v4.0234H3.9136V4.3266z M5.0922,11.3854c-0.6904,0-1.25-0.5596-1.25-1.25
	s0.5596-1.25,1.25-1.25c0.6903,0,1.25,0.5596,1.25,1.25S5.7825,11.3854,5.0922,11.3854z M8.8155,10.1354
	c0-0.6904,0.5596-1.25,1.25-1.25s1.25,0.5596,1.25,1.25s-0.5596,1.25-1.25,1.25S8.8155,10.8258,8.8155,10.1354z"/>
</svg>
