<?xml version="1.0" encoding="utf-8"?>
<!-- Generator: Adobe Illustrator 21.1.0, SVG Export Plug-In . SVG Version: 6.00 Build 0)  -->
<svg version="1.1" id="レイヤー_1" xmlns="http://www.w3.org/2000/svg" xmlns:xlink="http://www.w3.org/1999/xlink" x="0px"
	 y="0px" viewBox="0 0 14 14" enable-background="new 0 0 14 14" xml:space="preserve">
<g id="thirtyone_1_">
	<polygon fill="#31418C" points="1.769,11.558 0,3.116 2.379,2.726 2.745,11.558 	"/>
	<path fill="#FF3399" d="M2.891,4.312l-0.145-1.99c0,0,4.106-0.347,4.308,2.708C7.03,5.378,6.87,6.41,5.584,7.043
		c0.896,0.488,1.642,0.676,1.727,1.858c0,0.451-0.023,2.745-4.177,2.788c0-0.61,0-0.756,0-0.756s1.83,0.267,2.116-1.38
		c0-0.451,0.183-1.38-1.91-1.544c0.042-0.451,0-1.004,0-1.004s1.811-0.324,1.68-1.558C5.021,4.861,4.74,4.355,2.891,4.312z"/>
	<polygon fill="#FF3399" points="8.015,11.68 8.156,2.313 10.23,2.421 9.292,11.68 	"/>
	<path fill="#31418C" d="M10.376,4.739l0.145-2.013c0,0,3.562-0.08,3.477,2.994c-0.08,0.835-0.333,1.891-2.398,2.769
		c0.202,0.573,1.103,2.891,1.103,2.891l-0.981,0.183L9.911,8.836l0.16-1.032c0,0,1.83-0.427,1.788-1.633
		C11.859,5.72,11.558,5.007,10.376,4.739z"/>
</g>
</svg>
