<?xml version="1.0" encoding="utf-8"?>
<!-- Generator: Adobe Illustrator 20.0.0, SVG Export Plug-In . SVG Version: 6.00 Build 0)  -->
<svg version="1.1" id="sukiya" xmlns="http://www.w3.org/2000/svg" xmlns:xlink="http://www.w3.org/1999/xlink" x="0px" y="0px"
	 viewBox="0 0 15 15" enable-background="new 0 0 15 15" xml:space="preserve">
<path fill="#D91921" d="M7.15,3.55L7.15,3.55H1.2c0,0,0,2.43,0,4.16c0.29,2.73,2.22,3.74,2.22,3.74l-0.6,1.75h5.01l0,0h4.33
	l-0.59-1.75c0,0,1.89-1.02,2.24-3.75c0-1.73,0-4.15,0-4.15H7.15z"/>
<path fill="#020202" d="M5.24,9.98l0.02-0.07L5.24,9.98C5.01,9.9,4.83,9.84,4.93,9.54l0,0l0,0c0.1-0.22,0.41-0.7,0.42-0.72l0,0l0,0
	C5.39,8.76,5.41,8.7,5.4,8.68l0,0.01c0,0,0,0.01,0,0.01c0,0,0,0,0,0c-0.04,0-0.15,0.06-0.19,0.1C5.07,8.91,4.8,8.99,4.51,8.99
	c-0.18,0-0.36-0.03-0.52-0.1l-0.01,0L3.97,8.88C3.96,8.87,3.94,8.86,3.92,8.84C3.71,8.71,3.41,8.5,3.4,7.91l0-0.01l0-0.01
	c0-0.01,0-0.02,0-0.04C3.42,7.7,3.47,7.29,3.77,6.97c0.08-0.09,0.5-0.55,1.01-0.55l0.05,0c0.08,0,0.13-0.01,0.17-0.01
	c0.03,0,0.06,0,0.08,0c0.01,0,0.03,0.01,0.05,0.01c0.03,0.01,0.06,0.02,0.1,0.02c0.04,0,0.08-0.01,0.1-0.07
	c0.01-0.09-0.01-0.22-0.17-0.24c-0.03,0-0.06-0.01-0.09-0.01c-0.17,0-0.34,0.07-0.87,0.3c-0.23,0.1-0.42,0.19-0.58,0.26
	C3.34,6.82,3.17,6.9,3.06,6.9c-0.03,0-0.05,0-0.07,0c-0.13,0-0.2-0.03-0.3-0.12L2.68,6.78L2.68,6.77c0-0.01-0.1-0.2-0.02-0.39
	C2.7,6.26,2.8,6.18,2.95,6.13c0.4-0.15,1.65-0.66,1.75-0.7c0.03-0.02,0.19-0.14,0.13-0.35C4.76,4.81,4.61,4.27,4.6,4.23
	c-0.03-0.1-0.03-0.31,0.19-0.44c0.03-0.02,0.09-0.03,0.15-0.03c0.16,0,0.29,0.1,0.33,0.26C5.33,4.15,5.57,4.73,5.6,4.8
	c0.03,0.05,0.11,0.13,0.17,0.13c0,0,0,0,0.01,0c0.11-0.01,0.31-0.05,0.35-0.06l1.32-0.51c0.02-0.01,0.11-0.05,0.2-0.05
	c0.11,0,0.21,0.06,0.26,0.17c0.05,0.12,0.07,0.21,0.03,0.28C7.9,4.85,7.81,4.9,7.72,4.92C7.54,4.99,6.31,5.47,6.22,5.54
	C6.2,5.56,6.18,5.58,6.15,5.59c-0.09,0.06-0.2,0.15-0.22,0.27c0.01,0.13,0.1,0.74,0.15,1.06c0,0.03,0.11,0.78,0.08,1.03
	c0,0.09-0.01,0.38-0.04,0.48c0,0.01,0,0.01-0.01,0.02c-0.13,0.56-0.29,0.97-0.44,1.2c0,0,0,0.01-0.01,0.01
	c-0.04,0.08-0.14,0.29-0.41,0.3l-0.01,0L5.24,9.98z M4.85,6.98c-0.82,0.13-0.9,0.75-0.9,0.76l0,0l0,0c-0.04,0.23-0.01,0.4,0.09,0.52
	C4.16,8.4,4.36,8.43,4.51,8.43c0.1,0,0.18-0.01,0.2-0.02C4.97,8.35,5.16,8.2,5.29,7.97C5.4,7.79,5.43,7.6,5.44,7.5
	c-0.02-0.34-0.2-0.51-0.55-0.51c-0.01,0-0.02,0-0.03,0C4.86,6.98,4.85,6.98,4.85,6.98z"/>
<path fill="#020202" d="M7.77,9.74c-0.09,0-0.2-0.02-0.33-0.07l0,0C7.12,9.55,6.88,9.44,6.76,9.35C6.69,9.3,6.44,9.07,6.43,8.91
	c0-0.05-0.01-0.18,0.03-0.29C6.5,8.48,6.61,8.4,6.77,8.38c0.16-0.01,1.12-0.06,1.19-0.07c0.02,0,0.1-0.04,0.12-0.08
	C8.08,8.22,8.08,8.2,8.06,8.17l0,0l0,0c-0.1-0.21-0.18-0.33-0.22-0.36c-0.01,0-0.01-0.01-0.02-0.01C7.79,7.77,7.77,7.76,7.73,7.76
	c-0.05,0-0.12,0.02-0.21,0.05l0,0c-0.52,0.25-0.67,0.34-0.7,0.36L6.81,8.18L6.8,8.19C6.75,8.21,6.65,8.24,6.54,8.24
	c-0.16,0-0.27-0.09-0.29-0.24c0,0,0-0.01,0-0.01c-0.02-0.13,0-0.3,0.36-0.39c0.26-0.1,0.51-0.2,0.64-0.29c0,0,0.01-0.01,0.02-0.01
	c0.1-0.07,0.1-0.1,0.08-0.14l0,0l0,0C7.29,7.05,7.2,6.94,7.2,6.94l0,0c0,0-0.01-0.01-0.03-0.01c-0.02,0-0.06,0.01-0.12,0.05l0,0l0,0
	C6.73,7.13,6.68,7.15,6.65,7.15c0,0-0.01,0-0.02,0c-0.02,0-0.05,0.01-0.08,0.01c-0.1,0-0.15-0.05-0.18-0.09
	C6.35,7.04,6.28,6.94,6.3,6.84c0.02-0.07,0.07-0.13,0.17-0.16c0.12-0.06,0.32-0.13,0.38-0.15c0,0,0,0,0,0l0,0c0,0,0,0,0-0.01
	c-0.04-0.06-0.1-0.3-0.02-0.4C6.87,6.07,6.94,6,7.03,6c0.01,0,0.02,0,0.04,0l0,0l0,0c0.08,0.03,0.3,0.24,0.36,0.3
	c0.01,0,0.02,0,0.03,0c0.03,0,0.06-0.01,0.1-0.03l0,0l0,0c0,0,0.21-0.07,0.33-0.07c0.03,0,0.05,0,0.07,0.01
	c0.18,0.07,0.27,0.2,0.26,0.37c0,0.08-0.03,0.15-0.1,0.24C8.11,6.84,8.1,6.86,8.1,6.87c0.01,0,0.01,0,0.02-0.01
	c0.03-0.02,0.06-0.03,0.09-0.05c0.09-0.05,0.17-0.1,0.25-0.1c0.04,0,0.07,0.01,0.1,0.03l0,0l0,0C8.6,6.77,8.68,6.86,8.68,6.96
	c0,0.05-0.03,0.11-0.12,0.17C8.44,7.23,8.32,7.3,8.28,7.32c-0.01,0-0.05,0.03-0.07,0.07C8.2,7.42,8.2,7.44,8.22,7.47
	c0.01,0.02,0.03,0.05,0.05,0.09C8.39,7.74,8.5,7.93,8.53,8.04C8.55,8.1,8.67,8.42,8.38,8.61c-0.11,0.1-0.2,0.2-1.09,0.24
	c-0.07,0-0.14-0.02-0.2-0.02c-0.1,0-0.15,0.01-0.18,0.03c0,0,0,0-0.01,0c0,0-0.01,0.01-0.01,0.01c0,0.01,0.02,0.02,0.05,0.05
	c0.01,0.01,0.02,0.01,0.03,0.02C7.05,9,7.14,9.07,7.62,9.12c0,0,0.01,0,0.02,0c0.02,0,0.04,0,0.07,0c0.16,0,0.28,0.04,0.34,0.12
	C8.1,9.3,8.12,9.38,8.09,9.49l0,0l0,0C8.06,9.58,8.01,9.74,7.77,9.74z M7.8,6.76C7.87,6.7,7.87,6.65,7.86,6.63l0,0l0,0
	c0,0,0,0-0.01,0c-0.03,0-0.08,0.02-0.12,0.04L7.8,6.76z"/>
<path fill="#020202" d="M9.05,10.68c-0.04,0-0.09-0.01-0.14-0.09c0,0-0.01-0.01-0.01-0.01c-0.03-0.04-0.11-0.14,0-0.23
	c0.05-0.04,0.72-0.71,1.16-1.16l0,0l0,0c0.03-0.03,0.07-0.07,0.08-0.09c0.01-0.05,0.01-0.14-0.03-0.17
	c-0.03,0.02-0.11,0.1-0.16,0.18l0,0.01l-0.19,0.2C9.76,9.32,9.7,9.38,9.6,9.38c-0.07,0-0.14-0.03-0.21-0.1l0,0l0,0
	c0,0-0.01-0.01-0.02-0.02C9.35,9.23,9.3,9.19,9.3,9.12c0-0.07,0.04-0.13,0.13-0.22c0.18-0.16,1.1-1.09,1.16-1.14
	c0-0.01,0.01-0.01,0.01-0.02c-0.07,0.04-0.24,0.17-0.38,0.29l-0.56,0.5c-0.02,0.02-0.1,0.09-0.22,0.09c-0.04,0-0.07-0.01-0.11-0.02
	l-0.01,0L9.33,8.58c-0.04-0.03-0.09-0.1-0.09-0.19c0-0.04,0.01-0.1,0.05-0.17c-0.04-0.04-0.09-0.11-0.13-0.2
	C9.14,8.01,9.13,7.99,9.12,7.95c-0.4-0.95-0.4-1.08-0.37-1.15c0.02-0.04,0.12-0.15,0.26-0.15c0.07,0,0.14,0.03,0.21,0.08
	c0.01,0.01,0.02,0.01,0.04,0.01c0.01,0,0.03,0,0.04-0.01c0.02-0.01,0.04-0.02,0.09-0.03c0.12-0.04,0.35-0.13,0.48-0.22
	c0.01-0.01,0.01-0.01,0.01-0.02c0.02-0.02,0.03-0.03,0-0.11C9.85,6.23,9.72,5.83,9.72,5.82l0-0.01l0-0.01
	C9.71,5.73,9.73,5.57,9.86,5.54L9.97,5.5h0.01c0.07,0,0.24,0.02,0.3,0.06l0.01,0.01l0.01,0.01c0,0,0,0,0,0.01
	c0.03,0.02,0.08,0.06,0.15,0.2c0.07,0.14,0.12,0.23,0.26,0.23c0.02,0,0.05,0,0.08-0.01C10.8,6,10.83,5.99,10.87,5.97
	c0.25-0.08,0.72-0.23,1.01-0.23c0,0,0.01,0,0.01,0c0,0,0.01,0,0.02,0c0.02,0,0.05,0,0.08,0c0.26,0,0.32,0.16,0.33,0.26l0,0
	c0.01,0.14,0.01,0.39-0.22,0.56c-0.24,0.18-0.6,0.48-0.67,0.57l0,0l0,0c-0.05,0.06-0.14,0.11-0.22,0.12c-0.01,0-0.02,0-0.04,0
	c-0.06,0-0.13-0.02-0.16-0.03c-0.01,0-0.02,0.01-0.05,0.02C10.93,7.26,10.9,7.29,10.9,7.3c0,0.01,0,0.02,0.01,0.03
	c0.04,0.03,0.3,0.26,0.38,0.39c0.05-0.06,0.34-0.38,0.39-0.44c0.02-0.04,0.11-0.19,0.3-0.19c0.04,0,0.07,0.01,0.11,0.02
	c0.06,0.02,0.14,0.07,0.17,0.15c0.03,0.1-0.01,0.21-0.12,0.33l-0.24,0.27c-0.04,0.04-0.23,0.25-0.25,0.27l-0.01,0.01
	c-0.01,0.02-0.04,0.09,0.01,0.2c0.06,0.08,0.36,0.45,0.36,0.45l0,0l0.24,0.32l0.1,0.15c0.01,0.02,0.12,0.19,0,0.37l-0.01,0.01
	l-0.01,0.01c-0.01,0-0.01,0.01-0.02,0.02c-0.05,0.05-0.12,0.13-0.25,0.13h0c-0.06,0-0.13-0.02-0.2-0.07
	c-0.07-0.04-0.19-0.22-0.36-0.51c-0.03-0.06-0.07-0.12-0.1-0.17l-0.01,0.07l0,0c-0.02,0.08-0.13,0.5-0.31,0.59
	c-0.07,0.04-0.14,0.07-0.22,0.07c-0.12,0-0.22-0.06-0.32-0.17c-0.1-0.11-0.14-0.15-0.15-0.16c0,0-0.02-0.01-0.03-0.01
	c-0.04,0-0.08,0.03-0.1,0.06l0,0l0,0c-0.08,0.08-1.05,1.05-1.09,1.09C9.17,10.63,9.12,10.68,9.05,10.68z M10.75,9.15
	c0.03,0.02,0.04,0.02,0.05,0.02c0.02,0,0.04-0.04,0.05-0.07c0-0.01,0.01-0.02,0.01-0.02l0,0l0,0c0.03-0.04,0.04-0.13,0.06-0.23
	c-0.08,0.08-0.19,0.18-0.23,0.23c0,0,0,0,0,0C10.69,9.09,10.71,9.11,10.75,9.15z M10.34,8.68c0.02,0.01,0.03,0.02,0.05,0.02
	c0.01,0,0.02,0,0.03-0.01c0.05-0.05,0.35-0.35,0.43-0.44c0.06-0.07,0.07-0.11,0.07-0.13c0-0.01,0-0.01,0-0.02c0,0,0,0,0,0
	c-0.01,0-0.03,0.01-0.04,0.02c-0.04,0.04-0.43,0.42-0.5,0.49C10.34,8.64,10.34,8.67,10.34,8.68z M9.53,7.4
	c0.01,0.1,0.1,0.26,0.17,0.33c0.02,0.02,0.04,0.03,0.08,0.03c0.03,0,0.06-0.01,0.07-0.01c0.03-0.01,0.24-0.12,0.35-0.19c0,0,0,0,0,0
	c-0.01,0.01-0.02,0.01-0.03,0.02c-0.05,0.02-0.11,0.05-0.15,0.07l-0.01,0l-0.01,0C9.96,7.66,9.92,7.66,9.88,7.66l0,0
	c-0.15,0-0.19-0.07-0.22-0.14c0,0,0-0.01,0-0.01l0,0l0,0c-0.05-0.17-0.02-0.23,0.07-0.3c0,0,0.01-0.01,0.01-0.01l0.01-0.01l0.02,0
	c0.06-0.01,0.58-0.22,0.78-0.31c0.28-0.14,0.6-0.17,0.64-0.17l0,0h0c0.06,0,0.11,0,0.14,0c0.13-0.17,0.27-0.36,0.29-0.39
	c0-0.01,0.01-0.01,0.01-0.02c-0.01,0-0.03,0.02-0.06,0.04l-0.02,0.02h-0.01c-0.04,0-0.26,0.09-0.44,0.17
	c-0.04,0.02-1.23,0.59-1.4,0.67l0,0l0,0.01C9.54,7.25,9.53,7.4,9.53,7.4L9.53,7.4z"/>
<path fill="#FFFFFF" d="M7.84,4.51C7.73,4.28,7.47,4.43,7.47,4.43L6.14,4.95c0,0-0.23,0.04-0.36,0.06C5.65,5.02,5.53,4.84,5.53,4.84
	S5.26,4.18,5.2,4.03C5.13,3.79,4.89,3.81,4.83,3.85C4.59,3.99,4.67,4.2,4.67,4.2S4.83,4.78,4.9,5.07C4.97,5.35,4.73,5.5,4.73,5.5
	S3.39,6.05,2.97,6.2C2.54,6.34,2.74,6.74,2.74,6.74c0.1,0.09,0.16,0.1,0.31,0.1c0.15-0.01,0.49-0.2,1.11-0.47
	c0.64-0.28,0.78-0.32,1-0.3C5.39,6.09,5.4,6.3,5.39,6.39C5.34,6.59,5.13,6.5,5.08,6.49c-0.06-0.01-0.12,0-0.29,0
	c-0.47,0-0.87,0.42-0.96,0.52C3.5,7.36,3.49,7.81,3.47,7.91c0.01,0.61,0.34,0.78,0.54,0.92C4.46,9,4.99,8.88,5.16,8.73
	c0.18-0.12,0.24-0.15,0.29-0.1C5.52,8.7,5.41,8.85,5.41,8.85S5.1,9.34,4.99,9.56C4.92,9.8,5.03,9.83,5.26,9.91
	c0.25-0.01,0.32-0.23,0.36-0.28C5.86,9.27,6.03,8.5,6.05,8.42S6.08,8.1,6.08,7.95C6.11,7.71,6,6.93,6,6.93S5.86,6,5.86,5.86
	c0.02-0.19,0.23-0.3,0.31-0.37C6.25,5.42,7.55,4.91,7.7,4.86C7.85,4.81,7.94,4.73,7.84,4.51z M4.73,8.48
	c-0.09,0.02-1,0.16-0.84-0.75c0,0,0.08-0.69,0.96-0.82c0.09,0,0.63-0.04,0.66,0.58C5.51,7.71,5.37,8.32,4.73,8.48z"/>
<path fill="#FFFFFF" d="M8.52,6.8C8.43,6.74,8.28,6.87,8.15,6.93C7.95,7,8.04,6.82,8.06,6.78c0.09-0.1,0.09-0.16,0.09-0.2
	C8.17,6.38,8,6.31,7.94,6.28S7.63,6.33,7.59,6.34c-0.11,0.05-0.16,0.04-0.2,0.02C7.35,6.33,7.11,6.1,7.05,6.08
	C6.99,6.06,6.92,6.11,6.88,6.17C6.83,6.22,6.87,6.41,6.91,6.48c0.04,0.06-0.02,0.11-0.02,0.11S6.64,6.67,6.5,6.74
	C6.26,6.83,6.43,7.03,6.43,7.03c0.05,0.09,0.18,0.05,0.22,0.05s0.22-0.09,0.36-0.16c0.18-0.12,0.25-0.02,0.25-0.02
	s0.09,0.12,0.15,0.24C7.49,7.26,7.34,7.34,7.3,7.38c-0.13,0.09-0.4,0.2-0.66,0.3C6.27,7.77,6.32,7.93,6.33,8
	c0.03,0.26,0.37,0.16,0.44,0.12C6.8,8.08,7.31,7.83,7.49,7.75c0.28-0.11,0.33-0.04,0.39,0c0.07,0.04,0.16,0.2,0.25,0.39
	C8.23,8.3,8,8.39,7.96,8.39c-0.04,0-1.02,0.05-1.18,0.06C6.48,8.48,6.49,8.79,6.5,8.91C6.5,9.02,6.71,9.22,6.8,9.29
	C6.9,9.36,7.11,9.47,7.46,9.6C7.9,9.76,7.97,9.62,8.02,9.47C8.1,9.14,7.69,9.19,7.62,9.19C7.06,9.14,7,9.05,6.9,8.98
	C6.77,8.87,6.83,8.84,6.86,8.8c0.1-0.08,0.36-0.04,0.53-0.03c0.79,0,0.89-0.17,0.96-0.22C8.6,8.38,8.47,8.09,8.46,8.06
	C8.43,7.93,8.2,7.58,8.15,7.5c-0.07-0.15,0.06-0.23,0.1-0.25c0.03-0.01,0.14-0.09,0.27-0.18C8.69,6.96,8.56,6.83,8.52,6.8z
	 M7.78,6.87L7.63,6.64c0,0,0.23-0.14,0.29-0.06C7.94,6.61,7.99,6.72,7.78,6.87z"/>
<path fill="#FFFFFF" d="M12.3,9.32l-0.1-0.15l-0.24-0.32c0,0-0.32-0.4-0.37-0.46C11.5,8.21,11.58,8.1,11.58,8.1s0,0,0.02-0.02
	c0.02-0.02,0.24-0.27,0.24-0.27s0,0,0.24-0.27s0.04-0.36-0.01-0.37c-0.24-0.07-0.33,0.14-0.33,0.14s-0.34,0.39-0.4,0.45
	c-0.05,0.06-0.1,0.03-0.1,0.01c-0.02-0.09-0.33-0.36-0.38-0.4c-0.08-0.08-0.01-0.17,0.08-0.21c0.09-0.04,0.1-0.02,0.11-0.01
	c0.01,0.01,0.08,0.03,0.15,0.02s0.13-0.05,0.17-0.09c0.08-0.11,0.5-0.45,0.68-0.58s0.2-0.35,0.19-0.5
	c-0.03-0.25-0.31-0.19-0.36-0.19c-0.32-0.01-0.91,0.2-1.1,0.26c-0.26,0.06-0.34-0.11-0.41-0.26c-0.07-0.14-0.12-0.16-0.14-0.18
	c-0.06-0.03-0.27-0.03-0.27-0.03s0,0-0.1,0.02C9.77,5.65,9.79,5.8,9.79,5.8s0.13,0.4,0.17,0.53c0.05,0.14-0.01,0.16-0.04,0.2
	C9.74,6.67,9.39,6.78,9.34,6.81C9.28,6.83,9.22,6.83,9.18,6.8C8.98,6.64,8.83,6.81,8.81,6.84C8.76,6.94,9.16,7.86,9.22,8
	s0.16,0.22,0.16,0.22C9.24,8.36,9.32,8.49,9.37,8.53c0.15,0.05,0.25-0.05,0.25-0.05l0.57-0.5c0,0,0.36-0.29,0.42-0.31
	c0.17-0.01,0.04,0.15,0.04,0.15S9.67,8.79,9.48,8.96S9.4,9.18,9.44,9.23C9.6,9.38,9.72,9.26,9.72,9.26L9.9,9.07
	c0,0,0.16-0.25,0.24-0.21s0.08,0.19,0.07,0.25c-0.02,0.06-0.11,0.13-0.11,0.13s-1.1,1.1-1.17,1.16s-0.01,0.1,0.03,0.15
	c0.07,0.12,0.17,0.01,0.17,0.01s1.01-1,1.09-1.09c0.12-0.15,0.23-0.07,0.23-0.07s0.02,0.02,0.16,0.17c0.18,0.22,0.36,0.15,0.45,0.09
	c0.16-0.08,0.28-0.55,0.28-0.55l0.05-0.26c0,0,0.09,0.17,0.19,0.35c0.1,0.18,0.26,0.44,0.33,0.49c0.22,0.14,0.33-0.03,0.38-0.08
	C12.4,9.46,12.3,9.32,12.3,9.32z M10.58,6.93c-0.2,0.09-0.74,0.3-0.8,0.32C9.72,7.3,9.68,7.31,9.73,7.48
	c0.02,0.05,0.02,0.13,0.26,0.09c0.09-0.03,0.24-0.12,0.26-0.12s0.15,0.03-0.02,0.16c-0.12,0.07-0.36,0.19-0.36,0.19
	S9.74,7.87,9.65,7.78c-0.09-0.09-0.2-0.35-0.19-0.4c0,0,0.01-0.19,0.2-0.26c0.17-0.09,1.4-0.68,1.4-0.68s0.44-0.19,0.47-0.19
	c0.03-0.01,0.12-0.06,0.15-0.02c0.01,0.02,0.03,0.05,0,0.11s-0.32,0.44-0.32,0.44s-0.02-0.01-0.17-0.01
	C11.08,6.78,10.81,6.82,10.58,6.93z M10.46,8.75c0,0-0.08,0.06-0.18-0.02c0,0-0.04-0.08,0.04-0.17c0.06-0.06,0.51-0.49,0.51-0.49
	s0.1-0.08,0.15,0c0.02,0.03,0.05,0.08-0.08,0.23C10.81,8.39,10.46,8.75,10.46,8.75z M10.93,9.12c-0.04,0.07-0.08,0.19-0.22,0.09
	c-0.06-0.05-0.12-0.12-0.07-0.18c0.05-0.06,0.32-0.32,0.37-0.34C11.01,8.7,11,9.01,10.93,9.12z"/>
<rect x="4.5" y="10.9" fill="#231F20" width="5.95" height="0.85"/>
<g>
	<path fill="#FFFFFF" d="M5.95,11.19c0,0,0.01-0.21-0.27-0.21c-0.29,0-0.29,0.21-0.29,0.21s0.01,0.19,0.23,0.2
		c0,0,0.15,0.01,0.15,0.08c0,0.03-0.03,0.07-0.08,0.07s-0.11-0.03-0.11-0.11l-0.2,0c0,0-0.03,0.24,0.32,0.24
		c0.22-0.01,0.28-0.12,0.28-0.22c0-0.1-0.07-0.2-0.22-0.23c-0.13-0.02-0.16-0.02-0.16-0.07c0-0.03,0.03-0.05,0.07-0.05
		c0.04,0,0.08,0.01,0.09,0.08C5.83,11.18,5.95,11.19,5.95,11.19z"/>
</g>
<g>
	<path fill="#FFFFFF" d="M6.14,11v0.35c0,0-0.03,0.32,0.32,0.32s0.32-0.31,0.32-0.31l0-0.37h-0.2l0,0.36c0,0,0.01,0.16-0.11,0.16
		s-0.12-0.14-0.12-0.14V11H6.14z"/>
</g>
<g>
	<polygon fill="#FFFFFF" points="7.68,11.67 7.43,11.24 7.66,11 7.39,11 7.17,11.24 7.17,11 6.97,11 6.97,11.67 7.17,11.67 
		7.17,11.51 7.28,11.39 7.42,11.67 	"/>
</g>
<g>
	<rect x="7.82" y="10.99" fill="#FFFFFF" width="0.22" height="0.68"/>
</g>
<g>
	<polygon fill="#FFFFFF" points="8.66,10.99 8.52,11.21 8.39,10.99 8.16,10.99 8.42,11.38 8.42,11.67 8.64,11.67 8.64,11.36 
		8.88,10.99 	"/>
</g>
<g>
	<g>
		<path fill="#FFFFFF" d="M9.33,10.99H9.27H9.17H9.11l-0.25,0.68h0.21l0.03-0.11h0.24l0.03,0.11h0.21L9.33,10.99z M9.15,11.41
			l0.07-0.25l0.07,0.25H9.15z"/>
	</g>
</g>
</svg>
