<?xml version="1.0" encoding="utf-8"?>
<!-- Generator: Adobe Illustrator 21.1.0, SVG Export Plug-In . SVG Version: 6.00 Build 0)  -->
<svg version="1.1" id="レイヤー_1" xmlns="http://www.w3.org/2000/svg" xmlns:xlink="http://www.w3.org/1999/xlink" x="0px"
	 y="0px" viewBox="0 0 14 14" enable-background="new 0 0 14 14" xml:space="preserve">
<g>
	<rect fill="#11AB3B" width="14" height="14" rx="2" ry="2"/>
	<g>
		<path fill="#145C46" d="M2.109,10.869c0,0-1.75-1.013-1.302-2.819c0.737-1.461,2.548-5.077,2.548-5.077s0.971-1.227,2.179-0.779
			C5.866,2.329,6.473,2.338,7.07,3.747c0.252-0.621,0.583-1.302,1.246-1.517s1.811-0.294,2.511,0.835
			c0.271,0.527,2.333,4.802,2.333,4.802s0.602,1.904-1.013,2.898c-0.644,0.313-2.217,0.737-3.052-1.498
			c-0.294,0.817-0.504,1.363-1.419,1.615c-0.467,0.135-2.021,0.485-2.721-1.577C4.676,10.052,3.878,11.55,2.109,10.869z"/>
		<path fill="#FFFFFF" d="M4.737,8.848L2.949,4.881c0,0-1.652,3.15-1.671,3.771c-0.019,0.621,0.411,2.296,2.296,1.713
			C4.055,10.229,4.461,9.431,4.737,8.848z"/>
		<path fill="#FFFFFF" d="M7.784,10.337L7.784,10.337c-0.817,0.378-1.792,0.019-2.17-0.793L3.467,4.919
			c-0.378-0.817-0.019-1.792,0.793-2.17l0,0c0.817-0.378,1.792-0.019,2.17,0.793l2.147,4.625C8.955,8.979,8.596,9.954,7.784,10.337z
			"/>
		<path fill="#FFFFFF" d="M11.923,10.309L11.923,10.309c-0.817,0.378-1.792,0.019-2.17-0.793L7.607,4.891
			C7.229,4.074,7.588,3.099,8.4,2.721l0,0c0.817-0.378,1.792-0.019,2.17,0.793l2.147,4.625C13.095,8.955,12.74,9.931,11.923,10.309z
			"/>
	</g>
	<rect y="12.4" fill="#FFFFFF" width="14" height="1.7"/>
	<rect y="12.4" opacity="1" fill="#FF0000" width="14" height="1.5" rx="2" ry="2"/>
	<rect y="12.4" opacity="1" fill="#FF0000" width="14" height="0.6"/>
	<rect y="12.4" opacity="1" fill="#FFFFFF" width="14" height="0.3"/>
</g>
</svg>
