<?xml version="1.0" encoding="utf-8"?>
<!-- Generator: Adobe Illustrator 21.1.0, SVG Export Plug-In . SVG Version: 6.00 Build 0)  -->
<svg version="1.1" id="レイヤー_1" xmlns="http://www.w3.org/2000/svg" xmlns:xlink="http://www.w3.org/1999/xlink" x="0px"
	 y="0px" viewBox="0 0 14 14" enable-background="new 0 0 14 14" xml:space="preserve">
<g id="レイヤー_3のコピー">
	<rect fill="#FFCC00" width="14" height="14" rx="2" ry="2"/>
	<g>
		<polygon fill="#663300" points="0.523,10.276 1.19,10.276 1.19,9.637 3.831,9.637 3.766,10.239 4.312,10.239 4.648,9.203 
			0.523,9.203 		"/>
		<polygon fill="#663300" points="2.156,8.563 0.812,8.563 0.812,9.007 4.251,9.007 4.251,8.563 2.889,8.563 2.889,8.293 
			4.494,8.293 4.494,7.807 2.889,7.807 2.889,7.327 2.156,7.322 2.156,7.807 0.518,7.807 0.518,8.293 2.156,8.293 		"/>
		<path fill="#663300" d="M2.819,11.191c-0.476,0-0.742-0.051-0.742-0.196c0-0.089-0.005-0.075-0.005-0.131v-0.042
			c0.551-0.121,1.554-0.42,1.554-0.42L3.052,9.903c-0.266,0.149-0.574,0.271-0.985,0.448V9.763H1.363c0,0.107,0,0.28-0.005,0.509
			v0.509c0,0.257,0.009,0.462,0.065,0.569c0.159,0.289,0.467,0.341,1.246,0.355c0.425,0.009,1.101-0.019,1.638-0.145l0.047-0.658
			c-0.63,0.219-1.092,0.289-1.512,0.289L2.819,11.191L2.819,11.191z"/>
		<path fill="#663300" d="M7.975,9.189h1.045V8.713H8.073H8.05l0.429-0.551L8.017,7.915c0.261-0.023,0.784-0.098,0.784-0.098
			L8.297,7.285c-0.196,0.07-0.471,0.126-0.817,0.173c-0.154,0.019-0.434,0.047-0.84,0.079C6.188,7.574,5.707,7.611,5.161,7.611
			l0.121,0.443h0.093c0.219,0,0.397-0.005,0.541-0.009L5.595,8.237l0.299,0.476H5.819H4.989v0.476h1.027
			c-0.042,0.07-0.238,0.341-0.49,0.551c-0.247,0.21-0.471,0.317-0.709,0.425l0.243,0.322l0.35-0.145v0.187H5.404v0.294h0.005v0.887
			H8.61v-1.367l0.313,0.149l0.219-0.327c-0.224-0.093-0.471-0.247-0.695-0.448C8.092,9.399,8.031,9.231,7.975,9.189 M7.989,9.973
			H7.336V9.333C7.481,9.525,7.7,9.739,7.989,9.973 M6.239,8.022l0.443-0.028v0.714H6.076L6.403,8.54L6.239,8.022 M6.687,11.298
			H6.006v-0.289h0.681V11.298z M6.687,10.626H6.006v-0.294h0.681V10.626z M6.687,9.973H6.025c0.224-0.154,0.448-0.364,0.663-0.635
			V9.973 M7.327,7.957l0.495-0.028L7.583,8.535l0.364,0.177H7.327V7.957 M8.008,11.298H7.327v-0.289h0.681V11.298z M8.008,10.626
			H7.327v-0.294h0.681V10.626z"/>
		<path fill="#663300" d="M12.026,11.163v-0.21H13.3v-0.434h-1.274V10.29h0.737l0.191,0.182l0.434-0.303
			c0,0-0.443-0.546-0.681-0.812h0.611V8.895H10.36l0.005-0.191h2.94V7.476H9.679c0.005,0.532,0.009,0.952,0.009,1.265
			c0,0.616-0.019,1.073-0.056,1.367c-0.07,0.546-0.182,0.989-0.401,1.279l0.336,0.285c0.457-0.532,0.719-1.302,0.784-2.31h0.509
			L10.43,9.842v0.462h0.943v0.229h-1.143v0.434h1.143v0.21h-1.321v0.453h3.365v-0.453h-1.391 M10.393,7.961h2.217v0.308h-2.221
			C10.388,8.199,10.393,8.097,10.393,7.961 M11.116,9.823l0.513-0.471h0.765l-0.429,0.177l0.308,0.294H11.116z"/>
		<path fill="#663300" d="M6.575,3.729C6.3,3.472,5.936,3.346,5.483,3.346c-0.453,0-0.817,0.126-1.092,0.378
			C4.107,3.99,3.962,4.359,3.962,4.825c0,0.224,0.033,0.42,0.098,0.597C3.939,5.483,3.822,5.53,3.701,5.563
			C3.491,5.623,3.239,5.651,2.94,5.651c-0.383,0-0.7-0.121-0.952-0.369c-0.261-0.252-0.387-0.579-0.387-0.98
			c0-0.266,0.075-0.509,0.224-0.723s0.341-0.373,0.579-0.467C2.585,3.043,2.777,3.01,2.991,3.01c0.471,0,0.854,0.079,1.143,0.238
			l0,0c0.009,0.005,0.037,0.023,0.061,0.014c0.009-0.005,0.014-0.014,0.014-0.023V3.229l0.033-0.765
			c-0.392-0.07-0.835-0.103-1.33-0.103c-0.476,0-0.887,0.079-1.237,0.243C1.255,2.8,0.961,3.103,0.793,3.505
			C0.695,3.743,0.649,3.999,0.649,4.279c0,0.635,0.219,1.134,0.653,1.493c0.397,0.327,0.91,0.495,1.531,0.495
			c0.602,0,1.167-0.098,1.549-0.364c0.005,0.005,0.009,0.009,0.014,0.014c0.275,0.247,0.639,0.373,1.092,0.373
			c0.448,0,0.812-0.126,1.087-0.378c0.294-0.266,0.439-0.63,0.439-1.092C7.009,4.359,6.865,3.995,6.575,3.729 M6.029,5.502
			C5.913,5.726,5.731,5.838,5.488,5.838c-0.247,0-0.429-0.112-0.551-0.331c-0.093-0.173-0.14-0.401-0.14-0.686
			c0-0.275,0.047-0.504,0.145-0.677c0.117-0.219,0.299-0.327,0.546-0.327c0.238,0,0.42,0.112,0.541,0.331
			C6.123,4.326,6.174,4.55,6.174,4.821C6.174,5.101,6.123,5.329,6.029,5.502"/>
		<path fill="#663300" d="M13.095,3.729c-0.275-0.257-0.639-0.383-1.092-0.383c-0.453,0-0.817,0.126-1.092,0.378
			c-0.285,0.266-0.429,0.635-0.429,1.101c0,0.224,0.033,0.42,0.098,0.597c-0.121,0.061-0.238,0.107-0.359,0.14
			c-0.205,0.061-0.462,0.089-0.765,0.089c-0.383,0-0.7-0.121-0.947-0.369C8.246,5.031,8.12,4.704,8.12,4.303
			c0-0.266,0.075-0.509,0.224-0.723s0.341-0.373,0.579-0.467C9.105,3.043,9.296,3.01,9.511,3.01c0.471,0,0.854,0.079,1.148,0.238
			l0,0c0.009,0.005,0.037,0.023,0.061,0.014c0.009-0.005,0.014-0.014,0.014-0.023V3.229l0.033-0.765
			c-0.392-0.07-0.835-0.103-1.325-0.103c-0.476,0-0.891,0.079-1.237,0.243C7.784,2.8,7.49,3.103,7.322,3.505
			C7.224,3.743,7.177,3.999,7.177,4.279c0,0.635,0.219,1.134,0.653,1.493c0.397,0.327,0.91,0.495,1.531,0.495
			c0.602,0,1.167-0.098,1.549-0.364c0.005,0.005,0.009,0.009,0.014,0.014c0.275,0.247,0.639,0.373,1.092,0.373
			c0.448,0,0.812-0.126,1.087-0.378c0.294-0.266,0.443-0.63,0.443-1.092C13.529,4.359,13.384,3.995,13.095,3.729 M12.549,5.502
			c-0.117,0.224-0.299,0.336-0.541,0.336c-0.247,0-0.429-0.112-0.551-0.331c-0.093-0.173-0.14-0.401-0.14-0.686
			c0-0.275,0.047-0.504,0.145-0.677c0.121-0.219,0.299-0.327,0.546-0.327c0.238,0,0.415,0.112,0.541,0.331
			c0.093,0.177,0.145,0.401,0.145,0.672C12.693,5.101,12.647,5.329,12.549,5.502"/>
	</g>
</g>
</svg>
