<?xml version="1.0" encoding="utf-8"?>
<!-- Generator: Adobe Illustrator 20.0.0, SVG Export Plug-In . SVG Version: 6.00 Build 0)  -->
<svg version="1.1" id="doutor" xmlns="http://www.w3.org/2000/svg" xmlns:xlink="http://www.w3.org/1999/xlink" x="0px" y="0px"
	 viewBox="0 0 15 15" enable-background="new 0 0 15 15" xml:space="preserve">
<g>
	<circle cx="7.5" cy="7.5" r="7.5"/>
	<path fill="#FFFFFF" d="M7.5,14.21c-3.66,0-6.64-3.01-6.64-6.71c0-3.7,2.98-6.71,6.64-6.71c3.66,0,6.64,3.01,6.64,6.71
		C14.14,11.2,11.16,14.21,7.5,14.21z M7.5,1.13c-3.48,0-6.3,2.86-6.3,6.37c0,3.51,2.83,6.37,6.3,6.37s6.3-2.86,6.3-6.37
		C13.8,3.99,10.98,1.13,7.5,1.13z"/>
</g>
<g>
	<g>
		<path fill="#F7F7F7" d="M4.46,2.54c-0.19,0-0.4,0-0.56,0c-0.41,0-0.36,0.45-0.36,0.45v2.77c0,0.47,0.45,0.43,0.45,0.43
			s0.22,0,0.47,0V2.54z"/>
		<path fill="#F7F7F7" d="M5,2.54c0,0-0.13,0-0.3,0v3.65c0.11,0,0.22,0,0.3,0c0.34,0,0.86-0.45,0.86-2.04C5.86,2.55,5,2.54,5,2.54z"
			/>
	</g>
	<g>
		<path fill="#F7F7F7" d="M10.17,2.54c-0.29,0-0.56,0-0.67,0c-0.28,0-0.26,0.36-0.26,0.36v2.36c0,0-0.08,0.87,0.94,0.93V2.54z"/>
		<path fill="#F7F7F7" d="M11.35,5.25c0,0,0-2.06,0-2.4s-0.22-0.32-0.22-0.32s-0.34,0-0.71,0v3.64C11.43,6.11,11.35,5.25,11.35,5.25
			z"/>
	</g>
	<g>
		<path fill="#F7F7F7" d="M7.57,2.46v3.81c0.54-0.02,0.98-0.47,0.98-1.02V3.48C8.56,2.93,8.12,2.48,7.57,2.46z"/>
		<path fill="#F7F7F7" d="M7.33,2.46C6.79,2.48,6.35,2.93,6.35,3.48v1.78c0,0.55,0.44,1,0.98,1.02V2.46z"/>
	</g>
	<g>
		<path fill="#F7F7F7" d="M4.46,6.58H3.79c0,0-0.77-0.15-0.77,0.43c0,0.58,0.52,0.6,0.52,0.6s0.02,1.38,0,1.74
			c-0.02,0.34,0.1,0.86,0.92,0.91V6.58z"/>
		<path fill="#F7F7F7" d="M5.66,6.58H4.7v3.68c0.85-0.05,0.9-0.71,0.9-0.71V7.61c0,0,0.58,0.07,0.58-0.39
			C6.18,6.58,5.66,6.58,5.66,6.58z"/>
	</g>
	<g>
		<path fill="#F7F7F7" d="M10.97,8.3c0.51-0.09,0.52-0.56,0.52-0.84c0.02-1.01-0.8-0.9-0.8-0.9s-0.1,0-0.28,0v3.7
			c0.94,0,0.94-0.34,0.94-0.34V8.9C11.35,8.9,11.4,8.6,10.97,8.3z"/>
		<path fill="#F7F7F7" d="M10.17,6.56c-0.14,0-0.29,0-0.47,0c-0.47,0-0.47,0.43-0.47,0.43l0,2.67c0,0.42,0.02,0.58,0.94,0.6V6.56z"
			/>
	</g>
	<g>
		<g>
			<path fill="#DEAD21" d="M8.07,6.59l-0.9,3.7c0.53,0.11,1.07-0.22,1.2-0.75l0.42-1.73C8.92,7.27,8.6,6.74,8.07,6.59z"/>
			<path fill="#DEAD21" d="M7.84,6.53C7.3,6.42,6.77,6.75,6.64,7.28L6.22,9.01c-0.13,0.53,0.19,1.07,0.71,1.22L7.84,6.53z"/>
		</g>
	</g>
</g>
<g>
	<polygon fill="#FFC621" points="4.54,11.66 3.97,11.66 3.97,11.14 3.62,11.14 3.62,12.48 3.97,12.48 3.97,11.99 4.54,11.99 	"/>
	<rect x="4.17" y="11.13" fill="#FFC621" width="0.17" height="0.39"/>
	<rect x="4.4" y="11.13" fill="#FFC621" width="0.17" height="0.39"/>
	<polygon fill="#FFC621" points="5.63,11.64 5.06,11.64 5.06,11.13 4.7,11.13 4.7,12.46 5.06,12.46 5.06,11.97 5.63,11.97 	"/>
	<rect x="5.83" y="11.65" fill="#FFC621" width="0.66" height="0.33"/>
	<path fill="#FFC621" d="M6.91,11.14H6.63v1.02c0,0-0.02,0.06-0.14,0.06c0,0.09,0,0.31,0,0.31s0.41,0.06,0.42-0.28
		C6.91,11.91,6.91,11.14,6.91,11.14z"/>
	<path fill="#FFC621" d="M7.04,11.14v1.38h0.3c0,0,0.43-0.01,0.43-0.83c-0.16,0-0.29-0.01-0.29-0.01s-0.05,0.46-0.13,0.45
		c0-0.34,0-0.99,0-0.99H7.04z"/>
	<path fill="#FFC621" d="M8.41,11.57H7.77v-0.33h0.85c0,0,0.22,0,0.22,0.2c0,0.13,0,0.87,0,0.87s0,0.22-0.16,0.22
		c-0.15,0-0.91,0-0.91,0v-0.32h0.69v-0.63L8.41,11.57z"/>
	<rect x="8.95" y="11.65" fill="#FFC621" width="0.63" height="0.33"/>
	<path fill="#FFC621" d="M9.69,11.15v1.14c0,0,0,0.22,0.32,0.23c0.32,0.01,0.66,0,0.66,0v-0.32h-0.56v-0.43h0.56v-0.32h-0.55v-0.31
		H9.69z"/>
	<rect x="10.76" y="11.68" fill="#FFC621" width="0.73" height="0.33"/>
</g>
</svg>
