<?xml version="1.0" encoding="utf-8"?>
<!-- Generator: Adobe Illustrator 21.1.0, SVG Export Plug-In . SVG Version: 6.00 Build 0)  -->
<svg version="1.1" id="レイヤー_1" xmlns="http://www.w3.org/2000/svg" xmlns:xlink="http://www.w3.org/1999/xlink" x="0px"
	 y="0px" viewBox="0 0 14 14" enable-background="new 0 0 14 14" xml:space="preserve">
<g id="yoshinoya">
	<g>
		<rect y="0" fill="#FF6600" width="14" height="14" rx="2" ry="2"/>
		<rect y="8.211" fill="#FFFFFF" width="14" height="1.945"/>
		<path d="M12.395,8.481c0,0,0,0-0.411,0c-0.62,0.882-0.541,1.502-0.541,1.502s0,0,0.415,0c0.009-0.051,0.023-0.14,0.037-0.182
			h0.606c0.023,0.135,0.033,0.182,0.033,0.182s0,0,0.411,0C12.946,9.186,12.395,8.481,12.395,8.481z M11.98,9.419
			c0.107-0.322,0.219-0.471,0.219-0.471c0.093,0.126,0.168,0.28,0.219,0.471H11.98z M11.719,8.481c0,0-0.056,1.288-1.362,1.535
			c0-0.14,0-0.383,0-0.383s0.182-0.014,0.453-0.219c0,0-0.495-0.453-0.555-0.928c0.121-0.009,0.457,0,0.457,0
			s0.163,0.411,0.373,0.578c0.028-0.042,0.126-0.191,0.168-0.583C11.42,8.481,11.719,8.481,11.719,8.481z M9.601,8.425
			c-0.443,0-0.812,0.359-0.812,0.812c0,0.443,0.359,0.812,0.812,0.812c0.443,0,0.812-0.359,0.812-0.812
			C10.408,8.789,10.049,8.425,9.601,8.425z M9.601,9.666c-0.196,0-0.359-0.196-0.359-0.443c0-0.247,0.163-0.443,0.359-0.443
			c0.196,0,0.359,0.196,0.359,0.443C9.96,9.47,9.801,9.666,9.601,9.666z M8.686,9.358C8.682,9.54,8.616,9.899,8.574,9.969
			c-0.028,0-0.481,0.014-0.481,0.014s0.112-0.429,0.112-0.522C8.22,9.368,8.29,8.976,8.01,8.882
			C7.949,8.873,7.837,8.873,7.744,8.873v1.106H7.32V8.486h0.625c0,0,0.411-0.037,0.564,0.196C8.537,8.71,8.724,8.85,8.686,9.358z
			 M6.764,8.491h0.467v1.493H6.764V8.491z M6.251,8.491h0.42v1.493h-0.42V9.237H5.733v0.746H5.272V9.549
			C5.266,9.641,5.222,9.712,5.206,9.736c-0.271,0.373-1.073,0.266-1.073,0.266l0.009-0.369c0,0,0.387,0.014,0.471,0
			C4.973,9.521,4.558,9.368,4.479,9.33C4.082,9.102,4.105,8.976,4.105,8.822c0.093-0.443,1.073-0.359,1.073-0.359v0.359
			c-0.191-0.033-0.425,0-0.476,0.028C4.469,8.962,4.833,9.074,4.94,9.125c0.253,0.13,0.325,0.274,0.331,0.39V8.491h0.462v0.373
			h0.518V8.491z M3.284,8.425c-0.443,0-0.812,0.359-0.812,0.812c0,0.443,0.359,0.812,0.812,0.812c0.443,0,0.812-0.359,0.812-0.812
			C4.091,8.789,3.732,8.425,3.284,8.425z M3.284,9.666c-0.196,0-0.359-0.196-0.359-0.443c0-0.247,0.163-0.443,0.359-0.443
			s0.359,0.196,0.359,0.443C3.648,9.47,3.485,9.666,3.284,9.666z M2.57,8.481c0,0-0.056,1.288-1.367,1.535c0-0.14,0-0.383,0-0.383
			S1.395,9.619,1.67,9.414c0,0-0.495-0.453-0.555-0.928c0.121-0.009,0.457,0,0.457,0s0.163,0.411,0.373,0.578
			c0.028-0.042,0.126-0.191,0.168-0.583C2.281,8.481,2.57,8.481,2.57,8.481z M11.154,5.981c0,0-0.028,0.037-0.149,0.163
			c-0.21,0.224-0.415,0.359-0.728,0.555C9.895,6.923,9.708,6.741,9.685,6.722c-0.023-0.037-0.037,0-0.037,0S9.512,6.946,9.703,7.166
			c0.238,0.182,0.625-0.079,0.625-0.079s0,0,0.051-0.028c0.051-0.028,0.056,0,0.149,0.042c0.177,0.112,0.21,0.28,0.289,0.355
			c0.079,0.079,0.238,0.065,0.322,0.065c0.355,0.028,0.611-0.252,0.625-0.275c0.065-0.051,0.121-0.21,0.126-0.233
			c0.065-0.112,0.126,0,0.126,0c0.098,0.14,0.14,0.168,0.289,0.289c0.28,0.135,0.443,0.051,0.495,0.014
			c0.168-0.163,0.121-0.439,0.112-0.471c-0.009-0.037-0.084-0.219-0.098-0.261c-0.042-0.079-0.037-0.359-0.037-0.401
			c0.009-0.042-0.014-0.014-0.014-0.014S12.74,6.195,12.67,6.275c-0.135,0.112-0.182,0.093-0.252,0.079
			c-0.07-0.014-0.196-0.126-0.224-0.154c-0.028-0.037,0-0.051,0-0.051s0.028-0.023,0.056-0.042c0.042-0.028,0.065-0.023,0.084-0.014
			c0.028,0.009,0.07,0.028,0.126,0.037c0.266-0.014,0.275-0.177,0.275-0.219c0-0.14-0.154-0.205-0.21-0.224
			c-0.056-0.009-0.369-0.196-0.387-0.21c-0.019-0.014-0.126-0.107-0.168-0.135c-0.051-0.028-0.084-0.009-0.098,0
			c-0.014,0.009-0.079,0.014-0.107,0.014c-0.065-0.009-0.037,0.042-0.037,0.042s0.042,0.07,0.065,0.126
			c0.023,0.056-0.023,0.084-0.056,0.107c-0.042,0.037-0.065,0.009-0.07,0c-0.042-0.079-0.233-0.317-0.266-0.359
			C11.36,5.23,11.411,5.22,11.411,5.22s0.592,0,0.653,0.009c0.065,0.009,0.056,0.023,0.07,0.042
			c0.135,0.163,0.261,0.177,0.303,0.182c0.247,0,0.308-0.098,0.369-0.168c0.224-0.387,0.042-0.667,0.023-0.704
			c-0.112-0.247-0.383-0.387-0.429-0.415c-0.07-0.042-0.093-0.014-0.098-0.014c-0.005,0-0.079,0.056-0.135,0.107
			c-0.042,0.065-0.065,0.051-0.065,0.051s-0.28-0.019-0.322-0.019c-0.042,0-0.037-0.037-0.037-0.037s0-0.056,0.009-0.07
			c-0.009-0.056,0.028-0.056,0.028-0.056s0.028-0.009,0.126-0.042c0.112-0.056,0.042-0.14,0.028-0.149
			c-0.093-0.056-0.294-0.126-0.322-0.14c-0.154-0.07-0.387-0.084-0.485-0.093C11,3.69,10.935,3.76,10.921,3.774
			c-0.168,0.112-0.303,0.107-0.341,0.107c-0.07-0.014-0.051,0.037-0.042,0.056c0.009,0.121,0.107,0.182,0.154,0.205
			c0.037,0.009,0.042,0.023,0.065,0.07c0.042,0.135-0.042,0.149-0.042,0.149s-0.247,0.037-0.303,0.042
			c-0.056,0.009-0.107-0.079-0.149-0.121C10.179,4.185,9.96,4.147,9.918,4.147c-0.042,0-0.051,0.014-0.056,0.037
			C9.853,4.199,9.755,4.306,9.727,4.348c-0.028,0.042,0,0.042,0.014,0.065c0.247,0.308-0.098,0.62-0.098,0.62
			S9.601,5.057,9.605,5.099C9.591,5.407,9.703,5.482,9.787,5.537c0.383,0.191,0.471-0.168,0.481-0.196
			c0.009-0.037,0.051-0.028,0.093-0.023c0.112,0,0.093,0.079,0.084,0.093c-0.135,0.182-0.411,0.303-0.513,0.345
			C9.825,5.799,9.736,5.747,9.713,5.733C9.689,5.71,9.671,5.757,9.671,5.757S9.643,5.808,9.629,5.878
			C9.615,6.097,9.75,6.125,9.82,6.144c0.415,0.023,1.078-0.714,1.092-0.728c0.051-0.098,0.093-0.056,0.107-0.042
			c0.084,0.079-0.028,0.168-0.056,0.196c-0.023,0.028-0.369,0.341-0.369,0.341s-0.252,0.182-0.397,0.266
			C10.053,6.261,9.96,6.27,9.895,6.275c-0.07,0.009-0.14-0.023-0.154-0.028C9.703,6.219,9.699,6.261,9.699,6.275
			C9.633,6.466,9.736,6.564,9.755,6.582c0.205,0.163,0.592-0.093,0.611-0.107c0.429-0.252,0.7-0.597,0.732-0.639
			c0.028-0.042,0.042,0.014,0.056,0.037C11.196,5.957,11.154,5.981,11.154,5.981z M11.803,4.712l0.369,0.009
			c0.056,0,0.042,0.037,0.042,0.051c-0.014,0.079-0.051,0.126-0.084,0.177c-0.037,0.051-0.065,0.009-0.079,0
			c-0.065-0.098-0.233-0.196-0.252-0.21C11.765,4.712,11.803,4.712,11.803,4.712z M10.576,5.001c-0.037,0-0.065-0.014-0.135-0.07
			c0,0-0.084-0.098,0.056-0.135c0.037-0.009,0.522-0.07,1.185-0.079c0.009,0,0.051-0.009,0.009,0.042
			c-0.037,0.042-0.149,0.163-0.149,0.163s-0.014,0.014-0.056,0.023C11.43,4.931,10.688,4.959,10.576,5.001z M11.182,6.405
			c-0.014,0.051-0.098,0.513-0.453,0.411c0,0-0.037-0.009-0.014-0.028c0.028-0.023,0.443-0.401,0.443-0.401
			S11.201,6.354,11.182,6.405z M8.682,5.486C8.616,5.435,8.477,5.262,8.458,5.211C8.449,5.155,8.486,5.183,8.514,5.202
			C8.724,5.244,8.71,5.104,8.71,5.01c0-0.121-0.154-0.191-0.182-0.205C8.435,4.791,8.463,4.754,8.463,4.754s0.019-0.047,0.033-0.098
			c0.014-0.042,0.056,0,0.056,0s0.028,0.009,0.107,0c0.112,0,0.126-0.056,0.154-0.112c0.009-0.28-0.149-0.369-0.177-0.397
			C8.57,4.11,8.411,3.83,8.355,3.746c-0.07-0.079-0.121-0.014-0.14,0C8.192,3.76,8.131,3.839,8.131,3.839L8.103,3.83
			c0,0-0.55,0.023-0.597,0.023c-0.047,0-0.056-0.009-0.056-0.009S7.394,3.807,7.366,3.788c-0.028-0.037-0.056,0-0.056,0
			S7.282,3.811,7.254,3.844C7.226,3.872,7.212,3.853,7.212,3.853S7.021,3.741,6.951,3.727c-0.098-0.042-0.14,0-0.14,0
			s-0.098,0.07-0.14,0.112C6.629,3.881,6.559,3.895,6.559,3.895S6.228,3.909,6.177,3.919c-0.051,0-0.093-0.042-0.093-0.042
			s-0.051-0.028-0.07-0.051C5.906,3.732,5.831,3.797,5.831,3.797S5.542,4.031,5.5,4.087c-0.051,0.051,0,0.182,0.037,0.247
			c0.037,0.065,0.028,0.149,0.028,0.149s0,0.91,0.014,1.092C5.589,5.757,5.817,5.71,5.897,5.682C5.934,5.64,6.009,5.617,6.009,5.617
			s0.107-0.028,0.163-0.042c0.056-0.014,0.042,0.023,0.042,0.023s0,0.079,0,0.126c0,0.047-0.056,0.065-0.056,0.065
			s-0.303,0.065-0.359,0.07C5.747,5.869,5.673,5.85,5.635,5.831c-0.028-0.051-0.051-0.014-0.065,0S5.491,5.939,5.486,6.013
			c0,0.308,0.238,0.294,0.308,0.28c0.028-0.028,0.079-0.056,0.079-0.056s0.177-0.051,0.266-0.065
			c0.093-0.028,0.056,0.056,0.056,0.056s0,0,0,0.098c0,0.098-0.084,0.098-0.084,0.098S5.985,6.475,5.864,6.517
			C5.715,6.568,5.673,6.508,5.631,6.475C5.603,6.438,5.603,6.466,5.603,6.466S5.533,6.55,5.491,6.643
			C5.407,6.834,5.482,7.082,5.813,7.296c0.331,0.219,0.453-0.07,0.485-0.121C6.34,7.091,6.531,6.937,6.601,6.881
			c0.051-0.065,0.056-0.037,0.084-0.028c0.023,0.009,0.182,0.266,0.252,0.471c0.056,0.191,0.177,0.168,0.369,0.168
			C7.749,7.385,7.842,7.04,7.861,6.984c0.014-0.056,0.037,0,0.037,0s0.056,0.093,0.093,0.177C8.033,7.268,8.099,7.31,8.113,7.31
			c0.569-0.093,0.499-0.69,0.499-0.69s0.009-0.732,0-0.774c0.009-0.037,0.042-0.028,0.107-0.014C8.887,5.831,8.747,5.57,8.682,5.486
			z M6.209,5.192c0,0,0.009,0.023-0.023,0.028C6.158,5.23,6.037,5.248,6.037,5.248S6.009,5.258,6.009,5.225
			c0-0.033-0.009-0.247-0.009-0.247s0-0.028,0.028-0.028c0.028,0,0.149-0.023,0.149-0.023s0.042-0.009,0.042,0.033
			C6.219,5.001,6.209,5.192,6.209,5.192z M6.2,4.567C6.172,4.576,6.06,4.59,6.06,4.59S6.023,4.614,6.023,4.548s0-0.154,0-0.154
			S6.013,4.357,6.074,4.353C6.13,4.343,6.181,4.329,6.181,4.329s0.051-0.023,0.042,0.042c0,0.037,0,0.154,0,0.154
			S6.228,4.558,6.2,4.567z M7.273,4.679c0.009-0.056,0.009-0.093,0.014-0.107c0.005-0.014,0.028-0.056,0.084-0.023
			C7.394,4.562,7.478,4.614,7.52,4.506c0.014-0.042,0.023-0.084,0.084-0.084c0.065-0.009,0.261-0.009,0.261-0.009
			s0.056,0,0.028,0.065C7.879,4.534,7.837,4.684,7.781,4.674c0,0-0.373,0.009-0.443,0.037C7.32,4.707,7.264,4.735,7.273,4.679z
			 M6.643,4.306c0,0,0-0.028,0.037-0.028c0.037,0,0.163,0,0.163,0s0.023,0,0.023,0.023c0,0.028-0.009,0.196-0.009,0.196
			s0,0.014-0.023,0.023C6.811,4.53,6.666,4.53,6.666,4.53S6.643,4.539,6.643,4.502C6.643,4.465,6.643,4.306,6.643,4.306z
			 M6.634,4.88c0,0,0.005-0.033,0.033-0.033c0.037,0,0.135,0,0.135,0S6.83,4.861,6.83,4.889c0,0.028-0.009,0.238-0.009,0.238
			S6.811,5.155,6.792,5.155s-0.14,0-0.14,0s-0.028,0-0.028-0.037C6.624,5.08,6.634,4.88,6.634,4.88z M6.629,5.677
			c0-0.028,0-0.135,0-0.135S6.62,5.505,6.666,5.505c0.042,0,0.107,0,0.107,0s0.037,0.009,0.037,0.037s0.037,0.093,0.042,0.107
			C6.862,5.663,6.876,5.687,6.83,5.687c-0.042,0-0.168,0.014-0.168,0.014S6.629,5.705,6.629,5.677z M7.17,6.722
			C7.114,6.713,6.951,6.694,6.932,6.666c0,0-0.051-0.014-0.009-0.042c0.042-0.028,0.266-0.191,0.266-0.191s0.028-0.028,0.028,0.009
			c0,0.028-0.009,0.261-0.009,0.261S7.226,6.727,7.17,6.722z M7.203,6.335C7.152,6.293,6.984,6.186,6.942,6.172
			C6.876,6.167,6.848,6.153,6.778,6.181C6.755,6.195,6.694,6.223,6.694,6.223S6.657,6.247,6.657,6.209
			C6.648,6.172,6.648,6.097,6.648,6.097S6.657,6.083,6.69,6.074c0.037-0.009,0.042-0.009,0.042-0.009s0.154-0.023,0.191-0.07
			C6.96,5.943,7.021,5.841,7.021,5.841s0.014-0.042,0.051-0.023C7.11,5.841,7.184,5.873,7.198,5.873
			c0.014,0,0.037,0.009,0.037,0.051C7.226,5.967,7.245,6.335,7.245,6.335S7.254,6.377,7.203,6.335z M7.856,5.234
			C7.847,5.248,7.842,5.262,7.777,5.262c-0.065,0-0.481,0.051-0.495,0.056c0,0-0.056,0-0.056-0.051c0-0.051-0.014-0.112,0.051-0.126
			c0.065-0.014,0.373-0.093,0.648-0.07c0.014,0,0.042,0.009,0.042,0.009S8.019,5.09,7.954,5.122C7.931,5.146,7.856,5.22,7.856,5.234
			z M8.005,6.475c-0.056-0.009-0.121,0-0.121-0.093V5.845c0,0-0.014-0.056,0.037-0.056c0.042-0.009,0.098,0,0.098,0
			S8.061,5.78,8.061,5.841c0,0.056,0.009,0.55,0.009,0.55S8.08,6.471,8.005,6.475z M4.306,6.652
			c0.056-0.023,0.252-0.121,0.145-0.289c0,0-0.247-0.341-0.597-0.471c-0.042-0.014-0.07-0.065-0.205,0.042
			c-0.042,0.037-0.093,0.07-0.093,0.07S2.878,5.967,2.701,5.981C2.524,5.995,2.188,6.032,2.188,6.032S2.132,6.041,2.081,5.981
			C2.001,5.939,1.959,5.897,1.903,5.915c0,0-0.196,0.042-0.508,0.439C1.381,6.396,1.339,6.461,1.367,6.573
			c0.009,0.028,0.028,0.056,0.093,0.07c0.014,0,0.065-0.014,0.112,0.177c0.051,0.163,0.107,0.341,0.107,0.341
			s0.051,0.308,0.261,0.317c0.205,0.009,0.303,0.009,0.457-0.112C2.435,7.343,2.44,7.287,2.496,7.282
			c0.056-0.009,0.667-0.037,0.77,0C3.289,7.296,3.415,7.31,3.476,7.39c0.023,0.014,0.21,0.107,0.308,0.098
			C3.891,7.478,4.143,7.45,4.152,7.212C4.124,7.091,4.096,7.035,4.138,6.965c0.037-0.093,0.098-0.261,0.098-0.261
			S4.213,6.68,4.306,6.652z M3.387,6.489c0,0-0.023,0.196-0.037,0.261C3.336,6.806,3.308,6.806,3.28,6.806
			c-0.107-0.028-0.714-0.009-0.826,0C2.342,6.816,2.375,6.755,2.375,6.755S2.347,6.559,2.337,6.503
			c-0.028-0.056,0.07-0.051,0.07-0.051c0.168-0.051,0.69-0.037,0.854-0.023C3.424,6.447,3.387,6.489,3.387,6.489z M1.096,5.673
			C1.11,5.482,1.106,5.477,1.232,5.314C1.274,5.276,1.297,5.216,1.353,5.3C1.381,5.328,1.46,5.398,1.684,5.384
			C1.903,5.346,2.412,5.3,2.412,5.3s0.065,0.009,0.056-0.084c0-0.093,0.028-0.205-0.07-0.168C2.3,5.057,2.043,5.085,2.043,5.085
			s-0.079,0-0.121,0.042C1.88,5.169,1.717,5.304,1.484,5.113c-0.07-0.14-0.107-0.21-0.028-0.453
			c0.042-0.079,0.149-0.177,0.149-0.177L1.642,4.46c0,0,0.014-0.028,0.037,0.009c0.037,0.023,0.07,0.079,0.21,0.07
			c0.14,0,0.467-0.042,0.467-0.042h0.065c0,0,0.037,0,0.037-0.065c-0.028-0.065,0-0.121-0.121-0.163c0,0-0.121-0.056-0.163-0.233
			c0-0.042-0.009-0.079,0.037-0.07c0.042,0,0.233,0,0.341-0.079c0.098-0.079,0.21-0.168,0.21-0.168s0.042-0.009,0.098,0
			c0.056,0.009,0.345,0.028,0.634,0.233c0.037,0.037,0.112,0.084,0.14,0.149c0.014,0.037,0.051,0.112-0.079,0.168
			c-0.037,0.009-0.079,0-0.084,0.042C3.466,4.353,3.434,4.474,3.513,4.474c0.079,0,0.308,0.014,0.322,0.023
			c0.028-0.023,0.14-0.107,0.14-0.107S4.04,4.311,4.124,4.399c0.047,0.033,0.243,0.173,0.327,0.49
			C4.46,4.954,4.488,5.08,4.325,5.178c-0.07,0.014-0.163,0.056-0.359-0.065C3.928,5.09,3.914,5.071,3.844,5.062
			C3.76,5.048,3.462,5.024,3.462,5.024S3.382,5.015,3.396,5.108c0,0.023-0.042,0.154,0.037,0.154
			c0.079,0.009,0.606,0.042,0.69,0.084c0.065,0.009,0.21,0.042,0.331-0.051c0.037-0.056,0.037-0.056,0.037-0.056
			s0.009-0.056,0.056,0c0.023,0.037,0.093,0.042,0.149,0.317c0,0.084-0.014,0.28-0.196,0.317C4.446,5.887,4.362,5.897,4.101,5.85
			C4.059,5.841,3.685,5.743,3.177,5.738c-0.508,0-1.087,0.014-1.39,0.112C1.675,5.887,1.511,5.976,1.428,5.976
			C1.334,5.985,1.11,5.878,1.096,5.673z"/>
	</g>
</g>
</svg>
