<?xml version="1.0" encoding="utf-8"?>
<!-- Generator: Adobe Illustrator 20.0.0, SVG Export Plug-In . SVG Version: 6.00 Build 0)  -->
<svg version="1.1" id="kfc" xmlns="http://www.w3.org/2000/svg" xmlns:xlink="http://www.w3.org/1999/xlink" x="0px" y="0px"
	 viewBox="0 0 15 15" enable-background="new 0 0 15 15" xml:space="preserve">
<ellipse fill="#B60C33" cx="7.4711828" cy="7.5" rx="7.4711828" ry="7.5"/>
<g>
	<path fill="none" d="M1.6817154,12.1167908l1.7052909-0.4516087c0,0,0.1374612-0.0062714,0.2186878-0.1128998
		c0.0812266-0.1066313,0.3623991-0.2885284,0.5623419-0.2947998c0.1124663-0.0627222,0.1249638,0.0188179,0.2811694-0.4014282
		c0.1562061-0.4202452,0.2893109-0.6209621,0.2893109-0.6209621s-0.3373857-0.375186-0.4123621-1.0901947
		c-0.1874361-0.09408-0.5623116-0.4164095-0.4498487-0.791501C3.9243531,8.0774136,3.8743689,8.184042,3.7306607,7.926877
		C3.5369649,7.6571684,3.1558208,6.9358492,3.3432693,6.4591522c0.1437082-0.1881685-0.0812266-0.2947998-0.0812266-0.2947998
		S2.9683757,5.9134612,3.0995893,5.6688385C3.2308002,5.4242187,3.405751,4.9349761,3.3057797,4.5210052
		C3.1620712,4.2450228,2.9433835,3.9439514,3.0995893,3.787143C3.1683185,3.6930573,3.3370221,3.6679688,3.493228,3.54252
		C3.649431,3.4170747,4.1242962,3.0720978,4.149291,2.6581237C4.0930567,2.564038,3.9618428,2.3486876,4.5908318,2.235785
		c0.6373181-0.1798067,1.853641-0.6565034,2.2826838-0.6355958c0.4290462,0.0209106,2.0577521,0.0167267,3.0741296,1.3799133
		c0.6373186,0.8697631,0.6664782,1.798068,0.6664782,1.798068s0.0333214,0.1839876,0.0708113,0.2007141
		c0.0374899,0.0167236,0.1499586,0.117084,0.0708151,0.4641514c-0.0791445,0.3470702-0.1457939,0.5143309-0.1874485,0.564508
		c-0.0333223,0.0752683-0.0583172,0.1923523,0.0791435,0.3387084c0.1249666,0.2508912,0.1916132,0.7484956-0.0999708,1.2586455
		c-0.0999718,0.2676177-0.3873882,0.7903142-0.3873882,0.8697629c0,0.0794497-0.0249958,0.2341681-0.0249958,0.3177986
		c-0.0124941,0.104538-0.0083294,0.1672602-0.1166334,0.2174406c-0.1083012,0.0501766-0.1916103,0.0836306-0.195775,0.2007141
		C9.8018541,9.3778744,9.7018795,9.9089327,9.6727228,9.9632931c-0.0208273,0.0669041,0.0208273,0.1170845,0.0541515,0.1463537
		c0.0333223,0.0292721,0.1874456,0.2258024,0.2749224,0.3679781c0.0874739,0.0836296,0.0583172,0.0669031,0.170783,0.1254454
		c0.1124697,0.0585413,0.7456226,0.342886,0.7872772,0.372159c0.0416546,0.0292692,0.133296,0.1839867,0.2749224,0.204895
		c0.1416264,0.0209074,2.116066,0.4850578,2.249362,0.5310574c0.0167027,0.005765,0.0146866,0.0935268-0.0015984,0.2425537
		C14.3997717,10.7082243,14.9423656,9.1678038,14.9423656,7.5c0-4.1421356-3.3449621-7.5-7.4711828-7.5S0,3.3578644,0,7.5
		c0,1.7858639,0.6221791,3.4256077,1.6602801,4.7136412L1.6817154,12.1167908z"/>
	<path fill="#281A00" d="M5.8723722,7.6965761C5.8004241,7.692749,5.7551031,7.6742463,5.7270317,7.6459594
		C5.7612805,7.6808319,5.8137178,7.6946015,5.8723722,7.6965761z"/>
	<path fill="#281A00" d="M5.7078156,7.6203523c-0.003232-0.0055785-0.0060892-0.0113769-0.0085425-0.0174041
		C5.7017446,7.6091642,5.704669,7.6148744,5.7078156,7.6203523z"/>
	<path fill="#281A00" d="M5.8776102,7.6967497C5.8764825,7.696701,5.8751721,7.6967559,5.8740563,7.696701
		C5.875236,7.6967344,5.8764277,7.6967225,5.8776102,7.6967497z"/>
	<path fill="#281A00" d="M5.7260284,7.6450195C5.7218909,7.6407561,5.7182364,7.6362181,5.7148347,7.631537
		C5.7183003,7.6363401,5.7220125,7.6408415,5.7260284,7.6450195z"/>
	<path fill="#281A00" d="M13.4841413,11.7111816c-0.133296-0.0459995-2.1077356-0.51015-2.249362-0.5310574
		c-0.1416264-0.0209084-0.2332678-0.1756258-0.2749224-0.204895c-0.0416546-0.029273-0.6748075-0.3136177-0.7872772-0.372159
		c-0.1124659-0.0585423-0.0833092-0.0418158-0.170783-0.1254454c-0.0874767-0.1421757-0.2416-0.338706-0.2749224-0.3679781
		c-0.0333242-0.0292692-0.0749788-0.0794497-0.0541515-0.1463537c0.0291567-0.0543604,0.1291313-0.5854187,0.1499586-0.7526789
		c0.0041647-0.1170835,0.0874739-0.1505375,0.195775-0.2007141c0.108304-0.0501804,0.1041393-0.1129026,0.1166334-0.2174406
		c0-0.0836306,0.0249958-0.238349,0.0249958-0.3177986c0-0.0794487,0.2874165-0.6021452,0.3873882-0.8697629
		c0.291584-0.51015,0.2249374-1.0077543,0.0999708-1.2586455c-0.1374607-0.1463561-0.1124659-0.2634401-0.0791435-0.3387084
		c0.0416546-0.0501771,0.108304-0.2174377,0.1874485-0.564508c0.0791435-0.3470674-0.0333252-0.4474277-0.0708151-0.4641514
		c-0.0374899-0.0167265-0.0708113-0.2007141-0.0708113-0.2007141s-0.0291595-0.9283049-0.6664782-1.798068
		C8.9312677,1.6169159,7.3025618,1.6210998,6.8735156,1.6001892C6.4444728,1.5792816,5.2281499,2.0559783,4.5908318,2.235785
		C3.9618428,2.3486876,4.0930567,2.564038,4.149291,2.6581237C4.1242962,3.0720978,3.649431,3.4170747,3.493228,3.54252
		C3.3370221,3.6679688,3.1683185,3.6930573,3.0995893,3.787143C2.9433835,3.9439514,3.1620712,4.2450228,3.3057797,4.5210052
		C3.405751,4.9349761,3.2308002,5.4242187,3.0995893,5.6688385C2.9683757,5.9134612,3.2620428,6.1643524,3.2620428,6.1643524
		s0.2249348,0.1066313,0.0812266,0.2947998C3.1558208,6.9358492,3.5369649,7.6571684,3.7306607,7.926877
		c0.1437082,0.257165,0.1936924,0.1505365,0.1456449,0.4265194c-0.112463,0.3750916,0.2624125,0.6974211,0.4498487,0.791501
		c0.0749764,0.7150087,0.4123621,1.0901947,0.4123621,1.0901947s-0.1331048,0.200717-0.2893109,0.6209621
		c-0.1562057,0.4202461-0.1687031,0.338706-0.2811694,0.4014282c-0.1999428,0.0062714-0.4811153,0.1881685-0.5623419,0.2947998
		c-0.0812266,0.1066284-0.2186878,0.1128998-0.2186878,0.1128998l-1.7052909,0.4516087l-0.0214353,0.0968504
		c0.1354791,0.1680975,0.2778894,0.3302984,0.4270941,0.4859438v-0.3068113c0,0,0.2874198-0.0878115,0.337404-0.1003571
		c0.0499873-0.0125456,0.2374327-0.0501776,0.2749224,0c0,0,0,0,0.2249379,0.1003571
		c0.2249351,0.1003571,0.0749795,0.3170748,0.0749795,0.3170748l-0.2493253,0.6029663
		c0.1554976,0.1274195,0.3162789,0.248538,0.4818239,0.3632593c0.2323861-0.7533655,0.5179546-1.6209078,0.6214252-1.7223635
		c0.049984-0.0669031,0.2124372-0.1798058,0.1999426-0.0878105c-0.0154734,0.0683403-0.3412557,1.2074518-0.482152,2.0321503
		c0.4177096,0.2571259,0.8623719,0.4744196,1.3290048,0.6460876c0.8349175-0.1424046,2.1184649-0.3027802,3.8305531-0.3487768
		v-0.0087004H9.110384l0.0000296,0.0005674c0.4223852-0.0068264,0.8689327-0.0066099,1.3394566,0.0024176l-0.0002794-0.002985
		h0.3853025l0.001359,0.0109005c0.0569401-0.0288849,0.1134939-0.0584106,0.1695852-0.0887051
		c-0.041481-0.006299-0.0709724-0.0100098-0.0709724-0.0100098s-0.1124687-0.0627232-0.1374607-0.2258024
		c-0.0249929-0.1630831-0.1874485-2.3834839-0.2874203-2.5591097c-0.0124941-0.2132597,0-0.1937923,0.1374607-0.1408024
		c0.1374617,0.0529881,0.1832838,0.0906219,0.2124405,0.2077065c0.013732,0.0551414,0.3083324,1.2269497,0.6161966,2.4513855
		c0.108736-0.0694466,0.2157059-0.1414251,0.3205233-0.2162628c-0.2863293-0.9644165-0.5746946-1.9397316-0.5993156-2.0385895
		c-0.049984-0.2007141,0.474865,0,0.474865,0l1.7120161,0.3512506l-0.0652609,0.2391205
		c0.0557814-0.0703278,0.1103506-0.1416531,0.1636333-0.2140074C13.4988279,11.8047085,13.500844,11.7169466,13.4841413,11.7111816z
		 M4.1701183,7.0445709c0,0-0.1832833-0.3261628-0.1749506-0.4516082c0.0333247-0.0836306,0.0163856-0.1087222,0.087337-0.117084
		s0.1709228-0.0418148,0.1209354,0.1672611C4.2617574,6.8940339,4.3533988,7.2703733,4.1701183,7.0445709z M4.5700045,6.3671598
		c-0.0583172,0.0083618-0.1999431,0-0.1999431,0S4.3200741,6.2095733,4.436708,6.2005525
		c0.1166339-0.0090179,0.2082758-0.0250888,0.2082758,0.0833039C4.6449838,6.3922486,4.6283212,6.3587952,4.5700045,6.3671598z
		 M4.5450125,4.5858183c-0.0416546,0.0585423-0.2582603,0.40979-0.266593,0.7359529
		C4.2617574,5.3886747,4.1784482,5.8486452,4.1951108,5.9740934c0,0.0836306,0.0083294,0.1839876-0.0833092,0.2090759
		C4.0201597,6.208261,3.9118586,6.2333498,3.8868635,6.0493622c-0.024992-0.1839905-0.0333216-0.6523223,0.033325-1.0119352
		C3.9298253,4.985425,4.0118303,4.661087,3.8535419,4.410193C3.7952249,4.3181977,3.6192677,4.1174836,3.9030244,4.1258483
		c0.1921146,0,0.6003335-0.1756256,0.7752812-0.3261626c0.2082753-0.1505342,0.6581488-0.3512483,0.7164655-0.3596132
		c0.0583172-0.0083618,0.5914993-0.0501769,0.0666466,0.1505373C5.3864384,3.6407866,5.0198774,3.9585845,4.9948821,4.0338531
		c-0.024992,0.0752687-0.1749477,0.2425294-0.1832805,0.2843447C4.8032722,4.360013,4.7366223,4.4854612,4.5450125,4.5858183z
		 M4.7182517,5.6915526C4.7491202,5.5998445,4.861589,5.4994874,4.8990788,5.4994874
		C4.9303179,5.461853,4.9865527,5.4242187,4.9865527,5.210959c0.0562344-0.2195315,0.3061647-1.8252473,1.5558095-1.5618074
		c0.2749219,0.0501771,0.5935812,0.2007141,0.5935812,0.2007141s0.0934143-0.1305206,0.2266893-0.2707884
		C7.2073298,3.3968537,6.5290465,2.734961,5.0990214,3.0720978C4.9990501,3.059552,4.7491202,3.159909,5.0240421,2.8964722
		C5.2989645,2.7083008,5.761332,2.5075867,5.761332,2.5075867s0.4081912-0.1505342-0.0708265-0.1254456
		C5.3864384,2.3068726,6.0362544,2.1061585,6.0362544,2.1061585s0.9622278-0.313617,1.8494763-0.0627229
		c0.887249,0.2508912,2.2243671,0.9910278,2.3743258,2.4712954c0.0249929,0.2258058,0.0999718,0.8028593,0.0624819,0.9408507
		C10.2850494,5.5935731,10.21632,6.0138183,10.047616,5.330133C9.7477016,4.6025453,9.7158117,4.5315156,9.6539774,4.4959135
		c0,0-0.0562344-0.0501766,0,0.4390626c-0.0124969,0.2069888,0,0.3261628,0.0437374,0.3951569
		c0.0437365,0.0689974,0.2561769,0.4327912,0.231185,0.5582366c0.0062475,0.1317201,0.0312424,0.2822571-0.0499868,0.2446232
		C9.7976866,6.0953584,8.5980291,5.9448214,7.9107232,6.0702696C7.6045585,6.1643524,7.5420766,6.3086181,7.3983684,6.3148894
		c-0.1437087-0.031363-0.3686466-0.031363-0.4248781,0c-0.0562344,0.0188174-0.1575255,0.0225067-0.2040257-0.032434
		c0,0-0.2583447-0.4379911-1.4829974-0.3689942c-0.2811694,0-0.4186306-0.0073729-0.4186306-0.0073729
		S4.6811328,6.0216093,4.7182517,5.6915526z M9.6435661,6.3247099c0.0083294,0.0759006-0.0852699,0.102469-0.158289,0.0871983
		c0,0-0.133296,0.0040984-0.1249666-0.108139c-0.0083294-0.0118775,0-0.0700989,0.1249666-0.0660768
		C9.6102409,6.2417116,9.6352329,6.2488098,9.6435661,6.3247099z M8.8604536,6.3589082c0,0-0.1874485-0.0962892,0.0374899-0.1004701
		c0.1457901,0.0083647,0.3623962,0.0474243,0.3457336,0.2306976C9.2270145,6.567874,9.1312113,6.6559081,8.8604536,6.3589082z
		 M8.9638634,6.772769C8.8229637,6.7685881,8.6521778,6.5427828,8.4480696,6.5218749
		c-0.1124687,0.016727-0.3623953,0.0892396-0.2582598-0.0327392c0,0,0.2249355-0.2234893,0.4540386-0.0849214
		c0.1166334,0.0925722,0.2692976,0.255652,0.320015,0.270288C9.0145769,6.6891389,9.1047592,6.7769499,8.9638634,6.772769z
		 M6.4361401,8.9367218C6.22995,8.9743557,6.0799913,9.0004578,6.0050149,8.9215488
		c-0.0749793-0.0789127-0.03334-0.1102724,0.0583081-0.1290894c0.0916476-0.0376348,0.2728457-0.1568089,0.3290801-0.2446232
		c0.0812268-0.0752659,0.237433-0.1630802,0.424881-0.0501766c0.1687007,0.0752678,0.4748654,0.1818962,0.6373186,0.0689936
		c0.0812268-0.0940828,0.1312108-0.1442623,0.24368-0.1818972c0.1124687-0.0376339,0.1749506-0.0627222,0.231185-0.1254454
		c0.0562348-0.0627222,0.1374612-0.0878143,0.2561774,0.0313597C8.2918644,8.4349365,8.4105806,8.7046452,8.6105232,8.761096
		C8.6917496,8.7987309,8.891696,8.9241762,8.4793129,8.9618101C8.4793129,8.9618101,7.0797091,8.7987309,6.4361401,8.9367218z
		 M7.8294964,9.33815C7.6358008,9.3946018,7.0484667,9.4196901,7.0484667,9.4196901S6.9984822,9.4259644,6.8922606,9.3695126
		c-0.1062188-0.0564508-0.212781-0.1268272,0-0.137991c0,0,0.7997746-0.0501804,0.9372358,0
		C7.8857307,9.2503386,8.0231924,9.2816982,7.8294964,9.33815z M5.2208662,7.5379763l0.0001245,0.0000334
		C5.2108889,7.5341616,5.2052402,7.5317202,5.2052402,7.5317202S4.9053259,7.3673034,4.8240995,7.1139436
		c0-0.0526462-0.0687323-0.1153717,0.0749793-0.1718202c0.049984,0.0062714,0.0562315-0.0514708,0.1936927,0.0401244
		c0.0874767,0.066504,0.0999713,0.16745,0.2999172-0.0523744c0.0937209-0.08811,0.2186875-0.1759214,0.5248494-0.0943813
		C6.023757,6.8543091,6.2674398,6.8209257,6.3111768,6.8031187c0.0437369-0.0178037,0.2090354-0.0052428,0.1249633,0.044919
		C6.3460913,6.9017668,6.3286419,6.9549346,6.3394947,6.9995699c0.0125732,0.0299649,0.0394931,0.0696044,0.0966454,0.1143737
		c0.0174713,0.011734-0.0033894,0.0392332,0.103097-0.0495119c0.1064863-0.0887418,0.0843515,0.0188174,0.0718541,0.0495119
		C6.5111198,7.4833403,6.2799344,7.5881715,6.186213,7.6571684C6.0862417,7.7010741,6.0300074,7.9143343,6.023757,7.9645109
		C6.0175095,8.0146914,5.96627,8.0146914,5.96627,8.0146914s-0.186193,0.0627222-0.2757645,0.119174
		c0,0-0.3165617,0.3010712-0.4790177,0.0972195C5.0490346,8.0272341,4.8490915,7.7293,4.8647113,7.6195345
		c0.0343676-0.0407715,0.0968494,0,0.0968494,0S5.1677508,7.8014312,5.22086,7.6603026
		C5.2458553,7.5881715,5.2208662,7.5379763,5.2208662,7.5379763z M5.2489772,6.3587952
		C5.1302609,6.4152465,4.9615607,6.5427828,4.9615607,6.5427828s-0.1343393,0.0710874-0.1749511,0
		C4.745995,6.4716978,4.7959819,6.3807344,4.8553386,6.327426c0.05936-0.053308,0.3405294-0.1066222,0.3936386-0.0846677
		C5.2833447,6.2490296,5.3676934,6.3023438,5.2489772,6.3587952z M5.4176807,6.4779692
		c0.0656071-0.0439053,0.353024-0.2415009,0.5092297-0.1505432c0.0937243,0.0376406,0.2811699,0.1760135,0.0905991,0.1617098
		c-0.1874452-0.0174379-0.555511,0.1384187-0.5998287,0.1519136c0,0-0.2124405,0.0752683-0.2530522,0
		C5.1240139,6.5657835,5.3520741,6.5218749,5.4176807,6.4779692z M6.5882697,8.0429173
		c0.0040765,0.0156794,0.0415664,0.1003571-0.0115433,0.1160364c0,0-0.2300758,0.0420685-0.2280602-0.2885284
		C6.3767838,7.7355714,6.4017758,7.6716919,6.5173669,7.69736c0.0406146,0.0068483,0.109344,0.0037141,0.0437398,0.1417055
		C6.5361118,7.9488311,6.5841899,8.0272341,6.5882697,8.0429173z M5.3551989,8.7140532
		C5.4145555,8.7015104,5.5863814,8.641922,5.5426445,9.0151243c0.0281172,0.3951569,0.2093153,0.8534641,0.2468047,0.9442015
		c0.0374899,0.0907354,0.1249638,0.1346407,0.1562061,0.049964c0.0312424-0.0846777,0.1374612-0.348114,0.1780758-0.109766
		c0.0406122,0.2226686,0.1374583,0.5174685,0.1499557,0.5331488c0.0124979,0.0156794,0.0437369,0.1348534-0.1187162,0.1160364
		c0,0-0.4936099-0.0842495-0.7685323-0.5893831C5.2177382,9.6078615,5.1083941,9.2911072,5.105269,9.2346592
		C5.1021438,9.1782074,5.1021438,8.7642336,5.3551989,8.7140532z M6.3465838,13.9127684
		c-0.0354071,0.0313597-0.1791158,0.0397253-0.2291026,0.0397253H6.0612464c0,0-1.2579741,0.0501766-1.5828838,0.0836296
		c-0.2665896-0.0167265-0.249927-0.2090788-0.2749224-0.298748c-0.0309291-0.0909948,0.0314584-1.0090857,0.1071949-1.5235329
		c-0.0000062-0.0000305-0.0000186-0.000061-0.0000243-0.0000916c0-0.0293236,0.0059066-0.0635948,0.0157046-0.0992737
		c0.000699-0.0041008,0.0013924-0.0084839,0.0020914-0.0125027c0.0002007,0.0008421,0.0004468,0.0016727,0.0006475,0.0025148
		c0.0366325-0.1246614,0.1212821-0.263504,0.1909628-0.2762241c0.0916419-0.0167265,0.108304-0.0418148,0.1499586,0.1003571
		c0.0416546,0.1421728,0.2905936,1.087204,0.9617324,1.7478886c0.0335712,0.0044584,0.0489902,0.006506,0.0563107,0.0074768
		c0.0081625-0.0221891,0.013133-0.0426941,0.0149965-0.0576572c-0.0999718-0.1170835-0.3998861-0.7024994-0.541512-1.0119352
		c-0.23594-0.5950165-0.2452879-1.0781527-0.2285161-1.3036165L4.932972,11.3107662c0,0,0.0000367-0.0002747,0.0000424-0.0003233
		c0.0075121-0.1007013,0.0202136-0.1499996,0.0202136-0.1344995c0,0.0016594,0.0010424,0.0041256,0.002821,0.0071621
		c0.0322971-0.1442108,0.1006069-0.3464813,0.2179523-0.2455111c0.1999426,0.3512516,1.1105905,0.8530369,1.1105905,0.8530369
		c0.0629711,0.104538-0.0608888,0.1024475-0.1379504,0.0982666c-0.0906873-0.0214205-0.2977319,0.0225801-0.3565106,0.0359402
		c0.002666,0.0022278,0.0045266,0.0037842,0.0045266,0.0037842s-0.0537024,0.02952-0.078795,0.0546112
		c0.0013561-0.0000277,0.0024471-0.0002346,0.0038152-0.0002527c0,0-0.0229096,0.0794487-0.024992,0.2968903
		c-0.0020823,0.2174406-0.054152,0.4641533,0.1395435,0.4850616c0.1603708,0.0188169,0.5435944,0,0.5435944,0
		s0.0937243,0.0041809,0.0229125,0.0731773c-0.0499868,0.0585423-0.083312,0.1128998-0.083312,0.1128998
		s-0.0035052,0.0009527-0.0094967,0.0025272c-0.0236273,0.0336208-0.1806574,0.2584133-0.1883636,0.3048191
		c-0.0083299,0.0501766-0.0833092,0.1588984-0.0333219,0.1923485c0.2587399-0.3441553,0.43612-0.4660673,0.5027299-0.5035553
		c-0.0003648-0.0032711,0.0002465-0.0066681,0.0033989-0.009222c0.0793052-0.0642881,0.2720189-0.2177792,0.3082228-0.2210846
		c0.0458193-0.0041809,0.152041-0.0543575,0.054152,0.1902618S6.4382229,13.858408,6.3465838,13.9127684z M7.2192526,13.8855867
		c0,0.0752687-0.0666466,0.0585413-0.1999431,0.0669069c-0.1582885,0-0.0583167-0.0669069-0.0583167-0.0669069
		s0.049984-0.0752659,0.1499557-0.2592564c0.0916414-0.2341671,0.108304,0,0.108304,0V13.8855867z M7.3494782,12.0728855
		c0,0-0.800869-0.6209602-0.7258897-1.0851135c0.0437369-0.2446203,0.0812268-0.357523,0.1187162-0.5206032
		c0.0374899-0.1630793,0.0249925-0.2634363,0-0.3637934c-0.0124974-0.0439062,0.0124946-0.119174,0.0624819-0.0564518
		c0.0499873,0.0627232,0.1312141,0.1818972,0.1312141,0.1818972s0.0624814,0.1066284,0.0812263-0.0689945
		c0.0033927-0.0817347,0.0016842-0.1275568,0.0110264-0.1520777c-0.0000672-0.0000763-0.0004683-0.0005493-0.0004683-0.0005493
		S7.0172272,9.8273926,6.8235316,9.8273926C6.7735443,9.7897587,6.6841583,9.7333069,6.7694645,9.6831303
		c0.0853095-0.0501804,0.2977471-0.119175,0.322742-0.1129036c0.024992,0.0062714,0.1374583,0.0564518,0.3311539,0.0501776
		c0.1936955-0.0062714,0.4623704-0.0062714,0.649816-0.1003571c0.1124687-0.0501776,0.1999426-0.0627232,0.2936668,0
		c0.0687294,0.0376339,0.1187162,0.0878143,0.1062193,0.2069883c-0.012495,0.119174,0.0313482,0.476697,0.1187706,0.3198881
		c0.0874224-0.1568079,0.0907211-0.1944427,0.1390572-0.3951569c0.048337-0.1442623,0.2482796-0.3268585,0.2607775-0.4425478
		c0.0124941-0.1156883,0.0437365-0.3352203,0.0437365-0.3352203s0.000164-0.0819788-0.0121908-0.1642723
		c-0.025569-0.0905581-0.0955057-0.1816711-0.2923231-0.251792C8.662137,8.3836765,8.5914106,8.2929478,8.5280561,8.206955
		c-0.0519056-0.0641022-0.109477-0.1415348-0.1737099-0.2361727C8.2901344,7.9103546,8.1924915,7.8268251,8.1076164,7.7763276
		c-0.0645542-0.0302858-0.1261911-0.0395722-0.1781273-0.004169c0,0-0.0093117-0.0043545-0.0197387-0.0121365
		C7.8939328,7.7772036,7.894176,7.7995696,7.9044757,7.8202486c0.0187449,0.0376339,0.1437087,0.2398739-0.2624278,0.3865108
		C7.5045867,8.2467651,7.2421622,8.3659391,6.9859848,8.1338654c0,0-0.3194952-0.1129026-0.2519093-0.476697
		c0.0207238-0.1003571,0.1343207-0.398294,0.1212606-0.5801907C6.8422766,6.8950806,6.8662438,6.5679231,7.0916929,6.5464659
		c0.0000057,0.0000978,0.0000057,0.0002656,0.0000119,0.0003633C7.0982804,6.5398588,7.1064854,6.5353179,7.1171985,6.534421
		c0.0749798-0.0062714,0.268672-0.0125461,0.2811699,0.2132597c0.0562344,0.1003571,0.1249633,0.3387055,0.2561774,0.2634368
		c0.0749793-0.0501771,0.1312137-0.0752683,0.0687289-0.188168c-0.0124946-0.0878143-0.0312395-0.1553288,0.162456-0.0274873
		c0.1687012,0.0713925,0.4436226,0.1403871,0.7997723,0.04003c0.0687313-0.0062714,0.1562052-0.0250888,0.2186871,0.1066313
		c0,0,0.0341949,0.0277529,0.0888662,0.0504394c0.0275946,0.0103607,0.0557852,0.0181365,0.0799923,0.0237641
		c0.0142975,0.002533,0.0292368,0.0052462,0.0436487,0.0089326c0.0126104,0.0022063,0.0205202,0.0032806,0.0205202,0.0032806
		L9.1358833,7.0310884c0.0543289,0.018805,0.0916538,0.058435,0.0369816,0.1682005
		C9.1131468,7.3191805,9.0647554,7.4691896,8.8549232,7.5074921c0.0140944-0.0018034,0.0226545-0.0031462,0.0226545-0.0031462
		s0.041193,0.0754638,0.0862856,0.1423674C8.9579172,7.6508393,8.9525328,7.6534791,8.946784,7.657083
		c0.1583128-0.0628538,0.4679489-0.2410889,0.5572348-0.8616209c0.0374899-0.1857729,0.0124979-0.2234073,0.2499304-0.3425813
		c0.0937243-0.0250883,0.1811981-0.1379914,0.218688,0.1003571c0.0124979,0.1630797,0.0312424,0.4290099,0.0312424,0.4290099
		s-0.0687323,0.2421298,0.1124659,0.066504c0.0624847-0.0752687,0.1374979-0.1514769,0-0.2822542
		c-0.0062475-0.0752683,0.0049791-0.1944427,0.0774689-0.2132597s0.2786798-0.1455536,0.2536879,0.4290099
		c-0.0812263,0.3675752-0.24368,0.8380008-0.3811407,1.0198979c-0.0499878,0.1129026-0.1437082,0.4829674-0.206193,0.4892426
		C9.7914391,8.4788418,9.7851915,8.4537535,9.7789412,8.3910313c-0.0374899-0.0250921-0.1687002,0.238348-0.1687002,0.238348
		S9.5415087,8.6042881,9.5477591,8.999445c-0.0249949,0.2947998-0.0749798,1.0788422-0.5186052,1.5429926
		c-0.2374325,0.2195311-0.6310682,0.595871-0.8372612,0.6272345c-0.0062475-0.0125465-0.1436625,0.0940819-0.2624035-0.0752687
		c-0.0067034-0.0095615-0.0157962-0.0218143-0.0264726-0.0358458c-0.0194564,0.0056973-0.0422807,0.0052729-0.0422807,0.0295715
		c0,0.0439081,0.0687318,0.2446222-0.0687289,0.4453363c-0.1374612,0.2007141-0.2874203,0.3449774-0.2874203,0.4453344
		S7.5380211,12.1418791,7.3494782,12.0728855z M10.4016829,13.6681461
		c-0.0083323,0.1505365,0.0387144,0.3732204-0.4902992,0.3314056c0,0,0.0002279-0.001688,0.0003252-0.0024023
		c-0.4337397,0.0029697-1.7580967-0.0454683-1.9010143-0.0530214c-0.0833092,0.0167274-0.1666179,0.0418158-0.1749506-0.1254454
		C7.827414,13.6514225,7.71911,12.9990997,7.6441307,12.9321928c0.0041313,0.0037842,0.0085177,0.0079346,0.0128684,0.0120306
		C7.638248,12.9209318,7.627471,12.9071045,7.627471,12.9071045s-0.1582885-0.2690678,0-0.1972561
		c0.1582885,0.0718107,0.7081299,0.4732389,1.0247068,0.7993984c0,0,0.158288,0.0585423-0.4248781-0.652319
		c-0.0499868-0.0752687-0.1499586-0.1756258,0.024992-0.1505375c0.1749516,0.0250883,0.5248528,0.1672611,0.4915276-0.1923523
		c0.0166626-0.2927094,0.1249638-0.6690464-0.2665892-0.6439571c-0.266593,0.0250883-0.6383004,0.0828056-0.3832264-0.0585423
		c0,0,0.9497299-0.443243,1.3746109-1.2711916c0.0416546-0.0919952,0.0666466-0.2341671,0.1832809,0.1003571
		c0.0416546,0.2007141,0.0833092,0.9784822-0.1166344,1.5220861c-0.1249628,0.3847008-0.3582306,0.9784813-0.3582306,0.9784813
		s-0.0916424,0.2090759,0.0749788,0.0334539c0.1332932-0.2258062,0.5831661-1.1708345,0.6581459-1.4635439
		c0.0479746-0.1872921,0.0788193-0.3297367,0.0948668-0.4082851c-0.0011244-0.0059576-0.002058-0.0123787-0.0032253-0.0182343
		c0.0083303-0.1839876,0.0833092-0.3763399,0.1749516-0.2508917c0.0916386,0.1254454,0.1332932,0.2529821,0.1249628,0.3815641
		C10.3267031,11.6610012,10.4100122,13.5176115,10.4016829,13.6681461z"/>
	<path fill="#281A00" d="M9.6539774,4.4959135c-0.0030766-0.0235443-0.0169382-0.0561004-0.0397511-0.09512
		C9.6448393,4.4624267,9.6539774,4.4959135,9.6539774,4.4959135z"/>
	<path fill="#281A00" d="M5.444509,12.2025051c-0.0011492,0.0037661-0.0028028,0.0074739-0.0038028,0.0112457
		c0.0002432,0.0384712,0.0009785,0.0747223,0.0020943,0.1093111c0.0019641-0.0434628,0.0040374-0.0703707,0.0040374-0.0703707
		S5.443202,12.2320127,5.444509,12.2025051z"/>
	<path fill="#B60C33" d="M3.8535419,11.9537106c-0.1034706,0.1014557-0.389039,0.968998-0.6214252,1.7223635
		c0.1109824,0.076911,0.2239954,0.1510496,0.3392158,0.2219763c0.1408963-0.8246984,0.4666786-1.96381,0.482152-2.0321503
		C4.065979,11.7739048,3.9035258,11.8868074,3.8535419,11.9537106z"/>
	<path fill="#B60C33" d="M9.1104136,14.1872282l0.0325317,0.6241093c0.166235-0.038147,0.3302202-0.0821562,0.4920263-0.1312284
		l-0.0247307-0.4934483h0.3499012l0.0420046,0.3716335c0.1575193-0.0569267,0.3124847-0.1191587,0.4648933-0.1862116
		l-0.01717-0.1824369C9.9793463,14.1806183,9.5327988,14.1804018,9.1104136,14.1872282z"/>
	<path fill="#B60C33" d="M4.9003372,14.544138C5.7019086,14.8390293,6.5678163,15,7.4711828,15
		c0.4293833,0,0.8501329-0.036871,1.2597075-0.1066952v-0.6979437C7.0188022,14.2413578,5.7352548,14.4017334,4.9003372,14.544138z"
		/>
	<path fill="#B60C33" d="M10.6474447,11.1731319c-0.1374607-0.05299-0.1499548-0.0724573-0.1374607,0.1408024
		c0.0999718,0.1756258,0.2624273,2.3960266,0.2874203,2.5591097c0.024992,0.1630793,0.1374607,0.2258024,0.1374607,0.2258024
		s0.0294914,0.0037107,0.0709724,0.0100098c0.1603498-0.086606,0.317194-0.1788816,0.4702444-0.2766323
		c-0.3078642-1.2244358-0.6024647-2.396244-0.6161966-2.4513855C10.8307285,11.2637539,10.7849064,11.22612,10.6474447,11.1731319z"
		/>
	<path fill="#FCEBD9" d="M4.8678365,5.9060884c0,0,0.1374612,0.0073729,0.4186306,0.0073729
		c1.2246528-0.0689969,1.4829974,0.3689942,1.4829974,0.3689942c0.0465002,0.0549407,0.1477914,0.0512514,0.2040257,0.032434
		c0.0562315-0.031363,0.2811694-0.031363,0.4248781,0c0.1437082-0.0062714,0.2061901-0.150537,0.5123549-0.2446198
		c0.6873059-0.1254482,1.8869634,0.0250888,1.9681897,0.0627232c0.0812292,0.0376339,0.0562344-0.1129031,0.0499868-0.2446232
		c0.024992-0.1254454-0.1874485-0.4892392-0.231185-0.5582366c-0.0437374-0.068994-0.0562344-0.188168-0.0437374-0.3951569
		c-0.0562344-0.4892392,0-0.4390626,0-0.4390626s-0.0091381-0.0334868-0.0397511-0.09512
		C9.3667068,3.9774444,8.039113,2.7740967,7.3983684,3.6240602c0,0-0.011899-0.0170135-0.0357356-0.0449829
		c-0.133275,0.1402678-0.2266893,0.2707884-0.2266893,0.2707884s-0.3186593-0.150537-0.5935812-0.2007141
		C5.2927175,3.3857117,5.0427871,4.9914274,4.9865527,5.210959c0,0.2132597-0.0562348,0.2508941-0.0874739,0.2885284
		c-0.0374899,0-0.1499586,0.1003571-0.1808271,0.1920652C4.6811328,6.0216093,4.8678365,5.9060884,4.8678365,5.9060884z"/>
	<path fill="#FCEBD9" d="M5.6905055,8.1338654C5.780077,8.0774136,5.96627,8.0146914,5.96627,8.0146914
		s0.0512395,0,0.057487-0.0501804c0.0062504-0.0501766,0.0624847-0.2634368,0.162456-0.3073425
		C6.0502901,7.6883879,5.9506774,7.6998811,5.8776102,7.6967497C5.8764277,7.6967225,5.875236,7.6967344,5.8740563,7.696701
		C5.8734727,7.6966705,5.8729529,7.6966095,5.8723722,7.6965761C5.8137178,7.6946015,5.7612805,7.6808319,5.7270317,7.6459594
		C5.7267122,7.6456389,5.7263446,7.6453428,5.7260284,7.6450195C5.7220125,7.6408415,5.7183003,7.6363401,5.7148347,7.631537
		c-0.0026021-0.0035768-0.0048122-0.0073791-0.007019-0.0111847C5.704669,7.6148744,5.7017446,7.6091642,5.6992731,7.6029482
		C5.6957159,7.5942106,5.6926546,7.5851898,5.6905055,7.5756254C5.8175669,7.50036,6.0154152,7.4815431,6.063323,7.2588744
		c0.0166683-0.0909486-0.0270686-0.1850343,0.0666556-0.2226682c0.0937243-0.0376344,0.1999431-0.0940828,0.1999431-0.0940828
		S6.324574,6.9640136,6.3394947,6.9995699C6.3286419,6.9549346,6.3460913,6.9017668,6.4361401,6.8480377
		c0.0840721-0.0501618-0.0812263-0.0627227-0.1249633-0.044919C6.2674398,6.8209257,6.023757,6.8543091,5.9175382,6.8354921
		C5.6113763,6.753952,5.4864097,6.8417635,5.3926888,6.9298735C5.1927428,7.1496978,5.1802483,7.0487518,5.0927715,6.9822478
		C4.9553103,6.8906527,4.9490628,6.9483948,4.8990788,6.9421234c-0.1437116,0.0564485-0.0749793,0.119174-0.0749793,0.1718202
		c0.0812263,0.2533598,0.3811407,0.4177766,0.3811407,0.4177766s0.0056486,0.0024414,0.0157504,0.0062895l0.1829767,0.0475435
		L5.6905055,8.1338654z"/>
	<path fill="#FCEBD9" d="M6.2393923,7.4520235C6.1291637,7.521234,5.9575601,7.5732665,5.6905055,7.5756254
		C5.9581409,7.5834198,6.1293917,7.5274019,6.2393923,7.4520235z"/>
	<path fill="#FCEBD9" d="M6.4361401,7.1139436c0,0.0009642-0.0000334,0.0021119-0.0000391,0.0031247
		C6.4361372,7.115222,6.4361401,7.1139436,6.4361401,7.1139436z"/>
	<path fill="#FCEBD9" d="M8.6599512,7.5129027c0.020237,0.0030489,0.0434999,0.0040865,0.0671024,0.0039458
		C8.705862,7.5163755,8.683548,7.5151,8.6599512,7.5129027z"/>
	<path fill="#FCEBD9" d="M7.0859561,9.9842014c0.1124692,0.0062714,0.3311567-0.0579376,0.3499017-0.000742
		c0.0187449,0.0571928-0.0124974,0.1136417,0,0.1512756c0.0124979,0.0376339,0.1062188,0.1568089,0.1562061,0.0250912
		c0.049984-0.1317196,0.0562344-0.1935635,0.1124659-0.2002773c0.0562344-0.006711-0.0124946,0.1375523,0,0.2630005
		c0.0124974,0.1254454,0.2187366,0.7278013,0.2249594,0.7935543c0.0027819,0.0293617-0.0107737,0.0378571-0.0264726,0.0424538
		c0.0106764,0.0140314,0.0197692,0.0262842,0.0264726,0.0358458c0.118741,0.1693506,0.256156,0.0627222,0.2624035,0.0752687
		c0.206193-0.0313635,0.5998287-0.4077034,0.8372612-0.6272345c0.4436255-0.4641504,0.4936104-1.2481928,0.5186052-1.5429926
		C9.5415087,8.6042881,9.6102409,8.6293793,9.6102409,8.6293793s0.1312103-0.2634401,0.1687002-0.238348
		c0.0062504,0.0627222,0.0124979,0.0878105,0.0812273,0.1003571c0.0624847-0.0062752,0.1562052-0.3763399,0.206193-0.4892426
		c0.1374607-0.1818972,0.2999144-0.6523228,0.3811407-1.0198979c0.024992-0.5745635-0.1811981-0.4478269-0.2536879-0.4290099
		s-0.0837164,0.1379914-0.0774689,0.2132597c0.1374979,0.1307774,0.0624847,0.2069855,0,0.2822542
		c-0.1811981,0.1756258-0.1124659-0.066504-0.1124659-0.066504S9.9851351,6.7163177,9.9726372,6.5532379
		c-0.0374899-0.2383485-0.1249638-0.1254454-0.218688-0.1003571c-0.2374325,0.119174-0.2124405,0.1568084-0.2499304,0.3425813
		C9.4147329,7.4159942,9.1050968,7.5942292,8.946784,7.657083C8.7135534,7.8032136,8.640048,7.5292268,8.6599512,7.5129027
		c0.0983238-0.1254454,0.3629551-0.2968903,0.2192469-0.45997c-0.0120201-0.0896087,0.024992-0.1108093,0.024992-0.1108093
		C8.8417082,6.8104033,8.7542343,6.8292208,8.685503,6.8354921c-0.3561497,0.1003571-0.6310711,0.0313625-0.7997723-0.04003
		c-0.1936955-0.1278415-0.1749506-0.0603271-0.162456,0.0274873c0.0624847,0.1128998,0.0062504,0.137991-0.0687289,0.188168
		C7.5233316,7.0863862,7.4546027,6.8480377,7.3983684,6.7476807C7.3858705,6.5218749,7.1921782,6.5281496,7.1171985,6.534421
		c-0.0107131,0.0008969-0.018918,0.0054379-0.0254936,0.0124083c0.0097189,0.1525726-0.10572,1.5870361-0.10572,1.5870361
		c0.2561774,0.2320738,0.5186019,0.1128998,0.6560631,0.0728941c0.4061365-0.146637,0.2811728-0.348877,0.2624278-0.3865108
		c-0.0102997-0.020679-0.0105429-0.043045,0.0052748-0.0602264C7.8756504,7.7345734,7.8290405,7.6710725,8.0523491,7.5915923
		c0.1749506-0.0117826,0.5081902,0.1387515,0.5914993,0.2892885C8.7271576,8.031415,9.1020508,8.3826656,9.1437054,8.4662962
		c0.0249949,0.1170835,0.0661879,0.3261633-0.1043673,0.4181547C9.0377607,8.83078,9.0403414,8.7703762,9.0232134,8.7097263
		c0.0123549,0.0822935,0.0121908,0.1642723,0.0121908,0.1642723S9.0041618,9.0935307,8.9916677,9.209219
		C8.9791698,9.3249083,8.7792273,9.5075045,8.7308903,9.6517668c-0.048336,0.2007141-0.0516348,0.238349-0.1390572,0.3951569
		c-0.0874224,0.1568089-0.1312656-0.2007141-0.1187706-0.3198881c0.0124969-0.119174-0.0374899-0.1693544-0.1062193-0.2069883
		c-0.0937243-0.0627232-0.1811981-0.0501776-0.2936668,0c-0.1874456,0.0940857-0.4561205,0.0940857-0.649816,0.1003571
		C7.2296648,9.6266785,7.1171985,9.576498,7.0922065,9.5702267C7.0672116,9.5639553,6.854774,9.6329498,6.7694645,9.6831303
		C6.6841583,9.7333069,6.7735443,9.7897587,6.8235316,9.8273926c0.1936955,0,0.2042537,0.1798067,0.2042537,0.1798067
		s0.000401,0.000473,0.0004683,0.0005493C7.0361147,9.9871092,7.0516858,9.9813328,7.0859561,9.9842014z"/>
	<path fill="#FCEBD9" d="M9.1372175,7.0285401c0,0-0.0079098-0.0010743-0.0205202-0.0032806
		C9.12327,7.0269408,9.1296482,7.0289307,9.1358833,7.0310884L9.1372175,7.0285401z"/>
	<path fill="#FCEBD9" d="M9.0730486,7.0163269C9.0488415,7.0106993,9.0206509,7.0029235,8.9930563,6.9925628
		c0.0231133,0.0095887,0.0494986,0.0183625,0.0791349,0.0236087C9.0724745,7.0162201,9.0727663,7.0162783,9.0730486,7.0163269z"/>
	<path fill="#FCEBD9" d="M8.1076164,7.7763276c0.0848751,0.0504975,0.182518,0.134027,0.2467299,0.1944547
		C8.4185791,8.0654202,8.4761505,8.1428528,8.5280561,8.206955C8.4344416,8.0798855,8.3570852,7.9632597,8.3272715,7.9262362
		C8.2566786,7.871213,8.180295,7.8104248,8.1076164,7.7763276z"/>
	<path fill="#EBC598" d="M5.2489772,6.2427583C5.195868,6.2208037,4.9146986,6.2741179,4.8553386,6.327426
		C4.7959819,6.3807344,4.745995,6.4716978,4.7866096,6.5427828c0.0406117,0.0710874,0.1749511,0,0.1749511,0
		s0.1687002-0.1275363,0.2874165-0.1839876S5.2833447,6.2490296,5.2489772,6.2427583z"/>
	<path fill="#EBC598" d="M5.1646285,6.6410494c0.0406117,0.0752683,0.2530522,0,0.2530522,0
		c0.0443177-0.013495,0.4123836-0.1693516,0.5998287-0.1519136C6.2080803,6.5034394,6.0206347,6.3650665,5.9269104,6.327426
		c-0.1562057-0.0909576-0.4436226,0.106638-0.5092297,0.1505432C5.3520741,6.5218749,5.1240139,6.5657835,5.1646285,6.6410494z"/>
	<path fill="#EBC598" d="M6.2393923,7.4520235C6.1293917,7.5274019,5.9581409,7.5834198,5.6905055,7.5756254
		c0.0021491,0.0095644,0.0052104,0.0185852,0.0087676,0.0273228c0.0024533,0.0060272,0.0053105,0.0118256,0.0085425,0.0174041
		c0.0022068,0.0038056,0.0044169,0.0076079,0.007019,0.0111847c0.0034018,0.0046811,0.0070562,0.0092192,0.0111938,0.0134826
		c0.0003161,0.0003233,0.0006838,0.0006194,0.0010033,0.0009398C5.7551031,7.6742463,5.8004241,7.692749,5.8723722,7.6965761
		C5.8729529,7.6966095,5.8734727,7.6966705,5.8740563,7.696701c0.0011158,0.0000548,0.0024261,0,0.0035539,0.0000486
		C5.9506774,7.6998811,6.0502901,7.6883879,6.186213,7.6571684c0.0937214-0.0689969,0.3249068-0.1738281,0.4248781-0.5432248
		C6.6235886,7.0832491,6.6457233,6.9756899,6.539237,7.0644317c-0.1064863,0.0887451-0.0856256,0.0612459-0.103097,0.0495119
		c0,0-0.0000029,0.0012784-0.0000391,0.0031247C6.4356327,7.1802888,6.419414,7.3389921,6.2393923,7.4520235z"/>
	<path fill="#EBC598" d="M4.9615607,7.6195345c0,0-0.0624819-0.0407715-0.0968494,0
		C4.8490915,7.7293,5.0490346,8.0272341,5.2114878,8.2310848c0.162456,0.2038517,0.4790177-0.0972195,0.4790177-0.0972195
		L5.4039674,7.5855532L5.2209907,7.5380096L5.2208662,7.5379763c0,0,0.0249891,0.0501952-0.0000062,0.1223264
		C5.1677508,7.8014312,4.9615607,7.6195345,4.9615607,7.6195345z"/>
	<path fill="#EBC598" d="M5.3864384,9.9593258c0.2749224,0.5051336,0.7685323,0.5893831,0.7685323,0.5893831
		c0.1624532,0.0188169,0.1312141-0.1003571,0.1187162-0.1160364c-0.0124974-0.0156803-0.1093435-0.3104801-0.1499557-0.5331488
		c-0.0406146-0.238348-0.1468334,0.0250883-0.1780758,0.109766c-0.0312424,0.0846767-0.1187162,0.0407715-0.1562061-0.049964
		C5.7519598,9.8685884,5.5707617,9.4102812,5.5426445,9.0151243c0.0437369-0.3732023-0.128089-0.3136139-0.1874456-0.3010712
		C5.1021438,8.7642336,5.1021438,9.1782074,5.105269,9.2346592C5.1083941,9.2911072,5.2177382,9.6078615,5.3864384,9.9593258z"/>
	<path fill="#EBC598" d="M6.5173669,7.69736c-0.115591-0.0256681-0.140583,0.0382113-0.1687007,0.1730652
		C6.3466506,8.2010221,6.5767264,8.1589537,6.5767264,8.1589537c0.0531096-0.0156794,0.0156198-0.1003571,0.0115433-0.1160364
		c-0.0040798-0.0156832-0.0521579-0.0940862-0.027163-0.2038517C6.6267109,7.7010741,6.5579815,7.7042084,6.5173669,7.69736z"/>
	<path fill="#EBC598" d="M7.0917048,6.5468292C7.0916986,6.5467315,7.0916986,6.5465636,7.0916929,6.5464659
		C6.8662438,6.5679231,6.8422766,6.8950806,6.8553362,7.0769777c0.0130601,0.1818967-0.1005368,0.4798336-0.1212606,0.5801907
		c-0.0675859,0.3637943,0.2519093,0.476697,0.2519093,0.476697S7.1014237,6.6994019,7.0917048,6.5468292z"/>
	<path fill="#EBC598" d="M8.6438484,6.4042144C8.4147453,6.2656465,8.1898098,6.4891357,8.1898098,6.4891357
		C8.0856743,6.6111145,8.3356009,6.5386019,8.4480696,6.5218749C8.6521778,6.5427828,8.8229637,6.7685881,8.9638634,6.772769
		c0.1408958,0.0041809,0.0507135-0.0836301,0-0.0982666C8.913146,6.6598663,8.7604818,6.4967866,8.6438484,6.4042144z"/>
	<path fill="#EBC598" d="M9.2436771,6.4891357c0.0166626-0.1832733-0.1999435-0.222333-0.3457336-0.2306976
		C8.6730051,6.262619,8.8604536,6.3589082,8.8604536,6.3589082C9.1312113,6.6559081,9.2270145,6.567874,9.2436771,6.4891357z"/>
	<polygon fill="#EBC598" points="4.932972,11.3107662 4.9329872,11.3107786 4.9330144,11.3104429 	"/>
	<path fill="#EBC598" d="M5.7901306,11.9248381c0.0587788-0.01336,0.2658234-0.0573606,0.3565106-0.0359402
		c0.0770617,0.0041809,0.2009215,0.0062714,0.1379504-0.0982666c0,0-0.9106479-0.5017853-1.1105905-0.8530369
		c-0.1173453-0.1009703-0.1856551,0.1013002-0.2179523,0.2455111C5.0058813,11.2681675,5.7293572,11.8740234,5.7901306,11.9248381z"
		/>
	<path fill="#EBC598" d="M5.444509,12.2025051c-0.001307,0.0295076,0.0023289,0.0501862,0.0023289,0.0501862
		s-0.0020733,0.0269079-0.0040374,0.0703707c0.0159268,0.4943485,0.1184306,0.6035032,0.2352228,0.6425848
		c0.1249633,0.0418148,0.6331534-0.0167274,0.6331534-0.0167274s-0.0013285,0.0018835-0.0032496,0.0046177
		c0.0059915-0.0015745,0.0094967-0.0025272,0.0094967-0.0025272s0.0333252-0.0543575,0.083312-0.1128998
		c0.0708117-0.0689964-0.0229125-0.0731773-0.0229125-0.0731773s-0.3832235,0.0188169-0.5435944,0
		c-0.1936955-0.0209084-0.1416259-0.267621-0.1395435-0.4850616c0.0020823-0.2174416,0.024992-0.2968903,0.024992-0.2968903
		c-0.001368,0.0000181-0.002459,0.0002251-0.0038152,0.0002527c-0.0075941,0.0075932-0.0128469,0.0148287-0.0128469,0.0206575
		C5.5662684,11.9958134,5.4766998,12.0969601,5.444509,12.2025051z"/>
	<path fill="#EBC598" d="M6.9005933,12.7168427c-0.0362039,0.0033054-0.2289176,0.1567965-0.3082228,0.2210846
		c-0.0031524,0.0025539-0.0037637,0.0059509-0.0033989,0.009222c0.0191798-0.0107937,0.0296617-0.0149565,0.0296617-0.0149565
		h0.0674372l-0.624824,1.0203009h0.0562348c0.0499868,0,0.1936955-0.0083656,0.2291026-0.0397253
		c0.091639-0.0543604,0.5102725-0.7610445,0.6081614-1.0056639S6.9464126,12.7126617,6.9005933,12.7168427z"/>
	<path fill="#EBC598" d="M5.4614177,13.8270445c0.1293564,0.032465,0.1982679-0.0660276,0.2266011-0.1430569
		c-0.0073204-0.0009708-0.0227394-0.0030184-0.0563107-0.0074768c-0.6711388-0.6606846-0.9200778-1.6057158-0.9617324-1.7478886
		c-0.0416546-0.1421719-0.0583167-0.1170835-0.1499586-0.1003571c-0.0696807,0.0127201-0.1543303,0.1515627-0.1909628,0.2762241
		C4.5381479,12.9793491,5.2783136,13.7769165,5.4614177,13.8270445z"/>
	<path fill="#EBC598" d="M4.3106108,12.2137508c0.0000057,0.0000305,0.0000181,0.000061,0.0000243,0.0000916
		c0.005177-0.0351524,0.0104089-0.0683804,0.0156803-0.0993652C4.3165174,12.150156,4.3106108,12.1844273,4.3106108,12.2137508z"/>
	<path fill="#EBC598" d="M8.4772301,13.5677891c0.1749477-0.0585423,0.1749477-0.0585423,0.1749477-0.0585423
		c-0.316577-0.3261595-0.8664184-0.7275877-1.0247068-0.7993984c-0.1582885-0.0718117,0,0.1972561,0,0.1972561
		s0.010777,0.0138273,0.0295281,0.0371189C7.8544583,13.1301088,8.2734442,13.6250706,8.4772301,13.5677891z"/>
	<path fill="#EBC598" d="M10.1767483,11.0337706c-0.0916424-0.1254482-0.1666212,0.0669041-0.1749516,0.2508917
		c0.0011673,0.0058556,0.0021009,0.0122766,0.0032253,0.0182343c0.0090351-0.0442114,0.0134344-0.0684118,0.0134344-0.0684118
		s0.2082758,1.3130064,0,2.7598238c-0.0234604,0.0016232-0.0601015,0.0025206-0.1067476,0.002841
		c-0.0000973,0.0007143-0.0003252,0.0024023-0.0003252,0.0024023c0.5290136,0.0418148,0.481967-0.1808691,0.4902992-0.3314056
		c0.0083294-0.1505346-0.0749798-2.0071449-0.0999718-2.2528114C10.3100414,11.2867527,10.2683868,11.1592159,10.1767483,11.0337706
		z"/>
	<path fill="#EBC598" d="M2.9246385,12.3927736c-0.2249379-0.1003571-0.2249379-0.1003571-0.2249379-0.1003571
		c0.017313,0.0231752-0.1119947,0.3790407-0.25615,0.7553158c0.0997524,0.0911531,0.2021682,0.1793947,0.3067422,0.2650824
		l0.2493253-0.6029663C2.9996181,12.7098484,3.1495736,12.4931307,2.9246385,12.3927736z"/>
	<path fill="#EBC598" d="M8.7270536,7.5168486C8.7034512,7.5169892,8.6801882,7.5159516,8.6599512,7.5129027
		C8.640048,7.5292268,8.7135534,7.8032136,8.946784,7.657083c0.0057487-0.0036039,0.0111332-0.0062437,0.0170794-0.0103698
		C8.9187708,7.5798097,8.8775778,7.5043459,8.8775778,7.5043459S8.8690176,7.5056887,8.8549232,7.5074921
		C8.8175831,7.5143099,8.7756367,7.5179353,8.7270536,7.5168486z"/>
	<path fill="#EBC598" d="M9.1437054,8.4662962C9.1020508,8.3826656,8.7271576,8.031415,8.6438484,7.8808808
		c-0.0833092-0.150537-0.4165487-0.3010712-0.5914993-0.2892885C7.8290405,7.6710725,7.8756504,7.7345734,7.9097505,7.7600222
		c0.010427,0.007782,0.0197387,0.0121365,0.0197387,0.0121365c0.0519361-0.0354033,0.1135731-0.0261168,0.1781273,0.004169
		C8.180295,7.8104248,8.2566786,7.871213,8.3272715,7.9262362C8.3570852,7.9632597,8.4344416,8.0798855,8.5280561,8.206955
		C8.5914106,8.2929478,8.662137,8.3836765,8.7308903,8.4579344c0.1968174,0.0701208,0.2667542,0.1612339,0.2923231,0.251792
		C9.0403414,8.7703762,9.0377607,8.83078,9.0393381,8.8844509C9.2098932,8.7924595,9.1687002,8.5833797,9.1437054,8.4662962z"/>
	<path fill="#FFFFFF" d="M4.9948821,4.0338531c0.0249953-0.0752685,0.3915563-0.3930664,0.4665356-0.4432433
		c0.5248528-0.2007141-0.0083294-0.1588991-0.0666466-0.1505373c-0.0583167,0.0083649-0.5081902,0.209079-0.7164655,0.3596132
		C4.5033579,3.9502227,4.095139,4.1258483,3.9030244,4.1258483C3.6192677,4.1174836,3.7952249,4.3181977,3.8535419,4.410193
		c0.1582885,0.2508941,0.0762835,0.575232,0.0666466,0.627234c-0.0666466,0.3596129-0.0583169,0.8279448-0.033325,1.0119352
		C3.9118586,6.2333498,4.0201597,6.208261,4.1118016,6.1831694C4.2034402,6.1580811,4.1951108,6.057724,4.1951108,5.9740934
		C4.1784482,5.8486452,4.2617574,5.3886747,4.2784195,5.3217711c0.0083327-0.3261628,0.2249384-0.6774106,0.266593-0.7359529
		C4.7366223,4.4854612,4.8032722,4.360013,4.8116016,4.3181977C4.8199344,4.2763824,4.9698901,4.1091218,4.9948821,4.0338531z"/>
	<path fill="#FFFFFF" d="M4.0825047,6.4758787c-0.0709515,0.0083618-0.0540123,0.0334535-0.087337,0.117084
		C3.986835,6.7184081,4.1701183,7.0445709,4.1701183,7.0445709c0.1832805,0.2258024,0.091639-0.150537,0.0333219-0.4014311
		C4.2534275,6.4340639,4.1534562,6.4675169,4.0825047,6.4758787z"/>
	<path fill="#FFFFFF" d="M4.436708,6.2005525C4.3200741,6.2095733,4.3700614,6.3671598,4.3700614,6.3671598
		s0.1416259,0.0083618,0.1999431,0c0.0583167-0.0083647,0.0749793,0.0250888,0.0749793-0.0833035
		C4.6449838,6.1754637,4.5533419,6.1915345,4.436708,6.2005525z"/>
	<path fill="#FFFFFF" d="M9.6142263,4.4007936c0.0228128,0.0390196,0.0366745,0.0715756,0.0397511,0.09512
		C9.7158117,4.5315156,9.7477016,4.6025453,10.047616,5.330133c0.168704,0.6836853,0.2374334,0.2634401,0.2749224,0.1254487
		c0.0374899-0.1379914-0.0374889-0.715045-0.0624819-0.9408507c-0.1499586-1.4802675-1.4870768-2.2204041-2.3743258-2.4712954
		C6.9984822,1.7925415,6.0362544,2.1061585,6.0362544,2.1061585s-0.649816,0.2007141-0.3457489,0.2759826
		C6.1695232,2.3570526,5.761332,2.5075867,5.761332,2.5075867S5.2989645,2.7083008,5.0240421,2.8964722
		C4.7491202,3.159909,4.9990501,3.059552,5.0990214,3.0720978C6.5290465,2.734961,7.2073298,3.3968537,7.3626328,3.5790772
		c0.0238366,0.0279694,0.0357356,0.0449829,0.0357356,0.0449829C8.039113,2.7740967,9.3667068,3.9774444,9.6142263,4.4007936z"/>
	<path fill="#FFFFFF" d="M6.3299217,6.9421234c0,0-0.1062188,0.0564485-0.1999431,0.0940828
		C6.0362544,7.0738401,6.0799913,7.1679258,6.063323,7.2588744C6.0154152,7.4815431,5.8175669,7.50036,5.6905055,7.5756254
		C5.9575601,7.5732665,6.1291637,7.521234,6.2393923,7.4520235C6.419414,7.3389921,6.4356327,7.1802888,6.436101,7.1170683
		c0.0000057-0.0010128,0.0000391-0.0021605,0.0000391-0.0031247C6.3789878,7.0691743,6.3520679,7.0295348,6.3394947,6.9995699
		C6.324574,6.9640136,6.3299217,6.9421234,6.3299217,6.9421234z"/>
	<path fill="#FFFFFF" d="M8.6105232,8.761096C8.4105806,8.7046452,8.2918644,8.4349365,8.1856451,8.2906704
		c-0.1187162-0.119174-0.1999426-0.0940819-0.2561774-0.0313597c-0.0562344,0.0627232-0.1187162,0.0878115-0.231185,0.1254454
		c-0.1124692,0.0376348-0.1624532,0.0878143-0.24368,0.1818972C7.2921495,8.6795559,6.9859848,8.5729275,6.8172841,8.4976597
		C6.6298361,8.3847561,6.47363,8.4725704,6.3924031,8.5478363C6.3361688,8.6356506,6.1549706,8.7548246,6.063323,8.7924595
		C5.9716749,8.8112764,5.9300356,8.8426361,6.0050149,8.9215488C6.0799913,9.0004578,6.22995,8.9743557,6.4361401,8.9367218
		c0.643569-0.137991,2.0431728,0.0250883,2.0431728,0.0250883C8.891696,8.9241762,8.6917496,8.7987309,8.6105232,8.761096z"/>
	<path fill="#FFFFFF" d="M8.8791981,7.0529327c0.1437082,0.1630797-0.120923,0.3345246-0.2192469,0.45997
		C8.683548,7.5151,8.705862,7.5163755,8.7270536,7.5168486c0.048583,0.0010867,0.0905294-0.0025387,0.1278696-0.0093565
		c0.2098322-0.0383024,0.2582235-0.1883116,0.3179417-0.3082032c0.0546722-0.1097655,0.0173473-0.1493955-0.0369816-0.1682005
		C9.1296482,7.0289307,9.12327,7.0269408,9.1166973,7.0252595C9.1022854,7.0215731,9.0873461,7.0188599,9.0730486,7.0163269
		C9.0727663,7.0162783,9.0724745,7.0162201,9.0721912,7.0161715c-0.0296364-0.0052462-0.0560217-0.01402-0.0791349-0.0236087
		C8.938385,6.9698763,8.9041901,6.9421234,8.9041901,6.9421234S8.867178,6.9633241,8.8791981,7.0529327z"/>
	<path fill="#FFFFFF" d="M6.8922606,9.2315216c-0.212781,0.0111637-0.1062188,0.0815401,0,0.137991
		c0.1062217,0.0564518,0.1562061,0.0501776,0.1562061,0.0501776S7.6358008,9.3946018,7.8294964,9.33815
		c0.193696-0.0564518,0.0562344-0.0878115,0-0.1066284C7.6920352,9.1813412,6.8922606,9.2315216,6.8922606,9.2315216z"/>
	<path fill="#FFFFFF" d="M7.792007,11.5334654c0.1374607-0.2007141,0.0687289-0.4014282,0.0687289-0.4453363
		c0-0.0242987,0.0228243-0.0238743,0.0422807-0.0295715c0.0156989-0.0045967,0.0292544-0.013092,0.0264726-0.0424538
		c-0.0062227-0.065753-0.2124619-0.6681089-0.2249594-0.7935543c-0.0124946-0.1254482,0.0562344-0.2697115,0-0.2630005
		c-0.0562315,0.0067139-0.0624819,0.0685577-0.1124659,0.2002773c-0.0499873,0.1317177-0.1437082,0.0125427-0.1562061-0.0250912
		c-0.0124974-0.0376339,0.0187449-0.0940828,0-0.1512756c-0.0187449-0.0571957-0.2374325,0.0070133-0.3499017,0.000742
		c-0.0342703-0.0028687-0.0498414,0.0029078-0.0577025,0.0235472c-0.0093422,0.0245209-0.0076337,0.070343-0.0110264,0.1520777
		c-0.0187449,0.1756229-0.0812263,0.0689945-0.0812263,0.0689945s-0.0812268-0.119174-0.1312141-0.1818972
		c-0.0499873-0.0627222-0.0749793,0.0125456-0.0624819,0.0564518c0.0249925,0.1003571,0.0374899,0.2007141,0,0.3637934
		c-0.0374894,0.1630802-0.0749793,0.2759829-0.1187162,0.5206032c-0.0749793,0.4641533,0.7258897,1.0851135,0.7258897,1.0851135
		c0.1885428,0.0689936,0.1551085,0.0062714,0.1551085-0.0940857S7.6545458,11.7341795,7.792007,11.5334654z"/>
	<path fill="#FFFFFF" d="M9.3603106,6.3037691c-0.0083294,0.1122375,0.1249666,0.108139,0.1249666,0.108139
		c0.073019,0.0152707,0.1666183-0.0112977,0.158289-0.0871983c-0.0083332-0.0759001-0.0333252-0.0829983-0.158289-0.0870175
		C9.3603106,6.2336702,9.3519812,6.2918916,9.3603106,6.3037691z"/>
	<path fill="#FFFFFF" d="M10.0184565,11.2344847c0,0-0.0043993,0.0242004-0.0134344,0.0684118
		c-0.0160475,0.0785484-0.0468922,0.220993-0.0948668,0.4082851c-0.0749798,0.2927094-0.5248528,1.2377377-0.6581459,1.4635439
		c-0.1666212,0.175622-0.0749788-0.0334539-0.0749788-0.0334539s0.2332678-0.5937805,0.3582306-0.9784813
		c0.1999435-0.5436039,0.158289-1.321372,0.1166344-1.5220861c-0.1166344-0.3345242-0.1416264-0.1923523-0.1832809-0.1003571
		c-0.424881,0.8279486-1.3746109,1.2711916-1.3746109,1.2711916c-0.255074,0.1413479,0.1166334,0.0836306,0.3832264,0.0585423
		c0.3915529-0.0250893,0.2832518,0.3512478,0.2665892,0.6439571c0.0333252,0.3596134-0.316576,0.2174406-0.4915276,0.1923523
		c-0.1749506-0.0250883-0.0749788,0.0752687-0.024992,0.1505375c0.5831661,0.7108612,0.4248781,0.652319,0.4248781,0.652319
		s0,0-0.1749477,0.0585423c-0.2037859,0.0572815-0.6227717-0.4376802-0.820231-0.6235657
		c-0.0043507-0.004096-0.0087371-0.0082464-0.0128684-0.0120306c0.0749793,0.0669069,0.1832833,0.7192297,0.1916132,0.8864899
		c0.0083327,0.1672611,0.0916414,0.1421728,0.1749506,0.1254454c0.1429176,0.0075531,1.4672747,0.0559912,1.9010143,0.0530214
		c0.0466461-0.0003204,0.0832872-0.0012178,0.1067476-0.002841C10.2267323,12.5474911,10.0184565,11.2344847,10.0184565,11.2344847z
		"/>
	<path fill="#FFFFFF" d="M7.1109486,13.6263304c-0.0999718,0.1839905-0.1499557,0.2592564-0.1499557,0.2592564
		s-0.0999718,0.0669069,0.0583167,0.0669069c0.1332965-0.0083656,0.1999431,0.0083618,0.1999431-0.0669069v-0.2592564
		C7.2192526,13.6263304,7.20259,13.3921633,7.1109486,13.6263304z"/>
	<path fill="#FFFFFF" d="M6.6186333,12.9321928c0,0-0.0104818,0.0041628-0.0296617,0.0149565
		c-0.0666099,0.037488-0.2439899,0.1594-0.5027299,0.5035553c-0.0499873-0.0334501,0.024992-0.1421719,0.0333219-0.1923485
		c0.0077062-0.0464058,0.1647363-0.2711983,0.1883636-0.3048191c0.0019212-0.0027342,0.0032496-0.0046177,0.0032496-0.0046177
		s-0.5081902,0.0585423-0.6331534,0.0167274c-0.1167922-0.0390816-0.219296-0.1482363-0.2352228-0.6425848
		c-0.0011158-0.0345888-0.0018511-0.0708399-0.0020943-0.1093111c0.0009999-0.0037718,0.0026536-0.0074797,0.0038028-0.0112457
		c0.0321908-0.105545,0.1217594-0.2066917,0.2585063-0.1986141c0-0.0058289,0.0052528-0.0130644,0.0128469-0.0206575
		c0.0250926-0.0250912,0.078795-0.0546112,0.078795-0.0546112s-0.0018606-0.0015564-0.0045266-0.0037842
		c-0.0607734-0.0508146-0.7842493-0.6566706-0.8340816-0.7417326c-0.0017786-0.0030365-0.002821-0.0055027-0.002821-0.0071621
		c0-0.0155001-0.0127015,0.0337982-0.0202136,0.1344995c-0.0000091,0.0001163-0.0000181,0.0002165-0.0000272,0.0003357
		c-0.0167718,0.2254639-0.0074239,0.7086,0.2285161,1.3036165c0.1416259,0.3094358,0.4415402,0.8948517,0.541512,1.0119352
		c-0.0018635,0.0149632-0.006834,0.0354681-0.0149965,0.0576572c-0.0283332,0.0770292-0.0972447,0.1755219-0.2266011,0.1430569
		c-0.183104-0.050128-0.9232697-0.8476954-1.1323633-1.7225552c-0.0002007-0.0008421-0.0004468-0.0016727-0.0006475-0.0025148
		c-0.000699,0.0040188-0.0013924,0.0084019-0.0020914,0.0125027C4.321044,12.145462,4.3158121,12.17869,4.3106351,12.2138424
		c-0.0757365,0.5144472-0.138124,1.432538-0.1071949,1.5235329c0.0249953,0.0896692,0.0083327,0.2820215,0.2749224,0.298748
		c0.3249097-0.033453,1.5828838-0.0836296,1.5828838-0.0836296l0.624824-1.0203009H6.6186333z"/>
	<path fill="#FFFFFF" d="M9.110384,14.1866608H8.7308903v0.0087004v0.6979437
		c0.1386528-0.0236359,0.2761145-0.0507727,0.412055-0.0819674l-0.0325317-0.6241093L9.110384,14.1866608z"/>
	<path fill="#FFFFFF" d="M9.6102409,14.1866608l0.0247307,0.4934483c0.1237659-0.0375366,0.246212-0.0780945,0.3671751-0.1218147
		l-0.0420046-0.3716335H9.6102409z"/>
	<path fill="#FFFFFF" d="M10.4495907,14.1866608l0.0002794,0.002985l0.01717,0.1824369
		c0.1248665-0.0549345,0.2480249-0.11304,0.3692122-0.1745214l-0.001359-0.0109005H10.4495907z"/>
	<path fill="#FFFFFF" d="M2.6997006,12.2924166c-0.0374897-0.0501776-0.2249351-0.0125456-0.2749224,0
		c-0.0499842,0.0125456-0.337404,0.1003571-0.337404,0.1003571v0.3068113
		c0.1149223,0.1198883,0.2335901,0.2361298,0.3561764,0.3481474C2.5877059,12.6714573,2.7170136,12.3155918,2.6997006,12.2924166z"
		/>
	<path fill="#FFFFFF" d="M11.6721544,11.5773716c0,0-0.5248489-0.2007141-0.474865,0
		c0.024621,0.0988579,0.3129864,1.074173,0.5993156,2.0385895c0.5726986-0.4089022,1.0851879-0.8970985,1.5223045-1.4482183
		l0.0652609-0.2391205L11.6721544,11.5773716z"/>
</g>
</svg>
