<?xml version="1.0" encoding="utf-8"?>
<!-- Generator: Adobe Illustrator 20.0.0, SVG Export Plug-In . SVG Version: 6.00 Build 0)  -->
<svg version="1.1" id="coco_x5F_ichibanya" xmlns="http://www.w3.org/2000/svg" xmlns:xlink="http://www.w3.org/1999/xlink" x="0px"
	 y="0px" viewBox="0 0 15 15" enable-background="new 0 0 15 15" xml:space="preserve">
<circle fill="#FFCC00" cx="7.5" cy="7.5" r="7.5"/>
<g>
	<path fill="#502C08" d="M5.56,6.23c-1,0-1.81,0.78-1.81,1.74c0,0.3,0.08,0.57,0.22,0.81C3.93,8.77,3.9,8.77,3.9,8.77
		S2.15,9.54,1.38,8.02c-0.13-0.69-0.19-1.5,0.93-1.96c0.23-0.04,1.25-0.17,1.92,0.19V5.41c0,0-1.44-0.21-2.02-0.1
		c-0.58,0.1-2.08,0.67-1.96,2.33c0.13,0.65,0.58,2.6,4.13,1.67c0-0.02,0-0.03,0-0.04C4.69,9.54,5.1,9.7,5.56,9.7
		c1,0,1.81-0.78,1.81-1.74S6.56,6.23,5.56,6.23z M5.56,9.19c-0.47,0-0.84-0.55-0.84-1.23S5.1,6.74,5.56,6.74s0.84,0.55,0.84,1.23
		S6.03,9.19,5.56,9.19z"/>
	<path fill="#502C08" d="M12.94,6.24c-1,0-1.81,0.78-1.81,1.74c0,0.3,0.08,0.57,0.22,0.81c-0.04-0.01-0.07-0.01-0.07-0.01
		S9.53,9.55,8.76,8.03c-0.13-0.69-0.19-1.5,0.93-1.96c0.23-0.04,1.25-0.17,1.92,0.19V5.43c0,0-1.44-0.21-2.02-0.1
		c-0.58,0.1-2.08,0.67-1.96,2.33c0.13,0.65,0.58,2.6,4.13,1.67c0-0.02,0-0.03,0-0.04c0.32,0.27,0.73,0.44,1.19,0.44
		c1,0,1.81-0.78,1.81-1.74S13.95,6.24,12.94,6.24z M12.94,9.21c-0.47,0-0.84-0.55-0.84-1.23s0.38-1.23,0.84-1.23
		s0.84,0.55,0.84,1.23S13.41,9.21,12.94,9.21z"/>
</g>
</svg>
