<?xml version="1.0" encoding="utf-8"?>
<!-- Generator: Adobe Illustrator 21.1.0, SVG Export Plug-In . SVG Version: 6.00 Build 0)  -->
<svg version="1.1" id="レイヤー_1" xmlns="http://www.w3.org/2000/svg" xmlns:xlink="http://www.w3.org/1999/xlink" x="0px"
	 y="0px" viewBox="0 0 16 16" enable-background="new 0 0 16 16" xml:space="preserve">
<g id="sukiya">
	<rect x="0" y="1.501" fill="#FFCC00" width="15.994" height="12.993" rx="2" ry="2"/>
	<path fill="#CC0000" d="M7.549,2.247L7.549,2.247H0c0,0,0,3.087,0,5.273c0.363,3.466,2.826,4.756,2.826,4.756l-0.768,2.223h6.36
		l0,0h5.491l-0.752-2.229c0,0,2.394-1.296,2.842-4.761c0-2.191,0-5.262,0-5.262L7.549,2.247z"/>
	<path d="M5.129,10.405l0.027-0.085L5.129,10.405c-0.288-0.096-0.512-0.165-0.4-0.549V9.85V9.845
		C4.862,9.567,5.246,8.96,5.262,8.933l0,0l0,0c0.043-0.064,0.069-0.139,0.064-0.16v0.011C5.321,8.778,5.321,8.794,5.321,8.794l0,0
		c-0.048,0-0.187,0.08-0.245,0.123c-0.16,0.149-0.512,0.24-0.88,0.24c-0.235,0-0.459-0.043-0.656-0.123L3.53,9.029L3.519,9.024
		C3.498,9.008,3.471,8.992,3.444,8.976C3.188,8.805,2.799,8.544,2.789,7.787V7.781V7.776c0-0.011,0.005-0.027,0.005-0.048
		c0.021-0.197,0.08-0.72,0.459-1.13c0.101-0.117,0.64-0.693,1.29-0.693h0.069c0.096-0.005,0.165-0.005,0.213-0.005
		c0.043,0,0.075,0,0.101,0.005c0.016,0,0.037,0.005,0.059,0.011c0.037,0.011,0.08,0.021,0.123,0.021
		c0.053,0,0.096-0.016,0.123-0.091c0.005-0.107-0.016-0.283-0.208-0.304C4.98,5.537,4.942,5.537,4.91,5.537
		c-0.208,0-0.437,0.085-1.104,0.379c-0.293,0.128-0.538,0.24-0.736,0.331c-0.357,0.165-0.57,0.267-0.709,0.272
		c-0.032,0-0.064,0-0.085,0c-0.165,0-0.256-0.037-0.379-0.149L1.888,6.358L1.882,6.342C1.877,6.331,1.754,6.086,1.85,5.846
		c0.059-0.144,0.187-0.251,0.373-0.315c0.506-0.187,2.095-0.837,2.218-0.89c0.037-0.027,0.24-0.176,0.171-0.443
		C4.527,3.857,4.335,3.164,4.319,3.111C4.276,2.988,4.276,2.722,4.564,2.556C4.607,2.53,4.676,2.514,4.751,2.514
		c0.203,0,0.363,0.123,0.427,0.325C5.252,3.02,5.556,3.761,5.593,3.847C5.63,3.905,5.726,4.012,5.806,4.012c0,0,0.005,0,0.011,0
		c0.144-0.016,0.395-0.064,0.443-0.069l1.674-0.65C7.96,3.276,8.072,3.223,8.195,3.223c0.144,0,0.261,0.075,0.325,0.213
		c0.069,0.149,0.085,0.267,0.043,0.363C8.514,3.916,8.397,3.969,8.296,4.007C8.061,4.087,6.499,4.705,6.382,4.79
		C6.361,4.812,6.329,4.833,6.297,4.854c-0.112,0.08-0.261,0.192-0.283,0.341c0.011,0.16,0.123,0.944,0.187,1.344
		c0.005,0.043,0.139,0.997,0.107,1.312c0,0.117-0.011,0.48-0.048,0.608c0,0.005-0.005,0.016-0.005,0.032
		C6.083,9.2,5.891,9.727,5.699,10.015c0,0.005-0.005,0.011-0.011,0.016c-0.048,0.101-0.176,0.368-0.517,0.384H5.156L5.129,10.405z
		 M4.633,6.603c-1.04,0.16-1.136,0.949-1.141,0.96l0,0l0,0C3.444,7.856,3.482,8.075,3.599,8.224
		c0.149,0.181,0.411,0.219,0.602,0.219c0.133,0,0.229-0.016,0.251-0.021c0.325-0.085,0.576-0.277,0.741-0.565
		c0.133-0.229,0.176-0.464,0.176-0.602c-0.027-0.432-0.256-0.65-0.693-0.65c-0.011,0-0.027,0-0.037,0
		C4.644,6.603,4.639,6.603,4.633,6.603z M8.344,10.111c-0.112,0-0.251-0.027-0.427-0.091l0,0c-0.4-0.149-0.704-0.293-0.853-0.405
		c-0.085-0.064-0.416-0.352-0.427-0.56C6.632,8.992,6.622,8.832,6.675,8.688c0.064-0.181,0.203-0.288,0.4-0.309
		c0.208-0.016,1.418-0.08,1.509-0.08c0.032-0.005,0.123-0.048,0.149-0.101c0.005-0.016,0.011-0.037-0.011-0.08V8.112V8.107
		C8.6,7.84,8.493,7.691,8.445,7.653C8.435,7.648,8.429,7.643,8.419,7.637C8.381,7.611,8.355,7.595,8.301,7.595
		c-0.064,0-0.155,0.021-0.267,0.069l0,0C7.368,7.984,7.182,8.091,7.15,8.117L7.139,8.128L7.123,8.139
		c-0.059,0.032-0.192,0.075-0.32,0.075c-0.208,0-0.341-0.107-0.363-0.299c0-0.005,0-0.011,0-0.011c-0.027-0.171,0-0.373,0.459-0.491
		c0.331-0.128,0.656-0.261,0.81-0.368C7.715,7.04,7.72,7.035,7.731,7.03c0.128-0.085,0.133-0.123,0.101-0.176l0,0l0,0
		C7.752,6.704,7.645,6.566,7.645,6.56l0,0c0,0-0.016-0.016-0.043-0.016s-0.08,0.011-0.155,0.064L7.443,6.614H7.438
		C7.043,6.811,6.979,6.832,6.942,6.832c-0.005,0-0.011,0-0.021,0.005C6.894,6.843,6.856,6.848,6.814,6.848
		c-0.128,0-0.192-0.059-0.224-0.112c-0.027-0.032-0.123-0.16-0.085-0.299c0.021-0.091,0.096-0.16,0.208-0.203
		c0.16-0.08,0.405-0.165,0.48-0.192l0.005-0.005l0,0c0,0,0,0-0.005-0.005c-0.048-0.08-0.133-0.384-0.027-0.506
		c0.059-0.069,0.149-0.149,0.261-0.149c0.016,0,0.032,0,0.048,0.005H7.48h0.005c0.101,0.032,0.384,0.299,0.459,0.373
		c0.011,0,0.021,0.005,0.032,0.005c0.032,0,0.08-0.011,0.133-0.037h0.005H8.12c0,0,0.267-0.096,0.416-0.096
		c0.032,0,0.059,0.005,0.085,0.016C8.85,5.734,8.968,5.899,8.952,6.113C8.957,6.209,8.914,6.31,8.824,6.417
		C8.808,6.449,8.802,6.47,8.797,6.491c0.011,0,0.016-0.005,0.027-0.011c0.037-0.021,0.075-0.043,0.117-0.069
		c0.112-0.069,0.213-0.133,0.315-0.133c0.048,0,0.091,0.016,0.128,0.043l0,0l0,0c0.043,0.037,0.149,0.139,0.144,0.272
		C9.522,6.651,9.495,6.736,9.384,6.811C9.229,6.928,9.08,7.03,9.026,7.056C9.01,7.062,8.962,7.094,8.941,7.142
		C8.93,7.174,8.93,7.206,8.946,7.243c0.011,0.021,0.037,0.064,0.069,0.112c0.149,0.235,0.293,0.475,0.325,0.608
		c0.032,0.075,0.181,0.485-0.192,0.725C9.005,8.816,8.893,8.944,7.763,8.997C7.677,9.002,7.587,8.976,7.502,8.976
		c-0.133,0-0.197,0.016-0.224,0.032c0,0.005-0.005,0.005-0.005,0.005c0,0.005-0.005,0.005-0.011,0.011
		c0.005,0.011,0.021,0.032,0.064,0.064c0.011,0.011,0.021,0.016,0.032,0.027c0.096,0.08,0.208,0.165,0.826,0.219
		c0.005,0,0.016,0,0.021,0c0.021,0,0.053,0,0.085,0c0.208,0,0.357,0.053,0.437,0.149c0.064,0.08,0.085,0.192,0.059,0.32v0.005v0.005
		C8.712,9.903,8.637,10.111,8.344,10.111z M8.376,6.326c0.096-0.085,0.096-0.144,0.08-0.165L8.451,6.155l0,0c0,0-0.005,0-0.011,0
		c-0.037,0-0.096,0.021-0.149,0.048L8.376,6.326z M9.959,11.3c-0.048,0-0.123-0.021-0.181-0.107
		c-0.005-0.005-0.011-0.011-0.016-0.016c-0.037-0.048-0.144-0.171,0-0.293c0.059-0.053,0.917-0.906,1.477-1.466l0.005-0.005
		l0.005-0.005c0.043-0.032,0.096-0.091,0.101-0.117c0.016-0.064,0.005-0.181-0.032-0.213c-0.043,0.021-0.133,0.123-0.197,0.224
		l-0.005,0.005l-0.235,0.251c-0.011,0.016-0.091,0.091-0.213,0.091c-0.091,0-0.181-0.043-0.267-0.123l0,0l0,0
		c-0.005-0.005-0.011-0.011-0.021-0.021c-0.037-0.032-0.096-0.091-0.091-0.176c0-0.085,0.053-0.171,0.171-0.277
		c0.229-0.208,1.402-1.376,1.477-1.45c0.005-0.005,0.011-0.016,0.016-0.027c-0.085,0.053-0.299,0.219-0.48,0.363l-0.714,0.64
		c-0.021,0.021-0.123,0.112-0.277,0.112c-0.043,0-0.091-0.005-0.133-0.021l-0.016-0.005L10.322,8.65
		c-0.053-0.043-0.112-0.133-0.117-0.24c-0.005-0.053,0.005-0.133,0.064-0.213c-0.048-0.053-0.117-0.144-0.165-0.256
		c-0.005-0.021-0.021-0.048-0.037-0.091C9.559,6.646,9.554,6.475,9.591,6.395c0.027-0.053,0.155-0.187,0.336-0.187
		c0.091,0,0.181,0.032,0.267,0.101c0.016,0.011,0.032,0.016,0.053,0.016c0.016,0,0.037-0.005,0.053-0.016
		c0.021-0.011,0.048-0.021,0.112-0.043c0.155-0.059,0.443-0.16,0.613-0.288c0.005-0.005,0.011-0.016,0.016-0.021
		c0.021-0.027,0.037-0.037,0.005-0.139c-0.053-0.16-0.219-0.672-0.219-0.677l-0.005-0.011V5.121
		c-0.011-0.101,0.016-0.309,0.181-0.341l0.139-0.048h0.011c0.085,0,0.299,0.027,0.384,0.075l0.011,0.016l0.011,0.011l0.005,0.005
		c0.032,0.027,0.101,0.08,0.187,0.251c0.085,0.176,0.16,0.293,0.325,0.293c0.032,0,0.064-0.005,0.096-0.011
		c0.032-0.011,0.069-0.021,0.117-0.037c0.32-0.107,0.912-0.299,1.285-0.299c0.005,0,0.011,0,0.016,0c0.005,0,0.016,0,0.027,0
		c0.027,0,0.059-0.005,0.101-0.005c0.331,0,0.405,0.208,0.421,0.336l0,0c0.021,0.176,0.005,0.501-0.277,0.714
		C13.558,6.31,13.094,6.683,13.02,6.8l0,0l0,0c-0.064,0.08-0.171,0.144-0.277,0.155c-0.016,0-0.032,0-0.048,0
		c-0.075,0-0.16-0.021-0.203-0.043c-0.011,0.005-0.027,0.011-0.059,0.021c-0.059,0.027-0.091,0.059-0.096,0.08
		c0,0.011,0.005,0.021,0.016,0.037c0.048,0.043,0.379,0.325,0.48,0.496c0.064-0.069,0.437-0.491,0.496-0.554
		c0.027-0.053,0.144-0.235,0.379-0.235c0.043,0,0.091,0.005,0.139,0.021c0.075,0.021,0.176,0.085,0.213,0.197
		c0.037,0.123-0.016,0.261-0.16,0.421l-0.304,0.341c-0.048,0.053-0.293,0.32-0.315,0.341L13.27,8.091
		c-0.011,0.021-0.053,0.112,0.016,0.256c0.075,0.096,0.459,0.57,0.464,0.576l0,0l0.309,0.411l0.123,0.192
		c0.016,0.021,0.149,0.235,0,0.469l-0.005,0.011l-0.011,0.011c-0.005,0.005-0.016,0.016-0.027,0.027
		c-0.059,0.064-0.155,0.165-0.315,0.165l0,0c-0.08,0-0.171-0.027-0.256-0.085c-0.085-0.053-0.24-0.272-0.453-0.65
		c-0.043-0.08-0.085-0.155-0.123-0.219l-0.016,0.085l0,0c-0.027,0.107-0.165,0.634-0.395,0.752
		c-0.096,0.059-0.181,0.085-0.272,0.085c-0.149,0-0.283-0.075-0.405-0.219c-0.133-0.144-0.181-0.187-0.192-0.203
		c-0.005-0.005-0.021-0.011-0.037-0.011c-0.048,0-0.096,0.043-0.123,0.08v0.005l-0.005,0.005c-0.107,0.107-1.338,1.333-1.386,1.381
		C10.119,11.236,10.05,11.3,9.959,11.3z M12.129,9.36c0.037,0.027,0.059,0.027,0.064,0.027c0.021,0,0.048-0.053,0.064-0.085
		c0.005-0.011,0.011-0.021,0.016-0.027l0,0l0,0c0.032-0.053,0.059-0.171,0.069-0.288c-0.107,0.096-0.24,0.229-0.293,0.288
		C12.044,9.28,12.044,9.28,12.044,9.28C12.049,9.28,12.065,9.312,12.129,9.36z M11.607,8.762c0.021,0.016,0.037,0.021,0.059,0.021
		c0.016,0,0.027-0.005,0.032-0.011c0.059-0.059,0.443-0.453,0.549-0.565c0.075-0.091,0.091-0.144,0.096-0.16
		c0-0.011,0-0.011-0.005-0.027V8.016c-0.016,0-0.043,0.016-0.053,0.027c-0.053,0.053-0.549,0.533-0.634,0.618
		C11.607,8.709,11.607,8.746,11.607,8.762z M10.578,7.136c0.011,0.128,0.128,0.336,0.219,0.427c0.027,0.027,0.053,0.032,0.096,0.032
		c0.043,0,0.075-0.016,0.085-0.016c0.032-0.016,0.304-0.155,0.443-0.235l0.005-0.005c-0.016,0.005-0.027,0.011-0.037,0.021
		c-0.064,0.032-0.133,0.069-0.192,0.091l-0.011,0.005l-0.011,0.005c-0.059,0.005-0.107,0.016-0.149,0.016l0,0
		c-0.192,0-0.245-0.085-0.277-0.171c0-0.005-0.005-0.011-0.005-0.016V7.286V7.28c-0.064-0.219-0.027-0.299,0.08-0.379
		c0.005-0.005,0.011-0.011,0.016-0.016l0.016-0.011l0.021-0.005c0.069-0.016,0.736-0.277,0.997-0.395
		c0.352-0.176,0.762-0.213,0.81-0.219l0.005,0.005h0.005c0.08,0,0.139,0,0.176,0.005c0.171-0.224,0.347-0.459,0.368-0.501
		c0.005-0.011,0.005-0.016,0.011-0.021c-0.016,0.005-0.043,0.032-0.075,0.048l-0.027,0.027h-0.011c-0.053,0-0.325,0.112-0.565,0.219
		c-0.059,0.027-1.562,0.746-1.775,0.848h-0.005l-0.005,0.005C10.588,6.944,10.578,7.136,10.578,7.136L10.578,7.136z"/>
	<rect x="4.191" y="11.577" fill="#191919" width="7.555" height="1.077"/>
	<path fill="#FFFFFF" d="M5.902,5.18c0.032-0.24,0.293-0.384,0.4-0.475s1.754-0.736,1.941-0.8c0.192-0.064,0.315-0.155,0.181-0.443
		C8.291,3.175,7.96,3.362,7.96,3.362L6.275,4.017c0,0-0.293,0.059-0.459,0.075C5.652,4.108,5.502,3.879,5.502,3.879
		S5.161,3.047,5.081,2.86c-0.091-0.315-0.4-0.283-0.474-0.235C4.303,2.802,4.404,3.079,4.404,3.079s0.203,0.73,0.293,1.093
		S4.479,4.716,4.479,4.716S2.778,5.414,2.245,5.611C1.701,5.793,1.952,6.294,1.952,6.294c0.128,0.117,0.203,0.128,0.4,0.123
		C2.549,6.406,2.97,6.161,3.764,5.819C4.58,5.462,4.75,5.414,5.028,5.441C5.31,5.473,5.326,5.739,5.321,5.851
		C5.246,6.107,4.99,5.995,4.916,5.985S4.767,5.979,4.543,5.99c-0.592,0-1.104,0.528-1.221,0.661
		C2.916,7.078,2.895,7.659,2.879,7.776C2.89,8.555,3.311,8.762,3.567,8.938c0.565,0.219,1.242,0.08,1.45-0.117
		C5.246,8.666,5.326,8.634,5.39,8.693c0.096,0.08-0.048,0.283-0.048,0.283s-0.4,0.624-0.528,0.901
		c-0.091,0.299,0.043,0.341,0.336,0.437c0.315-0.016,0.411-0.288,0.453-0.363c0.304-0.453,0.523-1.429,0.549-1.53
		C6.179,8.315,6.19,8.016,6.195,7.829c0.037-0.304-0.107-1.29-0.107-1.29S5.913,5.361,5.902,5.18z M4.473,8.512
		C4.367,8.533,3.204,8.72,3.402,7.552c0,0,0.096-0.869,1.221-1.04c0.117,0,0.8-0.048,0.842,0.741
		C5.465,7.526,5.289,8.299,4.473,8.512z M8.653,9.77c0.091-0.421-0.427-0.363-0.517-0.363C7.427,9.349,7.347,9.237,7.224,9.141
		C7.059,9.008,7.134,8.965,7.166,8.917C7.294,8.816,7.619,8.864,7.832,8.88c1.008,0,1.125-0.219,1.216-0.283
		c0.331-0.208,0.171-0.581,0.155-0.618C9.165,7.808,8.866,7.371,8.813,7.275C8.728,7.083,8.893,6.982,8.936,6.96
		c0.037-0.016,0.181-0.107,0.341-0.235c0.229-0.144,0.064-0.309,0.016-0.352c-0.112-0.08-0.299,0.08-0.469,0.171
		C8.573,6.63,8.685,6.395,8.712,6.347c0.107-0.123,0.117-0.203,0.112-0.251C8.845,5.851,8.637,5.75,8.552,5.713
		c-0.085-0.037-0.389,0.064-0.437,0.08C7.976,5.857,7.912,5.841,7.864,5.825C7.816,5.771,7.502,5.484,7.427,5.457
		c-0.08-0.016-0.16,0.048-0.219,0.112c-0.059,0.064-0.011,0.315,0.037,0.4c0.048,0.08-0.032,0.139-0.032,0.139
		s-0.315,0.107-0.49,0.197C6.414,6.417,6.638,6.667,6.638,6.667C6.707,6.784,6.872,6.726,6.91,6.726
		c0.037,0,0.277-0.117,0.458-0.208c0.235-0.155,0.32-0.027,0.32-0.027S7.8,6.64,7.885,6.795C7.987,6.96,7.8,7.062,7.736,7.11
		C7.565,7.227,7.224,7.366,6.899,7.494C6.43,7.611,6.494,7.808,6.505,7.899c0.043,0.331,0.464,0.203,0.554,0.16
		C7.107,8,7.752,7.691,7.976,7.584c0.352-0.139,0.416-0.053,0.501,0.005C8.562,7.648,8.68,7.845,8.786,8.08
		C8.914,8.288,8.621,8.4,8.573,8.4c-0.048,0-1.29,0.064-1.503,0.08C6.691,8.517,6.707,8.906,6.718,9.056
		c0.011,0.149,0.267,0.4,0.389,0.49s0.389,0.229,0.832,0.395C8.493,10.138,8.589,9.957,8.653,9.77z M8.355,6.459L8.157,6.171
		c0,0,0.288-0.181,0.363-0.069C8.557,6.134,8.616,6.278,8.355,6.459z M14.091,9.578l-0.123-0.192l-0.309-0.411
		c0,0-0.405-0.506-0.469-0.586c-0.112-0.219-0.011-0.363-0.011-0.363s0,0,0.021-0.021c0.021-0.021,0.309-0.336,0.309-0.336
		s0,0,0.304-0.341c0.304-0.341,0.048-0.453-0.011-0.469c-0.299-0.085-0.416,0.181-0.416,0.181s-0.437,0.49-0.506,0.565
		c-0.069,0.075-0.123,0.037-0.128,0.016c-0.027-0.112-0.416-0.458-0.48-0.506c-0.107-0.107-0.016-0.219,0.107-0.272
		c0.123-0.053,0.128-0.027,0.139-0.016c0.011,0.011,0.107,0.037,0.192,0.027c0.085-0.011,0.171-0.064,0.213-0.123
		c0.096-0.144,0.629-0.565,0.864-0.741c0.235-0.176,0.261-0.448,0.24-0.629c-0.037-0.32-0.389-0.245-0.453-0.245
		c-0.411-0.005-1.157,0.261-1.392,0.331c-0.325,0.075-0.437-0.144-0.528-0.325S11.5,4.913,11.479,4.892
		c-0.069-0.037-0.336-0.037-0.336-0.037s0,0-0.128,0.027C10.887,4.908,10.903,5.1,10.903,5.1s0.171,0.512,0.219,0.677
		c0.059,0.181-0.005,0.203-0.048,0.256c-0.235,0.176-0.682,0.315-0.746,0.347c-0.064,0.032-0.144,0.032-0.203-0.011
		C9.879,6.171,9.682,6.39,9.661,6.427c-0.064,0.123,0.443,1.296,0.512,1.466c0.069,0.176,0.203,0.283,0.203,0.283
		c-0.171,0.181-0.064,0.347-0.005,0.395c0.187,0.064,0.32-0.069,0.32-0.069l0.72-0.64c0,0,0.458-0.373,0.538-0.395
		c0.213-0.005,0.053,0.187,0.053,0.187s-1.242,1.242-1.482,1.461c-0.24,0.219-0.112,0.277-0.053,0.346
		c0.203,0.197,0.346,0.037,0.346,0.037l0.229-0.245c0,0,0.203-0.32,0.309-0.261c0.107,0.053,0.107,0.24,0.085,0.32
		c-0.021,0.08-0.133,0.171-0.133,0.171s-1.397,1.402-1.482,1.471c-0.085,0.069-0.016,0.128,0.032,0.187
		c0.096,0.149,0.213,0.016,0.213,0.016s1.28-1.274,1.386-1.381C11.607,9.589,11.74,9.69,11.74,9.69s0.027,0.021,0.203,0.213
		c0.235,0.272,0.453,0.187,0.57,0.112c0.208-0.101,0.352-0.693,0.352-0.693l0.064-0.331c0,0,0.112,0.213,0.245,0.437
		c0.133,0.224,0.331,0.56,0.421,0.618c0.283,0.181,0.416-0.032,0.485-0.096C14.214,9.754,14.091,9.578,14.091,9.578z M11.911,6.544
		c-0.251,0.117-0.933,0.384-1.018,0.405c-0.08,0.059-0.133,0.08-0.069,0.293c0.027,0.064,0.021,0.16,0.336,0.117
		c0.112-0.043,0.299-0.149,0.336-0.149c0.037,0,0.192,0.043-0.027,0.208c-0.149,0.085-0.453,0.24-0.453,0.24
		s-0.171,0.075-0.283-0.037c-0.112-0.112-0.251-0.448-0.24-0.501c0,0,0.011-0.24,0.261-0.336c0.219-0.107,1.775-0.858,1.775-0.858
		s0.554-0.24,0.592-0.24c0.037-0.016,0.155-0.08,0.197-0.032c0.016,0.027,0.037,0.059,0,0.139c-0.037,0.08-0.411,0.56-0.411,0.56
		s-0.021-0.016-0.213-0.016C12.54,6.342,12.193,6.401,11.911,6.544z M11.756,8.848c0,0-0.107,0.08-0.224-0.032
		c0,0-0.059-0.101,0.048-0.219c0.08-0.08,0.64-0.624,0.64-0.624s0.128-0.107,0.192,0c0.021,0.037,0.059,0.101-0.096,0.293
		C12.204,8.395,11.756,8.848,11.756,8.848z M12.353,9.317c-0.048,0.085-0.101,0.24-0.277,0.117c-0.08-0.059-0.155-0.149-0.085-0.224
		c0.069-0.08,0.405-0.405,0.469-0.427C12.454,8.778,12.438,9.178,12.353,9.317z M6.062,12.287c0,0.123-0.075,0.256-0.352,0.272
		c-0.443,0-0.405-0.299-0.405-0.299l0.251-0.005c0,0.096,0.08,0.133,0.144,0.133s0.107-0.059,0.107-0.091
		c0-0.091-0.187-0.107-0.187-0.107c-0.283-0.005-0.293-0.251-0.293-0.251s-0.005-0.261,0.368-0.261c0.347,0,0.336,0.261,0.336,0.261
		s-0.155-0.005-0.24,0c-0.011-0.085-0.064-0.101-0.117-0.101c-0.053,0-0.101,0.032-0.096,0.069c0.011,0.059,0.043,0.064,0.208,0.091
		C5.977,12.025,6.062,12.159,6.062,12.287z M6.83,11.705h0.256L7.08,12.169c0,0,0.043,0.389-0.405,0.389
		c-0.443,0-0.405-0.411-0.405-0.411v-0.443h0.267v0.474c0,0-0.011,0.181,0.155,0.181c0.16,0,0.144-0.197,0.144-0.197L6.83,11.705z
		 M7.901,12.009l0.32,0.544H7.896l-0.171-0.352l-0.144,0.149v0.203H7.32v-0.848h0.261v0.309l0.272-0.309h0.341L7.901,12.009z
		 M8.403,11.695h0.272v0.858H8.403V11.695z M9.757,11.695l-0.315,0.464v0.395H9.17v-0.368l-0.336-0.49h0.288l0.171,0.272
		l0.176-0.272H9.757z M10.247,11.695h-0.133h-0.075l-0.315,0.858h0.267l0.043-0.144h0.299l0.043,0.144h0.267l-0.32-0.858H10.247z
		 M10.087,12.228l0.096-0.315l0.096,0.315H10.087z"/>
	<rect x="0" y="1.501" fill="#CC0000" width="15.994" height="1"/>
</g>
</svg>
