<?xml version="1.0" encoding="utf-8"?>
<!-- Generator: Adobe Illustrator 21.1.0, SVG Export Plug-In . SVG Version: 6.00 Build 0)  -->
<svg version="1.1" id="レイヤー_1" xmlns="http://www.w3.org/2000/svg" xmlns:xlink="http://www.w3.org/1999/xlink" x="0px"
	 y="0px" viewBox="0 0 14 14" enable-background="new 0 0 14 14" xml:space="preserve">
<g>
	<circle fill="#FFFFFF" cx="7" cy="7" r="7"/>
	<path fill="#F52318" d="M7.728,9.072c1.666,0,4.13,0,5.959,0C13.888,8.419,14,7.723,14,7c0-3.864-3.136-7-7-7
		C6.267,0,5.563,0.112,4.9,0.322v6.155C4.9,6.477,4.783,9.072,7.728,9.072z"/>
	<path fill="#F8D509" d="M0,7c0,3.864,3.136,7,7,7c2.184,0,4.13-0.999,5.418-2.567c-1.661,0-3.593,0-5.418,0
		c-4.522,0-4.461-5.077-4.461-5.077V1.605C0.989,2.893,0,4.83,0,7z"/>
</g>
</svg>
