<?xml version="1.0" encoding="utf-8"?>
<!-- Generator: Adobe Illustrator 20.0.0, SVG Export Plug-In . SVG Version: 6.00 Build 0)  -->
<svg version="1.1" id="nakau" xmlns="http://www.w3.org/2000/svg" xmlns:xlink="http://www.w3.org/1999/xlink" x="0px" y="0px"
	 viewBox="0 0 15 15" enable-background="new 0 0 15 15" xml:space="preserve">
<g>
	<path fill="#B50007" d="M1.22,6.55c0,0-0.49-0.63,0-0.87c0.16-0.71,0.29-0.95,0.44-0.95s0.21-0.03,0.36,0.44
		c0.05,0.18,0.1,0.42,0.39,0.32c0.29-0.1,1.02-0.49,1.18-0.13c0.16,0.36,0.29,0.57,0,0.71c-0.29,0.15-1.1,0.49-1.1,0.49
		s-0.36,0.15-0.36,0.4S2.35,7.86,1.8,7.92C1.49,7.86,1.36,7.9,1.3,7.06C1.3,6.77,1.28,6.65,1.22,6.55z"/>
	<path fill="#B50007" d="M3.06,7.14L2.77,6.88c0,0-0.19-0.23,0-0.31S3.93,6.09,4.13,6.4c0.18,0.18,0.55,0.36,0.08,0.65
		C3.85,7.1,3.15,7.22,3.06,7.14z"/>
	<path fill="#B50007" d="M4.06,8.13c0,0,0.08-0.37-0.24-0.55C3.67,7.43,3.53,7.18,3.3,7.26C3.27,7.32,3.2,7.33,3.24,7.4
		c0.04,0.08,0.13,0.39-0.1,0.28c-0.21-0.07-0.42-0.13-0.6,0C2.35,7.82,2.68,7.87,2.68,7.87s0.57,0.16,0.55,0.26
		c-0.02,0.1-0.21,0.59-0.61,0C2.6,8.05,2.53,7.9,2.38,8.07S2.4,8.88,2.57,9.05c0.22,0.16,0.93,0.13,1.23-0.21
		c0.35-0.01,0.64,0.01,0.64,0.01S4.52,8.56,4.06,8.13z"/>
	<path fill="#B50007" d="M5.68,7.46c0,0-0.32,0.12-0.4-0.06C5.2,7.22,5.1,6.93,5.14,6.82c0.04-0.12,0.13-0.21,0.22-0.2
		s0.1-0.03,0.1-0.03s-0.13-0.8,0.16-0.79c0.1,0,0.3,0.04,0.53,0.69c0.08-0.01,0.58-0.06,0.72,0.08s0.93,0.86,0.31,1.75
		c-0.21,0.13-0.23,0.12-0.38,0.1C6.66,8.4,6.41,8.36,6.39,8.29C6.38,8.22,6.4,8.19,6.38,8.16S6.21,7.98,6.33,7.97
		c0.12-0.01,0.35-0.02,0.38-0.3c0.02-0.13,0.04-0.35-0.14-0.36C6.4,7.37,6.35,7.48,6.27,7.69S6.07,8.35,5.99,8.36
		S5.94,8.28,5.86,8.22C5.78,8.17,5.65,8.11,5.63,8.08c-0.02-0.04,0-0.13,0.02-0.2C5.68,7.81,5.68,7.46,5.68,7.46z"/>
	<path fill="#B50007" d="M7.49,6.4c0,0-0.24-0.45,0-0.42S8.15,6.12,8.33,6.4C8.51,6.67,8.8,7.07,8.81,7.17
		c0.01,0.1,0.05,0.21,0,0.35C8.76,7.65,8.69,7.87,8.35,7.71C8.01,7.55,7.42,6.93,7.49,6.93S7.62,6.9,7.67,6.94
		c0.05,0.04,0.15,0.04,0.15,0.04S7.93,6.97,7.77,6.8C7.62,6.63,7.49,6.4,7.49,6.4z"/>
	<path fill="#B50007" d="M11.11,5.16c0,0-0.18-0.36-0.63-0.4c-0.27,0.13-0.21,0.23-0.21,0.29s-0.07,0.23-0.15,0.31
		C10.03,5.43,9.9,5.61,9.76,5.67C9.8,5.79,9.87,5.8,9.91,5.79c0.04-0.01,0.1-0.01,0.11,0.06c0.02,0.07-0.01,0.11-0.11,0.17
		c-0.1,0.06-0.27,0.53-0.3,0.65S9.3,7.45,9.76,7.96c0.23,0.15,0.37,0.28,0.77,0.08c0.15-0.08,0.25-0.15,0.2,0.06
		c-0.05,0.21-0.17,0.41-0.17,0.41l0.01,0.06c0,0,0.77-0.02,0.83-0.49c0.18-0.38,0.44-1.06,0.05-1.42c-0.2-0.15-0.25-0.14-0.28-0.21
		c-0.11-0.02-0.41,0.04-0.46,0.11c0,0.12,0.07,0.06,0.08,0.14s0.11,0.1-0.05,0.17c-0.15,0.07-0.16,0.24-0.27,0.17
		c-0.11-0.06-0.14-0.11-0.08-0.17c0.06-0.07,0.3-0.47,0.23-0.54c-0.06-0.06-0.23-0.11-0.19-0.17c0.05-0.06,0.23-0.25,0.34-0.29
		S11.2,5.93,11.11,5.16z"/>
	<path fill="#B50007" d="M12.59,5.98c0,0-0.24,0.17-0.54-0.13C11.84,5.6,11.7,5.4,12.01,5.24c0.31-0.16,0.9-0.45,1.16-0.36
		c0.26,0.1,0.94,0.34,0.82,1.71c-0.04,0.25-0.19,1.23-0.67,1.29c-0.48,0.06-0.5,0.1-0.49,0.23c0.02,0.14,0.23,0.78,0.17,0.95
		c-0.06,0.17-0.1,0.15-0.13,0.23s-0.02,0.79-0.02,0.86s-0.09-0.07-0.09-0.07s0.03-0.65-0.05-0.67s-0.11-0.03-0.11,0.06
		c0,0.09-0.07,0.07-0.1-0.04c-0.07-0.06-0.15-0.02-0.19,0.13S12.13,9.7,12.13,9.7s0.01-1.29-0.24-2.3
		c-0.09-0.34-0.12-0.51-0.05-0.52C11.9,6.86,11.92,7,11.98,6.98s0.07-0.17,0.08-0.23s-0.02-0.23,0.02-0.24
		c0.05-0.01,0.06,0.08,0.15,0.01c0.09-0.07,0.19-0.2,0.23,0.06c0.08,0.21,0.08,0.38,0.43,0.34c0.19-0.05,0.27,0.13,0.34-0.53
		c0.04-0.46,0.04-0.69-0.25-0.6C12.7,5.88,12.59,5.98,12.59,5.98z"/>
</g>
</svg>
