<?xml version="1.0" encoding="utf-8"?>
<!-- Generator: Adobe Illustrator 21.1.0, SVG Export Plug-In . SVG Version: 6.00 Build 0)  -->
<svg version="1.1" id="レイヤー_1" xmlns="http://www.w3.org/2000/svg" xmlns:xlink="http://www.w3.org/1999/xlink" x="0px"
	 y="0px" viewBox="0 0 14 14" enable-background="new 0 0 14 14" xml:space="preserve">
<g id="nakauのコピー">
	<rect fill="#CC0000" width="14" height="14" rx="2" ry="2"/>
	<g>
		<path fill="#FFFFFF" d="M0.91,6.123c0,0-0.471-0.611,0-0.845c0.159-0.691,0.28-0.924,0.425-0.924S1.54,4.321,1.68,4.779
			c0.047,0.173,0.093,0.406,0.378,0.313S3.047,4.62,3.201,4.965c0.159,0.345,0.28,0.551,0,0.691S2.137,6.127,2.137,6.127
			s-0.345,0.14-0.345,0.392c0,0.252,0.219,0.877-0.313,0.943C1.181,7.401,1.055,7.448,0.994,6.631
			C0.989,6.342,0.975,6.225,0.91,6.123z"/>
		<path fill="#FFFFFF" d="M2.697,6.706l-0.28-0.252c0,0-0.187-0.219,0-0.299c0.187-0.079,1.129-0.471,1.316-0.173
			c0.173,0.173,0.532,0.345,0.079,0.625C3.463,6.659,2.781,6.781,2.697,6.706z"/>
		<path fill="#FFFFFF" d="M3.668,7.663c0,0,0.079-0.359-0.233-0.532c-0.14-0.14-0.28-0.392-0.499-0.313
			C2.903,6.879,2.833,6.883,2.875,6.963c0.042,0.075,0.131,0.373-0.098,0.271c-0.205-0.065-0.406-0.126-0.583,0
			s0.14,0.182,0.14,0.182s0.551,0.154,0.527,0.252c-0.023,0.098-0.201,0.574-0.588,0C2.254,7.593,2.184,7.448,2.035,7.611
			C1.885,7.775,2.053,8.395,2.221,8.563c0.219,0.159,0.901,0.121,1.185-0.201c0.336-0.005,0.625,0.005,0.625,0.005
			S4.107,8.078,3.668,7.663z"/>
		<path fill="#FFFFFF" d="M5.241,7.009c0,0-0.313,0.112-0.387-0.061c-0.075-0.173-0.182-0.453-0.14-0.565
			c0.042-0.112,0.121-0.201,0.21-0.196C5.012,6.193,5.021,6.16,5.021,6.16S4.891,5.385,5.175,5.39c0.098,0,0.289,0.037,0.518,0.663
			c0.084-0.009,0.56-0.061,0.7,0.075c0.14,0.135,0.905,0.831,0.299,1.699C6.487,7.957,6.468,7.938,6.328,7.924
			c-0.14-0.009-0.387-0.051-0.401-0.117C5.917,7.742,5.931,7.714,5.917,7.677C5.899,7.639,5.754,7.504,5.866,7.499
			S6.207,7.481,6.235,7.21c0.019-0.131,0.037-0.336-0.135-0.355C5.936,6.907,5.885,7.014,5.815,7.219
			c-0.07,0.205-0.201,0.639-0.271,0.653c-0.07,0.009-0.051-0.084-0.131-0.135C5.339,7.686,5.213,7.63,5.189,7.597
			c-0.023-0.033,0-0.131,0.023-0.196C5.236,7.35,5.241,7.009,5.241,7.009z"/>
		<path fill="#FFFFFF" d="M6.991,5.983c0,0-0.233-0.439,0-0.406c0.233,0.033,0.644,0.14,0.817,0.406S8.26,6.631,8.269,6.729
			c0.009,0.093,0.047,0.205,0,0.336C8.223,7.201,8.153,7.411,7.821,7.252C7.49,7.093,6.921,6.501,6.991,6.501
			c0.07,0,0.126-0.033,0.173,0.009c0.047,0.037,0.14,0.037,0.14,0.037s0.107-0.014-0.037-0.182C7.117,6.202,6.991,5.983,6.991,5.983
			z"/>
		<path fill="#FFFFFF" d="M10.495,4.783c0,0-0.173-0.345-0.611-0.392C9.627,4.517,9.679,4.62,9.679,4.671
			c0,0.056-0.07,0.229-0.149,0.299C9.45,5.04,9.324,5.213,9.193,5.278c0.033,0.117,0.103,0.121,0.14,0.117
			C9.371,5.39,9.427,5.381,9.441,5.451c0.014,0.07-0.009,0.103-0.103,0.163C9.245,5.675,9.081,6.132,9.049,6.239
			S8.741,7,9.184,7.495C9.413,7.644,9.543,7.77,9.931,7.574c0.14-0.079,0.243-0.149,0.196,0.056
			C10.08,7.835,9.963,8.031,9.963,8.031l0.009,0.061c0,0,0.747-0.014,0.807-0.476c0.173-0.369,0.425-1.027,0.047-1.372
			c-0.196-0.149-0.243-0.135-0.275-0.205c-0.103-0.023-0.401,0.037-0.448,0.107c0,0.117,0.07,0.061,0.079,0.135
			c0.009,0.07,0.103,0.093-0.047,0.159S9.977,6.673,9.87,6.608S9.735,6.505,9.791,6.44c0.056-0.065,0.289-0.457,0.229-0.523
			C9.959,5.857,9.791,5.81,9.837,5.754c0.047-0.056,0.229-0.243,0.331-0.28C10.271,5.437,10.584,5.53,10.495,4.783z"/>
		<path fill="#FFFFFF" d="M11.937,5.572c0,0-0.233,0.168-0.527-0.121c-0.205-0.243-0.336-0.439-0.037-0.588
			c0.299-0.159,0.868-0.439,1.12-0.345s0.91,0.331,0.793,1.661c-0.037,0.243-0.187,1.19-0.649,1.246
			c-0.462,0.056-0.485,0.093-0.471,0.229c0.014,0.135,0.219,0.761,0.163,0.924c-0.056,0.163-0.093,0.149-0.126,0.219
			c-0.033,0.07-0.019,0.761-0.023,0.831c-0.005,0.07-0.093-0.07-0.093-0.07s0.028-0.625-0.051-0.649
			c-0.079-0.023-0.103-0.033-0.103,0.056c0,0.084-0.07,0.07-0.093-0.037c-0.07-0.056-0.14-0.014-0.182,0.126
			c-0.037,0.14-0.182,0.135-0.182,0.135s0.009-1.255-0.233-2.235c-0.084-0.331-0.112-0.495-0.047-0.504
			c0.065-0.009,0.079,0.121,0.145,0.107c0.061-0.014,0.07-0.163,0.079-0.219c0.009-0.056-0.023-0.229,0.023-0.233
			c0.047-0.009,0.056,0.079,0.14,0.009c0.084-0.07,0.182-0.196,0.229,0.056c0.079,0.205,0.079,0.369,0.42,0.331
			c0.182-0.047,0.261,0.126,0.331-0.509C12.6,5.544,12.6,5.32,12.32,5.409C12.04,5.483,11.937,5.572,11.937,5.572z"/>
	</g>
</g>
</svg>
