<?xml version="1.0" encoding="utf-8"?>
<!-- Generator: Adobe Illustrator 20.1.0, SVG Export Plug-In . SVG Version: 6.00 Build 0)  -->
<svg version="1.1" id="レイヤー_1" xmlns="http://www.w3.org/2000/svg" xmlns:xlink="http://www.w3.org/1999/xlink" x="0px"
	 y="0px" viewBox="0 0 15 15" enable-background="new 0 0 15 15" xml:space="preserve">
<g id="thirtyone_1_">
	<polygon fill="#31418C" points="1.9,11.9 0,2.8 2.5,2.4 2.9,11.9 	"/>
	<path fill="#FF3399" d="M3.1,4.1L2.9,2c0,0,4.4-0.4,4.6,2.9C7.5,5.2,7.4,6.3,6,7c1,0.5,1.8,0.7,1.9,2c0,0.5,0,2.9-4.5,3
		c0-0.7,0-0.8,0-0.8s2,0.3,2.3-1.5c0-0.5,0.2-1.5-2-1.7c0-0.5,0-1.1,0-1.1s1.9-0.3,1.8-1.7C5.4,4.7,5.1,4.1,3.1,4.1z"/>
	<polygon fill="#FF3399" points="8.6,12 8.7,1.9 11,2.1 10,12 	"/>
	<path fill="#31418C" d="M11.1,4.5l0.2-2.2c0,0,3.8-0.1,3.7,3.2c-0.1,0.9-0.4,2-2.6,3c0.2,0.6,1.2,3.1,1.2,3.1l-1.1,0.2l-1.9-2.9
		l0.2-1.1c0,0,2-0.5,1.9-1.8C12.7,5.6,12.4,4.8,11.1,4.5z"/>
</g>
</svg>
