<?xml version="1.0" encoding="utf-8"?>
<!-- Generator: Adobe Illustrator 21.1.0, SVG Export Plug-In . SVG Version: 6.00 Build 0)  -->
<svg version="1.1" id="レイヤー_1" xmlns="http://www.w3.org/2000/svg" xmlns:xlink="http://www.w3.org/1999/xlink" x="0px"
	 y="0px" viewBox="0 0 16 16" enable-background="new 0 0 16 16" xml:space="preserve">
<g id="レイヤー_7のコピー_2">
	<g id="kfcのコピー_2">
		<g id="レイヤー_4のコピー_2">
			<polygon fill="#CC0000" points="15.661,0.825 14.382,10.405 14.335,10.751 14.027,13.064 14.012,13.133 13.896,14.012 13.634,16 
				2.297,16 2.243,15.53 1.973,13.464 1.973,13.464 1.919,13.071 0.339,0.825 			"/>
		</g>
	</g>
	<g>
		<path fill="#251C08" d="M1.973,13.464l0.131-0.062c0.023-0.008,0.039-0.015,0.077-0.031c0.247-0.123,0.493-0.254,0.74-0.378
			c0.116-0.062,0.239-0.092,0.362-0.085l0,0l0,0l0,0h0.008l0,0c0.008,0,0.008,0,0.015,0c0.039,0.008,0.069,0.015,0.108,0.023h0.008
			c0.069,0.015,0.139,0.039,0.208,0.054c0.062,0.015,0.1,0.054,0.108,0.116c0.008,0.046,0.008,0.092-0.008,0.131
			c-0.092,0.316-0.177,0.624-0.262,0.94c-0.054,0.2-0.116,0.401-0.154,0.601v0.008c0,0.008-0.339,0.917-0.439,1.202l0,0h1.079
			c0.023-0.277,0.062-0.717,0.062-0.732c0.039-0.285,0.077-0.578,0.131-0.863c0.108-0.524,0.216-1.048,0.331-1.572
			c0.039-0.162,0.077-0.324,0.131-0.478c0.023-0.062,0.054-0.116,0.123-0.146c0.015-0.008,0.039-0.023,0.054-0.008
			c0.015,0.015,0.008,0.031,0,0.054c-0.108,0.686-0.185,1.372-0.216,2.058c-0.015,0.308-0.015,0.617,0,0.933
			c0,0.085,0.008,0.162,0.023,0.247c0.039,0.139,0.116,0.185,0.247,0.131c0.324-0.123,0.647-0.239,0.971-0.355
			c0.462-0.162,0.925-0.316,1.395-0.439c0.917-0.231,1.842-0.416,2.775-0.57c0.177-0.031,0.362-0.054,0.539-0.085l0,0
			c0.008,0,0.023,0,0.031-0.008c0.131-0.023,0.27-0.046,0.401-0.054l0,0c0.008,0,0.008,0,0.015,0
			c0.177-0.015,0.355-0.039,0.532-0.069l0,0c0.008,0,0.015,0,0.023,0c0.146-0.023,0.285-0.039,0.432-0.054l0,0
			c0.008,0,0.008,0,0.015,0c0.17-0.015,0.339-0.039,0.509-0.062l0,0c0.008,0,0.015,0,0.023-0.008
			c0.139-0.023,0.27-0.031,0.408-0.054l0,0l0,0l0,0l0,0l0,0c0.008,0,0.015,0,0.023-0.008c0.1,0,0.2-0.023,0.301-0.031
			c0.039,0,0.085-0.008,0.123-0.015c0.031-0.008,0.054-0.023,0.054-0.062c0-0.039-0.031-0.046-0.062-0.054
			c-0.023-0.008-0.039-0.008-0.062-0.015c-0.1-0.015-0.2-0.023-0.308-0.023c-0.069,0-0.1-0.023-0.116-0.092
			c-0.008-0.039-0.015-0.077-0.023-0.116c-0.154-0.863-0.362-1.711-0.624-2.551c-0.046-0.139-0.077-0.277-0.123-0.408
			c-0.023-0.069,0-0.1,0.054-0.1c0.154,0,0.301,0.1,0.355,0.247c0.17,0.424,0.331,0.848,0.501,1.264
			c0.27,0.694,0.539,1.387,0.825,2.081c0.008,0.015,0.015,0.031,0.015,0.046l0.116-0.879l0.008-0.069
			c-0.116-0.254-0.224-0.501-0.339-0.755c-0.17-0.378-0.339-0.755-0.516-1.125c-0.062-0.139-0.131-0.27-0.185-0.416
			c-0.023-0.069,0-0.1,0.069-0.108l0,0l0,0c0.015,0,0.031,0,0.039,0l0,0l0,0c0.023,0,0.039,0.008,0.062,0.008
			c0.085,0.008,0.17,0.008,0.247,0.015c0.015,0,0.031,0,0.039,0h0.008c0.146,0.008,0.301,0.023,0.447,0.031
			c0.031,0,0.054,0.008,0.085,0.008c0.031,0,0.054,0.008,0.085,0.008c0.008,0,0.015,0,0.023,0c0.054,0.008,0.116,0.008,0.17,0.015
			c0.015,0,0.031,0,0.046,0l0.046-0.347c-0.139-0.015-0.277-0.023-0.416-0.039c-0.347-0.031-0.701-0.069-1.048-0.1
			c-0.062-0.008-0.116-0.023-0.154-0.069c-0.039-0.039-0.085-0.062-0.131-0.085c-0.077-0.039-0.162-0.069-0.247-0.092
			c-0.239-0.085-0.486-0.154-0.732-0.224c-0.108-0.031-0.185-0.085-0.254-0.17c-0.1-0.131-0.216-0.239-0.339-0.347
			c-0.046-0.039-0.069-0.092-0.054-0.146c0.046-0.27,0.069-0.547,0.069-0.825c0-0.116,0.031-0.208,0.146-0.27
			c0.108-0.054,0.162-0.154,0.146-0.277c-0.008-0.062-0.008-0.123-0.015-0.185c-0.015-0.177,0.008-0.355,0.077-0.524
			c0.108-0.285,0.208-0.578,0.27-0.886c0.054-0.262,0.1-0.524,0.069-0.794c-0.031-0.231-0.1-0.432-0.277-0.586
			c-0.046-0.039-0.062-0.092-0.069-0.154c0-0.054,0.015-0.1,0.023-0.154c0.085-0.293,0.139-0.586,0.1-0.894
			c-0.015-0.123-0.031-0.247-0.154-0.316c-0.023-0.015-0.046-0.046-0.062-0.069c-0.023-0.046-0.039-0.092-0.046-0.139
			c-0.1-0.455-0.27-0.871-0.516-1.264c-0.185-0.293-0.401-0.555-0.663-0.778c-0.085-0.069-0.17-0.139-0.254-0.2
			c-0.308-0.216-0.64-0.385-0.994-0.516C8.617,0.239,8.47,0.2,8.324,0.154c-0.008,0-0.015,0-0.023-0.008l0,0
			C8.077,0.085,7.846,0.039,7.622,0.015c-0.085-0.008-0.17,0-0.247-0.015H7.36C7.337,0.015,7.314,0,7.291,0.008
			C7.268,0.008,7.252,0.015,7.229,0H6.829C6.736,0.015,6.636,0.008,6.536,0.023C6.25,0.069,5.973,0.146,5.703,0.247
			c-0.285,0.108-0.563,0.231-0.832,0.37C4.748,0.678,4.632,0.748,4.516,0.809C4.439,0.855,4.37,0.894,4.293,0.933
			c-0.2,0.108-0.416,0.185-0.624,0.254C3.584,1.218,3.499,1.241,3.43,1.295S3.337,1.41,3.36,1.495
			c0.008,0.039,0.023,0.069,0.039,0.108c0.054,0.116,0.039,0.224,0,0.339C3.322,2.158,3.191,2.335,3.044,2.505l0,0
			C3.021,2.536,2.998,2.559,2.975,2.582C2.913,2.644,2.852,2.705,2.79,2.759l0,0C2.721,2.821,2.644,2.882,2.559,2.936
			c-0.1,0.069-0.162,0.154-0.17,0.277c0,0.008,0,0.015,0,0.023c0,0.062,0.023,0.116,0.046,0.17C2.489,3.53,2.574,3.63,2.651,3.738
			c0.085,0.116,0.146,0.239,0.17,0.385c0.031,0.162,0.039,0.316,0.015,0.478C2.805,4.809,2.782,5.025,2.697,5.218
			c-0.039,0.085-0.039,0.17,0,0.254C2.721,5.534,2.759,5.58,2.805,5.626c0.085,0.085,0.17,0.177,0.27,0.254
			C3.114,5.911,3.152,5.95,3.129,6.012C3.06,6.173,3.067,6.335,3.098,6.505c0.031,0.154,0.1,0.293,0.162,0.439
			c0.146,0.347,0.362,0.655,0.624,0.925c0.108,0.116,0.139,0.247,0.139,0.385c0,0.077,0,0.162,0.023,0.239
			c0.054,0.216,0.2,0.355,0.401,0.439c0.116,0.046,0.185,0.131,0.224,0.247c0.108,0.301,0.254,0.578,0.447,0.832
			c0.039,0.046,0.077,0.092,0.108,0.146c0.023,0.039,0.031,0.077,0.015,0.123c-0.023,0.062-0.046,0.131-0.069,0.2
			c-0.069,0.239-0.139,0.486-0.193,0.732c-0.023,0.1-0.069,0.177-0.17,0.224c-0.1,0.046-0.2,0.108-0.301,0.162
			c-0.116,0.062-0.208,0.139-0.285,0.239C4.162,11.915,4.1,11.985,4,12.015c-0.509,0.193-1.002,0.424-1.48,0.671
			c-0.216,0.116-0.432,0.239-0.647,0.37c-0.008,0-0.015,0.008-0.015,0.015L1.973,13.464L1.973,13.464z"/>
		<path fill="#FDF0E1" d="M10.697,4.647c-0.039-0.239-0.108-0.455-0.277-0.64c-0.1-0.108-0.177-0.224-0.2-0.37
			c-0.008-0.054-0.008-0.108-0.015-0.162c-0.031-0.17-0.062-0.339-0.092-0.509c-0.008-0.023-0.015-0.054,0.015-0.069
			c0.008,0,0.015-0.008,0.023-0.008c0.008-0.062-0.031-0.108-0.062-0.146C9.865,2.397,9.557,2.15,9.171,2.012
			c-0.301-0.108-0.617-0.17-0.933-0.2C8.123,1.796,8,1.796,7.884,1.842c-0.17,0.077-0.308,0.193-0.447,0.316
			C7.422,2.173,7.414,2.189,7.407,2.204l0,0c0.015,0.039,0.008,0.069-0.023,0.1c-0.054,0.054-0.1,0.1-0.146,0.162
			C7.183,2.528,7.129,2.551,7.052,2.52c-0.146-0.054-0.293-0.085-0.455-0.1C6.358,2.397,6.119,2.428,5.888,2.497
			C5.865,2.551,5.85,2.613,5.811,2.667C5.734,2.775,5.68,2.89,5.634,3.013c-0.1,0.231-0.154,0.478-0.2,0.724
			C5.38,4.062,5.318,4.385,5.326,4.717c0,0.131,0.023,0.262,0,0.385c0,0.015,0,0.039,0.008,0.054
			c0.008,0.008,0.008,0.015,0.015,0.023c0.008,0,0.008,0,0.015,0c0.039-0.008,0.085-0.008,0.123-0.015
			c0.2-0.023,0.401-0.031,0.601-0.046C6.281,5.11,6.474,5.11,6.659,5.164C6.821,5.202,6.96,5.279,7.098,5.372
			C7.175,5.426,7.26,5.434,7.345,5.395C7.484,5.326,7.63,5.31,7.784,5.326c0.046,0.008,0.092,0,0.123-0.039
			c0.054-0.054,0.108-0.1,0.162-0.154C8.262,4.971,8.501,4.909,8.74,4.871c0.293-0.054,0.586-0.085,0.879-0.116
			c0.208-0.023,0.416-0.046,0.624-0.039c0.116,0.008,0.239,0.008,0.355,0.015C10.69,4.74,10.705,4.724,10.697,4.647z M11.399,5.487
			c-0.008-0.1-0.031-0.208-0.1-0.293c-0.023-0.031-0.054-0.054-0.1-0.054c-0.092,0-0.154,0.039-0.2,0.116
			c-0.039,0.077-0.008,0.139,0.046,0.193c0.023,0.031,0.046,0.054,0.062,0.092c0.039,0.116-0.031,0.193-0.1,0.262
			c-0.046,0.054-0.085,0.039-0.1-0.031c-0.023-0.116-0.039-0.224-0.062-0.339c-0.015-0.1-0.039-0.2-0.062-0.293
			c-0.023-0.092-0.069-0.108-0.154-0.062c-0.069,0.039-0.131,0.085-0.2,0.123c-0.077,0.046-0.108,0.116-0.116,0.193
			c-0.008,0.162-0.031,0.324-0.046,0.478c-0.023,0.185-0.077,0.362-0.2,0.516C9.996,6.474,9.919,6.551,9.811,6.597
			c-0.046,0-0.077,0.023-0.116,0.031C9.611,6.651,9.557,6.62,9.526,6.543V6.536V6.528C9.518,6.497,9.541,6.482,9.557,6.459
			c0.031-0.046,0.062-0.085,0.085-0.131c0.046-0.1,0.085-0.2,0.023-0.316C9.626,5.934,9.618,5.919,9.672,5.873l0,0
			C9.68,5.865,9.68,5.865,9.688,5.857C9.657,5.834,9.634,5.803,9.618,5.773c-0.046-0.069-0.116-0.092-0.2-0.069
			C9.341,5.726,9.264,5.75,9.187,5.78c-0.231,0.077-0.47,0.092-0.701,0.015C8.432,5.78,8.378,5.757,8.324,5.734
			C8.301,5.726,8.27,5.726,8.254,5.75S8.247,5.788,8.262,5.811c0.015,0.023,0.031,0.054,0.054,0.077
			C8.347,5.919,8.347,5.95,8.324,5.981C8.2,6.15,8.139,6.135,8.031,6.012C7.961,5.934,7.923,5.842,7.884,5.75
			C7.861,5.672,7.807,5.634,7.73,5.611c-0.077-0.023-0.146,0-0.208,0.031C7.507,5.657,7.507,5.68,7.507,5.703
			c-0.008,0.216,0,0.424,0.015,0.632C7.53,6.466,7.538,6.59,7.507,6.713C7.476,6.844,7.46,6.975,7.491,7.114
			c0.031,0.131,0.085,0.254,0.162,0.362c0.146,0.077,0.301,0.1,0.462,0.077c0.2-0.031,0.362-0.146,0.509-0.27
			C8.709,7.214,8.732,7.16,8.678,7.021C8.663,6.975,8.64,6.936,8.64,6.89c-0.015-0.062,0.008-0.1,0.054-0.139
			c0.092-0.069,0.2-0.077,0.308-0.062c0.146,0.015,0.277,0.085,0.393,0.177C9.541,6.99,9.68,7.129,9.834,7.245
			c0.085,0.069,0.177,0.123,0.254,0.2c0.146,0.146,0.162,0.339,0.039,0.501c-0.015,0.015-0.023,0.039-0.031,0.062
			c0.008,0.108,0.015,0.216,0.008,0.324c-0.008,0.139-0.054,0.262-0.146,0.37C9.927,8.74,9.904,8.786,9.888,8.84
			C9.857,8.956,9.865,9.079,9.85,9.195C9.842,9.279,9.819,9.356,9.765,9.418C9.719,9.464,9.688,9.464,9.657,9.403
			C9.649,9.38,9.642,9.364,9.634,9.341c-0.031-0.1-0.039-0.2-0.062-0.308C9.565,8.987,9.565,8.94,9.526,8.902
			C9.441,8.817,9.295,8.786,9.187,8.832c-0.131,0.054-0.254,0.123-0.393,0.17c-0.239,0.077-0.493,0.092-0.74,0.1
			c-0.17,0-0.316,0.054-0.447,0.17C7.561,9.318,7.561,9.349,7.622,9.38C7.669,9.403,7.715,9.41,7.769,9.418
			C7.861,9.426,7.915,9.48,7.931,9.565c0,0.008,0.008,0.008,0.008,0.015l0,0l0,0l0,0c0.131-0.023,0.27-0.015,0.393-0.062
			c0.008,0,0.015-0.008,0.023-0.008s0.008,0,0.015,0c0.015,0,0.023,0.015,0.039,0.031l0.008,0.008
			C8.424,9.557,8.424,9.565,8.424,9.58c0.008,0.023,0.008,0.046,0.015,0.077c0,0,0,0,0,0.008l0,0c0,0.008,0,0.015,0,0.015
			C8.447,9.726,8.47,9.757,8.516,9.765c0.008,0,0.008,0,0.015,0l0,0c0.039,0,0.062-0.031,0.085-0.062
			c0.031-0.046,0.046-0.108,0.046-0.162c0-0.031,0.015-0.062,0.039-0.092c0.008-0.008,0.015-0.015,0.031-0.008
			C8.74,9.449,8.74,9.457,8.74,9.464c-0.008,0.062-0.008,0.116,0,0.177l0,0v0.008c0,0,0,0.008,0,0.015c0,0,0,0,0,0.008
			c0.008,0.146,0.031,0.285,0.116,0.408c0.092,0.146,0.177,0.308,0.224,0.478c0,0.008,0.008,0.015,0.008,0.023l0,0l0,0
			c0,0.008,0,0.015,0.008,0.023c0,0.008,0.008,0.015,0.008,0.023l0,0l0,0l0,0c0.008,0.008,0.015,0.023,0.023,0.023
			c0.015,0.015,0.039,0.031,0.054,0.046c0.108,0.085,0.185,0.085,0.301,0.015c0.254-0.162,0.462-0.37,0.663-0.601
			c0.355-0.401,0.516-0.879,0.555-1.403c0.023-0.301,0.008-0.601-0.031-0.902c-0.008-0.077-0.008-0.146,0.039-0.216
			c0.039-0.062,0.069-0.123,0.085-0.2c0.008-0.031,0.008-0.085,0.046-0.085c0.031-0.008,0.031,0.046,0.046,0.069
			c0.015,0.023,0.031,0.046,0.062,0.039c0.031,0,0.046-0.023,0.062-0.046c0.008-0.015,0.008-0.031,0.008-0.046
			c0.031-0.254,0.116-0.493,0.2-0.732C11.36,6.25,11.445,5.881,11.399,5.487z M6.782,6.042C6.759,6.019,6.728,6.035,6.705,6.05
			C6.659,6.073,6.613,6.104,6.559,6.119C6.435,6.158,6.32,6.158,6.189,6.143C5.896,6.112,5.665,6.204,5.518,6.466
			C5.487,6.52,5.441,6.536,5.372,6.513c-0.054-0.015-0.1-0.046-0.146-0.077s-0.092-0.039-0.146,0
			C5.056,6.451,5.033,6.459,5.017,6.474C4.956,6.52,4.948,6.551,4.987,6.62c0.108,0.2,0.262,0.347,0.478,0.432
			C5.487,7.06,5.511,7.075,5.534,7.083C5.572,7.114,5.626,7.121,5.68,7.129c0.031,0.008,0.054,0.023,0.062,0.054
			c0.015,0.069,0.054,0.131,0.092,0.185c0.062,0.092,0.131,0.17,0.193,0.254c0.039,0.046,0.077,0.062,0.131,0.039
			c0.092-0.054,0.177-0.116,0.27-0.162c0.039-0.015,0.046-0.054,0.046-0.085c0.015-0.146,0.069-0.27,0.162-0.378
			c-0.031-0.031-0.054,0-0.085,0.008c-0.108,0.046-0.224,0.077-0.339,0.1C6.135,7.16,6.096,7.129,6.089,7.06
			c0-0.008,0-0.015,0-0.015V7.037C6.096,7.006,6.127,6.998,6.15,6.99c0.085-0.046,0.154-0.108,0.208-0.185
			C6.412,6.713,6.466,6.62,6.428,6.497c-0.031-0.1-0.023-0.123,0.077-0.162C6.566,6.312,6.62,6.281,6.667,6.243
			c0.008-0.008,0.008-0.008,0.015-0.015c0.015-0.039,0.046-0.069,0.069-0.108C6.782,6.089,6.805,6.066,6.782,6.042z"/>
		<path fill="#F1D2B6" d="M5.881,2.497c-0.177,0.046-0.324,0.131-0.439,0.27C5.31,2.921,5.218,3.098,5.141,3.283
			C4.963,3.692,4.917,4.116,4.909,4.555c0,0.108-0.023,0.2-0.123,0.27c-0.062,0.039-0.1,0.1-0.1,0.17
			c0,0.077,0.008,0.162,0.031,0.239c0.015,0.046,0.054,0.062,0.1,0.054c0.177-0.031,0.355-0.062,0.539-0.1c0.008,0,0.008,0,0.015,0
			C5.341,5.179,5.349,5.156,5.349,5.133C5.356,5.04,5.372,4.948,5.356,4.848c-0.023-0.162-0.015-0.316,0.008-0.47
			c0.031-0.27,0.069-0.539,0.123-0.802c0.069-0.324,0.17-0.632,0.355-0.909C5.865,2.613,5.888,2.559,5.881,2.497z M7.168,10.204
			c-0.023-0.046-0.054-0.092-0.077-0.146C7.029,9.911,6.967,9.757,6.906,9.611C6.89,9.58,6.89,9.534,6.844,9.534
			S6.79,9.572,6.775,9.611c-0.015,0.054-0.031,0.1-0.039,0.154C6.713,9.85,6.674,9.857,6.613,9.803
			C6.597,9.796,6.59,9.78,6.574,9.765c-0.085-0.092-0.139-0.2-0.193-0.308C6.235,9.141,6.143,8.809,6.073,8.47
			C6.058,8.393,6.004,8.347,5.934,8.362C5.827,8.385,5.726,8.439,5.68,8.547C5.649,8.624,5.626,8.701,5.618,8.786
			C5.611,8.933,5.665,9.064,5.726,9.187c0.162,0.355,0.37,0.678,0.686,0.917c0.177,0.131,0.37,0.224,0.609,0.239
			c0.015,0,0.039-0.008,0.062-0.008C7.168,10.335,7.198,10.281,7.168,10.204z M12.416,13.48c0-0.008,0-0.008,0-0.015
			c-0.039-0.239-0.077-0.486-0.116-0.724c-0.1-0.64-0.216-1.279-0.355-1.911c-0.031-0.139-0.046-0.285-0.116-0.408
			c-0.031-0.062-0.077-0.116-0.146-0.146c-0.046-0.015-0.069,0-0.069,0.039c-0.008,0.077-0.015,0.154-0.023,0.224
			c0,0.008,0,0.023,0,0.031c0-0.008,0.008-0.015,0.008-0.023l0,0c0-0.008,0.008-0.008,0.008-0.015
			c0.015,0.069,0.039,0.139,0.054,0.208c0,0.008,0,0.015,0.008,0.015c0.085,0.37,0.146,0.748,0.2,1.125c0,0.008,0,0.008,0,0.015
			c0,0.015,0.008,0.031,0.008,0.046c0.015,0.131,0.031,0.262,0.046,0.393c0,0.031,0.008,0.062,0.008,0.1c0,0.008,0,0.008,0,0.015
			c0.039,0.416,0.069,0.84,0.092,1.256l0,0l0,0c0,0.008,0,0.008,0,0.015c0.077-0.008,0.154-0.015,0.224-0.023
			C12.416,13.672,12.439,13.642,12.416,13.48z M7.006,13.95c-0.008,0.023,0.015,0.054-0.015,0.069c0,0-0.008,0-0.008,0.008
			c-0.031,0.015-0.054-0.008-0.077-0.023c-0.046-0.031-0.085-0.054-0.123-0.092c-0.347-0.316-0.655-0.663-0.886-1.071
			c-0.139-0.239-0.27-0.486-0.393-0.732c-0.015-0.031-0.031-0.054-0.069-0.054c-0.069,0-0.177,0.085-0.185,0.146
			c-0.015,0.085-0.023,0.162-0.031,0.247c0.031,0.008,0.031,0.031,0.039,0.054c0.085,0.162,0.162,0.331,0.254,0.493
			c0.185,0.324,0.439,0.593,0.701,0.855c0.092,0.092,0.193,0.17,0.293,0.254c0.069,0.062,0.146,0.1,0.231,0.1h0.008
			c0.046,0,0.1-0.008,0.154-0.039C6.975,14.119,7.044,14.042,7.006,13.95z M7.314,11.769c-0.015-0.008-0.031-0.015-0.046-0.023
			c-0.185-0.077-0.362-0.162-0.532-0.254c-0.277-0.154-0.547-0.331-0.778-0.547c-0.069-0.062-0.1-0.062-0.131,0.031
			c-0.039,0.1-0.054,0.2-0.054,0.308c0,0.062,0,0.116,0.008,0.177c0-0.054,0-0.108,0-0.162c0-0.008,0-0.015,0.008-0.023
			s0.015-0.008,0.023,0.008c0.116,0.1,0.247,0.185,0.37,0.277c0.154,0.116,0.301,0.231,0.47,0.316
			c0.069,0.039,0.146,0.062,0.2,0.116c0.139-0.069,0.293-0.1,0.447-0.116c0.031,0,0.077,0,0.077-0.039
			C7.383,11.807,7.345,11.784,7.314,11.769z M10.181,7.584c-0.039-0.092-0.108-0.17-0.193-0.224
			C9.773,7.214,9.588,7.029,9.387,6.867C9.249,6.751,9.087,6.674,8.894,6.674c-0.092,0-0.185,0.023-0.254,0.092
			C8.593,6.813,8.586,6.844,8.624,6.898c0.023-0.046,0.062-0.046,0.108-0.046c0.077,0.008,0.146,0.031,0.224,0.062
			c0.17,0.069,0.293,0.2,0.416,0.339c0.139,0.162,0.301,0.301,0.516,0.355c0.092,0.023,0.146,0.092,0.17,0.185
			c0.015,0.069,0.031,0.146,0.039,0.216c0.015-0.023,0.039-0.039,0.054-0.062C10.22,7.846,10.235,7.715,10.181,7.584z M7.63,12.863
			c-0.054,0.008-0.1,0.015-0.154,0.031c-0.131,0.023-0.262,0.062-0.401,0.062c-0.162,0-0.254-0.069-0.262-0.2
			c-0.015-0.17-0.031-0.339-0.054-0.501c-0.008-0.062-0.031-0.123,0.008-0.177H6.759c-0.031,0-0.054,0.015-0.077,0.023
			c-0.108,0.039-0.177,0.108-0.185,0.224c-0.008,0.069,0.008,0.139,0.023,0.208v0.008v0.008c0,0.008,0,0.008,0,0.015
			c0.023,0.1,0.039,0.208,0.069,0.308c0,0.008,0.008,0.023,0.008,0.031c0.008,0.015,0.008,0.023,0.015,0.039
			c0.015,0.039,0.031,0.069,0.046,0.108c0.008,0.008,0.008,0.015,0.015,0.023c0.008,0.008,0.008,0.015,0.015,0.023l0,0
			c0.008,0.008,0.008,0.015,0.015,0.023c0.008,0.008,0.008,0.008,0.015,0.015l0.008,0.008l0.008,0.008
			c0.008,0.008,0.015,0.015,0.031,0.023c0.008,0,0.008,0.008,0.015,0.008c0.008,0,0.008,0.008,0.015,0.008
			c0.046,0.023,0.092,0.031,0.154,0.023c0.1-0.015,0.2-0.031,0.308-0.054c0.1-0.015,0.2-0.054,0.308-0.062c0.008,0,0.015,0,0.031,0
			c0.039-0.046,0.062-0.1,0.085-0.162C7.699,12.871,7.692,12.855,7.63,12.863z M6.027,7.584C6.012,7.561,5.988,7.538,5.973,7.514
			C5.881,7.399,5.78,7.291,5.75,7.137c0-0.015-0.015-0.023-0.023-0.023c-0.062,0-0.123-0.031-0.185-0.039
			c0.031,0.062,0.008,0.123-0.031,0.177C5.472,7.299,5.426,7.283,5.372,7.268C5.31,7.252,5.256,7.222,5.202,7.191
			c-0.015-0.008-0.039-0.015-0.054,0C5.133,7.206,5.133,7.229,5.141,7.245c0,0.015,0.008,0.031,0.015,0.046
			c0.1,0.224,0.262,0.401,0.455,0.555c0.123,0.092,0.27,0.085,0.385-0.023c0.054-0.054,0.108-0.108,0.17-0.154
			C6.104,7.669,6.058,7.645,6.027,7.584z M8.308,12.724c-0.023-0.023-0.046,0-0.069,0.008c-0.123,0.069-0.224,0.162-0.316,0.27
			h0.008l0,0c0.023,0,0.046-0.015,0.069-0.023l0,0c0.008,0,0.023-0.008,0.031,0.008c0.008,0.008,0,0.015,0,0.023l0,0l0,0
			l-0.008,0.008C8,13.056,7.969,13.087,7.954,13.133c-0.139,0.385-0.308,0.763-0.493,1.133l0,0l0,0l0,0
			c0.023,0,0.046-0.008,0.062-0.008c0.177,0,0.285-0.1,0.355-0.254c0.108-0.239,0.216-0.486,0.308-0.732
			c0.054-0.154,0.108-0.308,0.131-0.47C8.331,12.763,8.331,12.74,8.308,12.724z M10.358,13.356c-0.039,0.008-0.069-0.023-0.1-0.046
			c-0.277-0.216-0.563-0.401-0.871-0.57c-0.108-0.054-0.216-0.108-0.324-0.154c-0.023-0.008-0.046-0.008-0.062,0.008
			c-0.023,0.023-0.008,0.046,0.008,0.062c0.031,0.046,0.062,0.092,0.085,0.146c0.092,0.062,0.177,0.131,0.262,0.2
			c0.208,0.177,0.424,0.339,0.678,0.432c0.046,0.015,0.092,0.023,0.139,0.015l0,0C10.243,13.457,10.312,13.418,10.358,13.356
			C10.366,13.356,10.358,13.356,10.358,13.356z M7.553,7.291C7.491,7.145,7.468,6.998,7.491,6.836
			C7.514,6.697,7.568,6.559,7.53,6.405C7.522,6.374,7.522,6.343,7.514,6.312c0-0.224-0.023-0.439-0.015-0.663
			c-0.054,0.023-0.116,0.039-0.146,0.1c-0.054,0.116-0.077,0.239-0.062,0.37c0.015,0.116,0.023,0.224,0.031,0.339
			C7.329,6.605,7.291,6.744,7.268,6.89c-0.015,0.085-0.039,0.177,0,0.262c0.077,0.162,0.193,0.27,0.355,0.339
			C7.615,7.422,7.584,7.353,7.553,7.291z M7.021,6.281C7.006,6.274,6.998,6.297,6.983,6.304c-0.039,0.039-0.077,0.085-0.131,0.1
			c0,0.008,0,0.023,0,0.031l0,0l0,0l0,0C6.836,6.59,6.767,6.721,6.644,6.821c-0.162,0.123-0.347,0.17-0.539,0.2
			c-0.008,0-0.015,0-0.015,0c0,0.008,0,0.015-0.008,0.023C6.073,7.114,6.135,7.168,6.22,7.152c0.108-0.023,0.224-0.054,0.324-0.1
			c0.031-0.015,0.062-0.031,0.1-0.031c0.077-0.085,0.177-0.154,0.239-0.254C6.975,6.628,7.029,6.489,7.037,6.32
			C7.037,6.312,7.044,6.289,7.021,6.281z M6.343,5.688C6.335,5.672,6.32,5.657,6.304,5.642c-0.1-0.085-0.216-0.108-0.331-0.069
			C5.85,5.618,5.734,5.696,5.634,5.78C5.565,5.842,5.487,5.896,5.403,5.95C5.364,5.973,5.31,5.988,5.326,6.035
			c0.023,0.054,0.077,0.031,0.123,0.023c0.015,0,0.031-0.008,0.046-0.015c0.077-0.023,0.139-0.069,0.208-0.116
			c0.162-0.1,0.331-0.185,0.539-0.177c0.008,0,0.039,0,0.062,0C6.351,5.75,6.358,5.726,6.343,5.688z M9.742,5.541
			C9.595,5.495,9.487,5.387,9.364,5.31C9.125,5.156,8.933,5.218,8.755,5.426C8.74,5.441,8.732,5.464,8.748,5.487
			c0.015,0.023,0.031,0.015,0.054,0.008C8.84,5.48,8.871,5.472,8.909,5.457c0.162-0.062,0.316-0.054,0.47,0.046
			c0.092,0.062,0.185,0.1,0.301,0.108c0.046,0,0.054,0,0.069-0.015C9.765,5.572,9.773,5.549,9.742,5.541z M5.418,5.611
			C5.403,5.58,5.38,5.58,5.349,5.58C5.241,5.603,5.133,5.626,5.033,5.665C4.94,5.703,4.848,5.834,4.848,5.927
			c0,0.031,0.015,0.062,0.046,0.077C4.94,6.027,4.979,6.019,5.017,5.988C5.141,5.881,5.264,5.773,5.403,5.68
			C5.418,5.665,5.434,5.642,5.418,5.611z M7.168,7.476C7.16,7.453,7.152,7.43,7.145,7.414C7.091,7.329,7.091,7.229,7.106,7.137
			c0.015-0.062,0-0.085-0.062-0.085C6.99,7.044,6.952,7.067,6.921,7.114C6.882,7.16,6.875,7.222,6.875,7.283
			c0.008,0.1,0.039,0.185,0.116,0.247C7.021,7.561,7.06,7.576,7.098,7.576C7.16,7.568,7.183,7.538,7.168,7.476z M9.857,5.087
			C9.788,5.04,9.719,5.04,9.634,5.04c-0.054,0-0.116,0.008-0.17,0.015c-0.023,0-0.046,0.008-0.054,0.039
			c0,0.023,0.023,0.031,0.039,0.039c0.069,0.031,0.123,0.069,0.185,0.108c0.062,0.039,0.123,0.077,0.193,0.1
			C9.911,5.364,9.95,5.333,9.95,5.249C9.958,5.171,9.911,5.125,9.857,5.087z M9.726,6.451L9.726,6.451
			c-0.069,0.031-0.139,0.046-0.2,0.085c-0.008,0-0.008,0.008-0.015,0.008v0.008c0.023,0.069,0.092,0.116,0.162,0.1
			c0.046-0.008,0.1-0.023,0.139-0.054C9.75,6.582,9.75,6.513,9.726,6.451z M3.769,13.102c-0.008-0.054-0.023-0.108-0.077-0.123
			c-0.085-0.023-0.17-0.054-0.262-0.069c0,0.008,0,0.008-0.008,0.015c0,0,0,0.008-0.008,0.015l0,0
			c-0.092,0.208-0.146,0.424-0.2,0.647c-0.062,0.247-0.755,1.457-0.979,1.942l0.062,0.462H2.89c0.123-0.339,0.447-1.218,0.455-1.225
			c0.131-0.509,0.27-1.017,0.416-1.526C3.769,13.195,3.776,13.148,3.769,13.102z"/>
		<g>
			<path fill="#FFFFFF" d="M4.231,6.713c0.023,0.031,0.054,0.046,0.092,0.031C4.362,6.721,4.362,6.69,4.355,6.651
				c0-0.008-0.008-0.015-0.008-0.031C4.277,6.443,4.216,6.266,4.2,6.081c0-0.039-0.015-0.069-0.077-0.069
				C4.085,6.019,4.046,6.05,4.008,6.066C3.946,6.096,3.931,6.127,3.954,6.189C3.969,6.258,4,6.32,4.031,6.381
				C4.085,6.497,4.146,6.613,4.231,6.713z"/>
			<path fill="#FFFFFF" d="M6.135,6.99C6.112,7.006,6.081,7.013,6.073,7.052C6.081,7.06,6.096,7.067,6.112,7.06
				c0.185-0.023,0.362-0.077,0.516-0.193c0.131-0.092,0.193-0.224,0.224-0.37c0.008-0.023,0.008-0.054-0.008-0.069
				C6.775,6.374,6.697,6.335,6.682,6.243c-0.008-0.008-0.015-0.008-0.023,0c-0.046,0.046-0.108,0.069-0.162,0.1
				C6.389,6.389,6.382,6.412,6.42,6.52c0.015,0.039,0.023,0.077,0.008,0.116C6.382,6.79,6.289,6.913,6.135,6.99z"/>
			<path fill="#FFFFFF" d="M5.148,2.566C5.225,2.505,5.31,2.459,5.395,2.405C5.41,2.389,5.441,2.374,5.426,2.351
				C5.418,2.32,5.387,2.32,5.356,2.328c-0.008,0-0.015,0-0.023,0.008C5.071,2.358,4.848,2.482,4.64,2.628
				C4.432,2.775,4.247,2.96,4.039,3.114C3.846,3.26,3.638,3.376,3.391,3.399C3.314,3.407,3.276,3.484,3.314,3.545
				c0.039,0.062,0.077,0.123,0.123,0.177c0.1,0.131,0.162,0.27,0.17,0.432c0.008,0.085,0,0.17,0,0.239
				c0.008,0.27,0.015,0.524,0.046,0.778C3.676,5.349,3.715,5.518,3.784,5.68C3.815,5.75,3.846,5.765,3.915,5.726
				c0.17-0.077,0.193-0.069,0.162-0.277C4.031,5.048,4.039,4.655,4.108,4.262c0.031-0.193,0.069-0.378,0.231-0.516
				c0.116-0.1,0.185-0.224,0.231-0.37C4.701,3.06,4.886,2.782,5.148,2.566z"/>
			<path fill="#FFFFFF" d="M4.393,5.865C4.439,5.857,4.486,5.85,4.532,5.842C4.671,5.827,4.678,5.811,4.64,5.68
				C4.632,5.649,4.617,5.634,4.586,5.634c-0.008,0-0.015,0-0.015,0C4.524,5.642,4.478,5.649,4.432,5.657
				c-0.146,0.031-0.123,0.015-0.1,0.139c0,0.008,0,0.015,0,0.015C4.331,5.865,4.355,5.873,4.393,5.865z"/>
			<path fill="#FFFFFF" d="M7.576,13.102c-0.023-0.039-0.062-0.015-0.085-0.008c-0.177,0.039-0.355,0.085-0.539,0.1
				c-0.092,0.008-0.177-0.008-0.239-0.085c-0.039-0.039-0.062-0.085-0.085-0.131c-0.077-0.193-0.116-0.385-0.139-0.586
				c-0.015-0.123,0.046-0.216,0.162-0.262c0.031-0.015,0.069-0.023,0.092-0.046c0.023-0.031,0.054-0.054,0.085-0.077
				c-0.015-0.046-0.062-0.062-0.092-0.077c-0.092-0.054-0.193-0.092-0.277-0.154c-0.2-0.146-0.408-0.293-0.609-0.447
				c-0.023-0.015-0.039-0.039-0.062-0.046c-0.023-0.015-0.039-0.008-0.039,0.023c0,0.054-0.008,0.108,0.008,0.162
				c0,0.116,0.015,0.231,0.046,0.347c0.208,0.771,0.563,1.464,1.125,2.05c0.023,0.031,0.046,0.054,0.054,0.092
				c0.008,0.023,0.008,0.054,0,0.077c-0.046,0.123-0.254,0.208-0.37,0.146c-0.054-0.031-0.108-0.062-0.154-0.1
				c-0.17-0.139-0.324-0.285-0.47-0.447c-0.239-0.247-0.447-0.516-0.593-0.825c-0.046-0.108-0.1-0.208-0.154-0.308
				c-0.008-0.023-0.015-0.054-0.054-0.039c-0.015,0.146-0.015,0.293-0.015,0.439c0,0.347,0.031,0.701,0.062,1.048
				c0.015,0.185,0.054,0.362,0.108,0.539c0.031,0.1,0.092,0.139,0.193,0.131c0.031,0,0.069-0.008,0.1-0.015
				c0.378-0.069,0.755-0.139,1.133-0.208c0.224-0.039,0.447-0.077,0.671-0.116c0.015-0.008,0.031-0.023,0.039-0.046
				c0.146-0.301,0.293-0.593,0.401-0.909c0.031-0.092,0.062-0.193,0.131-0.277c0.015-0.015,0.023-0.039,0.008-0.054
				C8,12.979,7.977,12.979,7.961,12.987C7.938,12.994,7.923,13.01,7.9,13.017c-0.023,0.008-0.031,0.031-0.046,0.046
				c-0.162,0.17-0.293,0.362-0.408,0.57c-0.015,0.031-0.039,0.092-0.077,0.077c-0.054-0.015-0.015-0.069-0.008-0.108
				C7.414,13.418,7.491,13.256,7.576,13.102z"/>
			<path fill="#FFFFFF" d="M5.141,1.087C5.156,1.11,5.187,1.102,5.21,1.102c0.069-0.008,0.131-0.023,0.2-0.023
				c0.039,0,0.077,0,0.092,0.046c0.008,0.046-0.015,0.077-0.062,0.092C5.11,1.356,4.84,1.572,4.586,1.811
				C4.539,1.85,4.501,1.896,4.47,1.95C4.455,1.965,4.439,1.988,4.455,2.012C4.47,2.035,4.493,2.042,4.524,2.035
				c0.023-0.008,0.054-0.015,0.077-0.023c0.316-0.123,0.64-0.216,0.979-0.254C6.027,1.703,6.466,1.75,6.882,1.934
				C7.06,2.012,7.229,2.096,7.383,2.22c0.069-0.062,0.139-0.123,0.208-0.177c0.108-0.092,0.224-0.17,0.37-0.2
				C8.092,1.811,8.216,1.834,8.347,1.85c0.162,0.023,0.316,0.046,0.47,0.085c0.185,0.046,0.37,0.1,0.539,0.185
				c0.339,0.177,0.609,0.424,0.778,0.778c0.023,0.015,0.046,0.039,0.062,0.062c0.254,0.385,0.486,0.778,0.686,1.187
				c0.015,0.031,0.023,0.062,0.062,0.054c0.039-0.008,0.046-0.039,0.054-0.069c0.015-0.054,0.015-0.116,0.015-0.17
				c-0.008-0.424-0.085-0.84-0.216-1.249C10.513,1.85,9.958,1.21,9.148,0.794C8.655,0.539,8.131,0.408,7.584,0.37
				c-0.2-0.015-0.401-0.023-0.601-0.008C6.335,0.524,5.719,0.755,5.148,1.048C5.133,1.079,5.133,1.079,5.141,1.087z"/>
			<path fill="#FFFFFF" d="M1.973,13.464l0.27,2.066l0.062,0.462h0.293c0.131-0.47,0.424-1.511,0.432-1.518c0,0,0,0,0.008-0.008
				c0-0.008,0-0.015,0.008-0.023c0.054-0.162,0.077-0.331,0.116-0.501c0.069-0.324,0.139-0.655,0.262-0.963
				C3.43,12.963,3.43,12.956,3.43,12.94l0,0c0,0,0-0.008-0.008-0.008c-0.039-0.015-0.077-0.023-0.108-0.023l0,0H3.306l0,0l0,0l0,0
				c-0.116-0.015-0.224,0.008-0.331,0.062c-0.277,0.139-0.563,0.277-0.84,0.424C2.05,13.426,2.004,13.449,1.973,13.464L1.973,13.464
				z"/>
			<path fill="#FFFFFF" d="M7.854,8.94c0.208-0.039,0.408-0.077,0.609-0.116c0.123-0.031,0.231-0.077,0.347-0.131
				c0.023-0.008,0.054-0.015,0.046-0.046C8.848,8.624,8.817,8.624,8.794,8.624c-0.023,0-0.054,0-0.077,0
				C8.331,8.64,7.954,8.686,7.584,8.778C7.561,8.786,7.538,8.786,7.538,8.817c0,0.023,0.015,0.039,0.031,0.054
				C7.653,8.925,7.753,8.963,7.854,8.94z"/>
			<path fill="#FFFFFF" d="M8.501,14.135c0.069-0.008,0.139-0.023,0.2-0.031c0.046-0.008,0.069-0.039,0.069-0.108
				c-0.023-0.092-0.046-0.216-0.077-0.331c-0.008-0.015-0.008-0.054-0.031-0.054c-0.031,0-0.031,0.031-0.039,0.054
				c-0.039,0.146-0.092,0.277-0.17,0.401c-0.008,0.015-0.023,0.031-0.008,0.054C8.455,14.135,8.478,14.135,8.501,14.135z"/>
			<path fill="#FFFFFF" d="M9.033,11.268c0.085-0.146,0.123-0.301,0.046-0.462c-0.008-0.015-0.015-0.031-0.015-0.046
				c0-0.039,0-0.077,0.054-0.069c-0.039-0.193-0.123-0.37-0.224-0.547c-0.031-0.054-0.077-0.108-0.092-0.17
				C8.763,9.811,8.74,9.649,8.763,9.48c0-0.015,0.008-0.031-0.008-0.039c-0.015-0.008-0.023-0.008-0.039,0
				C8.678,9.464,8.647,9.495,8.647,9.549c0,0.062-0.015,0.123-0.054,0.17C8.578,9.75,8.547,9.773,8.509,9.765
				C8.47,9.757,8.447,9.726,8.439,9.688C8.432,9.657,8.432,9.626,8.424,9.595C8.416,9.526,8.362,9.487,8.293,9.511
				c-0.085,0.031-0.17,0.039-0.254,0.046c-0.046,0-0.092-0.008-0.123,0.039c0,0.015,0,0.023,0.008,0.039
				c0.015,0.077,0.031,0.162,0.008,0.247C7.923,9.919,7.9,9.927,7.877,9.896c-0.031-0.039-0.062-0.077-0.1-0.116
				c-0.031-0.039-0.069-0.085-0.116-0.1C7.645,9.672,7.622,9.672,7.615,9.688c-0.015,0.015-0.008,0.031,0,0.046
				c0.023,0.054,0.039,0.108,0.054,0.162c0.054,0.208,0.023,0.424-0.015,0.632c-0.062,0.301,0.015,0.57,0.224,0.802
				c0.216,0.239,0.486,0.408,0.748,0.593c0.031,0.023,0.077,0.031,0.116,0.031c0.046,0,0.062-0.015,0.062-0.062
				c-0.008-0.092,0.008-0.185,0.046-0.27C8.894,11.499,8.971,11.383,9.033,11.268z"/>
			<path fill="#FFFFFF" d="M14.335,10.751l-0.308,2.312l-0.008,0.069c-0.339-0.755-0.678-1.511-1.025-2.258
				c-0.015-0.031-0.031-0.062-0.039-0.1c-0.023-0.077,0-0.116,0.085-0.116c0.008,0,0.015,0,0.023,0l0,0l0,0c0.015,0,0.031,0,0.046,0
				l0,0c0.046,0,0.092,0.008,0.139,0.008c0.062,0.008,0.116,0.008,0.177,0.015c0.015,0,0.031,0,0.039,0h0.008
				c0.177,0.015,0.355,0.023,0.532,0.039c0.031,0,0.054,0.008,0.085,0.008c0.008,0,0.015,0,0.023,0
				c0.054,0.008,0.116,0.008,0.17,0.015C14.297,10.751,14.312,10.751,14.335,10.751z"/>
			<path fill="#FFFFFF" d="M11.314,16h-0.555c-0.054-0.385-0.108-0.771-0.146-1.156c-0.023-0.2-0.046-0.401-0.069-0.593
				c0-0.023,0-0.046,0.008-0.077v-0.008c0.139-0.023,0.285-0.046,0.424-0.062l0,0l0,0c0.023,0.015,0.023,0.046,0.023,0.069
				c0.092,0.532,0.177,1.064,0.27,1.595C11.291,15.846,11.299,15.923,11.314,16z"/>
			<path fill="#FFFFFF" d="M12,14.035c0.146,0.655,0.301,1.303,0.424,1.958h-0.539c-0.046-0.27-0.092-0.547-0.146-0.817
				c-0.062-0.285-0.116-0.57-0.17-0.855c-0.015-0.069-0.031-0.146-0.046-0.216c-0.008-0.023-0.015-0.054,0-0.077l0,0
				c0.146-0.023,0.293-0.046,0.447-0.062l0,0l0,0C12,13.988,12,14.012,12,14.035z"/>
			<path fill="#FFFFFF" d="M13.518,16h-0.57c-0.1-0.455-0.239-1.01-0.331-1.457c-0.039-0.185-0.077-0.37-0.123-0.555
				c-0.008-0.023-0.008-0.046,0-0.069c0,0,0,0,0-0.008c0.146-0.023,0.285-0.046,0.432-0.054l0,0l0,0l0,0c0.008,0,0.008,0,0.015,0
				c0.023,0.015,0.031,0.039,0.031,0.069c0.139,0.578,0.277,1.156,0.432,1.734C13.418,15.653,13.472,15.838,13.518,16z"/>
			<path fill="#FFFFFF" d="M9.511,6.497C9.495,6.513,9.472,6.536,9.495,6.566c0.077-0.023,0.154-0.039,0.216-0.092
				C9.734,6.451,9.75,6.435,9.773,6.412c0.108-0.108,0.185-0.231,0.2-0.385c0.015-0.092-0.015-0.131-0.108-0.131
				c-0.062,0-0.131,0-0.193,0C9.58,5.919,9.557,5.95,9.603,6.004C9.68,6.096,9.672,6.189,9.634,6.289
				C9.611,6.366,9.557,6.428,9.511,6.497z"/>
			<path fill="#FFFFFF" d="M10.266,13.418c-0.069,0.039-0.139,0.069-0.216,0.039c-0.208-0.077-0.401-0.185-0.57-0.331
				c-0.108-0.092-0.224-0.185-0.339-0.27c-0.015-0.015-0.039-0.039-0.069-0.023c0.193,0.339,0.316,0.701,0.378,1.079
				c0.015,0.1,0.023,0.108,0.131,0.092c0.046-0.008,0.085-0.008,0.131-0.015c0.285-0.031,0.578-0.069,0.863-0.1
				c0.316-0.039,0.64-0.069,0.963-0.1l0.455-0.046c0.015-0.023,0.015-0.046,0.015-0.069c-0.015-0.162-0.023-0.324-0.031-0.486
				c-0.015-0.216-0.031-0.432-0.054-0.647c-0.031-0.262-0.062-0.524-0.085-0.794c-0.046-0.385-0.123-0.771-0.224-1.148
				c-0.008-0.023-0.015-0.046-0.039-0.062c-0.015,0.015-0.008,0.031-0.015,0.046c-0.023,0.262-0.054,0.524-0.108,0.786
				c-0.092,0.47-0.216,0.925-0.401,1.364c-0.039,0.085-0.069,0.17-0.131,0.239c-0.015,0.015-0.031,0.031-0.046,0.023
				c-0.023-0.008-0.023-0.031-0.015-0.054c0-0.008,0.008-0.015,0.008-0.031c0.162-0.486,0.254-0.979,0.308-1.487
				c0.054-0.432,0.046-0.863-0.046-1.295c-0.031-0.139-0.085-0.27-0.193-0.362c-0.046-0.046-0.069-0.039-0.092,0.023
				c-0.008,0.023-0.015,0.046-0.023,0.069c-0.2,0.516-0.539,0.933-0.933,1.303c-0.154,0.139-0.316,0.27-0.486,0.393
				c-0.023,0.015-0.046,0.031-0.031,0.062c0.015,0.023,0.039,0.008,0.062,0c0.008,0,0.015-0.008,0.023-0.008
				c0.17-0.054,0.347-0.092,0.532-0.1c0.17-0.008,0.254,0.054,0.27,0.193c0.015,0.185,0.039,0.37,0.062,0.555
				c0.023,0.154-0.054,0.247-0.208,0.262c-0.123,0.015-0.247,0-0.37,0.008c-0.031,0-0.069-0.008-0.077,0.023
				c-0.008,0.031,0.023,0.054,0.046,0.069c0.177,0.17,0.355,0.331,0.524,0.509c0.046,0.046,0.092,0.1,0.123,0.154
				c0.015,0.031,0.023,0.054,0,0.077C10.32,13.387,10.297,13.403,10.266,13.418z"/>
			<path fill="#FFFFFF" d="M9.495,8.2c0.077,0,0.146-0.031,0.193-0.092c0.015-0.023,0.046-0.039,0.031-0.077
				C9.703,8,9.68,7.977,9.642,7.969C9.557,7.961,9.48,7.931,9.41,7.884C9.318,7.823,9.249,7.73,9.179,7.645
				C9.11,7.561,9.033,7.476,8.933,7.422C8.855,7.376,8.817,7.383,8.748,7.445C8.663,7.53,8.57,7.615,8.455,7.661
				C8.378,7.692,8.316,7.738,8.277,7.815C8.239,7.9,8.162,7.961,8.069,7.977C7.861,8.008,7.653,8,7.453,7.915
				c-0.046-0.023-0.1-0.031-0.154-0.031c-0.123,0-0.231,0.039-0.301,0.154C6.983,8.062,6.967,8.077,6.96,8.092
				c-0.085,0.139-0.2,0.231-0.339,0.301C6.551,8.432,6.551,8.47,6.613,8.509c0.069,0.054,0.154,0.054,0.239,0.046
				c0.092-0.015,0.185-0.046,0.277-0.077c0.593-0.185,1.21-0.239,1.827-0.27C9.133,8.216,9.31,8.216,9.495,8.2z"/>
			<path fill="#FFFFFF" d="M10.328,5.11c0.031,0,0.062-0.008,0.062-0.046c0.008-0.046,0.015-0.092-0.015-0.131
				c-0.008-0.008-0.023-0.008-0.031-0.008c-0.085,0.008-0.162,0.015-0.247,0.023c-0.015,0-0.039,0.008-0.039,0.031
				c-0.023,0.085,0.023,0.146,0.108,0.146C10.22,5.118,10.274,5.118,10.328,5.11z"/>
		</g>
	</g>
</g>
</svg>
