<?xml version="1.0" encoding="utf-8"?>
<!-- Generator: Adobe Illustrator 21.1.0, SVG Export Plug-In . SVG Version: 6.00 Build 0)  -->
<svg version="1.1" id="レイヤー_1" xmlns="http://www.w3.org/2000/svg" xmlns:xlink="http://www.w3.org/1999/xlink" x="0px"
	 y="0px" viewBox="0 0 16 16" enable-background="new 0 0 16 16" xml:space="preserve">
<g id="doutor">
	<g>
		<circle cx="8" cy="8" r="8"/>
		<path fill="#FFFFFF" d="M8,15.154c-3.906,0-7.087-3.212-7.087-7.154S4.088,0.846,8,0.846c3.906,0,7.087,3.206,7.087,7.154
			C15.087,11.942,11.906,15.154,8,15.154z M8,1.211C4.295,1.211,1.278,4.252,1.278,8S4.295,14.789,8,14.789S14.722,11.741,14.722,8
			C14.722,4.252,11.705,1.211,8,1.211z"/>
	</g>
	<g>
		<g>
			<path fill="#F7F7F7" d="M4.757,2.707c-0.201,0-0.426,0-0.596,0c-0.438,0-0.377,0.481-0.377,0.481v2.957
				c0,0.499,0.481,0.456,0.481,0.456s0.231,0,0.499,0C4.757,6.595,4.757,2.707,4.757,2.707z"/>
			<path fill="#F7F7F7" d="M5.335,2.707c0,0-0.134,0-0.322,0v3.894c0.116,0,0.231,0,0.322,0c0.359,0,0.919-0.481,0.919-2.178
				S5.335,2.707,5.335,2.707z"/>
		</g>
		<g>
			<path fill="#F7F7F7" d="M10.847,2.707c-0.31,0-0.602,0-0.718,0c-0.298,0-0.28,0.377-0.28,0.377v2.513
				c0,0-0.091,0.925,0.998,0.992L10.847,2.707L10.847,2.707z"/>
			<path fill="#F7F7F7" d="M12.1,5.597c0,0,0-2.196,0-2.555s-0.237-0.341-0.237-0.341s-0.359,0-0.76,0v3.887
				C12.192,6.522,12.1,5.597,12.1,5.597z"/>
		</g>
		<g>
			<path fill="#F7F7F7" d="M8.079,2.628v4.064c0.578-0.024,1.046-0.499,1.046-1.083V3.711C9.125,3.127,8.657,2.652,8.079,2.628z"/>
			<path fill="#F7F7F7" d="M7.824,2.628C7.246,2.652,6.777,3.127,6.777,3.711v1.898c0,0.584,0.468,1.065,1.046,1.083V2.628z"/>
		</g>
		<g>
			<path fill="#F7F7F7" d="M4.757,7.014H4.04c0,0-0.821-0.158-0.821,0.456S3.772,8.11,3.772,8.11s0.024,1.478,0,1.856
				c-0.024,0.359,0.11,0.913,0.979,0.973L4.757,7.014L4.757,7.014z"/>
			<path fill="#F7F7F7" d="M6.035,7.014H5.013v3.93c0.906-0.055,0.961-0.754,0.961-0.754V8.116c0,0,0.621,0.079,0.621-0.42
				C6.595,7.014,6.035,7.014,6.035,7.014z"/>
		</g>
		<g>
			<path fill="#F7F7F7" d="M11.705,8.852c0.541-0.097,0.56-0.596,0.56-0.9c0.018-1.077-0.858-0.955-0.858-0.955s-0.11,0-0.298,0
				v3.948c0.998,0,0.998-0.359,0.998-0.359V9.484C12.106,9.49,12.161,9.174,11.705,8.852z"/>
			<path fill="#F7F7F7" d="M10.847,6.996c-0.146,0-0.31,0-0.499,0C9.849,6.99,9.849,7.459,9.849,7.459v2.853
				c0,0.45,0.018,0.621,0.998,0.639V6.996z"/>
		</g>
		<g>
			<g>
				<path fill="#FFCC00" d="M8.614,7.027l-0.961,3.948c0.566,0.116,1.138-0.237,1.278-0.803l0.45-1.843
					C9.515,7.757,9.168,7.185,8.614,7.027z"/>
				<path fill="#FFCC00" d="M8.359,6.966C7.793,6.85,7.221,7.203,7.081,7.769l-0.45,1.843c-0.14,0.566,0.207,1.144,0.76,1.302
					L8.359,6.966z"/>
			</g>
		</g>
	</g>
	<g>
		<polygon fill="#FFCC00" points="4.849,12.435 4.24,12.435 4.24,11.887 3.857,11.887 3.857,13.317 4.24,13.317 4.24,12.788 
			4.849,12.788 		"/>
		<rect x="4.447" y="11.869" fill="#FFCC00" width="0.183" height="0.42"/>
		<rect x="4.69" y="11.869" fill="#FFCC00" width="0.183" height="0.42"/>
		<polygon fill="#FFCC00" points="6.005,12.417 5.396,12.417 5.396,11.869 5.013,11.869 5.013,13.293 5.396,13.293 5.396,12.763 
			6.005,12.763 		"/>
		<rect x="6.224" y="12.429" fill="#FFCC00" width="0.7" height="0.347"/>
		<path fill="#FFCC00" d="M7.367,11.887H7.069v1.083c0,0-0.024,0.067-0.146,0.061c-0.006,0.097,0,0.329,0,0.329
			s0.438,0.067,0.444-0.292C7.373,12.709,7.367,11.887,7.367,11.887z"/>
		<path fill="#FFCC00" d="M7.513,11.887v1.478h0.322c0,0,0.456-0.006,0.456-0.888c-0.17,0-0.304-0.006-0.304-0.006
			s-0.055,0.493-0.14,0.481c0-0.365,0-1.059,0-1.059L7.513,11.887L7.513,11.887z"/>
		<path fill="#FFCC00" d="M8.973,12.344H8.292v-0.347h0.906c0,0,0.237,0,0.237,0.213c0,0.14,0,0.925,0,0.925
			s-0.006,0.231-0.17,0.231s-0.973,0-0.973,0v-0.347h0.736v-0.675H8.973z"/>
		<rect x="9.545" y="12.429" fill="#FFCC00" width="0.675" height="0.347"/>
		<path fill="#FFCC00" d="M10.342,11.9v1.217c0,0-0.006,0.237,0.335,0.249c0.341,0.012,0.7,0,0.7,0v-0.341H10.78v-0.456h0.596
			v-0.341h-0.59v-0.335L10.342,11.9L10.342,11.9z"/>
		<rect x="11.48" y="12.459" fill="#FFCC00" width="0.785" height="0.347"/>
	</g>
</g>
</svg>
