<?xml version="1.0" encoding="utf-8"?>
<!-- Generator: Adobe Illustrator 20.0.0, SVG Export Plug-In . SVG Version: 6.00 Build 0)  -->
<svg version="1.1" id="family_x5F_restaurant" xmlns="http://www.w3.org/2000/svg" xmlns:xlink="http://www.w3.org/1999/xlink"
	 x="0px" y="0px" viewBox="0 0 15 15" enable-background="new 0 0 15 15" xml:space="preserve">
<path d="M6.04,8.86c1.13-0.12,2-0.88,2-1.81c0-0.01-0.01-0.43-0.01-0.43V2.28H7.38v4.34H6.04V2.28H5.4v4.34H4.06V2.28H3.41v4.67h0
	c0,0.05,0,0.09,0,0.09c0,0.93,0.86,1.68,1.98,1.81v3.87h0.65V8.86z"/>
<path d="M10.46,8.67c0.14,0,0.26,0,0.38,0v4.05h0.75v-9.8h0V2.85c0,0,0-0.01,0-0.02V2.76h0C11.58,2.52,11.5,1.91,11,2.59
	C10.4,3.38,9.41,5.31,9.55,7.94C9.61,8.26,9.97,8.67,10.46,8.67z"/>
</svg>
