<?xml version="1.0" encoding="utf-8"?>
<!-- Generator: Adobe Illustrator 20.1.0, SVG Export Plug-In . SVG Version: 6.00 Build 0)  -->
<svg version="1.1" id="レイヤー_1" xmlns="http://www.w3.org/2000/svg" xmlns:xlink="http://www.w3.org/1999/xlink" x="0px"
	 y="0px" viewBox="0 0 15 15" enable-background="new 0 0 15 15" xml:space="preserve">
<g>
	<path fill="#2f2f2f" d="M6.9,0v6.2H5.6V0H4.4v6.2H3.1V0H1.9h0v6.2c0,1.3,1.1,2.3,2.5,2.6V15h1.2V8.8c1.2-0.2,2.2-1,2.5-2h0v0
		c0-0.1,0.1-0.2,0.1-0.4c0-0.1,0-6.4,0-6.4h0H6.9z"/>
	<path fill="#2f2f2f" d="M11.3,1.9c-0.3,1-0.6,2.3-0.6,6.2v1.3c0,0.3,0.2,0.6,0.6,0.6h0.7v5h1.2V0.7C13.1,0.3,12.2-1.1,11.3,1.9z"/>
</g>
</svg>
