<?xml version="1.0" encoding="utf-8"?>
<!-- Generator: Adobe Illustrator 20.0.0, SVG Export Plug-In . SVG Version: 6.00 Build 0)  -->
<svg version="1.1" id="ferry_x5F_terminal" xmlns="http://www.w3.org/2000/svg" xmlns:xlink="http://www.w3.org/1999/xlink" x="0px"
	 y="0px" viewBox="0 0 30 30" enable-background="new 0 0 30 30" xml:space="preserve">
<path d="M21.4,20.1v-1.7h-1.1v-1.7h-1.1v-2.9h-2.5v2.9h-4.1v1.7h-3v1.7H8.8H8.2H3.3c0,0,0,0.9,0.3,1.3c0.3,0.4,3.2,1,4.6,2.5v1.4
	h13.2v-1.2c1.5-1.7,4.5-2.4,4.8-2.8c0.4-0.5,0.4-1.3,0.4-1.3H21.4z"/>
<path d="M25.6,5.4c-0.3-1-1.6-1.5-2.8-1.1c-0.7,0.2-1.3,0.8-1.5,1.4c-0.3,0-0.6,0.1-0.9,0.2c-1.2,0.5-1.9,1.7-1.5,2.7
	c-0.3,0.2-0.5,0.5-0.8,0.8c-0.2,0.3-0.4,0.7-0.5,1c-0.2,0.3-0.7,1,0,2c0.2-0.6,0.4-0.9,0.6-1.1c0.3-0.2,0.4-0.2,0.5-0.2c0,0,0,0,0,0
	l0,0c0.1,0,0.3-0.1,1.2-0.5c0.4-0.2,0.6-0.5,0.6-0.8c0.4,0,0.9,0,1.4-0.2c0.7-0.3,1.3-0.9,1.5-1.5C23.6,8.1,23.8,8,24,8
	C25.2,7.6,25.9,6.4,25.6,5.4z"/>
</svg>
