<?xml version="1.0" encoding="utf-8"?>
<!-- Generator: Adobe Illustrator 20.1.0, SVG Export Plug-In . SVG Version: 6.00 Build 0)  -->
<svg version="1.1" id="レイヤー_1" xmlns="http://www.w3.org/2000/svg" xmlns:xlink="http://www.w3.org/1999/xlink" x="0px"
	 y="0px" viewBox="0 0 15 15" enable-background="new 0 0 15 15" xml:space="preserve">
<path fill="#2f2f2f" d="M9.4,6.3c0.1-0.4,0.1-0.9,0.4-1.2C10.1,4.9,10.6,5,10.7,5c1.1-0.1,0.9-0.7,0.6-0.9c0.4,0,0.6,0.1,1.1,0
	c1.4-0.1,1.9-1.2,0.9-1.6c0.2,0,0.3,0,0.5-0.1c1.1-0.2,1.6-1.2,0.7-2c-0.7-0.6-2.1-0.6-3-0.2c-0.6,0.3-1.1,1.1-0.1,1.5
	c-0.3-0.1-1.1,0-1.3,0.1C9.4,2.2,9.2,3.2,9.9,3.7c-0.3,0-0.8,0.1-1.1,0.2C8.4,4,8.1,4.7,8.4,5.1C8.8,5.5,9.3,5.2,9.4,6.3z"/>
<path fill="#2f2f2f" d="M11.7,11.6v-1.1h-0.7V9.4h-0.7V7.5H8.6v1.9H6v1.1H4.1v1.1H0c0,0,0,0,0,0v1.2L3.2,15l0,0h8.5l0,0l3.3-2.2v-1.2L11.7,11.6
	L11.7,11.6z"/>
</svg>
