<?xml version="1.0" encoding="utf-8"?>
<!-- Generator: Adobe Illustrator 21.1.0, SVG Export Plug-In . SVG Version: 6.00 Build 0)  -->
<svg version="1.1" id="レイヤー_1" xmlns="http://www.w3.org/2000/svg" xmlns:xlink="http://www.w3.org/1999/xlink" x="0px"
	 y="0px" viewBox="0 0 16 16" enable-background="new 0 0 16 16" xml:space="preserve">
<g id="gusto">
	<g>
		<circle fill="#CC0000" cx="8" cy="8" r="8"/>
		<g>
			<g>
				<path fill="#191919" d="M6.608,7.509V6.992c0-0.171-0.123-0.325-0.293-0.325h-0.56c-0.048,0-0.091,0.011-0.128,0.032
					c-0.043-0.016-0.08-0.032-0.128-0.032H4.944c-0.171,0-0.309,0.155-0.309,0.325v0.533H4.603l0.032-0.224
					C4.645,7.211,4.619,7.115,4.56,7.051S4.421,6.939,4.336,6.939H3.477c-0.144,0-0.277,0.123-0.299,0.267L3.131,7.52H2.613
					c-0.171,0-0.325,0.123-0.325,0.293v0.864c0,0.171,0.155,0.283,0.325,0.283h0.235C2.757,9.701,2.485,9.819,2.437,9.835
					c-0.16,0.011-0.251,0.144-0.251,0.309v0.928c0,0.096,0.043,0.187,0.112,0.24c0.059,0.043,0.123,0.064,0.187,0.064
					c0.027,0,0.048,0,0.075-0.011c0.581-0.155,1.093-0.544,1.408-1.04c0.187-0.293,0.315-0.976,0.379-1.408h0.565v1.008H4.517
					c-0.171,0-0.299,0.139-0.299,0.309v0.773c0,0.171,0.128,0.299,0.299,0.299h1.408c0.341,0,0.475-0.405,0.523-0.576
					c0.011-0.027,0.011-0.048,0.011-0.075V8.053c0-0.096-0.032-0.176-0.08-0.251C6.512,7.776,6.608,7.653,6.608,7.509z"/>
				<path fill="#191919" d="M10.256,9.776c-0.064-0.048-0.155-0.107-0.267-0.192c0.405-0.544,0.469-1.131,0.469-1.163
					c0-0.011,0-0.016,0-0.027c0-0.027,0.016-0.613,0-0.859c-0.027-0.357-0.363-0.544-0.56-0.597
					C9.872,6.928,9.851,6.923,9.824,6.923H7.152c-0.171,0-0.315,0.155-0.315,0.315v0.912c0,0.171,0.155,0.325,0.315,0.325h1.659
					C8.517,9.216,7.323,9.781,6.832,9.947c-0.123,0.043-0.208,0.144-0.208,0.277v0.843c0,0.091,0.048,0.176,0.123,0.235
					c0.059,0.043,0.123,0.064,0.192,0.064c0.027,0,0.048,0,0.064-0.011c0.875-0.187,1.525-0.565,1.819-0.757l1.205,0.709
					c0.048,0.027,0.096,0.043,0.155,0.043c0.048,0,0.096-0.016,0.144-0.043c0.096-0.059,0.144-0.155,0.144-0.256v-0.939
					C10.512,9.941,10.341,9.84,10.256,9.776z"/>
				<path fill="#191919" d="M14.181,8.373c-0.72-0.075-1.573-0.203-1.877-0.309c0-0.24,0.011-0.645,0.016-0.811
					c0-0.08-0.032-0.171-0.091-0.224c-0.059-0.059-0.139-0.096-0.219-0.096h-1.019c-0.171,0-0.315,0.155-0.315,0.315v3.76
					c0,0.171,0.155,0.299,0.315,0.299h0.955c0.171,0,0.277-0.139,0.277-0.299V9.552c0.427,0.112,1.179,0.267,1.691,0.267l0,0
					c0.112,0,0.208,0,0.299-0.016c0.144-0.027,0.256-0.144,0.256-0.293V8.677C14.459,8.517,14.336,8.389,14.181,8.373z"/>
			</g>
		</g>
		<path fill="#FFFFFF" d="M3.173,8.688H2.619V7.781h0.773l0.091-0.533h0.864L4.272,7.781h1.627c0,0,0.24,0.096,0.24,0.267
			c0,0.171,0,2.603,0,2.603s-0.064,0.331-0.208,0.331c-0.144,0-1.392,0-1.392,0V10.24h0.693v-1.6H4.091c0,0-0.144,1.189-0.363,1.536
			c-0.219,0.347-0.624,0.731-1.216,0.885c0-0.592,0-0.923,0-0.923S3.125,10.075,3.173,8.688z"/>
		<rect x="4.96" y="6.981" fill="#FFFFFF" width="0.533" height="0.533"/>
		<rect x="5.76" y="6.981" fill="#FFFFFF" width="0.533" height="0.533"/>
		<path fill="#FFFFFF" d="M9.173,8.155H7.147V7.248h2.672c0,0,0.315,0.08,0.331,0.315c0.016,0.235,0,0.832,0,0.832
			S10.085,9.12,9.541,9.648c0.645,0.443,0.645,0.443,0.645,0.443v0.96L8.805,10.24c0,0-0.752,0.576-1.877,0.827
			c0-0.832,0-0.832,0-0.832S9.131,9.488,9.173,8.155z"/>
		<path fill="#FFFFFF" d="M10.992,7.248v3.733h0.96v-1.84c0,0,1.552,0.475,2.192,0.363c0-0.56,0-0.832,0-0.832
			S12.075,8.464,12,8.235C11.984,8,12.016,7.248,12.016,7.248H10.992L10.992,7.248z"/>
		<path fill="#191919" d="M8,15.264c-4.011,0-7.264-3.259-7.264-7.264S3.989,0.736,8,0.736S15.264,3.989,15.264,8
			S12.011,15.264,8,15.264z M8,1.003C4.144,1.003,1.003,4.139,1.003,8S4.139,14.997,8,14.997S14.997,11.861,14.997,8
			S11.856,1.003,8,1.003z"/>
		<path fill="#FFFF00" d="M3.627,4.8V4.501c0,0-1.285-0.421-1.36,0.789H2.256c0,0.011,0,0.011,0,0.016c0,0.005,0,0.011,0,0.016
			h0.011c0.08,1.211,1.36,0.789,1.36,0.789V5.813C2.667,6.16,2.603,5.424,2.603,5.307C2.603,5.189,2.667,4.453,3.627,4.8z"/>
		<path fill="#FFFF00" d="M4.875,5.125c-0.16-0.507-0.987-0.192-0.987-0.192L3.877,5.227c0.608-0.235,0.72-0.123,0.72,0.08
			c-0.411-0.08-0.827,0-0.827,0.475s0.693,0.341,0.693,0.341l0.123-0.064l0.011,0.064h0.309C4.907,6.123,4.875,5.589,4.875,5.125z
			 M4.293,5.893C4.091,5.883,4.043,5.861,4.085,5.659S4.587,5.52,4.587,5.52S4.629,5.909,4.293,5.893z"/>
		<path fill="#FFFF00" d="M5.867,4.608c0-0.235,0-0.235,0-0.235S5.333,4.235,5.333,4.715v0.24H5.008v0.208h0.325v0.96H5.6v-0.96
			h0.267V4.955H5.589C5.589,4.955,5.541,4.475,5.867,4.608z"/>
		<g>
			<path fill="#FFFF00" d="M6.603,4.789c-0.661,0-0.581,0.752-0.581,0.752l0,0l0,0c0,0,0,0.864,1.024,0.533v0.011
				c0.016-0.219,0.016-0.277,0.016-0.277S6.32,6.107,6.304,5.552V5.536h0.859C7.157,5.541,7.259,4.789,6.603,4.789z M6.325,5.381
				c0,0,0.032-0.256,0.267-0.256s0.251,0.256,0.251,0.256H6.325z"/>
		</g>
		<polygon fill="#FFFF00" points="6.411,4.688 6.624,4.688 6.949,4.363 6.587,4.363 		"/>
		<path fill="#FFFF00" d="M7.525,4.688v1.493h0.277c0,0,0.827-0.24,0.859-0.907c-0.251,0-0.283,0.011-0.283,0.011
			s-0.16,0.491-0.544,0.544c0-1.008,0.011-1.141,0.011-1.141S7.525,4.688,7.525,4.688z"/>
		<path fill="#FFFF00" d="M8.64,4.741v0.315l0.741,0.011c0,0-0.048,0.608-0.741,0.827c0,0.08,0,0.293,0,0.293
			s0.469-0.112,0.64-0.363c0.443,0.357,0.507,0.357,0.507,0.357l0.043-0.331L9.472,5.627c0,0,0.277-0.523,0.283-0.581l0.011-0.299
			H8.64V4.741z"/>
		<polygon fill="#FFFF00" points="11.045,5.237 10.4,5.205 10.4,4.741 10.085,4.741 10.085,6.181 10.4,6.181 10.4,5.488 
			11.045,5.541 		"/>
		<rect x="11.36" y="4.741" fill="#FFFF00" width="0.96" height="0.325"/>
		<path fill="#FFFF00" d="M12.427,5.536V5.173h-1.115v0.325l0.811,0.011c0,0-0.075,0.347-0.672,0.379c0,0.096,0,0.309,0,0.309
			S12.219,6.213,12.427,5.536z"/>
		<rect x="12.645" y="4.741" fill="#FFFF00" width="0.533" height="0.325"/>
		<path fill="#FFFF00" d="M13.445,4.741v0.576c0,0-0.011,0.491-0.395,0.533c-0.299,0.032-0.405,0.011-0.405,0.011V6.16l0.427-0.027
			c0,0,0.16,0.027,0.469-0.235c0.075-0.107,0.144-0.315,0.171-0.475c0.016-0.107,0-0.677,0-0.677L13.445,4.741L13.445,4.741z"/>
	</g>
</g>
</svg>
