<?xml version="1.0" encoding="utf-8"?>
<!-- Generator: Adobe Illustrator 21.1.0, SVG Export Plug-In . SVG Version: 6.00 Build 0)  -->
<svg version="1.1" id="レイヤー_1" xmlns="http://www.w3.org/2000/svg" xmlns:xlink="http://www.w3.org/1999/xlink" x="0px"
	 y="0px" viewBox="0 0 14 14" enable-background="new 0 0 14 14" xml:space="preserve">
<g id="bamiyan">
	<g>
		<path fill="#FFFFFF" d="M7.578,2.625C7.386,2.497,6.998,2.045,6.998,2.045S7.002,2.138,6.87,2.566
			c-0.133,0.448-1.211,0.61-1.211,0.61S4.404,5.046,4.281,5.12c-0.123,0.074-0.025,3.051,0,3.149c0.025,0.098,1.279,0.91,1.279,0.91
			l1.412-1.698C6.973,7.482,8.307,3.117,7.578,2.625z"/>
		<path fill="#FFFFFF" d="M3.691,10.125H1.54l-0.748,0.472l-0.709,0.261c0,0,0.177,0.069,0.448,0.118
			c0.271,0.049,2.569,0.01,2.844,0s1.019-0.236,1.019-0.236C4.05,10.558,3.691,10.125,3.691,10.125z"/>
		<path fill="#FFFFFF" d="M13.612,10.833l-1.156-0.669c0,0-1.742-0.507-2.146,0c-0.374,0.463-0.797,0.669-0.797,0.669l1.973,0.379
			l2.136-0.162l0.251-0.202L13.612,10.833z"/>
	</g>
	<path fill="#FF3399" d="M8.036,2.891c-0.29-0.113-0.536-0.31-0.773-0.556C7.288,2.64,7.17,2.802,7.027,3.004
		c-0.217,0.31-0.148,0.049-1.142,1.683C4.685,7.128,5.743,8.038,5.984,8.525C3.346,6.434,6.51,3.117,6.806,2.773
		C6.988,2.561,7.007,2.251,6.998,2.04c-0.01-0.01-0.02-0.02-0.025-0.03c-0.182,0.32-0.31,0.561-0.645,0.679
		c-1.831,0.659-3.627,2.19-3.627,4.335c0,2.367,1.909,4.281,4.272,4.281s4.272-1.919,4.272-4.281
		C11.24,5.11,10.004,3.649,8.036,2.891z"/>
	<path fill="#00864A" d="M3.946,10.381c0,0-0.468-0.467-0.517-0.586C3.075,9.539,2.952,9.441,2.259,9.401
		C1.55,9.436,1.584,9.416,1.437,9.362C1.52,9.618,1.707,9.707,1.924,9.825c-0.418,0.089-1.127,0.463-1.535,0.901
		C0.226,10.838,0,10.814,0,10.814s0.098,0.108,0.369,0.059c0.32-0.084,1.747-0.758,2.421-0.625
		C3.533,10.277,3.946,10.381,3.946,10.381z"/>
	<path fill="#00864A" d="M5.044,11.109c0,0-0.733-0.413-0.807-0.467c-0.074-0.059-0.709-0.305-1.53-0.231
		c-0.827,0.074-2.062,0.472-2.062,0.472s-0.34,0.054-0.369,0.044c0.34,0.266,0.999,0.6,1.526,0.576
		c0.694-0.034,1.319-0.246,1.319-0.246s-0.34,0.089-0.33,0.694c0.172-0.172,0.217-0.182,0.394-0.182
		c0.182,0,0.709,0.025,1.152-0.453C4.542,11.173,4.694,11.04,5.044,11.109z"/>
	<path fill="#003366" d="M10.054,10.425c0,0,0.468-0.467,0.517-0.586c0.354-0.256,0.477-0.354,1.171-0.394
		c0.709,0.034,0.674,0.015,0.822-0.039c-0.084,0.256-0.271,0.344-0.487,0.463c0.418,0.089,1.127,0.463,1.535,0.901
		C13.774,10.883,14,10.858,14,10.858s-0.098,0.108-0.369,0.059c-0.32-0.084-1.747-0.758-2.421-0.625
		C10.467,10.317,10.054,10.425,10.054,10.425z"/>
	<path fill="#003366" d="M8.956,11.148c0,0,0.733-0.413,0.807-0.467c0.074-0.059,0.709-0.305,1.53-0.231
		c0.827,0.074,2.062,0.472,2.062,0.472s0.34,0.054,0.369,0.044c-0.34,0.266-0.999,0.6-1.526,0.576
		c-0.694-0.034-1.319-0.246-1.319-0.246s0.34,0.089,0.33,0.694c-0.172-0.172-0.217-0.182-0.394-0.182
		c-0.182,0-0.709,0.025-1.152-0.453C9.458,11.217,9.306,11.084,8.956,11.148z"/>
</g>
</svg>
