<?xml version="1.0" encoding="utf-8"?>
<!-- Generator: Adobe Illustrator 21.1.0, SVG Export Plug-In . SVG Version: 6.00 Build 0)  -->
<svg version="1.1" id="レイヤー_1" xmlns="http://www.w3.org/2000/svg" xmlns:xlink="http://www.w3.org/1999/xlink" x="0px"
	 y="0px" viewBox="0 0 14 14" enable-background="new 0 0 14 14" xml:space="preserve">
<g>
	<path fill="#2B4B83" d="M10.779,3.577c-0.028-0.028-0.056-0.056-0.084-0.079c0.555-0.326,0.928-0.933,0.928-1.618
		C11.623,0.849,10.784,0,9.744,0C8.708,0,7.864,0.839,7.864,1.879c0,0.681,0.364,1.278,0.909,1.609
		C8.317,3.861,8.13,4.468,8.102,4.878v3.833c0.033,0.522-0.042,1.432-0.303,1.712L7.701,10.53c-0.415,0.443-0.569,0.583-0.97,0.583
		c-0.084,0-0.173-0.009-0.27-0.023c-0.616-0.084-1.012-0.387-1.087-0.816c-0.047-0.298,0.014-0.765,0.21-1.031
		c0.107-0.149,0.215-0.182,0.289-0.191C7.16,8.856,7.556,8.143,7.51,7.597L7.505,7.546C7.473,7.168,7.389,6.147,5.971,6.147H5.882
		C4.674,6.179,3.154,6.939,2.72,8.268c-0.229,0.718-0.937,2.891,0.751,4.37C4.576,13.608,5.085,14,6.642,14
		c0.294,0,0.625-0.014,1.017-0.028l0.718-0.284c0.998-0.392,1.744-0.923,2.127-1.828c0.042-0.089,0.084-0.182,0.131-0.27
		c0.27-0.578,0.583-1.231,0.611-3.12c0.033-2.066,0-3.568,0-3.568C11.236,4.808,11.255,4.076,10.779,3.577z"/>
	<g>
		<circle fill="#D6132C" cx="9.744" cy="1.879" r="1.371"/>
		<path fill="#D6132C" d="M9.744,3.666c-1.035,0-1.133,1.203-1.133,1.203V8.67c0,0,0.098,1.52-0.443,2.089
			c-0.541,0.569-0.825,0.951-1.777,0.825c-0.951-0.131-1.427-0.662-1.52-1.236C4.772,9.775,4.968,8.67,5.789,8.539
			c0.825-0.131,1.241-0.513,1.208-0.905C6.96,7.243,6.96,6.608,5.882,6.641S3.541,7.336,3.191,8.418
			c-0.35,1.077-0.695,2.691,0.606,3.833s1.581,1.334,3.829,1.203c1.045-0.41,2.122-1.138,2.406-1.809
			c0.284-0.662,0.667-1.105,0.695-3.199c0.033-2.099,0-3.582,0-3.582S10.784,3.666,9.744,3.666z"/>
	</g>
</g>
</svg>
