<?xml version="1.0" encoding="utf-8"?>
<!-- Generator: Adobe Illustrator 20.0.0, SVG Export Plug-In . SVG Version: 6.00 Build 0)  -->
<svg version="1.1" id="ousyou" xmlns="http://www.w3.org/2000/svg" xmlns:xlink="http://www.w3.org/1999/xlink" x="0px" y="0px"
	 viewBox="0 0 15 15" enable-background="new 0 0 15 15" xml:space="preserve">
<g>
	<polygon fill="#119E38" points="15,7.48 14,4.81 13.08,4.81 13.05,4.81 12.13,4.81 3.85,4.81 2.93,4.81 2.9,4.81 1.98,4.81 
		1.98,4.82 1.06,4.82 0,7.49 1.06,10.16 1.98,10.16 2.01,10.16 2.93,10.16 11.22,10.16 12.13,10.16 12.17,10.16 13.08,10.16 
		13.09,10.15 14,10.15 	"/>
	<polygon fill="#FD9415" points="13.54,4.81 12.62,4.81 12.59,4.81 11.68,4.81 3.39,4.81 2.47,4.81 2.44,4.81 1.52,4.81 0.46,7.48 
		1.52,10.15 2.44,10.15 2.47,10.15 3.39,10.15 11.68,10.15 12.59,10.15 12.62,10.15 13.54,10.15 14.54,7.48 	"/>
	<polygon fill="#FCDB1E" points="13.08,4.81 12.13,4.81 2.93,4.81 1.98,4.81 0.92,7.48 1.98,10.15 2.93,10.15 12.13,10.15 
		13.08,10.15 14.08,7.48 	"/>
	<polygon fill="#E91E24" points="12.61,4.81 13.61,7.48 12.61,10.15 2.45,10.15 1.39,7.48 2.45,4.81 	"/>
</g>
<path fill="#FFFFFF" d="M3.78,6.6L3.02,5.72c0,0-0.17-0.67,0.64,0c0.36,0.05,1.9-0.3,1.9-0.3s0.13-0.24,0.36-0.18
	c0.23,0.05,1.22,0.58,0.52,0.99c-0.62,0.01-0.99,0.1-0.99,0.1L5.29,7.11h0.72c0,0,0.33,0.02,0.34,0.37c0.01,0.35-0.25,0.53-0.4,0.54
	C5.8,8.03,5.36,8.01,5.33,8.12c-0.02,0.1-0.12,0.41,0.03,0.45c0.23,0.03,0.86,0,0.86,0s0.14-0.09,0.24-0.07
	c0.11,0.02,0.7,0.28,0.81,0.32C7.4,8.86,7.74,9.49,7.22,9.56C6.6,9.45,4.92,9.05,3.65,9.62C3.51,9.72,3.11,9.89,2.93,9.54
	S2.65,8.74,2.84,8.81c0.19,0.06,0.25,0.12,0.45,0.12c0.2,0,0.89-0.17,1.06-0.17c0.23-0.03,0.22-0.12,0.22-0.19
	c0-0.07,0.11-0.32-0.09-0.31c-0.2,0.01-0.46-0.01-0.57-0.04S3.66,7.74,3.25,7.57c-0.03-0.08-0.08-0.32,0.4-0.22
	C3.76,7.42,3.87,7.43,3.9,7.43c0.03,0,0.51-0.15,0.51-0.15S4.5,7.31,4.51,7.14c-0.03-0.2,0.07-0.55-0.26-0.55S3.87,6.69,3.78,6.6z"
	/>
<path fill="#FFFFFF" d="M12.23,7.31c-0.25,0-0.21-0.05-0.31-0.15c-0.09-0.09-0.05-0.21-0.05-0.21S12,6.8,12.31,6.61
	c0.39-0.36,0.14-0.46-0.14-0.64c-0.27-0.18-0.5-0.09-0.53-0.08c-0.03,0.01,0.03,0.48,0.03,0.48s-0.27,0.34-0.32,0.32
	c-0.04-0.02,0.05-0.41,0-0.47c-0.05-0.04-0.2-0.12-0.32-0.16c-0.12-0.04,0-0.14,0-0.14s0.14-0.07,0.44-0.07
	c0.31,0,0.43-0.2,0.43-0.28c0-0.08-0.27-0.21-0.43-0.33c-0.16-0.12-0.44-0.12-0.48,0c-0.04,0.12-0.61,0.47-0.8,0.57
	c-0.19,0.1-0.12,0.13-0.12,0.13l0.6,0.06l0.08,0.55l-0.18-0.19c0,0-0.25-0.26-0.37-0.35c-0.03-0.02-0.05-0.03-0.08-0.03
	c-0.07,0-0.12,0.09-0.16,0.29c0.12,0.2,0.23,0.43,0.42,0.79c0.13,0.28,0.25,0,0.28-0.07c0.03-0.07,0.23-0.18,0.23-0.18v0.36
	c0,0-0.21,0.2-0.36,0.32c-0.15,0.12-0.48,0.1-0.53,0.1c-0.04,0-0.51-0.19-0.51-0.19V7.25c0,0,0-0.84,0.05-1.05
	C9.7,6.17,9.72,5.96,9.69,5.86C9.37,5.31,8.86,5.3,8.73,5.38c-0.13,0.07,0.25,0.5,0.25,0.5s0,0.41,0,0.58
	c0,0.17-0.11,0.02-0.11,0.02S8.64,6.35,8.56,6.34C8.48,6.33,8.18,6.19,8.14,6.4C8.1,6.61,8.88,7.34,8.88,7.34s0,0.2,0,0.35
	c0,0.15-0.06,0.08-0.6,0.42c-0.55-0.02-0.3,0.46-0.19,1C8.19,9.65,8.56,9.05,8.7,8.7s0.19-0.21,0.19-0.21S8.78,8.91,9.01,9.52
	c0.23,0.61,0.45-0.07,0.45-0.07s0.01-0.92,0.01-1.08c0-0.16,0.02-0.17,0.07-0.31C9.71,8.37,9.74,8.2,9.88,8.21
	c0.14,0.01,0.35,0.43,0.57,0.71c0.23,0.28,0.32-0.03,0.43-0.03s0.44,0.58,0.6,0.79c0.16,0.22,0.24,0.15,0.54,0
	c0.3-0.15,0.18-0.66,0.18-0.66l-0.06-1.08c0,0,0.18,0,0.31,0s0.32-0.14,0.33-0.35C12.78,7.38,12.48,7.31,12.23,7.31z M10.95,8.73
	c0,0,0.09-0.15-0.41-0.84h1.09l0.05,1.01L10.95,8.73z"/>
</svg>
