<?xml version="1.0" encoding="utf-8"?>
<!-- Generator: Adobe Illustrator 21.1.0, SVG Export Plug-In . SVG Version: 6.00 Build 0)  -->
<svg version="1.1" id="レイヤー_1" xmlns="http://www.w3.org/2000/svg" xmlns:xlink="http://www.w3.org/1999/xlink" x="0px"
	 y="0px" viewBox="0 0 14 14" enable-background="new 0 0 14 14" xml:space="preserve">
<g>
	<path d="M13.557,2.164c-0.093-0.48-0.452-0.788-0.658-0.928c-0.28-0.196-0.574-0.294-0.867-0.294c-0.266,0-0.527,0.079-0.769,0.238
		c-0.098-0.424-0.406-0.714-0.658-0.886C10.325,0.098,10.031,0,9.737,0C8.945,0,8.24,0.695,7.653,2.066
		C7.34,2.784,7.149,3.479,7.093,3.703C7.033,3.694,6.972,3.694,6.916,3.694c-0.728,0-1.352,0.513-1.492,1.227
		c-0.07-0.014-0.159-0.014-0.247-0.005L5.13,4.925C4.472,5.107,3.819,5.2,3.194,5.2c-0.83,0-1.511-0.168-1.837-0.312
		C1.203,4.761,1.04,4.696,0.872,4.696c-0.224,0-0.499,0.121-0.606,0.471L0.205,5.358L0.289,5.54
		c0.252,0.546,0.284,1.963,0.252,2.728L0.536,8.413l0.215,0.48v0.019l0.07,0.126c0.051,0.098,0.131,0.177,0.224,0.233
		c-0.191,1.241-0.089,2.187,0.303,2.887c0.098,0.303,0.238,0.574,0.415,0.807C2.234,13.576,2.971,13.925,3.959,14h0.023h0.023
		c1.096-0.028,1.94-0.368,2.504-1.007c0.387-0.438,0.63-1.007,0.728-1.698c0.033-0.247,0.051-0.499,0.047-0.732l0.037,0.014
		c0.336,0.173,0.588,0.284,0.816,0.284H8.18c0.159-0.009,0.546-0.089,0.704-0.597c0.061-0.196,0.07-0.396,0.075-0.527V9.705
		c0.005-0.084,0.009-0.154,0.014-0.229c0.005-0.093,0.009-0.173,0.023-0.368c0.023-0.317,0.103-0.532,0.187-0.76
		C9.229,8.227,9.266,8.11,9.299,8.003c0.783-0.079,1.371-0.728,1.371-1.52c0-0.219-0.047-0.434-0.135-0.63
		c0.513-0.182,1.138-0.499,1.674-0.858c1.143-0.765,1.478-1.427,1.558-1.847C13.841,2.793,13.767,2.462,13.557,2.164z M9.593,0.527
		L9.593,0.527L9.593,0.527L9.593,0.527z M9.472,4.337C9.448,4.412,9.43,4.482,9.416,4.538c-0.07-0.023-0.14-0.042-0.21-0.051
		C9.294,4.44,9.383,4.388,9.472,4.337z M4.062,9.961c0.033-0.21,0.093-0.424,0.149-0.62l0.014-0.056
		C4.23,9.262,4.239,9.243,4.244,9.22c0.005-0.014,0.009-0.028,0.014-0.042c0.028-0.093,0.07-0.196,0.121-0.303
		C4.468,9.57,4.337,9.807,4.295,9.868C4.248,9.929,4.183,9.952,4.062,9.961z"/>
	<g id="bikkuri_x5F_donkyのコピー_5">
		<path fill="#FFCC00" d="M1.059,8.292c0,0,0.103-2.108-0.294-2.971c0.079-0.247,0.308,0,0.308,0s1.623,0.811,4.202,0.098
			c0.145-0.028,0.34,0.219,0.033,0.452C4.999,6.1,3.815,7.625,3.544,8.53c-0.163,0.569-0.597,1.819,0.359,1.945
			c0.261-0.014,1.572,0.191,0.755-2.738c-0.112-0.266-0.368-0.909,0.34-0.63c0.979,0.224,2.094-0.056,3.297-0.131
			C8.516,6.963,8.651,7.131,8.595,7.34C8.502,7.69,8.31,7.993,8.268,8.572C8.245,8.879,8.245,8.907,8.231,9.173
			C8.217,9.402,8.208,9.826,7.933,9.845C7.788,9.854,7.462,9.686,7.308,9.602c-0.182-0.051-0.359-0.196-0.583-0.35
			c-0.093-0.065-0.219,0.009-0.21,0.121c0.112,1.138,0.154,3.535-2.738,3.614c-1.889-0.14-2.654-1.38-2.173-3.941
			c0.145-0.574,0.555-1.236,0.555-1.236S2.42,7.438,2.145,7.485C1.87,7.648,1.278,8.208,1.278,8.208S1.138,8.436,1.059,8.292z"/>
		<circle fill="#F80E11" cx="6.921" cy="5.219" r="1.007"/>
		<circle fill="#F80E11" cx="8.935" cy="5.988" r="1.007"/>
		<path fill="#009933" d="M7.55,4.02c0,0,1.04-4.496,2.761-3.302C11.962,1.851,8.735,3.75,7.55,4.02z"/>
		<path fill="#009933" d="M9.845,4.962c0,0,1.04-4.496,2.761-3.302C14.252,2.798,11.02,4.692,9.845,4.962z"/>
	</g>
</g>
</svg>
