<?xml version="1.0" encoding="utf-8"?>
<!-- Generator: Adobe Illustrator 21.1.0, SVG Export Plug-In . SVG Version: 6.00 Build 0)  -->
<svg version="1.1" id="レイヤー_1" xmlns="http://www.w3.org/2000/svg" xmlns:xlink="http://www.w3.org/1999/xlink" x="0px"
	 y="0px" viewBox="0 0 22 10" enable-background="new 0 0 22 10" xml:space="preserve">
<g id="cocos">
	<rect x="0.005" y="-0.001" fill="#FFFFFF" width="21.99" height="10.002" rx="2" ry="2"/>
	<path fill="#583030" d="M2.981,6.159h1.026c0,0,0,1.005,0,1.694c0,0.689-0.279,1.804-1.745,1.804S0.84,8.146,0.84,8.146
		s0-4.825,0-5.346S1.053,1.194,2.49,1.194c1.437,0,1.51,1.76,1.51,1.76v1.782H3.04V3.959c0,0,0.125-0.704-0.616-0.704
		c-0.74,0-0.697,0.763-0.697,0.763s0,2.354,0,2.765s0.139,0.777,0.697,0.777c0.557,0,0.557-0.609,0.557-0.609V6.159z M8.061,2.859
		v5.148c0,0.865-0.711,1.569-1.569,1.569H6.338c-0.865,0-1.569-0.711-1.569-1.569V2.859c0-0.865,0.704-1.569,1.569-1.569h0.154
		C7.35,1.289,8.053,1.993,8.061,2.859z M7.144,3.973c0-0.33-0.271-0.609-0.608-0.609H6.294c-0.33,0-0.608,0.271-0.608,0.609v2.919
		c0,0.33,0.271,0.609,0.608,0.609h0.242c0.33,0,0.608-0.271,0.608-0.609V3.973z M10.971,6.951c0,0,0,0.609-0.557,0.609
		S9.717,7.193,9.717,6.782s0-2.765,0-2.765s-0.044-0.763,0.696-0.763c0.74,0,0.616,0.704,0.616,0.704v0.777h0.96V2.954
		c0,0-0.073-1.76-1.51-1.76C9.043,1.194,8.83,2.279,8.83,2.8s0,5.346,0,5.346s-0.044,1.511,1.422,1.511
		c1.466,0,1.745-1.115,1.745-1.804c0-0.689,0-1.694,0-1.694h-1.026V6.951z M16.05,2.859v5.148c0,0.865-0.711,1.569-1.569,1.569
		h-0.154c-0.865,0-1.569-0.711-1.569-1.569V2.859c0-0.865,0.711-1.569,1.569-1.569h0.154C15.347,1.289,16.05,1.993,16.05,2.859z
		 M15.142,3.973c0-0.33-0.271-0.609-0.608-0.609h-0.242c-0.33,0-0.608,0.271-0.608,0.609v2.919c0,0.33,0.271,0.609,0.608,0.609
		h0.242c0.33,0,0.608-0.271,0.608-0.609V3.973z M16.116,1.289c0,0,0.608,0.205,0.469,1.672c0.542-0.403,1.4-0.953,0.359-2.42
		L16.116,1.289z M21.13,6.826c0,0,0.198-1.122-1.18-1.709c-1.378-0.587-1.026-1.481-1.026-1.481s0.146-0.367,0.616-0.367
		c0.469,0,0.594,0.286,0.586,0.77c-0.007,0.484-0.007,0.726-0.007,0.726h1.004V2.859c0,0,0.022-1.613-1.708-1.613
		s-1.591,1.973-1.591,1.973v1.005c0,0,0.095,0.939,0.938,1.364c0.843,0.425,1.364,0.594,1.364,1.239
		c0,0.645-0.022,0.792-0.586,0.792s-0.718-0.528-0.718-0.719c0-0.191,0.022-0.711,0.022-0.711h-1.019v1.936
		c0,0-0.183,1.547,1.781,1.547C21.57,9.671,21.13,6.826,21.13,6.826z"/>
</g>
</svg>
