<?xml version="1.0" encoding="utf-8"?>
<!-- Generator: Adobe Illustrator 20.0.0, SVG Export Plug-In . SVG Version: 6.00 Build 0)  -->
<svg version="1.1" id="bamiyan" xmlns="http://www.w3.org/2000/svg" xmlns:xlink="http://www.w3.org/1999/xlink" x="0px" y="0px"
	 viewBox="0 0 15 15" enable-background="new 0 0 15 15" xml:space="preserve">
<path fill="#E5007F" d="M8.46,3.49c-0.27-0.1-0.49-0.28-0.71-0.51C7.76,3.26,7.65,3.41,7.53,3.6c-0.2,0.29-0.14,0.05-1.06,1.55
	C5.36,7.4,6.34,8.24,6.56,8.69C4.13,6.76,7.05,3.7,7.32,3.39C7.49,3.19,7.51,2.9,7.5,2.71C7.49,2.7,7.48,2.69,7.47,2.68
	C7.31,2.97,7.19,3.2,6.88,3.31c-1.69,0.61-3.35,2.02-3.35,4c0,2.18,1.76,3.95,3.94,3.95c2.18,0,3.94-1.77,3.94-3.95
	C11.42,5.54,10.27,4.19,8.46,3.49z"/>
<path fill="#005E3C" d="M4.68,10.41c0,0-0.43-0.43-0.48-0.54C3.88,9.63,3.76,9.54,3.12,9.5C2.47,9.53,2.5,9.52,2.36,9.46
	C2.44,9.7,2.61,9.78,2.81,9.89c-0.39,0.08-1.04,0.43-1.41,0.83c-0.15,0.11-0.36,0.08-0.36,0.08s0.09,0.1,0.34,0.05
	c0.3-0.08,1.61-0.7,2.24-0.58C4.3,10.31,4.68,10.41,4.68,10.41z"/>
<path fill="#005E3C" d="M5.69,11.08c0,0-0.68-0.38-0.75-0.43c-0.07-0.05-0.65-0.28-1.41-0.21c-0.76,0.07-1.9,0.44-1.9,0.44
	s-0.31,0.05-0.34,0.04c0.31,0.24,0.92,0.56,1.41,0.53c0.64-0.03,1.22-0.23,1.22-0.23s-0.31,0.08-0.3,0.64
	c0.16-0.16,0.2-0.17,0.37-0.17s0.65,0.02,1.06-0.42C5.23,11.14,5.37,11.01,5.69,11.08z"/>
<path fill="#023793" d="M10.32,10.44c0,0,0.43-0.43,0.48-0.54c0.33-0.24,0.44-0.33,1.08-0.37c0.65,0.03,0.62,0.02,0.76-0.04
	c-0.08,0.24-0.25,0.32-0.45,0.43c0.39,0.08,1.04,0.43,1.41,0.83c0.15,0.11,0.36,0.08,0.36,0.08s-0.09,0.1-0.34,0.05
	c-0.3-0.08-1.61-0.7-2.24-0.58C10.7,10.35,10.32,10.44,10.32,10.44z"/>
<path fill="#023793" d="M9.31,11.11c0,0,0.68-0.38,0.75-0.43c0.07-0.05,0.65-0.28,1.41-0.21c0.76,0.07,1.9,0.44,1.9,0.44
	s0.31,0.05,0.34,0.04c-0.31,0.24-0.92,0.56-1.41,0.53c-0.64-0.03-1.22-0.23-1.22-0.23s0.31,0.08,0.3,0.64
	c-0.16-0.16-0.2-0.17-0.37-0.17c-0.17,0-0.65,0.02-1.06-0.42C9.77,11.17,9.63,11.05,9.31,11.11z"/>
</svg>
