<?xml version="1.0" encoding="utf-8"?>
<!-- Generator: Adobe Illustrator 21.1.0, SVG Export Plug-In . SVG Version: 6.00 Build 0)  -->
<svg version="1.1" id="レイヤー_1" xmlns="http://www.w3.org/2000/svg" xmlns:xlink="http://www.w3.org/1999/xlink" x="0px"
	 y="0px" viewBox="0 0 32 12" enable-background="new 0 0 32 12" xml:space="preserve">
<g>
	<path fill="#81282C" d="M29.862,12H2.138c-0.91,0-1.655-0.745-1.655-1.655v-8.69C0.483,0.745,1.228,0,2.138,0h27.724
		c0.91,0,1.655,0.745,1.655,1.655v8.69C31.517,11.255,30.772,12,29.862,12z"/>
	<g>
		<path fill="#FFFFFF" d="M3.969,3.455C3.348,2.969,3.69,2.472,4.259,2.203c0.569-0.259,2.297-0.538,3.497,0
			C8.024,2.297,8.593,2.71,8.179,3.217c-0.31,0.197-0.31,0.3-0.279,0.528c0.083,0.248,0.807,1.79,0.807,1.79s0.269,0.393,0.445,0
			c0.176-0.393,0.828-1.883,0.828-1.883s0.217-0.279-0.341-0.528c-0.414-0.61,0.052-0.848,0.217-0.9
			c0.166-0.052,0.559-0.424,2.286-0.197c0.341,0.083,0.869,0.114,0.869,0.724c0.021,0.228-0.248,0.59-0.528,0.61
			c-0.279,0.021-0.414,0.021-0.579,0.331c-0.166,0.31-2.752,5.948-2.752,5.948s-0.279,0.497-0.817,0.476
			c-0.548-0.021-0.59-0.083-0.869-0.445C7.176,9.248,5.5,5.503,4.559,3.838C4.362,3.548,4.083,3.486,3.969,3.455z"/>
		<path fill="#FFFFFF" d="M15.483,8.131V5.834c0,0,0.01-0.197-0.341-0.331c-0.352-0.134-0.259-0.6,0-0.683
			c0.259-0.083,1.055-0.403,2.255-0.093C18.131,4.986,17.5,5.493,17.5,5.493s-0.259,0.083-0.259,0.3c0,0.217,0,2.348,0,2.348
			s-0.01,0.414,0.269,0.414s0.693,0.103,0.89-0.238c0.197-0.341,0.145-0.641,0.517-0.621c0.383,0.021,0.631,0.424,0.383,1.21
			c-0.103,0.248-0.31,0.662-0.631,0.683c-0.269-0.021-0.3-0.103-0.662-0.103c-0.362,0-2.659,0.052-2.659,0.052
			s-0.352-0.093-0.372-0.403c-0.021-0.145,0.072-0.331,0.238-0.393C15.379,8.597,15.431,8.524,15.483,8.131z"/>
		<path fill="#FFFFFF" d="M19.341,7.407V5.876c0,0,0.052-0.3-0.186-0.434c-0.238-0.217-0.486-0.683,0.279-0.869
			c0.693-0.041,1.521,0,1.521,0s0.497-0.041,0.486,0.403c-0.01,0.103,0.062,0.259-0.228,0.434c-0.041,0.041-0.103,0.052-0.134,0.238
			c0,0.145-0.021,0.403-0.021,0.403s0.062,0.228,0.207,0.041s0.507-0.683,0.507-0.683s-0.166-0.176-0.145-0.424
			c0.021-0.259,0.217-0.414,0.548-0.414s1.5,0,1.5,0s0.414-0.01,0.414,0.455c0,0.217-0.093,0.434-0.445,0.445
			c-0.352,0.01-0.352,0.01-0.352,0.01s-0.124-0.031-0.228,0.072s-0.631,0.641-0.631,0.641s-0.103,0.083-0.021,0.228
			c0.093,0.145,1.81,2.162,1.81,2.162s0.455,0.145,0.455,0.372s0.052,0.548-0.507,0.548c-0.559,0-1.634,0-1.634,0l-1.159-1.469
			c0,0-0.166-0.207-0.29,0c-0.021,0.114,0,0.579,0,0.579s0.341,0.093,0.383,0.31c0.031,0.217-0.01,0.507-0.466,0.538
			c-0.466,0.021-1.666,0.01-1.666,0.01S19.114,9.414,19.207,9.3c0.103-0.103,0.279-0.548,0.29-0.776
			c0.01-0.466,0.052-0.538-0.155-0.776C19.352,7.572,19.341,7.407,19.341,7.407z"/>
		<path fill="#FFFFFF" d="M27.907,6.145c0,0,0.497-0.414,0-1.128c-0.259-0.269-0.497-0.631-0.952-0.403
			c-0.31-0.041-1.438-0.31-2.038,0.124c-0.134,0.083-1.066,0.538-0.828,1.769c0.062,0.186,0.217,0.993,1.407,1.345
			c0.124,0.031,0.714,0.145,0.807,0.269c0.093,0.134,0.186,0.445-0.383,0.393s-0.828-0.31-0.983-0.559
			c-0.238-0.238-0.466-0.507-0.766-0.29c-0.3,0.217,0.041,0.817,0.238,0.869c0.176,0.103,0.341,0.134,0.372,0.321
			c0.031,0.186,0.021,0.434,0.021,0.434s0.031,0.145,0.228,0.155c0.197,0.021,0.962,0.217,1.707,0c0.341-0.062,1.19-0.29,1.51-1.117
			c0.083-0.341,0.321-0.952-0.383-1.697c-0.134-0.083-0.341-0.352-1.459-0.507c-0.166-0.062-0.476-0.186-0.455-0.362
			c0.021-0.176,0.434-0.445,0.838-0.103c0.062,0.062,0.414,0.31,0.455,0.352C27.286,6.052,27.472,6.321,27.907,6.145z"/>
		<path fill="#FFFFFF" d="M12.255,4.562C11.593,4.645,11.469,5.1,11.469,5.1l-1.117,2.4c-0.062,0.134-0.083,0.331,0,0.476
			c0.786,1.428,1.862,1.572,2.152,1.572c2.731,0.166,2.866-2.079,2.886-2.597C15.162,4.386,12.907,4.479,12.255,4.562z
			 M13.455,8.286c-0.228,0.124-0.528,0.207-0.776-0.145c0,0-0.548-0.621-0.683-1.645c-0.01-0.31,0-0.579,0.176-0.683
			c0.176-0.103,0.6-0.093,0.828,0.331C13.228,6.569,13.455,6.9,13.548,7.2C13.641,7.5,13.672,8.162,13.455,8.286z"/>
	</g>
</g>
</svg>
