<?xml version="1.0" encoding="utf-8"?>
<!-- Generator: Adobe Illustrator 20.1.0, SVG Export Plug-In . SVG Version: 6.00 Build 0)  -->
<svg version="1.1" id="レイヤー_1" xmlns="http://www.w3.org/2000/svg" xmlns:xlink="http://www.w3.org/1999/xlink" x="0px"
	 y="0px" viewBox="0 0 15 15" enable-background="new 0 0 15 15" xml:space="preserve">
<path fill="#2B4B83" d="M11,3.8C10.9,3.8,10.9,3.8,11,3.8c0.5-0.4,0.9-1.1,0.9-1.8c0-1.1-0.9-2-2-2c-1.1,0-2,0.9-2,2
	c0,0.7,0.4,1.4,1,1.7c-0.5,0.4-0.7,1-0.7,1.5v4.1c0,0.6,0,1.5-0.3,1.8l-0.1,0.1c-0.4,0.5-0.6,0.6-1,0.6c-0.1,0-0.2,0-0.3,0
	c-0.7-0.1-1.1-0.4-1.2-0.9c0-0.3,0-0.8,0.2-1.1c0.1-0.2,0.2-0.2,0.3-0.2c1.4-0.2,1.8-1,1.8-1.6l0-0.1c0-0.4-0.1-1.5-1.6-1.5H5.7
	c-1.3,0-2.9,0.8-3.4,2.3c-0.2,0.8-1,3.1,0.8,4.7c1.2,1,1.7,1.5,3.4,1.5c0.3,0,0.7,0,1.1,0l0.8-0.3c1.1-0.4,1.9-1,2.3-2
	c0-0.1,0.1-0.2,0.1-0.3c0.3-0.6,0.6-1.3,0.7-3.3c0-2.2,0-3.8,0-3.8C11.5,5.2,11.5,4.4,11,3.8z"/>
<g>
	<circle fill="#D6132C" cx="9.9" cy="2" r="1.5"/>
	<path fill="#D6132C" d="M9.9,3.9c-1.1,0-1.2,1.3-1.2,1.3v4.1c0,0,0.1,1.6-0.5,2.2s-0.9,1-1.9,0.9c-1-0.1-1.5-0.7-1.6-1.3
		c-0.1-0.6,0.1-1.8,1-1.9C6.5,9,7,8.6,6.9,8.2c0-0.4,0-1.1-1.2-1.1S3.2,7.9,2.8,9c-0.4,1.2-0.7,2.9,0.6,4.1s1.7,1.4,4.1,1.3
		c1.1-0.4,2.3-1.2,2.6-1.9c0.3-0.7,0.7-1.2,0.7-3.4c0-2.2,0-3.8,0-3.8S11,3.9,9.9,3.9z"/>
</g>
</svg>
