<?xml version="1.0" encoding="utf-8"?>
<!-- Generator: Adobe Illustrator 20.0.0, SVG Export Plug-In . SVG Version: 6.00 Build 0)  -->
<svg version="1.1" id="joyfull" xmlns="http://www.w3.org/2000/svg" xmlns:xlink="http://www.w3.org/1999/xlink" x="0px" y="0px"
	 viewBox="0 0 15 15" enable-background="new 0 0 15 15" xml:space="preserve">
<circle fill="#502700" cx="7.5" cy="7.5" r="7.5"/>
<path fill="#FFFFFF" d="M1.58,5.85c0,0-0.49,0.01-0.49-0.19c0-0.19,0.09-0.22,0.45-0.22s0.6,0,0.6,0V8c0,0-0.22,0.91-0.9,0.9
	S0.17,8.8,0.26,8.18c0.26-0.35,0.56-0.23,0.56-0.23S1.3,8.06,1.09,8.47c0.14,0.05,0.44-0.12,0.47-0.57S1.58,5.85,1.58,5.85z"/>
<path fill="#FFFFFF" d="M3.7,6.44C3.1,6.44,2.61,7,2.61,7.69S3.1,8.94,3.7,8.94s1.09-0.56,1.09-1.25S4.3,6.44,3.7,6.44z M3.7,8.48
	c-0.32,0-0.58-0.35-0.58-0.78c0-0.43,0.26-0.78,0.58-0.78S4.28,7.27,4.28,7.7C4.28,8.13,4.02,8.48,3.7,8.48z"/>
<path fill="#FFFFFF" d="M5.85,8.32L5.01,6.53h0.53l0.69,1.32l0.67-1.32h0.5l-1.2,2.73c0,0-0.26,0.46-0.85,0.46s-0.7-0.41-0.67-0.57
	c0.02-0.16,0.15-0.34,0.46-0.34c0.31,0,0.43,0.15,0.43,0.54c0.12-0.12,0.3-0.28,0.34-0.37C5.95,8.89,6.01,8.53,5.85,8.32z"/>
<path fill="#FFFFFF" d="M9.14,5.27C7.86,5.34,8.04,6.49,8.04,6.49v0.58H7.5v0.49h0.53V8.8H8.6V7.56h0.56V7.07H8.6V6.45
	c0-0.8,0.59-0.76,0.61-0.76c0,0.02,0,0.08,0,0.23c0,0.31,0.38,0.38,0.38,0.38s0.4,0,0.4-0.46S9.58,5.27,9.14,5.27z"/>
<path fill="#FFFFFF" d="M10.18,6.55H9.69L9.66,8.08c0,0-0.01,0.86,1.07,0.82c0.07,0,1.11,0.04,1.1-0.78s0-1.57,0-1.57h-0.56
	l0.01,1.37c0,0,0,0.52-0.5,0.51c-0.31,0-0.6-0.1-0.61-0.49C10.17,7.54,10.18,6.55,10.18,6.55z"/>
<path fill="#FFFFFF" d="M13.01,5.75h-0.82c0,0-0.17-0.04-0.18,0.16c0,0.13-0.01,0.24,0.43,0.23c0,2.5,0,2.59,0,2.59h0.87v-0.4
	l-0.24,0c0,0-0.06-0.01-0.06-0.08C13.02,8.2,13.01,5.75,13.01,5.75z"/>
<path fill="#FFFFFF" d="M14.44,5.75h-0.82c0,0-0.17-0.04-0.18,0.16c0,0.13-0.01,0.24,0.43,0.23c0,2.5,0,2.59,0,2.59h0.87v-0.4
	l-0.24,0c0,0-0.06-0.01-0.06-0.08C14.45,8.2,14.44,5.75,14.44,5.75z"/>
</svg>
