<?xml version="1.0" encoding="utf-8"?>
<!-- Generator: Adobe Illustrator 21.1.0, SVG Export Plug-In . SVG Version: 6.00 Build 0)  -->
<svg version="1.1" id="レイヤー_1" xmlns="http://www.w3.org/2000/svg" xmlns:xlink="http://www.w3.org/1999/xlink" x="0px"
	 y="0px" viewBox="0 0 14 14" enable-background="new 0 0 14 14" xml:space="preserve">
<g id="レイヤー_1_2_">
	<path fill="#FFFFFF" d="M12.706,10.988L9.695,14l-0.659-0.678L5.542,9.747v2.802H1.294V0h4.73c0.057,0,0.597,0.005,1.27,0.191
		c0.893,0.248,1.642,0.702,2.172,1.322c0.692,0.802,1.088,1.747,1.15,2.73c0.062,0.969-0.205,1.981-0.768,2.916l-0.01,0.019
		L9.823,7.198L9.804,7.227L9.78,7.265L9.752,7.298C9.632,7.446,9.513,7.58,9.403,7.699l2.683,2.673L12.706,10.988z"/>
	<g id="ringerhut">
		<path fill="#E7242C" d="M2.749,11.599H2.248V0.955h3.776c0.072,0,1.728,0.024,2.716,1.179c1.126,1.313,1.232,2.964,0.286,4.535
			L9.007,6.697C8.606,7.189,8.258,7.508,8.033,7.69l3.375,3.36l-0.353,0.353l-3.8-3.79l0.267-0.167
			c0.005-0.005,0.482-0.305,1.088-1.05C9.728,4.52,8.936,3.122,8.363,2.458C7.523,1.48,6.033,1.456,6.019,1.456h-3.27V11.599z"/>
		<path fill="#E7242C" d="M10.382,11.981L6.019,7.604l0.067-0.153c0.005-0.01,0.119-0.282,0.239-0.477l0.053-0.081l0.091-0.029
			c1.155-0.339,2.105-1.461,1.695-2.955c-0.401-1.461-2.134-1.58-2.21-1.585H3.661v9.274H3.165V1.823h2.807
			c0.1,0.005,2.177,0.143,2.673,1.952c0.482,1.742-0.625,3.103-1.938,3.537C6.673,7.375,6.64,7.437,6.616,7.494l4.124,4.134
			L10.382,11.981z"/>
		<path fill="#E7242C" d="M9.718,12.659L4.964,7.795l0.076-0.158c0,0,0.563-1.169,0.697-1.461L5.79,6.057l0.124-0.024
			c0.377-0.072,1.594-0.406,1.427-1.628c-0.148-1.069-1.418-1.098-1.47-1.098H4.587v8.291H4.091V2.807h1.78
			c0.606,0.005,1.795,0.329,1.962,1.527c0.172,1.26-0.778,1.938-1.695,2.158C5.995,6.792,5.704,7.403,5.566,7.69l4.506,4.616
			L9.718,12.659z"/>
	</g>
</g>
</svg>
