<?xml version="1.0" encoding="utf-8"?>
<!-- Generator: Adobe Illustrator 21.1.0, SVG Export Plug-In . SVG Version: 6.00 Build 0)  -->
<svg version="1.1" id="レイヤー_1" xmlns="http://www.w3.org/2000/svg" xmlns:xlink="http://www.w3.org/1999/xlink" x="0px"
	 y="0px" viewBox="0 0 16 16" enable-background="new 0 0 16 16" xml:space="preserve">
<g>
	<rect fill="#FFFFFF" width="16" height="16" rx="2" ry="2"/>
	<g>
		<path fill="#F65819" d="M4.859,5.664c1.333-1.749-0.4-2.283-0.4-2.283H1.877v0.736h0.448v3.531h0.933l0.032-1.584
			c0,0,0.411,0,0.939,0l0.064,0.288c0.043,0.197,0.091,0.421,0.123,0.544l0,0H3.808v0.133v0.619H5.36V6.896L4.859,5.664z
			 M3.243,5.285V4.149c0,0,0.651,0,0.901,0c0.251,0,0.432,0.181,0.416,0.651C4.544,5.269,4.043,5.285,4.043,5.285H3.243z"/>
		<path fill="#F65819" d="M6.875,4.533H6.629c-0.587,0-1.067,0.48-1.067,1.067v1.051c0,0.587,0.48,1.067,1.067,1.067h0.245
			c0.587,0,1.067-0.48,1.067-1.067V5.6C7.941,5.013,7.461,4.533,6.875,4.533z M7.173,6.704c0,0.176-0.144,0.32-0.32,0.32H6.651
			c-0.176,0-0.32-0.144-0.32-0.32V5.547c0-0.176,0.144-0.32,0.32-0.32h0.203c0.176,0,0.32,0.144,0.32,0.32V6.704z"/>
		<polygon fill="#F65819" points="10.64,4.645 9.195,4.645 9.195,5.285 9.797,5.285 9.44,6.309 8.896,4.645 8.011,4.645 
			9.056,7.397 8.864,7.957 7.941,7.957 7.941,8.613 9.355,8.613 9.803,7.445 9.808,7.445 9.808,7.44 10.64,5.285 		"/>
		<path fill="#F65819" d="M12.709,3.381v0.768h0.619v2.875h-0.331c0,0,0-1.323,0-1.803S12.347,4.64,12.347,4.64h-0.784h-0.181
			h-0.368h-0.165v1.003l0.715-0.133V5.28c0.677,0.011,0.699,0.117,0.635,0.496c-0.8,0.016-1.349,0.032-1.349,0.843
			s0.357,1.024,0.357,1.024h2.923V3.376L12.709,3.381L12.709,3.381z M12.224,7.024c0,0-0.619,0.149-0.667-0.299
			s0.667-0.299,0.667-0.299V7.024z"/>
	</g>
	<g>
		<polygon fill="#F65819" points="5.424,8.976 5.424,10.688 4.224,10.688 4.224,9.755 4.224,9.157 4.224,8.976 2.789,8.976 
			2.789,9.755 3.36,9.755 3.36,13.243 4.224,13.243 4.224,11.488 5.424,11.488 5.424,12.533 4.912,12.533 4.912,13.243 
			6.379,13.243 6.379,13.003 6.379,12.533 6.379,8.976 		"/>
		<path fill="#F65819" d="M8.037,10.059H7.792c-0.587,0-1.067,0.48-1.067,1.067v1.051c0,0.587,0.48,1.067,1.067,1.067h0.245
			c0.587,0,1.067-0.48,1.067-1.067v-1.051C9.104,10.539,8.624,10.059,8.037,10.059z M8.336,12.229c0,0.176-0.144,0.32-0.32,0.32
			H7.813c-0.176,0-0.32-0.144-0.32-0.32v-1.157c0-0.176,0.144-0.32,0.32-0.32h0.203c0.176,0,0.32,0.144,0.32,0.32V12.229z"/>
		<path fill="#F65819" d="M12.603,12.192v-1.349h0.576v-0.597v-0.112h-0.576V9.221h-0.827v0.912h-1.307c0,0-1.088-0.075-1.088,0.976
			c-0.021,0.357,0.245,0.736,1.397,1.024c0.32,0.635-0.64,0.437-0.64,0.437l0.005-0.283l-0.768-0.224v1.179h1.403
			c0,0,0.779-0.027,0.821-0.693c0.043-0.661-0.16-0.853-0.821-1.072c-0.485-0.075-0.864-0.427-0.469-0.64h1.456v1.28
			c0,0-0.064,1.12,0.592,1.12s0.843,0,0.843,0v-0.693C13.211,12.555,12.603,12.768,12.603,12.192z"/>
	</g>
</g>
</svg>
