<?xml version="1.0" encoding="utf-8"?>
<!-- Generator: Adobe Illustrator 20.1.0, SVG Export Plug-In . SVG Version: 6.00 Build 0)  -->
<svg version="1.1" id="レイヤー_1" xmlns="http://www.w3.org/2000/svg" xmlns:xlink="http://www.w3.org/1999/xlink" x="0px"
	 y="0px" viewBox="0 0 15 15" enable-background="new 0 0 15 15" xml:space="preserve">
<path d="M14.5,2.3c-0.1-0.5-0.5-0.8-0.7-1C13.5,1.1,13.2,1,12.9,1c-0.3,0-0.6,0.1-0.8,0.3c-0.1-0.5-0.4-0.8-0.7-0.9
	C11.1,0.1,10.7,0,10.4,0C9.6,0,8.8,0.7,8.2,2.2C7.9,3,7.7,3.7,7.6,4C7.5,4,7.5,4,7.4,4C6.6,4,6,4.5,5.8,5.3c-0.1,0-0.2,0-0.3,0l0,0
	C4.8,5.5,4.1,5.6,3.4,5.6c-0.9,0-1.6-0.2-2-0.3C1.3,5.1,1.1,5,0.9,5C0.7,5,0.4,5.2,0.3,5.5L0.2,5.7l0.1,0.2C0.6,6.5,0.6,8,0.6,8.9
	l0,0.2l0.2,0.5v0l0.1,0.1C0.9,9.8,1,9.9,1.1,9.9C0.9,11.3,1,12.3,1.4,13c0.1,0.3,0.3,0.6,0.4,0.9c0.5,0.7,1.3,1,2.4,1.1h0h0
	c1.2,0,2.1-0.4,2.7-1.1c0.4-0.5,0.7-1.1,0.8-1.8c0-0.3,0.1-0.5,0-0.8l0,0c0.4,0.2,0.6,0.3,0.9,0.3h0c0.2,0,0.6-0.1,0.8-0.6
	c0.1-0.2,0.1-0.4,0.1-0.6v0c0-0.1,0-0.2,0-0.2c0-0.1,0-0.2,0-0.4c0-0.3,0.1-0.6,0.2-0.8c0-0.1,0.1-0.3,0.1-0.4
	c0.8-0.1,1.5-0.8,1.5-1.6c0-0.2,0-0.5-0.1-0.7c0.5-0.2,1.2-0.5,1.8-0.9c1.2-0.8,1.6-1.5,1.7-2C14.8,3,14.8,2.6,14.5,2.3z M10.3,0.6
	L10.3,0.6L10.3,0.6L10.3,0.6z M10.1,4.6c0,0.1,0,0.2-0.1,0.2c-0.1,0-0.1,0-0.2-0.1C10,4.8,10.1,4.7,10.1,4.6z M4.4,10.7
	c0-0.2,0.1-0.5,0.2-0.7l0-0.1c0,0,0,0,0-0.1c0,0,0,0,0,0c0-0.1,0.1-0.2,0.1-0.3c0.1,0.7,0,1-0.1,1.1C4.6,10.6,4.5,10.7,4.4,10.7z"/>
<g id="bikkuri_x5F_donkyのコピー_5">
	<path fill="#FFCC00" d="M1.1,8.9c0,0,0.1-2.3-0.3-3.2c0.1-0.3,0.3,0,0.3,0s1.7,0.9,4.5,0.1c0.2,0,0.4,0.2,0,0.5
		C5.4,6.5,4.1,8.2,3.8,9.1c-0.2,0.6-0.6,1.9,0.4,2.1c0.3,0,1.7,0.2,0.8-2.9C4.9,8,4.6,7.3,5.4,7.6c1,0.2,2.2-0.1,3.5-0.1
		c0.2,0,0.4,0.2,0.3,0.4C9.1,8.2,8.9,8.6,8.9,9.2c0,0.3,0,0.4,0,0.6c0,0.2,0,0.7-0.3,0.7c-0.2,0-0.5-0.2-0.7-0.3
		c-0.2-0.1-0.4-0.2-0.6-0.4C7.1,9.8,7,9.9,7,10c0.1,1.2,0.2,3.8-2.9,3.9c-2-0.1-2.8-1.5-2.3-4.2c0.2-0.6,0.6-1.3,0.6-1.3
		S2.6,8,2.3,8C2,8.2,1.4,8.8,1.4,8.8S1.2,9,1.1,8.9z"/>
	<circle fill="#F80E11" cx="7.4" cy="5.6" r="1.1"/>
	<circle fill="#F80E11" cx="9.6" cy="6.4" r="1.1"/>
	<path fill="#009933" d="M8.1,4.3c0,0,1.1-4.8,3-3.5C12.8,2,9.4,4,8.1,4.3z"/>
	<path fill="#009933" d="M10.5,5.3c0,0,1.1-4.8,3-3.5C15.3,3,11.8,5,10.5,5.3z"/>
</g>
</svg>
