<?xml version="1.0" encoding="utf-8"?>
<!-- Generator: Adobe Illustrator 23.1.1, SVG Export Plug-In . SVG Version: 6.00 Build 0)  -->
<svg version="1.1" id="レイヤー_1" xmlns="http://www.w3.org/2000/svg" xmlns:xlink="http://www.w3.org/1999/xlink" x="0px"
	 y="0px" viewBox="0 0 28 10" enable-background="new 0 0 28 10" xml:space="preserve">
<g id="joyfull">
	<rect fill="#663300" width="28" height="10" rx="2" ry="2"/>
	<path fill="#FFFFFF" d="M2.893,1.155c0.681,0,1.111,0,1.111,0v4.779c0,0-0.411,1.699-1.671,1.671S0.326,7.438,0.494,6.27
		C0.98,5.607,1.54,5.831,1.54,5.831s0.896,0.205,0.513,0.971c0.271,0.093,0.821-0.215,0.868-1.064C2.968,4.89,2.949,1.92,2.949,1.92
		S2.044,1.929,2.044,1.565S2.212,1.155,2.893,1.155z M8.941,5.355c0,1.279-0.915,2.324-2.035,2.324S4.87,6.635,4.87,5.355
		s0.915-2.324,2.035-2.324C8.036,3.031,8.941,4.067,8.941,5.355z M7.989,5.383c0-0.793-0.485-1.447-1.083-1.447
		c-0.597,0-1.083,0.644-1.083,1.447c0,0.793,0.485,1.447,1.083,1.447C7.504,6.829,7.999,6.185,7.989,5.383z M11.639,5.663
		l-1.299-2.474H9.343L10.92,6.54c0.299,0.392,0.196,1.045,0.121,1.251c-0.073,0.177-0.401,0.465-0.625,0.69
		c0.009-0.737-0.205-1.017-0.793-1.017S8.803,7.791,8.755,8.089c-0.047,0.299,0.168,1.064,1.26,1.064s1.587-0.868,1.587-0.868
		l2.24-5.096h-0.943L11.639,5.663z M18.629,1.892c0-0.849-0.737-1.045-1.559-1.045c-2.389,0.121-2.07,2.277-2.07,2.277v1.073h-0.991
		v0.915h0.989v2.315h1.055V5.112h1.045V4.197h-1.045V3.04c0-1.493,1.111-1.428,1.139-1.428c0,0.037-0.009,0.149-0.009,0.429
		c0,0.579,0.7,0.709,0.7,0.709S18.629,2.741,18.629,1.892z M21.037,3.245l0.028,2.557c0,0-0.009,0.971-0.933,0.952
		c-0.579,0-1.111-0.177-1.129-0.924c-0.019-0.747,0-2.595,0-2.595h-0.924L18.032,6.09c0,0-0.028,1.605,1.988,1.531
		c0.14,0,2.081,0.075,2.063-1.447c-0.019-1.521,0-2.931,0-2.931h-1.046V3.245z M24.304,6.428c0-0.131-0.019-4.695-0.019-4.695
		h-1.531c0,0-0.317-0.075-0.336,0.299c0.009,0.233-0.028,0.457,0.812,0.439c0,4.657,0.009,4.844,0.009,4.844h1.633V6.568
		l-0.457,0.009C24.416,6.577,24.304,6.559,24.304,6.428z M27.076,6.577c0,0-0.112-0.019-0.112-0.149
		c0-0.131-0.019-4.695-0.019-4.695h-1.531c0,0-0.317-0.075-0.336,0.299c0.009,0.233-0.028,0.457,0.812,0.439
		c0,4.657,0.009,4.844,0.009,4.844h1.633V6.568L27.076,6.577z"/>
</g>
</svg>
