<?xml version="1.0" encoding="utf-8"?>
<!-- Generator: Adobe Illustrator 21.1.0, SVG Export Plug-In . SVG Version: 6.00 Build 0)  -->
<svg version="1.1" id="レイヤー_1" xmlns="http://www.w3.org/2000/svg" xmlns:xlink="http://www.w3.org/1999/xlink" x="0px"
	 y="0px" viewBox="0 0 28 10" enable-background="new 0 0 28 10" xml:space="preserve">
<g id="ousyou">
	<g>
		<polygon fill="#119E38" points="28,4.991 26.133,0.007 24.425,0.007 24.369,0.007 22.652,0.007 7.177,0.007 5.469,0.007 
			5.413,0.007 3.696,0.007 3.687,0.016 1.979,0.016 0,5.009 1.979,9.993 3.696,9.993 3.752,9.993 5.469,9.993 20.935,9.993 
			22.652,9.993 22.708,9.993 24.425,9.993 24.425,9.975 26.133,9.975 		"/>
		<polygon fill="#FD9415" points="25.284,0.016 23.567,0.016 23.511,0.016 21.793,0.016 6.328,0.016 4.611,0.016 4.555,0.016 
			2.837,0.016 0.859,5 2.837,9.984 4.555,9.984 4.611,9.984 6.328,9.984 21.793,9.984 23.511,9.984 23.567,9.984 25.284,9.984 
			27.141,5 		"/>
		<polygon fill="#FFE318" points="24.425,0.016 22.652,0.016 5.469,0.016 3.696,0.016 1.717,5 3.696,9.984 5.469,9.984 
			22.652,9.984 24.425,9.984 26.283,5 		"/>
		<polygon fill="#DA2703" points="23.539,0.016 25.396,5 23.539,9.984 4.583,9.984 2.604,5 4.583,0.016 		"/>
	</g>
	<path fill="#FFFFFF" d="M7.065,3.348L5.628,1.705c0,0-0.317-1.251,1.204,0c0.672,0.103,3.537-0.551,3.537-0.551
		s0.233-0.439,0.672-0.345s2.287,1.073,0.961,1.857c-1.157,0.019-1.848,0.196-1.848,0.196L9.884,4.309h1.335
		c0,0,0.607,0.037,0.635,0.691c0.028,0.653-0.476,0.989-0.747,1.008c-0.271,0.019-1.101-0.019-1.139,0.177
		c-0.037,0.196-0.215,0.765,0.056,0.84c0.429,0.056,1.615,0,1.615,0s0.252-0.177,0.457-0.14c0.196,0.037,1.297,0.523,1.512,0.607
		c0.215,0.075,0.849,1.251-0.121,1.391c-1.157-0.215-4.293-0.952-6.673,0.112C6.561,9.172,5.805,9.499,5.479,8.836
		C5.143,8.173,4.947,7.352,5.301,7.473c0.355,0.121,0.476,0.215,0.849,0.215c0.373,0,1.652-0.317,1.988-0.317
		c0.429-0.056,0.411-0.215,0.411-0.355c0-0.14,0.196-0.607-0.177-0.588C7.999,6.447,7.504,6.409,7.308,6.353
		C7.112,6.297,6.832,5.476,6.067,5.159C6.011,5,5.908,4.552,6.813,4.748c0.215,0.121,0.411,0.14,0.476,0.14
		c0.065,0,0.943-0.271,0.943-0.271s0.177,0.056,0.196-0.252c-0.056-0.373,0.14-1.036-0.495-1.036S7.215,3.525,7.065,3.348z"/>
	<path fill="#FFFFFF" d="M22.829,4.673c-0.476,0-0.392-0.103-0.569-0.271c-0.177-0.177-0.103-0.392-0.103-0.392
		s0.233-0.289,0.831-0.644c0.728-0.663,0.252-0.859-0.252-1.195c-0.513-0.336-0.924-0.177-0.98-0.159
		c-0.056,0.019,0.056,0.896,0.056,0.896s-0.513,0.625-0.588,0.588c-0.075-0.037,0.103-0.765,0-0.877
		c-0.103-0.075-0.373-0.215-0.588-0.289c-0.215-0.075,0-0.252,0-0.252s0.252-0.14,0.831-0.14s0.803-0.373,0.803-0.532
		s-0.513-0.392-0.803-0.616c-0.299-0.224-0.831-0.224-0.905,0s-1.139,0.868-1.493,1.064s-0.215,0.233-0.215,0.233l1.12,0.112
		l0.159,1.036l-0.336-0.355c0,0-0.476-0.485-0.691-0.644c-0.056-0.037-0.103-0.056-0.149-0.065c-0.131,0-0.215,0.168-0.308,0.551
		c0.215,0.373,0.429,0.803,0.784,1.484c0.233,0.523,0.476,0,0.532-0.14s0.429-0.336,0.429-0.336v0.663c0,0-0.392,0.373-0.672,0.588
		s-0.905,0.187-0.98,0.187s-0.943-0.355-0.943-0.355V4.561c0,0,0-1.559,0.103-1.951c0.215-0.056,0.252-0.448,0.196-0.644
		c-0.588-1.017-1.549-1.036-1.792-0.896c-0.233,0.14,0.476,0.933,0.476,0.933s0,0.765,0,1.073c0,0.317-0.196,0.037-0.196,0.037
		s-0.429-0.233-0.588-0.252c-0.159-0.019-0.709-0.271-0.784,0.112c-0.075,0.392,1.381,1.755,1.381,1.755s0,0.373,0,0.644
		s-0.121,0.159-1.12,0.784c-1.027-0.037-0.551,0.859-0.355,1.876s0.887-0.121,1.139-0.765s0.355-0.392,0.355-0.392
		s-0.196,0.784,0.233,1.913c0.429,1.129,0.849-0.14,0.849-0.14s0.019-1.717,0.019-2.007s0.037-0.317,0.14-0.588
		c0.299,0.588,0.355,0.271,0.607,0.289c0.252,0.019,0.653,0.803,1.073,1.325c0.42,0.523,0.597-0.056,0.803-0.056
		c0.205,0,0.831,1.073,1.12,1.484c0.299,0.411,0.457,0.271,1.008,0c0.551-0.271,0.336-1.232,0.336-1.232L22.68,5.859
		c0,0,0.336,0,0.569,0s0.588-0.252,0.607-0.663C23.847,4.795,23.296,4.673,22.829,4.673z M20.449,7.333c0,0,0.177-0.271-0.765-1.559
		h2.025l0.103,1.895L20.449,7.333z"/>
</g>
</svg>
