<?xml version="1.0" encoding="utf-8"?>
<!-- Generator: Adobe Illustrator 21.1.0, SVG Export Plug-In . SVG Version: 6.00 Build 0)  -->
<svg version="1.1" id="レイヤー_1" xmlns="http://www.w3.org/2000/svg" xmlns:xlink="http://www.w3.org/1999/xlink" x="0px"
	 y="0px" viewBox="0 0 16 16" enable-background="new 0 0 16 16" xml:space="preserve">
<g id="レイヤー_5">
	<path d="M0.031,14.356h15.938c0,0-5.318-5.95-5.318-12.909c-0.568,0.276-0.85,0.398-1.328,0.637
		c-0.43-0.234-0.792-0.398-1.333-0.691C7.416,1.686,7.076,1.851,6.672,2.084C6.22,1.861,5.875,1.728,5.338,1.42
		C5.338,8.528,2.438,12.072,0.031,14.356z"/>
	<path fill="#0099CC" d="M14.614,13.666H1.519c1.801-1.711,3.331-4.707,3.99-7.985c0.005-0.027,0.011-0.053,0.016-0.08
		c0.011-0.064,0.027-0.122,0.037-0.186s0.021-0.128,0.032-0.191c0.043-0.255,0.085-0.515,0.117-0.77
		c0-0.011,0.005-0.027,0.005-0.037c0.09-0.696,0.138-1.397,0.138-2.093c0.26,0.165,0.696,0.414,0.807,0.467l0,0c0,0,0,0,0.005,0
		C7.192,2.499,7.495,2.355,7.979,2.1C7.984,2.106,7.989,2.106,8,2.111c0.021,0.011,0.043,0.021,0.064,0.032
		C8.42,2.323,8.85,2.562,9.312,2.791l0,0c0.197-0.096,0.733-0.377,0.93-0.467l0,0c0,0.802,0.085,1.599,0.234,2.38
		c0.058,0.313,0.127,0.627,0.207,0.93c0,0,0,0,0,0.005c0.011,0.053,0.027,0.106,0.043,0.159c0.011,0.032,0.016,0.069,0.027,0.101
		c0.106,0.382,0.218,0.76,0.345,1.132c0.51,1.503,1.179,2.874,1.796,3.974C13.817,12.635,14.614,13.666,14.614,13.666z"/>
	<path fill="#56C0DD" d="M14.614,13.666H1.519c1.801-1.711,3.331-4.707,3.99-7.985c0.005-0.027,0.011-0.053,0.016-0.08
		c0.011-0.064,0.027-0.122,0.037-0.186c0.186-1.02,0.292-2.061,0.292-3.097c0.26,0.165,0.701,0.42,0.813,0.473
		C7.193,2.499,7.495,2.355,7.984,2.1c0.005,0.005,0.011,0.005,0.021,0.011c0.021,0.011,0.043,0.021,0.064,0.032
		c0.356,0.181,0.786,0.42,1.248,0.648c0.197-0.096,0.733-0.377,0.935-0.467c0,0.802,0.085,1.599,0.234,2.38
		c0.058,0.313,0.127,0.627,0.207,0.935c0.011,0.053,0.027,0.106,0.043,0.159c0.011,0.032,0.016,0.069,0.027,0.101
		c0.106,0.383,0.218,0.76,0.345,1.132c0.51,1.503,1.179,2.874,1.796,3.974C13.817,12.635,14.614,13.666,14.614,13.666z"/>
	<path fill="#0099CC" d="M12.903,11.009l-1.153,2.656H4.839l4.17-9.6l1.477,0.643c0.058,0.313,0.127,0.627,0.207,0.935
		c0.011,0.053,0.027,0.106,0.042,0.159c0.011,0.032,0.016,0.069,0.027,0.101c0.106,0.383,0.218,0.76,0.345,1.132
		C11.618,8.539,12.293,9.91,12.903,11.009z"/>
	<path fill="#0078B4" d="M14.614,13.666H8.228l2.879-6.63c0.51,1.503,1.179,2.874,1.796,3.974
		C13.817,12.635,14.614,13.666,14.614,13.666z"/>
	<path fill="#FFFFFF" d="M10.693,5.638l-0.005-0.005L9.195,4.927L8.069,5.989L6.943,4.927L5.524,5.601
		c0.011-0.064,0.027-0.122,0.037-0.186s0.021-0.128,0.032-0.191c0.043-0.255,0.085-0.51,0.117-0.77c0-0.011,0.005-0.027,0.005-0.037
		c0.09-0.696,0.138-1.397,0.138-2.093V2.318c0.26,0.165,0.696,0.414,0.807,0.473c0,0,0,0,0.005,0C7.192,2.499,7.495,2.355,7.979,2.1
		c0,0,0,0,0.005,0c0.005,0.005,0.011,0.005,0.021,0.011c0.021,0.011,0.043,0.021,0.064,0.032c0.223,0.112,0.473,0.25,0.744,0.393
		c0.106,0.058,0.218,0.112,0.335,0.17c0.053,0.027,0.112,0.058,0.17,0.085l0,0c0.197-0.096,0.723-0.372,0.93-0.467h0.005l0,0h0.005
		c-0.005,1.052,0.138,2.104,0.382,3.113C10.662,5.506,10.677,5.569,10.693,5.638z"/>
	<path fill="#B4DEF9" d="M10.693,5.638L9.195,4.927L8.287,5.782L9.673,2.61c0.218-0.112,0.457-0.234,0.579-0.287
		C10.252,3.444,10.417,4.565,10.693,5.638z"/>
</g>
</svg>
