<?xml version="1.0" encoding="utf-8"?>
<!-- Generator: Adobe Illustrator 20.0.0, SVG Export Plug-In . SVG Version: 6.00 Build 0)  -->
<svg version="1.1" id="gakkou" xmlns="http://www.w3.org/2000/svg" xmlns:xlink="http://www.w3.org/1999/xlink" x="0px" y="0px"
	 viewBox="0 0 15 15" enable-background="new 0 0 15 15" xml:space="preserve">
<path d="M12.65,10.94l-0.15,0.03c-0.32,0.07-0.64,0.1-0.97,0.1c-1.13,0-2.28-0.41-3.34-1.19c1.5-1.41,2.59-3.4,3.09-5.63h1.41v-0.8
	H7.85V1.5h-0.8v1.95H2.2v0.8h1.66c0.5,2.23,1.59,4.22,3.09,5.63c-1.05,0.78-2.21,1.19-3.34,1.19c-0.32,0-0.65-0.03-0.96-0.1
	L2.5,10.94l-0.17,0.79l0.15,0.03c0.37,0.08,0.75,0.12,1.13,0.12c0.58,0,1.18-0.09,1.76-0.28c0.77-0.24,1.51-0.64,2.2-1.18
	c0.69,0.54,1.43,0.94,2.2,1.18c0.59,0.19,1.18,0.28,1.76,0.28c0.38,0,0.76-0.04,1.13-0.12l0.15-0.03L12.65,10.94z M7.57,9.57
	C6.12,8.27,5.04,6.39,4.53,4.25h6.09C10.09,6.48,8.97,8.32,7.57,9.57z"/>
</svg>
