<?xml version="1.0" encoding="utf-8"?>
<!-- Generator: Adobe Illustrator 20.1.0, SVG Export Plug-In . SVG Version: 6.00 Build 0)  -->
<svg version="1.1" id="gas_x5F_station" xmlns="http://www.w3.org/2000/svg" xmlns:xlink="http://www.w3.org/1999/xlink" x="0px"
	 y="0px" viewBox="0 0 15 15" enable-background="new 0 0 15 15" xml:space="preserve">
<path d="M11.7284,1.9183H4.9132c-0.1439,0-0.2894,0.1428-0.2894,0.299v6.2129c-0.2238,0.9377-0.4346,1.7003-0.628,2.2565
	c-0.1704,0.4902-0.305,0.7616-0.3987,0.9111c-0.0606-0.1434-0.1126-0.3926-0.181-0.8212c-0.0694-0.435-0.0761-0.8447-0.0761-0.8864
	V8.231h0.089c0.2385,0,0.4459-0.1389,0.4459-0.2828V4.6165c0-0.144-0.2074-0.2373-0.4459-0.2373H3.1793V3.5516l0.8717-0.806
	L3.5896,2.5607l-0.8917,0.891v0.9276H2.5613c-0.2385,0-0.452,0.0933-0.452,0.2373v3.3317c0,0.144,0.2135,0.2828,0.452,0.2828h-0.024
	c0,0,0.1117,2.1931,0.202,2.7058c0.1551,0.8796,0.3734,1.1955,0.7973,1.2074c0.0082,0.0002,0.0228,0.0003,0.0308,0.0003
	c0.4044,0,0.6554-0.292,0.9743-1.136c0.0265-0.07,0.0549-0.164,0.0819-0.2414v2.3858h7.3293V2.2173
	C11.9531,2.0612,11.8725,1.9183,11.7284,1.9183z M11.0146,6.0007c0,0.3678-0.2892,0.6687-0.6425,0.6687H6.1399
	c-0.3534,0-0.6425-0.3009-0.6425-0.6687V3.9349c0-0.3678,0.2892-0.6687,0.6425-0.6687h4.2322c0.3534,0,0.6425,0.3009,0.6425,0.6687
	V6.0007z"/>
</svg>
