<?xml version="1.0" encoding="utf-8"?>
<!-- Generator: Adobe Illustrator 20.0.0, SVG Export Plug-In . SVG Version: 6.00 Build 0)  -->
<svg version="1.1" id="ginkou" xmlns="http://www.w3.org/2000/svg" xmlns:xlink="http://www.w3.org/1999/xlink" x="0px" y="0px"
	 viewBox="0 0 15 15" enable-background="new 0 0 15 15" xml:space="preserve">
<path d="M7.5,13.3c-1.7,0-3.4-0.7-4.5-1.9l-0.2-0.2l0.3-0.2c1-0.8,1.5-2,1.5-3.3S4,5,3.1,4.2L2.8,4L3,3.7c1.1-1.2,2.8-1.9,4.5-1.9
	s3.4,0.7,4.5,1.9L12.2,4L12,4.2c-1,0.8-1.5,2-1.5,3.3S11,10,12,10.8l0.3,0.2L12,11.3C10.9,12.5,9.2,13.3,7.5,13.3z M3.7,11.1
	c1,1,2.4,1.5,3.8,1.5c1.4,0,2.8-0.5,3.8-1.5c-1-0.9-1.5-2.2-1.5-3.6c0-1.4,0.5-2.6,1.5-3.6c-1-1-2.4-1.5-3.8-1.5
	C6.1,2.4,4.7,3,3.7,3.9c1,0.9,1.5,2.2,1.5,3.6S4.7,10.2,3.7,11.1z"/>
</svg>
