<?xml version="1.0" encoding="utf-8"?>
<!-- Generator: Adobe Illustrator 20.1.0, SVG Export Plug-In . SVG Version: 6.00 Build 0)  -->
<svg version="1.1" id="レイヤー_1" xmlns="http://www.w3.org/2000/svg" xmlns:xlink="http://www.w3.org/1999/xlink" x="0px"
	 y="0px" viewBox="0 0 15 15" enable-background="new 0 0 15 15" xml:space="preserve">
<path fill="#2f2f2f" d="M13.2,12.5L13.2,12.5c-0.3-0.2-0.6-0.5-0.9-0.7c-0.1-0.1-0.2-0.2-0.3-0.3c-1-1.1-1.6-2.5-1.6-4.1c0-1.6,0.6-3,1.6-4
	c0,0,0,0,0,0c0.3-0.4,0.7-0.7,1.1-1c0,0,0,0,0,0c0,0,0,0,0,0c-0.3-0.3-0.7-0.7-1-0.9c0,0,0,0,0,0C10.8,0.5,9.2,0,7.6,0
	C5.9,0,4.3,0.6,3.1,1.5c0,0,0,0,0,0C2.7,1.8,2.3,2.1,2,2.5l0,0l0,0c0.4,0.3,0.7,0.6,1,0.9l0,0c0.9,1.1,1.5,2.4,1.5,3.9
	c0,1.5-0.6,3-1.5,4c-0.1,0.1-0.2,0.2-0.2,0.3c-0.3,0.3-0.5,0.5-0.8,0.7l0,0c0,0,0,0,0,0c0.3,0.4,0.7,0.8,1.2,1.1c0,0,0,0,0,0
	c1.3,1,2.9,1.6,4.6,1.6c1.7,0,3.2-0.6,4.5-1.5C12.5,13.2,12.8,12.9,13.2,12.5C13.2,12.5,13.2,12.5,13.2,12.5z M7.5,13.5
	c-1.3,0-2.4-0.4-3.4-1l0,0C5.3,11.1,6,9.3,6,7.4c0-1.9-0.7-3.7-1.9-5l0,0c1-0.7,2.1-1,3.4-1c1.3,0,2.5,0.4,3.4,1.1
	C9.7,3.8,9,5.6,9,7.5c0,1.9,0.7,3.6,1.9,4.9C9.9,13.1,8.7,13.5,7.5,13.5z"/>
</svg>
