<?xml version="1.0" encoding="utf-8"?>
<!-- Generator: Adobe Illustrator 20.0.0, SVG Export Plug-In . SVG Version: 6.00 Build 0)  -->
<svg version="1.1" id="golf_x5F_jou" xmlns="http://www.w3.org/2000/svg" xmlns:xlink="http://www.w3.org/1999/xlink" x="0px"
	 y="0px" viewBox="0 0 15 15" enable-background="new 0 0 15 15" xml:space="preserve">
<path d="M7.8,8.5v0.9c0.6,0.2,1.1,0.5,1.1,1C8.9,11,8,11.4,7,11.4S5.1,11,5.1,10.4c0-0.4,0.4-0.7,1-0.9V8.6c-2.3,0.3-4,1.4-4,2.6
	c0,1.5,2.4,2.7,5.4,2.7s5.4-1.2,5.4-2.7C12.9,9.7,10.6,8.6,7.8,8.5z"/>
<path d="M7,11H6.8c-0.1,0-0.3-0.1-0.3-0.3V1.4c0-0.1,0.1-0.3,0.3-0.3H7c0.1,0,0.3,0.1,0.3,0.3v9.3C7.2,10.9,7.1,11,7,11z"/>
<polygon points="12.1,3.7 9.9,4.9 7.7,6.2 7.7,3.7 7.7,1.1 9.9,2.4 "/>
</svg>
