<?xml version="1.0" encoding="utf-8"?>
<!-- Generator: Adobe Illustrator 20.1.0, SVG Export Plug-In . SVG Version: 6.00 Build 0)  -->
<svg version="1.1" id="レイヤー_1" xmlns="http://www.w3.org/2000/svg" xmlns:xlink="http://www.w3.org/1999/xlink" x="0px"
	 y="0px" viewBox="0 0 15 15" enable-background="new 0 0 15 15" xml:space="preserve">
<g>
	<path fill="#2f2f2f" d="M8.1,5.1l3.1-1l3.1-1l-3.1-1l-3.1-1V0c0,0,0,0,0,0H6.9c0,0,0,0,0,0v11.7h1.2L8.1,5.1L8.1,5.1z"/>
	<path fill="#2f2f2f" d="M8.8,8.6v0.5c1.1,0.3,1.8,1,1.8,1.9c0,1.1-1.4,2.1-3.1,2.1c-1.7,0-3.1-0.9-3.1-2.1c0-0.8,0.7-1.5,1.8-1.9V8.6
		C3,8.9,0.6,10.2,0.6,11.8c0,1.8,3.1,3.2,6.9,3.2s6.9-1.4,6.9-3.2C14.4,10.2,12,8.9,8.8,8.6z"/>
</g>
</svg>
