<?xml version="1.0" encoding="utf-8"?>
<!-- Generator: Adobe Illustrator 20.0.0, SVG Export Plug-In . SVG Version: 6.00 Build 0)  -->
<svg version="1.1" id="gusto" xmlns="http://www.w3.org/2000/svg" xmlns:xlink="http://www.w3.org/1999/xlink" x="0px" y="0px"
	 viewBox="0 0 15 15" enable-background="new 0 0 15 15" xml:space="preserve">
<g>
	<circle fill="#CF000D" cx="7.5" cy="7.5" r="7.5"/>
	<g>
		<g>
			<path fill="#491900" d="M6.2,7.03V6.55c0-0.16-0.11-0.3-0.27-0.3H5.4c-0.04,0-0.08,0.01-0.12,0.03C5.25,6.25,5.2,6.24,5.16,6.24
				H4.63c-0.16,0-0.28,0.15-0.28,0.3v0.5H4.32l0.03-0.21C4.36,6.75,4.33,6.66,4.28,6.6C4.23,6.54,4.15,6.49,4.07,6.49H3.26
				C3.12,6.49,3,6.61,2.98,6.75l-0.04,0.3H2.45c-0.16,0-0.3,0.12-0.3,0.27v0.81c0,0.16,0.14,0.27,0.3,0.27h0.22
				C2.59,9.1,2.33,9.2,2.28,9.22C2.13,9.22,2.05,9.35,2.05,9.5v0.86c0,0.09,0.04,0.17,0.11,0.22c0.05,0.04,0.11,0.06,0.17,0.06
				c0.02,0,0.05,0,0.07-0.01c0.54-0.14,1.02-0.51,1.32-0.98c0.17-0.28,0.3-0.92,0.36-1.32H4.6V9.3H4.23c-0.16,0-0.28,0.13-0.28,0.29
				v0.73c0,0.16,0.12,0.28,0.28,0.28h1.32c0.32,0,0.45-0.38,0.49-0.54c0.01-0.02,0.01-0.05,0.01-0.07V7.55
				c0-0.09-0.03-0.17-0.07-0.23C6.11,7.29,6.2,7.17,6.2,7.03z"/>
			<path fill="#491900" d="M9.61,9.16c-0.06-0.04-0.14-0.1-0.25-0.18C9.74,8.48,9.8,7.92,9.8,7.89c0-0.01,0-0.01,0-0.02
				c0-0.02,0.01-0.58,0-0.8C9.78,6.74,9.46,6.56,9.28,6.51C9.26,6.5,9.23,6.49,9.21,6.49H6.7c-0.16,0-0.3,0.14-0.3,0.3v0.85
				c0,0.16,0.14,0.3,0.3,0.3h1.56c-0.27,0.7-1.4,1.23-1.86,1.38C6.29,9.37,6.2,9.46,6.2,9.59v0.78c0,0.09,0.05,0.17,0.11,0.22
				c0.05,0.04,0.12,0.06,0.18,0.06c0.02,0,0.04,0,0.06-0.01c0.82-0.18,1.43-0.53,1.7-0.71l1.13,0.66c0.04,0.03,0.09,0.04,0.14,0.04
				c0.05,0,0.09-0.01,0.13-0.04c0.09-0.05,0.14-0.14,0.14-0.25V9.47C9.85,9.31,9.7,9.22,9.61,9.16z"/>
			<path fill="#491900" d="M13.29,7.85c-0.68-0.07-1.48-0.19-1.76-0.29c0-0.23,0.01-0.6,0.01-0.76c0-0.08-0.03-0.16-0.08-0.21
				c-0.05-0.06-0.13-0.09-0.2-0.09H10.3c-0.16,0-0.3,0.14-0.3,0.3v3.52c0,0.16,0.14,0.28,0.3,0.28h0.89c0.16,0,0.26-0.13,0.26-0.28
				V8.95c0.4,0.11,1.1,0.25,1.58,0.25c0,0,0,0,0,0c0.1,0,0.2,0,0.28-0.01c0.14-0.02,0.24-0.13,0.24-0.27V8.13
				C13.56,7.98,13.44,7.86,13.29,7.85z"/>
		</g>
	</g>
	<path fill="#FFFFFF" d="M2.97,8.15H2.45V7.3h0.73l0.08-0.5h0.81L4,7.3h1.52c0,0,0.23,0.09,0.23,0.25c0,0.16,0,2.44,0,2.44
		s-0.06,0.31-0.2,0.31c-0.13,0-1.3,0-1.3,0V9.6H4.9V8.1H3.82c0,0-0.14,1.11-0.34,1.44s-0.59,0.69-1.14,0.84c0-0.55,0-0.86,0-0.86
		S2.93,9.45,2.97,8.15z"/>
	<rect x="4.65" y="6.54" fill="#FFFFFF" width="0.5" height="0.5"/>
	<rect x="5.4" y="6.54" fill="#FFFFFF" width="0.5" height="0.5"/>
	<path fill="#FFFFFF" d="M8.6,7.65H6.7V6.79h2.51c0,0,0.3,0.08,0.31,0.29c0.01,0.22,0,0.78,0,0.78S9.46,8.55,8.95,9.03
		c0.61,0.42,0.6,0.42,0.6,0.42v0.9L8.26,9.6c0,0-0.71,0.54-1.76,0.77c0-0.78,0-0.78,0-0.78S8.56,8.9,8.6,7.65z"/>
	<path fill="#FFFFFF" d="M10.3,6.79v3.5h0.9V8.57c0,0,1.45,0.45,2.05,0.34c0-0.53,0-0.78,0-0.78s-1.94-0.19-2.01-0.41
		c-0.01-0.22,0.01-0.92,0.01-0.92H10.3z"/>
	<path fill="#481900" d="M7.5,14.31c-3.76,0-6.81-3.06-6.81-6.81S3.74,0.69,7.5,0.69s6.81,3.06,6.81,6.81S11.26,14.31,7.5,14.31z
		 M7.5,0.94c-3.62,0-6.56,2.94-6.56,6.56c0,3.62,2.94,6.56,6.56,6.56c3.62,0,6.56-2.94,6.56-6.56C14.06,3.88,11.12,0.94,7.5,0.94z"
		/>
	<path fill="#FFE100" d="M3.4,4.5V4.21c0,0-1.2-0.39-1.28,0.74c0,0-0.01,0-0.01,0c0,0.01,0,0.01,0,0.02c0,0.01,0,0.01,0,0.02
		c0,0,0.01,0,0.01,0C2.2,6.12,3.4,5.73,3.4,5.73V5.45C2.5,5.77,2.44,5.08,2.43,4.97C2.44,4.86,2.5,4.17,3.4,4.5z"/>
	<path fill="#FFE100" d="M4.57,4.8C4.42,4.32,3.64,4.62,3.64,4.62L3.63,4.9C4.2,4.68,4.31,4.79,4.31,4.97
		c-0.39-0.08-0.77,0-0.77,0.45c0,0.45,0.65,0.32,0.65,0.32L4.3,5.69l0.01,0.06H4.6C4.6,5.74,4.57,5.24,4.57,4.8z M4.03,5.52
		C3.84,5.51,3.79,5.49,3.83,5.3C3.87,5.11,4.3,5.17,4.3,5.17S4.34,5.54,4.03,5.52z"/>
	<path fill="#FFE100" d="M5.5,4.31c0-0.22,0-0.22,0-0.22S5,3.97,5,4.41v0.23H4.7v0.2H5v0.9h0.25v-0.9H5.5v-0.2H5.24
		C5.24,4.64,5.2,4.2,5.5,4.31z"/>
	<g>
		<path fill="#FFE100" d="M6.19,4.49c-0.62,0-0.55,0.7-0.55,0.7h0c0,0,0,0,0,0s0,0.81,0.96,0.5c0,0,0,0.01,0,0.01
			c0.01-0.2,0.01-0.25,0.01-0.26c0,0-0.69,0.28-0.72-0.24c0,0,0-0.01,0-0.01h0.8C6.71,5.19,6.8,4.49,6.19,4.49z M5.93,5.04
			c0,0,0.03-0.24,0.25-0.24c0.22,0,0.24,0.24,0.24,0.24H5.93z"/>
		<polygon fill="#FFE100" points="6.62,5.45 6.62,5.45 6.62,5.45 		"/>
	</g>
	<polygon fill="#FFE100" points="6.01,4.39 6.21,4.39 6.52,4.09 6.17,4.09 	"/>
	<path fill="#FFE100" d="M7.05,4.39v1.4h0.26c0,0,0.77-0.23,0.8-0.85c-0.23,0-0.26,0-0.26,0S7.7,5.41,7.34,5.46
		c0-0.94,0.01-1.07,0.01-1.07H7.05z"/>
	<path fill="#FFE100" d="M8.1,4.44v0.3L8.8,4.74c0,0-0.04,0.57-0.69,0.77c0,0.08,0,0.27,0,0.27s0.44-0.1,0.6-0.34
		c0.42,0.33,0.47,0.33,0.47,0.33l0.03-0.31L8.88,5.27c0,0,0.26-0.49,0.26-0.54l0.01-0.28H8.1z"/>
	<polygon fill="#FFE100" points="10.35,4.91 9.75,4.88 9.75,4.44 9.45,4.44 9.45,5.79 9.75,5.79 9.75,5.15 10.35,5.19 	"/>
	<rect x="10.65" y="4.44" fill="#FFE100" width="0.9" height="0.3"/>
	<path fill="#FFE100" d="M11.65,5.18V4.84H10.6v0.3l0.76,0.01c0,0-0.07,0.33-0.63,0.35c0,0.09,0,0.29,0,0.29S11.45,5.82,11.65,5.18z
		"/>
	<rect x="11.85" y="4.44" fill="#FFE100" width="0.5" height="0.3"/>
	<path fill="#FFE100" d="M12.6,4.44v0.54c0,0,0,0.46-0.37,0.5c-0.28,0.03-0.38,0.01-0.38,0.01v0.28l0.4-0.02
		c0,0,0.15,0.02,0.44-0.22c0.07-0.1,0.14-0.29,0.16-0.45c0.01-0.1,0-0.64,0-0.64H12.6z"/>
</g>
</svg>
