<?xml version="1.0" encoding="utf-8"?>
<!-- Generator: Adobe Illustrator 20.0.0, SVG Export Plug-In . SVG Version: 6.00 Build 0)  -->
<svg version="1.1" id="interchange" xmlns="http://www.w3.org/2000/svg" xmlns:xlink="http://www.w3.org/1999/xlink" x="0px"
	 y="0px" viewBox="0 0 15 15" enable-background="new 0 0 15 15" xml:space="preserve">
<g id="_x32_文字_1_">
	<g>
		<path fill="#00864A" d="M12.85,10.92H2.46c-0.55,0-1-0.45-1-1v-4.9c0-0.55,0.45-1,1-1h10.38c0.55,0,1,0.45,1,1v4.9
			C13.85,10.48,13.4,10.92,12.85,10.92z"/>
	</g>
</g>
<g>
	<rect x="4.67" y="4.67" fill="#FFFFFF" width="1.12" height="5.67"/>
	<path fill="#FFFFFF" d="M9.14,10.4c-0.72,0-1.31-0.27-1.76-0.79C6.96,9.1,6.74,8.39,6.74,7.5c0-0.88,0.21-1.58,0.62-2.1
		c0.43-0.53,1.02-0.8,1.76-0.8c0.42,0,0.83,0.06,1.21,0.18l0.27,0.09v1.34l-0.51-0.19C9.78,5.91,9.47,5.86,9.17,5.86
		c-0.36,0-0.62,0.12-0.82,0.38C8.13,6.53,8.03,6.95,8.03,7.5c0,0.54,0.11,0.97,0.33,1.25c0.21,0.27,0.47,0.39,0.83,0.39
		c0.31,0,0.63-0.06,0.94-0.17l0.52-0.19v1.35l-0.28,0.09C9.96,10.34,9.55,10.4,9.14,10.4z"/>
</g>
</svg>
