<?xml version="1.0" encoding="utf-8"?>
<!-- Generator: Adobe Illustrator 20.0.0, SVG Export Plug-In . SVG Version: 6.00 Build 0)  -->
<svg version="1.1" id="jonathan" xmlns="http://www.w3.org/2000/svg" xmlns:xlink="http://www.w3.org/1999/xlink" x="0px" y="0px"
	 viewBox="0 0 15 15" enable-background="new 0 0 15 15" xml:space="preserve">
<g>
	<circle fill="#2B4B83" cx="9.59" cy="2.46" r="1.85"/>
	<path fill="#2B4B83" d="M6.52,14.41c-1.54,0-2.04-0.39-3.13-1.35C1.73,11.6,2.42,9.46,2.65,8.75c0.43-1.31,1.92-2.06,3.12-2.1
		l0.09,0c1.4,0,1.48,1.01,1.52,1.38l0,0.05c0.05,0.54-0.34,1.24-1.61,1.43C5.69,9.54,5.58,9.57,5.48,9.71
		c-0.19,0.26-0.25,0.72-0.2,1.02c0.07,0.43,0.46,0.72,1.07,0.81c0.1,0.01,0.19,0.02,0.27,0.02c0.4,0,0.54-0.14,0.95-0.58l0.1-0.1
		C7.93,10.6,8,9.71,7.97,9.19l0-3.78C8.02,4.8,8.41,3.72,9.59,3.72c0.41,0,0.77,0.14,1.02,0.41c0.47,0.49,0.46,1.21,0.45,1.3v0
		c0,0,0.03,1.48,0,3.52c-0.03,1.86-0.33,2.51-0.6,3.07c-0.04,0.09-0.08,0.18-0.12,0.27c-0.38,0.89-1.12,1.42-2.1,1.81l-0.71,0.28
		C7.14,14.4,6.81,14.41,6.52,14.41L6.52,14.41z"/>
	<circle fill="#D6132C" cx="9.59" cy="2.46" r="1.35"/>
	<path fill="#D6132C" d="M10.56,5.41c0,0,0.05-1.19-0.98-1.19S8.47,5.41,8.47,5.41v3.75c0,0,0.09,1.5-0.44,2.06
		s-0.81,0.94-1.75,0.81s-1.41-0.66-1.5-1.22s0.09-1.66,0.91-1.78s1.23-0.51,1.19-0.89c-0.04-0.39-0.04-1.01-1.1-0.98
		S3.47,7.84,3.13,8.91s-0.69,2.66,0.59,3.78S5.28,14,7.5,13.88c1.03-0.41,2.09-1.13,2.38-1.78s0.66-1.09,0.69-3.16
		S10.56,5.41,10.56,5.41z"/>
</g>
</svg>
