<?xml version="1.0" encoding="utf-8"?>
<!-- Generator: Adobe Illustrator 20.0.0, SVG Export Plug-In . SVG Version: 6.00 Build 0)  -->
<svg version="1.1" id="junction" xmlns="http://www.w3.org/2000/svg" xmlns:xlink="http://www.w3.org/1999/xlink" x="0px" y="0px"
	 viewBox="0 0 15 15" enable-background="new 0 0 15 15" xml:space="preserve">
<g id="_x32_文字_1_">
	<g>
		<path fill="#00864A" d="M12.85,10.92H2.46c-0.55,0-1-0.45-1-1v-4.9c0-0.55,0.45-1,1-1h10.38c0.55,0,1,0.45,1,1v4.9
			C13.85,10.48,13.4,10.92,12.85,10.92z"/>
	</g>
</g>
<g>
	<path fill="#FFFFFF" d="M3.42,10.36c-0.41,0-0.8-0.08-1.15-0.23l-0.14-0.06V9.01l0.3,0.14C2.77,9.31,3.1,9.39,3.42,9.39
		c0.25,0,0.42-0.08,0.53-0.23c0.08-0.12,0.18-0.38,0.18-0.95V4.64h0.94v3.71c0,0.68-0.14,1.19-0.41,1.51
		C4.38,10.19,3.97,10.36,3.42,10.36z"/>
	<path fill="#FFFFFF" d="M7.68,10.4c-0.62,0-1.13-0.26-1.51-0.79C5.81,9.1,5.62,8.39,5.62,7.5c0-0.89,0.18-1.6,0.53-2.1
		C6.52,4.87,7.03,4.6,7.67,4.6c0.37,0,0.73,0.06,1.07,0.19l0.15,0.06v1.04L8.59,5.76C8.3,5.64,8,5.57,7.71,5.57
		c-0.37,0-0.64,0.15-0.85,0.47C6.64,6.38,6.53,6.87,6.53,7.5c0,0.62,0.11,1.11,0.34,1.45c0.22,0.32,0.5,0.48,0.86,0.48
		c0.3,0,0.6-0.06,0.9-0.19l0.29-0.13v1.05l-0.15,0.05C8.41,10.34,8.05,10.4,7.68,10.4z"/>
	<polygon fill="#FFFFFF" points="10.66,10.33 10.66,5.65 9.36,5.65 9.36,4.67 12.87,4.67 12.87,5.65 11.57,5.65 11.57,10.33 	"/>
</g>
</svg>
