<?xml version="1.0" encoding="utf-8"?>
<!-- Generator: Adobe Illustrator 20.0.0, SVG Export Plug-In . SVG Version: 6.00 Build 0)  -->
<svg version="1.1" id="kaisuiyokujou" xmlns="http://www.w3.org/2000/svg" xmlns:xlink="http://www.w3.org/1999/xlink" x="0px"
	 y="0px" viewBox="0 0 15 15" enable-background="new 0 0 15 15" xml:space="preserve">
<circle cx="6.45" cy="6.46" r="1.63"/>
<path d="M5.23,3.26l2.61,0.27L8.31,6.5L7.65,8.61C7.68,8.63,7.7,8.65,7.73,8.67c0.11,0.09,0.22,0.18,0.33,0.28
	c0,0,0.34,0.3,0.34,0.3c0.02,0.01,0.03,0.03,0.04,0.04c0,0,0.14,0.1,0.14,0.1l0.13,0.1c0.02,0.02,0.05,0.03,0.07,0.05
	c0.02,0.01,0.04,0.02,0.05,0.04c0.03,0.02,0.05,0.03,0.08,0.05C8.98,9.67,9.04,9.71,9.1,9.74c0,0,0.01,0,0.01,0l0.14,0.08
	c0.01,0,0.02,0.01,0.03,0.02C9.3,9.85,9.3,9.85,9.31,9.86l0.07,0.03l0.15,0.07c0.01,0,0.02,0.01,0.03,0.01
	c0.01,0,0.02,0.01,0.03,0.01l0.07,0.03c0.03,0.01,0.06,0.02,0.09,0.04c0.06,0.03,0.12,0.05,0.18,0.06c0,0,0.01,0,0.01,0
	c0.05,0.02,0.1,0.03,0.16,0.05l0.03,0.01l0.1,0.02c0.26,0.06,0.52,0.09,0.78,0.09c0.11,0,0.23-0.01,0.34-0.02
	c0.07-0.01,0.15-0.02,0.23-0.03l0.03,0c0.03-0.01,0.07-0.01,0.1-0.02c0.06-0.01,0.11-0.02,0.16-0.03c0.17-0.04,0.34-0.09,0.49-0.15
	c0.28-0.1,0.56-0.23,0.85-0.39c0.21-0.12,0.41-0.25,0.62-0.4c0.2-0.15-4.27-2.9-4.27-2.9L9.02,2.86c0-0.07-0.01-0.13-0.03-0.19
	L8.99,2.61C8.97,2.53,8.91,2.46,8.83,2.44C8.76,2.37,8.66,2.33,8.56,2.32l-3.2-0.33C5.08,1.96,4.82,2.17,4.79,2.45L4.77,2.68
	C4.74,2.97,4.94,3.23,5.23,3.26z"/>
<path d="M13.99,9.61c-0.17,0.12-0.39,0.27-0.65,0.41c-0.26,0.14-0.55,0.29-0.88,0.41c-0.16,0.06-0.34,0.11-0.52,0.16
	c-0.09,0.02-0.18,0.04-0.28,0.06c-0.09,0.01-0.19,0.03-0.29,0.04c-0.39,0.04-0.8,0.02-1.2-0.08l-0.08-0.02l-0.04-0.01l-0.04-0.01
	c-0.05-0.02-0.1-0.03-0.15-0.05c-0.1-0.03-0.2-0.07-0.3-0.11L9.5,10.39c-0.02-0.01-0.05-0.02-0.07-0.03
	c-0.05-0.02-0.1-0.05-0.15-0.07L9.2,10.24c-0.02-0.01-0.05-0.03-0.07-0.04c-0.05-0.03-0.1-0.05-0.14-0.08
	C8.89,10.07,8.79,10,8.7,9.94C8.65,9.91,8.6,9.88,8.56,9.85l-0.13-0.1L8.3,9.65C8.27,9.63,8.25,9.61,8.23,9.59L8.16,9.53L7.88,9.3
	C7.78,9.2,7.68,9.11,7.57,9.03C7.26,8.79,6.94,8.58,6.59,8.4L6.5,8.36C6.48,8.34,6.45,8.33,6.42,8.31C6.36,8.29,6.29,8.26,6.23,8.24
	L6.14,8.2C6.11,8.19,6.08,8.17,6.05,8.16C5.99,8.14,5.93,8.12,5.87,8.1L5.77,8.07L5.73,8.06L5.68,8.05C5.62,8.03,5.55,8.02,5.49,8
	C5.37,7.97,5.24,7.96,5.11,7.94L5.02,7.92L4.93,7.92c-0.06,0-0.12-0.01-0.19-0.01c-0.06-0.01-0.12,0-0.19,0c-0.06,0-0.12,0-0.18,0
	C4.25,7.92,4.13,7.93,4.01,7.94C3.96,7.95,3.9,7.96,3.84,7.97C3.78,7.98,3.73,7.99,3.67,8.01c-0.45,0.1-0.84,0.27-1.18,0.45
	C2.15,8.65,1.86,8.85,1.62,9.05C1.38,9.25,1.19,9.44,1.04,9.6C0.9,9.76,0.79,9.9,0.72,9.99c-0.07,0.09-0.1,0.15-0.1,0.15
	s0.05-0.04,0.14-0.11c0.09-0.07,0.23-0.17,0.4-0.3c0.18-0.12,0.39-0.26,0.65-0.4C2.07,9.18,2.36,9.04,2.7,8.92
	C3.03,8.8,3.39,8.7,3.78,8.65c0.05-0.01,0.1-0.01,0.15-0.01c0.05,0,0.1-0.01,0.15-0.01c0.1,0,0.2,0,0.3,0c0.05,0,0.1,0.01,0.15,0.01
	c0.05,0,0.1,0,0.15,0.01c0.05,0.01,0.1,0.01,0.15,0.02l0.08,0.01L4.99,8.7C5.1,8.72,5.2,8.74,5.3,8.77C5.35,8.79,5.4,8.8,5.45,8.82
	l0.04,0.01l0.04,0.01L5.6,8.87c0.05,0.02,0.1,0.04,0.15,0.06c0.03,0.01,0.05,0.02,0.07,0.03L5.9,9C5.95,9.02,6,9.04,6.05,9.07
	C6.08,9.08,6.1,9.09,6.13,9.1L6.2,9.15C6.3,9.2,6.4,9.25,6.49,9.32l0.14,0.09L6.7,9.46l0.07,0.05c0.09,0.07,0.18,0.14,0.27,0.21
	l0.26,0.23l0,0l0.29,0.24l0.07,0.06c0.02,0.02,0.05,0.04,0.07,0.06l0.16,0.12l0.16,0.12c0.03,0.02,0.05,0.04,0.08,0.05
	c0.03,0.02,0.06,0.04,0.09,0.05c0.11,0.07,0.22,0.14,0.34,0.2c0.23,0.13,0.47,0.23,0.72,0.32c0.12,0.04,0.24,0.09,0.37,0.11
	c0.06,0.02,0.13,0.03,0.19,0.04l0.05,0.01l0.05,0.01l0.09,0.01c0.5,0.08,1,0.06,1.45-0.04c0.08-0.02,0.17-0.04,0.25-0.06
	c0.35-0.1,0.67-0.23,0.94-0.38c0.34-0.19,0.63-0.39,0.87-0.59c0.24-0.2,0.43-0.39,0.57-0.56c0.15-0.16,0.25-0.3,0.32-0.4
	c0.03-0.05,0.06-0.09,0.08-0.11c0.02-0.03,0.02-0.04,0.02-0.04s-0.05,0.04-0.14,0.12C14.3,9.38,14.17,9.48,13.99,9.61z"/>
</svg>
