<?xml version="1.0" encoding="utf-8"?>
<!-- Generator: Adobe Illustrator 20.1.0, SVG Export Plug-In . SVG Version: 6.00 Build 0)  -->
<svg version="1.1" id="レイヤー_1" xmlns="http://www.w3.org/2000/svg" xmlns:xlink="http://www.w3.org/1999/xlink" x="0px"
	 y="0px" viewBox="0 0 15 15" enable-background="new 0 0 15 15" xml:space="preserve">
<g>
	<circle fill="#2f2f2f" cx="4.3" cy="6.7" r="2"/>
	<path fill="#2f2f2f" d="M13.5,8.8c-0.2-0.2-0.5-0.4-0.8-0.6c-0.7-0.6-1.5-1.1-2-1.4c-0.3-0.2-0.5-0.3-0.7-0.4L11,4.4L11.2,4l0.1-0.2
		c0.1-0.1,0.1-0.3,0.1-0.4c0-0.3-0.1-0.6-0.3-0.8c-0.2-0.2-0.4-0.4-0.7-0.4c0,0,0,0,0,0c0,0-0.1,0-0.1,0L9.9,2.1L4.3,1.4
		c0,0,0,0,0,0c0,0-0.1,0-0.1,0l0,0h0c-0.4,0-0.8,0.4-0.8,0.8C3.4,2.6,3.6,2.9,4,3L4,3c0,0,0,0,0,0l4.8,1l-3,5.3
		c0.2,0.2,0.4,0.4,0.5,0.6l0.3,0.4C7.3,9.5,8.3,9,9.4,9c0.6,0,1.2,0.1,1.7,0.4c0,0,0.1,0,0.1,0.1c0.4,0.2,0.8,0.5,1.2,0.9l0.1,0.2
		l0.3,0.4c0,0.1,0.1,0.1,0.1,0.2l0,0.1c0,0,0,0,0,0c0.1,0.2,0.3,0.3,0.7,0.3c0.2,0,0.4-0.1,0.5-0.2l0.9-0.6V10
		C15,10,14.4,9.5,13.5,8.8z"/>
	<path fill="#2f2f2f" d="M5.5,11.3c0,0,0-0.1-0.1-0.1c0,0,0,0,0,0c-0.3-0.5-0.8-1-1.3-1.3C3.7,9.7,3.2,9.6,2.7,9.6c-1.1,0-2.1,0.6-2.7,1.5
		c0.5-0.4,1.1-0.6,1.8-0.6c1.1,0,2.1,0.6,2.6,1.4c0,0,0,0.1,0.1,0.1c0,0,0,0,0,0c0.3,0.5,0.8,1,1.3,1.3c0.4,0.2,0.9,0.4,1.4,0.4
		c1.1,0,2.1-0.6,2.7-1.5c-0.5,0.4-1.1,0.6-1.8,0.6C6.9,12.7,5.9,12.2,5.5,11.3z"/>
	<path fill="#2f2f2f" d="M11.6,11.9C11.6,11.8,11.6,11.8,11.6,11.9C11.6,11.8,11.6,11.8,11.6,11.9c-0.3-0.5-0.6-0.9-1.1-1.1
		c-0.3-0.2-0.7-0.3-1.1-0.3c-0.9,0-1.7,0.5-2.1,1.2c0.4-0.3,0.9-0.4,1.4-0.4c0.9,0,1.6,0.4,2,1.1c0,0,0,0.1,0,0.1c0,0,0,0,0,0
		c0.2,0.4,0.6,0.8,1,1c0.3,0.2,0.7,0.3,1.1,0.3c0.9,0,1.7-0.5,2.1-1.2c-0.4,0.3-0.9,0.4-1.4,0.4C12.7,12.9,12,12.5,11.6,11.9z"/>
</g>
</svg>
