<?xml version="1.0" encoding="utf-8"?>
<!-- Generator: Adobe Illustrator 20.1.0, SVG Export Plug-In . SVG Version: 6.00 Build 0)  -->
<svg version="1.1" id="レイヤー_1" xmlns="http://www.w3.org/2000/svg" xmlns:xlink="http://www.w3.org/1999/xlink" x="0px"
	 y="0px" viewBox="0 0 15 15" enable-background="new 0 0 15 15" xml:space="preserve">
<path fill="#2f2f2f" d="M15,7.5c0-1.7-0.7-3.3-1.8-4.5c0,0-0.1-0.1-0.1-0.1c-1.4-1.5-3.4-2.4-5.6-2.4c-2.3,0-4.4,1-5.8,2.5C0.6,4.2,0,5.8,0,7.5
	C0,7.7,0,8,0,8.2c0.4,3.5,3.6,6.3,7.4,6.3l0,0c0,0,0,0,0,0c1.5,0,2.9-0.4,4-1.1c0,0-1.6-2.5-2.2-3.2C8.7,9.3,8.1,8.6,7.8,8.3
	C7.2,8,4.9,7.9,2,8l0.5,1.5c1.7,0,3.9,0.1,4.3,0.2C7.2,10,8.3,11.5,9.3,13c-0.6,0.2-1.3,0.3-1.9,0.3c-3.4,0-6.1-2.6-6.1-5.7
	c0-2.1,1.2-4,3-4.9c0,0,0,0,0,0c0.9-0.5,1.9-0.8,3-0.8c0.9,0,1.7,0.2,2.4,0.5c0.1,0,0.1,0,0.1,0c2.1,0.9,3.6,2.9,3.6,5.2
	c0,0.1,0,0.3,0,0.4c0,0,0,0,0,0l0,0l-3.3-2L8.5,6.8l5.8,3.5l0.1,0c0,0,0,0,0,0l0,0C14.8,9.5,15,8.5,15,7.5z"/>
<polygon fill="#2f2f2f" points="1.6,6.4 2,7.9 9.8,4.9 10.2,3.1 "/>
</svg>
