<?xml version="1.0" encoding="utf-8"?>
<!-- Generator: Adobe Illustrator 20.0.0, SVG Export Plug-In . SVG Version: 6.00 Build 0)  -->
<svg version="1.1" id="keibajou_x5F_wins" xmlns="http://www.w3.org/2000/svg" xmlns:xlink="http://www.w3.org/1999/xlink" x="0px"
	 y="0px" viewBox="0 0 15 15" enable-background="new 0 0 15 15" xml:space="preserve">
<polygon fill="#217839" points="2.3,7.9 1.9,6.5 10,3.4 9.6,5.1 "/>
<path fill="#217839" d="M15,7.8c0-3.6-3.4-6.5-7.5-6.5C3.4,1.3,0,4.2,0,7.8s3.4,6.5,7.5,6.5c1.4,0,2.8-0.4,3.9-1L11,12.6l0,0
	c0,0-0.1-0.1-0.1-0.2l0,0l0,0c-0.8-1.2-2.6-3.7-3.2-4.2C7.2,7.9,5.1,7.9,2.3,7.9l0.5,1.4c1.6,0,3.6,0.1,4.1,0.2
	c0.3,0.3,1.5,1.9,2.6,3.5c-0.6,0.2-1.3,0.3-2,0.3C3.9,13.3,1,10.8,1,7.8s2.9-5.5,6.5-5.5c3.6,0,6.5,2.5,6.5,5.5c0,0.2,0,0.4,0,0.6
	l-3.9-2.3L8.5,6.9l5.4,3.2l0,0l0.5,0.3C14.8,9.6,15,8.7,15,7.8z"/>
</svg>
