<?xml version="1.0" encoding="utf-8"?>
<!-- Generator: Adobe Illustrator 20.0.0, SVG Export Plug-In . SVG Version: 6.00 Build 0)  -->
<svg version="1.1" id="keisatsu_x5F_hasyutsujo" xmlns="http://www.w3.org/2000/svg" xmlns:xlink="http://www.w3.org/1999/xlink"
	 x="0px" y="0px" viewBox="0 0 15 15" enable-background="new 0 0 15 15" xml:space="preserve">
<path d="M7.5,0C3.4,0,0,3.4,0,7.5C0,11.6,3.4,15,7.5,15S15,11.6,15,7.5C15,3.4,11.6,0,7.5,0z M8.1,7.5L12.6,3
	c1.1,1.2,1.7,2.8,1.7,4.5c0,1.7-0.6,3.3-1.7,4.6L8.1,7.5z M12,2.4L7.4,6.9L2.9,2.4c1.3-1.1,2.9-1.7,4.6-1.7C9.2,0.7,10.7,1.3,12,2.4
	z M2.3,3.1l4.5,4.5L2.4,12c-1.1-1.2-1.7-2.8-1.7-4.5C0.7,5.9,1.3,4.3,2.3,3.1z M3,12.6l4.4-4.4l4.5,4.5c-1.2,1.1-2.8,1.6-4.4,1.6
	C5.8,14.3,4.2,13.7,3,12.6z"/>
</svg>
