<?xml version="1.0" encoding="utf-8"?>
<!-- Generator: Adobe Illustrator 20.1.0, SVG Export Plug-In . SVG Version: 6.00 Build 0)  -->
<svg version="1.1" id="レイヤー_1" xmlns="http://www.w3.org/2000/svg" xmlns:xlink="http://www.w3.org/1999/xlink" x="0px"
	 y="0px" viewBox="0 0 19 19" enable-background="new 0 0 19 19" xml:space="preserve">
<g>
	<polygon fill="#5A80BE" points="16.1,3.1 2.9,3.1 0.6,9.4 2.9,15.8 16.1,15.8 18.4,9.4 	"/>
	<path fill="#FFFFFF" d="M16.1,3.1l2.3,6.3l-2.3,6.4H2.9L0.6,9.4l2.3-6.3H16.1 M16.5,2.5h-0.4H2.9H2.5L2.3,2.9L0.1,9.2L0,9.4
		l0.1,0.2L2.4,16l0.1,0.4h0.4h13.2h0.4l0.1-0.4l2.3-6.4L19,9.4l-0.1-0.2l-2.3-6.3L16.5,2.5L16.5,2.5z"/>
</g>
</svg>
