<?xml version="1.0" encoding="utf-8"?>
<!-- Generator: Adobe Illustrator 20.0.0, SVG Export Plug-In . SVG Version: 6.00 Build 0)  -->
<svg version="1.1" id="kentyou" xmlns="http://www.w3.org/2000/svg" xmlns:xlink="http://www.w3.org/1999/xlink" x="0px" y="0px"
	 viewBox="0 0 15 15" enable-background="new 0 0 15 15" xml:space="preserve">
<ellipse fill="#FF0047" cx="7.5" cy="7.4" rx="7.2" ry="4.4"/>
<path d="M7.5,3.4c1.9,0,3.7,0.5,5,1.3c1.3,0.8,1.9,1.8,1.9,2.8s-0.7,2-1.9,2.8c-1.3,0.8-3.1,1.3-5,1.3s-3.7-0.5-5-1.3
	C1.2,9.5,0.5,8.5,0.5,7.5s0.7-2,1.9-2.8C3.8,3.9,5.6,3.4,7.5,3.4 M7.5,2.9C3.4,2.9,0,4.9,0,7.5s3.4,4.6,7.5,4.6S15,10.1,15,7.5
	S11.6,2.9,7.5,2.9L7.5,2.9z"/>
<path d="M7.5,4.7c1.4,0,2.6,0.3,3.6,0.9c0.9,0.5,1.4,1.2,1.4,1.9S12,8.9,11.1,9.4c-1,0.6-2.2,0.9-3.6,0.9S4.9,10,3.9,9.4
	C3,8.9,2.5,8.2,2.5,7.5S3,6.1,3.9,5.6C4.9,5,6.1,4.7,7.5,4.7 M7.5,4.4c-2.9,0-5.3,1.4-5.3,3.1s2.4,3.1,5.3,3.1s5.3-1.4,5.3-3.1
	S10.4,4.4,7.5,4.4L7.5,4.4z"/>
</svg>
