<?xml version="1.0" encoding="utf-8"?>
<!-- Generator: Adobe Illustrator 20.0.0, SVG Export Plug-In . SVG Version: 6.00 Build 0)  -->
<svg version="1.1" id="kokudou1" xmlns="http://www.w3.org/2000/svg" xmlns:xlink="http://www.w3.org/1999/xlink" x="0px" y="0px"
	 viewBox="0 0 15 15" enable-background="new 0 0 15 15" xml:space="preserve">
<path fill="#597FBD" d="M13.75,4.63c0-0.06,0-0.12-0.02-0.17c-0.16-1.79-2.88-3.21-6.23-3.21c-3.45,0-6.24,1.51-6.24,3.38
	c0,0-0.3,1.31,1.69,5c0.68,1.16,1.17,2.14,1.86,2.85c0.63,0.77,1.6,1.27,2.69,1.27c0,0,0,0,0.01,0c0,0,0,0,0,0c0,0,0,0,0,0
	c1.26,0,2.37-0.68,2.96-1.68c0.47-0.6,0.94-1.37,1.54-2.36C12.74,8.23,13.7,6.58,13.75,4.63z"/>
</svg>
