<?xml version="1.0" encoding="utf-8"?>
<!-- Generator: Adobe Illustrator 20.1.0, SVG Export Plug-In . SVG Version: 6.00 Build 0)  -->
<svg version="1.1" id="レイヤー_3_2_" xmlns="http://www.w3.org/2000/svg" xmlns:xlink="http://www.w3.org/1999/xlink" x="0px"
	 y="0px" viewBox="0 0 15 15" enable-background="new 0 0 15 15" xml:space="preserve">
<g>
	<path fill="#5A80BE" d="M7.5,2.3c-1.2,0-6.8,0-6.8,3.3c0,3.3,3.5,7.1,6.7,7.1l0,0h0l0,0h0l0,0c3.2,0,6.7-3.8,6.7-7.1
		C14.3,2.3,8.7,2.3,7.5,2.3z"/>
	<path fill="#FAFCFC" d="M7.7,2.3c1.5,0,6.6,0.1,6.6,3.3c0,3.3-3.5,7.1-6.7,7.1l0,0h0l0,0h0l0,0c-3.2,0-6.7-3.8-6.7-7.1
		c0-3.2,5.2-3.3,6.6-3.3c0.1,0,0.1,0,0.2,0S7.6,2.3,7.7,2.3 M7.7,1.6c-0.1,0-0.1,0-0.2,0s-0.1,0-0.2,0c-1.6,0-2.9,0.2-4.1,0.5
		C0.6,2.9,0,4.4,0,5.6c0,0.9,0.2,1.9,0.7,2.8c0.4,0.9,1,1.7,1.7,2.5c1.5,1.6,3.4,2.6,5.1,2.6h0h0c1.7,0,3.6-0.9,5.1-2.6
		c0.7-0.8,1.3-1.6,1.7-2.5c0.4-1,0.7-1.9,0.7-2.8c0-1.2-0.6-2.8-3.3-3.5C10.6,1.8,9.2,1.6,7.7,1.6L7.7,1.6z"/>
</g>
</svg>
