<?xml version="1.0" encoding="utf-8"?>
<!-- Generator: Adobe Illustrator 20.1.0, SVG Export Plug-In . SVG Version: 6.00 Build 0)  -->
<svg version="1.1" id="レイヤー_3_2_" xmlns="http://www.w3.org/2000/svg" xmlns:xlink="http://www.w3.org/1999/xlink" x="0px"
	 y="0px" viewBox="0 0 15 15" enable-background="new 0 0 15 15" xml:space="preserve">
<g>
	<path fill="#5A80BE" d="M14.2,5.1c0-3.6-5.5-3.3-6.7-3.3c-1.2,0-6.7-0.2-6.7,3.3c0,3.6,4.2,8.1,6.7,8.1l0,0l0,0l0,0l0,0
		C10,13.2,14.2,8.7,14.2,5.1z"/>
	<path fill="#FAFCFC" d="M8.1,1.8c1.9,0,6.1,0.2,6.1,3.3c0,3.6-4.2,8.1-6.7,8.1l0,0l0,0c-2.5,0-6.7-4.5-6.7-8.1C0.8,2,5,1.8,6.9,1.8
		c0.3,0,0.5,0,0.6,0C7.7,1.8,7.9,1.8,8.1,1.8 M8.1,1C8,1,7,1,6.9,1c-1.6,0-2.9,0.2-4,0.5C0.5,2.4,0,3.9,0,5.1c0,1.8,1,4,2.6,5.9
		c0.7,0.8,1.6,1.6,2.4,2.1C5.9,13.7,6.7,14,7.5,14s1.6-0.3,2.5-0.9c0.8-0.5,1.6-1.2,2.4-2.1C14,9.1,15,7,15,5.1
		c0-1.2-0.5-2.8-2.9-3.6C11.1,1.2,9.8,1,8.1,1L8.1,1z"/>
</g>
</svg>
