<?xml version="1.0" encoding="utf-8"?>
<!-- Generator: Adobe Illustrator 20.0.0, SVG Export Plug-In . SVG Version: 6.00 Build 0)  -->
<svg version="1.1" id="kokudou3" xmlns="http://www.w3.org/2000/svg" xmlns:xlink="http://www.w3.org/1999/xlink" x="0px" y="0px"
	 viewBox="0 0 15 15" enable-background="new 0 0 15 15" xml:space="preserve">
<path fill="#597FBD" d="M15,4.63c0-0.06-0.01-0.12-0.02-0.17c-0.2-1.79-3.46-3.21-7.47-3.21c-4.14,0-7.49,1.51-7.49,3.38
	c0,0-0.36,1.31,2.02,5c0.82,1.16,1.41,2.14,2.23,2.85c0.76,0.77,1.92,1.27,3.23,1.27c0,0,0,0,0.01,0c0,0,0,0,0,0c0,0,0,0,0,0
	c1.52,0,2.84-0.68,3.55-1.68c0.57-0.6,1.12-1.37,1.84-2.36C13.79,8.23,14.95,6.58,15,4.63z"/>
</svg>
