<?xml version="1.0" encoding="utf-8"?>
<!-- Generator: Adobe Illustrator 20.1.0, SVG Export Plug-In . SVG Version: 6.00 Build 0)  -->
<svg version="1.1" id="レイヤー_1" xmlns="http://www.w3.org/2000/svg" xmlns:xlink="http://www.w3.org/1999/xlink" x="0px"
	 y="0px" viewBox="0 0 19 19" enable-background="new 0 0 19 19" xml:space="preserve">
<g>
	<path fill="#5A80BE" d="M14.4,4.4c-1.5-0.4-3.5-0.6-4.9-0.5c-1.4,0-3.4,0.1-4.9,0.5c-2.8,0.7-4,2.1-4,3.9c0,2,0.8,3.4,2.4,4.7
		c1.3,1.1,2.9,1.7,4.3,1.9C8,15,8.7,15,9.5,15c0.8,0,1.5-0.1,2.2-0.2c1.5-0.2,3-0.8,4.3-1.9c1.6-1.4,2.4-2.8,2.4-4.7
		C18.4,6.5,17.2,5.1,14.4,4.4z"/>
	<path fill="#FFFFFF" d="M9.9,3.8c1.3,0,3.1,0.1,4.5,0.5c2.8,0.7,4,2.1,4,3.9c0,2-0.8,3.4-2.4,4.7c-1.3,1.1-2.9,1.7-4.3,1.9
		C11,15,10.5,15,9.8,15c-0.1,0-0.2,0-0.3,0c-0.1,0-0.2,0-0.3,0c-0.7,0-1.3-0.1-2-0.2c-1.5-0.2-3-0.8-4.3-1.9
		c-1.6-1.4-2.4-2.8-2.4-4.7c0-1.8,1.2-3.1,4-3.9C6,4,7.7,3.8,9.1,3.8c0.1,0,0.3,0,0.4,0C9.6,3.8,9.8,3.8,9.9,3.8 M9.9,3.3
		c-0.1,0-0.3,0-0.4,0c-0.1,0-0.3,0-0.4,0c-1.7,0-3.4,0.2-4.6,0.5C0.8,4.8,0,6.7,0,8.2c0,2,0.8,3.6,2.6,5.2c1.6,1.4,3.4,1.8,4.6,2
		c0.7,0.1,1.3,0.2,2,0.2l0.3,0l0.2,0c0.8,0,1.3-0.1,2.1-0.2c1.2-0.2,3-0.7,4.6-2c1.8-1.6,2.6-3.1,2.6-5.2c0-1.5-0.8-3.5-4.5-4.4
		C13.3,3.5,11.6,3.3,9.9,3.3L9.9,3.3z"/>
</g>
</svg>
