<?xml version="1.0" encoding="utf-8"?>
<!-- Generator: Adobe Illustrator 20.0.0, SVG Export Plug-In . SVG Version: 6.00 Build 0)  -->
<svg version="1.1" id="kokudou2" xmlns="http://www.w3.org/2000/svg" xmlns:xlink="http://www.w3.org/1999/xlink" x="0px" y="0px"
	 viewBox="0 0 15 15" enable-background="new 0 0 15 15" xml:space="preserve">
<path fill="#597FBD" d="M14.37,4.63c0-0.06,0-0.12-0.02-0.17c-0.18-1.79-3.17-3.21-6.85-3.21c-3.79,0-6.87,1.51-6.87,3.38
	c0,0-0.33,1.31,1.86,5c0.75,1.16,1.29,2.14,2.04,2.85c0.69,0.77,1.76,1.27,2.96,1.27c0,0,0,0,0.01,0c0,0,0,0,0,0c0,0,0,0,0,0
	c1.39,0,2.6-0.68,3.26-1.68c0.52-0.6,1.03-1.37,1.69-2.36C13.27,8.23,14.33,6.58,14.37,4.63z"/>
</svg>
