<?xml version="1.0" encoding="utf-8"?>
<!-- Generator: Adobe Illustrator 20.0.0, SVG Export Plug-In . SVG Version: 6.00 Build 0)  -->
<svg version="1.1" id="kouen" xmlns="http://www.w3.org/2000/svg" xmlns:xlink="http://www.w3.org/1999/xlink" x="0px" y="0px"
	 viewBox="0 0 15 15" enable-background="new 0 0 15 15" xml:space="preserve">
<path d="M13.4,10.7c0,0-2.1-1.5-3.9-3.2L12.3,8c0,0-2.1-1.5-3.6-3.2l2.7,0.5c0,0-2.8-2.3-3.8-4.3c0,0-1.9,3.1-3.8,4.3
	C4.9,5,5.8,4.9,6.3,4.8C5.4,5.9,4.1,7.3,2.7,8c1.2-0.2,2.2-0.3,2.9-0.4C4.5,8.7,3,10,1.6,10.7c1.7-0.2,3.5-0.3,5.2-0.4l-0.4,3.7h2.3
	l-0.4-3.7C11.2,10.5,13.4,10.7,13.4,10.7z"/>
</svg>
