<?xml version="1.0" encoding="utf-8"?>
<!-- Generator: Adobe Illustrator 20.1.0, SVG Export Plug-In . SVG Version: 6.00 Build 0)  -->
<svg version="1.1" id="レイヤー_1" xmlns="http://www.w3.org/2000/svg" xmlns:xlink="http://www.w3.org/1999/xlink" x="0px"
	 y="0px" viewBox="0 0 15 15" enable-background="new 0 0 15 15" xml:space="preserve">
<path fill="#2f2f2f" d="M14.2,11.5l-2.9-2.9h1c0.5,0,0.8-0.6,0.4-1L9.9,4.7h1c0.5,0,0.8-0.6,0.4-1L7.5,0v0L3.7,3.8c-0.4,0.4-0.1,1,0.4,1h1L2.3,7.6
	c-0.4,0.4-0.1,1,0.4,1h1l-2.9,2.9c-0.4,0.4-0.1,1,0.4,1h5V15h2.5v-2.5h5C14.3,12.5,14.5,11.8,14.2,11.5z"/>
</svg>
