<?xml version="1.0" encoding="utf-8"?>
<!-- Generator: Adobe Illustrator 20.0.0, SVG Export Plug-In . SVG Version: 6.00 Build 0)  -->
<svg version="1.1" id="kuukou_x5F_hikoujou" xmlns="http://www.w3.org/2000/svg" xmlns:xlink="http://www.w3.org/1999/xlink"
	 x="0px" y="0px" viewBox="0 0 15 15" enable-background="new 0 0 15 15" xml:space="preserve">
<path d="M14.4,8.9l-0.1-1.3l-3.4-1.8l0-0.3c0-0.2-0.2-0.4-0.4-0.4l-0.5,0c-0.1,0-0.2,0-0.2,0.1L8.6,4.6c0-2.1-0.4-3.5-1.1-3.4
	c-0.6,0-1,1.4-1.1,3.4L5.3,5.2C5.2,5.1,5.1,5.1,5,5.1l-0.5,0c-0.2,0-0.4,0.2-0.4,0.4l0,0.3L0.7,7.5L0.6,8.8l3.6-0.5
	c0.1,0.1,0.2,0.2,0.3,0.2l0.5,0c0.2,0,0.3-0.2,0.4-0.3l1.2-0.2c0.2,1.6,0.4,3,0.5,4.1l-2,1.2l-0.4,0.7L7.3,13
	c0.1,0.3,0.1,0.5,0.1,0.5c0,0,0.1-0.2,0.1-0.5l2.5,0.9l-0.3-0.7l-2-1.2c0.2-1,0.4-2.5,0.6-4.1l1.3,0.2c0,0.2,0.2,0.3,0.4,0.3l0.5,0
	c0.1,0,0.2-0.1,0.3-0.1L14.4,8.9z"/>
</svg>
