<?xml version="1.0" encoding="utf-8"?>
<!-- Generator: Adobe Illustrator 20.1.0, SVG Export Plug-In . SVG Version: 6.00 Build 0)  -->
<svg version="1.1" id="レイヤー_1" xmlns="http://www.w3.org/2000/svg" xmlns:xlink="http://www.w3.org/1999/xlink" x="0px"
	 y="0px" viewBox="0 0 15 15" enable-background="new 0 0 15 15" xml:space="preserve">
<path fill="#2f2f2f" d="M14.4,8.3L9,5.7V3.3c0-0.5-0.1-1-0.2-1.5C8.6,0.8,8.1,0,7.5,0S6.4,0.8,6.1,1.9C6,2.3,6,2.8,6,3.3v2.4L0.6,8.3
	C0.4,8.3,0.4,8.4,0.4,8.6V10c0,0.2,0.2,0.4,0.4,0.3c0,0,5.5-1.4,5.5-1.4c0,0,0,2.9,0,2.9l-1,1.4c-0.3,0.5,0,1.1,0.6,1.1h0.9
	C7,14.8,7.2,15,7.5,15c0.3,0,0.5-0.2,0.7-0.7h0.9c0.6,0,0.9-0.7,0.6-1.1l-1-1.4c0,0,0-2.9,0-2.9c0,0,5.5,1.4,5.5,1.4
	c0.2,0.1,0.4-0.1,0.4-0.3V8.6C14.6,8.4,14.6,8.3,14.4,8.3z"/>
</svg>
