<?xml version="1.0" encoding="utf-8"?>
<!-- Generator: Adobe Illustrator 20.1.0, SVG Export Plug-In . SVG Version: 6.00 Build 0)  -->
<svg version="1.1" id="lawson" xmlns="http://www.w3.org/2000/svg" xmlns:xlink="http://www.w3.org/1999/xlink" x="0px" y="0px"
	 viewBox="0 0 15 15" enable-background="new 0 0 15 15" xml:space="preserve">
<path fill="#0168B7" d="M14,2.287C7.189-0.664,1,2.285,1,2.285L2.637,7.5L1,12.715c0,0,6.189,2.948,13-0.002L12.382,7.5L14,2.287z"
	/>
<path fill="#FFFFFF" d="M13.622,2.458C7.339-0.133,1.378,2.456,1.378,2.456l1.542,5.052l-1.542,5.052c0,0,5.424,2.551,12.245-0.002
	l-1.524-5.05L13.622,2.458z"/>
<path fill="#0168B7" d="M13.33,2.607C7.311,0.305,1.67,2.588,1.67,2.588l1.468,4.924l-1.449,4.962c0,0,5.528,2.189,11.642-0.094
	l-1.451-4.868L13.33,2.607z"/>
<path fill="#FFFFFF" d="M8.429,5.899V5.876V5.75h0.116c-0.009,0-0.018,0.073-0.029,0.104C8.703,5.886,8.821,5.739,8.84,5.651
	c0.028-0.16-0.063-0.256-0.132-0.307l0.22-0.624c0,0,0.217-0.564-0.512-0.626C7.688,4.032,7.439,4.05,6.587,4.097
	S6.106,4.861,6.106,4.861l0.153,0.505c-0.064,0.055-0.136,0.15-0.11,0.294c0.019,0.088,0.137,0.226,0.325,0.195
	C6.463,5.824,6.453,5.75,6.444,5.75h0.171v0.126v0.032C5.687,6.477,5.864,7.433,5.864,7.433s0,1.82,0,2.659S6.6,10.924,6.6,10.924
	h1.762c0,0,0.862,0.007,0.862-0.832s0-2.659,0-2.659S9.224,6.466,8.429,5.899z M8.207,5.75H6.925V5.662h1.282V5.75z M6.789,4.689
	c-0.03,0,0.004,0.042,0.004,0.072v0.658l-0.194,0.21l-0.06,0.015c0,0-0.221-0.672-0.268-0.827C6.074,4.223,6.466,4.326,6.621,4.28
	c0.817-0.048,0.851-0.046,1.704-0.015C8.992,4.28,8.78,4.714,8.78,4.714L8.429,5.632V5.63L8.296,5.432V4.761
	c0-0.03-0.088-0.072-0.118-0.072H6.789z"/>
<path fill="#FFFFFF" d="M4.001,3.884c0.001-0.003,0.003-0.007,0.003-0.01c0-0.002,0-0.005,0-0.007c0-0.005,0.001-0.01-0.001-0.015
	L3.887,3.394c-0.008-0.031-0.039-0.049-0.07-0.042l-0.195,0.05C3.591,3.41,3.572,3.442,3.58,3.472L3.636,3.69L3.151,3.836
	L2.888,2.909l0.155-0.047c0.03-0.009,0.048-0.041,0.039-0.072L3.024,2.599C3.015,2.568,2.983,2.551,2.952,2.56L2.384,2.731
	C2.353,2.74,2.336,2.772,2.345,2.802l0.058,0.193c0.009,0.03,0.041,0.048,0.072,0.039l0.148-0.045L2.88,3.917l-0.133,0.04
	C2.717,3.966,2.7,3.998,2.709,4.029l0.058,0.193c0.009,0.03,0.041,0.048,0.072,0.039l1.126-0.338C3.97,3.92,3.975,3.917,3.98,3.913
	c0.001,0,0.001-0.001,0.002-0.001C3.987,3.909,3.99,3.904,3.993,3.9c0.001-0.002,0.003-0.003,0.004-0.005
	C3.999,3.892,4,3.888,4.001,3.884z"/>
<path fill="#FFFFFF" d="M5.809,3.365C5.807,3.333,5.78,3.309,5.748,3.311L5.496,3.324L4.939,2.476l0.072-0.004
	c0.032-0.002,0.056-0.029,0.054-0.061L5.054,2.211C5.052,2.179,5.025,2.155,4.993,2.157L4.4,2.189
	C4.369,2.191,4.344,2.218,4.346,2.25l0.011,0.201c0.002,0.032,0.029,0.056,0.061,0.054l0.099-0.005L4.304,3.526L4.114,3.55
	C4.083,3.554,4.06,3.583,4.064,3.614l0.025,0.2c0.004,0.031,0.033,0.054,0.064,0.05L4.743,3.79c0.031-0.004,0.054-0.033,0.05-0.064
	l-0.025-0.2c-0.004-0.031-0.033-0.054-0.064-0.05l-0.158,0.02L4.584,3.31l0.598-0.044L5.23,3.339L5.155,3.343
	C5.123,3.345,5.099,3.372,5.101,3.404l0.011,0.201C5.113,3.636,5.141,3.66,5.172,3.659l0.593-0.032
	C5.797,3.625,5.821,3.597,5.82,3.566L5.809,3.365z M4.632,3.076l0.102-0.492l0.304,0.462L4.632,3.076z"/>
<path fill="#FFFFFF" d="M7.84,1.914l-0.594,0.01C7.215,1.924,7.17,1.936,7.171,1.968l0.003,0.201
	C7.175,2.201,7.22,2.212,7.251,2.211l0.16-0.003L7.133,3.023L6.716,2.335l0.145-0.002c0.032-0.001,0.028-0.036,0.028-0.068
	L6.885,2.064c-0.001-0.032,0.002-0.077-0.03-0.076l-0.594,0.01C6.229,1.999,6.195,2.044,6.195,2.076l0.003,0.201
	c0.001,0.032,0.036,0.066,0.068,0.066l0.129-0.002L6.18,3.091L5.792,2.409l0.122-0.002C5.945,2.406,5.971,2.38,5.97,2.348
	L5.967,2.147C5.966,2.115,5.941,2.119,5.909,2.119l-0.594,0.01C5.283,2.13,5.277,2.127,5.277,2.159L5.281,2.36
	C5.281,2.392,5.288,2.417,5.32,2.417l0.205-0.004L6.04,3.324L5.93,3.326C5.898,3.327,5.872,3.334,5.873,3.365l0.003,0.201
	c0.001,0.032,0.027,0.047,0.058,0.047l0.594-0.01C6.56,3.603,6.566,3.586,6.566,3.555L6.562,3.353
	C6.562,3.322,6.555,3.315,6.523,3.316L6.359,3.319l0.217-0.761L6.989,3.25L6.867,3.252C6.835,3.253,6.791,3.26,6.791,3.292
	l0.003,0.201C6.795,3.525,6.84,3.54,6.872,3.54l0.594-0.01C7.498,3.529,7.542,3.512,7.542,3.48L7.538,3.279
	C7.538,3.247,7.493,3.242,7.461,3.242L7.307,3.245l0.349-1.041l0.189-0.003C7.877,2.2,7.922,2.188,7.921,2.156L7.918,1.955
	C7.917,1.924,7.872,1.913,7.84,1.914z"/>
<path fill="#FFFFFF" d="M9.09,2.005C9.086,2.004,8.283,1.961,8.283,1.961C8.25,1.958,8.031,1.932,8.018,2.185
	C8.004,2.459,7.994,2.649,7.994,2.649S7.961,2.878,8.236,2.892l0.772,0.04c0.002,0-0.018,0.332-0.018,0.332S8.202,3.224,8.195,3.227
	C8.2,3.13,8.205,3.036,8.207,2.993c0-0.006,0.001-0.011,0.001-0.015c0-0.008-0.003-0.013-0.009-0.016
	c-0.007-0.01-0.02-0.015-0.037-0.016L7.98,2.936c-0.032-0.002-0.058,0.01-0.06,0.042c0,0-0.015,0.29-0.016,0.301
	C7.893,3.504,8.162,3.535,8.198,3.538c0.003,0.001,0.772,0.039,0.772,0.039s0.241,0.037,0.256-0.244S9.25,2.857,9.25,2.857
	s0.008-0.159-0.14-0.205C9.103,2.649,9.095,2.649,9.087,2.648L8.272,2.606C8.267,2.6,8.264,2.596,8.264,2.596l0.012-0.335
	l0.772,0.04L9.035,2.552C9.034,2.584,9.059,2.589,9.091,2.591L9.263,2.6c0.032,0.002,0.057-0.001,0.059-0.033
	c0,0,0.015-0.282,0.017-0.33C9.349,2.058,9.175,2.019,9.09,2.005z"/>
<path fill="#FFFFFF" d="M10.547,2.183L9.805,2.095C9.648,2.076,9.504,2.19,9.486,2.347L9.364,3.375
	C9.346,3.532,9.459,3.676,9.616,3.694l0.742,0.088c0.157,0.019,0.301-0.095,0.319-0.252l0.121-1.029
	C10.817,2.345,10.704,2.201,10.547,2.183z M10.389,3.465L9.66,3.379l0.114-0.967l0.729,0.086L10.389,3.465z"/>
<path fill="#FFFFFF" d="M12.645,2.655l-0.582-0.118c-0.031-0.006-0.061,0.014-0.068,0.045l-0.04,0.197
	C11.949,2.809,11.969,2.84,12,2.846l0.178,0.036l-0.151,0.742l-0.602-0.928l0.166,0.034c0.031,0.006,0.061-0.014,0.068-0.045
	l0.04-0.197c0.006-0.031-0.014-0.061-0.045-0.068l-0.582-0.118c-0.031-0.006-0.061,0.014-0.068,0.045l-0.04,0.197
	c-0.006,0.031,0.014,0.061,0.045,0.068l0.087,0.018l-0.196,0.963L10.743,3.56c-0.031-0.006-0.061,0.014-0.068,0.045l-0.04,0.197
	c-0.006,0.031,0.014,0.061,0.045,0.068l0.582,0.118c0.031,0.006,0.061-0.014,0.068-0.045l0.04-0.197
	c0.006-0.031-0.014-0.061-0.045-0.068l-0.198-0.04l0.152-0.747l0.588,0.906l-0.123-0.025c-0.031-0.006-0.061,0.014-0.068,0.045
	l-0.04,0.197c-0.006,0.031,0.014,0.061,0.045,0.068l0.582,0.118c0.031,0.006,0.061-0.014,0.068-0.045l0.04-0.197
	c0.006-0.031-0.014-0.061-0.045-0.068l-0.113-0.023l0.191-0.94l0.178,0.036c0.031,0.006,0.061-0.014,0.068-0.045l0.04-0.197
	C12.696,2.691,12.676,2.661,12.645,2.655z"/>
<path fill="#FFFFFF" d="M3.923,10.858c-0.004-0.002-0.791-0.162-0.792-0.162c-0.032-0.008-0.244-0.066-0.295,0.183
	c-0.054,0.269-0.092,0.455-0.092,0.455s-0.067,0.221,0.203,0.276l0.758,0.153c0.002,0-0.067,0.326-0.067,0.326
	s-0.773-0.156-0.781-0.155c0.019-0.095,0.038-0.187,0.046-0.229c0.001-0.005,0.002-0.011,0.003-0.014
	c0.002-0.008-0.001-0.013-0.006-0.018c-0.006-0.011-0.017-0.018-0.035-0.022l-0.178-0.036c-0.031-0.006-0.059,0.002-0.065,0.033
	c0,0-0.058,0.285-0.06,0.295c-0.045,0.221,0.217,0.291,0.252,0.299c0.003,0.001,0.757,0.153,0.757,0.153s0.233,0.072,0.289-0.204
	c0.056-0.276,0.094-0.468,0.094-0.468s0.031-0.156-0.108-0.223c-0.006-0.004-0.014-0.006-0.022-0.007l-0.8-0.162
	c-0.004-0.007-0.006-0.011-0.006-0.011l0.062-0.33l0.757,0.153l-0.05,0.246c-0.006,0.031,0.018,0.04,0.049,0.047l0.169,0.034
	c0.031,0.006,0.057,0.007,0.063-0.024c0,0,0.056-0.277,0.065-0.324C4.171,10.948,4.005,10.885,3.923,10.858z"/>
<path fill="#FFFFFF" d="M7.086,12.685c0.004-0.032-0.019-0.06-0.05-0.064l-0.251-0.03l-0.404-0.931l0.072,0.008
	c0.032,0.004,0.06-0.019,0.064-0.05l0.024-0.2c0.004-0.032-0.019-0.06-0.05-0.064l-0.59-0.07c-0.032-0.004-0.06,0.019-0.064,0.05
	l-0.024,0.2c-0.004,0.032,0.019,0.06,0.05,0.064l0.099,0.012l-0.385,0.975l-0.191-0.009c-0.032-0.002-0.059,0.023-0.06,0.055
	l-0.01,0.201c-0.002,0.032,0.023,0.059,0.055,0.06l0.593,0.028c0.032,0.002,0.059-0.023,0.06-0.055l0.01-0.201
	c0.002-0.032-0.023-0.059-0.055-0.06l-0.159-0.008l0.07-0.177l0.597,0.059l0.035,0.08l-0.075-0.009
	c-0.032-0.004-0.06,0.019-0.064,0.05l-0.024,0.2c-0.004,0.032,0.019,0.06,0.05,0.064l0.59,0.07c0.032,0.004,0.06-0.019,0.064-0.05
	L7.086,12.685z M5.976,12.198l0.185-0.467l0.22,0.507L5.976,12.198z"/>
<path fill="#FFFFFF" d="M10.301,11.083l-0.742,0.086c-0.157,0.018-0.271,0.161-0.252,0.318l0.119,1.029
	c0.018,0.157,0.161,0.271,0.318,0.252l0.742-0.086c0.157-0.018,0.271-0.161,0.252-0.318l-0.119-1.029
	C10.601,11.179,10.458,11.065,10.301,11.083z M10.443,12.368l-0.729,0.084l-0.112-0.967l0.729-0.084L10.443,12.368z"/>
<path fill="#FFFFFF" d="M12.27,10.638l-0.577,0.139c-0.031,0.007-0.05,0.038-0.042,0.069l0.047,0.196
	c0.007,0.031,0.038,0.05,0.069,0.042l0.177-0.043l0.177,0.736l-0.938-0.586l0.165-0.04c0.031-0.007,0.05-0.038,0.042-0.069
	l-0.047-0.196c-0.007-0.031-0.038-0.05-0.069-0.042l-0.577,0.139c-0.031,0.007-0.05,0.038-0.042,0.069l0.047,0.196
	c0.007,0.031,0.038,0.05,0.069,0.042l0.087-0.021l0.23,0.955l-0.157,0.038c-0.031,0.007-0.05,0.038-0.042,0.069l0.047,0.196
	c0.007,0.031,0.038,0.05,0.069,0.042l0.577-0.139c0.031-0.007,0.05-0.038,0.042-0.069l-0.047-0.196
	c-0.007-0.031-0.038-0.05-0.069-0.042l-0.197,0.047l-0.178-0.741l0.916,0.573l-0.122,0.029c-0.031,0.007-0.05,0.038-0.042,0.069
	l0.047,0.196c0.007,0.031,0.038,0.05,0.069,0.042l0.577-0.139c0.031-0.007,0.05-0.038,0.042-0.069l-0.047-0.196
	c-0.007-0.031-0.038-0.05-0.069-0.042l-0.112,0.027l-0.225-0.933l0.177-0.043c0.031-0.007,0.05-0.038,0.042-0.069l-0.047-0.196
	C12.332,10.65,12.301,10.631,12.27,10.638z"/>
<path fill="#FFFFFF" d="M5.677,11.267l-0.146-0.031h0l-1.05-0.221h0l-0.131-0.028c-0.032-0.007-0.064,0.014-0.071,0.046
	l-0.114,0.539c-0.007,0.032,0.014,0.064,0.046,0.071l0.146,0.031c0.032,0.007,0.064-0.014,0.071-0.046l0.055-0.262l0.328,0.069
	l-0.19,0.904l-0.146-0.031c-0.032-0.007-0.064,0.014-0.071,0.046l-0.046,0.219c-0.007,0.032,0.014,0.064,0.046,0.071L4.96,12.76
	c0.032,0.007,0.064-0.014,0.071-0.046l0.046-0.219c0.007-0.032-0.014-0.064-0.046-0.071l-0.146-0.031l0.19-0.904l0.328,0.069
	l-0.055,0.262c-0.007,0.032,0.014,0.064,0.046,0.071l0.146,0.031c0.032,0.007,0.064-0.014,0.071-0.046l0.114-0.539
	C5.73,11.305,5.709,11.273,5.677,11.267z"/>
<path fill="#FFFFFF" d="M9.184,12.59c-0.002-0.033-0.03-0.058-0.063-0.056l-0.143,0.007l-0.046-0.893l0.181-0.009
	c0.033-0.002,0.058-0.03,0.056-0.063l-0.012-0.223c-0.002-0.033-0.03-0.058-0.063-0.056L8.53,11.325
	c-0.033,0.002-0.058,0.03-0.056,0.063l0.012,0.223c0.002,0.033,0.03,0.058,0.063,0.056l0.117-0.006l0.046,0.893l-0.155,0.008
	c-0.033,0.002-0.058,0.03-0.056,0.063l0.012,0.223c0.002,0.033,0.03,0.058,0.063,0.056l0.565-0.029
	c0.033-0.002,0.058-0.03,0.056-0.063L9.184,12.59z"/>
<path fill="#FFFFFF" d="M8.286,11.312l-0.149-0.002h0l-1.073-0.012h0l-0.134-0.001c-0.033,0-0.06,0.026-0.06,0.059l-0.006,0.551
	c0,0.033,0.026,0.06,0.059,0.06l0.149,0.002c0.033,0,0.06-0.026,0.06-0.059l0.003-0.268l0.335,0.004L7.46,12.57l-0.149-0.002
	c-0.033,0-0.06,0.026-0.06,0.059L7.249,12.85c0,0.033,0.026,0.06,0.059,0.06l0.566,0.006c0.033,0,0.06-0.026,0.06-0.059l0.002-0.223
	c0-0.033-0.026-0.06-0.059-0.06l-0.149-0.002l0.01-0.924l0.335,0.004l-0.003,0.268c0,0.033,0.026,0.06,0.059,0.06l0.149,0.002
	c0.033,0,0.06-0.026,0.06-0.059l0.006-0.551C8.346,11.34,8.319,11.313,8.286,11.312z"/>
</svg>
