<?xml version="1.0" encoding="utf-8"?>
<!-- Generator: Adobe Illustrator 20.0.0, SVG Export Plug-In . SVG Version: 6.00 Build 0)  -->
<svg version="1.1" id="lotteria" xmlns="http://www.w3.org/2000/svg" xmlns:xlink="http://www.w3.org/1999/xlink" x="0px" y="0px"
	 viewBox="0 0 15 15" enable-background="new 0 0 15 15" xml:space="preserve">
<circle fill="#FFFFFF" cx="7.5" cy="7.5" r="7.5"/>
<path fill="#F52318" d="M8.3,9.7c1.8,0,4.4,0,6.4,0C14.9,9,15,8.3,15,7.5C15,3.4,11.6,0,7.5,0C6.7,0,6,0.1,5.3,0.3v6.6
	C5.3,6.9,5.1,9.7,8.3,9.7z"/>
<path fill="#F8D509" d="M0,7.5C0,11.6,3.4,15,7.5,15c2.3,0,4.4-1.1,5.8-2.8c-1.8,0-3.9,0-5.8,0c-4.8,0-4.8-5.4-4.8-5.4V1.7
	C1.1,3.1,0,5.2,0,7.5z"/>
</svg>
