<?xml version="1.0" encoding="utf-8"?>
<!-- Generator: Adobe Illustrator 20.0.0, SVG Export Plug-In . SVG Version: 6.00 Build 0)  -->
<svg version="1.1" id="mac" xmlns="http://www.w3.org/2000/svg" xmlns:xlink="http://www.w3.org/1999/xlink" x="0px" y="0px"
	 viewBox="0 0 15 15" enable-background="new 0 0 15 15" xml:space="preserve">
<circle fill="#BA1B20" cx="7.5" cy="7.5" r="7.5"/>
<path fill="#FCCB0F" d="M9.7,2.9C8.9,3,8.4,3.5,7.5,5.9C6.6,3.5,6.1,3,5.3,2.9C2.5,3,1.9,12.1,1.9,12.1s0.2,0,1.5,0
	C3.3,6.6,4.8,3.8,5.3,3.7c1.1,0.1,1.4,7.9,1.4,7.9l1.6,0c0,0,0.3-7.7,1.4-7.8c0.4,0.1,2,2.9,1.9,8.4c1.3,0,1.5,0,1.5,0
	S12.8,3,9.7,2.9z"/>
</svg>
