<?xml version="1.0" encoding="utf-8"?>
<!-- Generator: Adobe Illustrator 20.0.0, SVG Export Plug-In . SVG Version: 6.00 Build 0)  -->
<svg version="1.1" id="machiyakuba" xmlns="http://www.w3.org/2000/svg" xmlns:xlink="http://www.w3.org/1999/xlink" x="0px"
	 y="0px" viewBox="0 0 15 15" enable-background="new 0 0 15 15" xml:space="preserve">
<circle fill="#FF0047" cx="7.5" cy="7.5" r="4.7"/>
<path d="M7.5,3c1.2,0,2.4,0.5,3.2,1.3s1.3,2,1.3,3.2c0,1.2-0.5,2.4-1.3,3.2c-0.9,0.9-2,1.3-3.2,1.3s-2.4-0.5-3.2-1.3
	C3.4,9.9,3,8.7,3,7.5c0-1.2,0.5-2.4,1.3-3.2S6.3,3,7.5,3 M7.5,2.5c-2.8,0-5,2.2-5,5s2.2,5,5,5s5-2.2,5-5S10.3,2.5,7.5,2.5L7.5,2.5z"
	/>
</svg>
