<?xml version="1.0" encoding="utf-8"?>
<!-- Generator: Adobe Illustrator 20.0.0, SVG Export Plug-In . SVG Version: 6.00 Build 0)  -->
<svg version="1.1" id="marina" xmlns="http://www.w3.org/2000/svg" xmlns:xlink="http://www.w3.org/1999/xlink" x="0px" y="0px"
	 viewBox="0 0 15 15" enable-background="new 0 0 15 15" xml:space="preserve">
<rect x="7.1" y="0.45" width="0.6" height="9.3"/>
<polygon points="8.15,0.6 8.15,9.65 13.45,9.65 "/>
<path d="M6.92,0.6c0,0-10.73,7.12,0,9.05C3.88,4.05,6.92,0.6,6.92,0.6z"/>
<path d="M12.83,11.95c-0.08,0.04-0.19,0.09-0.34,0.15c-0.15,0.06-0.33,0.13-0.54,0.2c-0.21,0.07-0.45,0.14-0.71,0.19
	c-0.21,0.04-0.43,0.08-0.66,0.1c1.06-0.61,1.79-1.51,1.94-2.55H2.26c0.08,0.51,0.29,0.98,0.61,1.4c-0.27,0.12-0.49,0.25-0.65,0.35
	c-0.14,0.09-0.24,0.17-0.31,0.22c-0.07,0.05-0.1,0.09-0.1,0.09s0.04-0.02,0.12-0.06c0.08-0.04,0.2-0.08,0.35-0.14
	c0.2-0.07,0.47-0.16,0.79-0.23c0.15-0.03,0.31-0.07,0.48-0.09c0.27-0.04,0.55-0.06,0.86-0.06c0.3,0,0.62,0.03,0.94,0.09
	c0.04,0.01,0.08,0.02,0.12,0.02c0.04,0.01,0.08,0.02,0.12,0.03c0.04,0.01,0.08,0.02,0.12,0.03c0.04,0.01,0.08,0.02,0.12,0.04
	c0.04,0.01,0.08,0.02,0.12,0.04c0.04,0.01,0.08,0.03,0.12,0.04c0.04,0.01,0.08,0.03,0.12,0.04c0.04,0.02,0.08,0.03,0.12,0.05
	l0.12,0.05l0.12,0.06l0.12,0.06c0.04,0.02,0.08,0.04,0.11,0.06c0.08,0.04,0.15,0.08,0.23,0.13l0.23,0.15
	c0.08,0.05,0.16,0.1,0.24,0.14c0.09,0.05,0.18,0.09,0.27,0.14c0.09,0.04,0.18,0.08,0.27,0.12c0.09,0.04,0.18,0.07,0.27,0.1
	c0.09,0.03,0.19,0.06,0.28,0.08c0.09,0.02,0.19,0.04,0.28,0.06c0.09,0.02,0.19,0.03,0.28,0.05c0.05,0.01,0.11,0.01,0.16,0.02
	c0.04,0,0.08,0.01,0.11,0.01c0.37,0.03,0.73,0,1.05-0.05c0.33-0.06,0.63-0.14,0.9-0.24c0.54-0.2,0.94-0.45,1.21-0.64
	c0.13-0.1,0.23-0.18,0.3-0.24c0.07-0.06,0.1-0.09,0.1-0.09S12.91,11.91,12.83,11.95z"/>
</svg>
