<?xml version="1.0" encoding="utf-8"?>
<!-- Generator: Adobe Illustrator 20.0.0, SVG Export Plug-In . SVG Version: 6.00 Build 0)  -->
<svg version="1.1" id="minato" xmlns="http://www.w3.org/2000/svg" xmlns:xlink="http://www.w3.org/1999/xlink" x="0px" y="0px"
	 viewBox="0 0 15 15" enable-background="new 0 0 15 15" xml:space="preserve">
<path d="M13.5,8.5l-1-1.2l-1-1.2l-0.3,1.6l-0.3,1.6l1-0.5c-0.3,2.1-2.1,3.1-3.3,2.6L8.1,6.4h1.5v-1H8L8,4.3c0.6-0.2,1-0.8,1-1.5
	c0-0.9-0.7-1.6-1.6-1.6S5.7,1.9,5.7,2.8c0,0.7,0.4,1.3,1,1.5L6.7,5.4H5.1v1h1.6l-0.3,4.9C5,11.7,3.4,10.7,3.1,8.7l1.1,0.5L3.9,7.6
	L3.6,6l-1,1.2l-1,1.2l1.2,0c-0.7,2.8,1.5,3.7,2.6,4.3c1.6,0.4,2.2,1,2.2,1l0,0l0,0c0,0,0.5-0.6,2.2-1c1.1-0.5,3.3-1.4,2.6-4.3
	L13.5,8.5z M7.3,2c0.5,0,0.8,0.4,0.8,0.8S7.8,3.6,7.3,3.6c-0.5,0-0.8-0.4-0.8-0.8S6.9,2,7.3,2z"/>
</svg>
