<?xml version="1.0" encoding="utf-8"?>
<!-- Generator: Adobe Illustrator 20.1.0, SVG Export Plug-In . SVG Version: 6.00 Build 0)  -->
<svg version="1.1" id="レイヤー_1" xmlns="http://www.w3.org/2000/svg" xmlns:xlink="http://www.w3.org/1999/xlink" x="0px"
	 y="0px" viewBox="0 0 15 15" enable-background="new 0 0 15 15" xml:space="preserve">
<path fill="#2f2f2f" d="M15,8.8l-1.5-3.6l-1.5,3.6h1.1c-0.6,2-2.2,3.1-3.6,2.9H8.3v-4h1.1V6.3H8.3V5.4c0.1,0,0.2-0.1,0.4-0.1c1-0.4,1.6-1.4,1.6-2.5
	C10.2,1.2,9,0,7.5,0S4.7,1.2,4.7,2.8c0,1.1,0.7,2.1,1.6,2.5c0.1,0.1,0.2,0.1,0.4,0.1l0,0v0.9H5.6v1.5h1.1v4H5.5l0,0
	c-1.4,0.2-3-0.9-3.6-2.9h1.1L1.5,5.2L0,8.8h1c-0.3,3.1,2.2,4.2,3.6,4.8C6.8,14.2,7.5,15,7.5,15c0,0,0.7-0.8,2.9-1.4
	c1.4-0.6,3.9-1.7,3.6-4.8L15,8.8L15,8.8z M6.4,3.8C6.1,3.5,6,3.2,6,2.8C6,2,6.7,1.3,7.5,1.3C8.3,1.3,9,2,9,2.8c0,0.4-0.1,0.7-0.3,1
	C8.5,3.9,8.4,4,8.3,4.1v0C8,4.2,7.8,4.3,7.5,4.3c-0.1,0-0.2,0-0.3,0c0,0,0,0,0,0h0C7,4.2,6.9,4.1,6.7,4.1v0C6.6,4,6.5,3.9,6.4,3.8z"
	/>
</svg>
