<?xml version="1.0" encoding="utf-8"?>
<!-- Generator: Adobe Illustrator 20.1.0, SVG Export Plug-In . SVG Version: 6.00 Build 0)  -->
<svg version="1.1" id="レイヤー_1" xmlns="http://www.w3.org/2000/svg" xmlns:xlink="http://www.w3.org/1999/xlink" x="0px"
	 y="0px" viewBox="0 0 11 11" enable-background="new 0 0 11 11" xml:space="preserve">
<path d="M11,6.5L9.9,3.8L8.8,6.5h0.8C9.2,7.9,8,8.7,6.9,8.6H6.1V5.7h0.8V4.6H6.1V4c0.1,0,0.2-0.1,0.3-0.1C7,3.6,7.5,2.8,7.5,2
	c0-1.1-0.9-2-2-2s-2,0.9-2,2c0,0.8,0.5,1.5,1.2,1.8c0.1,0,0.2,0.1,0.3,0.1l0,0v0.6H4.1v1.1h0.8v2.9H4.1l0,0C3,8.7,1.8,7.9,1.4,6.5
	h0.8L1.1,3.8L0,6.5h0.8c-0.2,2.3,1.6,3,2.6,3.5c1.6,0.4,2.1,1,2.1,1c0,0,0.5-0.6,2.1-1c1-0.5,2.9-1.2,2.6-3.5L11,6.5L11,6.5z
	 M4.7,2.8C4.5,2.6,4.4,2.3,4.4,2C4.4,1.4,4.9,1,5.5,1C6.1,1,6.6,1.4,6.6,2c0,0.3-0.1,0.5-0.3,0.7C6.2,2.8,6.2,2.9,6.1,3v0
	C5.9,3.1,5.7,3.1,5.5,3.1c-0.1,0-0.1,0-0.2,0c0,0,0,0,0,0h0C5.2,3.1,5,3,4.9,3v0C4.8,2.9,4.8,2.8,4.7,2.8z"/>
</svg>
