<?xml version="1.0" encoding="utf-8"?>
<!-- Generator: Adobe Illustrator 20.1.0, SVG Export Plug-In . SVG Version: 6.00 Build 0)  -->
<svg version="1.1" id="mos" xmlns="http://www.w3.org/2000/svg" xmlns:xlink="http://www.w3.org/1999/xlink" x="0px" y="0px"
	 viewBox="0 0 15 15" enable-background="new 0 0 15 15" xml:space="preserve">
<circle fill="#11AB3B" cx="7.5" cy="7.5" r="7.5"/>
<g>
	<path fill="#145C46" d="M2.2614,11.6455c0,0-1.875-1.0833-1.3958-3.0208c0.7917-1.5625,2.7292-5.4375,2.7292-5.4375
		s1.0417-1.3125,2.3333-0.8333c0.3542,0.1458,1.005,0.1532,1.6458,1.6667c0.2708-0.6667,0.625-1.3958,1.3333-1.625
		c0.7083-0.2292,1.9375-0.3125,2.6875,0.8958c0.2917,0.5625,2.5,5.1458,2.5,5.1458s0.6458,2.0417-1.0833,3.1042
		c-0.6875,0.3333-2.375,0.7917-3.2708-1.6042c-0.3125,0.875-0.5417,1.4583-1.5208,1.7292c-0.5,0.1458-2.1667,0.5208-2.9167-1.6875
		C5.0114,10.7705,4.1572,12.3747,2.2614,11.6455z"/>
	<path fill="#FFFFFF" d="M5.0739,9.4789l-1.9167-4.25c0,0-1.7708,3.375-1.7917,4.0417s0.4375,2.4583,2.4583,1.8333
		C4.3447,10.958,4.7822,10.1039,5.0739,9.4789z"/>
	<path fill="#FFFFFF" d="M8.3378,11.0725L8.3378,11.0725c-0.8734,0.4051-1.9194,0.0218-2.3245-0.8516L3.7144,5.2638
		C3.3093,4.3904,3.6926,3.3444,4.566,2.9393l0,0c0.8734-0.4051,1.9194-0.0218,2.3245,0.8516L9.1894,8.748
		C9.5944,9.6215,9.2112,10.6675,8.3378,11.0725z"/>
	<path fill="#FFFFFF" d="M12.7752,11.0436L12.7752,11.0436c-0.8734,0.4051-1.9194,0.0218-2.3245-0.8516L8.1518,5.2349
		C7.7468,4.3615,8.13,3.3154,9.0034,2.9104l0,0c0.8734-0.4051,1.9194-0.0218,2.3245,0.8516l2.2989,4.9571
		C14.0319,9.5925,13.6486,10.6385,12.7752,11.0436z"/>
</g>
</svg>
