<?xml version="1.0" encoding="utf-8"?>
<!-- Generator: Adobe Illustrator 16.0.0, SVG Export Plug-In . SVG Version: 6.00 Build 0)  -->
<!DOCTYPE svg PUBLIC "-//W3C//DTD SVG 1.1//EN" "http://www.w3.org/Graphics/SVG/1.1/DTD/svg11.dtd">
<svg version="1.1" id="Icon" xmlns="http://www.w3.org/2000/svg" xmlns:xlink="http://www.w3.org/1999/xlink" x="0px" y="0px"
	 width="15px" height="15px" viewBox="24.5 24.5 15 15" enable-background="new 24.5 24.5 15 15" xml:space="preserve">
<rect x="24.5" y="24.5" fill="none" width="15" height="15"/>
<g>
	<path fill="#333333" d="M38.072,31.804c0.026-0.709-0.421-0.945-0.421-0.945s0.082-0.082,0.038-0.453
		c-0.018-0.156-0.273-0.098-0.562-0.125c-1.234-0.866-2.651-1.238-4.332-1.234c-1.985,0.006-3.414,1.051-4.175,1.47
		c-0.664,0.127-2.495,0.919-2.784,1.261c-0.419,0.919,0.316,1.733,0.316,1.733c0.056,0.057,0.811,0.115,1.873,0.17
		c0.01,0.703,0.583,1.272,1.288,1.272c0.671,0,1.217-0.516,1.278-1.171c1.101,0.034,2.223,0.059,3.137,0.066
		c0.091,0.623,0.624,1.104,1.271,1.104c0.693,0,1.258-0.55,1.286-1.236c1.048-0.208,1.978-0.614,1.998-0.678
		C38.309,32.96,38.309,31.962,38.072,31.804z M28.195,31.334c-0.078,0.059-0.966,0.594-1.055,0.629
		c-0.208,0.083-0.902,0.016-0.821-0.089c0.167-0.218,1.129-0.717,1.82-0.831C28.443,31.021,28.273,31.275,28.195,31.334z
		 M29.33,34.359c-0.385,0-0.696-0.312-0.696-0.696s0.311-0.696,0.696-0.696c0.385,0,0.696,0.312,0.696,0.696
		S29.715,34.359,29.33,34.359z M32.722,30.967h-3.239c0,0-0.124-0.041-0.124-0.179c0-0.137,1.277-1.057,3.362-1.249V30.967z
		 M35.016,34.359c-0.385,0-0.695-0.312-0.695-0.696s0.311-0.696,0.695-0.696c0.386,0,0.697,0.312,0.697,0.696
		S35.401,34.359,35.016,34.359z M35.878,30.966h-2.676v-1.433c2.168,0.082,3.156,0.939,3.156,0.939L35.878,30.966z"/>
	<path fill="#FFFFFF" d="M28.195,31.334c-0.078,0.059-0.966,0.594-1.055,0.629c-0.208,0.083-0.902,0.016-0.821-0.089
		c0.167-0.218,1.13-0.717,1.82-0.831C28.443,31.021,28.273,31.275,28.195,31.334z"/>
	<ellipse fill="#FFFFFF" cx="29.33" cy="33.663" rx="0.696" ry="0.696"/>
	<path fill="#FFFFFF" d="M32.722,30.967h-3.239c0,0-0.124-0.041-0.124-0.179c0-0.137,1.277-1.057,3.362-1.249V30.967z"/>
	<ellipse fill="#FFFFFF" cx="35.016" cy="33.663" rx="0.696" ry="0.696"/>
	<path fill="#FFFFFF" d="M35.878,30.966h-2.676v-1.433c2.168,0.082,3.156,0.939,3.156,0.939L35.878,30.966z"/>
	<path fill="#FFFFFF" d="M32.819,29.047c1.67,0,3.079,0.373,4.308,1.234c0.289,0.026,0.545-0.031,0.562,0.125
		c0.044,0.372-0.038,0.453-0.038,0.453s0.447,0.236,0.421,0.945c0.236,0.158,0.236,1.156,0.21,1.235
		c-0.021,0.063-0.95,0.47-1.998,0.678c-0.028,0.687-0.593,1.236-1.286,1.236c-0.646,0-1.18-0.481-1.271-1.104
		c-0.914-0.008-2.036-0.032-3.137-0.066c-0.061,0.655-0.607,1.171-1.278,1.171c-0.705,0-1.278-0.569-1.288-1.272
		c-1.062-0.055-1.817-0.113-1.874-0.17c0,0-0.735-0.813-0.316-1.733c0.29-0.341,2.121-1.133,2.785-1.261
		c0.762-0.419,2.19-1.464,4.175-1.47C32.803,29.047,32.812,29.047,32.819,29.047 M32.819,28.578h-0.025
		c-1.829,0.005-3.217,0.83-4.046,1.322c-0.107,0.064-0.206,0.123-0.296,0.173c-0.727,0.17-2.587,0.945-2.974,1.401
		c-0.028,0.033-0.051,0.069-0.069,0.108c-0.541,1.186,0.356,2.2,0.395,2.242c0.005,0.006,0.011,0.012,0.017,0.018
		c0.139,0.139,0.197,0.197,1.799,0.286c0.206,0.743,0.891,1.293,1.694,1.293c0.757,0,1.404-0.476,1.649-1.159
		c0.843,0.024,1.676,0.042,2.41,0.051c0.262,0.653,0.903,1.108,1.627,1.108c0.817,0,1.504-0.555,1.7-1.315
		c0.496-0.119,0.909-0.261,1.133-0.344c0.725-0.269,0.834-0.387,0.896-0.577c0.036-0.108,0.106-1.04-0.188-1.542
		c-0.023-0.434-0.19-0.75-0.371-0.955c0.005-0.101,0-0.213-0.015-0.338c-0.058-0.521-0.61-0.527-0.792-0.529
		c-0.026,0-0.052,0-0.078-0.001C36.043,28.985,34.581,28.578,32.819,28.578L32.819,28.578z"/>
</g>
</svg>
