<?xml version="1.0" encoding="utf-8"?>
<!-- Generator: Adobe Illustrator 16.0.0, SVG Export Plug-In . SVG Version: 6.00 Build 0)  -->
<!DOCTYPE svg PUBLIC "-//W3C//DTD SVG 1.1//EN" "http://www.w3.org/Graphics/SVG/1.1/DTD/svg11.dtd">
<svg version="1.1" id="Icon" xmlns="http://www.w3.org/2000/svg" xmlns:xlink="http://www.w3.org/1999/xlink" x="0px" y="0px"
	 width="15px" height="15px" viewBox="24.5 24.5 15 15" enable-background="new 24.5 24.5 15 15" xml:space="preserve">
<rect x="24.5" y="24.5" fill="none" width="15" height="15"/>
<g>
	<path fill="#333333" d="M37.941,31.014c0.462-1.554,0.317-2.845,0.104-3.139c-0.237-0.329-1.36-0.946-3.006-1.021l-1.181,0.042
		c-1.249,0.143-2.697,0.609-4.247,1.667c-1.552,1.059-2.43,2.084-3.009,3.198c0,0-0.38,0.773-0.531,1.219
		c-0.516,1.57-0.314,2.862-0.031,3.255c0.215,0.299,1.336,0.835,2.943,0.91l1.175-0.027c1.287-0.127,2.771-0.563,4.316-1.571
		c1.542-1.008,2.487-2.245,3.047-3.433L37.941,31.014z"/>
	<path fill="#FFFFFF" d="M37.515,32.113c0.175-0.373,0.308-0.738,0.417-1.091l-2.916-4.171c-0.36-0.014-0.744-0.003-1.15,0.042
		l1.77,2.532l-1.748,1.224l-0.351-0.501l-0.419,0.293l0.351,0.501l-1.344,0.94l-0.352-0.502l-0.418,0.293l0.351,0.502l-1.344,0.94
		l-0.352-0.503l-0.419,0.293l0.352,0.503l-1.6,1.119l-1.827-2.613c-0.187,0.359-0.333,0.71-0.446,1.05l2.924,4.184
		c0.363,0.018,0.75,0.009,1.158-0.028l-1.737-2.487l1.6-1.119l0.407,0.582l0.419-0.293l-0.406-0.582l1.345-0.94l0.408,0.583
		l0.418-0.293l-0.407-0.582l1.344-0.94l0.407,0.582l0.419-0.293l-0.407-0.582l1.748-1.223L37.515,32.113z"/>
	<path fill="#FFFFFF" d="M35.039,26.854c1.646,0.075,2.769,0.692,3.006,1.021c0.214,0.294,0.358,1.584-0.104,3.139l-0.42,1.101
		c-0.56,1.188-1.505,2.425-3.047,3.433c-1.545,1.008-3.029,1.444-4.316,1.571l-1.175,0.027c-1.607-0.075-2.728-0.611-2.943-0.91
		c-0.283-0.393-0.484-1.685,0.031-3.255c0.151-0.446,0.531-1.219,0.531-1.219c0.58-1.114,1.458-2.139,3.009-3.198
		c1.55-1.058,2.998-1.525,4.247-1.667L35.039,26.854 M35.039,26.385c-0.005,0-0.011,0-0.017,0l-1.182,0.042
		c-0.012,0-0.023,0.001-0.036,0.002c-1.514,0.173-3.013,0.76-4.458,1.746c-1.489,1.017-2.494,2.087-3.161,3.369
		c-0.021,0.042-0.4,0.815-0.559,1.285c-0.533,1.622-0.38,3.105,0.032,3.68c0.349,0.483,1.679,1.028,3.302,1.104
		c0.007,0,0.015,0.001,0.022,0.001c0.003,0,0.007,0,0.011-0.001l1.175-0.026c0.012,0,0.023-0.001,0.035-0.002
		c1.569-0.155,3.092-0.709,4.526-1.646c1.444-0.943,2.525-2.163,3.215-3.625c0.006-0.011,0.01-0.022,0.015-0.033l0.419-1.101
		c0.005-0.011,0.008-0.022,0.012-0.034c0.469-1.575,0.383-3.067,0.034-3.547c-0.33-0.456-1.592-1.133-3.364-1.214
		C35.054,26.385,35.047,26.385,35.039,26.385L35.039,26.385z"/>
</g>
</svg>
