<?xml version="1.0" encoding="utf-8"?>
<!-- Generator: Adobe Illustrator 16.0.0, SVG Export Plug-In . SVG Version: 6.00 Build 0)  -->
<!DOCTYPE svg PUBLIC "-//W3C//DTD SVG 1.1//EN" "http://www.w3.org/Graphics/SVG/1.1/DTD/svg11.dtd">
<svg version="1.1" id="Icon" xmlns="http://www.w3.org/2000/svg" xmlns:xlink="http://www.w3.org/1999/xlink" x="0px" y="0px"
	 width="15px" height="15px" viewBox="24.5 24.5 15 15" enable-background="new 24.5 24.5 15 15" xml:space="preserve">
<rect x="24.5" y="24.5" fill="none" width="15" height="15"/>
<g>
	<path fill="#333333" d="M29.285,35.926c1.239,0.168,3.601,1.896,5.332,2.037c2.578,0.21,3.037-1.841,3.037-1.841
		s-0.852,1.225-3.023,0.981c-2.171-0.243-3.862-2.161-5.438-2.041s-3.082,1.322-3.374,1.806
		C27.305,36.278,28.046,35.756,29.285,35.926z"/>
	<path fill="#333333" d="M38.137,35.104c-0.212-0.58-1.04-1.229-1.04-1.229s0.472-2.421-1.483-4.382
		c-0.842-0.844-1.758-1.51-2.72-1.973c0.226-0.812,1.227-1.448,0.723-1.498c-0.839,0.038-1.749,0.571-2.285,0.939
		c-0.52-0.123-1.049-0.186-1.584-0.186c-1.349,0.001-2.48,1.008-2.885,2.476c-0.274,0.996-1.442,1.512-1.013,1.757
		c0.428,0.245,1.469-0.612,2.265-0.673c0.11-0.008,0.227-0.002,0.348,0.013c-0.03,0.449-0.01,1.079,0.279,1.411
		c0.479,0.551,0.798,0.524,0.777,0c-0.013-0.329,0.119-0.723,0.298-1.039c0.231,0.076,0.463,0.148,0.694,0.207
		c0.004,0.007,0.005,0.014,0.009,0.022c0,0,0.503,1.665,1.349,1.996s1.179,0.118,0.856-0.448c-0.192-0.334-0.277-0.808-0.273-1.24
		c0.856,0.172,1.602,0.408,2.303,0.791c0.517,0.283,1.339,0.878,1.471,1.845c-0.32,0.328-0.583,0.494-1.17,1.305
		c-0.173,0.239-0.229,0.483,0.158,0.222c0.763-0.515,1.485-0.805,2.685-0.086C38.448,35.662,38.191,35.255,38.137,35.104z"/>
	<path fill="#FFFFFF" d="M29.337,35.058c1.535,0,3.189,1.81,5.293,2.046c0.196,0.022,0.382,0.032,0.558,0.032
		c1.761,0,2.466-1.014,2.466-1.014s-0.415,1.856-2.676,1.856c-0.115,0-0.236-0.005-0.361-0.016
		c-1.731-0.141-4.093-1.869-5.332-2.037c-0.161-0.022-0.313-0.033-0.46-0.033c-0.984,0-1.713,0.463-3.006,0.976
		c0.292-0.483,1.798-1.686,3.374-1.806C29.241,35.06,29.289,35.058,29.337,35.058 M29.337,34.589L29.337,34.589
		c-0.06,0-0.12,0.002-0.18,0.007c-1.704,0.129-3.364,1.409-3.74,2.03c-0.104,0.172-0.086,0.392,0.043,0.545
		c0.091,0.107,0.223,0.166,0.358,0.166c0.058,0,0.117-0.011,0.173-0.033c0.334-0.133,0.636-0.264,0.901-0.379
		c0.751-0.327,1.294-0.563,1.932-0.563c0.129,0,0.259,0.01,0.397,0.028c0.47,0.063,1.212,0.431,1.998,0.818
		c1.079,0.533,2.302,1.136,3.359,1.223c0.136,0.011,0.27,0.017,0.399,0.017c2.085,0,2.961-1.454,3.133-2.223
		c0.049-0.219-0.063-0.441-0.269-0.532c-0.061-0.026-0.125-0.039-0.188-0.039c-0.149,0-0.295,0.072-0.385,0.201
		c-0.021,0.028-0.611,0.812-2.081,0.812c-0.163,0-0.333-0.01-0.505-0.029c-0.983-0.11-1.878-0.607-2.744-1.088
		C31.05,35.056,30.209,34.589,29.337,34.589L29.337,34.589z"/>
	<path fill="#FFFFFF" d="M33.616,26.021c0.504,0.05-0.497,0.687-0.723,1.498c0.962,0.463,1.878,1.128,2.72,1.973
		c1.955,1.96,1.483,4.382,1.483,4.382s0.828,0.649,1.04,1.229c0.04,0.11,0.186,0.354,0.053,0.354c-0.051,0-0.142-0.035-0.293-0.126
		c-0.513-0.307-0.938-0.43-1.316-0.43c-0.508,0-0.932,0.221-1.368,0.516c-0.118,0.08-0.195,0.112-0.24,0.112
		c-0.102,0-0.038-0.168,0.082-0.334c0.587-0.811,0.85-0.977,1.17-1.305c-0.132-0.967-0.954-1.562-1.471-1.845
		c-0.701-0.383-1.446-0.618-2.303-0.791c-0.003,0.432,0.081,0.905,0.273,1.24c0.22,0.383,0.137,0.604-0.203,0.604
		c-0.161,0-0.38-0.05-0.653-0.156c-0.845-0.331-1.349-1.996-1.349-1.996c-0.004-0.008-0.005-0.015-0.009-0.022
		c-0.23-0.059-0.463-0.13-0.694-0.207c-0.179,0.316-0.311,0.71-0.298,1.039c0.01,0.266-0.066,0.403-0.207,0.403
		c-0.137,0-0.334-0.131-0.571-0.403c-0.289-0.332-0.309-0.962-0.279-1.411c-0.084-0.01-0.167-0.016-0.247-0.016
		c-0.034,0-0.068,0.001-0.101,0.003c-0.697,0.053-1.582,0.717-2.079,0.717c-0.071,0-0.133-0.014-0.187-0.044
		c-0.429-0.245,0.739-0.761,1.013-1.757c0.405-1.468,1.537-2.475,2.885-2.476c0.001,0,0.004,0,0.005,0
		c0.533,0,1.061,0.063,1.579,0.186C31.867,26.592,32.777,26.06,33.616,26.021 M33.616,25.553c-0.007,0-0.015,0-0.021,0
		c-0.846,0.038-1.722,0.491-2.358,0.907c-0.493-0.102-0.991-0.153-1.484-0.153c-1.537,0.001-2.878,1.135-3.342,2.82
		c-0.106,0.387-0.415,0.708-0.662,0.966c-0.271,0.282-0.506,0.526-0.456,0.869c0.016,0.109,0.079,0.313,0.324,0.454
		c0.123,0.07,0.264,0.105,0.419,0.105c0.343,0,0.72-0.176,1.119-0.362c0.275-0.128,0.579-0.271,0.833-0.33
		c0.024,0.543,0.158,0.958,0.4,1.237c0.33,0.379,0.633,0.563,0.924,0.563c0.177,0,0.341-0.068,0.462-0.194
		c0.153-0.16,0.225-0.394,0.213-0.696c-0.005-0.126,0.025-0.285,0.083-0.45c0.026,0.008,0.052,0.016,0.078,0.023
		c0.189,0.526,0.704,1.735,1.55,2.067c0.321,0.126,0.598,0.188,0.824,0.188c0.43,0,0.623-0.223,0.7-0.355
		c0.104-0.18,0.173-0.49-0.091-0.95c-0.062-0.109-0.112-0.248-0.148-0.404c0.594,0.156,1.087,0.348,1.547,0.599
		c0.373,0.204,0.989,0.629,1.184,1.278c-0.013,0.012-0.024,0.022-0.036,0.034c-0.248,0.233-0.53,0.499-1.002,1.151
		c-0.223,0.308-0.278,0.576-0.164,0.799c0.088,0.172,0.265,0.278,0.462,0.278c0.152,0,0.302-0.058,0.503-0.192
		c0.387-0.262,0.724-0.436,1.105-0.436c0.316,0,0.668,0.118,1.075,0.363c0.229,0.137,0.384,0.192,0.534,0.192
		c0.181,0,0.345-0.088,0.439-0.235c0.168-0.259,0.044-0.533-0.029-0.696c-0.009-0.021-0.018-0.038-0.022-0.053
		c-0.185-0.504-0.689-1.003-0.982-1.263c0.07-0.742,0.077-2.788-1.649-4.519c-0.764-0.766-1.584-1.389-2.443-1.856
		c0.104-0.17,0.236-0.334,0.352-0.477c0.243-0.299,0.472-0.581,0.329-0.922c-0.048-0.116-0.18-0.316-0.521-0.35
		C33.647,25.553,33.632,25.553,33.616,25.553L33.616,25.553z"/>
</g>
</svg>
