<?xml version="1.0" encoding="utf-8"?>
<!-- Generator: Adobe Illustrator 20.1.0, SVG Export Plug-In . SVG Version: 6.00 Build 0)  -->
<svg version="1.1" id="レイヤー_1" xmlns="http://www.w3.org/2000/svg" xmlns:xlink="http://www.w3.org/1999/xlink" x="0px"
	 y="0px" viewBox="0 0 11 11" enable-background="new 0 0 11 11" xml:space="preserve">
<path d="M10.4,8.4L8.3,6.3H9c0.4,0,0.6-0.5,0.3-0.7L7.2,3.5H8c0.4,0,0.6-0.5,0.3-0.7L5.5,0v0L2.7,2.8C2.5,3,2.7,3.5,3,3.5h0.7
	L1.7,5.6C1.4,5.8,1.6,6.3,2,6.3h0.8L0.6,8.4C0.3,8.7,0.5,9.1,0.9,9.1h3.7V11h1.9V9.1h3.7C10.5,9.1,10.7,8.7,10.4,8.4z"/>
</svg>
