<?xml version="1.0" encoding="utf-8"?>
<!-- Generator: Adobe Illustrator 16.0.0, SVG Export Plug-In . SVG Version: 6.00 Build 0)  -->
<!DOCTYPE svg PUBLIC "-//W3C//DTD SVG 1.1//EN" "http://www.w3.org/Graphics/SVG/1.1/DTD/svg11.dtd">
<svg version="1.1" id="Icon" xmlns="http://www.w3.org/2000/svg" xmlns:xlink="http://www.w3.org/1999/xlink" x="0px" y="0px"
	 width="15px" height="15px" viewBox="24.5 24.5 15 15" enable-background="new 24.5 24.5 15 15" xml:space="preserve">
<rect x="24.5" y="24.5" fill="none" width="15" height="15"/>
<g>
	<path fill="#333333" d="M35.639,31.174c-0.72,0-1.372,0.282-1.859,0.739l-0.509-0.528c0,0,2.713-2.343,2.713-3.05
		s-0.314-0.817-0.705-0.935s-5.183,0.604-5.182,0.604c-0.269,0.047-0.422,0.491-0.422,0.857v0.331c0,0.33,0.124,0.507,0.301,0.604
		l-0.901,1.477c-0.228-0.062-0.466-0.098-0.713-0.098c-1.5,0-2.721,1.219-2.721,2.718c0,1.5,1.221,2.721,2.721,2.721
		s2.721-1.221,2.721-2.721c0-0.773-0.327-1.471-0.849-1.966l1.438-2.218l1.618-0.246l-1.39,1.43
		c-0.307,0.343-0.307,0.577-0.028,0.895c0.001,0.002,0.611,0.625,1.196,1.224c-0.096,0.276-0.15,0.573-0.15,0.882
		c0,1.5,1.221,2.721,2.722,2.721c1.5,0,2.721-1.221,2.721-2.721C38.359,32.393,37.139,31.174,35.639,31.174z M30.38,33.892
		c0,1.112-0.905,2.018-2.019,2.018c-1.112,0-2.018-0.905-2.018-2.018c0-1.111,0.906-2.015,2.018-2.015
		c0.111,0,0.218,0.016,0.325,0.033l-0.156,0.256c-0.1,0.167-0.252,0.673,0.076,0.92c0.329,0.247,0.813,0.011,1.007-0.203
		l0.228-0.352C30.173,32.89,30.38,33.366,30.38,33.892z M35.639,35.909c-1.113,0-2.019-0.905-2.019-2.018
		c0-0.098,0.016-0.192,0.028-0.287c0.276,0.283,0.475,0.485,0.475,0.485c0.245,0.209,0.66,0.255,0.916,0.057
		c0.333-0.262,0.301-0.555,0.056-0.87L34.27,32.42c0.359-0.334,0.839-0.543,1.369-0.543c1.112,0,2.018,0.903,2.018,2.015
		C37.656,35.004,36.751,35.909,35.639,35.909z"/>
	<circle fill="#333333" cx="27.745" cy="29.243" r="1.406"/>
	<path fill="#FFFFFF" d="M29.613,32.883c-0.194,0.214-0.679,0.45-1.007,0.203c-0.328-0.247-0.176-0.753-0.076-0.92l0.156-0.256
		c-0.106-0.017-0.213-0.033-0.325-0.033c-1.112,0-2.018,0.903-2.018,2.015c0,1.112,0.906,2.018,2.018,2.018
		c1.113,0,2.019-0.905,2.019-2.018c0-0.525-0.208-1.002-0.539-1.36L29.613,32.883z"/>
	<path fill="#FFFFFF" d="M35.639,31.877c-0.53,0-1.01,0.209-1.369,0.543l0.825,0.856c0.245,0.315,0.277,0.608-0.056,0.87
		c-0.256,0.198-0.671,0.152-0.916-0.057c0,0-0.198-0.202-0.475-0.485c-0.013,0.095-0.028,0.189-0.028,0.287
		c0,1.112,0.905,2.018,2.019,2.018c1.112,0,2.018-0.905,2.018-2.018C37.656,32.78,36.751,31.877,35.639,31.877z"/>
	<path fill="#FFFFFF" d="M35.639,30.705c-0.404,0-0.799,0.077-1.167,0.222c0.155-0.146,0.32-0.305,0.485-0.469
		c1.317-1.31,1.495-1.808,1.495-2.123c0-1.072-0.65-1.267-1.039-1.384c-0.077-0.023-0.164-0.033-0.293-0.033
		c-0.403,0-1.387,0.105-2.92,0.313c-0.572,0.077-1.115,0.154-1.515,0.212c-0.327,0.048-0.533,0.078-0.667,0.106l-0.001-0.008
		c-0.348,0.061-0.578,0.34-0.701,0.68c-0.335-0.514-0.913-0.854-1.57-0.854c-1.034,0-1.875,0.841-1.875,1.875
		c0,0.792,0.494,1.468,1.189,1.743c-1.11,0.499-1.887,1.612-1.887,2.905c0,1.759,1.431,3.189,3.19,3.189
		c1.759,0,3.19-1.431,3.19-3.189c0-0.746-0.255-1.45-0.725-2.018l0.372-0.573c-0.019,0.266,0.088,0.529,0.321,0.794l0,0
		c0.039,0.042,0.158,0.164,0.605,0.623l0.415,0.424c-0.061,0.247-0.092,0.499-0.092,0.751c0,1.759,1.431,3.189,3.19,3.189
		c1.759,0,3.189-1.431,3.189-3.189C38.828,32.135,37.397,30.705,35.639,30.705z M26.338,29.243c0-0.777,0.63-1.406,1.406-1.406
		c0.777,0,1.406,0.629,1.406,1.406s-0.629,1.406-1.406,1.406C26.968,30.649,26.338,30.02,26.338,29.243z M35.639,36.612
		c-1.501,0-2.722-1.221-2.722-2.721c0-0.309,0.055-0.605,0.15-0.882c-0.585-0.599-1.195-1.222-1.196-1.224
		c-0.278-0.318-0.278-0.551,0.028-0.895l1.39-1.43l-1.618,0.246l-1.438,2.218c0.521,0.495,0.849,1.193,0.849,1.966
		c0,1.5-1.221,2.721-2.721,2.721s-2.721-1.221-2.721-2.721c0-1.499,1.221-2.718,2.721-2.718c0.247,0,0.486,0.036,0.713,0.098
		l0.901-1.477c-0.177-0.096-0.301-0.274-0.301-0.604v-0.331c0-0.366,0.153-0.81,0.422-0.857c-0.001,0,4.791-0.721,5.182-0.604
		s0.705,0.228,0.705,0.935s-2.713,3.05-2.713,3.05l0.509,0.528c0.487-0.457,1.14-0.739,1.859-0.739c1.5,0,2.721,1.219,2.721,2.718
		C38.359,35.392,37.139,36.612,35.639,36.612z"/>
</g>
</svg>
