<?xml version="1.0" encoding="utf-8"?>
<!-- Generator: Adobe Illustrator 16.0.0, SVG Export Plug-In . SVG Version: 6.00 Build 0)  -->
<!DOCTYPE svg PUBLIC "-//W3C//DTD SVG 1.1//EN" "http://www.w3.org/Graphics/SVG/1.1/DTD/svg11.dtd">
<svg version="1.1" id="Icon" xmlns="http://www.w3.org/2000/svg" xmlns:xlink="http://www.w3.org/1999/xlink" x="0px" y="0px"
	 width="15px" height="15px" viewBox="24.5 24.5 15 15" enable-background="new 24.5 24.5 15 15" xml:space="preserve">
<rect x="24.5" y="24.5" fill="none" width="15" height="15"/>
<g>
	<path fill="#333333" d="M25.652,34.772c0,0,1.584,1.167,3.89,1.252c2.304,0.085,3.214-0.77,5.005-0.799
		c1.793-0.028,3.801,0.738,3.801,0.738s-1.268-1.309-3.801-1.421c-2.531-0.112-2.472,0.922-4.984,0.923
		C27.593,35.467,25.652,34.772,25.652,34.772z"/>
	<path fill="#333333" d="M29.397,32.679l2.369-1.059c0,0,0.188-2.258,0.868-2.8c0.674-0.542,2.877-1.086,3.192-0.743
		c0.312,0.343,0.228,0.571-0.058,0.714c-0.286,0.142-2.005,0.886-2.005,0.886l-0.428,1.542c0,0,3.892,1.06,4.007,1.431
		c0.15,0.489-4.922,0.765-5.181,0.794c-0.259,0.029-3.905,0.519-3.905,0.519s-1.397,0.174-1.397-0.225
		C26.859,33.338,29.397,32.679,29.397,32.679z"/>
	<path fill="#333333" d="M31.108,30.348c0,0.844-0.683,1.53-1.525,1.53c-0.842,0-1.525-0.686-1.525-1.53
		c0-0.842,0.683-1.526,1.525-1.526C30.426,28.821,31.108,29.505,31.108,30.348z"/>
	<path fill="#FFFFFF" d="M34.178,34.534c0.116,0,0.239,0.003,0.369,0.009c2.533,0.112,3.801,1.421,3.801,1.421
		s-1.936-0.739-3.703-0.739c-0.032,0-0.065,0-0.098,0.001c-1.706,0.028-2.613,0.805-4.687,0.805c-0.103,0-0.209-0.002-0.318-0.006
		c-2.305-0.085-3.89-1.252-3.89-1.252s1.937,0.693,3.905,0.693c0.002,0,0.004,0,0.006,0C31.946,35.465,32.015,34.534,34.178,34.534
		 M34.178,34.065c-1.146,0-1.761,0.245-2.356,0.481c-0.58,0.231-1.128,0.449-2.259,0.45c-1.865,0-3.734-0.66-3.753-0.666
		c-0.052-0.019-0.105-0.027-0.158-0.027c-0.169,0-0.331,0.092-0.414,0.248c-0.109,0.205-0.052,0.46,0.135,0.598
		c0.07,0.051,1.729,1.254,4.15,1.343c0.115,0.005,0.227,0.007,0.336,0.007c1.168,0,2.005-0.238,2.743-0.448
		c0.624-0.177,1.214-0.345,1.951-0.356c0.03-0.001,0.061-0.001,0.09-0.001c1.657,0,3.518,0.701,3.536,0.709
		c0.055,0.021,0.11,0.03,0.167,0.03c0.153,0,0.303-0.076,0.391-0.211c0.121-0.183,0.099-0.426-0.054-0.584
		c-0.058-0.059-1.428-1.444-4.117-1.563C34.434,34.068,34.303,34.065,34.178,34.065L34.178,34.065z"/>
	<path fill="#FFFFFF" d="M35.39,27.97c0.211,0,0.368,0.033,0.437,0.107c0.312,0.343,0.228,0.571-0.058,0.714
		c-0.286,0.142-2.005,0.886-2.005,0.886l-0.428,1.542c0,0,3.892,1.06,4.007,1.431c0.15,0.489-4.922,0.765-5.181,0.794
		c-0.259,0.029-3.905,0.519-3.905,0.519S27.953,34,27.628,34c-0.371,0-0.769-0.05-0.769-0.263c0-0.399,2.538-1.059,2.538-1.059
		l2.369-1.059c0,0,0.188-2.258,0.868-2.8C33.161,28.396,34.627,27.97,35.39,27.97 M35.39,27.501L35.39,27.501
		c-0.84,0-2.412,0.44-3.05,0.954c-0.679,0.542-0.933,2.137-1.014,2.848l-2.085,0.932c-2.851,0.744-2.851,1.219-2.851,1.502
		c0,0.485,0.417,0.731,1.238,0.731c0.349,0,0.672-0.04,0.686-0.042c1.264-0.17,3.699-0.495,3.9-0.518
		c0.034-0.004,0.144-0.012,0.307-0.022c4.448-0.308,4.972-0.579,5.195-0.903c0.096-0.141,0.123-0.312,0.074-0.472
		c-0.074-0.238-0.184-0.591-3.878-1.621l0.242-0.874c0.469-0.204,1.587-0.69,1.822-0.807c0.356-0.178,0.471-0.428,0.504-0.607
		c0.051-0.278-0.053-0.562-0.31-0.842C35.958,27.528,35.623,27.501,35.39,27.501L35.39,27.501z"/>
	<path fill="#FFFFFF" d="M29.583,28.821c0.843,0,1.525,0.684,1.525,1.526c0,0.844-0.683,1.53-1.525,1.53
		c-0.842,0-1.525-0.686-1.525-1.53C28.058,29.505,28.741,28.821,29.583,28.821 M29.583,28.353c-1.1,0-1.994,0.895-1.994,1.995
		c0,1.102,0.895,1.999,1.994,1.999s1.994-0.896,1.994-1.999C31.577,29.248,30.683,28.353,29.583,28.353L29.583,28.353z"/>
</g>
</svg>
