<?xml version="1.0" encoding="utf-8"?>
<!-- Generator: Adobe Illustrator 16.0.0, SVG Export Plug-In . SVG Version: 6.00 Build 0)  -->
<!DOCTYPE svg PUBLIC "-//W3C//DTD SVG 1.1//EN" "http://www.w3.org/Graphics/SVG/1.1/DTD/svg11.dtd">
<svg version="1.1" id="Icon" xmlns="http://www.w3.org/2000/svg" xmlns:xlink="http://www.w3.org/1999/xlink" x="0px" y="0px"
	 width="15px" height="15px" viewBox="24.5 24.5 15 15" enable-background="new 24.5 24.5 15 15" xml:space="preserve">
<rect x="24.5" y="24.5" fill="none" width="15" height="15"/>
<g>
	<path fill="#333333" d="M34.382,30.331l-2.092-2.422c-0.131-0.151-0.359-0.167-0.51-0.036l-0.54,0.468l-2.106,0.558
		c-0.295,0.079-0.471,0.381-0.393,0.677c0.078,0.295,0.382,0.471,0.676,0.393l2.038-0.54l1.7,1.968
		c0.131,0.151,0.359,0.167,0.51,0.036l0.681-0.591C34.497,30.711,34.513,30.482,34.382,30.331z"/>
	<ellipse fill="#333333" cx="30.538" cy="26.808" rx="1.086" ry="1.086"/>
	<path fill="#FFFFFF" d="M32.018,27.784c0.101,0,0.201,0.042,0.272,0.125l2.092,2.422c0.131,0.151,0.115,0.38-0.036,0.511
		l-0.681,0.591c-0.068,0.059-0.153,0.088-0.237,0.088c-0.101,0-0.201-0.042-0.272-0.125l-1.7-1.968l-2.038,0.54
		c-0.047,0.013-0.095,0.019-0.142,0.019c-0.245,0-0.47-0.164-0.535-0.412c-0.079-0.296,0.097-0.599,0.393-0.677l2.106-0.558
		l0.54-0.468C31.849,27.813,31.933,27.784,32.018,27.784 M32.018,27.315c-0.2,0-0.394,0.072-0.545,0.204l-0.457,0.396l-2.002,0.53
		c-0.544,0.145-0.87,0.706-0.726,1.25c0.118,0.448,0.524,0.761,0.988,0.761c0.088,0,0.176-0.012,0.262-0.034l1.754-0.465
		l1.508,1.747c0.157,0.182,0.386,0.287,0.627,0.287c0.2,0,0.395-0.072,0.545-0.204l0.681-0.59c0.346-0.3,0.383-0.826,0.083-1.171
		l-2.092-2.422C32.487,27.42,32.258,27.315,32.018,27.315L32.018,27.315z"/>
	<path fill="#333333" d="M38.231,35.293l-1.406-0.859c-0.012-0.017-0.016-0.036-0.028-0.052l-0.821-1.012
		c-0.059-0.353-0.269-1.598-0.31-1.84c0.188-0.037,0.834-0.165,1.171-0.249c-0.191-0.064-0.295-0.087-0.354-0.093
		c0.187-0.059,0.695-0.211,0.746-0.146c-0.394-0.19-0.344-0.166-0.344-0.166s0.426-0.107,0.929-0.125
		c-0.158-0.104-0.146-0.312-0.146-0.312s0.374-0.209,0.549-0.222c-0.412-0.056-0.731-0.186-1.002-0.163
		c-0.191,0.016-0.639,0.235-0.759,0.288c-0.113,0.05-0.874,0.428-1.256,0.656c-1.075,0.146-4.184,0.404-4.793,0.475
		c-0.435-0.679-1.917-2.296-3.409-2.638c0.146,0.369,0.313,0.707,0.313,0.707l-1.816,1.972l0.404,0.527l1.625-0.788l1.879,2.931
		l-1.818,3.285c-0.143,0.269-0.042,0.602,0.226,0.743c0.268,0.144,0.601,0.043,0.743-0.226l1.631-2.946l2.044,2.488
		c0.196,0.231,0.543,0.26,0.774,0.063s0.261-0.542,0.063-0.773l-1.892-2.304c0.868-0.125,2.048-0.294,3.029-0.434l-0.104,1.305
		c-0.007,0.107,0.026,0.203,0.075,0.291c0.02,0.079,0.052,0.154,0.107,0.221l1.311,1.63c0.195,0.231,0.543,0.261,0.774,0.065
		s0.262-0.542,0.065-0.773l-1.224-1.523l0.083-1.023l0.665,0.819c0.013,0.016,0.031,0.022,0.046,0.036
		c0.046,0.083,0.105,0.158,0.193,0.21l1.48,0.904c0.263,0.152,0.6,0.064,0.752-0.198C38.583,35.781,38.494,35.445,38.231,35.293z"/>
	<path fill="#FFFFFF" d="M27,28.835c1.491,0.342,2.974,1.959,3.409,2.638c0.609-0.071,3.718-0.329,4.793-0.475
		c0.382-0.228,1.143-0.605,1.256-0.656c0.12-0.053,0.567-0.271,0.759-0.288c0.021-0.002,0.044-0.003,0.066-0.003
		c0.256,0,0.557,0.114,0.936,0.166c-0.175,0.013-0.549,0.222-0.549,0.222s-0.013,0.208,0.146,0.312
		c-0.503,0.018-0.929,0.125-0.929,0.125s-0.001-0.001-0.002-0.001c0,0,0.029,0.014,0.318,0.154c-0.01-0.002-0.021-0.003-0.035-0.003
		c-0.153,0-0.529,0.114-0.684,0.162c0.059,0.005,0.162,0.028,0.354,0.093c-0.337,0.084-0.982,0.212-1.171,0.249
		c0.041,0.242,0.251,1.488,0.31,1.84l0.821,1.012c0.013,0.016,0.017,0.035,0.028,0.052l1.406,0.859
		c0.263,0.152,0.352,0.488,0.198,0.751c-0.102,0.175-0.286,0.273-0.475,0.273c-0.095,0-0.19-0.024-0.277-0.075l-1.48-0.904
		c-0.088-0.052-0.147-0.127-0.193-0.21c-0.015-0.014-0.033-0.021-0.046-0.036l-0.665-0.819l-0.083,1.023l1.224,1.523
		c0.196,0.231,0.166,0.578-0.065,0.773c-0.104,0.087-0.229,0.13-0.354,0.13c-0.156,0-0.312-0.066-0.42-0.195l-1.311-1.63
		c-0.056-0.066-0.088-0.142-0.107-0.221c-0.049-0.088-0.082-0.184-0.075-0.291l0.104-1.305c-0.981,0.14-2.162,0.309-3.029,0.434
		l1.892,2.304c0.197,0.231,0.168,0.577-0.063,0.773c-0.104,0.088-0.229,0.131-0.354,0.131c-0.156,0-0.312-0.066-0.42-0.194
		l-2.044-2.488l-1.631,2.946c-0.099,0.186-0.289,0.291-0.485,0.291c-0.087,0-0.176-0.021-0.258-0.065
		c-0.268-0.142-0.369-0.475-0.226-0.743l1.818-3.285l-1.879-2.931L25.9,32.041l-0.404-0.527l1.816-1.972
		C27.312,29.542,27.146,29.204,27,28.835 M37.202,31.029c0.013,0.002,0.022,0.007,0.027,0.013
		C37.22,31.038,37.211,31.033,37.202,31.029 M27,28.366c-0.135,0-0.266,0.059-0.356,0.164c-0.114,0.132-0.144,0.317-0.08,0.479
		c0.065,0.164,0.134,0.32,0.191,0.447l-1.603,1.741c-0.155,0.167-0.166,0.422-0.027,0.603l0.403,0.527
		c0.091,0.119,0.23,0.184,0.373,0.184c0.069,0,0.139-0.016,0.205-0.047l1.25-0.606l1.504,2.345l-1.683,3.041
		c-0.268,0.502-0.08,1.12,0.416,1.384c0.147,0.078,0.312,0.12,0.479,0.12c0.377,0,0.721-0.207,0.899-0.54l1.292-2.335l1.605,1.955
		c0.199,0.234,0.482,0.365,0.783,0.365c0.24,0,0.475-0.086,0.658-0.242c0.207-0.176,0.333-0.422,0.355-0.692
		c0.022-0.271-0.062-0.535-0.238-0.742l-1.358-1.654c0.521-0.075,1.087-0.155,1.625-0.232l-0.059,0.721
		c-0.011,0.175,0.023,0.337,0.104,0.502c0.041,0.132,0.104,0.25,0.188,0.349l1.304,1.622c0.2,0.238,0.484,0.37,0.785,0.37
		c0.24,0,0.474-0.085,0.656-0.24c0.208-0.175,0.336-0.421,0.358-0.692c0.023-0.271-0.061-0.534-0.236-0.742l-0.421-0.524l1.062,0.65
		c0.164,0.096,0.341,0.144,0.521,0.144c0.36,0,0.697-0.194,0.879-0.506c0.138-0.235,0.175-0.51,0.105-0.772
		c-0.069-0.264-0.237-0.483-0.473-0.62l-1.303-0.796c-0.003-0.005-0.007-0.01-0.011-0.015l-0.736-0.906
		c-0.05-0.303-0.145-0.863-0.213-1.271c0.25-0.051,0.546-0.114,0.746-0.165c0.131-0.032,0.236-0.118,0.298-0.23
		c0.13-0.007,0.255-0.066,0.34-0.171c0.026-0.033,0.048-0.067,0.064-0.104c0.058-0.005,0.117-0.008,0.178-0.011
		c0.205-0.007,0.381-0.145,0.436-0.341c0.019-0.065,0.022-0.132,0.013-0.196c0.233-0.023,0.408-0.215,0.415-0.451
		c0.008-0.24-0.175-0.446-0.413-0.478c-0.144-0.02-0.28-0.051-0.412-0.081c-0.199-0.045-0.389-0.089-0.586-0.089
		c-0.036,0-0.071,0.001-0.106,0.004c-0.203,0.018-0.472,0.125-0.839,0.295l-0.068,0.031c-0.115,0.051-0.803,0.391-1.223,0.632
		c-0.72,0.092-2.188,0.227-3.273,0.326c-0.467,0.043-0.865,0.079-1.139,0.106c-0.61-0.816-2.043-2.259-3.53-2.6
		C27.069,28.37,27.034,28.366,27,28.366L27,28.366z"/>
	<path fill="#FFFFFF" d="M30.538,25.722c0.271,0,0.543,0.101,0.754,0.304c0.432,0.417,0.444,1.104,0.027,1.535
		c-0.213,0.221-0.497,0.332-0.781,0.332c-0.271,0-0.543-0.101-0.753-0.304c-0.432-0.417-0.444-1.104-0.028-1.535
		C29.969,25.833,30.253,25.722,30.538,25.722 M30.538,25.253L30.538,25.253c-0.425,0-0.823,0.168-1.119,0.475
		c-0.595,0.617-0.577,1.603,0.04,2.197c0.291,0.281,0.674,0.436,1.079,0.436c0.426,0,0.823-0.168,1.119-0.475
		c0.288-0.299,0.443-0.692,0.436-1.107s-0.176-0.802-0.475-1.091C31.326,25.408,30.943,25.253,30.538,25.253L30.538,25.253z"/>
</g>
</svg>
