<?xml version="1.0" encoding="utf-8"?>
<!-- Generator: Adobe Illustrator 20.1.0, SVG Export Plug-In . SVG Version: 6.00 Build 0)  -->
<svg version="1.1" id="レイヤー_1" xmlns="http://www.w3.org/2000/svg" xmlns:xlink="http://www.w3.org/1999/xlink" x="0px"
	 y="0px" viewBox="0 0 11 11" enable-background="new 0 0 11 11" xml:space="preserve">
<path d="M10.4,8.1C10.4,8,10.4,8,10.4,8.1c0-0.1,0.1-0.1,0.1-0.1c0,0,0-0.1,0-0.1c0,0,0,0,0,0c0,0,0-0.1,0.1-0.1c0,0,0,0,0,0
	c0.2-0.4,0.3-0.8,0.4-1.3c0,0,0,0,0,0c0,0,0-0.1,0-0.1c0,0,0,0,0,0c0,0,0-0.1,0-0.1c0,0,0,0,0-0.1v0c0-0.2,0-0.4,0-0.6
	c0-0.2,0-0.3,0-0.5l0,0c0-0.3-0.1-0.6-0.2-0.9c0,0,0,0,0,0c0,0,0-0.1,0-0.1c0,0,0,0,0,0c0,0,0-0.1,0-0.1c0,0,0,0,0,0
	c-0.1-0.4-0.3-0.8-0.5-1.2c0,0,0,0,0,0c0,0,0,0,0,0l0,0C9.8,2.1,9.4,1.6,8.9,1.2c0,0,0,0,0,0c0,0-0.1-0.1-0.1-0.1c0,0,0,0,0,0
	C8.7,1,8.6,1,8.6,1c0,0,0,0,0,0c0,0-0.1,0-0.1-0.1c0,0,0,0-0.1,0c0,0-0.1,0-0.1-0.1c0,0-0.1,0-0.1-0.1c0,0,0,0-0.1,0
	c0,0-0.1,0-0.1-0.1c0,0,0,0,0,0c0,0-0.1,0-0.1,0l0,0C7.2,0.2,6.4,0,5.5,0c-1.2,0-2.3,0.4-3.2,1c0,0,0,0-0.1,0c0,0,0,0-0.1,0
	C2.1,1.2,2,1.3,1.9,1.3c0,0,0,0,0,0c0,0-0.1,0-0.1,0.1c-0.4,0.3-0.7,0.8-1,1.2l0,0c0,0,0,0,0,0c0,0,0,0.1-0.1,0.1c0,0,0,0,0,0
	C0.7,2.9,0.6,2.9,0.6,3c0,0,0,0,0,0c0,0,0,0.1-0.1,0.1c0,0,0,0,0,0C0.4,3.3,0.4,3.5,0.3,3.6v0c0,0,0,0.1,0,0.1c0,0,0,0,0,0.1
	c0,0,0,0.1,0,0.1c0,0,0,0.1,0,0.1c0,0,0,0,0,0.1C0.1,4.4,0,4.7,0,5.1l0,0c0,0.1,0,0.3,0,0.4C0,6.8,0.5,8.1,1.3,9h0
	c0.6,0.7,1.3,1.3,2.2,1.6l0,0c0.3,0.1,0.7,0.2,1.1,0.3h0C4.7,11,5,11,5.2,11c0,0,0,0,0,0c0,0,0.1,0,0.1,0c0,0,0,0,0,0
	c0,0,0.1,0,0.1,0c0.1,0,0.1,0,0.2,0c0,0,0,0,0.1,0c0.1,0,0.1,0,0.2,0C6,11,6,11,6,11c0,0,0,0,0.1,0c0.1,0,0.2,0,0.4,0h0
	c1.6-0.3,3-1.2,3.8-2.6v0C10.2,8.3,10.3,8.2,10.4,8.1C10.3,8.1,10.3,8.1,10.4,8.1C10.3,8.1,10.4,8.1,10.4,8.1z M4.6,10.2l-1-1.8
	l0.9-1.3h2l0.9,1.3l-1,1.8c-0.3,0.1-0.6,0.1-1,0.1C5.2,10.3,4.9,10.3,4.6,10.2z M3.5,1.1L5.3,2v1.6L3.7,4.7L2.2,4.2L1.8,2.4
	C2.3,1.9,2.8,1.4,3.5,1.1z M8.8,4.2L7.3,4.7L5.7,3.6V2L7.3,1C8,1.3,8.7,1.8,9.2,2.4L8.8,4.2z M0.7,6.1l1.4-1.5l1.5,0.5l0.6,1.8
	L3.3,8.2L1.4,8l0,0C1,7.5,0.8,6.8,0.7,6.1L0.7,6.1z M9.6,8L7.8,8.2l-1-1.4l0.6-1.7l1.5-0.5l1.4,1.5C10.2,6.8,10,7.4,9.6,8z"/>
</svg>
