<?xml version="1.0" encoding="utf-8"?>
<!-- Generator: Adobe Illustrator 23.1.1, SVG Export Plug-In . SVG Version: 6.00 Build 0)  -->
<svg version="1.1" id="レイヤー_1" xmlns="http://www.w3.org/2000/svg" xmlns:xlink="http://www.w3.org/1999/xlink" x="0px"
	 y="0px" viewBox="0 0 16 12" enable-background="new 0 0 16 12" xml:space="preserve">
<g>
	<g>
		<path fill="#00864A" d="M14.7,12.001H1.3c-0.718,0-1.3-0.582-1.3-1.3v-9.4c0-0.718,0.582-1.3,1.3-1.3h13.4
			c0.718,0,1.3,0.582,1.3,1.3v9.4C16,11.419,15.418,12.001,14.7,12.001z"/>
	</g>
	<path fill="#FFFFFF" d="M1.514,9.539V2.483H4.03c0.954,0,1.572,0.037,1.865,0.107C6.337,2.696,6.71,2.925,7.014,3.282
		c0.298,0.357,0.448,0.815,0.448,1.375c0,0.432-0.085,0.799-0.261,1.093C7.03,6.043,6.806,6.277,6.54,6.448
		C6.273,6.618,6.001,6.73,5.724,6.783C5.351,6.853,4.808,6.885,4.099,6.885H3.081v2.665H1.514V9.539z M3.081,3.676V5.68h0.858
		c0.618,0,1.029-0.037,1.242-0.112c0.208-0.075,0.373-0.192,0.49-0.346c0.117-0.16,0.176-0.341,0.176-0.549
		c0-0.256-0.085-0.469-0.25-0.634C5.431,3.874,5.218,3.767,4.968,3.724c-0.187-0.032-0.565-0.048-1.13-0.048L3.081,3.676
		L3.081,3.676z"/>
	<path fill="#FFFFFF" d="M15.04,9.539h-1.705l-0.677-1.604H9.556l-0.64,1.604H7.254l3.022-7.056h1.657L15.04,9.539z M12.152,6.746
		L11.08,4.129l-1.045,2.617H12.152z"/>
</g>
</svg>
