<?xml version="1.0" encoding="utf-8"?>
<!-- Generator: Adobe Illustrator 16.0.0, SVG Export Plug-In . SVG Version: 6.00 Build 0)  -->
<!DOCTYPE svg PUBLIC "-//W3C//DTD SVG 1.1//EN" "http://www.w3.org/Graphics/SVG/1.1/DTD/svg11.dtd">
<svg version="1.1" id="Icon" xmlns="http://www.w3.org/2000/svg" xmlns:xlink="http://www.w3.org/1999/xlink" x="0px" y="0px"
	 width="15px" height="15px" viewBox="24.5 24.5 15 15" enable-background="new 24.5 24.5 15 15" xml:space="preserve">
<rect x="24.5" y="24.5" fill="none" width="15" height="15"/>
<g>
	<path fill="#333333" d="M37.531,28.876c-0.031-0.703-0.434-1.1-0.535-1.189c-0.052-0.224-0.213-0.929-0.259-1.067
		c-0.056-0.165-0.617-0.335-1.067-0.314c-0.449,0.019-0.971,0.175-1.031,0.408l-0.162,1.087c-0.093,0.104-0.46,0.562-0.43,1.238
		c0.002,0.035,0.003,0.081,0.004,0.132l-1.024,0.244c-0.121,0.007-0.214,0.111-0.207,0.232l0.017,0.293h-1.684l0.017-0.293
		c0.006-0.121-0.086-0.225-0.207-0.232l-1.024-0.244c0.001-0.052,0.002-0.098,0.003-0.132c0.03-0.676-0.337-1.134-0.429-1.238
		l-0.162-1.087c-0.061-0.233-0.582-0.389-1.031-0.408c-0.451-0.021-1.013,0.15-1.067,0.314c-0.046,0.138-0.207,0.842-0.258,1.067
		c-0.102,0.088-0.505,0.485-0.537,1.189c-0.036,0.805-0.591,6.455-0.472,7.217c0.051,0.334,0.266,1.53,1.825,1.6
		c1.559,0.07,1.969-1.167,2.035-1.503c0.087-0.45,0.108-1.797,0.108-3.209l0.818-0.102c0.122,0.007,0.224-0.086,0.231-0.206
		l0.006-0.109h1.973l0.006,0.109c0.007,0.12,0.109,0.213,0.231,0.206l0.818,0.102c0,1.412,0.021,2.759,0.108,3.209
		c0.064,0.336,0.475,1.573,2.034,1.503c1.559-0.069,1.774-1.266,1.825-1.6C38.123,35.331,37.567,29.681,37.531,28.876z
		 M31.097,30.967l0.023-0.443h1.748l0.024,0.443H31.097z"/>
	<path fill="#FFFFFF" d="M29.36,27.969c-0.005-0.004-0.423-0.396-1.133-0.428c-0.702-0.032-1.077,0.31-1.081,0.313l-0.138-0.189
		c0.02-0.016,0.442-0.398,1.229-0.357c0.782,0.034,1.236,0.455,1.258,0.471L29.36,27.969z"/>
	<ellipse fill="#FFFFFF" cx="27.921" cy="35.726" rx="1.632" ry="1.632"/>
	<path fill="#FFFFFF" d="M34.615,27.978l-0.136-0.191c0.021-0.016,0.489-0.445,1.271-0.48c0.781-0.034,1.228,0.353,1.248,0.367
		l-0.139,0.189c-0.005-0.004-0.386-0.352-1.1-0.322C35.052,27.573,34.62,27.975,34.615,27.978z"/>
	<ellipse fill="#FFFFFF" cx="36.067" cy="35.725" rx="1.632" ry="1.632"/>
	<path fill="#FFFFFF" d="M35.744,26.304c0.436,0,0.94,0.161,0.993,0.316c0.046,0.138,0.207,0.843,0.259,1.067
		c0.102,0.09,0.504,0.486,0.535,1.189c0.036,0.805,0.592,6.455,0.473,7.217c-0.051,0.334-0.267,1.53-1.825,1.6
		c-0.043,0.002-0.084,0.003-0.125,0.003c-1.456,0-1.847-1.179-1.909-1.506c-0.087-0.45-0.108-1.797-0.108-3.209l-0.818-0.102
		c-0.005,0-0.009,0-0.014,0c-0.115,0-0.211-0.091-0.218-0.206l-0.006-0.109h-1.973l-0.006,0.109
		c-0.007,0.115-0.102,0.206-0.218,0.206c-0.005,0-0.009,0-0.014,0l-0.818,0.102c0,1.412-0.021,2.759-0.108,3.209
		c-0.063,0.327-0.453,1.506-1.91,1.506c-0.041,0-0.083-0.001-0.125-0.003c-1.559-0.069-1.774-1.266-1.825-1.6
		c-0.119-0.763,0.437-6.413,0.472-7.217c0.031-0.704,0.435-1.101,0.537-1.189c0.051-0.225,0.212-0.929,0.258-1.067
		c0.052-0.155,0.557-0.316,0.993-0.316c0.025,0,0.05,0,0.074,0.002c0.449,0.019,0.97,0.175,1.031,0.408l0.162,1.087
		c0.092,0.104,0.459,0.562,0.429,1.238c-0.001,0.035-0.002,0.081-0.003,0.132l1.024,0.244c0.121,0.007,0.213,0.111,0.207,0.232
		l-0.017,0.293h1.684l-0.017-0.293c-0.007-0.121,0.086-0.225,0.207-0.232l1.024-0.244c-0.001-0.052-0.002-0.098-0.004-0.132
		c-0.03-0.676,0.337-1.134,0.43-1.238l0.162-1.087c0.061-0.233,0.582-0.389,1.031-0.408C35.694,26.304,35.719,26.304,35.744,26.304
		 M31.097,30.967h1.796l-0.024-0.443H31.12L31.097,30.967 M35.744,25.835c-0.032,0-0.064,0.001-0.096,0.002
		c-0.213,0.009-1.29,0.089-1.464,0.758c-0.004,0.016-0.007,0.032-0.01,0.048l-0.144,0.961c-0.159,0.213-0.408,0.63-0.449,1.195
		l-0.636,0.151c-0.283,0.039-0.51,0.25-0.576,0.52h-0.752c-0.067-0.27-0.293-0.481-0.577-0.52l-0.636-0.151
		c-0.041-0.566-0.29-0.983-0.449-1.195l-0.143-0.961c-0.002-0.016-0.006-0.032-0.01-0.048c-0.173-0.669-1.25-0.75-1.464-0.758
		c-0.03-0.001-0.062-0.002-0.094-0.002c-0.341,0-1.264,0.114-1.438,0.636c-0.034,0.104-0.115,0.432-0.24,0.977
		c-0.208,0.222-0.547,0.69-0.579,1.407c-0.01,0.229-0.068,0.918-0.136,1.716c-0.231,2.737-0.417,5.046-0.331,5.594
		c0.187,1.212,1.013,1.939,2.268,1.996c0.05,0.002,0.099,0.003,0.146,0.003c1.583,0,2.234-1.186,2.37-1.886
		c0.075-0.386,0.111-1.282,0.116-2.884l0.377-0.047c0.235-0.005,0.443-0.128,0.564-0.315h1.267c0.121,0.188,0.328,0.311,0.562,0.315
		l0.378,0.047c0.005,1.602,0.041,2.498,0.115,2.884c0.136,0.7,0.787,1.886,2.37,1.886c0.048,0,0.096-0.001,0.146-0.003
		c1.255-0.057,2.081-0.784,2.268-1.997c0.086-0.547-0.099-2.856-0.331-5.593c-0.067-0.798-0.126-1.487-0.136-1.716
		c-0.031-0.713-0.37-1.183-0.577-1.406c-0.126-0.544-0.206-0.873-0.241-0.977C37.007,25.95,36.085,25.835,35.744,25.835
		L35.744,25.835z"/>
</g>
</svg>
