<?xml version="1.0" encoding="utf-8"?>
<!-- Generator: Adobe Illustrator 16.0.0, SVG Export Plug-In . SVG Version: 6.00 Build 0)  -->
<!DOCTYPE svg PUBLIC "-//W3C//DTD SVG 1.1//EN" "http://www.w3.org/Graphics/SVG/1.1/DTD/svg11.dtd">
<svg version="1.1" id="Icon" xmlns="http://www.w3.org/2000/svg" xmlns:xlink="http://www.w3.org/1999/xlink" x="0px" y="0px"
	 width="15px" height="15px" viewBox="24.5 24.5 15 15" enable-background="new 24.5 24.5 15 15" xml:space="preserve">
<rect x="24.5" y="24.5" fill="none" width="15" height="15"/>
<g>
	<path fill="#333333" d="M37.916,26.6l-0.178-0.204c-0.125-0.144-0.344-0.159-0.488-0.034l-4.204,4.034
		c-0.154-0.355-0.72-1.164-1.149-1.205c-0.467-0.045-1.403,0.104-1.946,0.361c-0.407,0.193-0.835,0.435-0.987,0.776
		c-0.138,0.309,0.104,1.054,0.271,1.315c0.168,0.261,0.444,0.693,0.444,0.693c0.098,0.167,0.185,0.309,0.267,0.433l-2.922,3.563
		c-0.235,0.309-0.176,0.75,0.134,0.985s0.751,0.176,0.986-0.134l3.017-3.679l0.697,2.314c0.072,0.191,0.219,0.331,0.396,0.403
		l2.802,1.538c0.353,0.164,0.771,0.013,0.935-0.34c0.164-0.352,0.011-0.771-0.342-0.934l-2.546-1.399l-0.672-2.229
		c0.33-0.276,0.819-0.715,0.976-0.996c0.162-0.292-0.018-0.751-0.181-1.096l4.658-3.682C38.026,26.962,38.04,26.743,37.916,26.6z"/>
	<circle fill="#333333" cx="29.908" cy="27.576" r="1.406"/>
	<ellipse fill="#333333" cx="26.645" cy="31.508" rx="0.645" ry="0.645"/>
	<path fill="#FFFFFF" d="M37.478,26.278c0.097,0,0.192,0.04,0.261,0.119l0.178,0.204c0.124,0.143,0.11,0.362-0.033,0.487
		l-4.658,3.682c0.163,0.345,0.343,0.804,0.181,1.096c-0.156,0.281-0.646,0.72-0.976,0.996l0.672,2.229l2.546,1.399
		c0.353,0.163,0.506,0.582,0.342,0.934c-0.119,0.256-0.373,0.406-0.638,0.406c-0.1,0-0.201-0.021-0.297-0.066l-2.802-1.538
		c-0.177-0.072-0.324-0.212-0.396-0.403l-0.697-2.314l-3.017,3.679c-0.138,0.182-0.348,0.277-0.56,0.277
		c-0.148,0-0.298-0.047-0.426-0.144c-0.31-0.235-0.369-0.677-0.134-0.985l2.922-3.563c-0.082-0.124-0.169-0.266-0.267-0.433
		c0,0-0.276-0.432-0.444-0.693c-0.167-0.262-0.409-1.007-0.271-1.315c0.152-0.342,0.581-0.583,0.987-0.776
		c0.479-0.227,1.262-0.37,1.761-0.37c0.067,0,0.129,0.003,0.185,0.008c0.43,0.041,0.995,0.85,1.149,1.205l4.204-4.034
		C37.316,26.306,37.397,26.278,37.478,26.278 M37.478,25.809c-0.196,0-0.386,0.071-0.534,0.199
		c-0.006,0.005-0.012,0.011-0.018,0.017l-3.779,3.626c-0.287-0.409-0.724-0.878-1.205-0.925c-0.07-0.007-0.147-0.01-0.23-0.01
		c-0.527,0-1.394,0.146-1.962,0.415c-0.48,0.228-1,0.525-1.215,1.009c-0.24,0.535,0.116,1.462,0.304,1.758l0.44,0.687
		c0.031,0.054,0.062,0.104,0.09,0.151l-2.708,3.303c-0.003,0.004-0.007,0.009-0.01,0.013c-0.19,0.249-0.271,0.557-0.229,0.867
		s0.203,0.586,0.452,0.775c0.206,0.156,0.451,0.239,0.709,0.239c0.367,0,0.704-0.165,0.927-0.455l2.455-2.992l0.444,1.473
		c0.003,0.01,0.006,0.02,0.01,0.03c0.111,0.294,0.34,0.533,0.63,0.659l2.78,1.527c0.009,0.005,0.019,0.01,0.028,0.015
		c0.156,0.072,0.322,0.109,0.494,0.109c0.454,0,0.871-0.266,1.062-0.678c0.133-0.283,0.146-0.602,0.038-0.896
		c-0.105-0.289-0.314-0.521-0.591-0.653l-2.366-1.3l-0.528-1.754c0.435-0.384,0.72-0.694,0.849-0.926
		c0.202-0.363,0.125-0.791-0.02-1.177l4.378-3.46c0.006-0.005,0.012-0.009,0.018-0.015c0.338-0.295,0.372-0.81,0.078-1.148
		l-0.178-0.204C37.938,25.912,37.715,25.809,37.478,25.809L37.478,25.809z"/>
	<path fill="#FFFFFF" d="M29.908,26.17c0.776,0,1.406,0.629,1.406,1.406s-0.63,1.406-1.406,1.406c-0.777,0-1.406-0.629-1.406-1.406
		S29.131,26.17,29.908,26.17 M29.908,25.701c-1.034,0-1.875,0.841-1.875,1.875c0,1.034,0.841,1.875,1.875,1.875
		c1.034,0,1.875-0.841,1.875-1.875C31.783,26.542,30.942,25.701,29.908,25.701L29.908,25.701z"/>
	<path fill="#FFFFFF" d="M26.645,30.863c0.356,0,0.646,0.29,0.646,0.645c0,0.356-0.29,0.645-0.646,0.645S26,31.864,26,31.508
		C26,31.152,26.289,30.863,26.645,30.863 M26.645,30.394c-0.614,0-1.114,0.5-1.114,1.114c0,0.614,0.5,1.114,1.114,1.114
		s1.114-0.5,1.114-1.114C27.759,30.894,27.259,30.394,26.645,30.394L26.645,30.394z"/>
</g>
</svg>
