<?xml version="1.0" encoding="utf-8"?>
<!-- Generator: Adobe Illustrator 16.0.0, SVG Export Plug-In . SVG Version: 6.00 Build 0)  -->
<!DOCTYPE svg PUBLIC "-//W3C//DTD SVG 1.1//EN" "http://www.w3.org/Graphics/SVG/1.1/DTD/svg11.dtd">
<svg version="1.1" id="Icon" xmlns="http://www.w3.org/2000/svg" xmlns:xlink="http://www.w3.org/1999/xlink" x="0px" y="0px"
	 width="15px" height="15px" viewBox="24.5 24.5 15 15" enable-background="new 24.5 24.5 15 15" xml:space="preserve">
<rect x="24.5" y="24.5" fill="none" width="15" height="15"/>
<g>
	<path fill="#333333" d="M37.936,36.118l-2.458-3.033c-0.159-0.196-0.445-0.226-0.641-0.067l-0.926,0.751l-0.818-1.077
		c0.147-0.24,0.142-0.553-0.046-0.784l-2.31-2.817c-0.021-0.026-0.052-0.04-0.077-0.063c-0.083-0.112-0.209-0.188-0.359-0.188h-1.82
		c-0.137,0-0.256,0.064-0.34,0.16c-0.065,0.045-0.125,0.1-0.173,0.168l-1.88,2.673c-0.217,0.309-0.143,0.734,0.166,0.95
		c0.309,0.217,0.734,0.143,0.951-0.166l0.821-1.168v1.637l-0.991,1.682c-0.017,0.029-0.029,0.059-0.041,0.088
		c-0.07,0.116-0.106,0.255-0.095,0.4l0.234,2.412c0.029,0.376,0.357,0.657,0.733,0.629c0.376-0.029,0.657-0.358,0.628-0.733
		l-0.215-2.218l0.946-1.604c0.019-0.03,0.032-0.063,0.045-0.096h0.121v2.25c0,0.021,0.004,0.04,0.006,0.061
		c0.002,0.015,0.002,0.029,0.004,0.044c0.006,0.04,0.016,0.077,0.028,0.114c0,0.001,0.001,0.002,0.001,0.003
		c0.051,0.148,0.15,0.272,0.28,0.354l1.994,1.591c0.303,0.223,0.73,0.16,0.954-0.144c0.225-0.304,0.16-0.731-0.143-0.954
		l-1.761-1.404v-2.369v-0.563v-1.368l1.23,1.501c0.187,0.229,0.488,0.3,0.751,0.208l0.865,1.141
		c-0.047,0.143-0.031,0.303,0.07,0.428l2.458,3.034c0.014,0.017,0.031,0.024,0.046,0.038c-0.041,0.071-0.07,0.148-0.07,0.236
		c0,0.271,0.22,0.49,0.489,0.49c0.271,0,0.49-0.219,0.49-0.49c0-0.134-0.056-0.257-0.144-0.346l0.925-0.75
		C38.063,36.6,38.094,36.314,37.936,36.118z"/>
	<circle fill="#333333" cx="29.392" cy="27.021" r="1.365"/>
	<path fill="#FFFFFF" d="M30.301,28.839c0.15,0,0.277,0.077,0.359,0.188c0.025,0.023,0.055,0.037,0.077,0.063l2.31,2.817
		c0.188,0.23,0.193,0.543,0.046,0.784l0.818,1.077l0.926-0.751c0.085-0.068,0.186-0.102,0.286-0.102
		c0.133,0,0.265,0.058,0.354,0.169l2.458,3.033c0.158,0.196,0.128,0.481-0.067,0.64l-0.925,0.75
		c0.088,0.089,0.144,0.212,0.144,0.346c0,0.271-0.219,0.49-0.49,0.49c-0.27,0-0.489-0.219-0.489-0.49
		c0-0.088,0.029-0.165,0.07-0.236c-0.015-0.014-0.032-0.021-0.046-0.038l-2.458-3.034c-0.102-0.125-0.117-0.285-0.07-0.428
		l-0.865-1.141c-0.074,0.026-0.151,0.039-0.229,0.039c-0.196,0-0.389-0.083-0.523-0.247l-1.23-1.501v1.368v0.563v2.369l1.761,1.404
		c0.303,0.223,0.367,0.65,0.143,0.954c-0.133,0.181-0.34,0.276-0.549,0.276c-0.141,0-0.283-0.043-0.405-0.133l-1.994-1.591
		c-0.13-0.081-0.229-0.205-0.28-0.354c0-0.001-0.001-0.002-0.001-0.003c-0.012-0.037-0.022-0.074-0.028-0.114
		c-0.002-0.015-0.002-0.029-0.004-0.044c-0.002-0.021-0.006-0.04-0.006-0.061v-2.25h-0.121c-0.013,0.032-0.026,0.065-0.045,0.096
		l-0.946,1.604l0.215,2.218c0.028,0.375-0.252,0.704-0.628,0.733c-0.018,0.001-0.035,0.002-0.052,0.002
		c-0.354,0-0.653-0.272-0.681-0.631l-0.234-2.412c-0.011-0.146,0.025-0.284,0.095-0.4c0.012-0.029,0.024-0.059,0.041-0.088
		l0.991-1.682v-1.637l-0.821,1.168c-0.133,0.189-0.344,0.29-0.559,0.29c-0.135,0-0.272-0.04-0.392-0.124
		c-0.309-0.216-0.383-0.642-0.166-0.95l1.88-2.673c0.048-0.069,0.108-0.124,0.173-0.168c0.084-0.096,0.203-0.16,0.34-0.16H30.301
		 M30.301,28.37h-1.82c-0.243,0-0.477,0.1-0.651,0.275c-0.097,0.074-0.18,0.159-0.246,0.253l-1.879,2.673
		c-0.178,0.252-0.246,0.558-0.193,0.861c0.053,0.303,0.221,0.567,0.473,0.743c0.194,0.137,0.423,0.209,0.661,0.209
		c0.357,0,0.694-0.166,0.912-0.447v0.029l-0.926,1.572c-0.025,0.042-0.043,0.083-0.058,0.115c-0.111,0.198-0.16,0.421-0.142,0.647
		l0.234,2.421c0.046,0.587,0.55,1.054,1.147,1.054c0.029,0,0.058-0.001,0.087-0.004c0.633-0.049,1.108-0.604,1.061-1.235
		L28.76,35.46l0.163-0.274v0.718c0,0.034,0.003,0.066,0.007,0.1c0,0.006,0.001,0.014,0.002,0.02c0.001,0.02,0.004,0.039,0.007,0.058
		c0.009,0.062,0.025,0.125,0.047,0.191c0.001,0.005,0.003,0.009,0.004,0.014c0.083,0.234,0.241,0.438,0.447,0.574l1.976,1.576
		c0.005,0.004,0.009,0.007,0.014,0.011c0.2,0.147,0.436,0.225,0.684,0.225c0.365,0,0.711-0.175,0.927-0.468
		c0.182-0.246,0.258-0.55,0.212-0.854c-0.045-0.301-0.203-0.566-0.446-0.749l-1.579-1.258v-2.144v-0.563v-0.057l0.399,0.487
		c0.216,0.266,0.54,0.419,0.885,0.419c0.009,0,0.017,0,0.025,0l0.575,0.757c-0.007,0.217,0.062,0.429,0.199,0.599l2.339,2.887
		c-0.007,0.042-0.01,0.084-0.01,0.127c0,0.529,0.43,0.959,0.958,0.959s0.959-0.43,0.959-0.959c0-0.074-0.009-0.147-0.025-0.219
		l0.633-0.513c0.395-0.32,0.456-0.902,0.137-1.298l-2.458-3.034c-0.176-0.218-0.438-0.343-0.719-0.343
		c-0.21,0-0.417,0.072-0.58,0.205L33.992,33.1l-0.365-0.48c0.09-0.347,0.015-0.722-0.217-1.007L31.1,28.793
		c-0.039-0.049-0.08-0.083-0.11-0.105C30.812,28.485,30.566,28.37,30.301,28.37L30.301,28.37z"/>
	<path fill="#FFFFFF" d="M29.392,25.655c0.754,0,1.365,0.612,1.365,1.365c0,0.754-0.611,1.365-1.365,1.365
		c-0.753,0-1.365-0.611-1.365-1.365C28.026,26.267,28.638,25.655,29.392,25.655 M29.392,25.187c-1.011,0-1.834,0.823-1.834,1.834
		s0.823,1.834,1.834,1.834s1.833-0.823,1.833-1.834S30.403,25.187,29.392,25.187L29.392,25.187z"/>
</g>
</svg>
