<?xml version="1.0" encoding="utf-8"?>
<!-- Generator: Adobe Illustrator 16.0.0, SVG Export Plug-In . SVG Version: 6.00 Build 0)  -->
<!DOCTYPE svg PUBLIC "-//W3C//DTD SVG 1.1//EN" "http://www.w3.org/Graphics/SVG/1.1/DTD/svg11.dtd">
<svg version="1.1" id="Icon" xmlns="http://www.w3.org/2000/svg" xmlns:xlink="http://www.w3.org/1999/xlink" x="0px" y="0px"
	 width="15px" height="15px" viewBox="24.5 24.5 15 15" enable-background="new 24.5 24.5 15 15" xml:space="preserve">
<rect x="24.5" y="24.5" fill="none" width="15" height="15"/>
<g>
	<path fill="#333333" d="M37.742,30.509l0.479-0.188c0,0,0.454-0.845-0.149-1.095c-0.289-0.119,0.049-0.938-0.548-0.938
		c-0.599,0-11.896-0.006-11.896-0.006l-0.014,1.231l3.617-0.007l1.407,0.996l2.273,0.002c-0.026,0.381,0.013,1.042,0.519,1.549
		c0.579,0.58,1.543,0.405,1.979,0.286c0.152,1.417,0.391,3.066,0.699,3.29c0.553,0.404,1.95-0.661,2.242-1.063
		c0.246-0.342-0.744-3.202-1.049-4.057L37.742,30.509z M33.784,31.698c-0.381-0.381-0.394-0.914-0.37-1.194l1.537,0.001
		c0.022,0.116,0.017,0.271-0.089,0.457c-0.22,0.385-0.465,0.37-0.476,0.37c-0.102-0.007-0.193,0.066-0.204,0.168
		c-0.011,0.101,0.059,0.192,0.16,0.205c0.02,0.003,0.494,0.059,0.846-0.557c0.039-0.068,0.065-0.133,0.088-0.197
		c0.021,0.252,0.048,0.552,0.079,0.88C34.976,31.949,34.178,32.093,33.784,31.698z"/>
	<path fill="#FFFFFF" d="M25.627,28.282c0,0,11.298,0.006,11.896,0.006c0.597,0,0.259,0.819,0.548,0.938
		c0.604,0.25,0.149,1.095,0.149,1.095l-0.479,0.188L37.3,30.508c0.305,0.855,1.295,3.715,1.049,4.057
		c-0.246,0.34-1.283,1.153-1.932,1.153c-0.119,0-0.225-0.027-0.311-0.09c-0.309-0.224-0.547-1.873-0.699-3.29
		c-0.199,0.054-0.51,0.121-0.844,0.121c-0.395,0-0.821-0.092-1.135-0.406c-0.506-0.507-0.545-1.168-0.519-1.549l-2.273-0.002
		l-1.407-0.996l-3.617,0.007L25.627,28.282 M34.565,31.957c0.299,0,0.599-0.066,0.79-0.126c-0.031-0.328-0.058-0.628-0.079-0.88
		c-0.022,0.064-0.049,0.129-0.088,0.197c-0.292,0.51-0.668,0.559-0.799,0.559c-0.027,0-0.044-0.002-0.047-0.002
		c-0.102-0.013-0.171-0.104-0.16-0.205c0.01-0.097,0.095-0.169,0.19-0.169c0.005,0,0.009,0,0.014,0c0.001,0,0.004,0,0.008,0
		c0.046,0,0.268-0.02,0.468-0.37c0.105-0.186,0.111-0.341,0.089-0.457l-1.537-0.001c-0.023,0.28-0.011,0.813,0.37,1.194
		C33.979,31.893,34.272,31.957,34.565,31.957 M25.627,27.813c-0.257,0-0.466,0.207-0.469,0.463l-0.014,1.231
		c-0.001,0.125,0.048,0.246,0.136,0.335c0.088,0.088,0.208,0.139,0.333,0.139c0,0,0,0,0.001,0l3.468-0.007l1.285,0.909
		c0.079,0.056,0.173,0.086,0.27,0.086l1.813,0.002c0.058,0.553,0.279,1.043,0.646,1.412c0.356,0.356,0.863,0.544,1.467,0.544
		c0.151,0,0.299-0.012,0.436-0.03c0.326,2.741,0.64,2.97,0.832,3.109c0.163,0.119,0.36,0.18,0.586,0.18
		c0.868,0,2.028-0.956,2.312-1.348c0.146-0.202,0.384-0.532-0.782-3.907l0.445-0.175c0.104-0.041,0.189-0.116,0.242-0.214
		c0.059-0.109,0.342-0.68,0.159-1.192c-0.073-0.205-0.208-0.369-0.395-0.483c-0.003-0.024-0.005-0.05-0.007-0.071
		c-0.021-0.242-0.083-0.978-0.868-0.978C36.925,27.819,25.627,27.813,25.627,27.813C25.627,27.813,25.627,27.813,25.627,27.813
		L25.627,27.813z M33.925,31.036c-0.007-0.021-0.012-0.042-0.017-0.063l0.096,0C33.976,30.992,33.949,31.013,33.925,31.036
		L33.925,31.036z"/>
</g>
</svg>
