<?xml version="1.0" encoding="utf-8"?>
<!-- Generator: Adobe Illustrator 16.0.0, SVG Export Plug-In . SVG Version: 6.00 Build 0)  -->
<!DOCTYPE svg PUBLIC "-//W3C//DTD SVG 1.1//EN" "http://www.w3.org/Graphics/SVG/1.1/DTD/svg11.dtd">
<svg version="1.1" id="Icon" xmlns="http://www.w3.org/2000/svg" xmlns:xlink="http://www.w3.org/1999/xlink" x="0px" y="0px"
	 width="15px" height="15px" viewBox="24.5 24.5 15 15" enable-background="new 24.5 24.5 15 15" xml:space="preserve">
<rect x="24.5" y="24.5" fill="none" width="15" height="15"/>
<g>
	<path fill="#333333" d="M32,37.848c-2.959,0-6.143-0.655-6.143-2.097c0-1.37,2.989-1.823,4.771-1.971l0.078,0.935
		c-2.589,0.215-3.825,0.788-3.913,1.049c0.002,0.324,1.825,1.146,5.207,1.146c3.381,0,5.205-0.822,5.205-1.159
		c0-0.215-0.96-0.895-3.899-1.066l0.055-0.936c1.438,0.083,4.782,0.447,4.782,2.002C38.143,37.192,34.958,37.848,32,37.848z"/>
	<path fill="#FFFFFF" d="M33.388,33.281c-1.057-0.066-2.384,0-2.798,0.032c-3.453,0.271-5.201,1.106-5.201,2.438
		c0,1.894,3.562,2.565,6.611,2.565s6.611-0.672,6.611-2.565C38.611,33.961,35.771,33.429,33.388,33.281z M32,37.848
		c-2.959,0-6.143-0.655-6.143-2.097c0-1.37,2.989-1.823,4.771-1.971l0.078,0.935c-2.589,0.215-3.825,0.788-3.913,1.049
		c0.002,0.324,1.825,1.146,5.207,1.146c3.381,0,5.205-0.822,5.205-1.159c0-0.215-0.96-0.895-3.899-1.066l0.055-0.936
		c1.438,0.083,4.782,0.447,4.782,2.002C38.143,37.192,34.958,37.848,32,37.848z"/>
	<path fill="#333333" d="M36.656,26.463c-0.358-0.209-0.74-0.311-1.167-0.311c-0.49,0-0.954,0.135-1.401,0.266
		c-0.695,0.203-1.325,0.342-1.834,0.045c-0.146-0.084-0.324-0.084-0.469-0.001c-0.146,0.083-0.235,0.239-0.235,0.406v2.853v6.078
		h0.938v-5.41c0.148,0.029,0.301,0.048,0.461,0.048c0.491,0,0.954-0.135,1.402-0.266c0.695-0.203,1.325-0.342,1.834-0.045
		c0.146,0.085,0.324,0.085,0.47,0.002s0.235-0.239,0.235-0.407v-2.853C36.889,26.701,36.8,26.547,36.656,26.463z M35.951,29.048
		c-0.148-0.029-0.302-0.043-0.462-0.043c-0.49,0-0.954,0.135-1.401,0.266c-0.592,0.172-1.151,0.312-1.602,0.153v-1.883
		c0.148,0.029,0.301,0.043,0.461,0.043c0.491,0,0.954-0.135,1.403-0.266c0.59-0.173,1.15-0.312,1.601-0.154V29.048z"/>
	<path fill="#FFFFFF" d="M34.351,27.318c-0.449,0.13-0.912,0.266-1.403,0.266c-0.16,0-0.312-0.014-0.461-0.043v1.883
		c0.45,0.159,1.01,0.019,1.602-0.153c0.447-0.131,0.911-0.266,1.401-0.266c0.16,0,0.313,0.015,0.462,0.043v-1.884
		C35.501,27.005,34.94,27.145,34.351,27.318z"/>
	<path fill="#FFFFFF" d="M36.893,26.058c-0.433-0.252-0.892-0.375-1.403-0.375c-0.559,0-1.076,0.151-1.533,0.285
		c-0.406,0.119-0.733,0.197-1.013,0.197c-0.185,0-0.328-0.034-0.454-0.107c-0.144-0.083-0.307-0.127-0.472-0.127
		c-0.163,0-0.324,0.042-0.466,0.124c-0.292,0.167-0.472,0.479-0.472,0.813v2.853v6.078c0,0.259,0.21,0.469,0.469,0.469h0.938
		c0.259,0,0.469-0.21,0.469-0.469v-4.893c0.556-0.001,1.07-0.152,1.525-0.285c0.406-0.118,0.734-0.197,1.014-0.197
		c0.185,0,0.328,0.034,0.453,0.107c0.144,0.083,0.308,0.128,0.473,0.128c0.164,0,0.325-0.043,0.467-0.125
		c0.291-0.167,0.471-0.478,0.471-0.813v-2.853C37.357,26.536,37.18,26.226,36.893,26.058z M36.889,29.72
		c0,0.168-0.09,0.323-0.235,0.407s-0.324,0.083-0.47-0.002c-0.509-0.297-1.139-0.157-1.834,0.045
		c-0.448,0.13-0.911,0.266-1.402,0.266c-0.16,0-0.312-0.019-0.461-0.048v5.41h-0.938V29.72v-2.853c0-0.167,0.09-0.323,0.235-0.406
		c0.146-0.083,0.324-0.083,0.469,0.001c0.509,0.297,1.139,0.158,1.834-0.045c0.447-0.131,0.911-0.266,1.401-0.266
		c0.427,0,0.809,0.102,1.167,0.311c0.144,0.084,0.232,0.238,0.232,0.405V29.72z"/>
</g>
</svg>
