<?xml version="1.0" encoding="utf-8"?>
<!-- Generator: Adobe Illustrator 23.1.1, SVG Export Plug-In . SVG Version: 6.00 Build 0)  -->
<svg version="1.1" id="レイヤー_1" xmlns="http://www.w3.org/2000/svg" xmlns:xlink="http://www.w3.org/1999/xlink" x="0px"
	 y="0px" viewBox="0 0 16 12" enable-background="new 0 0 16 12" xml:space="preserve">
<g>
	<g>
		<path fill="#00864A" d="M14.7,12.001H1.3c-0.718,0-1.3-0.582-1.3-1.3v-9.4c0-0.718,0.582-1.3,1.3-1.3h13.4
			c0.718,0,1.3,0.582,1.3,1.3v9.4C16,11.419,15.418,12.001,14.7,12.001z"/>
	</g>
	<path fill="#FFFFFF" d="M0.923,7.243l1.525-0.133c0.091,0.464,0.277,0.805,0.56,1.024c0.283,0.219,0.661,0.325,1.136,0.325
		c0.507,0,0.885-0.096,1.141-0.293c0.256-0.192,0.384-0.421,0.384-0.683c0-0.165-0.053-0.309-0.16-0.427
		C5.403,6.939,5.216,6.837,4.944,6.752c-0.181-0.059-0.603-0.16-1.253-0.309C2.848,6.251,2.261,6.021,1.92,5.744
		C1.445,5.355,1.205,4.88,1.205,4.325c0-0.357,0.112-0.699,0.336-1.008c0.224-0.315,0.549-0.549,0.971-0.715
		s0.933-0.245,1.531-0.245c0.976,0,1.707,0.192,2.203,0.581c0.491,0.389,0.752,0.907,0.779,1.557L5.456,4.56
		C5.387,4.197,5.243,3.936,5.024,3.776c-0.219-0.16-0.555-0.24-0.992-0.24c-0.453,0-0.811,0.085-1.072,0.256
		C2.795,3.899,2.709,4.048,2.709,4.229c0,0.165,0.08,0.309,0.235,0.427c0.197,0.149,0.677,0.309,1.44,0.475s1.328,0.331,1.691,0.507
		c0.368,0.176,0.651,0.416,0.859,0.72c0.208,0.304,0.309,0.677,0.309,1.125c0,0.405-0.123,0.784-0.373,1.136
		C6.624,8.971,6.272,9.232,5.819,9.408C5.365,9.584,4.805,9.664,4.128,9.664c-0.981,0-1.739-0.208-2.261-0.619
		C1.339,8.635,1.024,8.032,0.923,7.243z"/>
	<path fill="#FFFFFF" d="M15.221,9.541h-1.707l-0.677-1.605H9.733l-0.64,1.605H7.429l3.019-7.061h1.659L15.221,9.541z M12.331,6.747
		l-1.072-2.619l-1.045,2.619H12.331z"/>
</g>
</svg>
