<?xml version="1.0" encoding="utf-8"?>
<!-- Generator: Adobe Illustrator 16.0.0, SVG Export Plug-In . SVG Version: 6.00 Build 0)  -->
<!DOCTYPE svg PUBLIC "-//W3C//DTD SVG 1.1//EN" "http://www.w3.org/Graphics/SVG/1.1/DTD/svg11.dtd">
<svg version="1.1" id="Icon" xmlns="http://www.w3.org/2000/svg" xmlns:xlink="http://www.w3.org/1999/xlink" x="0px" y="0px"
	 width="15px" height="15px" viewBox="24.5 24.5 15 15" enable-background="new 24.5 24.5 15 15" xml:space="preserve">
<rect x="24.5" y="24.5" fill="none" width="15" height="15"/>
<g>
	<path fill="#333333" d="M38.047,32.591v-5.712h-1.005c0,0,0,3.886,0,4.707c-0.414,0-1.16,0-1.668,0
		c-0.081-0.526-0.284-1.011-0.58-1.427l1.479-1.478l-0.711-0.711l-1.467,1.467c-0.443-0.338-0.971-0.568-1.548-0.651v-1.999h-1.005
		v2.005c-0.542,0.086-1.039,0.3-1.462,0.613l-1.377-1.375l-0.711,0.711l1.377,1.376c-0.316,0.429-0.532,0.935-0.614,1.485
		l-2.299,0.001l-0.502,0v5.475h1.006c0,0,0-3.657,0-4.47c0.446-0.001,1.286-0.001,1.797-0.001c0.084,0.548,0.3,1.052,0.616,1.479
		l-1.438,1.439l0.711,0.711l1.44-1.44c0.414,0.305,0.899,0.517,1.427,0.604v1.812h1.005v-1.795c0.579-0.079,1.108-0.305,1.555-0.641
		l1.386,1.387l0.712-0.712l-1.393-1.392c0.31-0.426,0.52-0.926,0.6-1.469L38.047,32.591z M29.719,32.099
		c0-1.293,1.052-2.346,2.347-2.346c1.293,0,2.345,1.053,2.345,2.346s-1.052,2.347-2.345,2.347
		C30.771,34.446,29.719,33.393,29.719,32.099z"/>
	<path fill="#FFFFFF" d="M32.066,29.753c-0.003,0-0.006,0-0.009,0c-0.003,0-0.006,0-0.009,0c-1.294,0-2.347,1.053-2.347,2.346
		s1.052,2.347,2.347,2.347c0.003,0,0.006,0,0.009,0c0.003,0,0.006,0,0.009,0c1.293,0,2.345-1.054,2.345-2.347
		S33.359,29.753,32.066,29.753z"/>
	<path fill="#FFFFFF" d="M38.047,26.41h-1.005c-0.259,0-0.469,0.21-0.469,0.469v1.441l-0.68-0.681
		c-0.088-0.088-0.207-0.138-0.331-0.138c-0.001,0-0.001,0-0.001,0c-0.124,0-0.243,0.049-0.331,0.137l-1.193,1.193
		c-0.318-0.191-0.663-0.336-1.021-0.429v-1.615c0-0.259-0.21-0.469-0.469-0.469h-1.005c-0.259,0-0.469,0.21-0.469,0.469v1.627
		c-0.326,0.088-0.64,0.22-0.932,0.39l-1.107-1.106c-0.092-0.092-0.211-0.137-0.332-0.137s-0.24,0.045-0.332,0.137l-0.711,0.711
		c-0.088,0.088-0.137,0.207-0.137,0.332c0,0.124,0.049,0.244,0.137,0.332l1.107,1.107c-0.174,0.298-0.307,0.62-0.395,0.955
		l-1.918,0.001l-0.503,0c-0.259,0-0.468,0.21-0.468,0.469v5.475c0,0.259,0.21,0.469,0.469,0.469h1.006
		c0.259,0,0.469-0.21,0.469-0.469v-4.001c0.3-0.001,0.645-0.001,0.949-0.001c0.088,0.333,0.221,0.652,0.395,0.949l-1.169,1.17
		c-0.183,0.184-0.183,0.479,0,0.663l0.711,0.711c0.088,0.088,0.207,0.137,0.332,0.137l0,0c0.124,0,0.244-0.049,0.332-0.137
		l1.17-1.172c0.281,0.164,0.583,0.292,0.896,0.379v1.437c0,0.259,0.209,0.469,0.469,0.469h1.005c0.259,0,0.469-0.21,0.469-0.469
		v-1.409c0.36-0.09,0.707-0.232,1.026-0.423l1.114,1.114c0.088,0.088,0.207,0.138,0.331,0.138c0.125,0,0.244-0.05,0.332-0.138
		l0.711-0.711c0.088-0.088,0.138-0.207,0.138-0.332c0-0.124-0.05-0.243-0.138-0.331l-1.124-1.124
		c0.168-0.294,0.297-0.609,0.382-0.937l2.288-0.001c0.26,0,0.469-0.21,0.469-0.469v-5.712C38.516,26.62,38.306,26.41,38.047,26.41z
		 M38.047,32.591l-2.67,0.001c-0.08,0.543-0.29,1.043-0.6,1.469l1.393,1.392l-0.712,0.712l-1.386-1.387
		c-0.446,0.336-0.976,0.562-1.555,0.641v1.795h-1.005v-1.812c-0.528-0.088-1.014-0.3-1.427-0.604l-1.44,1.44l-0.711-0.711
		l1.438-1.439c-0.316-0.428-0.532-0.932-0.616-1.479c-0.512,0-1.352,0-1.797,0.001c0,0.812,0,4.47,0,4.47h-1.006v-5.475l0.502,0
		l2.299-0.001c0.083-0.55,0.298-1.056,0.614-1.485l-1.377-1.376l0.711-0.711l1.377,1.375c0.423-0.312,0.92-0.527,1.462-0.613v-2.005
		h1.005v1.999c0.577,0.083,1.104,0.313,1.548,0.651l1.467-1.467l0.711,0.711l-1.479,1.478c0.296,0.416,0.499,0.901,0.58,1.427
		c0.508,0,1.254,0,1.668,0c0-0.821,0-4.707,0-4.707h1.005V32.591z M36.573,29.043v2.074h-0.284h-0.535
		c-0.083-0.311-0.205-0.611-0.363-0.891L36.573,29.043z"/>
</g>
</svg>
