<?xml version="1.0" encoding="utf-8"?>
<!-- Generator: Adobe Illustrator 16.0.0, SVG Export Plug-In . SVG Version: 6.00 Build 0)  -->
<!DOCTYPE svg PUBLIC "-//W3C//DTD SVG 1.1//EN" "http://www.w3.org/Graphics/SVG/1.1/DTD/svg11.dtd">
<svg version="1.1" id="Icon" xmlns="http://www.w3.org/2000/svg" xmlns:xlink="http://www.w3.org/1999/xlink" x="0px" y="0px"
	 width="15px" height="15px" viewBox="-7.5 24.5 15 15" enable-background="new -7.5 24.5 15 15" xml:space="preserve">
<rect x="-7.5" y="24.5" fill="none" width="15" height="15"/>
<g>
	<path fill="#333333" d="M0.465,28.975v-3.032h-0.93v3.032c-2.294,0.233-4.09,2.175-4.09,4.529c0,2.511,2.043,4.553,4.554,4.553
		c2.512,0,4.555-2.042,4.555-4.553C4.555,31.151,2.759,29.209,0.465,28.975z M0,37.127c-1.999,0-3.625-1.625-3.625-3.623
		c0-1.998,1.626-3.623,3.625-3.623c2,0,3.626,1.625,3.626,3.623C3.625,35.502,1.999,37.127,0,37.127z"/>
	<circle fill="#333333" cx="-2.577" cy="27.509" r="0.792"/>
	<circle fill="#333333" cx="2.7" cy="27.509" r="0.792"/>
	<path fill="#FFFFFF" d="M3.625,33.492c0-1.998-1.626-3.623-3.626-3.623c-1.998,0-3.625,1.625-3.625,3.623c0,0.003,0,0.006,0,0.009
		c0,0.001,0,0.002,0,0.003c0,1.998,1.626,3.623,3.625,3.623c2,0,3.626-1.625,3.626-3.623c0-0.002,0-0.004,0-0.006
		S3.625,33.494,3.625,33.492z"/>
	<path fill="#FFFFFF" d="M0.934,28.57v-2.627c0-0.259-0.21-0.469-0.469-0.469h-0.93c-0.259,0-0.469,0.209-0.469,0.469v2.626
		c-2.359,0.44-4.09,2.491-4.09,4.935c0,2.77,2.253,5.021,5.023,5.021c2.77,0,5.024-2.252,5.024-5.021
		C5.023,31.062,3.293,29.01,0.934,28.57z M0,38.057c-2.511,0-4.554-2.042-4.554-4.553c0-2.354,1.796-4.296,4.09-4.529v-3.032h0.93
		v3.032c2.294,0.234,4.089,2.176,4.089,4.529C4.555,36.015,2.511,38.057,0,38.057z"/>
	<path fill="#FFFFFF" d="M-2.577,26.717c0.437,0,0.792,0.354,0.792,0.792S-2.14,28.3-2.577,28.3c-0.438,0-0.792-0.354-0.792-0.792
		S-3.014,26.717-2.577,26.717 M-2.577,26.249c-0.695,0-1.26,0.565-1.26,1.26s0.565,1.26,1.26,1.26s1.26-0.565,1.26-1.26
		S-1.882,26.249-2.577,26.249L-2.577,26.249z"/>
	<path fill="#FFFFFF" d="M2.7,26.717c0.437,0,0.791,0.354,0.791,0.792c0,0.438-0.354,0.792-0.791,0.792
		c-0.438,0-0.792-0.354-0.792-0.792S2.262,26.717,2.7,26.717 M2.7,26.249c-0.695,0-1.26,0.565-1.26,1.26s0.565,1.26,1.26,1.26
		s1.26-0.565,1.26-1.26S3.395,26.249,2.7,26.249L2.7,26.249z"/>
</g>
</svg>
