<?xml version="1.0" encoding="utf-8"?>
<!-- Generator: Adobe Illustrator 21.1.0, SVG Export Plug-In . SVG Version: 6.00 Build 0)  -->
<svg version="1.1" id="レイヤー_1" xmlns="http://www.w3.org/2000/svg" xmlns:xlink="http://www.w3.org/1999/xlink" x="0px"
	 y="0px" viewBox="0 0 11 11" enable-background="new 0 0 11 11" xml:space="preserve">
<g>
	<path d="M5.5,0.6c2.702,0,4.9,2.198,4.9,4.9s-2.198,4.9-4.9,4.9S0.6,8.202,0.6,5.5S2.798,0.6,5.5,0.6 M5.5,0C2.462,0,0,2.462,0,5.5
		S2.462,11,5.5,11S11,8.538,11,5.5S8.538,0,5.5,0L5.5,0z"/>
</g>
<g>
	<path d="M1.843,7.705c0.159-0.024,0.286-0.048,0.421-0.08c0.032,0,0.048-0.008,0.087-0.016c0.032-0.04,0.04-0.063,0.088-0.119
		c0.167-0.247,0.683-1.073,0.858-1.375c-0.453-0.699-0.985-1.367-1.43-1.804l0.374-0.517C2.4,3.963,2.463,4.034,2.559,4.145
		c0.413-0.652,0.834-1.478,1.152-2.28l0.58,0.278C3.941,2.922,3.44,3.828,2.988,4.495L2.924,4.591
		c0.207,0.254,0.485,0.636,0.699,0.961c0.349-0.604,0.715-1.343,1.009-2.003l0.533,0.334C4.593,5.075,3.767,6.498,3.123,7.411
		c-0.024,0.024-0.024,0.024-0.04,0.048C3.774,7.3,4.179,7.197,4.672,7.062C4.522,6.68,4.394,6.418,4.227,6.116l0.485-0.302
		c0.318,0.58,0.596,1.2,0.818,1.836L4.998,8.023c-0.056-0.182-0.127-0.429-0.159-0.5c-0.652,0.247-1.55,0.509-2.781,0.81
		L1.843,7.705z M7.295,4.018c-0.12,2.519-0.66,3.981-1.939,5.229L4.879,8.802c1.16-1.025,1.677-2.4,1.812-4.784H5.332V3.454h1.39
		l0.04-1.724h0.611L7.334,3.454h1.788C9.09,5.886,8.987,7.681,8.844,8.436C8.741,8.969,8.487,9.159,7.867,9.159
		c-0.278,0-0.604-0.016-0.938-0.055L6.794,8.476c0.31,0.048,0.652,0.08,0.993,0.08c0.302,0,0.397-0.071,0.445-0.342
		C8.344,7.65,8.455,6.052,8.494,4.463l0.008-0.445C8.502,4.018,7.295,4.018,7.295,4.018z"/>
</g>
</svg>
