<?xml version="1.0" encoding="utf-8"?>
<!-- Generator: Adobe Illustrator 20.1.0, SVG Export Plug-In . SVG Version: 6.00 Build 0)  -->
<svg version="1.1" id="レイヤー_1" xmlns="http://www.w3.org/2000/svg" xmlns:xlink="http://www.w3.org/1999/xlink" x="0px"
	 y="0px" viewBox="0 0 11 11" enable-background="new 0 0 11 11" xml:space="preserve">
<path d="M6.9,4.6C7,4.3,7,4,7.2,3.7c0.2-0.1,0.6,0,0.7-0.1C8.7,3.6,8.5,3.1,8.3,3c0.3,0,0.4,0,0.8,0c1-0.1,1.4-0.9,0.7-1.2
	c0.1,0,0.2,0,0.4,0c0.8-0.2,1.1-0.9,0.5-1.4c-0.5-0.4-1.6-0.5-2.2-0.1C8,0.4,7.6,1,8.4,1.3c-0.2-0.1-0.8,0-1,0.1
	C6.9,1.6,6.7,2.3,7.3,2.7C7,2.7,6.7,2.8,6.5,2.8C6.1,2.9,5.9,3.4,6.2,3.7C6.5,4,6.8,3.8,6.9,4.6z"/>
<path d="M8.6,8.5V7.7H8V6.9H7.5V5.5H6.3v1.4H4.4v0.8H3v0.8H0c0,0,0,0,0,0v0.9L2.3,11l0,0h6.2l0,0L11,9.4V8.5L8.6,8.5L8.6,8.5z"/>
</svg>
