<?xml version="1.0" encoding="utf-8"?>
<!-- Generator: Adobe Illustrator 16.0.0, SVG Export Plug-In . SVG Version: 6.00 Build 0)  -->
<!DOCTYPE svg PUBLIC "-//W3C//DTD SVG 1.1//EN" "http://www.w3.org/Graphics/SVG/1.1/DTD/svg11.dtd">
<svg version="1.1" id="Icon" xmlns="http://www.w3.org/2000/svg" xmlns:xlink="http://www.w3.org/1999/xlink" x="0px" y="0px"
	 width="15px" height="15px" viewBox="24.5 24.5 15 15" enable-background="new 24.5 24.5 15 15" xml:space="preserve">
<rect x="24.5" y="24.5" fill="none" width="15" height="15"/>
<g>
	<path fill="#FFFFFF" d="M32,25.438c-3.619,0-6.562,2.944-6.562,6.562c0,3.618,2.944,6.562,6.562,6.562
		c3.618,0,6.562-2.944,6.562-6.562C38.562,28.381,35.618,25.438,32,25.438z"/>
	<path fill="#333333" d="M25.906,32c0,3.36,2.734,6.094,6.094,6.094c3.36,0,6.094-2.733,6.094-6.094S35.36,25.906,32,25.906
		C28.64,25.906,25.906,28.64,25.906,32z M26.844,32c0-2.843,2.313-5.156,5.156-5.156c2.844,0,5.156,2.313,5.156,5.156
		c0,2.843-2.312,5.156-5.156,5.156C29.157,37.156,26.844,34.843,26.844,32z"/>
	<path fill="#333333" d="M31.167,29.941l0.659,0.429c0.11,0.11,0.077,0.165-0.099,0.165c-0.615,1.143-1.263,2.196-1.944,3.162
		l1.417-0.264c-0.066-0.22-0.176-0.494-0.33-0.823l0.626-0.196c0.242,0.504,0.461,1.097,0.659,1.778
		c0.659-0.682,0.979-1.899,0.956-3.657h-0.989v-0.626h0.989V28.26h0.626c0.286,0.022,0.297,0.11,0.033,0.264v1.384h1.747
		l-0.132,3.92c-0.044,1.165-0.362,1.747-0.956,1.747h-0.692l-0.099-0.725h0.659c0.264,0,0.406-0.33,0.429-0.989l0.132-3.327h-1.088
		c0.088,2.833-0.835,4.568-2.769,5.206l-0.33-0.692c0.505-0.132,0.978-0.396,1.417-0.791l-0.626,0.165l-0.099-0.429l-2.801,0.561
		c-0.022,0.153-0.077,0.187-0.165,0.099l-0.198-0.791l0.758-0.099l1.021-1.581c-0.527-0.505-1.077-0.923-1.648-1.252l0.429-0.593
		l0.362,0.198c0.461-0.681,0.857-1.406,1.187-2.175l0.725,0.33c0.11,0.11,0.077,0.165-0.099,0.165
		c-0.396,0.681-0.824,1.373-1.285,2.076c0.176,0.154,0.407,0.341,0.692,0.561C30.585,31.139,30.86,30.622,31.167,29.941z"/>
</g>
</svg>
