<?xml version="1.0" encoding="utf-8"?>
<!-- Generator: Adobe Illustrator 16.0.0, SVG Export Plug-In . SVG Version: 6.00 Build 0)  -->
<!DOCTYPE svg PUBLIC "-//W3C//DTD SVG 1.1//EN" "http://www.w3.org/Graphics/SVG/1.1/DTD/svg11.dtd">
<svg version="1.1" id="Icon" xmlns="http://www.w3.org/2000/svg" xmlns:xlink="http://www.w3.org/1999/xlink" x="0px" y="0px"
	 width="15px" height="15px" viewBox="24.5 24.5 15 15" enable-background="new 24.5 24.5 15 15" xml:space="preserve">
<rect x="24.5" y="24.5" fill="none" width="15" height="15"/>
<g>
	<path fill="#333333" d="M36.973,29.7c-0.124-0.038-0.345-0.293-0.447-0.427c-0.135-0.176-0.079-0.723-0.083-1.028
		c-0.007-0.462-0.115-1.01-0.551-1.3l0.246-0.7c0.053-0.152-0.027-0.32-0.18-0.373c-0.153-0.054-0.32,0.026-0.374,0.18l-0.247,0.705
		c-0.812-0.097-1.049,0.447-1.219,0.916c-0.209,0.58-0.33,0.893-0.624,1.062c-0.125,0.073-0.271,0.111-0.458,0.073
		c-0.262-0.052-0.599-0.312-0.599-0.312s0.352,0.635,0.624,0.815c0.114,0.076,0.411,0.28,0.411,0.28s-0.556,1.47-0.895,1.888
		c-0.436,0.537-0.802,0.838-1.302,1.021c-0.917,0.336-1.684,0.146-2.521,0.283c-1.45,0.24-2.464,1.449-2.425,2.572
		c0.047,1.357,1.054,2.09,1.862,2.494c0.809,0.402,3.673,0.562,5.473-0.663c0.596-0.404,1.073-0.999,1.513-2.191
		c0.275-0.748,0.466-1.359,0.654-2.309c0.3-1.509,0.522-2.563,0.522-2.563s0.295,0.088,0.435,0.088c0.337,0,0.882-0.491,0.882-0.491
		S37.262,29.79,36.973,29.7z"/>
	<path fill="#FFFFFF" d="M32.878,36.152c-0.654,0.512-1.853,0.845-1.798,1.079c0.069,0.298,1.393-0.039,2.107-0.601
		c0.553-0.435,1.434-1.869,1.049-2.04C34.018,34.493,33.475,35.687,32.878,36.152z"/>
	<ellipse fill="#FFFFFF" cx="30.358" cy="37.242" rx="0.332" ry="0.179"/>
	<path fill="#FFFFFF" d="M35.86,25.856c0.032,0,0.065,0.005,0.098,0.017c0.152,0.053,0.232,0.221,0.18,0.373l-0.246,0.7
		c0.436,0.29,0.544,0.838,0.551,1.3c0.004,0.305-0.052,0.852,0.083,1.028c0.103,0.134,0.323,0.389,0.447,0.427
		c0.114,0.036,0.248,0.046,0.367,0.046c0.183,0,0.331-0.025,0.331-0.025s-0.545,0.491-0.882,0.491c-0.14,0-0.435-0.088-0.435-0.088
		s-0.223,1.054-0.522,2.563c-0.188,0.949-0.379,1.561-0.654,2.309c-0.439,1.192-0.917,1.787-1.513,2.191
		c-1.047,0.713-2.455,0.957-3.608,0.957c-0.829,0-1.526-0.126-1.864-0.294c-0.809-0.404-1.815-1.137-1.862-2.494
		c-0.039-1.123,0.975-2.332,2.425-2.572c0.837-0.138,1.603,0.053,2.521-0.283c0.5-0.183,0.867-0.484,1.302-1.021
		c0.339-0.418,0.895-1.888,0.895-1.888s-0.297-0.204-0.411-0.28c-0.272-0.18-0.624-0.815-0.624-0.815s0.337,0.26,0.599,0.312
		c0.05,0.01,0.098,0.015,0.142,0.015c0.122,0,0.225-0.035,0.316-0.088c0.294-0.17,0.415-0.482,0.624-1.062
		c0.156-0.432,0.37-0.927,1.037-0.927c0.057,0,0.118,0.004,0.182,0.011l0.247-0.705C35.626,25.931,35.739,25.856,35.86,25.856
		 M37.671,29.722L37.671,29.722 M35.86,25.387L35.86,25.387c-0.324,0-0.613,0.206-0.719,0.512l-0.135,0.385
		c-0.913,0.079-1.202,0.878-1.329,1.23c-0.187,0.516-0.276,0.734-0.418,0.816c-0.036,0.021-0.059,0.025-0.082,0.025
		c-0.015,0-0.031-0.002-0.049-0.005c-0.09-0.018-0.285-0.133-0.405-0.225c-0.084-0.064-0.186-0.097-0.286-0.097
		c-0.109,0-0.218,0.038-0.306,0.113c-0.168,0.145-0.212,0.388-0.104,0.582c0.096,0.172,0.434,0.753,0.774,0.979
		c0.025,0.017,0.06,0.04,0.098,0.066c-0.223,0.552-0.521,1.213-0.686,1.416c-0.397,0.491-0.695,0.728-1.099,0.876
		c-0.49,0.18-0.941,0.186-1.419,0.193c-0.324,0.005-0.66,0.01-1.017,0.069c-1.602,0.265-2.866,1.633-2.817,3.05
		c0.042,1.24,0.756,2.215,2.121,2.897c0.433,0.216,1.208,0.344,2.074,0.344c0.876,0,2.545-0.135,3.872-1.038
		c0.747-0.508,1.252-1.231,1.689-2.418c0.276-0.751,0.476-1.381,0.674-2.379c0.18-0.905,0.333-1.652,0.426-2.1
		c0.024,0.002,0.049,0.003,0.071,0.003c0.459,0,0.975-0.414,1.186-0.603c0.102-0.086,0.166-0.214,0.166-0.357
		c0-0.255-0.204-0.463-0.458-0.468c-0.004,0-0.008,0-0.012,0c-0.01,0-0.019,0-0.028,0.001c-0.018,0.001-0.036,0.003-0.053,0.006
		c-0.021,0.003-0.127,0.018-0.25,0.018c-0.092,0-0.154-0.008-0.193-0.017c-0.051-0.042-0.145-0.141-0.227-0.244
		c-0.023-0.104-0.017-0.371-0.013-0.518c0.003-0.095,0.005-0.185,0.004-0.261c-0.011-0.711-0.227-1.157-0.473-1.434L36.58,26.4
		c0.066-0.192,0.055-0.398-0.032-0.581c-0.089-0.184-0.243-0.322-0.436-0.39C36.031,25.401,35.946,25.387,35.86,25.387L35.86,25.387
		z"/>
</g>
</svg>
