<?xml version="1.0" encoding="utf-8"?>
<!-- Generator: Adobe Illustrator 16.0.0, SVG Export Plug-In . SVG Version: 6.00 Build 0)  -->
<!DOCTYPE svg PUBLIC "-//W3C//DTD SVG 1.1//EN" "http://www.w3.org/Graphics/SVG/1.1/DTD/svg11.dtd">
<svg version="1.1" id="Icon" xmlns="http://www.w3.org/2000/svg" xmlns:xlink="http://www.w3.org/1999/xlink" x="0px" y="0px"
	 width="15px" height="15px" viewBox="24.5 24.5 15 15" enable-background="new 24.5 24.5 15 15" xml:space="preserve">
<rect x="24.5" y="24.5" fill="none" width="15" height="15"/>
<g>
	<path fill="#333333" d="M35.421,34.719c0-1.455-1.092-3.186-1.762-4.726c-0.978-2.242-1.419-4.08-1.653-4.08
		c-0.233,0-0.686,1.839-1.664,4.081c-0.67,1.54-1.764,3.269-1.764,4.724c0,3.574,3.43,3.365,3.43,3.365S35.421,38.293,35.421,34.719
		z"/>
	<path fill="#FFFFFF" d="M32.006,25.914c0.233,0,0.675,1.838,1.653,4.08c0.67,1.54,1.762,3.271,1.762,4.726
		c0,3.2-2.736,3.368-3.309,3.368c-0.066,0-0.104-0.003-0.104-0.003s-0.038,0.003-0.105,0.003c-0.575,0-3.325-0.168-3.325-3.368
		c0-1.455,1.094-3.185,1.764-4.724C31.321,27.752,31.773,25.914,32.006,25.914 M32.006,25.445c-0.455,0-0.581,0.353-1.049,1.665
		c-0.251,0.704-0.595,1.667-1.044,2.697c-0.167,0.384-0.36,0.777-0.563,1.192c-0.609,1.243-1.24,2.528-1.24,3.719
		c0,2.832,2.043,3.837,3.793,3.837c0.047,0,0.083-0.001,0.105-0.002c0.022,0.001,0.058,0.002,0.104,0.002
		c1.742,0,3.777-1.005,3.777-3.837c0-1.191-0.63-2.479-1.238-3.723c-0.203-0.415-0.396-0.807-0.562-1.19
		c-0.453-1.041-0.796-2.009-1.046-2.717C32.597,25.826,32.461,25.445,32.006,25.445L32.006,25.445z"/>
</g>
</svg>
