<?xml version="1.0" encoding="utf-8"?>
<!-- Generator: Adobe Illustrator 16.0.0, SVG Export Plug-In . SVG Version: 6.00 Build 0)  -->
<!DOCTYPE svg PUBLIC "-//W3C//DTD SVG 1.1//EN" "http://www.w3.org/Graphics/SVG/1.1/DTD/svg11.dtd">
<svg version="1.1" id="Icon" xmlns="http://www.w3.org/2000/svg" xmlns:xlink="http://www.w3.org/1999/xlink" x="0px" y="0px"
	 width="15px" height="15px" viewBox="24.5 24.5 15 15" enable-background="new 24.5 24.5 15 15" xml:space="preserve">
<rect x="24.5" y="24.5" fill="none" width="15" height="15"/>
<g>
	<path fill="#333333" d="M37.819,32.428h-0.65v-6.394h-1.467v6.394h-1.432l0.002-3.636c0,0-3.186,2.707-3.941,3.335l0.001-3.391
		l-4.153,3.971l0,5.26H37.82L37.819,32.428z"/>
	<path fill="#FFFFFF" d="M37.169,26.034v6.394h0.65l0.001,5.539H26.18l0-5.26l4.153-3.971l-0.001,3.391
		c0.755-0.628,3.941-3.335,3.941-3.335l-0.002,3.636h1.432v-6.394H37.169 M37.169,25.565h-1.467c-0.259,0-0.469,0.209-0.469,0.469
		v5.925h-0.494l0.002-3.167c0-0.183-0.106-0.349-0.272-0.425c-0.062-0.029-0.13-0.043-0.196-0.043c-0.109,0-0.217,0.038-0.304,0.111
		C33.944,28.456,32,30.107,30.8,31.12l0.001-2.384c0-0.188-0.112-0.357-0.285-0.431c-0.06-0.025-0.122-0.038-0.184-0.038
		c-0.119,0-0.235,0.045-0.324,0.13l-4.153,3.972c-0.092,0.088-0.145,0.21-0.145,0.338l0,5.26c0,0.259,0.21,0.469,0.469,0.469H37.82
		c0.124,0,0.244-0.05,0.332-0.138s0.137-0.207,0.137-0.331l-0.001-5.539c0-0.259-0.21-0.469-0.469-0.469h-0.182v-5.925
		C37.638,25.774,37.428,25.565,37.169,25.565L37.169,25.565z"/>
</g>
</svg>
