<?xml version="1.0" encoding="utf-8"?>
<!-- Generator: Adobe Illustrator 16.0.0, SVG Export Plug-In . SVG Version: 6.00 Build 0)  -->
<!DOCTYPE svg PUBLIC "-//W3C//DTD SVG 1.1//EN" "http://www.w3.org/Graphics/SVG/1.1/DTD/svg11.dtd">
<svg version="1.1" id="Icon" xmlns="http://www.w3.org/2000/svg" xmlns:xlink="http://www.w3.org/1999/xlink" x="0px" y="0px"
	 width="15px" height="15px" viewBox="24.5 24.5 15 15" enable-background="new 24.5 24.5 15 15" xml:space="preserve">
<rect x="24.5" y="24.5" fill="none" width="15" height="15"/>
<g>
	<path fill="#333333" d="M29.389,30.905c-1.908,0-3.453,1.548-3.453,3.456c0,1.907,1.545,3.453,3.453,3.453
		c1.907,0,3.458-1.546,3.458-3.453C32.847,32.453,31.296,30.905,29.389,30.905z M29.519,34.807c-0.192,0-0.349-0.156-0.349-0.35
		s0.157-0.35,0.349-0.35c0.194,0,0.35,0.156,0.35,0.35S29.713,34.807,29.519,34.807z M29.729,32.918c-0.193,0-0.35-0.156-0.35-0.35
		c0-0.194,0.157-0.352,0.35-0.352c0.193,0,0.35,0.158,0.35,0.352C30.079,32.762,29.922,32.918,29.729,32.918z M31.023,33.547
		c-0.193,0-0.35-0.156-0.35-0.35s0.156-0.35,0.35-0.35c0.193,0,0.35,0.156,0.35,0.35S31.216,33.547,31.023,33.547z"/>
	<path fill="#333333" d="M37.789,32.473c-0.21-0.98-0.877-1.502-1.013-1.738c-0.01-0.018-0.02-0.039-0.028-0.058H34.9
		c-0.009,0.02-0.019,0.041-0.028,0.058c-0.135,0.235-0.803,0.758-1.013,1.738c-0.2,0.938,0.239,5.291,1.955,5.291
		S37.99,33.41,37.789,32.473z"/>
	<path fill="#333333" d="M36.633,30.208c-0.006-0.121,0.007-0.248,0.048-0.371h-1.713c0.042,0.124,0.054,0.25,0.049,0.371H36.633z"
		/>
	<path fill="#333333" d="M36.907,29.368c0.121-0.272,0.205-0.586,0.205-1.086c0-0.706-0.667-2.045-1.298-2.045
		s-1.278,1.339-1.278,2.045c0,0.5,0.085,0.813,0.206,1.086H36.907z"/>
	<ellipse fill="#FFFFFF" cx="29.729" cy="32.568" rx="0.351" ry="0.351"/>
	<circle fill="#FFFFFF" cx="31.023" cy="33.197" r="0.35"/>
	<circle fill="#FFFFFF" cx="29.52" cy="34.457" r="0.35"/>
	<path fill="#FFFFFF" d="M38.478,32.326c-0.195-0.909-0.704-1.498-0.981-1.816l-0.121-0.149c-0.03-0.071-0.071-0.226-0.014-0.331
		c0.249-0.456,0.454-0.902,0.454-1.748c0-0.941-0.845-2.749-2.001-2.749c-1.164,0-1.981,1.783-1.981,2.749
		c0,0.847,0.206,1.293,0.456,1.749c0.056,0.104,0.016,0.259-0.016,0.33l-0.12,0.149c-0.278,0.318-0.786,0.907-0.981,1.816
		c-0.037,0.17-0.058,0.455-0.055,0.811c-0.517-1.566-1.991-2.7-3.729-2.7c-2.163,0-3.922,1.761-3.922,3.925
		c0,2.162,1.759,3.922,3.922,3.922c1.985,0,3.628-1.481,3.887-3.395c0.173,1.023,0.504,2.106,1.071,2.809
		c0.515,0.636,1.082,0.77,1.468,0.77c0.388,0,0.958-0.135,1.475-0.774C38.4,36.318,38.667,33.215,38.478,32.326z M29.389,37.814
		c-1.907,0-3.453-1.546-3.453-3.453c0-1.908,1.546-3.456,3.453-3.456s3.458,1.548,3.458,3.456
		C32.847,36.269,31.296,37.814,29.389,37.814z M35.814,26.237c0.631,0,1.298,1.339,1.298,2.045c0,0.5-0.084,0.813-0.205,1.086
		h-2.165c-0.121-0.272-0.206-0.586-0.206-1.086C34.536,27.576,35.184,26.237,35.814,26.237z M36.681,29.837
		c-0.041,0.124-0.053,0.25-0.048,0.371h-1.616c0.005-0.121-0.007-0.248-0.049-0.371H36.681z M35.814,37.764
		c-1.716,0-2.155-4.354-1.955-5.291c0.21-0.98,0.878-1.502,1.013-1.738c0.01-0.018,0.02-0.039,0.028-0.058h1.848
		c0.01,0.02,0.019,0.041,0.028,0.058c0.136,0.235,0.803,0.758,1.013,1.738C37.99,33.41,37.53,37.764,35.814,37.764z"/>
</g>
</svg>
