<?xml version="1.0" encoding="utf-8"?>
<!-- Generator: Adobe Illustrator 20.1.0, SVG Export Plug-In . SVG Version: 6.00 Build 0)  -->
<svg version="1.1" id="レイヤー_1" xmlns="http://www.w3.org/2000/svg" xmlns:xlink="http://www.w3.org/1999/xlink" x="0px"
	 y="0px" viewBox="0 0 11 11" enable-background="new 0 0 11 11" xml:space="preserve">
<path d="M10.8,7.8l-0.2-0.5L6.9,8.5L5.3,6.2l1.3-1.3c0-0.1,0.1-0.1,0.1-0.2c0,0,0,0,0,0c0-0.1,0-0.2,0-0.2c0,0,0-0.1,0-0.1
	c0-0.2-0.1-0.3-0.2-0.5l0,0h2v0.4h0.3V3.8h0.8V3.6H8.8V3.1H8.5v0.4H6.2L5.5,2.8L4,1.3C3.8,1.4,3.6,1.5,3.5,1.6c0,0,0,0-0.1,0.1
	c0,0-0.2,0.3-0.3,0.4c0,0.1-0.4,1.4-0.4,1.4l-1.4,0c0,0-0.2,0-0.2,0v0c-0.1,0-0.1,0.1-0.1,0.1C1.1,3.8,1,3.9,1,3.9c0,0,0,0,0,0l0,0
	c0,0.2,0.2,0.4,0.4,0.4c0,0,1.5,0.1,1.5,0.1s0.4,0,0.4,0c0,0,0.1,0,0.1-0.1c0,0,0,0,0.1,0c0,0,0.1-0.1,0.1-0.1c0,0,0,0,0-0.1
	c0,0,0-0.1,0-0.1l0-0.2v0l1,0.8l0,0l-1,1.2c0,0,0,0.1-0.1,0.1c0,0.1-0.1,0.2-0.1,0.3c0,0,0,0,0,0.1c0,0.2,0.1,0.4,0.2,0.6l2.1,2
	l-4.3,1.5l0,0c0,0,0,0,0,0c0,0,0,0,0,0c0,0,0,0,0,0c-0.2,0-0.5-0.1-0.6-0.3l0,0l-0.5,0.2c0.1,0.2,0.2,0.3,0.4,0.4
	C1,10.9,1.3,11,1.5,11c0,0,0,0,0,0c0.1,0,0.2,0,0.3,0L10.8,7.8z"/>
<circle cx="2.9" cy="0.8" r="0.8"/>
</svg>
