<?xml version="1.0" encoding="utf-8"?>
<!-- Generator: Adobe Illustrator 16.0.0, SVG Export Plug-In . SVG Version: 6.00 Build 0)  -->
<!DOCTYPE svg PUBLIC "-//W3C//DTD SVG 1.1//EN" "http://www.w3.org/Graphics/SVG/1.1/DTD/svg11.dtd">
<svg version="1.1" id="Icon" xmlns="http://www.w3.org/2000/svg" xmlns:xlink="http://www.w3.org/1999/xlink" x="0px" y="0px"
	 width="15px" height="15px" viewBox="-7.5 -7.5 15 15" enable-background="new -7.5 -7.5 15 15" xml:space="preserve">
<rect x="-7.5" y="-7.5" fill="none" width="15" height="15"/>
<g>
	<rect x="-6.265" y="-6.264" fill="#017356" width="12.531" height="12.528"/>
	<path fill="#FFFFFF" d="M-3.31-4.53l0.016,9.052l-1.01,0.001L-4.32-4.529L-3.31-4.53z"/>
	<path fill="#FFFFFF" d="M3.471,3.86c-0.41,0.434-0.893,0.651-1.45,0.653c-0.555,0.001-1.04-0.215-1.451-0.648
		C-0.163,3.093-0.53,1.886-0.533,0.246c-0.003-1.918,0.39-3.297,1.179-4.134C1.055-4.322,1.523-4.54,2.051-4.541
		c0.557,0,0.996,0.168,1.318,0.509c0.616,0.648,0.911,1.53,0.883,2.645L3.286-1.386C3.255-2.376,3.079-3.042,2.755-3.381
		C2.58-3.567,2.344-3.659,2.052-3.659c-0.264,0-0.498,0.109-0.703,0.326C0.765-2.712,0.474-1.551,0.477,0.151
		C0.479,1.637,0.73,2.642,1.229,3.168c0.234,0.246,0.499,0.37,0.792,0.37c0.264,0,0.513-0.126,0.746-0.373
		c0.292-0.31,0.452-1.023,0.479-2.137l1.055-0.002C4.215,2.419,3.938,3.363,3.471,3.86z"/>
</g>
</svg>
