<?xml version="1.0" encoding="utf-8"?>
<!-- Generator: Adobe Illustrator 16.0.0, SVG Export Plug-In . SVG Version: 6.00 Build 0)  -->
<!DOCTYPE svg PUBLIC "-//W3C//DTD SVG 1.1//EN" "http://www.w3.org/Graphics/SVG/1.1/DTD/svg11.dtd">
<svg version="1.1" id="Icon" xmlns="http://www.w3.org/2000/svg" xmlns:xlink="http://www.w3.org/1999/xlink" x="0px" y="0px"
	 width="15px" height="15px" viewBox="24.5 24.5 15 15" enable-background="new 24.5 24.5 15 15" xml:space="preserve">
<rect x="24.5" y="24.5" fill="none" width="15" height="15"/>
<g>
	<path fill="#FFFFFF" d="M31.996,28.861c-1.621,0-2.94,1.319-2.94,2.941c0,1.285,0.832,2.378,1.986,2.776l0.403-1.198
		c-0.656-0.229-1.129-0.845-1.129-1.579c0-0.928,0.752-1.68,1.68-1.68c0.928,0,1.682,0.752,1.682,1.68
		c0,0.734-0.475,1.349-1.13,1.578l0.403,1.199c1.153-0.397,1.986-1.491,1.986-2.776C34.937,30.18,33.617,28.861,31.996,28.861z"/>
	<path fill="#333333" d="M35.619,31.802c0-1.998-1.626-3.625-3.624-3.625c-1.999,0-3.624,1.626-3.624,3.625
		c0,1.584,1.027,2.934,2.451,3.423l-1.07,3.181h4.485l-1.07-3.182C34.592,34.736,35.619,33.387,35.619,31.802z M32.95,34.578
		l-0.403-1.199c0.655-0.229,1.13-0.844,1.13-1.578c0-0.928-0.754-1.68-1.682-1.68c-0.928,0-1.68,0.752-1.68,1.68
		c0,0.734,0.473,1.349,1.129,1.579l-0.403,1.198c-1.154-0.397-1.986-1.491-1.986-2.776c0-1.622,1.319-2.941,2.94-2.941
		c1.622,0,2.941,1.319,2.941,2.941C34.937,33.087,34.104,34.181,32.95,34.578z"/>
	<circle fill="#333333" cx="26.854" cy="31.819" r="1.047"/>
	<circle fill="#333333" cx="37.146" cy="31.819" r="1.047"/>
	<ellipse fill="#333333" cx="28.333" cy="28.152" rx="1.047" ry="1.047"/>
	<ellipse fill="#333333" cx="35.666" cy="35.483" rx="1.047" ry="1.047"/>
	<ellipse fill="#333333" cx="28.334" cy="35.482" rx="1.047" ry="1.047"/>
	<ellipse fill="#333333" cx="35.667" cy="28.152" rx="1.047" ry="1.047"/>
	<circle fill="#333333" cx="32" cy="26.642" r="1.047"/>
	<path fill="#FFFFFF" d="M37.146,33.334c0.836,0,1.516-0.68,1.516-1.515c0-0.836-0.68-1.516-1.516-1.516
		c-0.473,0-0.895,0.217-1.173,0.556c-0.103-0.432-0.273-0.837-0.501-1.205c0.064,0.008,0.129,0.014,0.194,0.014
		c0.404,0,0.785-0.158,1.071-0.444s0.444-0.667,0.444-1.072c-0.001-0.405-0.158-0.786-0.445-1.072
		c-0.285-0.286-0.666-0.444-1.07-0.444c-0.405,0-0.786,0.158-1.072,0.444c-0.287,0.287-0.444,0.667-0.444,1.072
		c0,0.062,0.005,0.124,0.013,0.184c-0.371-0.232-0.78-0.407-1.218-0.511c0.348-0.278,0.571-0.705,0.571-1.184
		c0-0.836-0.68-1.516-1.517-1.516c-0.835,0-1.515,0.68-1.515,1.516c0,0.478,0.222,0.903,0.568,1.182
		c-0.436,0.103-0.845,0.276-1.214,0.507c0.007-0.059,0.011-0.119,0.011-0.179c0-0.405-0.158-0.786-0.444-1.072
		c-0.286-0.286-0.667-0.443-1.072-0.443c-0.405,0-0.786,0.158-1.072,0.444c-0.286,0.285-0.444,0.666-0.444,1.071
		c0,0.405,0.157,0.786,0.443,1.072c0.287,0.286,0.667,0.444,1.072,0.444c0.062,0,0.124-0.005,0.184-0.013
		c-0.226,0.365-0.396,0.767-0.498,1.195c-0.278-0.334-0.697-0.548-1.166-0.548c-0.836,0-1.516,0.68-1.516,1.516
		c0,0.835,0.68,1.515,1.516,1.515c0.471,0,0.893-0.216,1.171-0.554c0.106,0.429,0.278,0.834,0.511,1.202
		c-0.067-0.009-0.134-0.016-0.203-0.016c-0.405,0-0.785,0.157-1.071,0.443c-0.287,0.287-0.444,0.668-0.444,1.073
		c0,0.404,0.158,0.785,0.445,1.071c0.285,0.285,0.666,0.443,1.071,0.443c0.405,0,0.786-0.157,1.071-0.443
		c0.351-0.351,0.492-0.831,0.427-1.288c0.131,0.082,0.266,0.159,0.407,0.226l-0.93,2.765c-0.048,0.143-0.024,0.3,0.063,0.423
		c0.088,0.122,0.23,0.195,0.381,0.195h4.485c0.151,0,0.293-0.073,0.381-0.195c0.088-0.123,0.111-0.28,0.063-0.423l-0.931-2.765
		c0.145-0.069,0.283-0.147,0.417-0.231c-0.067,0.458,0.073,0.941,0.426,1.294c0.285,0.286,0.666,0.444,1.071,0.444
		s0.786-0.158,1.072-0.444c0.591-0.591,0.591-1.553,0-2.145c-0.286-0.286-0.667-0.443-1.071-0.443c-0.072,0-0.143,0.006-0.212,0.016
		c0.234-0.37,0.408-0.779,0.514-1.211C36.247,33.114,36.671,33.334,37.146,33.334z M37.146,30.771c0.578,0,1.047,0.469,1.047,1.047
		c0,0.578-0.469,1.046-1.047,1.046c-0.579,0-1.048-0.469-1.048-1.046C36.099,31.24,36.567,30.771,37.146,30.771z M34.926,27.412
		c0.205-0.204,0.473-0.307,0.741-0.307c0.268,0,0.535,0.103,0.739,0.307c0.409,0.409,0.409,1.073,0.001,1.481
		c-0.204,0.205-0.473,0.307-0.74,0.307c-0.269,0-0.536-0.103-0.741-0.307C34.517,28.484,34.517,27.821,34.926,27.412z M32,25.594
		c0.578,0,1.048,0.469,1.048,1.047s-0.47,1.047-1.048,1.047c-0.578,0-1.046-0.469-1.046-1.047S31.422,25.594,32,25.594z
		 M27.593,28.893c-0.408-0.408-0.408-1.072,0.001-1.48c0.204-0.205,0.472-0.307,0.74-0.307s0.536,0.102,0.741,0.307
		c0.409,0.408,0.409,1.072,0,1.48c-0.205,0.205-0.473,0.307-0.741,0.307S27.797,29.097,27.593,28.893z M26.854,32.865
		c-0.579,0-1.047-0.469-1.047-1.046c0-0.579,0.469-1.047,1.047-1.047s1.047,0.469,1.047,1.047
		C27.901,32.396,27.433,32.865,26.854,32.865z M29.074,36.224c-0.204,0.204-0.472,0.306-0.74,0.306s-0.536-0.102-0.74-0.307
		c-0.409-0.408-0.409-1.071,0-1.48c0.204-0.204,0.472-0.307,0.74-0.307s0.536,0.103,0.741,0.307
		C29.483,35.151,29.483,35.814,29.074,36.224z M36.406,34.742c0.409,0.409,0.409,1.072,0,1.481c-0.204,0.204-0.473,0.307-0.74,0.307
		s-0.536-0.103-0.74-0.307c-0.409-0.409-0.409-1.072,0-1.481c0.205-0.205,0.473-0.307,0.741-0.307
		C35.935,34.436,36.202,34.537,36.406,34.742z M33.168,35.225l1.07,3.182h-4.485l1.07-3.181c-1.424-0.489-2.451-1.839-2.451-3.423
		c0-1.998,1.625-3.625,3.624-3.625c1.998,0,3.624,1.626,3.624,3.625C35.619,33.387,34.592,34.736,33.168,35.225z"/>
</g>
</svg>
