<?xml version="1.0" encoding="utf-8"?>
<!-- Generator: Adobe Illustrator 16.0.0, SVG Export Plug-In . SVG Version: 6.00 Build 0)  -->
<!DOCTYPE svg PUBLIC "-//W3C//DTD SVG 1.1//EN" "http://www.w3.org/Graphics/SVG/1.1/DTD/svg11.dtd">
<svg version="1.1" id="Icon" xmlns="http://www.w3.org/2000/svg" xmlns:xlink="http://www.w3.org/1999/xlink" x="0px" y="0px"
	 width="15px" height="15px" viewBox="24.5 24.5 15 15" enable-background="new 24.5 24.5 15 15" xml:space="preserve">
<rect x="24.5" y="24.5" fill="none" width="15" height="15"/>
<g>
	<path fill="#333333" d="M35.68,31.626c-0.096-0.033-0.191-0.029-0.283-0.01c-0.132-0.334-0.354-0.56-0.533-0.74
		c-0.247-0.246-0.355-0.367-0.355-0.648c0-0.674,0.723-1.054,0.729-1.058c0.245-0.126,0.344-0.428,0.218-0.674
		c-0.124-0.246-0.423-0.345-0.67-0.222c-0.053,0.025-1.28,0.655-1.28,1.954c0,0.709,0.375,1.084,0.648,1.358
		c0.246,0.246,0.354,0.367,0.354,0.648c0,0.313-0.575,0.952-0.809,1.125c-0.192,0.145-0.269,0.413-0.163,0.63
		c0.105,0.216,0.336,0.334,0.568,0.273c0.232-0.063,1.061-0.812,1.321-1.588c0.947,0.346,1.557,0.83,1.557,1.25
		c0,0.746-1.896,1.787-4.982,1.787s-4.982-1.041-4.982-1.787c0-0.43,0.638-0.932,1.626-1.278c0.004-0.001,0.007-0.005,0.011-0.007
		c-0.189,0.291-0.487,0.605-0.64,0.72c-0.192,0.145-0.268,0.413-0.163,0.63c0.105,0.216,0.337,0.334,0.569,0.273
		c0.276-0.074,1.407-1.119,1.407-2.029c0-0.709-0.375-1.084-0.649-1.358c-0.246-0.246-0.354-0.367-0.354-0.648
		c0-0.674,0.721-1.054,0.729-1.058c0.246-0.126,0.344-0.428,0.219-0.674c-0.125-0.246-0.423-0.345-0.67-0.222
		c-0.052,0.025-1.281,0.655-1.281,1.954c0,0.709,0.375,1.084,0.648,1.358c0.009,0.009,0.014,0.015,0.022,0.023
		c-0.067-0.003-0.135,0.005-0.202,0.028c-1.51,0.53-2.342,1.343-2.342,2.288c0,1.629,2.603,2.858,6.054,2.858
		c3.45,0,6.054-1.229,6.054-2.858C38.054,32.973,37.209,32.156,35.68,31.626z"/>
	<path fill="#333333" d="M31.712,27.365c-0.118,0.118-1.151,1.184-1.151,2.361c0,0.709,0.375,1.084,0.649,1.358
		c0.246,0.246,0.354,0.367,0.354,0.649c0,0.647-0.619,1.412-0.857,1.652c-0.195,0.196-0.194,0.513,0.001,0.709
		c0.196,0.195,0.513,0.195,0.709-0.001c0.117-0.117,1.149-1.184,1.149-2.36c0-0.709-0.374-1.084-0.648-1.358
		c-0.246-0.246-0.354-0.367-0.354-0.649c0-0.647,0.619-1.412,0.856-1.652c0.195-0.196,0.195-0.514-0.001-0.709
		C32.224,27.168,31.907,27.168,31.712,27.365z"/>
	<path fill="#FFFFFF" d="M35.833,31.183c-0.048-0.016-0.097-0.029-0.147-0.038c-0.159-0.268-0.352-0.461-0.491-0.601
		c-0.218-0.218-0.218-0.229-0.218-0.317c0-0.374,0.474-0.64,0.479-0.643c0.471-0.242,0.659-0.827,0.418-1.302
		c-0.166-0.327-0.497-0.531-0.864-0.531c-0.149,0-0.299,0.035-0.432,0.102c-0.012,0.005-0.068,0.035-0.152,0.086
		c-0.537-0.142-1.012-0.205-1.393-0.188c0.009-0.26-0.083-0.523-0.282-0.721c-0.183-0.183-0.426-0.283-0.685-0.283
		c-0.259,0-0.503,0.102-0.686,0.286c-0.157,0.156-0.771,0.809-1.09,1.673c-0.002-0.143-0.032-0.288-0.101-0.423
		c-0.167-0.328-0.498-0.531-0.865-0.531c-0.149,0-0.298,0.035-0.432,0.102c-0.062,0.031-1.541,0.782-1.541,2.374
		c0,0.492,0.146,0.861,0.326,1.144c-1.422,0.606-2.199,1.501-2.199,2.554c0,1.928,2.743,3.327,6.522,3.327s6.522-1.399,6.522-3.327
		C38.522,32.758,37.567,31.784,35.833,31.183z M31.712,27.365c0.195-0.196,0.512-0.196,0.708,0c0.196,0.195,0.196,0.513,0.001,0.709
		c-0.238,0.24-0.856,1.005-0.856,1.652c0,0.282,0.109,0.403,0.354,0.649c0.274,0.273,0.648,0.648,0.648,1.358
		c0,1.177-1.032,2.243-1.149,2.36c-0.196,0.196-0.513,0.196-0.709,0.001c-0.196-0.196-0.197-0.513-0.001-0.709
		c0.238-0.24,0.857-1.005,0.857-1.652c0-0.282-0.108-0.403-0.354-0.649c-0.274-0.274-0.649-0.648-0.649-1.358
		C30.561,28.548,31.594,27.482,31.712,27.365z M32,36.783c-3.451,0-6.053-1.229-6.053-2.858c0-0.945,0.832-1.758,2.342-2.288
		c0.058-0.021,0.117-0.029,0.175-0.029c0.009,0,0.019,0,0.027,0c-0.008-0.008-0.014-0.014-0.022-0.023
		c-0.274-0.274-0.648-0.649-0.648-1.358c0-1.299,1.229-1.928,1.281-1.954c0.072-0.036,0.148-0.053,0.223-0.053
		c0.183,0,0.358,0.1,0.447,0.274c0.125,0.247,0.027,0.548-0.219,0.674c-0.007,0.003-0.729,0.384-0.729,1.058
		c0,0.281,0.109,0.402,0.354,0.648c0.273,0.274,0.649,0.649,0.649,1.358c0,0.91-1.131,1.955-1.407,2.029
		c-0.042,0.011-0.083,0.016-0.123,0.016c-0.188,0-0.359-0.111-0.446-0.289c-0.104-0.217-0.029-0.485,0.163-0.63
		c0.153-0.114,0.451-0.429,0.64-0.72c-0.004,0.002-0.007,0.006-0.011,0.007c-0.988,0.347-1.626,0.849-1.626,1.278
		c0,0.746,1.896,1.787,4.982,1.787s4.982-1.041,4.982-1.787c0-0.42-0.609-0.904-1.557-1.25c-0.261,0.776-1.089,1.524-1.321,1.588
		c-0.041,0.011-0.083,0.016-0.123,0.016c-0.188,0-0.358-0.111-0.445-0.289c-0.105-0.217-0.029-0.485,0.163-0.63
		c0.233-0.174,0.809-0.812,0.809-1.125c0-0.282-0.108-0.403-0.354-0.648c-0.273-0.274-0.648-0.649-0.648-1.358
		c0-1.299,1.228-1.928,1.28-1.954c0.071-0.036,0.148-0.053,0.224-0.053c0.183,0,0.358,0.1,0.446,0.274
		c0.126,0.247,0.027,0.548-0.218,0.674c-0.007,0.003-0.729,0.384-0.729,1.058c0,0.281,0.108,0.402,0.355,0.648
		c0.18,0.181,0.401,0.406,0.533,0.74c0.043-0.009,0.088-0.015,0.132-0.015c0.05,0,0.101,0.007,0.151,0.024
		c1.529,0.53,2.374,1.347,2.374,2.299C38.054,35.554,35.45,36.783,32,36.783z"/>
</g>
</svg>
