<?xml version="1.0" encoding="utf-8"?>
<!-- Generator: Adobe Illustrator 20.1.0, SVG Export Plug-In . SVG Version: 6.00 Build 0)  -->
<svg version="1.1" id="レイヤー_1" xmlns="http://www.w3.org/2000/svg" xmlns:xlink="http://www.w3.org/1999/xlink" x="0px"
	 y="0px" viewBox="0 0 11 11" enable-background="new 0 0 11 11" xml:space="preserve">
<g>
	<path d="M10.6,5.5c0-0.6-0.3-1.1-0.7-1.4c0.3-0.3,0.5-0.7,0.5-1.2c0-0.8-0.6-1.5-1.4-1.6C8.7,0.6,8.1,0.2,7.4,0.2
		c-0.3,0-0.6,0.1-0.8,0.2C6.4,0.3,6.3,0.2,6.1,0.1C5.9,0.1,5.7,0,5.5,0C5.3,0,5.1,0,4.9,0.1C4.7,0.2,4.6,0.3,4.4,0.4
		C4.3,0.4,4.2,0.3,4,0.3c-0.1,0-0.3-0.1-0.4-0.1C2.9,0.2,2.3,0.7,2,1.3C1.2,1.4,0.6,2.1,0.6,2.9c0,0.5,0.2,0.9,0.5,1.2
		C0.7,4.4,0.4,4.9,0.4,5.5c0,0.8,0.5,1.4,1.3,1.6C1.6,7.3,1.5,7.5,1.5,7.7c0,0.9,0.7,1.6,1.6,1.6c0.2,0,0.5-0.1,0.7-0.2
		c0,0.1,0,0.1,0,0.2c0,0.9,0.7,1.6,1.6,1.6c0.5,0,0.9-0.2,1.2-0.5c0.3-0.3,0.5-0.7,0.5-1.2c0-0.1,0-0.1,0-0.2
		c0.1,0.1,0.2,0.1,0.3,0.1c0.1,0,0.2,0,0.4,0c0.9,0,1.6-0.7,1.6-1.6c0-0.2,0-0.4-0.1-0.6C10.1,6.9,10.6,6.3,10.6,5.5z M2.1,3.3
		C1.8,3,2.5,2.2,2.9,2c0.3-0.1,0.5,0.2,0.6,0.6c-0.1,0-0.2,0.1-0.3,0.1C3,3,2.9,3.3,2.8,3.7C2.6,3.6,2.3,3.4,2.1,3.3z M5.9,8.5H5.5
		c0,0,0,0,0,0H5.1C4.8,8.5,4.6,8.2,4.5,8c0.2,0,0.4-0.1,0.5-0.1c0.3,0,0.4-0.2,0.5-0.3C5.6,7.7,5.7,7.8,6,7.9c0.1,0,0.3,0.1,0.5,0.1
		C6.4,8.2,6.2,8.5,5.9,8.5z M7.8,5.6C7.6,6.1,7.5,6.3,7.4,6.5c0.1,0.1,0.1,0.1,0.1,0.2c0,0.6-0.1,0.9-0.3,1c-0.3,0.1-0.7,0-0.9,0
		C5.7,7.6,5.7,7.4,5.6,7.1V6.7l1-0.8c0.1-0.1,0-0.3-0.1-0.3h-2c-0.2,0-0.2,0.2-0.1,0.3l1,0.8v0.4c0,0.3-0.1,0.5-0.5,0.6
		c-0.3,0-0.7,0.1-0.9,0c-0.3-0.1-0.3-0.3-0.3-1c0-0.1,0-0.1,0.1-0.2C3.5,6.3,3.4,6.1,3.2,5.6C2.8,4.5,2.8,3.4,3.4,3
		c0.6-0.4,1.3-0.2,1.4-0.1l0.7,0.6l0.6-0.6C6.2,2.8,6.9,2.5,7.5,3C8.1,3.4,8.2,4.5,7.8,5.6z M8.9,3.3C8.7,3.4,8.4,3.6,8.2,3.7
		C8.1,3.3,8,3,7.7,2.8C7.6,2.7,7.5,2.7,7.4,2.6C7.6,2.2,7.8,1.9,8.1,2C8.5,2.2,9.2,3,8.9,3.3z"/>
	<path d="M6.9,4.2C6.6,4.1,6.4,4.4,6.2,5c0,0,0,0,0.1,0.1c0.1,0.1,0.2,0.2,0.4,0.2c0.4,0.1,0.6-0.3,0.5-0.4C7.2,4.5,7.1,4.2,6.9,4.2
		z"/>
	<path d="M4.1,4.2C3.9,4.2,3.8,4.5,3.8,4.9c0,0.1,0.2,0.5,0.5,0.4c0.1,0,0.3-0.1,0.4-0.2C4.7,5,4.8,5,4.8,5C4.6,4.4,4.4,4.1,4.1,4.2
		z"/>
</g>
</svg>
