<?xml version="1.0" encoding="utf-8"?>
<!-- Generator: Adobe Illustrator 16.0.0, SVG Export Plug-In . SVG Version: 6.00 Build 0)  -->
<!DOCTYPE svg PUBLIC "-//W3C//DTD SVG 1.1//EN" "http://www.w3.org/Graphics/SVG/1.1/DTD/svg11.dtd">
<svg version="1.1" id="Icon" xmlns="http://www.w3.org/2000/svg" xmlns:xlink="http://www.w3.org/1999/xlink" x="0px" y="0px"
	 width="15px" height="15px" viewBox="24.5 24.5 15 15" enable-background="new 24.5 24.5 15 15" xml:space="preserve">
<rect x="24.5" y="24.5" fill="none" width="15" height="15"/>
<g>
	<path fill="#333333" d="M30.225,28.571c-2.432,0-4.41,1.978-4.41,4.41c0,2.432,1.979,4.41,4.41,4.41s4.41-1.979,4.41-4.41
		C34.635,30.549,32.656,28.571,30.225,28.571z M33.059,31.854l-1.936,0.559c-0.129-0.204-0.326-0.358-0.558-0.437l-0.091-2.034
		C31.649,30.037,32.638,30.801,33.059,31.854z M30,29.94l-0.091,2.028c-0.198,0.062-0.37,0.179-0.5,0.335l-1.88-0.75
		C28.008,30.651,28.928,30.019,30,29.94z M27.34,31.993l1.825,0.924c-0.001,0.022-0.007,0.042-0.007,0.064
		c0,0.22,0.067,0.424,0.182,0.594l-1.217,1.613c-0.584-0.556-0.951-1.338-0.951-2.207C27.172,32.636,27.233,32.303,27.34,31.993z
		 M28.499,35.496l1.37-1.514c0.112,0.039,0.23,0.064,0.355,0.064c0.101,0,0.197-0.018,0.289-0.045l1.315,1.571
		c-0.467,0.289-1.015,0.46-1.604,0.46C29.584,36.033,28.99,35.834,28.499,35.496z M32.219,35.286l-1.152-1.658
		c0.124-0.161,0.201-0.357,0.216-0.572L33.2,32.31c0.049,0.216,0.077,0.441,0.077,0.671C33.277,33.901,32.865,34.727,32.219,35.286z
		"/>
	<path fill="#333333" d="M38.186,27.955c0-0.702-0.518-1.318-1.062-1.679l-0.012,1.704l-0.953,0.626l-0.938-0.647l0.011-1.688
		c-0.55,0.359-1.072,0.978-1.072,1.684c0,0.808,0.479,1.5,1.166,1.82l0.001,7.954h1.694l-0.001-7.953
		C37.707,29.456,38.186,28.763,38.186,27.955z M36.171,37.065c-0.359,0-0.65-0.291-0.65-0.65c0-0.36,0.291-0.652,0.65-0.652
		c0.36,0,0.652,0.292,0.652,0.652C36.823,36.774,36.531,37.065,36.171,37.065z"/>
	<path fill="#FFFFFF" d="M31.283,33.056c-0.015,0.215-0.092,0.411-0.216,0.572l1.152,1.658c0.646-0.56,1.058-1.385,1.058-2.305
		c0-0.23-0.028-0.455-0.077-0.671L31.283,33.056z"/>
	<path fill="#FFFFFF" d="M31.123,32.413l1.936-0.559c-0.421-1.052-1.41-1.816-2.585-1.912l0.091,2.034
		C30.797,32.055,30.994,32.209,31.123,32.413z"/>
	<path fill="#FFFFFF" d="M30.225,34.047c-0.125,0-0.244-0.025-0.355-0.064l-1.37,1.514c0.491,0.338,1.085,0.537,1.726,0.537
		c0.589,0,1.137-0.171,1.604-0.46l-1.315-1.571C30.421,34.029,30.326,34.047,30.225,34.047z"/>
	<path fill="#FFFFFF" d="M29.909,31.968L30,29.94c-1.072,0.079-1.992,0.711-2.472,1.614l1.88,0.75
		C29.539,32.147,29.71,32.03,29.909,31.968z"/>
	<path fill="#FFFFFF" d="M29.158,32.981c0-0.022,0.005-0.042,0.007-0.064l-1.825-0.924c-0.106,0.311-0.167,0.643-0.167,0.989
		c0,0.869,0.367,1.651,0.951,2.207l1.217-1.613C29.225,33.405,29.158,33.201,29.158,32.981z"/>
	<circle fill="#FFFFFF" cx="36.171" cy="36.414" r="0.651"/>
	<path fill="#FFFFFF" d="M38.654,27.955c0-0.769-0.476-1.542-1.272-2.07c-0.078-0.052-0.168-0.078-0.259-0.078
		c-0.075,0-0.151,0.018-0.22,0.055c-0.152,0.081-0.248,0.239-0.249,0.411l-0.01,1.453l-0.479,0.315l-0.475-0.327l0.009-1.44
		c0.002-0.172-0.092-0.332-0.244-0.415c-0.069-0.038-0.147-0.057-0.225-0.057c-0.089,0-0.178,0.025-0.256,0.076
		c-0.805,0.525-1.285,1.301-1.285,2.077c0,0.854,0.449,1.648,1.166,2.098v1.402c-0.643-1.944-2.474-3.353-4.631-3.353
		c-2.69,0-4.879,2.189-4.879,4.879c0,2.69,2.188,4.879,4.879,4.879c2.157,0,3.989-1.409,4.632-3.354v3.223
		c0,0.259,0.21,0.469,0.469,0.469h1.694c0.125,0,0.244-0.05,0.332-0.138s0.137-0.207,0.137-0.331l-0.001-7.676
		C38.205,29.604,38.654,28.81,38.654,27.955z M30.225,37.392c-2.432,0-4.41-1.979-4.41-4.41c0-2.432,1.979-4.41,4.41-4.41
		s4.41,1.978,4.41,4.41C34.635,35.413,32.656,37.392,30.225,37.392z M37.019,29.776l0.001,7.953h-1.694l-0.001-7.954
		c-0.687-0.32-1.166-1.012-1.166-1.82c0-0.707,0.522-1.325,1.072-1.684l-0.011,1.688l0.938,0.647l0.953-0.626l0.012-1.704
		c0.545,0.36,1.062,0.977,1.062,1.679C38.186,28.763,37.707,29.456,37.019,29.776z"/>
</g>
</svg>
