<?xml version="1.0" encoding="utf-8"?>
<!-- Generator: Adobe Illustrator 16.0.0, SVG Export Plug-In . SVG Version: 6.00 Build 0)  -->
<!DOCTYPE svg PUBLIC "-//W3C//DTD SVG 1.1//EN" "http://www.w3.org/Graphics/SVG/1.1/DTD/svg11.dtd">
<svg version="1.1" id="Icon" xmlns="http://www.w3.org/2000/svg" xmlns:xlink="http://www.w3.org/1999/xlink" x="0px" y="0px"
	 width="15px" height="15px" viewBox="-7.5 -7.5 15 15" enable-background="new -7.5 -7.5 15 15" xml:space="preserve">
<rect x="-7.5" y="-7.5" fill="none" width="15" height="15"/>
<g>
	<rect x="-6.265" y="-6.264" fill="#017356" width="12.531" height="12.528"/>
	<path fill="#FFFFFF" d="M-1.453,0.259C-0.852,0.66-0.551,1.248-0.55,2.022c0.001,0.775-0.193,1.396-0.585,1.862
		C-1.5,4.319-2.008,4.536-2.66,4.537c-0.624,0.001-1.108-0.197-1.447-0.6c-0.417-0.495-0.627-1.084-0.628-1.765l-0.001-0.466h0.9
		l0.001,0.417c0,0.496,0.105,0.867,0.314,1.116c0.208,0.248,0.47,0.371,0.783,0.371c0.417,0,0.729-0.126,0.937-0.375
		c0.235-0.279,0.351-0.637,0.351-1.07c0-0.464-0.184-0.836-0.548-1.114C-2.652,0.555-3.266,0.032-3.84-0.525
		c-0.417-0.402-0.64-0.944-0.667-1.626s0.168-1.256,0.584-1.721c0.391-0.435,0.821-0.653,1.29-0.654
		c0.574,0,1.018,0.184,1.331,0.555c0.392,0.465,0.575,1.116,0.551,1.952l-0.9,0.002c0.051-0.527-0.053-0.945-0.314-1.255
		c-0.183-0.216-0.405-0.324-0.666-0.323c-0.261,0-0.483,0.109-0.665,0.326c-0.234,0.28-0.351,0.606-0.351,0.978
		c0,0.403,0.184,0.79,0.549,1.161C-2.549-0.575-2.001-0.11-1.453,0.259z"/>
	<path fill="#FFFFFF" d="M0.982,4.53l-0.94,0.003l1.943-9.069l0.782-0.001l1.97,9.06L3.797,4.524L3.247,1.875L1.525,1.878
		L0.982,4.53z M2.419-2.073H2.34L1.719,0.996l1.33-0.003L2.419-2.073z"/>
</g>
</svg>
