<?xml version="1.0" encoding="utf-8"?>
<!-- Generator: Adobe Illustrator 23.1.1, SVG Export Plug-In . SVG Version: 6.00 Build 0)  -->
<svg version="1.1" id="レイヤー_1" xmlns="http://www.w3.org/2000/svg" xmlns:xlink="http://www.w3.org/1999/xlink" x="0px"
	 y="0px" viewBox="0 0 16 12" enable-background="new 0 0 16 12" xml:space="preserve">
<g>
	<g>
		<path fill="#00864A" d="M14.7,12.001H1.3c-0.718,0-1.3-0.582-1.3-1.3v-9.4c0-0.718,0.582-1.3,1.3-1.3h13.4
			c0.718,0,1.3,0.582,1.3,1.3v9.4C16,11.419,15.418,12.001,14.7,12.001z"/>
	</g>
	<g enable-background="new    ">
		<path fill="#FFFFFF" d="M2.872,9.954V2.062h1.87v7.891H2.872z"/>
		<path fill="#FFFFFF" d="M12.442,7.051l1.811,0.487c-0.275,0.863-0.741,1.499-1.388,1.917c-0.646,0.418-1.467,0.625-2.457,0.625
			c-1.229,0-2.24-0.36-3.029-1.075S6.192,7.311,6.192,6.072c0-1.313,0.397-2.33,1.192-3.061c0.794-0.726,1.843-1.091,3.135-1.091
			c1.133,0,2.05,0.286,2.759,0.858c0.418,0.339,0.736,0.821,0.948,1.451l-1.848,0.376c-0.111-0.408-0.339-0.731-0.683-0.969
			c-0.35-0.238-0.768-0.355-1.266-0.355c-0.689,0-1.245,0.212-1.668,0.63C8.332,4.329,8.12,5.012,8.12,5.95
			c0,0.996,0.212,1.705,0.63,2.129c0.418,0.424,0.969,0.636,1.642,0.636c0.498,0,0.922-0.132,1.282-0.403
			C12.029,8.052,12.288,7.629,12.442,7.051z"/>
	</g>
</g>
</svg>
