<?xml version="1.0" encoding="utf-8"?>
<!-- Generator: Adobe Illustrator 16.0.0, SVG Export Plug-In . SVG Version: 6.00 Build 0)  -->
<!DOCTYPE svg PUBLIC "-//W3C//DTD SVG 1.1//EN" "http://www.w3.org/Graphics/SVG/1.1/DTD/svg11.dtd">
<svg version="1.1" id="Icon" xmlns="http://www.w3.org/2000/svg" xmlns:xlink="http://www.w3.org/1999/xlink" x="0px" y="0px"
	 width="15px" height="15px" viewBox="24.5 24.5 15 15" enable-background="new 24.5 24.5 15 15" xml:space="preserve">
<rect x="24.5" y="24.5" fill="none" width="15" height="15"/>
<g>
	<path fill="#333333" d="M35.317,27.145h-0.925c-0.181,0-0.327,0.146-0.327,0.327v0.583h-0.953c-0.066-0.705-0.116-1.238-0.12-1.284
		c-0.014-0.144-0.092-0.192-0.201-0.192s-1.5,0-1.588,0c-0.123,0-0.194,0.068-0.194,0.206c0,0.043-0.048,0.571-0.113,1.271h-0.962
		v-0.583c0-0.181-0.147-0.327-0.326-0.327h-0.925c-0.18,0-0.327,0.146-0.327,0.327v1.739c0,0.181,0.146,0.327,0.327,0.327h0.925
		c0.179,0,0.326-0.146,0.326-0.327v-0.799h0.928c-0.067,0.721-0.147,1.553-0.211,2.222h-0.692c-0.242,0-0.438,0.197-0.438,0.438
		v2.331c0,0.242,0.196,0.438,0.438,0.438h0.573c0,1.143,0,3.301,0,3.382c0,0.109,0.036,0.201,0.186,0.201c0.126,0,1.97,0,2.566,0
		c0.198,0,0.186-0.096,0.186-0.223c0-0.092,0-2.227,0-3.36h0.574c0.241,0,0.438-0.195,0.438-0.438v-2.331
		c0-0.242-0.196-0.438-0.438-0.438h-0.689c-0.063-0.668-0.141-1.5-0.208-2.222h0.92v0.799c0,0.181,0.146,0.327,0.327,0.327h0.925
		c0.18,0,0.327-0.146,0.327-0.327v-1.739C35.645,27.291,35.497,27.145,35.317,27.145z"/>
	<path fill="#333333" d="M29.715,36.984c0,0.242-0.196,0.438-0.438,0.438h-1.24c-0.242,0-0.438-0.196-0.438-0.438v-2.331
		c0-0.242,0.196-0.438,0.438-0.438h1.24c0.242,0,0.438,0.196,0.438,0.438V36.984z"/>
	<path fill="#333333" d="M36.401,36.984c0,0.242-0.196,0.438-0.438,0.438h-1.241c-0.241,0-0.438-0.196-0.438-0.438v-2.331
		c0-0.242,0.196-0.438,0.438-0.438h1.241c0.241,0,0.438,0.196,0.438,0.438V36.984z"/>
	<path fill="#FFFFFF" d="M32.791,26.578c0.109,0,0.188,0.048,0.201,0.192c0.004,0.046,0.054,0.58,0.12,1.284h0.953v-0.583
		c0-0.181,0.146-0.327,0.327-0.327h0.925c0.18,0,0.327,0.146,0.327,0.327v1.739c0,0.181-0.147,0.327-0.327,0.327h-0.925
		c-0.181,0-0.327-0.146-0.327-0.327v-0.799h-0.92c0.067,0.722,0.145,1.554,0.208,2.222h0.689c0.241,0,0.438,0.197,0.438,0.438v2.331
		c0,0.242-0.196,0.438-0.438,0.438h-0.574c0,1.134,0,3.269,0,3.36c0,0.127,0.013,0.223-0.186,0.223c-0.596,0-2.439,0-2.566,0
		c-0.15,0-0.186-0.092-0.186-0.201c0-0.081,0-2.239,0-3.382h-0.573c-0.242,0-0.438-0.195-0.438-0.438v-2.331
		c0-0.242,0.196-0.438,0.438-0.438h0.692c0.064-0.668,0.144-1.501,0.211-2.222h-0.928v0.799c0,0.181-0.147,0.327-0.326,0.327h-0.925
		c-0.18,0-0.327-0.146-0.327-0.327v-1.739c0-0.181,0.146-0.327,0.327-0.327h0.925c0.179,0,0.326,0.146,0.326,0.327v0.583h0.962
		c0.065-0.699,0.113-1.228,0.113-1.271c0-0.138,0.071-0.206,0.194-0.206C31.292,26.578,32.682,26.578,32.791,26.578 M32.791,26.109
		h-1.588c-0.381,0-0.658,0.278-0.663,0.664c-0.002,0.034-0.014,0.183-0.072,0.812h-0.066v-0.114c0-0.439-0.356-0.795-0.795-0.795
		h-0.925c-0.438,0-0.795,0.356-0.795,0.795v1.739c0,0.438,0.357,0.795,0.795,0.795h0.925c0.279,0,0.525-0.145,0.667-0.363
		c-0.017,0.178-0.034,0.353-0.05,0.522h-0.267c-0.5,0-0.907,0.407-0.907,0.907v2.331c0,0.5,0.407,0.906,0.907,0.906h0.104v2.913
		c0,0.395,0.27,0.67,0.655,0.67h2.566c0.202,0,0.365-0.061,0.483-0.18c0.173-0.175,0.171-0.389,0.171-0.492V37.2v-2.892h0.105
		c0.499,0,0.906-0.406,0.906-0.906v-2.331c0-0.5-0.407-0.907-0.906-0.907H33.78c-0.016-0.166-0.032-0.336-0.048-0.51
		c0.143,0.212,0.386,0.352,0.66,0.352h0.925c0.438,0,0.796-0.357,0.796-0.795v-1.739c0-0.439-0.357-0.795-0.796-0.795h-0.925
		c-0.439,0-0.796,0.356-0.796,0.795v0.114h-0.058c-0.045-0.484-0.076-0.822-0.08-0.857C33.424,26.356,33.155,26.109,32.791,26.109
		L32.791,26.109z"/>
	<path fill="#FFFFFF" d="M29.277,34.215c0.242,0,0.438,0.196,0.438,0.438v2.331c0,0.242-0.196,0.438-0.438,0.438h-1.24
		c-0.242,0-0.438-0.196-0.438-0.438v-2.331c0-0.242,0.196-0.438,0.438-0.438H29.277 M29.277,33.746h-1.24
		c-0.5,0-0.907,0.407-0.907,0.907v2.331c0,0.5,0.407,0.907,0.907,0.907h1.24c0.5,0,0.907-0.407,0.907-0.907v-2.331
		C30.184,34.153,29.777,33.746,29.277,33.746L29.277,33.746z"/>
	<path fill="#FFFFFF" d="M35.964,34.215c0.241,0,0.438,0.196,0.438,0.438v2.331c0,0.242-0.196,0.438-0.438,0.438h-1.241
		c-0.241,0-0.438-0.196-0.438-0.438v-2.331c0-0.242,0.196-0.438,0.438-0.438H35.964 M35.964,33.746h-1.241
		c-0.499,0-0.906,0.407-0.906,0.907v2.331c0,0.5,0.407,0.907,0.906,0.907h1.241c0.499,0,0.906-0.407,0.906-0.907v-2.331
		C36.87,34.153,36.463,33.746,35.964,33.746L35.964,33.746z"/>
</g>
</svg>
