<?xml version="1.0" encoding="utf-8"?>
<!-- Generator: Adobe Illustrator 21.1.0, SVG Export Plug-In . SVG Version: 6.00 Build 0)  -->
<svg version="1.1" id="レイヤー_1" xmlns="http://www.w3.org/2000/svg" xmlns:xlink="http://www.w3.org/1999/xlink" x="0px"
	 y="0px" viewBox="0 0 11 11" enable-background="new 0 0 11 11" xml:space="preserve">
<g>
	<path d="M11,5.5c0-1.2-0.5-2.4-1.3-3.3c0,0-0.1-0.1-0.1-0.1C8.6,1,7.1,0.4,5.5,0.4c-1.7,0-3.2,0.7-4.2,1.9C0.5,3.1,0,4.3,0,5.5
		C0,5.7,0,5.9,0,6c0.3,2.6,2.6,4.6,5.5,4.6l0,0c0,0,0,0,0,0c1.1,0,2.1-0.3,2.9-0.8c0,0-1.2-1.8-1.6-2.3C6.4,6.9,5.9,6.3,5.7,6.1
		C5.3,5.8,3.6,5.8,1.5,5.8l0.4,1.1C3.1,6.9,4.7,7,5,7.1c0.2,0.2,1.1,1.3,1.8,2.4C6.4,9.7,5.9,9.7,5.4,9.7C3,9.7,0.9,7.9,0.9,5.5
		c0-1.5,0.9-2.9,2.2-3.6c0,0,0,0,0,0c0.7-0.4,1.4-0.6,2.2-0.6c0.6,0,1.2,0.1,1.8,0.3c0,0,0.1,0,0.1,0c1.5,0.7,2.6,2.1,2.6,3.8
		c0,0.1,0,0.2,0,0.3c0,0,0,0,0,0l0,0L7.5,4.4L6.3,5l3.4,2l0.8,0.5l0,0c0,0,0,0,0,0l0,0C10.8,6.9,11,6.2,11,5.5z"/>
	<polygon points="1.2,4.7 1.5,5.8 7.2,3.6 7.5,2.3 	"/>
</g>
</svg>
