<?xml version="1.0" encoding="utf-8"?>
<!-- Generator: Adobe Illustrator 20.1.0, SVG Export Plug-In . SVG Version: 6.00 Build 0)  -->
<svg version="1.1" id="レイヤー_1" xmlns="http://www.w3.org/2000/svg" xmlns:xlink="http://www.w3.org/1999/xlink" x="0px"
	 y="0px" viewBox="0 0 11 11" enable-background="new 0 0 11 11" xml:space="preserve">
<g>
	<circle cx="3.1" cy="4.9" r="1.5"/>
	<path d="M9.9,6.5C9.8,6.3,9.6,6.2,9.4,6C8.8,5.6,8.3,5.2,7.9,4.9C7.7,4.8,7.5,4.7,7.4,4.6l0.7-1.4l0.2-0.3l0.1-0.1
		c0-0.1,0.1-0.2,0.1-0.3c0-0.2-0.1-0.4-0.2-0.6C8,1.8,7.8,1.6,7.6,1.6c0,0,0,0,0,0c0,0-0.1,0-0.1,0l-0.3,0L3.1,1c0,0,0,0,0,0
		c0,0,0,0-0.1,0l0,0h0C2.7,1,2.5,1.3,2.5,1.6c0,0.3,0.2,0.5,0.4,0.6l0,0c0,0,0,0,0,0l3.5,0.7L4.2,6.8c0.1,0.1,0.3,0.3,0.4,0.4
		l0.2,0.3C5.4,7,6.1,6.6,6.9,6.6c0.4,0,0.9,0.1,1.2,0.3c0,0,0.1,0,0.1,0c0.3,0.2,0.6,0.4,0.9,0.7l0.1,0.1L9.4,8c0,0,0,0.1,0.1,0.1
		l0,0.1c0,0,0,0,0,0C9.5,8.3,9.7,8.4,10,8.4c0.1,0,0.3,0,0.4-0.1L11,7.8V7.3C11,7.3,10.5,6.9,9.9,6.5z"/>
	<path d="M4,8.3C4,8.3,4,8.3,4,8.3C4,8.2,4,8.2,4,8.3c-0.3-0.5-0.6-0.8-1-1C2.7,7.1,2.3,7,2,7C1.1,7,0.4,7.5,0,8.2
		c0.4-0.3,0.8-0.4,1.3-0.4c0.8,0,1.5,0.4,1.9,1c0,0,0,0.1,0,0.1c0,0,0,0,0,0c0.2,0.4,0.6,0.7,1,0.9c0.3,0.2,0.7,0.3,1.1,0.3
		c0.8,0,1.6-0.5,2-1.1C6.9,9.2,6.4,9.3,5.9,9.3C5.1,9.3,4.4,8.9,4,8.3z"/>
	<path d="M8.5,8.7C8.5,8.7,8.5,8.7,8.5,8.7C8.5,8.6,8.5,8.6,8.5,8.7C8.3,8.3,8.1,8.1,7.7,7.9C7.5,7.8,7.2,7.7,6.9,7.7
		c-0.7,0-1.2,0.3-1.5,0.9c0.3-0.2,0.6-0.3,1-0.3c0.6,0,1.2,0.3,1.5,0.8c0,0,0,0,0,0.1c0,0,0,0,0,0c0.2,0.3,0.4,0.6,0.7,0.7
		C8.9,10,9.2,10,9.5,10c0.7,0,1.2-0.3,1.5-0.9c-0.3,0.2-0.6,0.3-1,0.3C9.3,9.5,8.8,9.2,8.5,8.7z"/>
</g>
</svg>
