<?xml version="1.0" encoding="utf-8"?>
<!-- Generator: Adobe Illustrator 16.0.0, SVG Export Plug-In . SVG Version: 6.00 Build 0)  -->
<!DOCTYPE svg PUBLIC "-//W3C//DTD SVG 1.1//EN" "http://www.w3.org/Graphics/SVG/1.1/DTD/svg11.dtd">
<svg version="1.1" id="Icon" xmlns="http://www.w3.org/2000/svg" xmlns:xlink="http://www.w3.org/1999/xlink" x="0px" y="0px"
	 width="15px" height="15px" viewBox="24.5 24.5 15 15" enable-background="new 24.5 24.5 15 15" xml:space="preserve">
<rect x="24.5" y="24.5" fill="none" width="15" height="15"/>
<g>
	<path fill="#333333" d="M35.907,31.059c-0.44,0-0.85,0.121-1.213,0.316l-1.123-1.269l0.382-1.041
		c0.656,0.069,1.187,0.383,1.148-0.68c-0.041-1.173-0.607-0.666-1.357-0.666s-1.487,0.333-1.487,0.702
		c0,0.277,0.417,0.494,0.943,0.584l-0.325,0.889h-3.292l0.56-1.687c0.037-0.111,0.018-0.232-0.05-0.326
		c-0.067-0.095-0.177-0.151-0.293-0.151l-1.577-0.006c-0.527,0.051-1.368,0.338-1.412,1.103c-0.045,0.787,0.65,1.092,1.024,1.144
		c0.198,0.027,0.378-0.11,0.407-0.307c0.029-0.198-0.107-0.382-0.305-0.412c-0.07-0.011-0.42-0.081-0.402-0.383
		c0.017-0.287,0.575-0.405,0.723-0.421c0,0,0.582,0.003,1.037,0.006c-0.129,0.389-0.54,1.626-0.926,2.788
		c-0.093-0.01-0.183-0.028-0.278-0.028c-1.427,0-2.588,1.16-2.588,2.587c0,1.427,1.161,2.587,2.588,2.587
		c1.427,0,2.587-1.16,2.587-2.587c0-1.077-0.663-2.001-1.601-2.39l0.201-0.606l2.779,3.159c0.069,0.078,0.169,0.123,0.273,0.123
		h1.032c0.21,1.216,1.267,2.146,2.542,2.146c1.428,0,2.589-1.16,2.589-2.587C38.496,32.219,37.335,31.059,35.907,31.059z
		 M29.954,33.802c0,1.026-0.835,1.861-1.861,1.861c-1.026,0-1.862-0.835-1.862-1.861c0-1.027,0.835-1.862,1.862-1.862
		c0.015,0,0.03,0.004,0.044,0.005c-0.302,0.911-0.544,1.638-0.544,1.638c-0.013,0.038-0.019,0.077-0.019,0.115
		c0,0.152,0.096,0.294,0.249,0.345c0.19,0.063,0.396-0.04,0.459-0.23l0.567-1.708C29.498,32.395,29.954,33.045,29.954,33.802z
		 M35.484,33.36c-0.39,0-0.91,0-1.41,0c0.062-0.394,0.241-0.746,0.508-1.018C34.922,32.728,35.252,33.098,35.484,33.36z
		 M30.085,30.621c0.965,0,2.735,0,2.972,0c0.084,0.095,0.533,0.601,1.045,1.179c-0.416,0.406-0.685,0.953-0.753,1.561
		c-0.427,0-0.76,0-0.853,0C32.332,33.173,30.778,31.408,30.085,30.621z M35.907,35.508c-0.873,0-1.604-0.607-1.804-1.421h2.187
		c0.143,0,0.272-0.084,0.331-0.214c0.059-0.131,0.036-0.283-0.059-0.39l-1.376-1.553c0.222-0.093,0.466-0.146,0.721-0.146
		c1.027,0,1.862,0.834,1.862,1.861C37.77,34.673,36.935,35.508,35.907,35.508z"/>
	<path fill="#FFFFFF" d="M28.281,33.812c-0.063,0.19-0.269,0.294-0.459,0.23c-0.152-0.051-0.249-0.192-0.249-0.345
		c0-0.038,0.006-0.077,0.019-0.115c0,0,0.242-0.728,0.544-1.638c-0.015-0.001-0.03-0.005-0.045-0.005
		c-1.026,0-1.861,0.834-1.861,1.862c0,1.026,0.835,1.861,1.861,1.861c1.026,0,1.862-0.835,1.862-1.861
		c0-0.757-0.456-1.407-1.105-1.697L28.281,33.812z"/>
	<path fill="#FFFFFF" d="M35.907,31.785c-0.256,0-0.499,0.052-0.721,0.146l1.375,1.553c0.096,0.106,0.118,0.259,0.06,0.39
		c-0.059,0.13-0.188,0.214-0.331,0.214h-2.187c0.2,0.813,0.931,1.421,1.804,1.421c1.027,0,1.862-0.835,1.862-1.861
		C37.77,32.619,36.935,31.785,35.907,31.785z"/>
	<path fill="#FFFFFF" d="M34.582,32.342c-0.267,0.272-0.445,0.625-0.508,1.018c0.5,0,1.021,0,1.41,0
		C35.252,33.098,34.922,32.728,34.582,32.342z"/>
	<path fill="#FFFFFF" d="M33.057,30.621c-0.236,0-2.007,0-2.972,0c0.693,0.788,2.247,2.552,2.411,2.74c0.093,0,0.426,0,0.853,0
		c0.068-0.608,0.337-1.155,0.752-1.561C33.589,31.222,33.141,30.715,33.057,30.621z"/>
	<path fill="#FFFFFF" d="M35.907,30.59c-0.372,0-0.738,0.071-1.094,0.212l-0.706-0.798l0.153-0.417
		c0.137,0.023,0.268,0.043,0.401,0.043c0.262,0,0.476-0.083,0.634-0.247c0.265-0.275,0.286-0.687,0.274-1.015
		c-0.029-0.814-0.344-1.227-0.936-1.227c-0.148,0-0.292,0.026-0.444,0.054c-0.146,0.027-0.299,0.055-0.446,0.055
		c-0.94,0-1.956,0.447-1.956,1.17c0,0.39,0.29,0.709,0.796,0.903l-0.037,0.102h-2.315l0.355-1.071
		c0.084-0.253,0.041-0.533-0.116-0.749c-0.152-0.213-0.404-0.344-0.67-0.345l-1.577-0.006c0,0-0.001,0-0.002,0
		c-0.015,0-0.03,0-0.045,0.002c-0.874,0.083-1.78,0.593-1.835,1.542c-0.061,1.047,0.821,1.552,1.429,1.635
		c0.038,0.005,0.076,0.008,0.114,0.008c0.094,0,0.186-0.016,0.271-0.046l-0.116,0.349c-1.662,0.028-3.005,1.388-3.005,3.056
		c0,1.685,1.371,3.056,3.056,3.056s3.056-1.371,3.056-3.056c0-0.057-0.001-0.113-0.005-0.17l0.565,0.642
		c0.157,0.179,0.385,0.282,0.625,0.282h0.664c0.392,1.265,1.56,2.146,2.911,2.146c1.686,0,3.057-1.371,3.057-3.056
		C38.964,31.961,37.593,30.59,35.907,30.59z M35.907,36.233c-1.275,0-2.332-0.931-2.542-2.146h-1.033
		c-0.104,0-0.204-0.045-0.273-0.123l-2.78-3.159l-0.201,0.606c0.938,0.389,1.601,1.313,1.601,2.39c0,1.427-1.161,2.587-2.587,2.587
		s-2.587-1.16-2.587-2.587c0-1.427,1.161-2.587,2.587-2.587c0.095,0,0.186,0.018,0.278,0.028c0.386-1.162,0.797-2.399,0.926-2.788
		c-0.455-0.002-1.037-0.006-1.037-0.006c-0.148,0.016-0.706,0.134-0.723,0.421c-0.018,0.302,0.332,0.372,0.402,0.383
		c0.197,0.03,0.333,0.214,0.305,0.412c-0.029,0.197-0.21,0.334-0.407,0.307c-0.375-0.052-1.07-0.357-1.024-1.144
		c0.044-0.765,0.885-1.052,1.412-1.103l1.577,0.006c0.117,0,0.226,0.057,0.293,0.151c0.068,0.094,0.087,0.215,0.05,0.326
		l-0.56,1.687h3.292l0.325-0.889c-0.525-0.091-0.943-0.308-0.943-0.584c0-0.369,0.737-0.702,1.487-0.702s1.316-0.507,1.357,0.666
		c0.037,1.063-0.492,0.749-1.149,0.68l-0.381,1.041l1.123,1.269c0.363-0.195,0.772-0.316,1.213-0.316
		c1.428,0,2.588,1.16,2.588,2.587C38.495,35.073,37.335,36.233,35.907,36.233z"/>
</g>
</svg>
