<?xml version="1.0" encoding="utf-8"?>
<!-- Generator: Adobe Illustrator 16.0.0, SVG Export Plug-In . SVG Version: 6.00 Build 0)  -->
<!DOCTYPE svg PUBLIC "-//W3C//DTD SVG 1.1//EN" "http://www.w3.org/Graphics/SVG/1.1/DTD/svg11.dtd">
<svg version="1.1" id="Icon" xmlns="http://www.w3.org/2000/svg" xmlns:xlink="http://www.w3.org/1999/xlink" x="0px" y="0px"
	 width="15px" height="15px" viewBox="24.5 24.5 15 15" enable-background="new 24.5 24.5 15 15" xml:space="preserve">
<rect x="24.5" y="24.5" fill="none" width="15" height="15"/>
<g>
	<path fill="#333333" d="M36.713,26.754h-0.82c0,2.146-1.746,3.893-3.894,3.893c-2.146,0-3.892-1.747-3.892-3.893h-0.82
		c0,2.46,1.896,4.483,4.303,4.692v5.799h0.82v-5.799C34.817,31.237,36.713,29.214,36.713,26.754z"/>
	<path fill="#FFFFFF" d="M36.713,26.754L36.713,26.754 M36.713,26.754c0,2.46-1.896,4.482-4.303,4.692v5.799h-0.82v-5.799
		c-2.407-0.209-4.303-2.231-4.303-4.692h0.82c0,2.146,1.746,3.893,3.892,3.893c2.147,0,3.894-1.747,3.894-3.893H36.713
		 M36.714,26.286L36.714,26.286h-0.821c-0.259,0-0.469,0.21-0.469,0.469c0,1.888-1.536,3.424-3.425,3.424
		c-1.888,0-3.423-1.536-3.423-3.424c0-0.259-0.21-0.469-0.469-0.469h-0.82c-0.259,0-0.469,0.21-0.469,0.469
		c0,2.518,1.858,4.681,4.303,5.104v5.387c0,0.259,0.21,0.469,0.469,0.469h0.82c0.259,0,0.469-0.21,0.469-0.469v-5.388
		c2.437-0.421,4.291-2.571,4.303-5.078c0.001-0.008,0.001-0.016,0.001-0.025C37.183,26.496,36.973,26.286,36.714,26.286
		L36.714,26.286z"/>
</g>
</svg>
