<?xml version="1.0" encoding="utf-8"?>
<!-- Generator: Adobe Illustrator 16.0.0, SVG Export Plug-In . SVG Version: 6.00 Build 0)  -->
<!DOCTYPE svg PUBLIC "-//W3C//DTD SVG 1.1//EN" "http://www.w3.org/Graphics/SVG/1.1/DTD/svg11.dtd">
<svg version="1.1" id="Icon" xmlns="http://www.w3.org/2000/svg" xmlns:xlink="http://www.w3.org/1999/xlink" x="0px" y="0px"
	 width="15px" height="15px" viewBox="24.5 24.5 15 15" enable-background="new 24.5 24.5 15 15" xml:space="preserve">
<rect x="24.5" y="24.5" fill="none" width="15" height="15"/>
<g>
	<path fill="#333333" d="M32.003,38.108l-5.696-4.576v-7.641H37.7v7.641L32.003,38.108z M27.327,33.043l4.676,3.757l4.676-3.757
		v-6.131h-9.353V33.043z"/>
	<polygon fill="#FFFFFF" points="32.011,36.794 32.018,36.8 36.695,33.043 36.695,26.912 36.68,26.912 27.342,26.912 27.327,26.912 
		27.327,33.043 32.003,36.8 	"/>
	<polygon fill="#333333" points="35.905,31.023 32.514,31.023 32.514,27.63 31.494,27.63 31.494,31.023 28.101,31.023 
		28.101,32.043 31.494,32.043 31.494,35.436 32.514,35.436 32.514,32.043 35.905,32.043 	"/>
	<path fill="#FFFFFF" d="M37.7,25.423H26.307c-0.259,0-0.469,0.21-0.469,0.469v7.641c0,0.143,0.064,0.276,0.175,0.366l5.696,4.575
		c0.085,0.069,0.189,0.104,0.293,0.104s0.208-0.034,0.293-0.104l5.697-4.575c0.11-0.09,0.175-0.224,0.175-0.366v-7.641
		C38.169,25.633,37.959,25.423,37.7,25.423z M37.7,33.532l-5.697,4.576l-5.696-4.576v-7.641H37.7V33.532z"/>
</g>
</svg>
