<?xml version="1.0" encoding="utf-8"?>
<!-- Generator: Adobe Illustrator 16.0.0, SVG Export Plug-In . SVG Version: 6.00 Build 0)  -->
<!DOCTYPE svg PUBLIC "-//W3C//DTD SVG 1.1//EN" "http://www.w3.org/Graphics/SVG/1.1/DTD/svg11.dtd">
<svg version="1.1" id="Icon" xmlns="http://www.w3.org/2000/svg" xmlns:xlink="http://www.w3.org/1999/xlink" x="0px" y="0px"
	 width="15px" height="15px" viewBox="24.5 24.5 15 15" enable-background="new 24.5 24.5 15 15" xml:space="preserve">
<rect x="24.5" y="24.5" fill="none" width="15" height="15"/>
<g>
	<path fill="#333333" d="M27.199,34.865c1.378-0.33,8.105-0.332,9.567-0.008c0.186,0.041,0.207,0.211,0.207,0.262
		c0,0.915-2.226,1.656-4.974,1.656c-2.747,0-4.973-0.741-4.973-1.656C27.027,35.071,27.035,34.904,27.199,34.865z"/>
	<path fill="#333333" d="M28.959,34.155c-0.553,0-0.944-0.292-1.288-0.549c-0.271-0.203-0.506-0.378-0.771-0.378
		c-0.227,0-0.41-0.184-0.41-0.41s0.183-0.41,0.41-0.41c0.537,0,0.922,0.287,1.262,0.54c0.278,0.207,0.518,0.387,0.798,0.387
		c0.258,0,0.456-0.143,0.756-0.374c0.319-0.246,0.717-0.553,1.283-0.553c0.552,0,0.932,0.262,1.265,0.494
		c0.281,0.193,0.503,0.347,0.799,0.347c0.306,0,0.556-0.167,0.846-0.36c0.337-0.226,0.718-0.48,1.234-0.48
		c0.532,0,0.892,0.292,1.18,0.525c0.29,0.235,0.482,0.38,0.778,0.38c0.228,0,0.41,0.184,0.41,0.41s-0.183,0.41-0.41,0.41
		c-0.602,0-0.986-0.312-1.296-0.562c-0.269-0.22-0.432-0.343-0.662-0.343c-0.268,0-0.504,0.158-0.779,0.342
		c-0.35,0.234-0.746,0.499-1.301,0.499c-0.552,0-0.931-0.262-1.265-0.493c-0.281-0.194-0.502-0.348-0.799-0.348
		c-0.273,0-0.475,0.145-0.782,0.382C29.885,33.865,29.51,34.155,28.959,34.155z"/>
	<path fill="#333333" d="M36.889,31.148c0,0.084-0.07,0.265-0.198,0.335c-0.301,0.164-0.922,0.291-1.711,0.378
		c-2.498,0.278-6.675,0.165-7.657-0.364c-0.136-0.074-0.21-0.26-0.21-0.349c0-1.815,2.188-3.924,4.887-3.924
		C34.7,27.224,36.889,29.333,36.889,31.148z"/>
	<ellipse fill="#FFFFFF" cx="30.966" cy="28.549" rx="0.246" ry="0.23"/>
	<ellipse fill="#FFFFFF" cx="32" cy="28.549" rx="0.247" ry="0.23"/>
	<ellipse fill="#FFFFFF" cx="33.034" cy="28.549" rx="0.246" ry="0.23"/>
	<ellipse fill="#FFFFFF" cx="31.482" cy="29.514" rx="0.247" ry="0.23"/>
	<ellipse fill="#FFFFFF" cx="30.45" cy="29.514" rx="0.246" ry="0.23"/>
	<ellipse fill="#FFFFFF" cx="32.518" cy="29.514" rx="0.246" ry="0.23"/>
	<ellipse fill="#FFFFFF" cx="33.551" cy="29.514" rx="0.246" ry="0.23"/>
	<path fill="#FFFFFF" d="M32,34.616c2.021,0,4.041,0.08,4.766,0.241c0.186,0.041,0.207,0.211,0.207,0.262
		c0,0.915-2.226,1.656-4.974,1.656c-2.747,0-4.973-0.741-4.973-1.656c0-0.048,0.008-0.215,0.172-0.254
		C27.894,34.699,29.947,34.616,32,34.616 M32.001,34.147v0.469V34.147c-1.845,0-4.104,0.068-4.911,0.262
		c-0.323,0.078-0.532,0.356-0.532,0.71c0,1.396,2.738,2.125,5.442,2.125s5.442-0.729,5.442-2.125c0-0.284-0.18-0.631-0.573-0.72
		C36.028,34.214,33.804,34.147,32.001,34.147L32.001,34.147z"/>
	<path fill="#FFFFFF" d="M35.143,32.408c0.532,0,0.892,0.292,1.18,0.525c0.29,0.235,0.482,0.38,0.778,0.38
		c0.228,0,0.41,0.184,0.41,0.41s-0.183,0.41-0.41,0.41c-0.602,0-0.986-0.312-1.296-0.562c-0.269-0.22-0.432-0.343-0.662-0.343
		c-0.268,0-0.504,0.158-0.779,0.342c-0.35,0.234-0.746,0.499-1.301,0.499c-0.552,0-0.931-0.262-1.265-0.493
		c-0.281-0.194-0.502-0.348-0.799-0.348c-0.273,0-0.475,0.145-0.782,0.382c-0.332,0.255-0.707,0.545-1.257,0.545
		c-0.553,0-0.944-0.292-1.288-0.549c-0.271-0.203-0.506-0.378-0.771-0.378c-0.227,0-0.41-0.184-0.41-0.41s0.183-0.41,0.41-0.41
		c0.537,0,0.922,0.287,1.262,0.54c0.278,0.207,0.518,0.387,0.798,0.387c0.258,0,0.456-0.143,0.756-0.374
		c0.319-0.246,0.717-0.553,1.283-0.553c0.552,0,0.932,0.262,1.265,0.494c0.281,0.193,0.503,0.347,0.799,0.347
		c0.306,0,0.556-0.167,0.846-0.36C34.245,32.663,34.626,32.408,35.143,32.408 M35.143,31.939c-0.659,0-1.143,0.323-1.495,0.559
		c-0.271,0.181-0.431,0.282-0.585,0.282c-0.142,0-0.278-0.089-0.527-0.261c-0.355-0.246-0.836-0.58-1.537-0.58
		c-0.725,0-1.232,0.391-1.567,0.649c-0.266,0.205-0.376,0.277-0.472,0.277c-0.125,0-0.315-0.143-0.518-0.294
		c-0.358-0.267-0.849-0.633-1.542-0.633c-0.485,0-0.879,0.395-0.879,0.879c0,0.485,0.394,0.879,0.879,0.879
		c0.11,0,0.304,0.145,0.491,0.284c0.363,0.271,0.86,0.643,1.569,0.643c0.709,0,1.19-0.37,1.541-0.641
		c0.274-0.211,0.39-0.286,0.498-0.286c0.145,0,0.282,0.091,0.532,0.265c0.352,0.243,0.833,0.576,1.532,0.576
		c0.699,0,1.198-0.334,1.562-0.579c0.209-0.14,0.392-0.262,0.518-0.262c0.065,0,0.161,0.07,0.367,0.237
		c0.328,0.267,0.822,0.668,1.591,0.668c0.484,0,0.879-0.395,0.879-0.879s-0.395-0.879-0.879-0.879c-0.12,0-0.201-0.046-0.482-0.274
		C36.308,32.318,35.84,31.939,35.143,31.939L35.143,31.939z"/>
	<path fill="#FFFFFF" d="M32,27.224c2.701,0,4.889,2.109,4.889,3.924c0,0.084-0.07,0.265-0.198,0.335
		c-0.301,0.164-0.922,0.291-1.711,0.378c-0.878,0.098-1.965,0.147-3.046,0.147c-1.995,0-3.974-0.168-4.61-0.511
		c-0.136-0.074-0.21-0.26-0.21-0.349C27.112,29.333,29.3,27.224,32,27.224 M32,26.755c-3.017,0-5.356,2.361-5.356,4.393
		c0,0.25,0.16,0.601,0.457,0.762c0.977,0.526,3.946,0.567,4.833,0.567c1.128,0,2.229-0.053,3.098-0.15
		c0.922-0.103,1.538-0.244,1.883-0.432c0.288-0.158,0.443-0.502,0.443-0.747C37.357,29.117,35.017,26.755,32,26.755L32,26.755z"/>
</g>
</svg>
