<?xml version="1.0" encoding="utf-8"?>
<!-- Generator: Adobe Illustrator 16.0.0, SVG Export Plug-In . SVG Version: 6.00 Build 0)  -->
<!DOCTYPE svg PUBLIC "-//W3C//DTD SVG 1.1//EN" "http://www.w3.org/Graphics/SVG/1.1/DTD/svg11.dtd">
<svg version="1.1" id="Icon" xmlns="http://www.w3.org/2000/svg" xmlns:xlink="http://www.w3.org/1999/xlink" x="0px" y="0px"
	 width="15px" height="15px" viewBox="-7.5 -7.5 15 15" enable-background="new -7.5 -7.5 15 15" xml:space="preserve">
<rect x="-7.5" y="-7.5" fill="none" width="15" height="15"/>
<g>
	<polygon fill="#333333" points="-5.288,4.58 0,-4.58 5.288,4.58 	"/>
	<path fill="#FFFFFF" d="M0-4.58L5.288,4.58H-5.288L0-4.58 M0-5.048c-0.167,0-0.322,0.089-0.406,0.234l-5.288,9.159
		c-0.084,0.145-0.084,0.324,0,0.469c0.083,0.145,0.238,0.234,0.406,0.234H5.288c0.167,0,0.322-0.089,0.406-0.234
		c0.083-0.145,0.083-0.324,0-0.469L0.406-4.814C0.322-4.959,0.167-5.048,0-5.048L0-5.048z"/>
</g>
</svg>
