<?xml version="1.0" encoding="utf-8"?>
<!-- Generator: Adobe Illustrator 16.0.0, SVG Export Plug-In . SVG Version: 6.00 Build 0)  -->
<!DOCTYPE svg PUBLIC "-//W3C//DTD SVG 1.1//EN" "http://www.w3.org/Graphics/SVG/1.1/DTD/svg11.dtd">
<svg version="1.1" id="Icon" xmlns="http://www.w3.org/2000/svg" xmlns:xlink="http://www.w3.org/1999/xlink" x="0px" y="0px"
	 width="15px" height="15px" viewBox="24.5 24.5 15 15" enable-background="new 24.5 24.5 15 15" xml:space="preserve">
<rect x="24.5" y="24.5" fill="none" width="15" height="15"/>
<g>
	<path fill="#FFFFFF" d="M32.021,29.327L32.021,29.327L32.021,29.327c-0.296,0-0.579,0.051-0.844,0.141
		c-1.042,0.353-1.794,1.338-1.794,2.497c0,1.16,0.752,2.145,1.794,2.498c0.266,0.09,0.548,0.141,0.844,0.141l0,0h0
		c0.993,0,1.859-0.56,2.304-1.382c0.202-0.374,0.317-0.802,0.317-1.257c0-0.454-0.115-0.882-0.317-1.256
		C33.881,29.886,33.015,29.327,32.021,29.327z"/>
	<path fill="#333333" d="M30.481,31.964c0,0.848,0.689,1.536,1.535,1.536c0.841,0,1.529-0.688,1.529-1.536
		c0-0.846-0.688-1.535-1.529-1.535C31.17,30.429,30.481,31.118,30.481,31.964z"/>
	<path fill="#333333" d="M38.312,32.454v-0.904h-2.739c-0.076-0.659-0.331-1.262-0.713-1.763l1.896-1.902l-0.641-0.639l-1.891,1.895
		c-0.489-0.387-1.082-0.647-1.729-0.734v-2.717h-0.904v2.71c-0.68,0.081-1.302,0.353-1.811,0.76l-1.97-1.97l-0.64,0.64l1.981,1.98
		c-0.38,0.504-0.633,1.109-0.704,1.769h-2.761v0.906h2.781c0.094,0.646,0.358,1.236,0.748,1.723l-1.987,1.977l0.64,0.641
		l1.998-1.988c0.478,0.359,1.047,0.602,1.667,0.687v2.79h0.904v-2.779c0.638-0.075,1.224-0.321,1.714-0.688l1.934,1.938l0.641-0.639
		l-1.922-1.927c0.398-0.496,0.666-1.101,0.756-1.762H38.312z M32.021,34.603c-1.455,0-2.638-1.184-2.638-2.639
		c0-1.454,1.184-2.637,2.638-2.637c1.444,0,2.621,1.183,2.621,2.637C34.643,33.419,33.466,34.603,32.021,34.603z"/>
	<path fill="#FFFFFF" d="M38.312,31.077h-2.341c-0.098-0.435-0.267-0.852-0.501-1.234l1.621-1.625
		c0.184-0.185,0.184-0.484-0.001-0.668l-0.641-0.639c-0.093-0.092-0.213-0.138-0.334-0.138s-0.242,0.046-0.334,0.139l-1.609,1.613
		c-0.371-0.234-0.777-0.407-1.203-0.51v-2.326c0-0.261-0.212-0.472-0.473-0.472h-0.904c-0.261,0-0.472,0.211-0.472,0.472v2.312
		c-0.457,0.104-0.893,0.287-1.288,0.54l-1.687-1.687c-0.092-0.092-0.213-0.138-0.334-0.138c-0.121,0-0.242,0.046-0.334,0.138
		l-0.64,0.64c-0.089,0.088-0.139,0.208-0.139,0.334s0.05,0.246,0.139,0.334l1.705,1.705c-0.233,0.384-0.4,0.802-0.495,1.238h-2.359
		c-0.261,0-0.473,0.211-0.473,0.472v0.906c0,0.261,0.211,0.473,0.473,0.473h2.393c0.107,0.425,0.282,0.83,0.518,1.198l-1.702,1.693
		c-0.089,0.089-0.139,0.209-0.14,0.334c0,0.126,0.05,0.246,0.139,0.335l0.64,0.64c0.092,0.093,0.213,0.139,0.334,0.139
		c0.12,0,0.241-0.046,0.333-0.138l1.723-1.714c0.353,0.213,0.737,0.371,1.136,0.469v2.399c0,0.261,0.211,0.473,0.472,0.473h0.904
		c0.261,0,0.473-0.212,0.473-0.473V35.93c0.414-0.095,0.813-0.256,1.182-0.478l1.659,1.663c0.092,0.093,0.213,0.139,0.334,0.139
		s0.241-0.046,0.334-0.138l0.641-0.639c0.089-0.089,0.139-0.209,0.139-0.334c0-0.126-0.05-0.246-0.138-0.335l-1.64-1.644
		c0.244-0.38,0.424-0.799,0.529-1.239h2.36c0.261,0,0.473-0.211,0.473-0.472v-0.904C38.784,31.289,38.572,31.077,38.312,31.077z
		 M38.312,32.454h-2.751c-0.09,0.662-0.357,1.266-0.756,1.762l1.922,1.927l-0.641,0.639l-1.934-1.938
		c-0.49,0.367-1.076,0.613-1.714,0.688v2.779h-0.904v-2.79c-0.62-0.085-1.188-0.327-1.667-0.687l-1.998,1.988l-0.64-0.641
		l1.987-1.977c-0.39-0.486-0.654-1.077-0.748-1.723h-2.781v-0.906h2.761c0.071-0.66,0.323-1.265,0.704-1.769l-1.981-1.98l0.64-0.64
		l1.97,1.97c0.509-0.407,1.131-0.679,1.811-0.76v-2.71h0.904v2.717c0.646,0.087,1.239,0.347,1.729,0.734l1.891-1.895l0.641,0.639
		l-1.896,1.902c0.382,0.501,0.637,1.104,0.713,1.763h2.739V32.454z"/>
</g>
</svg>
