<?xml version="1.0" encoding="utf-8"?>
<!-- Generator: Adobe Illustrator 16.0.0, SVG Export Plug-In . SVG Version: 6.00 Build 0)  -->
<!DOCTYPE svg PUBLIC "-//W3C//DTD SVG 1.1//EN" "http://www.w3.org/Graphics/SVG/1.1/DTD/svg11.dtd">
<svg version="1.1" id="Icon" xmlns="http://www.w3.org/2000/svg" xmlns:xlink="http://www.w3.org/1999/xlink" x="0px" y="0px"
	 width="15px" height="15px" viewBox="24.5 24.5 15 15" enable-background="new 24.5 24.5 15 15" xml:space="preserve">
<rect x="24.5" y="24.5" fill="none" width="15" height="15"/>
<g>
	<circle fill="#333333" cx="32" cy="32" r="6.051"/>
	<polygon fill="#FFFFFF" points="34.679,35.242 33.856,35.242 33.856,32.421 30.143,32.421 30.143,35.242 29.322,35.242 
		29.322,29.137 30.143,29.137 30.143,31.635 33.856,31.635 33.856,29.137 34.679,29.137 	"/>
	<path fill="#FFFFFF" d="M31.999,25.95c3.343,0,6.052,2.708,6.052,6.05s-2.709,6.051-6.052,6.051c-3.342,0-6.05-2.709-6.05-6.051
		S28.657,25.95,31.999,25.95 M31.999,25.481c-3.594,0-6.519,2.924-6.519,6.519s2.924,6.52,6.519,6.52
		c3.596,0,6.521-2.925,6.521-6.52S35.595,25.481,31.999,25.481L31.999,25.481z"/>
</g>
</svg>
