<?xml version="1.0" encoding="utf-8"?>
<!-- Generator: Adobe Illustrator 23.1.1, SVG Export Plug-In . SVG Version: 6.00 Build 0)  -->
<svg version="1.1" id="レイヤー_1" xmlns="http://www.w3.org/2000/svg" xmlns:xlink="http://www.w3.org/1999/xlink" x="0px"
	 y="0px" viewBox="0 0 20 20" enable-background="new 0 0 20 20" xml:space="preserve">
<path fill="#FFFFFF" d="M15.7,19H4.3C2.5,19,1,17.5,1,15.7V4.3C1,2.5,2.5,1,4.3,1h11.4C17.5,1,19,2.5,19,4.3v11.4
	C19,17.5,17.5,19,15.7,19z"/>
<path fill="#00AEDE" d="M15.7,0H4.3C1.9,0,0,1.9,0,4.3v11.4C0,18.1,1.9,20,4.3,20h11.4c2.4,0,4.3-1.9,4.3-4.3V4.3
	C20,1.9,18.1,0,15.7,0z M19,15.7c0,1.8-1.5,3.3-3.3,3.3H4.3C2.5,19,1,17.5,1,15.7V4.3C1,2.5,2.5,1,4.3,1h11.4C17.5,1,19,2.5,19,4.3
	V15.7z M13.2,13.9h0.2c1.3,0,2.4-1.1,2.4-2.4V4.9c0-1.3-1.1-2.4-2.4-2.4H6.7c-1.3,0-2.4,1.1-2.4,2.4v6.7c0,1.3,1.1,2.4,2.4,2.4h0.2
	v0.4h0l-3.2,3.2h1.5l3.2-3.2h3.3l3.2,3.2h1.5l-3.2-3.2V13.9z M7.9,3.8h4.2v1.1H7.9V3.8z M7.3,12.5c-0.5,0-0.9-0.4-0.9-0.9
	c0-0.5,0.4-0.9,0.9-0.9c0.5,0,0.9,0.4,0.9,0.9C8.2,12.1,7.8,12.5,7.3,12.5z M6.4,9.4V5.9h7.1v3.6H6.4z M11.8,11.6
	c0-0.5,0.4-0.9,0.9-0.9c0.5,0,0.9,0.4,0.9,0.9c0,0.5-0.4,0.9-0.9,0.9C12.2,12.5,11.8,12.1,11.8,11.6z"/>
</svg>
