<?xml version="1.0" encoding="utf-8"?>
<!-- Generator: Adobe Illustrator 16.0.0, SVG Export Plug-In . SVG Version: 6.00 Build 0)  -->
<!DOCTYPE svg PUBLIC "-//W3C//DTD SVG 1.1//EN" "http://www.w3.org/Graphics/SVG/1.1/DTD/svg11.dtd">
<svg version="1.1" id="Icon" xmlns="http://www.w3.org/2000/svg" xmlns:xlink="http://www.w3.org/1999/xlink" x="0px" y="0px"
	 width="15px" height="15px" viewBox="24.5 24.5 15 15" enable-background="new 24.5 24.5 15 15" xml:space="preserve">
<rect x="24.5" y="24.5" fill="none" width="15" height="15"/>
<g>
	<path fill="#333333" d="M26.698,27.485v0.884h1.679v8.146h0.884v-4.137h5.479v4.137h0.884v-8.146h1.68v-0.884H26.698z
		 M29.26,31.493v-3.124h5.479v3.124H29.26z"/>
	<polygon fill="#FFFFFF" points="34.739,31.493 34.739,31.493 34.739,28.369 34.739,28.369 29.26,28.369 29.26,28.369 29.26,31.493 
		29.26,31.493 	"/>
	<path fill="#FFFFFF" d="M37.303,27.017H26.698c-0.259,0-0.469,0.21-0.469,0.469v0.884c0,0.259,0.21,0.469,0.469,0.469h1.21v7.677
		c0,0.259,0.21,0.469,0.469,0.469h0.884c0.259,0,0.469-0.21,0.469-0.469v-3.669h4.542v3.669c0,0.259,0.21,0.469,0.469,0.469h0.884
		c0.259,0,0.469-0.21,0.469-0.469v-7.677h1.211c0.259,0,0.469-0.21,0.469-0.469v-0.884C37.771,27.227,37.562,27.017,37.303,27.017z
		 M37.303,28.369h-1.68v8.146h-0.884v-4.137H29.26v4.137h-0.884v-8.146h-1.679v-0.884h10.605V28.369z"/>
</g>
</svg>
