<?xml version="1.0" encoding="utf-8"?>
<!-- Generator: Adobe Illustrator 16.0.0, SVG Export Plug-In . SVG Version: 6.00 Build 0)  -->
<!DOCTYPE svg PUBLIC "-//W3C//DTD SVG 1.1//EN" "http://www.w3.org/Graphics/SVG/1.1/DTD/svg11.dtd">
<svg version="1.1" id="Icon" xmlns="http://www.w3.org/2000/svg" xmlns:xlink="http://www.w3.org/1999/xlink" x="0px" y="0px"
	 width="15px" height="15px" viewBox="24.5 24.5 15 15" enable-background="new 24.5 24.5 15 15" xml:space="preserve">
<rect x="24.5" y="24.5" fill="none" width="15" height="15"/>
<g>
	<path fill="#FFFFFF" d="M32,29.201c-2.708,0-5.008,1.204-5.149,2.658c-0.004,0.047-0.007,0.094-0.007,0.142
		s0.002,0.095,0.007,0.142c0.141,1.455,2.441,2.657,5.149,2.657c2.795,0,5.156-1.281,5.156-2.798
		C37.156,30.483,34.795,29.201,32,29.201z"/>
	<path fill="#333333" d="M28.335,32c0,1.251,1.61,2.232,3.666,2.232c2.054,0,3.663-0.98,3.663-2.232
		c0-1.252-1.608-2.232-3.663-2.232C29.946,29.768,28.335,30.749,28.335,32z M28.915,32c0-0.896,1.414-1.653,3.087-1.653
		c1.671,0,3.084,0.757,3.084,1.653c0,0.896-1.413,1.653-3.084,1.653C30.328,33.653,28.915,32.896,28.915,32z"/>
	<path fill="#333333" d="M25.906,32c0,2.095,2.677,3.736,6.094,3.736s6.094-1.641,6.094-3.736c0-2.096-2.677-3.737-6.094-3.737
		S25.906,29.905,25.906,32z M26.844,32c0-1.518,2.361-2.8,5.156-2.8s5.156,1.282,5.156,2.8c0,1.517-2.361,2.798-5.156,2.798
		S26.844,33.518,26.844,32z"/>
	<path fill="#FFFFFF" d="M32,27.794c-3.68,0-6.562,1.848-6.562,4.206c0,2.358,2.882,4.205,6.562,4.205
		c3.68,0,6.562-1.847,6.562-4.205C38.562,29.642,35.68,27.794,32,27.794z M32,35.736c-3.417,0-6.094-1.641-6.094-3.736
		c0-2.096,2.677-3.737,6.094-3.737s6.094,1.642,6.094,3.737C38.094,34.096,35.417,35.736,32,35.736z"/>
</g>
</svg>
