<?xml version="1.0" encoding="utf-8"?>
<!-- Generator: Adobe Illustrator 16.0.0, SVG Export Plug-In . SVG Version: 6.00 Build 0)  -->
<!DOCTYPE svg PUBLIC "-//W3C//DTD SVG 1.1//EN" "http://www.w3.org/Graphics/SVG/1.1/DTD/svg11.dtd">
<svg version="1.1" id="Icon" xmlns="http://www.w3.org/2000/svg" xmlns:xlink="http://www.w3.org/1999/xlink" x="0px" y="0px"
	 width="15px" height="15px" viewBox="24.5 24.5 15 15" enable-background="new 24.5 24.5 15 15" xml:space="preserve">
<rect x="24.5" y="24.5" fill="none" width="15" height="15"/>
<g>
	<path fill="#FFFFFF" d="M32,25.438c-3.619,0-6.562,2.944-6.562,6.562c0,3.618,2.944,6.562,6.562,6.562
		c3.618,0,6.562-2.944,6.562-6.562C38.562,28.381,35.618,25.438,32,25.438z"/>
	<path fill="#333333" d="M25.906,32c0,3.36,2.734,6.094,6.094,6.094c3.36,0,6.094-2.733,6.094-6.094S35.36,25.906,32,25.906
		C28.64,25.906,25.906,28.64,25.906,32z M26.844,32c0-2.843,2.313-5.156,5.156-5.156c2.844,0,5.156,2.313,5.156,5.156
		c0,2.843-2.312,5.156-5.156,5.156C29.157,37.156,26.844,34.843,26.844,32z"/>
	<path fill="#333333" d="M29.938,30.232l0.097,0.064c0.086,0.086,0.054,0.14-0.097,0.161v5.124h-0.645v-4.093
		c-0.172,0.279-0.376,0.537-0.612,0.773l-0.419-0.644c0.773-0.752,1.3-1.912,1.579-3.48l0.709,0.258
		c0.086,0.086,0.054,0.14-0.097,0.161C30.389,29.029,30.217,29.588,29.938,30.232z M30.518,35.163l-0.354-0.773
		c0.924-0.408,1.708-1.053,2.354-1.934h-2.321v-0.612h2.353v-0.966h-0.967v0.29h-0.645v-2.675h3.803v2.643h-0.645v-0.258h-0.902
		v0.966h2.353v0.612h-2.288c0.602,0.838,1.429,1.472,2.481,1.902l-0.226,0.741c-0.902-0.344-1.676-0.935-2.32-1.772v2.256h-0.645
		v-2.224C32.097,33.981,31.42,34.583,30.518,35.163z M31.581,29.104v1.16h2.514v-1.16H31.581z"/>
</g>
</svg>
