<?xml version="1.0" encoding="utf-8"?>
<!-- Generator: Adobe Illustrator 21.1.0, SVG Export Plug-In . SVG Version: 6.00 Build 0)  -->
<svg version="1.1" id="レイヤー_1" xmlns="http://www.w3.org/2000/svg" xmlns:xlink="http://www.w3.org/1999/xlink" x="0px"
	 y="0px" viewBox="0 0 22 16" enable-background="new 0 0 22 16" xml:space="preserve">
<g>
	<path fill="#FF9966" d="M11,15.25C5.348,15.25,0.75,11.998,0.75,8c0-3.998,4.598-7.25,10.25-7.25S21.25,4.002,21.25,8
		C21.25,11.998,16.652,15.25,11,15.25z"/>
	<path fill="#191919" d="M11,1.5c5.238,0,9.5,2.916,9.5,6.5s-4.262,6.5-9.5,6.5S1.5,11.584,1.5,8S5.762,1.5,11,1.5 M11,0
		C4.925,0,0,3.582,0,8s4.925,8,11,8s11-3.582,11-8S17.075,0,11,0L11,0z"/>
</g>
<g>
	<ellipse fill="#FF9966" cx="11" cy="8" rx="5.438" ry="3.75"/>
	<path fill="#191919" d="M11,5c2.541,0,4.688,1.374,4.688,3S13.541,11,11,11S6.312,9.626,6.312,8S8.459,5,11,5 M11,3.5
		C7.583,3.5,4.812,5.515,4.812,8s2.77,4.5,6.188,4.5s6.188-2.015,6.188-4.5S14.417,3.5,11,3.5L11,3.5z"/>
</g>
</svg>
