<?xml version="1.0" encoding="utf-8"?>
<!-- Generator: Adobe Illustrator 20.1.0, SVG Export Plug-In . SVG Version: 6.00 Build 0)  -->
<svg version="1.1" id="レイヤー_1" xmlns="http://www.w3.org/2000/svg" xmlns:xlink="http://www.w3.org/1999/xlink" x="0px"
	 y="0px" viewBox="0 0 11 11" enable-background="new 0 0 11 11" xml:space="preserve">
<g>
	<path d="M8.6,5.2C8.2,4.5,7.4,3.9,6.4,3.6c0.2-1,1.1-2.3,2.2-3.5C7.1,0.4,4.1,2.3,2.9,3.8c-0.6,0.2-1.1,0.6-1.5,1
		C0.8,5.2,0.4,5.6,0,6.1c0.5,0.7,1,1.2,1.7,1.5c0.5,0.4,1.1,0.8,1.9,0.9c1.1,1.3,2.8,2,4,2.2c-0.9-1-1-1.3-1.2-2.3
		c1-0.3,1.8-0.9,2.2-1.6L11,8.3L11,4C11,4,8.7,5.2,8.6,5.2z M2.1,6.9c-0.4,0-0.8-0.3-0.8-0.8c0-0.4,0.3-0.8,0.8-0.8
		c0.4,0,0.8,0.3,0.8,0.8C2.9,6.5,2.5,6.9,2.1,6.9z"/>
	<circle cx="0.7" cy="0.8" r="0.7"/>
	<circle cx="1.4" cy="2.3" r="0.4"/>
	<circle cx="0.5" cy="3.9" r="0.2"/>
</g>
</svg>
