<?xml version="1.0" encoding="utf-8"?>
<!-- Generator: Adobe Illustrator 16.0.0, SVG Export Plug-In . SVG Version: 6.00 Build 0)  -->
<!DOCTYPE svg PUBLIC "-//W3C//DTD SVG 1.1//EN" "http://www.w3.org/Graphics/SVG/1.1/DTD/svg11.dtd">
<svg version="1.1" id="Icon" xmlns="http://www.w3.org/2000/svg" xmlns:xlink="http://www.w3.org/1999/xlink" x="0px" y="0px"
	 width="15px" height="15px" viewBox="24.5 24.5 15 15" enable-background="new 24.5 24.5 15 15" xml:space="preserve">
<rect x="24.5" y="24.5" fill="none" width="15" height="15"/>
<g>
	<polygon fill="#333333" points="29.748,31.809 29.762,36.624 33.131,36.624 29.462,27.625 25.794,36.624 27.971,36.624 	"/>
	<path fill="#333333" d="M38.209,36.624h-4.097l-3.867-9.249c0,0,1.255,0.498,2.458,0.498c1.204,0,1.639-0.498,1.639-0.498
		L38.209,36.624z"/>
	<path fill="#FFFFFF" d="M38.64,36.443l-3.867-9.249c-0.064-0.154-0.197-0.274-0.362-0.295c-0.023-0.003-0.046-0.004-0.068-0.004
		c-0.138,0-0.264,0.057-0.351,0.167c-0.049,0.045-0.403,0.342-1.289,0.342c-1.101,0-2.273-0.46-2.285-0.465
		c-0.056-0.022-0.115-0.033-0.173-0.033c-0.124,0-0.245,0.049-0.335,0.141c-0.066,0.068-0.109,0.153-0.125,0.244
		c-0.086-0.083-0.198-0.135-0.322-0.135c-0.19,0-0.362,0.116-0.434,0.292l-3.668,9c-0.059,0.145-0.042,0.31,0.045,0.438
		c0.087,0.13,0.233,0.207,0.389,0.207h12.414c0.157,0,0.304-0.078,0.391-0.209C38.685,36.754,38.7,36.588,38.64,36.443z
		 M29.761,36.624l-0.015-4.815l-1.776,4.815h-2.177l3.668-9l3.668,9H29.761z M34.111,36.624l-3.867-9.249
		c0,0,1.255,0.498,2.458,0.498c1.204,0,1.638-0.498,1.638-0.498l3.867,9.249H34.111z"/>
</g>
</svg>
