<?xml version="1.0" encoding="utf-8"?>
<!-- Generator: Adobe Illustrator 21.1.0, SVG Export Plug-In . SVG Version: 6.00 Build 0)  -->
<svg version="1.1" id="レイヤー_1" xmlns="http://www.w3.org/2000/svg" xmlns:xlink="http://www.w3.org/1999/xlink" x="0px"
	 y="0px" viewBox="0 0 14 14" enable-background="new 0 0 14 14" xml:space="preserve">
<g>
	<path d="M12.091,8.227C13.145,8.227,14,7.372,14,6.318s-0.855-1.909-1.909-1.909c-0.016,0-0.03,0.004-0.046,0.005
		c-0.21-0.553-0.511-1.054-0.88-1.504c0.18-0.291,0.289-0.632,0.289-1C11.455,0.855,10.6,0,9.545,0C8.823,0,8.202,0.406,7.878,0.997
		C7.591,0.95,7.301,0.909,7,0.909S6.409,0.95,6.122,0.997C5.798,0.406,5.177,0,4.455,0C3.4,0,2.545,0.855,2.545,1.909
		c0,0.368,0.109,0.709,0.289,1c-0.369,0.45-0.671,0.951-0.88,1.504c-0.016,0-0.03-0.005-0.046-0.005C0.855,4.409,0,5.264,0,6.318
		s0.855,1.909,1.909,1.909c0.016,0,0.03-0.004,0.046-0.005c0.21,0.553,0.511,1.054,0.88,1.504c-0.18,0.292-0.29,0.632-0.29,1
		c0,0.591,0.275,1.113,0.697,1.464l-0.31,0.537H0.637V14h12.727v-1.273h-2.296l-0.31-0.537c0.422-0.35,0.697-0.872,0.697-1.464
		c0-0.368-0.109-0.709-0.29-1c0.369-0.45,0.671-0.951,0.88-1.504C12.061,8.223,12.075,8.227,12.091,8.227z M11.741,6.636
		c-0.02,0.294-0.061,0.58-0.132,0.857c-0.365-0.15-0.624-0.47-0.726-0.857H11.741z M10.882,6c0.102-0.387,0.361-0.707,0.726-0.857
		C11.68,5.42,11.721,5.706,11.741,6H10.882z M12.252,5.078c0.623,0.082,1.112,0.594,1.112,1.24s-0.488,1.158-1.112,1.24
		c0.095-0.4,0.157-0.812,0.157-1.241C12.409,5.889,12.347,5.478,12.252,5.078z M10.214,6H9.513c-0.088-0.693-0.45-1.296-0.98-1.701
		l0.35-0.606C9.09,3.77,9.311,3.818,9.545,3.818c0.454,0,0.866-0.165,1.194-0.43c0.275,0.35,0.512,0.73,0.681,1.149
		C10.794,4.772,10.328,5.324,10.214,6z M8.276,7.891L7.719,6.927C7.793,6.841,7.851,6.745,7.89,6.636h1.113
		C8.923,7.142,8.657,7.582,8.276,7.891z M10.818,10.727c0,0.356-0.147,0.675-0.382,0.906l-0.464-0.804
		c0.267-0.177,0.513-0.38,0.745-0.6C10.782,10.382,10.818,10.55,10.818,10.727z M9.655,10.28L9.216,9.52
		c0.107-0.029,0.212-0.066,0.329-0.066c0.295,0,0.554,0.117,0.77,0.285C10.111,9.937,9.892,10.121,9.655,10.28z M9.096,10.584
		c-0.252,0.125-0.516,0.223-0.791,0.302c-0.007-0.055-0.032-0.103-0.032-0.159c0-0.355,0.147-0.675,0.382-0.906L9.096,10.584z
		 M8.543,11.475c0.302-0.091,0.592-0.203,0.869-0.342l0.462,0.8c-0.107,0.029-0.212,0.066-0.329,0.066
		C9.128,11.999,8.775,11.785,8.543,11.475z M8.333,9.263c-0.422,0.35-0.697,0.872-0.697,1.464c0,0.101,0.015,0.199,0.03,0.296
		C7.447,11.054,7.228,11.09,7,11.09s-0.447-0.036-0.666-0.067c0.015-0.097,0.03-0.195,0.03-0.296c0-0.591-0.275-1.113-0.697-1.463
		l0.346-0.6C6.317,8.792,6.65,8.863,7,8.863s0.683-0.071,0.987-0.2l0.095,0.164L8.333,9.263z M4.996,6.636H6.11
		c0.039,0.109,0.098,0.205,0.171,0.291L5.724,7.891C5.343,7.582,5.077,7.142,4.996,6.636z M5.724,4.744l0.557,0.964
		C6.207,5.795,6.149,5.891,6.11,6H4.996C5.076,5.494,5.343,5.054,5.724,4.744z M3.182,10.727c0-0.177,0.037-0.345,0.102-0.498
		c0.231,0.22,0.477,0.424,0.744,0.6l-0.464,0.804C3.329,11.402,3.182,11.082,3.182,10.727z M5.695,10.886
		c-0.275-0.079-0.539-0.177-0.791-0.302l0.441-0.764c0.235,0.231,0.382,0.551,0.382,0.906C5.727,10.783,5.702,10.832,5.695,10.886z
		 M4.535,9.952l-0.19,0.329c-0.237-0.159-0.455-0.343-0.66-0.541c0.216-0.168,0.475-0.285,0.77-0.285
		c0.117,0,0.222,0.037,0.329,0.066L4.535,9.952z M4.587,11.133c0.277,0.14,0.567,0.251,0.869,0.342
		c-0.232,0.31-0.585,0.524-1.002,0.524c-0.117,0-0.222-0.037-0.329-0.066L4.587,11.133z M6.836,7.239
		C6.891,7.249,6.942,7.273,7,7.273s0.109-0.023,0.165-0.033l0.562,0.974C7.5,8.301,7.257,8.354,7,8.354s-0.5-0.053-0.727-0.14
		L6.836,7.239z M7.165,5.397C7.109,5.387,7.058,5.363,7,5.363S6.891,5.387,6.835,5.397L6.273,4.422C6.499,4.335,6.743,4.282,7,4.282
		s0.501,0.053,0.727,0.14L7.165,5.397z M7.89,6C7.851,5.891,7.792,5.795,7.719,5.709l0.557-0.964C8.657,5.054,8.924,5.494,9.004,6
		H7.89z M8.305,1.749C8.58,1.828,8.844,1.927,9.096,2.051L8.655,2.815C8.42,2.584,8.273,2.265,8.273,1.909
		C8.273,1.852,8.298,1.804,8.305,1.749z M9.545,0.636c0.703,0,1.273,0.57,1.273,1.273c0,0.177-0.036,0.345-0.102,0.498
		c-0.607-0.577-1.351-1-2.173-1.247C8.776,0.85,9.128,0.636,9.545,0.636z M10.315,2.897C10.1,3.065,9.84,3.182,9.545,3.182
		c-0.117,0-0.222-0.037-0.329-0.066l0.439-0.76C9.893,2.515,10.111,2.698,10.315,2.897z M7,1.545c0.228,0,0.447,0.036,0.666,0.067
		c-0.015,0.097-0.03,0.195-0.03,0.297c0,0.591,0.275,1.113,0.697,1.464L7.987,3.972C7.683,3.844,7.35,3.772,7,3.772
		s-0.683,0.071-0.987,0.2L5.667,3.373C6.089,3.022,6.364,2.5,6.364,1.909c0-0.102-0.015-0.199-0.03-0.297
		C6.553,1.581,6.772,1.545,7,1.545z M3.182,1.909c0-0.703,0.57-1.273,1.273-1.273c0.417,0,0.77,0.214,1.002,0.524
		C4.634,1.407,3.89,1.83,3.283,2.407C3.218,2.254,3.182,2.086,3.182,1.909z M5.727,1.909c0,0.356-0.147,0.675-0.382,0.906
		L4.904,2.051C5.156,1.927,5.42,1.828,5.695,1.749C5.702,1.804,5.727,1.852,5.727,1.909z M4.345,2.355l0.439,0.76
		C4.676,3.145,4.571,3.182,4.455,3.182c-0.295,0-0.554-0.117-0.77-0.285C3.889,2.698,4.107,2.515,4.345,2.355z M3.261,3.388
		C3.589,3.653,4,3.818,4.455,3.818c0.234,0,0.455-0.048,0.663-0.125l0.35,0.606C4.936,4.703,4.574,5.307,4.487,6H3.786
		C3.672,5.324,3.206,4.772,2.58,4.536C2.749,4.117,2.986,3.738,3.261,3.388z M3.118,6H2.259c0.02-0.294,0.061-0.58,0.132-0.857
		C2.756,5.292,3.015,5.613,3.118,6z M2.259,6.636h0.858C3.015,7.023,2.756,7.343,2.391,7.493C2.32,7.216,2.279,6.93,2.259,6.636z
		 M1.748,7.558c-0.623-0.082-1.112-0.594-1.112-1.24s0.488-1.158,1.112-1.24c-0.095,0.4-0.157,0.812-0.157,1.24
		C1.591,6.746,1.654,7.158,1.748,7.558z M3.786,6.636h0.701c0.088,0.693,0.45,1.296,0.98,1.7l-0.35,0.606
		C4.91,8.866,4.689,8.818,4.455,8.818c-0.454,0-0.866,0.165-1.193,0.43C2.986,8.898,2.749,8.518,2.58,8.099
		C3.206,7.864,3.672,7.312,3.786,6.636z M10.333,12.727H3.667l0.125-0.216c0.207,0.077,0.429,0.125,0.663,0.125
		c0.722,0,1.344-0.406,1.668-0.998C6.41,11.685,6.699,11.727,7,11.727s0.59-0.041,0.878-0.089c0.324,0.592,0.945,0.998,1.668,0.998
		c0.234,0,0.455-0.048,0.663-0.125L10.333,12.727z M10.739,9.248C10.411,8.983,10,8.818,9.545,8.818
		c-0.234,0-0.455,0.048-0.663,0.125l-0.25-0.433l-0.1-0.173c0.53-0.404,0.893-1.007,0.98-1.7h0.701
		c0.114,0.676,0.58,1.227,1.206,1.463C11.251,8.518,11.014,8.898,10.739,9.248z"/>
	<path fill="#FFFFFF" d="M3.182,6.313c0,0.115-0.013,0.216-0.051,0.318c-0.127,0.56-0.636,0.954-1.222,0.954
		c-0.585,0-1.095-0.395-1.222-0.954C0.649,6.529,0.636,6.427,0.636,6.313c0-0.7,0.573-1.273,1.273-1.273S3.182,5.613,3.182,6.313z
		 M4.455,9.456c-0.7,0-1.273,0.573-1.273,1.273c0,0.115,0.013,0.216,0.051,0.318c0.127,0.547,0.636,0.955,1.222,0.955
		c0.585,0,1.095-0.407,1.222-0.955c0.038-0.102,0.051-0.204,0.051-0.318C5.727,10.029,5.155,9.456,4.455,9.456z M9.545,3.182
		c0.585,0,1.095-0.407,1.222-0.955c0.038-0.102,0.051-0.204,0.051-0.318c0-0.7-0.573-1.273-1.273-1.273
		c-0.7,0-1.273,0.573-1.273,1.273c0,0.115,0.013,0.216,0.051,0.318C8.451,2.775,8.96,3.182,9.545,3.182z M9.545,9.456
		c-0.7,0-1.273,0.573-1.273,1.273c0,0.115,0.013,0.216,0.051,0.318c0.127,0.547,0.636,0.955,1.222,0.955
		c0.585,0,1.095-0.407,1.222-0.955c0.038-0.102,0.051-0.204,0.051-0.318C10.818,10.029,10.245,9.456,9.545,9.456z M4.455,0.636
		c-0.7,0-1.273,0.573-1.273,1.273c0,0.115,0.013,0.216,0.051,0.318C3.36,2.775,3.869,3.182,4.455,3.182
		c0.585,0,1.095-0.407,1.222-0.955c0.038-0.102,0.051-0.204,0.051-0.318C5.727,1.209,5.155,0.636,4.455,0.636z M12.091,5.04
		c-0.7,0-1.273,0.573-1.273,1.273c0,0.115,0.013,0.216,0.051,0.318c0.127,0.56,0.636,0.954,1.222,0.954s1.095-0.395,1.222-0.954
		c0.038-0.102,0.051-0.204,0.051-0.318C13.364,5.613,12.791,5.04,12.091,5.04z"/>
	<path fill="#50AAEF" d="M13.313,6.631c-0.127,0.56-0.636,0.954-1.222,0.954s-1.095-0.395-1.222-0.954H13.313z"/>
	<path fill="#990099" d="M10.767,11.047c-0.127,0.547-0.636,0.955-1.222,0.955c-0.585,0-1.095-0.407-1.222-0.955H10.767z"/>
	<path fill="#EB3553" d="M5.676,2.227C5.549,2.775,5.04,3.182,4.455,3.182c-0.585,0-1.095-0.407-1.222-0.955H5.676z"/>
	<path fill="#FF6600" d="M5.676,11.047c-0.127,0.547-0.636,0.955-1.222,0.955c-0.585,0-1.095-0.407-1.222-0.955H5.676z"/>
	<path fill="#F8F500" d="M10.767,2.227c-0.127,0.547-0.636,0.955-1.222,0.955c-0.585,0-1.095-0.407-1.222-0.955H10.767z"/>
	<path fill="#4FB543" d="M3.131,6.631c-0.127,0.56-0.636,0.954-1.222,0.954c-0.585,0-1.095-0.395-1.222-0.954H3.131z"/>
</g>
</svg>
