<?xml version="1.0" encoding="utf-8"?>
<!-- Generator: Adobe Illustrator 16.0.0, SVG Export Plug-In . SVG Version: 6.00 Build 0)  -->
<!DOCTYPE svg PUBLIC "-//W3C//DTD SVG 1.1//EN" "http://www.w3.org/Graphics/SVG/1.1/DTD/svg11.dtd">
<svg version="1.1" id="Icon" xmlns="http://www.w3.org/2000/svg" xmlns:xlink="http://www.w3.org/1999/xlink" x="0px" y="0px"
	 width="15px" height="15px" viewBox="24.5 24.5 15 15" enable-background="new 24.5 24.5 15 15" xml:space="preserve">
<rect x="24.5" y="24.5" fill="none" width="15" height="15"/>
<g>
	<path fill="#333333" d="M38.233,33.403c-0.083-0.244-0.352-0.374-0.594-0.29l-4.658,1.608c-0.016-0.124-0.062-0.244-0.157-0.34
		l-1.329-1.328l0.864-0.601c0.002-0.002,0.005-0.002,0.007-0.003l0.011-0.009l0.116-0.081l3.889-0.026
		c0.13-0.001,0.234-0.106,0.233-0.235s-0.105-0.232-0.234-0.232H36.38l-3.244,0.021c0.076-0.09,0.115-0.193,0.142-0.267
		c0.025-0.069,0.017-0.172,0-0.226c-0.017-0.055-0.071-0.145-0.075-0.157l-0.111-0.15l-1.756-2.186
		c-0.163-0.201-0.456-0.233-0.657-0.072l-0.741,0.597c-0.023,0.019-0.203,0.19-0.248,0.284l-0.495,1.047l-0.878,0.729
		c-0.248,0.207-0.282,0.574-0.077,0.822c0.207,0.25,0.575,0.282,0.823,0.076l0.004-0.003l1.359-0.009l-0.169,0.117
		c-0.027,0.02-0.073,0.074-0.076,0.076c-0.003,0.003-0.003,0.007-0.007,0.01c-0.047,0.051-0.085,0.107-0.112,0.17
		c-0.004,0.011-0.008,0.021-0.012,0.032c-0.02,0.056-0.031,0.111-0.033,0.17c-0.001,0.022,0,0.043,0,0.065
		c0.004,0.046,0.012,0.09,0.027,0.135c0.011,0.035,0.026,0.068,0.044,0.103c0.01,0.017,0.077,0.124,0.094,0.141l1.709,1.706
		l-4.597,1.587l-0.915-0.36c-0.24-0.094-0.511,0.022-0.605,0.263c-0.095,0.24,0.023,0.511,0.263,0.606l1.236,0.486l10.673-3.684
		C38.188,33.912,38.318,33.646,38.233,33.403z M31.106,31.902l-1.474,0.01l0.328-0.273c0.064-0.054,0.251-0.302,0.286-0.375
		l0.21-0.446l0.792,0.984L31.106,31.902z"/>
	<ellipse fill="#333333" cx="29.083" cy="27.72" rx="1.401" ry="1.401"/>
	<path fill="#FFFFFF" d="M30.97,28.728c0.136,0,0.272,0.06,0.365,0.174l1.756,2.186l0.111,0.15c0.004,0.013,0.059,0.103,0.075,0.157
		c0.017,0.054,0.025,0.157,0,0.226c-0.026,0.074-0.065,0.177-0.142,0.267l3.244-0.021h0.001c0.129,0,0.233,0.104,0.234,0.232
		s-0.104,0.234-0.233,0.235l-3.889,0.026l-0.116,0.081l-0.011,0.009c-0.002,0.001-0.005,0.001-0.007,0.003l-0.864,0.601l1.329,1.328
		c0.096,0.096,0.142,0.216,0.157,0.34l4.658-1.608c0.051-0.017,0.102-0.025,0.152-0.025c0.193,0,0.376,0.121,0.441,0.315
		c0.085,0.243-0.045,0.509-0.288,0.594l-10.673,3.684l-1.236-0.486c-0.24-0.096-0.358-0.366-0.263-0.606
		c0.072-0.185,0.249-0.295,0.435-0.295c0.057,0,0.115,0.01,0.171,0.032l0.915,0.36l4.597-1.587l-1.709-1.706
		c-0.017-0.017-0.084-0.124-0.094-0.141c-0.018-0.034-0.033-0.067-0.044-0.103c-0.015-0.045-0.023-0.089-0.027-0.135
		c-0.001-0.022-0.002-0.043,0-0.065c0.002-0.059,0.013-0.114,0.033-0.17c0.004-0.011,0.008-0.021,0.012-0.032
		c0.027-0.062,0.065-0.119,0.112-0.17c0.004-0.003,0.004-0.007,0.007-0.01c0.003-0.002,0.048-0.057,0.076-0.076l0.169-0.117
		l-1.359,0.009l-0.004,0.003c-0.109,0.091-0.242,0.136-0.374,0.136c-0.167,0-0.334-0.072-0.45-0.212
		c-0.206-0.248-0.171-0.615,0.077-0.822l0.878-0.729l0.495-1.047c0.044-0.094,0.224-0.266,0.248-0.284l0.741-0.597
		C30.764,28.761,30.867,28.728,30.97,28.728 M29.632,31.912l1.474-0.01l0.142-0.099l-0.792-0.984l-0.21,0.446
		c-0.035,0.073-0.222,0.321-0.286,0.375L29.632,31.912 M30.97,28.259L30.97,28.259c-0.212,0-0.42,0.073-0.585,0.206l-0.742,0.597
		l0,0c0,0-0.276,0.235-0.377,0.448l-0.451,0.955l-0.797,0.663c-0.446,0.371-0.507,1.035-0.138,1.481
		c0.201,0.242,0.496,0.382,0.811,0.382c0.184,0,0.364-0.049,0.522-0.14l0.343-0.002c-0.003,0.026-0.005,0.054-0.006,0.081
		c-0.002,0.031-0.001,0.068,0,0.109l0,0.007l0,0.008c0.007,0.083,0.022,0.162,0.048,0.239c0.021,0.071,0.053,0.136,0.076,0.178
		l0.007,0.014l0.008,0.014c0.104,0.168,0.137,0.202,0.162,0.227l1.178,1.176l-3.724,1.286l-0.753-0.298
		c-0.111-0.043-0.226-0.064-0.343-0.064c-0.387,0-0.729,0.232-0.871,0.592c-0.189,0.478,0.046,1.022,0.525,1.214l1.238,0.487
		l0.161,0.063l0.164-0.057l10.673-3.685c0.237-0.081,0.427-0.25,0.536-0.475c0.109-0.226,0.125-0.479,0.043-0.716
		c-0.129-0.376-0.484-0.63-0.885-0.63c-0.104,0-0.207,0.018-0.306,0.052l-4.252,1.468c-0.024-0.031-0.051-0.061-0.079-0.088
		l-0.932-0.933l0.368-0.256l0.035-0.022l0.018-0.012l0,0l3.742-0.025c0.188-0.002,0.363-0.076,0.495-0.209
		c0.133-0.133,0.204-0.311,0.203-0.499c-0.004-0.384-0.319-0.697-0.703-0.697l-2.624,0.018c-0.007-0.06-0.018-0.115-0.031-0.158
		c-0.021-0.073-0.057-0.141-0.092-0.205l-0.012-0.035l-0.043-0.058l-0.111-0.151l-0.006-0.008l-0.006-0.007L31.7,28.608
		C31.521,28.386,31.255,28.259,30.97,28.259L30.97,28.259L30.97,28.259z"/>
	<path fill="#FFFFFF" d="M29.082,26.319c0.397,0,0.792,0.168,1.07,0.494c0.5,0.59,0.428,1.475-0.163,1.975
		c-0.263,0.224-0.585,0.333-0.906,0.333c-0.397,0-0.792-0.168-1.069-0.495c-0.5-0.59-0.428-1.474,0.162-1.975
		C28.439,26.428,28.761,26.319,29.082,26.319 M29.082,25.85L29.082,25.85c-0.442,0-0.872,0.157-1.208,0.443
		c-0.786,0.667-0.883,1.85-0.217,2.636c0.356,0.42,0.876,0.661,1.427,0.661c0.442,0,0.872-0.158,1.209-0.444
		c0.381-0.323,0.614-0.775,0.655-1.273c0.041-0.498-0.115-0.981-0.438-1.363C30.152,26.09,29.632,25.85,29.082,25.85L29.082,25.85z"
		/>
</g>
</svg>
