<?xml version="1.0" encoding="utf-8"?>
<!-- Generator: Adobe Illustrator 16.0.0, SVG Export Plug-In . SVG Version: 6.00 Build 0)  -->
<!DOCTYPE svg PUBLIC "-//W3C//DTD SVG 1.1//EN" "http://www.w3.org/Graphics/SVG/1.1/DTD/svg11.dtd">
<svg version="1.1" id="Icon" xmlns="http://www.w3.org/2000/svg" xmlns:xlink="http://www.w3.org/1999/xlink" x="0px" y="0px"
	 width="15px" height="15px" viewBox="24.5 24.5 15 15" enable-background="new 24.5 24.5 15 15" xml:space="preserve">
<rect x="24.5" y="24.5" fill="none" width="15" height="15"/>
<g>
	<path fill="#333333" d="M37.853,29.655l-5.614-3.313c-0.149-0.086-0.333-0.086-0.48,0.001l-5.612,3.337
		c-0.222,0.132-0.295,0.42-0.163,0.643c0.132,0.222,0.419,0.295,0.642,0.163c0,0,0.143-0.085,0.38-0.226v6.994
		c0,0.26,0.21,0.469,0.469,0.469h9.053c0.259,0,0.469-0.209,0.469-0.469v-7.016c0.236,0.14,0.38,0.225,0.38,0.225
		c0.223,0.132,0.511,0.058,0.643-0.166C38.149,30.074,38.076,29.787,37.853,29.655z M36.059,36.785c-0.797,0-7.319,0-8.116,0
		c0-0.755,0-6.154,0-7.083c1.495-0.889,3.766-2.239,4.056-2.412c0.294,0.172,2.565,1.512,4.06,2.394
		C36.059,30.556,36.059,36.025,36.059,36.785z"/>
	<path fill="#333333" d="M33.486,35.014c-0.385,0.257-0.838,0.385-1.363,0.385c-0.523,0-0.977-0.128-1.361-0.385
		c-0.687-0.457-1.03-1.172-1.03-2.143c0-1.136,0.371-1.951,1.112-2.445c0.384-0.256,0.824-0.385,1.32-0.385
		c0.524,0,0.937,0.101,1.238,0.302c0.577,0.384,0.852,0.906,0.824,1.565h-0.906c-0.027-0.586-0.192-0.792-0.494-0.993
		c-0.165-0.11-0.385-0.165-0.662-0.165c-0.249,0-0.469,0.064-0.661,0.192c-0.549,0.366-0.824,0.865-0.824,1.874
		c0,0.879,0.233,1.334,0.701,1.646c0.22,0.146,0.467,0.22,0.743,0.22c0.25,0,0.484-0.073,0.704-0.22
		c0.274-0.184,0.425-0.464,0.453-1.123h0.988C34.187,34.162,33.926,34.721,33.486,35.014z"/>
	<path fill="#FFFFFF" d="M27.943,29.703c0,0.929,0,6.328,0,7.083c0.797,0,7.319,0,8.116,0c0-0.76,0-6.229,0-7.101
		c-1.495-0.882-3.766-2.222-4.06-2.394C31.708,27.463,29.438,28.813,27.943,29.703z M33.403,30.343
		c0.577,0.384,0.852,0.906,0.824,1.565h-0.906c-0.027-0.586-0.192-0.792-0.494-0.993c-0.165-0.11-0.385-0.165-0.662-0.165
		c-0.249,0-0.469,0.064-0.661,0.192c-0.549,0.366-0.824,0.865-0.824,1.874c0,0.879,0.233,1.334,0.7,1.646
		c0.22,0.146,0.467,0.22,0.743,0.22c0.25,0,0.484-0.073,0.704-0.22c0.274-0.184,0.426-0.464,0.453-1.123h0.988
		c-0.082,0.823-0.343,1.382-0.782,1.675c-0.385,0.257-0.838,0.385-1.363,0.385c-0.523,0-0.977-0.128-1.361-0.385
		c-0.687-0.457-1.03-1.172-1.03-2.143c0-1.136,0.371-1.951,1.112-2.445c0.385-0.256,0.824-0.385,1.32-0.385
		C32.689,30.041,33.102,30.142,33.403,30.343z"/>
	<path fill="#FFFFFF" d="M38.092,29.251l-5.615-3.313c-0.147-0.085-0.312-0.13-0.478-0.13c-0.169,0-0.335,0.046-0.481,0.133
		l-5.611,3.337c-0.215,0.128-0.368,0.333-0.43,0.575c-0.062,0.243-0.025,0.495,0.104,0.71c0.167,0.282,0.476,0.458,0.805,0.458
		c0.051,0,0.101-0.004,0.15-0.012v6.245c0,0.518,0.421,0.938,0.938,0.938h9.053c0.518,0,0.938-0.42,0.938-0.938v-6.27
		c0.05,0.008,0.099,0.012,0.149,0.012c0.33,0,0.64-0.177,0.808-0.461C38.685,30.09,38.536,29.515,38.092,29.251z M38.019,30.296
		c-0.132,0.224-0.419,0.298-0.643,0.166c0,0-0.143-0.085-0.38-0.225v7.016c0,0.26-0.21,0.469-0.469,0.469h-9.053
		c-0.258,0-0.469-0.209-0.469-0.469V30.26c-0.236,0.141-0.38,0.226-0.38,0.226c-0.222,0.133-0.51,0.06-0.642-0.163
		c-0.133-0.223-0.06-0.51,0.163-0.643l5.612-3.337c0.147-0.088,0.331-0.088,0.48-0.001l5.615,3.313
		C38.076,29.787,38.149,30.074,38.019,30.296z"/>
</g>
</svg>
