<?xml version="1.0" encoding="utf-8"?>
<!-- Generator: Adobe Illustrator 16.0.0, SVG Export Plug-In . SVG Version: 6.00 Build 0)  -->
<!DOCTYPE svg PUBLIC "-//W3C//DTD SVG 1.1//EN" "http://www.w3.org/Graphics/SVG/1.1/DTD/svg11.dtd">
<svg version="1.1" id="Icon" xmlns="http://www.w3.org/2000/svg" xmlns:xlink="http://www.w3.org/1999/xlink" x="0px" y="0px"
	 width="15px" height="15px" viewBox="24.5 24.5 15 15" enable-background="new 24.5 24.5 15 15" xml:space="preserve">
<rect x="24.5" y="24.5" fill="none" width="15" height="15"/>
<g>
	<polygon fill="#333333" points="38.045,37.846 37.107,37.846 37.107,31.072 33.662,31.072 33.662,27.091 30.337,27.091 
		30.337,31.072 26.892,31.072 26.892,37.801 25.955,37.801 25.955,30.134 29.4,30.134 29.4,26.154 34.6,26.154 34.6,30.134 
		38.045,30.134 	"/>
	<path fill="#FFFFFF" d="M34.6,26.154v3.98h3.445v7.711h-0.938v-6.774h-3.445v-3.98h-3.325v3.98h-3.445v6.729h-0.938v-7.667H29.4
		v-3.98H34.6 M34.6,25.658h-5.2c-0.274,0-0.496,0.222-0.496,0.496v3.484h-2.949c-0.274,0-0.496,0.222-0.496,0.497v7.667
		c0,0.274,0.222,0.496,0.496,0.496h0.938c0.274,0,0.496-0.222,0.496-0.496v-6.233h2.949c0.274,0,0.496-0.222,0.496-0.496v-3.484
		h2.333v3.484c0,0.274,0.222,0.496,0.495,0.496h2.949v6.278c0,0.274,0.223,0.496,0.496,0.496h0.938c0.274,0,0.496-0.222,0.496-0.496
		v-7.711c0-0.274-0.222-0.497-0.496-0.497h-2.949v-3.484C35.096,25.88,34.874,25.658,34.6,25.658L34.6,25.658z"/>
</g>
</svg>
