<?xml version="1.0" encoding="utf-8"?>
<!-- Generator: Adobe Illustrator 16.0.0, SVG Export Plug-In . SVG Version: 6.00 Build 0)  -->
<!DOCTYPE svg PUBLIC "-//W3C//DTD SVG 1.1//EN" "http://www.w3.org/Graphics/SVG/1.1/DTD/svg11.dtd">
<svg version="1.1" id="Icon" xmlns="http://www.w3.org/2000/svg" xmlns:xlink="http://www.w3.org/1999/xlink" x="0px" y="0px"
	 width="15px" height="15px" viewBox="24.5 24.5 15 15" enable-background="new 24.5 24.5 15 15" xml:space="preserve">
<rect x="24.5" y="24.5" fill="none" width="15" height="15"/>
<g>
	<path fill="#333333" d="M33.823,32.017c1.822-0.827,3.115-2.851,3.115-5.214h-0.82c0,2.483-1.629,4.53-3.709,4.771v-4.807h-0.82
		v4.807c-2.078-0.24-3.708-2.289-3.708-4.771h-0.82c0,2.363,1.292,4.387,3.114,5.214c-1.821,0.828-3.114,2.852-3.114,5.215h0.82
		c0-2.484,1.629-4.532,3.708-4.772v4.742h0.82V32.46c2.08,0.241,3.709,2.289,3.709,4.772h0.82
		C36.938,34.869,35.646,32.845,33.823,32.017z"/>
	<path fill="#FFFFFF" d="M32.409,26.768v4.807c2.08-0.241,3.709-2.289,3.709-4.771h0.82c0,2.363-1.293,4.387-3.115,5.214
		c1.822,0.828,3.115,2.852,3.115,5.215h-0.82c0-2.483-1.629-4.531-3.709-4.772v4.742h-0.82V32.46
		c-2.078,0.24-3.708,2.288-3.708,4.772h-0.82c0-2.363,1.292-4.388,3.114-5.215c-1.821-0.827-3.114-2.851-3.114-5.214h0.82
		c0,2.483,1.629,4.531,3.708,4.771v-4.807H32.409 M36.938,26.803h0.002 M32.409,26.299h-0.82c-0.259,0-0.469,0.21-0.469,0.469v4.234
		c-1.589-0.474-2.77-2.21-2.77-4.198c0-0.259-0.21-0.469-0.469-0.469h-0.82c-0.259,0-0.469,0.209-0.469,0.469
		c0,2.168,1.007,4.126,2.625,5.214c-1.618,1.088-2.625,3.047-2.625,5.215c0,0.259,0.21,0.469,0.469,0.469h0.82
		c0.259,0,0.469-0.21,0.469-0.469c0-1.988,1.181-3.725,2.77-4.199v4.169c0,0.259,0.21,0.469,0.469,0.469h0.82
		c0.259,0,0.469-0.21,0.469-0.469v-4.169c1.591,0.475,2.771,2.211,2.771,4.199c0,0.259,0.21,0.469,0.469,0.469h0.82
		c0.259,0,0.469-0.21,0.469-0.469c0-2.168-1.008-4.127-2.626-5.215c1.612-1.083,2.619-3.031,2.626-5.189
		c0.001-0.008,0.001-0.017,0.001-0.024c0-0.259-0.209-0.469-0.468-0.469h-0.002h-0.82c-0.259,0-0.469,0.209-0.469,0.469
		c0,1.988-1.181,3.724-2.771,4.198v-4.234C32.878,26.509,32.668,26.299,32.409,26.299L32.409,26.299z"/>
</g>
</svg>
