<?xml version="1.0" encoding="utf-8"?>
<!-- Generator: Adobe Illustrator 21.1.0, SVG Export Plug-In . SVG Version: 6.00 Build 0)  -->
<svg version="1.1" id="レイヤー_1" xmlns="http://www.w3.org/2000/svg" xmlns:xlink="http://www.w3.org/1999/xlink" x="0px"
	 y="0px" viewBox="0 0 11 11" enable-background="new 0 0 11 11" xml:space="preserve">
<g>
	<path fill="#5A80BE" d="M7.15,3.678C7.216,3.846,7.249,4.03,7.249,4.235c0,0.224-0.037,0.429-0.103,0.609
		c-0.07,0.183-0.169,0.337-0.301,0.466C6.714,5.438,6.552,5.54,6.358,5.606c-0.194,0.07-0.414,0.103-0.667,0.103H4.877V2.882h0.763
		c0.275,0,0.513,0.033,0.715,0.095C6.556,3.04,6.721,3.131,6.853,3.249C6.985,3.366,7.084,3.509,7.15,3.678z"/>
	<path fill="#FFFFFF" d="M8.57,3.08c-0.13-0.3-0.33-0.56-0.59-0.77C7.71,2.1,7.39,1.95,7,1.84C6.62,1.73,6.17,1.68,5.68,1.68H3.41
		v7.73h1.47V6.92h0.74c0.52,0,0.97-0.07,1.37-0.21c0.39-0.14,0.72-0.33,0.99-0.58c0.26-0.25,0.46-0.54,0.59-0.88
		c0.14-0.34,0.2-0.71,0.21-1.12C8.78,3.74,8.71,3.39,8.57,3.08z M7.15,4.84c-0.07,0.19-0.17,0.34-0.3,0.47
		c-0.14,0.13-0.3,0.23-0.49,0.3c-0.2,0.07-0.42,0.1-0.67,0.1H4.88V2.88h0.76c0.27,0,0.51,0.04,0.71,0.1
		c0.21,0.06,0.37,0.15,0.5,0.27s0.23,0.26,0.3,0.43c0.07,0.17,0.1,0.35,0.1,0.56C7.25,4.46,7.21,4.66,7.15,4.84z"/>
	<path fill="#5A80BE" d="M5.5,0C2.464,0,0,2.464,0,5.5S2.464,11,5.5,11S11,8.536,11,5.5S8.536,0,5.5,0z M8.573,5.251
		C8.441,5.592,8.239,5.885,7.975,6.134c-0.264,0.249-0.594,0.44-0.986,0.579C6.593,6.853,6.138,6.923,5.617,6.923H4.877v2.482H3.41
		V1.676h2.266c0.499,0,0.942,0.055,1.327,0.161c0.385,0.11,0.708,0.268,0.972,0.477c0.264,0.209,0.462,0.466,0.598,0.77
		C8.708,3.388,8.778,3.74,8.778,4.132C8.774,4.536,8.708,4.906,8.573,5.251z"/>
</g>
</svg>
