<?xml version="1.0" encoding="utf-8"?>
<!-- Generator: Adobe Illustrator 20.1.0, SVG Export Plug-In . SVG Version: 6.00 Build 0)  -->
<svg version="1.1" id="レイヤー_1" xmlns="http://www.w3.org/2000/svg" xmlns:xlink="http://www.w3.org/1999/xlink" x="0px"
	 y="0px" viewBox="0 0 11 11" enable-background="new 0 0 11 11" xml:space="preserve">
<g>
	<path d="M6,3.8L8.2,3l2.3-0.7L8.2,1.5L6,0.8V0c0,0,0,0,0,0H5.1c0,0,0,0,0,0v8.5H6L6,3.8L6,3.8z"/>
	<path d="M6.5,6.3v0.4C7.3,6.9,7.8,7.4,7.8,8c0,0.8-1,1.5-2.3,1.5C4.2,9.6,3.2,8.9,3.2,8c0-0.6,0.5-1.1,1.3-1.4V6.3
		C2.2,6.5,0.5,7.5,0.5,8.6c0,1.3,2.3,2.4,5,2.4s5-1.1,5-2.4C10.5,7.5,8.8,6.5,6.5,6.3z"/>
</g>
</svg>
