<?xml version="1.0" encoding="utf-8"?>
<!-- Generator: Adobe Illustrator 21.1.0, SVG Export Plug-In . SVG Version: 6.00 Build 0)  -->
<svg version="1.1" id="レイヤー_1" xmlns="http://www.w3.org/2000/svg" xmlns:xlink="http://www.w3.org/1999/xlink" x="0px"
	 y="0px" viewBox="0 0 15 15" enable-background="new 0 0 15 15" xml:space="preserve">
<g>
	<path d="M12.59,8.23c1.06,0,1.91-0.86,1.91-1.91c0-1.06-0.85-1.91-1.91-1.91h-0.04c-0.21-0.55-0.52-1.05-0.88-1.5
		c0.18-0.29,0.28-0.63,0.28-1c0-1.06-0.85-1.91-1.9-1.91C9.32,0,8.7,0.41,8.38,1C8.09,0.95,7.8,0.91,7.5,0.91S6.91,0.95,6.62,1
		C6.3,0.41,5.68,0,4.95,0c-1.05,0-1.9,0.85-1.9,1.91c0,0.37,0.1,0.71,0.28,1c-0.36,0.45-0.67,0.95-0.88,1.5H2.41
		c-1.06,0-1.91,0.85-1.91,1.91c0,1.05,0.85,1.91,1.91,1.91c0.01,0,0.03-0.01,0.04-0.01c0.21,0.56,0.52,1.06,0.89,1.51
		c-0.19,0.29-0.29,0.63-0.29,1c0,0.59,0.27,1.11,0.69,1.46L2.83,13.8H2V15h11v-1.2h-0.83l-0.91-1.61c0.42-0.35,0.69-0.87,0.69-1.46
		c0-0.37-0.1-0.71-0.29-1c0.37-0.45,0.68-0.95,0.89-1.51C12.56,8.22,12.58,8.23,12.59,8.23z M11.92,4.54
		C11.29,4.77,10.83,5.32,10.71,6h-0.7C9.93,5.31,9.56,4.7,9.03,4.3l0.35-0.61c0.21,0.08,0.43,0.13,0.67,0.13
		c0.45,0,0.86-0.17,1.19-0.43C11.51,3.74,11.75,4.12,11.92,4.54z M8.17,11.02c-0.22,0.03-0.44,0.07-0.67,0.07s-0.45-0.04-0.67-0.07
		c0.02-0.09,0.03-0.19,0.03-0.29c0-0.59-0.27-1.12-0.69-1.47l0.34-0.6c0.31,0.13,0.64,0.2,0.99,0.2s0.68-0.07,0.99-0.2l0.09,0.17
		l0.25,0.43c-0.42,0.35-0.69,0.88-0.69,1.47C8.14,10.83,8.15,10.93,8.17,11.02z M7.5,5.36c-0.06,0-0.11,0.03-0.16,0.04L6.77,4.42
		C7,4.33,7.24,4.28,7.5,4.28S8,4.33,8.23,4.42L7.66,5.4C7.61,5.39,7.56,5.36,7.5,5.36z M8.23,8.21C8,8.3,7.76,8.35,7.5,8.35
		S7,8.3,6.77,8.21l0.57-0.97c0.05,0.01,0.1,0.03,0.16,0.03s0.11-0.02,0.16-0.03L8.23,8.21z M6.78,5.71C6.71,5.8,6.65,5.89,6.61,6
		H5.5c0.08-0.51,0.34-0.95,0.72-1.26L6.78,5.71z M6.61,6.64c0.04,0.1,0.1,0.2,0.17,0.29L6.22,7.89C5.84,7.58,5.58,7.14,5.5,6.64
		H6.61z M8.78,7.89L8.22,6.93c0.07-0.09,0.13-0.19,0.17-0.29H9.5C9.42,7.14,9.16,7.58,8.78,7.89z M8.39,6
		c-0.04-0.11-0.1-0.2-0.17-0.29l0.56-0.97C9.16,5.05,9.42,5.49,9.5,6H8.39z M8.78,1.83c0.02-0.46,0.3-0.86,0.7-1.05
		c0.08-0.04,0.16-0.07,0.25-0.09c0.1-0.04,0.21-0.05,0.32-0.05c0.7,0,1.27,0.57,1.27,1.27c0,0.08-0.01,0.15-0.03,0.22
		c0,0.04-0.01,0.07-0.02,0.1c-0.01,0.06-0.03,0.12-0.05,0.18L11.21,2.4c-0.08,0.2-0.22,0.36-0.39,0.5
		c-0.05,0.04-0.11,0.08-0.16,0.12c-0.01,0-0.01,0-0.01,0c-0.12,0.07-0.25,0.12-0.39,0.14c-0.07,0.01-0.14,0.02-0.21,0.02
		c-0.06,0-0.11,0-0.17-0.02C9.85,3.15,9.82,3.14,9.8,3.14C9.78,3.13,9.75,3.12,9.72,3.11C9.51,3.06,9.3,2.96,9.15,2.81
		c-0.06-0.06-0.12-0.13-0.17-0.2C8.91,2.49,8.85,2.36,8.82,2.23C8.81,2.2,8.8,2.17,8.8,2.13C8.78,2.06,8.77,1.98,8.77,1.91
		C8.77,1.88,8.77,1.86,8.78,1.83z M6.86,1.91c0-0.1-0.01-0.2-0.03-0.3C7.05,1.58,7.27,1.54,7.5,1.54s0.45,0.04,0.67,0.07
		c-0.02,0.1-0.03,0.2-0.03,0.3c0,0.59,0.27,1.11,0.69,1.46l-0.34,0.6c-0.31-0.13-0.64-0.2-0.99-0.2s-0.68,0.07-0.99,0.2l-0.34-0.6
		C6.59,3.02,6.86,2.5,6.86,1.91z M4.95,0.64c0.11,0,0.22,0.01,0.32,0.05c0.09,0.02,0.17,0.05,0.25,0.09c0.4,0.19,0.68,0.59,0.7,1.05
		c0.01,0.03,0.01,0.05,0.01,0.08c0,0.07-0.01,0.15-0.03,0.22c0,0.04-0.01,0.07-0.02,0.1C6.15,2.36,6.09,2.49,6.02,2.61
		c-0.05,0.07-0.11,0.14-0.17,0.2C5.66,3,5.4,3.13,5.12,3.16C5.06,3.18,5.01,3.18,4.95,3.18c-0.07,0-0.14-0.01-0.21-0.02
		C4.6,3.13,4.47,3.08,4.35,3.02c0,0,0,0-0.01,0C4.09,2.88,3.89,2.66,3.79,2.4L3.78,2.41C3.76,2.35,3.74,2.29,3.73,2.23
		C3.72,2.2,3.71,2.17,3.71,2.13C3.69,2.06,3.68,1.99,3.68,1.91C3.68,1.21,4.25,0.64,4.95,0.64z M3.76,3.39
		C4.09,3.65,4.5,3.82,4.95,3.82c0.24,0,0.46-0.05,0.67-0.13L5.97,4.3C5.44,4.7,5.07,5.31,4.99,6h-0.7C4.17,5.32,3.71,4.77,3.08,4.54
		C3.25,4.12,3.49,3.74,3.76,3.39z M2.41,7.59c-0.06,0-0.11-0.03-0.16-0.03c-0.01,0-0.02-0.01-0.04-0.01
		C2.14,7.54,2.07,7.52,2.01,7.5C1.88,7.46,1.76,7.4,1.65,7.32C1.59,7.28,1.54,7.24,1.5,7.19C1.43,7.12,1.38,7.05,1.33,6.97
		c-0.04-0.05-0.06-0.1-0.08-0.15C1.2,6.72,1.17,6.62,1.16,6.5C1.14,6.44,1.14,6.38,1.14,6.31V6.28c0-0.08,0.01-0.15,0.03-0.23
		C1.18,5.98,1.21,5.9,1.24,5.83c0.02-0.06,0.05-0.12,0.09-0.17c0.21-0.37,0.62-0.62,1.08-0.62c0.17,0,0.33,0.03,0.48,0.1
		c0.1,0.04,0.2,0.09,0.28,0.16C3.24,5.35,3.3,5.41,3.36,5.48c0.06,0.07,0.11,0.16,0.16,0.24C3.63,5.89,3.68,6.1,3.68,6.31
		c0,0.12-0.01,0.22-0.05,0.32L3.62,6.64c-0.02,0.1-0.06,0.19-0.1,0.27C3.47,7,3.42,7.08,3.36,7.15C3.31,7.21,3.25,7.26,3.19,7.32
		C3.16,7.34,3.14,7.36,3.11,7.37C3.04,7.42,2.97,7.46,2.89,7.49C2.74,7.56,2.58,7.59,2.41,7.59z M3.08,8.1
		c0.63-0.24,1.09-0.79,1.21-1.46h0.7c0.08,0.69,0.45,1.29,0.98,1.7l-0.35,0.6C5.41,8.87,5.19,8.82,4.95,8.82
		c-0.45,0-0.86,0.16-1.19,0.43C3.49,8.9,3.25,8.52,3.08,8.1z M3.73,11.05c-0.01-0.03-0.02-0.06-0.02-0.1
		c-0.02-0.07-0.03-0.15-0.03-0.22c0-0.18,0.04-0.35,0.1-0.5c0.09-0.2,0.24-0.36,0.41-0.49C4.24,9.7,4.3,9.66,4.36,9.62
		c0.05-0.03,0.1-0.05,0.15-0.08C4.57,9.52,4.63,9.5,4.69,9.49c0.08-0.03,0.17-0.04,0.26-0.04c0.08,0,0.15,0.02,0.22,0.04
		C5.21,9.5,5.25,9.51,5.28,9.52C5.49,9.57,5.7,9.68,5.85,9.83c0.23,0.23,0.38,0.55,0.38,0.9c0,0.03,0,0.05-0.01,0.08
		c0,0.08-0.02,0.17-0.04,0.24c-0.08,0.34-0.31,0.62-0.62,0.79c-0.01,0.01-0.03,0.02-0.05,0.02c-0.08,0.04-0.17,0.08-0.26,0.1
		C5.16,11.99,5.06,12,4.95,12c-0.06,0-0.11,0-0.16-0.02c-0.28-0.03-0.54-0.16-0.73-0.35c-0.11-0.11-0.2-0.24-0.26-0.38
		C3.77,11.18,3.75,11.12,3.73,11.05z M11.38,13.8H3.62l0.67-1.29c0.21,0.08,0.43,0.13,0.66,0.13c0.73,0,1.35-0.41,1.67-1
		c0.29,0.05,0.58,0.09,0.88,0.09s0.59-0.04,0.88-0.09c0.32,0.59,0.94,1,1.67,1c0.23,0,0.45-0.05,0.66-0.13L11.38,13.8z M11.29,10.95
		c0,0.04-0.01,0.07-0.02,0.1c-0.02,0.07-0.04,0.13-0.07,0.2c-0.06,0.14-0.15,0.27-0.26,0.38c-0.19,0.19-0.45,0.32-0.73,0.35
		C10.16,12,10.11,12,10.05,12c-0.11,0-0.21-0.01-0.3-0.04c-0.09-0.02-0.18-0.06-0.26-0.1c-0.02,0-0.04-0.01-0.05-0.02
		c-0.31-0.17-0.54-0.45-0.62-0.79c-0.02-0.07-0.04-0.16-0.04-0.24c-0.01-0.03-0.01-0.05-0.01-0.08c0-0.35,0.15-0.67,0.38-0.9
		C9.3,9.68,9.51,9.57,9.72,9.52C9.75,9.51,9.79,9.5,9.83,9.49c0.07-0.02,0.14-0.04,0.22-0.04c0.09,0,0.18,0.01,0.26,0.04
		c0.06,0.01,0.12,0.03,0.18,0.05c0.05,0.03,0.1,0.05,0.15,0.08c0.06,0.04,0.12,0.08,0.17,0.12c0.17,0.13,0.32,0.29,0.41,0.49
		c0.06,0.15,0.1,0.32,0.1,0.5C11.32,10.8,11.31,10.88,11.29,10.95z M11.24,9.25c-0.33-0.27-0.74-0.43-1.19-0.43
		c-0.24,0-0.46,0.05-0.67,0.12L9.13,8.51l-0.1-0.17c0.53-0.41,0.9-1.01,0.98-1.7h0.7c0.12,0.67,0.58,1.22,1.21,1.46
		C11.75,8.52,11.51,8.9,11.24,9.25z M11.89,7.37c-0.03-0.01-0.05-0.03-0.08-0.05c-0.06-0.06-0.12-0.11-0.17-0.17
		C11.58,7.08,11.53,7,11.48,6.91c-0.04-0.08-0.08-0.17-0.1-0.27l-0.01-0.01c-0.04-0.1-0.05-0.2-0.05-0.32
		c0-0.21,0.05-0.42,0.16-0.59c0.05-0.08,0.1-0.17,0.16-0.24s0.12-0.13,0.19-0.18c0.08-0.07,0.18-0.12,0.28-0.16
		c0.15-0.07,0.31-0.1,0.48-0.1c0.46,0,0.87,0.25,1.08,0.62c0.04,0.05,0.07,0.11,0.09,0.17c0.03,0.07,0.06,0.15,0.07,0.22
		c0.02,0.08,0.03,0.15,0.03,0.23v0.03c0,0.07,0,0.13-0.02,0.19c-0.01,0.12-0.04,0.22-0.09,0.32c-0.02,0.05-0.04,0.1-0.08,0.15
		c-0.05,0.08-0.1,0.15-0.17,0.22c-0.04,0.05-0.09,0.09-0.15,0.13c-0.11,0.08-0.23,0.14-0.36,0.18c-0.06,0.02-0.13,0.04-0.2,0.05
		c-0.02,0-0.03,0.01-0.04,0.01c-0.05,0-0.1,0.03-0.16,0.03c-0.17,0-0.33-0.03-0.48-0.1C12.03,7.46,11.96,7.42,11.89,7.37z"/>
	<path fill="#FFFFFF" d="M3.682,6.313c0,0.115-0.013,0.216-0.051,0.318c-0.127,0.56-0.636,0.954-1.222,0.954
		c-0.585,0-1.095-0.395-1.222-0.954C1.149,6.529,1.136,6.427,1.136,6.313c0-0.7,0.573-1.273,1.273-1.273S3.682,5.613,3.682,6.313z
		 M4.955,9.456c-0.7,0-1.273,0.573-1.273,1.273c0,0.115,0.013,0.216,0.051,0.318c0.127,0.547,0.636,0.955,1.222,0.955
		c0.585,0,1.095-0.407,1.222-0.955c0.038-0.102,0.051-0.204,0.051-0.318C6.227,10.029,5.655,9.456,4.955,9.456z M10.045,3.182
		c0.585,0,1.095-0.407,1.222-0.955c0.038-0.102,0.051-0.204,0.051-0.318c0-0.7-0.573-1.273-1.273-1.273
		c-0.7,0-1.273,0.573-1.273,1.273c0,0.115,0.013,0.216,0.051,0.318C8.951,2.775,9.46,3.182,10.045,3.182z M10.045,9.456
		c-0.7,0-1.273,0.573-1.273,1.273c0,0.115,0.013,0.216,0.051,0.318c0.127,0.547,0.636,0.955,1.222,0.955
		c0.585,0,1.095-0.407,1.222-0.955c0.038-0.102,0.051-0.204,0.051-0.318C11.318,10.029,10.745,9.456,10.045,9.456z M4.955,0.636
		c-0.7,0-1.273,0.573-1.273,1.273c0,0.115,0.013,0.216,0.051,0.318C3.86,2.775,4.369,3.182,4.955,3.182
		c0.585,0,1.095-0.407,1.222-0.955c0.038-0.102,0.051-0.204,0.051-0.318C6.227,1.209,5.655,0.636,4.955,0.636z M12.591,5.04
		c-0.7,0-1.273,0.573-1.273,1.273c0,0.115,0.013,0.216,0.051,0.318c0.127,0.56,0.636,0.954,1.222,0.954s1.095-0.395,1.222-0.954
		c0.038-0.102,0.051-0.204,0.051-0.318C13.864,5.613,13.291,5.04,12.591,5.04z"/>
	<path fill="#50AAEF" d="M13.813,6.631c-0.127,0.56-0.636,0.954-1.222,0.954s-1.095-0.395-1.222-0.954H13.813z"/>
	<path fill="#990099" d="M11.267,11.047c-0.127,0.547-0.636,0.955-1.222,0.955c-0.585,0-1.095-0.407-1.222-0.955H11.267z"/>
	<path fill="#EB3553" d="M6.176,2.227C6.049,2.775,5.54,3.182,4.955,3.182c-0.585,0-1.095-0.407-1.222-0.955H6.176z"/>
	<path fill="#FF6600" d="M6.176,11.047c-0.127,0.547-0.636,0.955-1.222,0.955c-0.585,0-1.095-0.407-1.222-0.955H6.176z"/>
	<path fill="#F8F500" d="M11.267,2.227c-0.127,0.547-0.636,0.955-1.222,0.955c-0.585,0-1.095-0.407-1.222-0.955H11.267z"/>
	<path fill="#4FB543" d="M3.631,6.631c-0.127,0.56-0.636,0.954-1.222,0.954c-0.585,0-1.095-0.395-1.222-0.954H3.631z"/>
</g>
</svg>
