<?xml version="1.0" encoding="utf-8"?>
<!-- Generator: Adobe Illustrator 16.0.0, SVG Export Plug-In . SVG Version: 6.00 Build 0)  -->
<!DOCTYPE svg PUBLIC "-//W3C//DTD SVG 1.1//EN" "http://www.w3.org/Graphics/SVG/1.1/DTD/svg11.dtd">
<svg version="1.1" id="Icon" xmlns="http://www.w3.org/2000/svg" xmlns:xlink="http://www.w3.org/1999/xlink" x="0px" y="0px"
	 width="15px" height="15px" viewBox="24.5 24.5 15 15" enable-background="new 24.5 24.5 15 15" xml:space="preserve">
<rect x="24.5" y="24.5" fill="none" width="15" height="15"/>
<g>
	<circle fill="#017356" cx="32.027" cy="29.785" r="0.784"/>
	<path fill="#FFFFFF" d="M32.027,29c0.434,0,0.786,0.352,0.786,0.784c0,0.434-0.352,0.785-0.786,0.785
		c-0.432,0-0.784-0.351-0.784-0.785C31.243,29.352,31.595,29,32.027,29 M32.027,28.589c-0.659,0-1.195,0.536-1.195,1.195
		s0.536,1.196,1.195,1.196c0.66,0,1.196-0.537,1.196-1.196S32.687,28.589,32.027,28.589L32.027,28.589z"/>
	<circle fill="#017356" cx="32.027" cy="27.767" r="0.784"/>
	<path fill="#FFFFFF" d="M32.027,26.983c0.434,0,0.786,0.351,0.786,0.784c0,0.434-0.352,0.785-0.786,0.785
		c-0.432,0-0.784-0.351-0.784-0.785C31.243,27.334,31.595,26.983,32.027,26.983 M32.027,26.572c-0.659,0-1.195,0.536-1.195,1.195
		c0,0.66,0.536,1.196,1.195,1.196c0.66,0,1.196-0.536,1.196-1.196C33.223,27.108,32.687,26.572,32.027,26.572L32.027,26.572z"/>
	<circle fill="#017356" cx="29.791" cy="27.167" r="0.784"/>
	<path fill="#FFFFFF" d="M29.791,26.383c0.433,0,0.785,0.351,0.785,0.784s-0.352,0.785-0.785,0.785
		c-0.432,0-0.784-0.352-0.784-0.785S29.359,26.383,29.791,26.383 M29.791,25.972c-0.659,0-1.195,0.536-1.195,1.195
		c0,0.66,0.536,1.196,1.195,1.196s1.196-0.536,1.196-1.196C30.987,26.508,30.45,25.972,29.791,25.972L29.791,25.972z"/>
	<path fill="#017356" d="M28.939,28.913c0,0.433-0.351,0.785-0.785,0.785c-0.432,0-0.784-0.352-0.784-0.785s0.352-0.784,0.784-0.784
		C28.588,28.128,28.939,28.479,28.939,28.913z"/>
	<path fill="#FFFFFF" d="M28.154,28.128c0.434,0,0.785,0.351,0.785,0.784s-0.351,0.785-0.785,0.785
		c-0.432,0-0.784-0.352-0.784-0.785S27.722,28.128,28.154,28.128 M28.154,27.717c-0.659,0-1.195,0.536-1.195,1.195
		s0.536,1.196,1.195,1.196c0.66,0,1.196-0.537,1.196-1.196S28.813,27.717,28.154,27.717L28.154,27.717z"/>
	<circle fill="#017356" cx="34.209" cy="27.167" r="0.784"/>
	<path fill="#FFFFFF" d="M34.209,26.383c0.433,0,0.784,0.351,0.784,0.784s-0.352,0.785-0.784,0.785s-0.784-0.352-0.784-0.785
		S33.776,26.383,34.209,26.383 M34.209,25.972c-0.659,0-1.195,0.536-1.195,1.195c0,0.66,0.536,1.196,1.195,1.196
		s1.195-0.536,1.195-1.196C35.404,26.508,34.868,25.972,34.209,25.972L34.209,25.972z"/>
	<circle fill="#017356" cx="35.846" cy="28.913" r="0.784"/>
	<path fill="#FFFFFF" d="M35.846,28.128c0.433,0,0.784,0.351,0.784,0.784s-0.352,0.785-0.784,0.785s-0.784-0.352-0.784-0.785
		S35.413,28.128,35.846,28.128 M35.846,27.717c-0.659,0-1.195,0.536-1.195,1.195s0.536,1.196,1.195,1.196s1.195-0.537,1.195-1.196
		S36.505,27.717,35.846,27.717L35.846,27.717z"/>
	<path fill="#017356" d="M36.187,32.165c0.242-0.124,0.416-0.258,0.416-0.481v-0.36c0-0.223-0.181-0.404-0.404-0.404h-8.341
		c-0.223,0-0.404,0.181-0.404,0.404v0.36c0,0.223,0.133,0.327,0.416,0.484c0.127,0.072,0.882,0.589,1.676,1.139v1.92
		c-0.803,0.561-1.566,1.089-1.676,1.144c-0.243,0.125-0.416,0.258-0.416,0.481v0.361c0,0.222,0.181,0.403,0.404,0.403h8.341
		c0.224,0,0.404-0.182,0.404-0.403v-0.361c0-0.224-0.134-0.327-0.416-0.486c-0.127-0.069-0.882-0.587-1.676-1.138V33.31
		C35.313,32.748,36.076,32.221,36.187,32.165z"/>
	<path fill="#FFFFFF" d="M36.198,30.919c0.224,0,0.404,0.181,0.404,0.404v0.36c0,0.223-0.174,0.357-0.416,0.481
		c-0.11,0.056-0.873,0.583-1.676,1.145v1.919c0.794,0.551,1.549,1.068,1.676,1.138c0.282,0.159,0.416,0.263,0.416,0.486v0.361
		c0,0.222-0.181,0.403-0.404,0.403h-8.341c-0.223,0-0.404-0.182-0.404-0.403v-0.361c0-0.224,0.173-0.356,0.416-0.481
		c0.11-0.055,0.874-0.583,1.676-1.144v-1.92c-0.794-0.55-1.549-1.067-1.676-1.139c-0.282-0.158-0.416-0.262-0.416-0.484v-0.36
		c0-0.223,0.181-0.404,0.404-0.404H36.198 M36.198,30.508h-8.341c-0.449,0-0.815,0.366-0.815,0.815v0.36
		c0,0.493,0.377,0.704,0.626,0.843c0.032,0.019,0.238,0.146,1.466,0.996v1.49c-1.081,0.753-1.389,0.957-1.454,0.992
		c-0.173,0.089-0.638,0.327-0.638,0.847v0.361c0,0.449,0.366,0.814,0.815,0.814h8.341c0.449,0,0.815-0.365,0.815-0.814v-0.361
		c0-0.492-0.377-0.704-0.626-0.844c-0.072-0.041-0.499-0.326-1.466-0.995v-1.49c1.209-0.844,1.419-0.975,1.455-0.994
		c0.172-0.087,0.637-0.325,0.637-0.845v-0.36C37.014,30.874,36.647,30.508,36.198,30.508L36.198,30.508z"/>
</g>
</svg>
