<?xml version="1.0" encoding="utf-8"?>
<!-- Generator: Adobe Illustrator 16.0.0, SVG Export Plug-In . SVG Version: 6.00 Build 0)  -->
<!DOCTYPE svg PUBLIC "-//W3C//DTD SVG 1.1//EN" "http://www.w3.org/Graphics/SVG/1.1/DTD/svg11.dtd">
<svg version="1.1" id="Icon" xmlns="http://www.w3.org/2000/svg" xmlns:xlink="http://www.w3.org/1999/xlink" x="0px" y="0px"
	 width="15px" height="15px" viewBox="24.5 24.5 15 15" enable-background="new 24.5 24.5 15 15" xml:space="preserve">
<rect x="24.5" y="24.5" fill="none" width="15" height="15"/>
<g>
	<path fill="#333333" d="M37.676,33.546c-0.088-0.366-0.457-0.591-0.823-0.502l-2.077,0.34l-2.263-1.35l-0.68-2.19l3.337,0.469
		c0.375,0.028,0.702-0.254,0.73-0.631c0.028-0.375-0.255-0.704-0.631-0.731l-4.104-0.577c-0.026-0.002-0.052,0.001-0.079,0.002
		c-0.011-0.001-0.023,0.001-0.035,0.001c-0.015,0.001-0.028,0.002-0.043,0.005c-0.037,0.002-0.073,0-0.109,0.012l-1.887,0.625
		c-0.021,0.006-0.034,0.02-0.052,0.029c-0.002,0.001-0.004,0.002-0.005,0.003c-0.062,0.031-0.114,0.074-0.155,0.126
		c-0.017,0.017-0.038,0.025-0.052,0.043l-2.289,2.405c-0.24,0.291-0.198,0.721,0.094,0.961c0.292,0.238,0.722,0.196,0.961-0.095
		l1.589-1.668l0.622,2.005l-0.816,4.778c-0.05,0.374,0.211,0.718,0.586,0.768c0.374,0.05,0.717-0.213,0.767-0.586l0.739-4.324
		l0.802-0.266l2.515,1.5c0.105,0.059,0.219,0.084,0.331,0.085c0.018,0,0.036,0.002,0.054,0.001c0.008-0.001,0.014-0.002,0.021-0.003
		c0.035-0.004,0.068-0.007,0.104-0.015l2.346-0.396C37.54,34.282,37.765,33.913,37.676,33.546z"/>
	<circle fill="#333333" cx="29.351" cy="26.984" r="1.365"/>
	<circle fill="#333333" cx="34.562" cy="36.532" r="1.249"/>
	<path fill="#FFFFFF" d="M31.147,28.374c0.006,0,0.013,0,0.019,0l4.104,0.577c0.376,0.027,0.659,0.356,0.631,0.731
		c-0.026,0.359-0.326,0.633-0.68,0.633c-0.017,0-0.034,0-0.051-0.002l-3.337-0.469l0.68,2.19l2.263,1.35l2.077-0.34
		c0.054-0.014,0.107-0.02,0.161-0.02c0.308,0,0.588,0.21,0.662,0.521c0.089,0.367-0.136,0.736-0.502,0.825l-2.346,0.396
		c-0.035,0.008-0.068,0.011-0.104,0.015c-0.008,0.001-0.014,0.002-0.021,0.003c-0.003,0-0.007,0-0.011,0
		c-0.015,0-0.029-0.001-0.043-0.001c-0.112-0.001-0.226-0.026-0.331-0.085l-2.515-1.5l-0.802,0.266l-0.739,4.324
		c-0.046,0.343-0.339,0.592-0.675,0.592c-0.03,0-0.061-0.002-0.092-0.006c-0.375-0.05-0.636-0.394-0.586-0.768l0.816-4.778
		l-0.622-2.005l-1.589,1.668c-0.135,0.164-0.331,0.249-0.528,0.249c-0.152,0-0.306-0.051-0.433-0.154
		c-0.292-0.24-0.333-0.67-0.094-0.961l2.289-2.405c0.015-0.018,0.036-0.026,0.052-0.043c0.041-0.052,0.092-0.095,0.155-0.126
		c0.001-0.001,0.003-0.002,0.005-0.003c0.018-0.009,0.032-0.023,0.052-0.029l1.887-0.625c0.036-0.012,0.072-0.01,0.109-0.012
		c0.015-0.002,0.028-0.004,0.043-0.005c0.001,0,0.002,0,0.003,0c0.009,0,0.018-0.001,0.026-0.001c0.002,0,0.004,0,0.006,0
		C31.107,28.375,31.127,28.374,31.147,28.374 M31.147,27.905L31.147,27.905L31.147,27.905c-0.021,0-0.042,0.001-0.062,0.002h-0.003
		c-0.012,0-0.024,0-0.037,0.001c-0.012,0-0.024,0-0.036,0.002c-0.014,0.001-0.028,0.002-0.042,0.004
		c-0.043,0.001-0.124,0.004-0.214,0.035l-1.886,0.625c-0.062,0.02-0.111,0.05-0.137,0.066c-0.095,0.05-0.18,0.115-0.252,0.194
		c-0.022,0.017-0.048,0.04-0.076,0.07l-2.281,2.397c-0.008,0.008-0.015,0.017-0.022,0.025c-0.196,0.237-0.287,0.537-0.257,0.843
		c0.03,0.306,0.177,0.582,0.414,0.777c0.208,0.169,0.466,0.262,0.731,0.262c0.34,0,0.659-0.147,0.878-0.405l1.027-1.08l0.353,1.136
		l-0.797,4.667c-0.001,0.006-0.002,0.012-0.002,0.017c-0.042,0.306,0.039,0.608,0.226,0.854c0.187,0.244,0.458,0.4,0.763,0.441
		c0.05,0.007,0.102,0.01,0.153,0.01c0.57,0,1.058-0.425,1.139-0.989l0.69-4.039l0.331-0.109l2.331,1.39
		c0.004,0.002,0.008,0.005,0.012,0.007c0.17,0.095,0.356,0.143,0.556,0.145c0.02,0.001,0.033,0.001,0.047,0.001
		c0.008,0,0.026,0,0.034-0.001c0.012,0,0.023-0.001,0.035-0.003l0.014-0.002l0.011-0.001c0.034-0.003,0.079-0.008,0.132-0.02
		l2.334-0.395c0.011-0.002,0.021-0.004,0.032-0.006c0.616-0.15,0.997-0.773,0.848-1.392c-0.125-0.518-0.584-0.88-1.118-0.88
		c-0.085,0-0.169,0.01-0.253,0.028l-1.892,0.31l-1.962-1.17L32.5,30.411l2.605,0.366c0.01,0.001,0.02,0.002,0.03,0.003
		c0.029,0.002,0.058,0.003,0.086,0.003c0.6,0,1.104-0.469,1.146-1.067c0.023-0.305-0.074-0.603-0.275-0.836
		c-0.197-0.229-0.471-0.369-0.771-0.395l-4.09-0.575c-0.011-0.001-0.022-0.002-0.033-0.003
		C31.181,27.906,31.164,27.905,31.147,27.905L31.147,27.905L31.147,27.905z"/>
	<path fill="#FFFFFF" d="M29.351,25.619c0.754,0,1.365,0.611,1.365,1.365c0,0.754-0.61,1.365-1.365,1.365s-1.365-0.611-1.365-1.365
		C27.985,26.229,28.596,25.619,29.351,25.619 M29.351,25.15c-1.011,0-1.834,0.823-1.834,1.834s0.823,1.833,1.834,1.833
		s1.833-0.822,1.833-1.833S30.362,25.15,29.351,25.15L29.351,25.15z"/>
	<path fill="#FFFFFF" d="M34.562,35.283c0.689,0,1.249,0.559,1.249,1.249s-0.56,1.248-1.249,1.248c-0.69,0-1.25-0.558-1.25-1.248
		S33.872,35.283,34.562,35.283 M34.562,34.814c-0.947,0-1.719,0.771-1.719,1.718c0,0.946,0.771,1.717,1.719,1.717
		s1.718-0.771,1.718-1.717C36.28,35.585,35.51,34.814,34.562,34.814L34.562,34.814z"/>
</g>
</svg>
