<?xml version="1.0" encoding="utf-8"?>
<!-- Generator: Adobe Illustrator 16.0.0, SVG Export Plug-In . SVG Version: 6.00 Build 0)  -->
<!DOCTYPE svg PUBLIC "-//W3C//DTD SVG 1.1//EN" "http://www.w3.org/Graphics/SVG/1.1/DTD/svg11.dtd">
<svg version="1.1" id="Icon" xmlns="http://www.w3.org/2000/svg" xmlns:xlink="http://www.w3.org/1999/xlink" x="0px" y="0px"
	 width="15px" height="15px" viewBox="24.5 24.5 15 15" enable-background="new 24.5 24.5 15 15" xml:space="preserve">
<rect x="24.5" y="24.5" fill="none" width="15" height="15"/>
<g>
	<path fill="#333333" d="M37.534,25.861h-1.604c-0.205,0-0.387,0.134-0.447,0.331l-0.44,1.424h-8.578
		c-0.145,0-0.282,0.067-0.37,0.182c-0.088,0.115-0.119,0.264-0.083,0.404l1.422,5.474c0.053,0.206,0.24,0.351,0.453,0.351h5.43
		c-0.187,0.618-0.45,1.494-0.547,1.815c-0.61,0-5.079,0-5.079,0c-0.259,0-0.469,0.209-0.469,0.469c0,0.248,0.194,0.445,0.438,0.462
		v0.312c-0.195,0.084-0.333,0.278-0.333,0.505c0,0.304,0.246,0.551,0.55,0.551c0.304,0,0.55-0.247,0.55-0.551
		c0-0.212-0.124-0.391-0.299-0.482v-0.328h4.203v0.326c-0.177,0.092-0.301,0.271-0.301,0.484c0,0.304,0.246,0.551,0.55,0.551
		c0.304,0,0.55-0.247,0.55-0.551c0-0.225-0.136-0.418-0.33-0.503v-0.308h0.319c0.207,0,0.39-0.136,0.449-0.334
		c0,0,2.578-9.222,2.709-9.646c0.426,0,1.258,0,1.258,0c0.259,0,0.469-0.21,0.469-0.469C38.003,26.07,37.793,25.861,37.534,25.861z
		 M28.514,33.09c-0.144,0-0.26,0-0.326,0c-0.047-0.183-0.17-0.655-0.32-1.233h0.646V33.09z M28.514,31.388h-0.768
		c-0.099-0.379-0.203-0.78-0.303-1.165h1.07V31.388z M28.514,29.754h-1.192c-0.132-0.511-0.248-0.953-0.312-1.203
		c0.247,0,0.8,0,1.504,0V29.754z M30.646,33.09c-0.611,0-1.203,0-1.663,0v-1.233h1.663V33.09z M30.646,31.388h-1.663v-1.165h1.663
		V31.388z M30.646,29.754h-1.663v-1.203c0.516,0,1.086,0,1.663,0V29.754z M32.687,33.09c-0.443,0-0.998,0-1.572,0v-1.233h1.572
		V33.09z M32.687,31.388h-1.572v-1.165h1.572V31.388z M32.687,29.754h-1.572v-1.203c0.543,0,1.081,0,1.572,0V29.754z M33.542,33.09
		c-0.076,0-0.21,0-0.387,0v-1.233h0.707C33.713,32.435,33.59,32.907,33.542,33.09z M33.984,31.388h-0.829v-1.165h1.131
		C34.188,30.607,34.083,31.008,33.984,31.388z M34.408,29.754h-1.253v-1.203c0.733,0,1.312,0,1.565,0
		C34.655,28.802,34.541,29.244,34.408,29.754z"/>
	<path fill="#FFFFFF" d="M33.155,30.223h1.131c-0.099,0.384-0.203,0.785-0.302,1.165h-0.829V30.223z"/>
	<path fill="#FFFFFF" d="M27.444,30.223h1.07v1.165h-0.768C27.648,31.008,27.543,30.607,27.444,30.223z"/>
	<rect x="31.114" y="30.223" fill="#FFFFFF" width="1.572" height="1.165"/>
	<path fill="#FFFFFF" d="M28.982,29.754v-1.203c0.517,0,1.086,0,1.663,0v1.203H28.982z"/>
	<rect x="28.982" y="30.223" fill="#FFFFFF" width="1.663" height="1.165"/>
	<path fill="#FFFFFF" d="M30.646,31.856v1.233c-0.611,0-1.203,0-1.663,0v-1.233H30.646z"/>
	<path fill="#FFFFFF" d="M31.114,31.856h1.572v1.233c-0.443,0-0.998,0-1.572,0V31.856z"/>
	<path fill="#FFFFFF" d="M31.114,29.754v-1.203c0.544,0,1.082,0,1.572,0v1.203H31.114z"/>
	<path fill="#FFFFFF" d="M28.514,28.552v1.203h-1.191c-0.133-0.511-0.248-0.953-0.312-1.203
		C27.256,28.552,27.81,28.552,28.514,28.552z"/>
	<path fill="#FFFFFF" d="M27.868,31.856h0.646v1.233c-0.144,0-0.259,0-0.326,0C28.141,32.907,28.018,32.435,27.868,31.856z"/>
	<path fill="#FFFFFF" d="M33.155,33.09v-1.233h0.707c-0.149,0.578-0.272,1.051-0.32,1.233C33.466,33.09,33.332,33.09,33.155,33.09z"
		/>
	<path fill="#FFFFFF" d="M34.408,29.754h-1.253v-1.203c0.733,0,1.312,0,1.565,0C34.655,28.802,34.541,29.244,34.408,29.754z"/>
	<path fill="#FFFFFF" d="M37.534,25.861c0.259,0,0.469,0.209,0.469,0.469c0,0.259-0.21,0.469-0.469,0.469c0,0-0.832,0-1.258,0
		c-0.131,0.424-2.709,9.646-2.709,9.646c-0.06,0.198-0.242,0.334-0.449,0.334h-0.319v0.308c0.194,0.085,0.33,0.278,0.33,0.503
		c0,0.304-0.246,0.551-0.55,0.551c-0.304,0-0.55-0.247-0.55-0.551c0-0.213,0.125-0.393,0.301-0.484v-0.326h-4.203v0.328
		c0.175,0.092,0.299,0.271,0.299,0.482c0,0.304-0.246,0.551-0.55,0.551s-0.55-0.247-0.55-0.551c0-0.227,0.137-0.421,0.333-0.505
		v-0.312c-0.244-0.017-0.438-0.214-0.438-0.462c0-0.26,0.21-0.469,0.469-0.469c0,0,4.47,0,5.08,0
		c0.097-0.321,0.36-1.197,0.547-1.815h-5.43c-0.213,0-0.4-0.145-0.453-0.351l-1.421-5.474c-0.037-0.14-0.006-0.289,0.083-0.404
		c0.088-0.114,0.225-0.182,0.37-0.182h8.578l0.44-1.424c0.061-0.197,0.242-0.331,0.447-0.331H37.534 M37.534,25.392h-1.604
		c-0.414,0-0.774,0.266-0.896,0.662l-0.338,1.093h-8.232c-0.288,0-0.564,0.136-0.74,0.363c-0.179,0.231-0.24,0.525-0.167,0.808
		l1.422,5.475c0.106,0.412,0.479,0.701,0.907,0.701h4.799l-0.043,0.143l-0.221,0.735H27.69c-0.517,0-0.938,0.42-0.938,0.938
		c0,0.267,0.115,0.51,0.3,0.681c-0.124,0.171-0.194,0.379-0.194,0.599c0,0.562,0.457,1.02,1.019,1.02
		c0.562,0,1.019-0.457,1.019-1.02c0-0.118-0.021-0.234-0.061-0.342h2.786c-0.04,0.107-0.061,0.224-0.061,0.342
		c0,0.562,0.457,1.02,1.019,1.02s1.019-0.457,1.019-1.02c0-0.149-0.032-0.294-0.093-0.425c0.241-0.108,0.431-0.316,0.511-0.584
		c0.025-0.092,2.126-7.601,2.613-9.313h0.905c0.517,0,0.938-0.42,0.938-0.938S38.051,25.392,37.534,25.392L37.534,25.392z"/>
</g>
</svg>
