<?xml version="1.0" encoding="utf-8"?>
<!-- Generator: Adobe Illustrator 16.0.0, SVG Export Plug-In . SVG Version: 6.00 Build 0)  -->
<!DOCTYPE svg PUBLIC "-//W3C//DTD SVG 1.1//EN" "http://www.w3.org/Graphics/SVG/1.1/DTD/svg11.dtd">
<svg version="1.1" id="Icon" xmlns="http://www.w3.org/2000/svg" xmlns:xlink="http://www.w3.org/1999/xlink" x="0px" y="0px"
	 width="15px" height="15px" viewBox="24.5 24.5 15 15" enable-background="new 24.5 24.5 15 15" xml:space="preserve">
<rect x="24.5" y="24.5" fill="none" width="15" height="15"/>
<g>
	<path fill="#333333" d="M37.143,26.267H26.868h-0.01v11.468h0.938v-3.268h9.348V26.267z M36.078,33.401c-0.755,0-6.101,0-8.283,0
		v-6.07c2.183,0,7.528,0,8.283,0C36.078,28.17,36.078,32.563,36.078,33.401z"/>
	<path fill="#FFFFFF" d="M36.078,33.401c0.006,0,0.014,0,0.02,0c0-0.838,0-5.231,0-6.07c-0.006,0-0.014,0-0.02,0
		c-0.815,0-6.097,0-8.263,0c-0.006,0-0.014,0-0.02,0v6.07c0.006,0,0.014,0,0.02,0C29.981,33.401,35.263,33.401,36.078,33.401z"/>
	<polygon fill="#333333" points="33.456,32.736 31.961,31.838 30.472,32.744 30.837,31 29.544,29.819 31.262,29.639 31.951,28.003 
		32.649,29.636 34.368,29.806 33.08,30.995 	"/>
	<path fill="#FFFFFF" d="M37.143,25.798H26.868c-0.259,0-0.479,0.209-0.479,0.469v11.468c0,0.259,0.21,0.469,0.469,0.469h0.938
		c0.259,0,0.469-0.21,0.469-0.469v-2.799h8.879c0.259,0,0.469-0.21,0.469-0.469v-8.2C37.611,26.007,37.401,25.798,37.143,25.798z
		 M37.143,34.467h-9.348v3.268h-0.938V26.267h0.01h10.275V34.467z"/>
</g>
</svg>
