<?xml version="1.0" encoding="utf-8"?>
<!-- Generator: Adobe Illustrator 16.0.0, SVG Export Plug-In . SVG Version: 6.00 Build 0)  -->
<!DOCTYPE svg PUBLIC "-//W3C//DTD SVG 1.1//EN" "http://www.w3.org/Graphics/SVG/1.1/DTD/svg11.dtd">
<svg version="1.1" id="Icon" xmlns="http://www.w3.org/2000/svg" xmlns:xlink="http://www.w3.org/1999/xlink" x="0px" y="0px"
	 width="15px" height="15px" viewBox="24.5 24.5 15 15" enable-background="new 24.5 24.5 15 15" xml:space="preserve">
<rect x="24.5" y="24.5" fill="none" width="15" height="15"/>
<g>
	<polygon fill="#333333" points="36.682,32.469 36.682,27.787 35.744,27.787 35.744,31.531 32.469,31.531 32.469,27.318 
		27.787,27.318 27.787,28.255 31.531,28.255 31.531,31.531 27.318,31.531 27.318,36.213 28.255,36.213 28.255,32.469 31.531,32.469 
		31.531,36.682 36.213,36.682 36.213,35.744 32.469,35.744 32.469,32.469 	"/>
	<path fill="#FFFFFF" d="M32.469,27.318v4.213h3.275v-3.744h0.938v4.682h-4.213v3.275h3.744v0.938h-4.682v-4.213h-3.276v3.744
		h-0.938v-4.682h4.213v-3.276h-3.745v-0.938H32.469 M32.469,26.849h-4.682c-0.259,0-0.469,0.21-0.469,0.469v0.938
		c0,0.259,0.21,0.469,0.469,0.469h3.276v2.338h-3.745c-0.259,0-0.469,0.21-0.469,0.469v4.682c0,0.259,0.21,0.469,0.469,0.469h0.938
		c0.259,0,0.469-0.21,0.469-0.469v-3.275h2.338v3.744c0,0.259,0.21,0.469,0.469,0.469h4.682c0.259,0,0.469-0.21,0.469-0.469v-0.938
		c0-0.259-0.21-0.469-0.469-0.469h-3.275v-2.338h3.744c0.259,0,0.469-0.21,0.469-0.469v-4.682c0-0.259-0.21-0.469-0.469-0.469
		h-0.938c-0.259,0-0.469,0.21-0.469,0.469v3.275h-2.338v-3.745C32.938,27.059,32.728,26.849,32.469,26.849L32.469,26.849z"/>
</g>
</svg>
