<?xml version="1.0" encoding="utf-8"?>
<!-- Generator: Adobe Illustrator 16.0.0, SVG Export Plug-In . SVG Version: 6.00 Build 0)  -->
<!DOCTYPE svg PUBLIC "-//W3C//DTD SVG 1.1//EN" "http://www.w3.org/Graphics/SVG/1.1/DTD/svg11.dtd">
<svg version="1.1" id="Icon" xmlns="http://www.w3.org/2000/svg" xmlns:xlink="http://www.w3.org/1999/xlink" x="0px" y="0px"
	 width="15px" height="15px" viewBox="24.5 24.5 15 15" enable-background="new 24.5 24.5 15 15" xml:space="preserve">
<rect x="24.5" y="24.5" fill="none" width="15" height="15"/>
<g>
	<path fill="#333333" d="M28.178,29.603l-0.999,8.487h9.643l-0.047-0.523c-0.026-0.283-0.633-6.971-0.753-7.965
		c-0.264-2.174-1.876-3.691-3.924-3.691C30.077,25.91,28.428,27.463,28.178,29.603z M29.131,29.715
		c0.195-1.675,1.416-2.845,2.966-2.845c1.547,0,2.767,1.17,2.97,2.847c0.1,0.822,0.556,5.791,0.703,7.413c-0.864,0-6.626,0-7.512,0
		C28.368,36.197,29.131,29.715,29.131,29.715z"/>
	<path fill="#333333" d="M34.555,36.493l-1.045-4.905c0.453-0.446,0.826-0.933,0.826-1.644c0-1.346-1.015-2.438-2.27-2.438
		c-1.252,0-2.267,1.091-2.267,2.438c0,0.708,0.379,1.206,0.828,1.651l-1.088,4.897H34.555z"/>
	<path fill="#FFFFFF" d="M32.098,26.87c-1.551,0-2.771,1.169-2.966,2.845c0,0-0.763,6.482-0.873,7.415c0.886,0,6.648,0,7.512,0
		c-0.147-1.622-0.604-6.591-0.703-7.413C34.864,28.041,33.645,26.87,32.098,26.87z M29.539,36.493l1.088-4.897
		c-0.449-0.446-0.828-0.943-0.828-1.651c0-1.346,1.015-2.438,2.267-2.438c1.255,0,2.27,1.091,2.27,2.438
		c0,0.711-0.373,1.198-0.826,1.644l1.045,4.905H29.539z"/>
	<path fill="#FFFFFF" d="M37.241,37.525l-0.035-0.392c-0.407-4.455-0.649-7.008-0.72-7.588c-0.293-2.417-2.098-4.104-4.389-4.104
		c-2.263,0-4.107,1.728-4.385,4.107l-1,8.486c-0.016,0.133,0.026,0.266,0.115,0.366c0.089,0.1,0.217,0.157,0.351,0.157h9.643
		c0.132,0,0.257-0.056,0.346-0.152c0.089-0.098,0.133-0.228,0.121-0.358L37.241,37.525z M27.179,38.09l0.999-8.487
		c0.25-2.14,1.899-3.693,3.92-3.693c2.048,0,3.66,1.518,3.924,3.691c0.12,0.994,0.727,7.682,0.753,7.965l0.047,0.523H27.179z"/>
</g>
</svg>
