<?xml version="1.0" encoding="utf-8"?>
<!-- Generator: Adobe Illustrator 16.0.0, SVG Export Plug-In . SVG Version: 6.00 Build 0)  -->
<!DOCTYPE svg PUBLIC "-//W3C//DTD SVG 1.1//EN" "http://www.w3.org/Graphics/SVG/1.1/DTD/svg11.dtd">
<svg version="1.1" id="Icon" xmlns="http://www.w3.org/2000/svg" xmlns:xlink="http://www.w3.org/1999/xlink" x="0px" y="0px"
	 width="15px" height="15px" viewBox="24.5 24.5 15 15" enable-background="new 24.5 24.5 15 15" xml:space="preserve">
<rect x="24.5" y="24.5" fill="none" width="15" height="15"/>
<g>
	<path fill="#333333" d="M35.983,34.104c0,0.519-3.483,3.791-3.984,3.791c-0.5,0-3.983-3.272-3.983-3.791v-7.06
		c0-0.518,0.195-0.938,0.693-0.938c0.322,0,0.637,0.5,0.637,0.5L32,30l2.657-3.396c0,0,0.361-0.498,0.635-0.498
		c0.479,0,0.692,0.419,0.692,0.938V34.104z"/>
	<path fill="#FFFFFF" d="M32,37.094c-0.377,0-3.288-2.892-3.288-3.282v-5.615c0-0.391-0.069-0.708,0.234-0.708
		c0.152,0,0.77,0.894,0.77,0.894L32,31.274V37.094z"/>
	<path fill="#FFFFFF" d="M35.291,26.106c0.479,0,0.692,0.419,0.692,0.938v7.06c0,0.519-3.483,3.791-3.984,3.791
		c-0.5,0-3.983-3.272-3.983-3.791v-7.06c0-0.518,0.195-0.938,0.693-0.938c0.322,0,0.637,0.5,0.637,0.5L32,30l2.657-3.396
		C34.656,26.604,35.018,26.106,35.291,26.106 M35.291,25.637c-0.457,0-0.854,0.473-1.01,0.685L32,29.239l-2.271-2.904
		c-0.124-0.189-0.502-0.698-1.02-0.698c-0.706,0-1.162,0.552-1.162,1.406v7.06c0,0.176,0,0.585,1.951,2.431
		c1.934,1.829,2.346,1.829,2.501,1.829s0.568,0,2.501-1.829c1.951-1.846,1.951-2.255,1.951-2.431v-7.06
		C36.452,26.202,35.985,25.637,35.291,25.637L35.291,25.637z"/>
</g>
</svg>
