<?xml version="1.0" encoding="utf-8"?>
<!-- Generator: Adobe Illustrator 16.0.0, SVG Export Plug-In . SVG Version: 6.00 Build 0)  -->
<!DOCTYPE svg PUBLIC "-//W3C//DTD SVG 1.1//EN" "http://www.w3.org/Graphics/SVG/1.1/DTD/svg11.dtd">
<svg version="1.1" id="Icon" xmlns="http://www.w3.org/2000/svg" xmlns:xlink="http://www.w3.org/1999/xlink" x="0px" y="0px"
	 width="15px" height="15px" viewBox="24.5 24.5 15 15" enable-background="new 24.5 24.5 15 15" xml:space="preserve">
<rect x="24.5" y="24.5" fill="none" width="15" height="15"/>
<g>
	<path fill="#333333" d="M36.454,26.181c0,0-1.079,1.579-1.514,2.215c-0.427-0.638-1.593-2.386-1.593-2.386
		s-1.219,1.795-1.639,2.415c-0.452-0.599-2.143-2.843-2.143-2.843v1.273l0,5.476c-1.535,0.203-2.724,1.48-2.724,3.027
		c0,1.688,1.413,3.06,3.15,3.06c1.738,0,3.151-1.372,3.151-3.06c0-1.547-1.189-2.824-2.725-3.028c0-0.124,0-2.808,0-4.202
		c0.477,0.634,1.326,1.76,1.326,1.76s1.164-1.715,1.598-2.353c0.427,0.639,1.59,2.382,1.59,2.382l2.227-3.256L36.454,26.181z
		 M32.221,35.358c0,1.179-1,2.138-2.229,2.138c-1.229,0-2.229-0.959-2.229-2.138s1-2.138,2.229-2.138
		C31.221,33.221,32.221,34.18,32.221,35.358z"/>
	<ellipse fill="#FFFFFF" cx="29.992" cy="35.358" rx="2.229" ry="2.138"/>
	<path fill="#FFFFFF" d="M37.423,26.275l-0.704-0.481c-0.081-0.055-0.173-0.082-0.264-0.082c-0.149,0-0.297,0.072-0.388,0.205
		l-1.123,1.642c-0.513-0.768-1.206-1.809-1.206-1.809c-0.087-0.13-0.232-0.208-0.389-0.208c0,0-0.001,0-0.002,0
		c-0.154,0-0.3,0.077-0.388,0.206c0,0-0.745,1.098-1.271,1.873L29.94,25.3c-0.09-0.12-0.23-0.187-0.375-0.187
		c-0.049,0-0.1,0.008-0.148,0.024c-0.191,0.064-0.32,0.243-0.32,0.444v1.273l0,5.088c-1.578,0.394-2.724,1.796-2.724,3.415
		c0,1.945,1.624,3.528,3.619,3.528c1.996,0,3.62-1.583,3.62-3.528c0-1.619-1.146-3.022-2.725-3.415c0-0.524,0-1.495,0-2.414
		c0.271,0.361,0.483,0.642,0.483,0.642c0.089,0.118,0.228,0.187,0.375,0.187c0.004,0,0.008,0,0.012,0
		c0.151-0.004,0.291-0.08,0.376-0.206c0,0,0.691-1.018,1.207-1.776c0.512,0.767,1.203,1.803,1.203,1.803
		c0.087,0.129,0.231,0.208,0.388,0.208c0,0,0.001,0,0.002,0c0.155,0,0.3-0.076,0.388-0.204l2.226-3.256
		C37.691,26.713,37.637,26.422,37.423,26.275z M34.932,29.918c0,0-1.163-1.743-1.59-2.382c-0.434,0.637-1.598,2.353-1.598,2.353
		s-0.849-1.126-1.326-1.76c0,1.394,0,4.078,0,4.202c1.536,0.204,2.725,1.481,2.725,3.028c0,1.688-1.414,3.06-3.151,3.06
		c-1.737,0-3.15-1.372-3.15-3.06c0-1.547,1.188-2.824,2.724-3.027l0-5.476v-1.273c0,0,1.691,2.245,2.143,2.843
		c0.42-0.62,1.639-2.415,1.639-2.415s1.166,1.748,1.593,2.386c0.435-0.636,1.514-2.215,1.514-2.215l0.704,0.481L34.932,29.918z"/>
</g>
</svg>
