<?xml version="1.0" encoding="utf-8"?>
<!-- Generator: Adobe Illustrator 16.0.0, SVG Export Plug-In . SVG Version: 6.00 Build 0)  -->
<!DOCTYPE svg PUBLIC "-//W3C//DTD SVG 1.1//EN" "http://www.w3.org/Graphics/SVG/1.1/DTD/svg11.dtd">
<svg version="1.1" id="Icon" xmlns="http://www.w3.org/2000/svg" xmlns:xlink="http://www.w3.org/1999/xlink" x="0px" y="0px"
	 width="15px" height="15px" viewBox="24.5 24.5 15 15" enable-background="new 24.5 24.5 15 15" xml:space="preserve">
<rect x="24.5" y="24.5" fill="none" width="15" height="15"/>
<g>
	<path fill="#333333" d="M25.993,27.21v4.995l4.128,4.585h3.757l4.128-4.585V27.21H25.993z M36.941,28.274c0,0.771,0,3.2,0,3.522
		c-0.243,0.271-3.257,3.617-3.537,3.929c-0.377,0-2.434,0-2.81,0c-0.281-0.312-3.293-3.659-3.537-3.929c0-0.322,0-2.751,0-3.522
		C27.972,28.274,36.027,28.274,36.941,28.274z"/>
	<path fill="#FFFFFF" d="M30.595,35.726c0.376,0,2.43,0,2.809,0h0.001c0.28-0.312,3.294-3.659,3.537-3.929c0-0.322,0-2.751,0-3.522
		c0,0,0,0-0.001,0c-0.918,0-8.968,0-9.883,0c0,0,0,0-0.001,0c0,0.771,0,3.2,0,3.522C27.301,32.067,30.313,35.413,30.595,35.726
		C30.595,35.726,30.595,35.726,30.595,35.726z"/>
	<polygon fill="#333333" points="33.824,29.644 30.174,29.644 30.174,30.708 31.468,30.708 31.468,34.433 32.532,34.433 
		32.532,30.708 33.824,30.708 	"/>
	<path fill="#FFFFFF" d="M38.006,26.742H25.993c-0.259,0-0.469,0.21-0.469,0.469v4.995c0,0.116,0.043,0.228,0.121,0.313l4.127,4.585
		c0.089,0.099,0.216,0.155,0.349,0.155h3.757c0.133,0,0.26-0.057,0.349-0.155l4.128-4.585c0.077-0.086,0.12-0.198,0.12-0.313V27.21
		C38.475,26.952,38.265,26.742,38.006,26.742z M38.006,32.205l-4.128,4.585h-3.757l-4.128-4.585V27.21h12.013V32.205z"/>
</g>
</svg>
