<?xml version="1.0" encoding="utf-8"?>
<!-- Generator: Adobe Illustrator 16.0.0, SVG Export Plug-In . SVG Version: 6.00 Build 0)  -->
<!DOCTYPE svg PUBLIC "-//W3C//DTD SVG 1.1//EN" "http://www.w3.org/Graphics/SVG/1.1/DTD/svg11.dtd">
<svg version="1.1" id="Icon" xmlns="http://www.w3.org/2000/svg" xmlns:xlink="http://www.w3.org/1999/xlink" x="0px" y="0px"
	 width="15px" height="15px" viewBox="24.5 24.5 15 15" enable-background="new 24.5 24.5 15 15" xml:space="preserve">
<rect x="24.5" y="24.5" fill="none" width="15" height="15"/>
<g>
	<path fill="#333333" d="M31.896,27.005c0-0.268-0.217-0.486-0.486-0.486c-0.268,0-0.485,0.217-0.485,0.486l-0.002,2.833
		c0,0-0.127,0.049-0.312,0.049c-0.185,0-0.328-0.048-0.328-0.048l0.002-2.833c0-0.268-0.217-0.486-0.485-0.486
		c-0.268,0-0.486,0.217-0.486,0.486l-0.002,2.831c0,0-0.143,0.054-0.323,0.054s-0.32-0.055-0.32-0.055l0.001-2.83
		c0-0.268-0.217-0.486-0.485-0.486c-0.269,0-0.486,0.217-0.486,0.486c0,0-0.005,2.987-0.002,3.012
		c0.023,0.596,0.479,1.879,1.628,2.18c-0.003,0.022-0.013,5.352-0.013,5.352c0,0.269,0.217,0.486,0.486,0.486
		s0.485-0.218,0.485-0.486c0,0-0.009-5.322-0.011-5.341c1.151-0.272,1.568-1.597,1.62-2.233
		C31.894,29.964,31.896,27.005,31.896,27.005z"/>
	<path fill="#333333" d="M36.298,26.431c0.002-0.236-0.166-0.441-0.398-0.484c-0.233-0.042-0.462,0.087-0.544,0.31
		c-0.895,2.448-1.959,5.458-1.938,5.901c0.041,0.898,1.095,1.541,1.862,1.634v3.784c0,0.269,0.217,0.485,0.485,0.485
		s0.538-0.217,0.538-0.485L36.298,26.431z"/>
	<path fill="#FFFFFF" d="M31.41,26.519c0.269,0,0.486,0.218,0.486,0.486c0,0-0.003,2.959-0.003,2.97
		c-0.052,0.637-0.468,1.961-1.62,2.233c0.002,0.019,0.011,5.341,0.011,5.341c0,0.269-0.217,0.486-0.485,0.486
		s-0.486-0.218-0.486-0.486c0,0,0.01-5.33,0.013-5.352c-1.149-0.301-1.605-1.584-1.628-2.18c-0.003-0.024,0.002-3.012,0.002-3.012
		c0-0.269,0.218-0.486,0.486-0.486c0.268,0,0.485,0.218,0.485,0.486l-0.001,2.83c0,0,0.14,0.055,0.32,0.055s0.323-0.054,0.323-0.054
		l0.002-2.831c0-0.269,0.218-0.486,0.486-0.486c0.269,0,0.485,0.218,0.485,0.486l-0.002,2.833c0,0,0.143,0.048,0.328,0.048
		c0.185,0,0.312-0.049,0.312-0.049l0.002-2.833C30.925,26.736,31.142,26.519,31.41,26.519 M31.41,26.05
		c-0.338,0-0.635,0.177-0.805,0.443c-0.169-0.266-0.467-0.443-0.805-0.443c-0.339,0-0.637,0.178-0.807,0.445
		c-0.038-0.059-0.082-0.114-0.132-0.165c-0.181-0.181-0.42-0.28-0.675-0.28c-0.526,0-0.954,0.428-0.955,0.954
		c-0.004,2.398-0.004,2.901,0,3.031h-0.001c0.024,0.631,0.459,1.979,1.626,2.493c-0.003,0.538-0.006,1.835-0.012,5.021
		c0,0.527,0.428,0.956,0.955,0.956c0.526,0,0.954-0.429,0.954-0.955c-0.005-3.182-0.008-4.473-0.01-5.004
		c1.146-0.489,1.56-1.832,1.617-2.533c0-0.005,0.001-0.011,0.001-0.017c0-0.014,0.001-0.021,0.004-2.99
		C32.365,26.479,31.937,26.05,31.41,26.05L31.41,26.05z"/>
	<path fill="#FFFFFF" d="M35.812,25.939c0.029,0,0.059,0.002,0.088,0.008c0.232,0.043,0.4,0.248,0.398,0.484l0.006,11.145
		c0,0.269-0.27,0.485-0.538,0.485s-0.485-0.217-0.485-0.485v-3.784c-0.768-0.093-1.821-0.735-1.862-1.634
		c-0.021-0.443,1.043-3.453,1.938-5.901C35.427,26.062,35.61,25.939,35.812,25.939 M35.812,25.47c-0.398,0-0.759,0.251-0.896,0.625
		c-1.996,5.457-1.977,5.881-1.967,6.085c0.047,1.013,1.01,1.733,1.862,1.988v3.407c0,0.526,0.428,0.954,0.954,0.954
		c0.546,0,1.007-0.437,1.007-0.954l-0.006-11.145c0.004-0.461-0.325-0.861-0.783-0.945C35.926,25.476,35.868,25.47,35.812,25.47
		L35.812,25.47z"/>
</g>
</svg>
