<?xml version="1.0" encoding="utf-8"?>
<!-- Generator: Adobe Illustrator 16.0.0, SVG Export Plug-In . SVG Version: 6.00 Build 0)  -->
<!DOCTYPE svg PUBLIC "-//W3C//DTD SVG 1.1//EN" "http://www.w3.org/Graphics/SVG/1.1/DTD/svg11.dtd">
<svg version="1.1" id="Icon" xmlns="http://www.w3.org/2000/svg" xmlns:xlink="http://www.w3.org/1999/xlink" x="0px" y="0px"
	 width="15px" height="15px" viewBox="24.5 24.5 15 15" enable-background="new 24.5 24.5 15 15" xml:space="preserve">
<rect x="24.5" y="24.5" fill="none" width="15" height="15"/>
<g>
	<path fill="#333333" d="M33.997,37.808c0,0.137-0.111,0.248-0.247,0.248h-7.732c-0.137,0-0.248-0.111-0.248-0.248v-0.914
		c0-0.137,0.111-0.248,0.248-0.248h7.732c0.136,0,0.247,0.111,0.247,0.248V37.808z"/>
	<path fill="#333333" d="M37.374,30.153c0.177-0.151,0.299-0.336,0.269-0.532c-0.064-0.408-2.117-3.255-2.341-3.568
		c-0.222-0.312-0.744,0.127-0.592,0.354c0.153,0.226,1.055,1.828,1.008,1.932c-0.045,0.104-0.661,0.397-0.685,0.717
		c-0.023,0.321,0.399,0.754,0.724,1.207c0.325,0.452,0.591,0.295,0.974,0.215c0.007-0.002,0.016-0.005,0.023-0.007
		c0.461,0.664,0.832,1.441,0.778,2.391c-0.074,1.356-0.317,2.16-0.745,2.455c-0.237,0.165-0.56,0.18-0.98,0.048
		c-1.168-0.367-1.158-1.752-1.03-3.39c0.037-0.479,0.069-0.894,0.034-1.216c-0.065-0.595-0.29-0.99-0.668-1.174
		c-0.237-0.116-0.487-0.122-0.711-0.085v-0.929c0-0.664-0.96-2.431-3.53-2.431s-3.566,1.735-3.566,2.431v7.149
		c0,0.237,0.192,0.43,0.43,0.43h6.237c0.236,0,0.429-0.192,0.429-0.43v-5.514c0.139-0.04,0.293-0.057,0.408,0
		c0.187,0.092,0.257,0.393,0.282,0.628c0.029,0.257-0.002,0.66-0.035,1.086c-0.11,1.411-0.276,3.542,1.513,4.104
		c0.255,0.081,0.494,0.12,0.716,0.12c0.327,0,0.616-0.087,0.866-0.26c0.631-0.437,0.952-1.357,1.042-2.986
		C38.285,31.79,37.874,30.892,37.374,30.153z"/>
	<path fill="#FFFFFF" d="M32.682,31.184c0,0.237-0.191,0.428-0.429,0.428h-4.739c-0.237,0-0.429-0.191-0.429-0.428v-2.266
		c0-0.238,0.192-0.43,0.429-0.43h4.739c0.237,0,0.429,0.192,0.429,0.43V31.184z"/>
	<path fill="#FFFFFF" d="M33.75,36.646c0.136,0,0.247,0.111,0.247,0.248v0.914c0,0.137-0.111,0.248-0.247,0.248h-7.732
		c-0.137,0-0.248-0.111-0.248-0.248v-0.914c0-0.137,0.111-0.248,0.248-0.248H33.75 M33.75,36.177h-7.732
		c-0.395,0-0.716,0.321-0.716,0.717v0.914c0,0.396,0.321,0.717,0.716,0.717h7.732c0.395,0,0.716-0.321,0.716-0.717v-0.914
		C34.466,36.498,34.145,36.177,33.75,36.177L33.75,36.177z"/>
	<path fill="#FFFFFF" d="M35.097,25.944c0.077,0,0.15,0.031,0.205,0.108c0.224,0.313,2.276,3.16,2.341,3.568
		c0.03,0.196-0.092,0.381-0.269,0.532c0.5,0.738,0.911,1.637,0.85,2.746c-0.09,1.629-0.411,2.55-1.042,2.986
		c-0.25,0.173-0.539,0.26-0.866,0.26c-0.222,0-0.461-0.039-0.716-0.12c-1.789-0.562-1.623-2.693-1.513-4.104
		c0.033-0.426,0.064-0.829,0.035-1.086c-0.025-0.236-0.096-0.536-0.282-0.628c-0.053-0.026-0.113-0.036-0.177-0.036
		c-0.076,0-0.156,0.015-0.231,0.036v5.514c0,0.237-0.192,0.43-0.429,0.43h-6.237c-0.237,0-0.43-0.192-0.43-0.43v-7.149
		c0-0.695,0.997-2.431,3.566-2.431s3.53,1.767,3.53,2.431V29.5c0.076-0.013,0.155-0.02,0.235-0.02c0.157,0,0.319,0.028,0.476,0.105
		c0.378,0.185,0.603,0.58,0.668,1.174c0.035,0.322,0.003,0.737-0.034,1.216c-0.128,1.638-0.138,3.022,1.03,3.39
		c0.188,0.059,0.356,0.089,0.507,0.089c0.186,0,0.343-0.046,0.474-0.137c0.428-0.295,0.671-1.099,0.745-2.455
		c0.054-0.95-0.317-1.728-0.778-2.391c-0.008,0.002-0.017,0.005-0.023,0.007c-0.181,0.038-0.335,0.093-0.482,0.093
		c-0.165,0-0.319-0.069-0.491-0.308c-0.324-0.453-0.747-0.886-0.724-1.207c0.023-0.32,0.64-0.613,0.685-0.717
		c0.047-0.104-0.854-1.706-1.008-1.932C34.595,26.236,34.863,25.944,35.097,25.944 M35.097,25.476c-0.312,0-0.639,0.204-0.794,0.496
		c-0.124,0.234-0.117,0.495,0.02,0.697c0.121,0.179,0.616,1.064,0.838,1.517c-0.254,0.187-0.566,0.454-0.594,0.837
		c-0.008,0.1,0.003,0.198,0.028,0.293c-0.084-0.063-0.167-0.113-0.247-0.152c-0.14-0.068-0.289-0.114-0.447-0.136v-0.456
		c0-0.979-1.207-2.899-3.999-2.899c-2.816,0-4.035,1.92-4.035,2.899v7.149c0,0.495,0.403,0.898,0.898,0.898h6.237
		c0.495,0,0.897-0.403,0.897-0.898v-0.619c0.274,0.61,0.75,1.117,1.559,1.371c0.298,0.094,0.586,0.142,0.856,0.142
		c0.423,0,0.805-0.115,1.133-0.343c0.762-0.527,1.145-1.56,1.243-3.346c0.052-0.929-0.188-1.825-0.733-2.73
		c0.13-0.204,0.183-0.425,0.148-0.646c-0.026-0.164-0.079-0.5-2.378-3.707l-0.046-0.063C35.546,25.587,35.332,25.476,35.097,25.476
		L35.097,25.476z M36.313,34.985c-0.102,0-0.225-0.022-0.366-0.067c-0.768-0.241-0.839-1.168-0.703-2.906
		c0.039-0.503,0.072-0.938,0.032-1.303c-0.016-0.146-0.04-0.278-0.07-0.399c0.058,0.075,0.115,0.15,0.17,0.227
		c0.243,0.339,0.528,0.503,0.872,0.503c0.105,0,0.202-0.015,0.295-0.035c0.389,0.635,0.556,1.224,0.521,1.832
		c-0.089,1.614-0.41,2.003-0.544,2.096C36.487,34.955,36.431,34.985,36.313,34.985L36.313,34.985z"/>
</g>
</svg>
