<?xml version="1.0" encoding="utf-8"?>
<!-- Generator: Adobe Illustrator 16.0.0, SVG Export Plug-In . SVG Version: 6.00 Build 0)  -->
<!DOCTYPE svg PUBLIC "-//W3C//DTD SVG 1.1//EN" "http://www.w3.org/Graphics/SVG/1.1/DTD/svg11.dtd">
<svg version="1.1" id="Icon" xmlns="http://www.w3.org/2000/svg" xmlns:xlink="http://www.w3.org/1999/xlink" x="0px" y="0px"
	 width="15px" height="15px" viewBox="24.5 24.5 15 15" enable-background="new 24.5 24.5 15 15" xml:space="preserve">
<rect x="24.5" y="24.5" fill="none" width="15" height="15"/>
<g>
	<path fill="#333333" d="M36.868,33.654c-0.871,0.041-2.244,0.273-3.462,0.996c-0.468,0.277-0.851,0.586-1.147,0.891v-3.252
		c1.962-0.079,2.64-1.144,2.63-2.207c-0.01-1.104-0.436-1.938-0.479-2.556c-0.043-0.611,0.492-1.371,0.492-1.371
		s-1.124-0.277-1.686,0.529c-0.413-0.464-0.841-0.803-1.064-0.803c-0.223,0-1.052,0.767-1.052,0.767s-0.905-0.932-1.729-0.441
		c0,0,0.495,0.938,0.334,1.333c-0.136,0.336-0.676,1.324-0.601,2.582c0.031,0.506,0.715,2.021,2.637,2.161v3.257
		c-0.296-0.305-0.679-0.612-1.146-0.89c-1.219-0.723-2.592-0.955-3.462-0.996c-1.581-0.071-0.553,0.592,0.617,1.33
		c1.421,0.898,2.492,3.354,3.858,3.118c0.158-0.027,0.286-0.083,0.393-0.158c0.107,0.075,0.235,0.131,0.393,0.158
		c1.367,0.236,2.438-2.22,3.859-3.118C37.421,34.246,38.449,33.583,36.868,33.654z"/>
	<path fill="#FFFFFF" d="M33.255,26.833c0.046-0.046,0.046-0.12,0-0.166c-0.046-0.046-0.12-0.046-0.166,0
		c-0.025,0.025-0.562,0.567-0.829,1.273c-0.381-0.922-0.946-1.271-0.981-1.292c-0.056-0.032-0.127-0.014-0.161,0.042
		c-0.033,0.056-0.015,0.127,0.042,0.16c0.012,0.007,1.21,0.747,1.21,3c0,1.384-0.63,2.235-0.637,2.244
		c-0.039,0.051-0.029,0.125,0.022,0.164c0.021,0.016,0.046,0.024,0.071,0.024c0.035,0,0.07-0.016,0.093-0.047
		c0.028-0.037,0.685-0.917,0.685-2.385c0-0.628-0.089-1.142-0.218-1.563c0.004-0.008,0.012-0.013,0.014-0.022
		C32.595,27.498,33.248,26.84,33.255,26.833z"/>
	<path fill="#FFFFFF" d="M32.152,25.882c0.224,0,0.651,0.339,1.064,0.803c0.333-0.478,0.863-0.575,1.239-0.575
		c0.26,0,0.446,0.046,0.446,0.046s-0.535,0.76-0.492,1.371c0.043,0.619,0.469,1.452,0.479,2.556c0.01,1.062-0.668,2.128-2.63,2.207
		v3.252c0.297-0.305,0.68-0.613,1.147-0.891c1.218-0.723,2.591-0.955,3.462-0.996c0.078-0.003,0.15-0.005,0.217-0.005
		c1.262,0,0.277,0.634-0.834,1.335c-1.356,0.857-2.394,3.135-3.674,3.135c-0.061,0-0.123-0.006-0.185-0.017
		c-0.158-0.027-0.286-0.083-0.393-0.158c-0.107,0.075-0.235,0.131-0.393,0.158c-0.062,0.011-0.124,0.017-0.185,0.017
		c-1.279,0-2.317-2.277-3.673-3.135c-1.112-0.702-2.096-1.335-0.833-1.335c0.066,0,0.138,0.002,0.217,0.005
		c0.871,0.041,2.243,0.273,3.462,0.996c0.467,0.277,0.85,0.585,1.146,0.89v-3.257c-1.922-0.14-2.606-1.655-2.637-2.161
		c-0.075-1.257,0.465-2.246,0.601-2.582c0.161-0.396-0.334-1.333-0.334-1.333c0.172-0.102,0.347-0.143,0.517-0.143
		c0.646,0,1.212,0.583,1.212,0.583S31.929,25.882,32.152,25.882 M32.152,25.413c-0.117,0-0.345,0-1.063,0.616
		c-0.283-0.202-0.713-0.433-1.202-0.433c-0.27,0-0.524,0.07-0.757,0.208c-0.214,0.128-0.291,0.401-0.175,0.622
		c0.185,0.352,0.334,0.808,0.311,0.946c-0.016,0.038-0.037,0.084-0.062,0.139c-0.208,0.464-0.642,1.429-0.57,2.638
		c0.047,0.772,0.869,2.218,2.636,2.545v1.836c-0.14-0.099-0.286-0.193-0.438-0.283c-1.47-0.873-3.063-1.033-3.68-1.062
		c-0.086-0.004-0.166-0.006-0.238-0.006c-0.002,0-0.003,0-0.005,0c-0.27,0-0.89,0.003-1.033,0.497
		c-0.166,0.574,0.507,0.999,1.622,1.703c0.498,0.315,0.98,0.883,1.446,1.432c0.775,0.913,1.508,1.775,2.477,1.775
		c0.088,0,0.177-0.008,0.265-0.023c0.11-0.019,0.214-0.049,0.313-0.089c0.099,0.04,0.203,0.07,0.312,0.089
		c0.088,0.016,0.177,0.023,0.265,0.023c0.97,0,1.703-0.863,2.479-1.776c0.466-0.549,0.947-1.116,1.445-1.431
		c1.115-0.704,1.788-1.129,1.621-1.703c-0.144-0.497-0.77-0.497-1.037-0.497c-0.072,0-0.152,0.002-0.238,0.006
		c-0.617,0.028-2.211,0.188-3.68,1.062c-0.152,0.09-0.299,0.185-0.439,0.284v-1.811c1.944-0.241,2.641-1.493,2.63-2.643
		c-0.007-0.728-0.177-1.342-0.313-1.835c-0.082-0.295-0.153-0.551-0.167-0.749c-0.022-0.321,0.239-0.826,0.409-1.069
		c0.088-0.127,0.108-0.29,0.055-0.434c-0.055-0.145-0.177-0.253-0.326-0.291c-0.025-0.006-0.251-0.06-0.559-0.06
		c-0.479,0-0.902,0.13-1.232,0.374C32.806,25.615,32.446,25.413,32.152,25.413L32.152,25.413z"/>
</g>
</svg>
