<?xml version="1.0" encoding="utf-8"?>
<!-- Generator: Adobe Illustrator 16.0.0, SVG Export Plug-In . SVG Version: 6.00 Build 0)  -->
<!DOCTYPE svg PUBLIC "-//W3C//DTD SVG 1.1//EN" "http://www.w3.org/Graphics/SVG/1.1/DTD/svg11.dtd">
<svg version="1.1" id="Icon" xmlns="http://www.w3.org/2000/svg" xmlns:xlink="http://www.w3.org/1999/xlink" x="0px" y="0px"
	 width="15px" height="15px" viewBox="24.5 24.5 15 15" enable-background="new 24.5 24.5 15 15" xml:space="preserve">
<rect x="24.5" y="24.5" fill="none" width="15" height="15"/>
<g>
	<path fill="#333333" d="M35.965,27.095l-0.168-0.099c-0.054-0.031-1.334-0.763-2.89-0.347c-1.065,0.286-1.741,0.967-2.077,1.39
		c-0.493-0.203-1.394-0.459-2.466-0.172c-1.561,0.418-2.273,1.69-2.303,1.744l-0.091,0.166l2.135,7.701c0,0,1.27-1.104,2.455-1.419
		c1.185-0.318,2.091,0.226,2.128,0.251l0.399,0.245l0.251-0.398c0.007-0.01,0.646-1.016,1.764-1.315
		c1.117-0.3,2.927,0.297,2.927,0.297L35.965,27.095z M30.315,35.148c-0.755,0.201-1.3,0.593-1.674,0.954
		c-0.357-1.332-1.567-5.845-1.657-6.183c0.199-0.279,0.726-0.901,1.624-1.142c1.066-0.285,1.957,0.158,2.105,0.238l1.647,6.152
		C31.852,35.021,31.14,34.927,30.315,35.148z M34.858,33.931c-0.69,0.185-1.226,0.556-1.609,0.907l-1.668-6.227
		c0.254-0.314,0.773-0.836,1.571-1.051c0.899-0.241,1.688,0.034,2.009,0.176c0.094,0.349,1.318,4.919,1.665,6.212
		C36.298,33.815,35.608,33.73,34.858,33.931z"/>
	<path fill="#FFFFFF" d="M33.151,27.56c-0.798,0.214-1.316,0.736-1.571,1.051l1.668,6.227c0.384-0.352,0.919-0.723,1.609-0.907
		c0.75-0.2,1.439-0.115,1.967,0.018c-0.347-1.293-1.571-5.864-1.665-6.212C34.839,27.594,34.051,27.319,33.151,27.56z"/>
	<path fill="#FFFFFF" d="M28.609,28.778c-0.898,0.241-1.425,0.863-1.624,1.142c0.09,0.337,1.3,4.851,1.657,6.183
		c0.374-0.361,0.918-0.753,1.674-0.954c0.825-0.222,1.536-0.128,2.046,0.02l-1.647-6.152C30.565,28.936,29.675,28.492,28.609,28.778
		z"/>
	<path fill="#FFFFFF" d="M38.483,35.021l-2.064-8.043c-0.031-0.121-0.109-0.225-0.218-0.288l-0.168-0.099
		c-0.094-0.055-0.953-0.539-2.147-0.539c-0.373,0-0.743,0.048-1.1,0.144c-0.968,0.26-1.653,0.803-2.1,1.29
		c-0.441-0.144-0.895-0.217-1.352-0.217c-0.367,0-0.734,0.049-1.091,0.145c-1.712,0.458-2.507,1.816-2.592,1.969l-0.092,0.168
		c-0.059,0.107-0.073,0.232-0.041,0.35l2.135,7.701c0.043,0.155,0.162,0.277,0.316,0.323c0.044,0.014,0.09,0.021,0.135,0.021
		c0.111,0,0.221-0.04,0.307-0.115c0.012-0.01,1.205-1.036,2.269-1.32c0.207-0.056,0.419-0.083,0.63-0.083
		c0.665,0,1.123,0.274,1.127,0.277l0.403,0.249c0.077,0.047,0.162,0.069,0.245,0.069c0.156,0,0.309-0.077,0.397-0.219l0.251-0.398
		c0.004-0.007,0.563-0.865,1.488-1.112c0.169-0.046,0.376-0.068,0.615-0.068c0.944,0,2.033,0.354,2.045,0.357
		c0.048,0.016,0.097,0.023,0.146,0.023c0.117,0,0.232-0.044,0.32-0.127C38.475,35.363,38.526,35.188,38.483,35.021z M35.103,34.842
		c-1.118,0.3-1.757,1.306-1.764,1.315l-0.251,0.398l-0.399-0.245c-0.037-0.025-0.944-0.569-2.128-0.251
		c-1.185,0.315-2.455,1.419-2.455,1.419l-2.135-7.701l0.091-0.166c0.03-0.054,0.743-1.326,2.303-1.744
		c1.072-0.287,1.974-0.03,2.466,0.172c0.335-0.422,1.011-1.104,2.077-1.39c1.556-0.417,2.836,0.315,2.89,0.347l0.168,0.098
		l2.064,8.044C38.029,35.139,36.22,34.542,35.103,34.842z"/>
</g>
</svg>
