<?xml version="1.0" encoding="utf-8"?>
<!-- Generator: Adobe Illustrator 20.1.0, SVG Export Plug-In . SVG Version: 6.00 Build 0)  -->
<svg version="1.1" id="レイヤー_1" xmlns="http://www.w3.org/2000/svg" xmlns:xlink="http://www.w3.org/1999/xlink" x="0px"
	 y="0px" viewBox="0 0 11 11" enable-background="new 0 0 11 11" xml:space="preserve">
<path d="M6.3,5.7L6.3,5.7c0.3-0.4,1.4-1.5,1.5-1.6c0-0.3-1.1-0.6-2-0.6V0H5v3.4C4.1,3.5,3.1,3.7,3,4l1.5,1.6v0
	C4.5,6.8,3.8,8.2,3,9.2C3,9.3,2.9,9.4,2.8,9.5C2.2,10.4,1.6,11,1.6,11h1.6l0,0h0c0,0,0.5-0.8,0.8-1.3C4.3,10.2,4.7,11,4.7,11H6l0,0
	h0c0,0,0.5-0.8,0.8-1.3c0.3,0.6,0.6,1,0.7,1.2v0c0,0,0.1,0.1,0.1,0.1h1.6C9.1,11,6.1,7.9,6.3,5.7z M6.6,4.5C6.2,5,6,5.2,5.9,5.3H4.8
	C4.5,5,4.1,4.5,4.1,4.5S5.3,4.1,6.6,4.5z"/>
</svg>
