<?xml version="1.0" encoding="utf-8"?>
<!-- Generator: Adobe Illustrator 21.1.0, SVG Export Plug-In . SVG Version: 6.00 Build 0)  -->
<svg version="1.1" id="レイヤー_1" xmlns="http://www.w3.org/2000/svg" xmlns:xlink="http://www.w3.org/1999/xlink" x="0px"
	 y="0px" viewBox="0 0 11 11" enable-background="new 0 0 11 11" xml:space="preserve">
<g>
	<path d="M10.037,1.967c-0.194,0-0.371,0.088-0.484,0.227C9.138,2.682,8.525,2.99,7.831,2.99c-0.473,0-0.906-0.147-1.27-0.393
		C6.555,2.594,6.551,2.59,6.544,2.583c-0.018-0.015-0.04-0.029-0.051-0.04C5.938,2.15,5.259,1.915,4.537,1.904
		c-0.018,0-0.033,0-0.051,0c-1.057,0-2.011,0.473-2.656,1.222C1.81,3.152,1.788,3.17,1.77,3.192
		C1.697,3.295,1.653,3.423,1.653,3.559C1.649,3.9,1.928,4.183,2.276,4.183c0.194,0,0.371-0.088,0.484-0.227
		c0.411-0.488,1.027-0.796,1.713-0.796c0.172,0,0.341,0.022,0.506,0.059L4.639,3.849L3.634,5.698L3.436,6.069l0,0v0.004L3.429,6.083
		L3.37,6.182h0.004v0.004h0.004C3.223,6.45,2.996,6.667,2.728,6.806C2.632,6.854,2.53,6.898,2.423,6.927
		C2.28,6.971,2.13,6.99,1.976,6.99c-0.132,0-0.261-0.015-0.385-0.048c-0.004,0-0.007-0.004-0.011-0.004c0.007,0,0.011,0,0.015,0
		c-0.037-0.007-0.07-0.015-0.106-0.022C1.44,6.902,1.396,6.883,1.352,6.869c-0.004,0-0.004-0.004-0.011-0.004
		C1.322,6.854,1.3,6.847,1.282,6.836c0,0,0,0.004,0.004,0.004C1.22,6.821,1.146,6.806,1.073,6.806c-0.246,0-0.462,0.121-0.594,0.308
		C0.398,7.232,0.346,7.375,0.346,7.529c0,0.301,0.183,0.554,0.444,0.668C0.801,8.2,0.816,8.208,0.823,8.211
		c0.356,0.143,0.745,0.227,1.156,0.227c0.224,0,0.444-0.026,0.653-0.073c0.55-0.121,1.049-0.385,1.449-0.763
		C4.188,7.503,4.287,7.397,4.379,7.28c0.752,0.249,1.413,0.627,1.934,1.09C6.316,8.373,6.32,8.373,6.32,8.377l1.053,2.146
		c0.007,0.018,0.015,0.04,0.026,0.059l0.015,0.033c0,0.004,0.004,0.004,0.004,0.011c0.044,0.077,0.103,0.143,0.169,0.202
		c0.044,0.04,0.088,0.066,0.139,0.092C7.82,10.971,7.938,11,8.059,11c0.356,0,0.653-0.257,0.715-0.594
		c0.011-0.044,0.011-0.088,0.011-0.132c0-0.117-0.029-0.216-0.066-0.305c0-0.004-0.004-0.004-0.004-0.011L7.644,7.771l0,0
		L7.641,7.76C7.487,7.591,7.318,7.43,7.138,7.276c-0.106-0.092-0.213-0.18-0.33-0.261c-0.316-0.235-0.653-0.44-1.013-0.62
		l1.225-2.253c0.242,0.059,0.492,0.092,0.748,0.092c0.018,0,0.04,0,0.051,0c1.057,0,2.011-0.473,2.656-1.222
		c0.018-0.026,0.04-0.044,0.059-0.066c0.073-0.103,0.117-0.231,0.117-0.367C10.668,2.245,10.385,1.967,10.037,1.967z"/>
	<circle cx="6.749" cy="1.038" r="1.038"/>
</g>
</svg>
