<?xml version="1.0" encoding="utf-8"?>
<!-- Generator: Adobe Illustrator 20.1.0, SVG Export Plug-In . SVG Version: 6.00 Build 0)  -->
<svg version="1.1" id="レイヤー_1" xmlns="http://www.w3.org/2000/svg" xmlns:xlink="http://www.w3.org/1999/xlink" x="0px"
	 y="0px" viewBox="0 0 11 11" enable-background="new 0 0 11 11" xml:space="preserve">
<rect x="0.9" y="0.4" width="9.2" height="1.8"/>
<path d="M5.5,3.2C3,3.2,0.9,4.1,0,5.4v3c0.7,1,1.9,1.7,3.6,2.1c0,0,0.1,0,0.1,0c0,0,0,0,0,0v-2C3,8.2,2.4,7.9,2,7.5
	C2.7,7,3.9,6.6,5.5,6.6S8.4,7,9,7.5C8.6,7.9,8.1,8.2,7.3,8.4v2c0,0,0,0,0,0c0,0,0.1,0,0.1,0c1.6-0.3,2.9-1.1,3.5-2V5.4
	C10.1,4.1,8,3.2,5.5,3.2z M9.5,6.9c-0.8-0.7-2.3-1.1-4-1.1c-1.7,0-3.2,0.4-4,1.1C1.2,6.4,1,5.9,1,5.5C1.9,4.6,3.6,4,5.5,4
	c1.9,0,3.6,0.6,4.5,1.5C10,5.9,9.9,6.4,9.5,6.9z"/>
</svg>
