<?xml version="1.0" encoding="utf-8"?>
<!-- Generator: Adobe Illustrator 16.0.0, SVG Export Plug-In . SVG Version: 6.00 Build 0)  -->
<!DOCTYPE svg PUBLIC "-//W3C//DTD SVG 1.1//EN" "http://www.w3.org/Graphics/SVG/1.1/DTD/svg11.dtd">
<svg version="1.1" id="Icon" xmlns="http://www.w3.org/2000/svg" xmlns:xlink="http://www.w3.org/1999/xlink" x="0px" y="0px"
	 width="15px" height="15px" viewBox="24.5 24.5 15 15" enable-background="new 24.5 24.5 15 15" xml:space="preserve">
<rect x="24.5" y="24.5" fill="none" width="15" height="15"/>
<g>
	<path fill="#333333" d="M37.792,37.018l-1.836-1.329l-0.675-2.678c-0.004-0.023-0.001-0.048-0.008-0.072l-1.23-3.964
		c-0.082-0.252-0.354-0.39-0.605-0.309l-1.989,0.659c-0.146,0.083-0.283,0.168-0.442,0.301l-2.097,2.268
		c-0.028,0.033-0.044,0.07-0.065,0.106l-0.737-1.92c0.473-0.373,0.644-1.205,0.372-2.049c-0.323-0.999-1.141-1.63-1.826-1.409
		c-0.687,0.221-0.981,1.211-0.658,2.21c0.296,0.918,1.01,1.517,1.656,1.438l1.287,3.348c0.038,0.098,0.131,0.157,0.23,0.157
		c0.029,0,0.059-0.004,0.089-0.017c0.127-0.048,0.19-0.191,0.142-0.319l-0.056-0.146c0.061-0.001,0.122-0.004,0.184-0.022
		l2.477-0.561l0.239,0.769c-0.599,0.523-1.414,1.269-1.528,1.536c-0.185,0.429,0.415,2.827,0.415,2.827
		c0.134,0.448,0.545,0.56,0.851,0.479c0.285-0.074,0.535-0.421,0.449-0.808l-0.525-1.983l1.455-1.455l0.654-0.217l0.621,2.469
		c0.034,0.122,0.101,0.227,0.184,0.31c0.013,0.014,0.024,0.029,0.04,0.042c0.006,0.005,0.011,0.009,0.018,0.014
		c0.027,0.023,0.056,0.046,0.088,0.066l2.079,1.487c0.339,0.207,0.782,0.101,0.99-0.24C38.238,37.669,38.132,37.225,37.792,37.018z
		 M30.116,32.092l1.269-1.372l0.314,1.012L30.116,32.092z"/>
	<circle fill="#333333" cx="26.641" cy="35.78" r="0.742"/>
	<ellipse fill="#333333" cx="31.663" cy="27.089" rx="1.44" ry="1.44"/>
	<path fill="#FFFFFF" d="M26.936,26.578c0.614,0,1.264,0.589,1.543,1.453c0.272,0.844,0.101,1.676-0.372,2.049L28.844,32
		c0.021-0.036,0.037-0.073,0.065-0.106l2.097-2.268c0.159-0.132,0.296-0.218,0.442-0.301l1.989-0.659
		c0.049-0.016,0.099-0.023,0.147-0.023c0.203,0,0.393,0.129,0.458,0.332l1.23,3.964c0.007,0.024,0.004,0.049,0.008,0.072
		l0.675,2.678l1.836,1.329c0.34,0.207,0.446,0.651,0.239,0.988c-0.136,0.223-0.373,0.346-0.615,0.346
		c-0.128,0-0.258-0.034-0.375-0.105l-2.079-1.487c-0.032-0.021-0.061-0.043-0.088-0.066c-0.007-0.005-0.012-0.009-0.018-0.014
		c-0.016-0.013-0.027-0.028-0.04-0.042c-0.083-0.083-0.149-0.188-0.184-0.31l-0.621-2.469l-0.654,0.217l-1.455,1.455l0.525,1.983
		c0.086,0.387-0.164,0.733-0.449,0.808c-0.06,0.016-0.124,0.024-0.189,0.024c-0.268,0-0.554-0.143-0.662-0.503
		c0,0-0.599-2.398-0.415-2.827c0.115-0.268,0.93-1.013,1.528-1.536l-0.239-0.769l-2.477,0.561c-0.062,0.019-0.123,0.021-0.184,0.022
		l0.056,0.146c0.048,0.128-0.015,0.271-0.142,0.319c-0.03,0.013-0.06,0.017-0.089,0.017c-0.1,0-0.193-0.06-0.23-0.157L27.65,30.27
		c-0.038,0.005-0.077,0.007-0.116,0.007c-0.614,0-1.262-0.581-1.54-1.444c-0.323-1-0.028-1.989,0.658-2.21
		C26.745,26.592,26.84,26.578,26.936,26.578 M30.116,32.092l1.583-0.36l-0.314-1.012L30.116,32.092 M26.936,26.083L26.936,26.083
		c-0.149,0-0.295,0.023-0.435,0.068c-0.485,0.156-0.86,0.573-1.03,1.143c-0.152,0.513-0.134,1.113,0.053,1.69
		c0.309,0.957,1.021,1.652,1.783,1.769l1.168,3.042c0.109,0.284,0.387,0.476,0.692,0.476c0.095,0,0.187-0.019,0.272-0.053
		c0.176-0.065,0.322-0.204,0.403-0.384c0.02-0.045,0.036-0.091,0.047-0.138l1.776-0.403l0.008,0.027
		c-1.248,1.11-1.36,1.371-1.416,1.5c-0.207,0.481,0.097,1.975,0.389,3.143c0.002,0.007,0.004,0.015,0.006,0.022
		c0.156,0.519,0.602,0.854,1.136,0.854c0.107,0,0.213-0.014,0.316-0.041c0.508-0.133,0.953-0.725,0.804-1.393
		c-0.001-0.006-0.003-0.013-0.005-0.02l-0.452-1.709l1.171-1.17l0.038-0.014l0.492,1.953c0.057,0.208,0.164,0.39,0.312,0.538
		c0.019,0.021,0.043,0.046,0.07,0.069l0.024,0.02c0.028,0.024,0.071,0.059,0.122,0.093l2.071,1.48c0.01,0.007,0.02,0.014,0.029,0.02
		c0.19,0.117,0.409,0.179,0.633,0.179c0.426,0,0.813-0.217,1.037-0.581c0.169-0.276,0.221-0.602,0.145-0.917
		c-0.075-0.309-0.263-0.57-0.529-0.74l-1.677-1.214l-0.62-2.462c-0.003-0.034-0.009-0.082-0.025-0.136l-1.231-3.968
		c-0.132-0.409-0.505-0.68-0.93-0.68c-0.102,0-0.202,0.016-0.299,0.047l-1.994,0.661c-0.03,0.01-0.059,0.023-0.087,0.039
		c-0.15,0.085-0.317,0.186-0.516,0.352c-0.017,0.014-0.032,0.028-0.046,0.044l-1.632,1.765l-0.33-0.858
		c0.438-0.562,0.55-1.443,0.268-2.318C28.607,26.822,27.78,26.083,26.936,26.083L26.936,26.083z"/>
	<path fill="#FFFFFF" d="M26.641,35.039c0.409,0,0.741,0.331,0.741,0.74c0,0.41-0.332,0.742-0.741,0.742
		c-0.41,0-0.742-0.332-0.742-0.742C25.899,35.37,26.231,35.039,26.641,35.039 M26.641,34.544c-0.682,0-1.236,0.555-1.236,1.235
		c0,0.682,0.554,1.236,1.236,1.236c0.681,0,1.235-0.555,1.235-1.236C27.876,35.099,27.322,34.544,26.641,34.544L26.641,34.544z"/>
	<path fill="#FFFFFF" d="M31.663,25.648c0.796,0,1.441,0.645,1.441,1.44c0,0.795-0.645,1.439-1.441,1.439
		c-0.795,0-1.439-0.645-1.439-1.439C30.223,26.293,30.868,25.648,31.663,25.648 M31.663,25.154c-1.066,0-1.934,0.868-1.934,1.934
		s0.867,1.934,1.934,1.934c1.067,0,1.935-0.868,1.935-1.934S32.729,25.154,31.663,25.154L31.663,25.154z"/>
</g>
</svg>
