<?xml version="1.0" encoding="utf-8"?>
<!-- Generator: Adobe Illustrator 16.0.0, SVG Export Plug-In . SVG Version: 6.00 Build 0)  -->
<!DOCTYPE svg PUBLIC "-//W3C//DTD SVG 1.1//EN" "http://www.w3.org/Graphics/SVG/1.1/DTD/svg11.dtd">
<svg version="1.1" id="Icon" xmlns="http://www.w3.org/2000/svg" xmlns:xlink="http://www.w3.org/1999/xlink" x="0px" y="0px"
	 width="15px" height="15px" viewBox="24.5 24.5 15 15" enable-background="new 24.5 24.5 15 15" xml:space="preserve">
<rect x="24.5" y="24.5" fill="none" width="15" height="15"/>
<g>
	<polygon fill="#333333" points="36.053,29.662 34.43,30.118 33.865,38.228 36.725,37.718 	"/>
	<path fill="#333333" d="M30.043,31.451l-0.39-0.046l-0.46,3.806l0.39,0.048c0.425,0.052,0.815-0.017,1.174-0.202
		c0.382-0.2,0.623-0.696,0.718-1.489c0.098-0.808-0.027-1.364-0.373-1.668C30.821,31.652,30.468,31.503,30.043,31.451z"/>
	<path fill="#333333" d="M34.091,29.45l1.687-0.468l-1.032-0.238c0.091-0.519,0.185-1.519-0.264-2.219
		c-0.252-0.392-0.634-0.634-1.136-0.717c-0.432-0.071-0.801,0.022-1.09,0.282c-0.03,0.027-0.057,0.058-0.084,0.087
		c-0.232-0.237-0.516-0.375-0.854-0.4c-0.417-0.03-0.79,0.098-1.109,0.379c-0.527,0.466-0.807,1.281-0.957,1.958l-0.322,0.048
		l0.295,0.073c-0.063,0.314-0.099,0.59-0.118,0.775l-1.246-0.313l-0.586,8.045l5.807,1.458l0.586-8.043l-0.922-0.231
		c0.012-0.077,0.054-0.379,0.077-0.792L34.091,29.45z M32.165,27.046c0.124,0.343,0.182,0.75,0.203,1.151l-0.357-0.082
		C32.014,27.866,32.042,27.437,32.165,27.046z M30.515,26.503c0.225-0.199,0.478-0.288,0.77-0.265
		c0.255,0.019,0.458,0.126,0.622,0.328c-0.243,0.487-0.304,1.086-0.316,1.453l-0.673-0.155l-1.173,0.176
		C29.883,27.474,30.119,26.853,30.515,26.503z M29.675,28.348l2.691,0.671c-0.019,0.377-0.055,0.671-0.071,0.792l-2.734-0.687
		C29.577,28.96,29.61,28.678,29.675,28.348z M32.36,33.675c-0.109,0.905-0.433,1.498-0.969,1.778
		c-0.511,0.267-1.132,0.355-1.863,0.267l-1.203-0.146l0.572-4.729l1.203,0.146c0.731,0.088,1.291,0.304,1.681,0.646
		C32.278,32.075,32.472,32.753,32.36,33.675z M32.43,26.517c0.033-0.041,0.068-0.079,0.106-0.113c0.193-0.172,0.435-0.23,0.741-0.18
		c0.384,0.064,0.662,0.237,0.849,0.528c0.364,0.567,0.285,1.432,0.207,1.897l-1.499-0.345C32.811,27.685,32.71,27.011,32.43,26.517z
		"/>
	<path fill="#FFFFFF" d="M32.01,28.115l0.357,0.083c-0.021-0.401-0.079-0.809-0.203-1.152C32.042,27.437,32.014,27.865,32.01,28.115
		z"/>
	<path fill="#FFFFFF" d="M29.562,29.125l2.734,0.687c0.016-0.121,0.052-0.416,0.071-0.792l-2.691-0.672
		C29.61,28.678,29.577,28.96,29.562,29.125z"/>
	<path fill="#FFFFFF" d="M31.773,31.632c-0.39-0.342-0.95-0.558-1.681-0.646l-1.203-0.146l-0.572,4.729l1.203,0.146
		c0.731,0.089,1.352,0,1.863-0.267c0.537-0.28,0.86-0.872,0.969-1.778C32.465,32.748,32.271,32.07,31.773,31.632z M30.75,35.052
		c-0.358,0.186-0.749,0.254-1.174,0.202l-0.39-0.047l0.46-3.807l0.39,0.047c0.425,0.052,0.778,0.201,1.059,0.448
		c0.346,0.304,0.471,0.86,0.373,1.668C31.373,34.356,31.133,34.852,30.75,35.052z"/>
	<path fill="#FFFFFF" d="M31.59,28.019c0.013-0.366,0.074-0.966,0.316-1.453c-0.165-0.201-0.367-0.309-0.622-0.328
		c-0.029-0.002-0.059-0.003-0.087-0.003c-0.255,0-0.48,0.089-0.682,0.268c-0.396,0.351-0.632,0.971-0.771,1.537l1.173-0.176
		L31.59,28.019z"/>
	<path fill="#FFFFFF" d="M34.333,28.649c0.078-0.465,0.157-1.33-0.207-1.897c-0.187-0.292-0.465-0.464-0.849-0.528
		c-0.07-0.012-0.138-0.017-0.201-0.017c-0.214,0-0.391,0.065-0.54,0.197c-0.038,0.034-0.073,0.072-0.106,0.113
		c0.28,0.495,0.38,1.167,0.404,1.788L34.333,28.649z"/>
	<path fill="#FFFFFF" d="M36.52,29.623c0-0.002-0.001-0.003-0.001-0.004c-0.003-1.003-0.578-1.078-0.578-1.078v0.008
		c-0.02-0.008-0.036-0.02-0.058-0.024l-0.616-0.142c0.058-0.617,0.029-1.456-0.391-2.11c-0.322-0.502-0.825-0.822-1.453-0.926
		c-0.119-0.02-0.235-0.03-0.348-0.03c-0.334,0-0.643,0.088-0.909,0.256c-0.243-0.153-0.515-0.242-0.814-0.264
		c-0.051-0.003-0.103-0.005-0.152-0.005c-0.486,0-0.924,0.168-1.3,0.5c-0.455,0.402-0.8,1.038-1.028,1.893l-0.005,0.001l0.001-0.005
		c0,0-0.451,0.015-0.811,0.187c-0.292,0.141-0.5,0.321-0.602,0.587c-0.034,0.06-0.055,0.126-0.06,0.196l-0.586,8.044
		c-0.017,0.228,0.132,0.434,0.354,0.489l5.807,1.458c0.038,0.01,0.076,0.014,0.114,0.014c0.098,0,0.194-0.03,0.274-0.089
		c0.046-0.032,0.079-0.077,0.11-0.123c0.024,0.043,0.047,0.087,0.084,0.12c0.087,0.077,0.198,0.119,0.313,0.119
		c0.027,0,0.055-0.002,0.082-0.007l2.859-0.51c0.238-0.042,0.404-0.26,0.385-0.5L36.52,29.623z M33.083,38.2l-5.807-1.458
		l0.586-8.045l1.246,0.313c0.019-0.186,0.054-0.461,0.118-0.775l-0.295-0.073l0.322-0.049c0.149-0.677,0.429-1.491,0.957-1.958
		c0.289-0.254,0.622-0.383,0.991-0.383c0.039,0,0.079,0.002,0.118,0.004c0.338,0.025,0.622,0.164,0.854,0.401
		c0.027-0.03,0.054-0.06,0.084-0.087c0.227-0.204,0.502-0.305,0.819-0.305c0.087,0,0.177,0.008,0.271,0.023
		c0.502,0.083,0.884,0.325,1.136,0.717c0.448,0.7,0.354,1.701,0.264,2.219l1.032,0.238l-1.687,0.468l-1.267-0.316
		c-0.023,0.412-0.065,0.714-0.077,0.791l0.922,0.231L33.083,38.2z M33.865,38.228l0.564-8.11l1.623-0.456l0.672,8.056L33.865,38.228
		z"/>
</g>
</svg>
