<?xml version="1.0" encoding="utf-8"?>
<!-- Generator: Adobe Illustrator 16.0.0, SVG Export Plug-In . SVG Version: 6.00 Build 0)  -->
<!DOCTYPE svg PUBLIC "-//W3C//DTD SVG 1.1//EN" "http://www.w3.org/Graphics/SVG/1.1/DTD/svg11.dtd">
<svg version="1.1" id="Icon" xmlns="http://www.w3.org/2000/svg" xmlns:xlink="http://www.w3.org/1999/xlink" x="0px" y="0px"
	 width="15px" height="15px" viewBox="24.5 24.5 15 15" enable-background="new 24.5 24.5 15 15" xml:space="preserve">
<rect x="24.5" y="24.5" fill="none" width="15" height="15"/>
<g>
	<path fill="#333333" d="M37.991,34.551c-0.314-1.521-1.455-1.341-1.726-1.146c-0.052,0.038-0.112,0.057-0.176,0.069
		c-0.31-0.605-0.944-1.787-1.557-2.534c-0.457-0.558-0.968-1.008-1.543-1.523c0.593,0.213,1.368,0.309,2.243,0.067
		c1.85-0.51,2.156-2.894,2.156-2.894s-0.185,0.279-0.764,0.55c-0.604,0.283-1.432-0.489-3.043-0.256
		c-1.481,0.214-1.73,1.447-1.761,1.645c-0.004,0.002-0.005,0.003-0.008,0.005c-0.145-0.219-0.861-1.167-2.256-0.79
		c-1.571,0.426-2.024,1.463-2.69,1.443c-0.639-0.019-0.921-0.202-0.921-0.202s1.229,2.066,3.128,1.801
		c1.578-0.221,2.47-1.271,2.705-1.89c0.034,0.688-0.049,2.404-1.383,4.353c-0.114-0.028-0.231-0.056-0.349-0.069
		c-0.9,0.021-1.53,0.485-1.602,1.872c-0.071,1.385,1.077,2.296,2.161,2.329c1.406,0.041,2.52-1.389,2.258-2.92
		c-0.264-1.531-1.328-1.36-1.604-1.176c-0.029,0.021-0.062,0.032-0.094,0.043c0.377-0.62,1.217-2.278,0.934-4.369
		c0.547,0.579,1.568,1.685,2.02,2.327c0.522,0.744,0.871,1.2,1.092,2.075c-0.054-0.009-0.106-0.017-0.16-0.021
		c-0.898,0.053-1.409,0.597-1.433,1.983c-0.025,1.388,1.275,2.184,2.355,2.077C37.374,37.261,38.306,36.071,37.991,34.551z"/>
	<path fill="#FFFFFF" d="M37.39,26.59c0,0-0.307,2.384-2.156,2.894c-0.362,0.1-0.708,0.142-1.03,0.142
		c-0.456,0-0.866-0.084-1.213-0.209c0.575,0.515,1.086,0.966,1.543,1.523c0.612,0.747,1.247,1.929,1.557,2.534
		c0.063-0.013,0.124-0.031,0.176-0.069c0.09-0.064,0.274-0.128,0.494-0.128c0.441,0,1.021,0.257,1.231,1.273
		c0.314,1.521-0.617,2.71-2.018,2.85c-0.064,0.007-0.129,0.01-0.194,0.01c-1.036,0-2.185-0.781-2.161-2.087
		c0.023-1.387,0.534-1.931,1.433-1.983c0.054,0.005,0.106,0.013,0.16,0.021c-0.221-0.875-0.569-1.331-1.092-2.075
		c-0.451-0.642-1.473-1.749-2.02-2.327c0.283,2.091-0.557,3.749-0.934,4.369c0.032-0.011,0.064-0.022,0.094-0.043
		c0.089-0.06,0.26-0.117,0.46-0.117c0.42,0,0.965,0.256,1.144,1.293c0.259,1.509-0.82,2.921-2.199,2.921
		c-0.02,0-0.04-0.001-0.059-0.001c-1.084-0.033-2.232-0.944-2.161-2.329c0.072-1.387,0.702-1.852,1.602-1.872
		c0.118,0.014,0.235,0.041,0.349,0.069c1.334-1.949,1.417-3.666,1.383-4.353c-0.234,0.62-1.126,1.669-2.705,1.89
		c-0.115,0.016-0.227,0.023-0.337,0.023c-1.707,0-2.792-1.824-2.792-1.824s0.282,0.183,0.921,0.202c0.006,0,0.013,0,0.019,0
		c0.656,0,1.116-1.022,2.671-1.443c0.227-0.062,0.437-0.088,0.628-0.088c0.984,0,1.506,0.694,1.627,0.877
		c0.003-0.002,0.004-0.003,0.008-0.005c0.03-0.197,0.279-1.43,1.761-1.645c0.217-0.031,0.419-0.044,0.608-0.044
		c0.997,0,1.641,0.364,2.128,0.364c0.109,0,0.211-0.018,0.307-0.063C37.205,26.869,37.39,26.59,37.39,26.59 M37.389,26.107
		c-0.156,0-0.302,0.077-0.387,0.219c-0.027,0.033-0.187,0.208-0.574,0.39c-0.019,0.008-0.048,0.019-0.108,0.019
		c-0.139,0-0.339-0.054-0.572-0.118c-0.403-0.109-0.906-0.246-1.556-0.246c-0.222,0-0.449,0.017-0.676,0.049
		c-0.96,0.139-1.562,0.668-1.885,1.25c-0.335-0.254-0.813-0.482-1.444-0.482c-0.243,0-0.496,0.035-0.751,0.104
		c-0.958,0.26-1.543,0.726-1.97,1.067c-0.243,0.193-0.452,0.36-0.579,0.36c-0.435-0.013-0.652-0.112-0.691-0.131
		c-0.079-0.057-0.169-0.084-0.259-0.084c-0.113,0-0.226,0.043-0.316,0.125c-0.166,0.15-0.191,0.403-0.077,0.595
		c0.05,0.084,1.244,2.054,3.194,2.054c0.133,0,0.269-0.009,0.402-0.028c0.863-0.121,1.532-0.457,2.025-0.847
		c-0.15,0.659-0.439,1.46-0.985,2.322c-0.024-0.004-0.05-0.008-0.075-0.011c-0.019-0.002-0.038-0.003-0.058-0.003
		c-0.003,0-0.007,0-0.011,0c-0.885,0.021-1.961,0.439-2.06,2.316c-0.037,0.722,0.208,1.407,0.69,1.931
		c0.494,0.536,1.214,0.869,1.925,0.891c0.024,0.001,0.049,0.002,0.073,0.002c0.751,0,1.476-0.35,1.99-0.959
		c0.247-0.293,0.433-0.626,0.554-0.981c0.097,0.435,0.312,0.829,0.636,1.159c0.498,0.507,1.222,0.81,1.936,0.81
		c0.08,0,0.161-0.004,0.24-0.012c0.82-0.082,1.523-0.47,1.98-1.092c0.468-0.637,0.628-1.461,0.45-2.319
		c-0.316-1.528-1.374-1.647-1.69-1.647c-0.158,0-0.314,0.023-0.454,0.066c-0.355-0.667-0.888-1.595-1.409-2.232
		c-0.16-0.194-0.326-0.377-0.498-0.553c0.32-0.015,0.642-0.067,0.96-0.154c2.126-0.586,2.482-3.176,2.496-3.286
		c0.029-0.222-0.096-0.445-0.308-0.517C37.494,26.116,37.441,26.107,37.389,26.107L37.389,26.107z M32.001,32.729
		c0.276-0.633,0.553-1.501,0.612-2.521c0.425,0.472,0.872,0.992,1.122,1.348l0.1,0.142c0.333,0.473,0.571,0.81,0.747,1.239
		c-0.646,0.161-1.075,0.596-1.285,1.301C33.06,33.127,32.415,32.812,32.001,32.729L32.001,32.729z"/>
</g>
</svg>
