<?xml version="1.0" encoding="utf-8"?>
<!-- Generator: Adobe Illustrator 21.1.0, SVG Export Plug-In . SVG Version: 6.00 Build 0)  -->
<svg version="1.1" id="レイヤー_1" xmlns="http://www.w3.org/2000/svg" xmlns:xlink="http://www.w3.org/1999/xlink" x="0px"
	 y="0px" viewBox="0 0 11 11" enable-background="new 0 0 11 11" xml:space="preserve">
<g>
	<path d="M5.5,0.6c2.702,0,4.9,2.198,4.9,4.9s-2.198,4.9-4.9,4.9S0.6,8.202,0.6,5.5S2.798,0.6,5.5,0.6 M5.5,0C2.462,0,0,2.462,0,5.5
		S2.462,11,5.5,11S11,8.538,11,5.5S8.538,0,5.5,0L5.5,0z"/>
</g>
<g>
	<path d="M9.146,2.445v0.524H4.665c-0.199,0.278-0.493,0.628-0.747,0.89L3.846,3.931c0.056-0.008,0.056-0.008,0.111-0.008
		C4.712,3.907,6.436,3.835,7,3.796l0.302-0.024l-0.056-0.04C7.064,3.589,6.802,3.406,6.587,3.279L7.08,2.985
		c0.533,0.334,1.232,0.858,1.796,1.351L8.367,4.741C8.201,4.567,8.026,4.4,7.819,4.217l-0.04-0.032L7.676,4.193l-0.04,0.008
		c-1.002,0.103-2.734,0.207-4.601,0.27L2.336,4.495L2.161,3.963l0.453-0.008h0.151l0.334-0.008c0.27-0.27,0.596-0.652,0.835-0.977
		H1.82V2.445h3.33V1.714h0.611v0.731H9.146z M8.201,8.564c0,0.477-0.206,0.659-0.763,0.659c-0.286,0-0.62-0.008-1.176-0.039
		L6.135,8.611c0.421,0.047,0.89,0.079,1.16,0.079c0.214,0,0.27-0.056,0.27-0.262V7.682H3.401v1.581H2.765V4.956H8.2v3.608H8.201z
		 M3.401,6.068h4.164V5.441H3.401V6.068z M3.401,7.205h4.164V6.537H3.401V7.205z"/>
</g>
</svg>
