<?xml version="1.0" encoding="utf-8"?>
<!-- Generator: Adobe Illustrator 16.0.0, SVG Export Plug-In . SVG Version: 6.00 Build 0)  -->
<!DOCTYPE svg PUBLIC "-//W3C//DTD SVG 1.1//EN" "http://www.w3.org/Graphics/SVG/1.1/DTD/svg11.dtd">
<svg version="1.1" id="Icon" xmlns="http://www.w3.org/2000/svg" xmlns:xlink="http://www.w3.org/1999/xlink" x="0px" y="0px"
	 width="15px" height="15px" viewBox="24.5 24.5 15 15" enable-background="new 24.5 24.5 15 15" xml:space="preserve">
<rect x="24.5" y="24.5" fill="none" width="15" height="15"/>
<g>
	<polygon fill="#333333" points="35.517,29.437 36.756,30.677 37.711,29.725 36.471,28.483 37.957,26.997 37.004,26.043 
		35.518,27.53 34.274,26.29 33.323,27.243 34.562,28.483 32,31.046 29.437,28.483 30.677,27.244 29.725,26.29 28.482,27.53 
		26.996,26.043 26.042,26.997 27.529,28.483 26.29,29.725 27.243,30.677 28.482,29.437 31.046,32.001 26.042,37.004 26.996,37.957 
		32,32.953 37.004,37.957 37.956,37.003 32.953,32.001 	"/>
	<path fill="#FFFFFF" d="M26.996,26.043l1.486,1.487l1.243-1.24l0.952,0.954l-1.24,1.24L32,31.046l2.563-2.563l-1.239-1.24
		l0.951-0.953l1.243,1.24l1.486-1.487l0.953,0.953l-1.486,1.486l1.24,1.242l-0.955,0.952l-1.239-1.24l-2.563,2.564l5.003,5.002
		l-0.952,0.954L32,32.953l-5.003,5.004l-0.954-0.953l5.004-5.003l-2.564-2.564l-1.24,1.24l-0.953-0.952l1.24-1.242l-1.487-1.486
		L26.996,26.043 M26.996,25.574c-0.124,0-0.244,0.049-0.332,0.137l-0.954,0.954c-0.088,0.088-0.137,0.208-0.137,0.332
		c0,0.125,0.05,0.244,0.138,0.332l1.155,1.155l-0.909,0.911c-0.183,0.183-0.183,0.48,0,0.663l0.953,0.952
		c0.092,0.092,0.211,0.137,0.332,0.137c0.12,0,0.24-0.046,0.331-0.137l0.909-0.908l1.901,1.901l-4.672,4.672
		c-0.088,0.088-0.138,0.207-0.138,0.331c0,0.125,0.05,0.244,0.138,0.332l0.953,0.953c0.092,0.091,0.212,0.137,0.332,0.137
		c0.12,0,0.24-0.046,0.332-0.137L32,33.616l4.673,4.673c0.088,0.088,0.207,0.137,0.331,0.137l0,0c0.124,0,0.244-0.049,0.332-0.138
		l0.952-0.953c0.183-0.184,0.183-0.48,0-0.663l-4.672-4.671l1.9-1.901l0.907,0.908c0.092,0.091,0.212,0.137,0.332,0.137
		c0.119,0,0.239-0.045,0.331-0.137l0.955-0.952c0.088-0.088,0.137-0.207,0.138-0.332c0-0.124-0.05-0.244-0.138-0.332l-0.909-0.911
		l1.156-1.155c0.088-0.088,0.137-0.207,0.137-0.332c0-0.124-0.049-0.244-0.137-0.332l-0.954-0.953
		c-0.088-0.088-0.207-0.137-0.331-0.137l0,0c-0.124,0-0.243,0.049-0.331,0.137l-1.156,1.156l-0.911-0.91
		c-0.091-0.091-0.211-0.137-0.331-0.137s-0.24,0.046-0.331,0.138l-0.952,0.953c-0.183,0.183-0.183,0.479,0,0.663l0.908,0.909
		l-1.9,1.9l-1.9-1.9l0.908-0.908c0.183-0.183,0.183-0.479,0-0.663l-0.952-0.954c-0.091-0.092-0.211-0.138-0.332-0.138
		s-0.24,0.046-0.331,0.137l-0.912,0.91l-1.155-1.156C27.24,25.624,27.121,25.574,26.996,25.574L26.996,25.574z"/>
</g>
</svg>
