<?xml version="1.0" encoding="utf-8"?>
<!-- Generator: Adobe Illustrator 23.1.1, SVG Export Plug-In . SVG Version: 6.00 Build 0)  -->
<svg version="1.1" id="レイヤー_1" xmlns="http://www.w3.org/2000/svg" xmlns:xlink="http://www.w3.org/1999/xlink" x="0px"
	 y="0px" viewBox="0 0 26 12" enable-background="new 0 0 26 12" xml:space="preserve">
<g>
	<g>
		<path fill="#00864A" d="M24.7,12.001H1.3c-0.718,0-1.3-0.582-1.3-1.3v-9.4c0-0.718,0.582-1.3,1.3-1.3h23.4
			c0.718,0,1.3,0.582,1.3,1.3v9.4C26,11.419,25.418,12.001,24.7,12.001z"/>
	</g>
	<g>
		<path fill="#FFFFFF" d="M7.788,7.045V2.332H6.765v1.872c-0.477-0.65-0.91-1.161-1.3-1.534L4.824,3.51
			C5.05,3.727,5.518,4.307,6.228,5.243l0.537-0.78v2.729L4.417,7.496l0.069-0.13C4.053,6.993,3.698,6.595,3.429,6.17V5.945h0.979
			V5.052H3.421V2.34H2.468v2.712H1.22v0.892h1.213c-0.13,0.442-0.338,0.936-0.633,1.49c-0.295,0.546-0.555,0.97-0.797,1.274
			l0.563,0.659c0.329-0.39,0.633-0.84,0.901-1.352v2.296h0.953V7.539c0.217,0.303,0.425,0.537,0.615,0.702l0.277-0.546l0.026,0.832
			l2.426-0.321v2.054h1.022V8.076l0.589-0.078L8.36,6.976L7.788,7.045z"/>
		<path fill="#FFFFFF" d="M2.312,4.645C2.208,3.857,2.121,3.241,2.043,2.782L1.255,2.93c0.156,1.152,0.234,1.785,0.234,1.889
			L2.312,4.645z"/>
		<path fill="#FFFFFF" d="M4.669,2.904L3.854,2.765L3.559,4.688l0.693,0.078C4.469,3.865,4.599,3.241,4.669,2.904z"/>
		<path fill="#FFFFFF" d="M6.488,6.395C6.159,5.91,5.674,5.338,5.041,4.671L4.426,5.546c0.312,0.312,0.788,0.892,1.421,1.75
			L6.488,6.395z"/>
		<path fill="#FFFFFF" d="M14.954,5.624V5.269c0.468,0.355,0.918,0.624,1.334,0.814l0.563-0.962
			c-0.485-0.208-0.936-0.459-1.334-0.745c-0.399-0.286-0.806-0.641-1.213-1.057c-0.407-0.416-0.676-0.745-0.806-0.988h-0.962
			c-0.225,0.477-0.685,1.014-1.369,1.62c-0.685,0.607-1.334,1.057-1.941,1.36l0.503,0.866c0.477-0.251,0.944-0.546,1.404-0.884
			v0.321h1.326v0.762h-2.53v0.944h2.53v1.802h-0.607c-0.217-0.693-0.433-1.282-0.65-1.776L10.275,7.66
			c0.139,0.373,0.303,0.866,0.511,1.473H9.59v0.988h6.871V9.125h-1.248c0.329-0.685,0.546-1.161,0.633-1.438l-1.04-0.321
			c-0.095,0.416-0.303,0.996-0.607,1.759h-0.65V7.323h2.565V6.378H13.55V5.616h1.404V5.624z M11.869,4.723
			c0.485-0.425,0.884-0.866,1.204-1.308c0.286,0.407,0.693,0.849,1.213,1.308H11.869z"/>
		<rect x="17.839" y="2.626" fill="#FFFFFF" width="3.57" height="0.953"/>
		<path fill="#FFFFFF" d="M22.526,4.94V3.753c1.196-0.208,1.958-0.381,2.279-0.503l-0.416-0.918
			c-0.762,0.303-1.716,0.494-2.859,0.589V5.52c0,0.416-0.026,0.936-0.078,1.542c-0.052,0.615-0.173,1.126-0.355,1.542
			s-0.381,0.736-0.581,0.97l0.702,0.693c0.425-0.511,0.736-1.083,0.944-1.698c0.208-0.615,0.329-1.499,0.364-2.643h0.711v4.289
			h1.022V5.928h0.711V4.94L22.526,4.94L22.526,4.94z"/>
		<path fill="#FFFFFF" d="M21.131,4.073h-3.076v2.842c0,0.399-0.009,0.711-0.026,0.936c-0.017,0.234-0.069,0.537-0.156,0.918
			c-0.087,0.381-0.199,0.745-0.355,1.083l0.78,0.494c0.234-0.39,0.416-0.866,0.555-1.404s0.199-1.109,0.199-1.69V7.149h2.08
			L21.131,4.073L21.131,4.073z M20.135,6.274h-1.057l0.009-1.308h1.048L20.135,6.274L20.135,6.274z"/>
	</g>
</g>
</svg>
