<?xml version="1.0" encoding="utf-8"?>
<!-- Generator: Adobe Illustrator 16.0.0, SVG Export Plug-In . SVG Version: 6.00 Build 0)  -->
<!DOCTYPE svg PUBLIC "-//W3C//DTD SVG 1.1//EN" "http://www.w3.org/Graphics/SVG/1.1/DTD/svg11.dtd">
<svg version="1.1" id="Icon" xmlns="http://www.w3.org/2000/svg" xmlns:xlink="http://www.w3.org/1999/xlink" x="0px" y="0px"
	 width="15px" height="15px" viewBox="24.5 24.5 15 15" enable-background="new 24.5 24.5 15 15" xml:space="preserve">
<rect x="24.5" y="24.5" fill="none" width="15" height="15"/>
<g>
	<path fill="#333333" d="M38.02,32.291l-5.538-3.655v-2.344h-0.961v2.345l-5.541,3.657l5.541,3.117v2.299h0.961v-2.27L38.02,32.291z
		 M32.002,29.471c0.411,0.271,3.245,2.142,4.18,2.76c-0.966,0.549-3.786,2.151-4.155,2.362c-0.37-0.209-3.227-1.816-4.202-2.365
		C28.763,31.608,31.59,29.742,32.002,29.471z"/>
	<path fill="#FFFFFF" d="M27.821,32.196c0.008,0.005,0.019,0.011,0.028,0.016c-0.008,0.005-0.017,0.011-0.024,0.016
		c0.975,0.549,3.832,2.156,4.202,2.365c0.369-0.211,3.189-1.813,4.155-2.362c-0.008-0.006-0.018-0.013-0.027-0.018
		c0.008-0.004,0.017-0.01,0.024-0.014c-0.935-0.618-3.77-2.488-4.181-2.759C31.586,29.711,28.759,31.577,27.821,32.196z"/>
	<path fill="#FFFFFF" d="M38.277,31.9l-5.326-3.516v-2.092c0-0.259-0.21-0.469-0.469-0.469h-0.961c-0.259,0-0.469,0.21-0.469,0.469
		v2.093l-5.33,3.518c-0.136,0.09-0.216,0.245-0.21,0.408c0.005,0.163,0.096,0.312,0.238,0.392l5.302,2.983v2.024
		c0,0.259,0.21,0.469,0.469,0.469h0.961c0.259,0,0.469-0.21,0.469-0.469v-1.997l5.3-3.014c0.142-0.08,0.231-0.229,0.237-0.392
		C38.493,32.144,38.414,31.99,38.277,31.9z M32.482,35.439v2.27h-0.961V35.41l-5.541-3.117l5.541-3.657v-2.345h0.961v2.344
		l5.538,3.655L32.482,35.439z"/>
</g>
</svg>
