<?xml version="1.0" encoding="utf-8"?>
<!-- Generator: Adobe Illustrator 16.0.0, SVG Export Plug-In . SVG Version: 6.00 Build 0)  -->
<!DOCTYPE svg PUBLIC "-//W3C//DTD SVG 1.1//EN" "http://www.w3.org/Graphics/SVG/1.1/DTD/svg11.dtd">
<svg version="1.1" id="Icon" xmlns="http://www.w3.org/2000/svg" xmlns:xlink="http://www.w3.org/1999/xlink" x="0px" y="0px"
	 width="15px" height="15px" viewBox="24.5 24.5 15 15" enable-background="new 24.5 24.5 15 15" xml:space="preserve">
<rect x="24.5" y="24.5" fill="none" width="15" height="15"/>
<g>
	<path fill="#333333" d="M26.258,28.536c-0.069,0.087-0.106,0.194-0.106,0.304v8.756c0,0.269,0.218,0.486,0.487,0.486
		c0.269,0,0.487-0.218,0.487-0.486c0,0,0-8.216,0-8.57c0.427-0.461,2.164-2.135,4.87-2.135s4.445,1.674,4.872,2.135
		c0,0.354,0,8.57,0,8.57c0,0.269,0.218,0.486,0.487,0.486s0.487-0.218,0.487-0.486V28.84c0-0.11-0.037-0.217-0.106-0.304
		c-0.086-0.106-2.136-2.619-5.74-2.619C28.393,25.917,26.344,28.43,26.258,28.536z"/>
	<path fill="#333333" d="M33.215,31.436c0,0.755-0.611,1.365-1.369,1.365c-0.756,0-1.368-0.609-1.368-1.365
		c0-0.756,0.612-1.368,1.368-1.368C32.604,30.068,33.215,30.68,33.215,31.436z"/>
	<path fill="#333333" d="M35.701,36.149c-0.058-0.256-1.557-3.108-1.557-3.108c-0.114-0.225-0.389-0.312-0.613-0.198l-1.218,0.62
		c-0.001,0-0.001,0.001-0.002,0.001c-0.113,0.048-0.216,0.116-0.287,0.226l-0.872,1.35l-1.424,0.669
		c-0.31,0.146-0.444,0.515-0.299,0.826c0.146,0.311,0.516,0.443,0.827,0.299l1.574-0.739c0.115-0.055,0.206-0.139,0.267-0.24
		c0.008-0.012,0.021-0.017,0.028-0.029l0.491-0.76c0,0,0.734,1.299,0.805,1.541c0.071,0.242-0.043,0.827,0,0.912s2.209,0.071,2.28,0
		S35.758,36.406,35.701,36.149z"/>
	<ellipse fill="#333333" cx="29.137" cy="33.685" rx="0.911" ry="0.911"/>
	<path fill="#FFFFFF" d="M38.105,28.244c-0.093-0.116-2.293-2.796-6.106-2.796c-3.812,0-6.011,2.68-6.103,2.794
		c-0.136,0.17-0.21,0.382-0.21,0.598v8.756c0,0.521,0.42,0.945,0.94,0.954v0.003h10.761v-0.005c0.514-0.016,0.926-0.436,0.926-0.952
		V28.84C38.313,28.625,38.24,28.413,38.105,28.244z M28.225,33.685c0-0.504,0.408-0.911,0.912-0.911
		c0.503,0,0.912,0.407,0.912,0.911s-0.408,0.911-0.912,0.911C28.632,34.596,28.225,34.188,28.225,33.685z M35.701,37.518
		c-0.071,0.071-2.237,0.085-2.28,0s0.071-0.67,0-0.912c-0.07-0.242-0.805-1.541-0.805-1.541l-0.491,0.76
		c-0.007,0.013-0.02,0.018-0.028,0.029c-0.061,0.102-0.152,0.186-0.267,0.24l-1.574,0.739c-0.311,0.145-0.681,0.012-0.827-0.299
		c-0.146-0.312-0.011-0.681,0.299-0.826l1.424-0.669l0.872-1.35c0.071-0.109,0.174-0.178,0.287-0.226c0,0,0.001-0.001,0.002-0.001
		l1.218-0.62c0.225-0.114,0.499-0.026,0.613,0.198c0,0,1.499,2.853,1.557,3.108C35.758,36.406,35.772,37.446,35.701,37.518z
		 M30.478,31.436c0-0.756,0.612-1.368,1.368-1.368c0.758,0,1.369,0.612,1.369,1.368c0,0.755-0.611,1.365-1.369,1.365
		C31.089,32.801,30.478,32.191,30.478,31.436z M37.845,37.597c0,0.269-0.218,0.486-0.486,0.486c-0.27,0-0.487-0.218-0.487-0.486
		c0,0,0-8.216,0-8.57c-0.428-0.461-2.165-2.135-4.872-2.135c-2.707,0-4.443,1.674-4.87,2.135c0,0.354,0,8.57,0,8.57
		c0,0.269-0.218,0.486-0.487,0.486c-0.27,0-0.487-0.218-0.487-0.486V28.84c0-0.11,0.038-0.217,0.106-0.304
		c0.086-0.106,2.135-2.619,5.738-2.619c3.604,0,5.654,2.513,5.739,2.619c0.069,0.087,0.106,0.194,0.106,0.304V37.597z"/>
</g>
</svg>
