<?xml version="1.0" encoding="utf-8"?>
<!-- Generator: Adobe Illustrator 21.1.0, SVG Export Plug-In . SVG Version: 6.00 Build 0)  -->
<svg version="1.1" id="レイヤー_1" xmlns="http://www.w3.org/2000/svg" xmlns:xlink="http://www.w3.org/1999/xlink" x="0px"
	 y="0px" viewBox="0 0 15 15" enable-background="new 0 0 15 15" xml:space="preserve">
<g id="レイヤー_4">
	<path fill="#3166A8" d="M13.197,15H1.83c-0.999,0-1.808-0.809-1.808-1.808V1.826c0-0.999,0.809-1.808,1.808-1.808h11.362
		C14.191,0.018,15,0.827,15,1.826v11.362C15.005,14.191,14.196,15,13.197,15z"/>
	<g>
		<path fill="#FFFFFF" d="M13.592,4.687L10.52,1.616L9.861,0.957L9.202,1.616L6.755,4.068l0.659,0.659l2.447-2.452l3.271,3.271
			v6.627H4.437l0.01-0.01l2.802-2.802h0.005l0.105-0.105l0.03-0.03c0.075-0.08,0.12-0.18,0.125-0.295V8.927c0-0.01,0-0.015,0-0.025
			v-0.02c-0.005-0.115-0.05-0.22-0.125-0.295l-0.03-0.03c-0.035-0.03-0.07-0.055-0.11-0.075c-0.065-0.035-0.14-0.055-0.22-0.055
			c-0.02,0-0.045,0-0.065,0.005H4.682V7.784V6.575h1.403c0.365,0,0.604-0.385,0.439-0.714L4.218,1.196
			c-0.18-0.365-0.704-0.365-0.884,0L1.026,5.861C0.862,6.19,1.101,6.575,1.466,6.575h1.368v1.858H1.431
			c-0.13,0-0.245,0.05-0.33,0.135s-0.135,0.2-0.135,0.33c0,0.255,0.21,0.464,0.464,0.464h1.673l-2.947,2.947
			c-0.055,0.055-0.1,0.13-0.12,0.21c-0.01,0.035-0.015,0.075-0.015,0.115c0,0.26,0.21,0.469,0.469,0.469h0.13h2.892h9.619h0.934
			v-0.929v-0.005V5.916V5.162L13.592,4.687z"/>
		<circle fill="#FFFFFF" cx="9.846" cy="5.536" r="1.029"/>
		<path fill="#FFFFFF" d="M8.448,7.739v2.812c0,0.39,0.315,0.704,0.704,0.704h1.403c0.39,0,0.704-0.315,0.704-0.704V7.739
			c0-0.39-0.315-0.704-0.704-0.704H9.152C8.762,7.034,8.448,7.349,8.448,7.739z"/>
	</g>
</g>
</svg>
