<?xml version="1.0" encoding="utf-8"?>
<!-- Generator: Adobe Illustrator 20.1.0, SVG Export Plug-In . SVG Version: 6.00 Build 0)  -->
<svg version="1.1" id="レイヤー_1" xmlns="http://www.w3.org/2000/svg" xmlns:xlink="http://www.w3.org/1999/xlink" x="0px"
	 y="0px" viewBox="0 0 11 11" enable-background="new 0 0 11 11" xml:space="preserve">
<g>
	<path fill="#DA2703" d="M9.3,4.6c0.5,0.5,0.9,1.1,0.9,1.7c0,1.6-2.1,2.9-4.7,2.9S0.8,7.9,0.8,6.3c0-0.6,0.3-1.2,0.9-1.7
		C0.6,5.2,0,6.1,0,7c0,1.8,2.5,3.3,5.5,3.3S11,8.8,11,7C11,6.1,10.3,5.2,9.3,4.6z"/>
	<path fill="#DA2703" d="M4.6,3.4L4.6,3.4c0,0.1,0,0.1,0,0.1c0,0,0,0,0,0.1c0,0,0,0.1,0,0.1c0,0.1,0,0.1,0,0.1c0,0,0,0.1,0.1,0.1
		c0,0,0,0.1,0.1,0.1l0,0l0,0.1l0,0.1L5,4.5c0.1,0.1,0.1,0.2,0.2,0.4c0,0,0,0,0,0.1c0,0,0,0,0,0c0,0.1,0,0.1,0.1,0.2
		c0,0.1,0.1,0.2,0.1,0.3c0,0.2,0,0.3,0,0.4c0,0.2,0,0.3-0.1,0.4c0,0.2-0.1,0.3-0.1,0.5c0,0,0,0,0,0.1C5.2,7,5.2,7,5.1,7.1
		C5.1,7.2,5,7.4,5,7.4S4.8,7.6,4.7,7.7c0.2-0.1,0.6-0.3,0.9-0.6c0.2-0.2,0.3-0.4,0.5-0.6c0.1-0.1,0.1-0.2,0.2-0.4l0,0c0,0,0,0,0,0
		C6.3,6,6.4,5.8,6.4,5.6c0-0.1,0-0.2,0-0.3c0-0.1,0-0.1,0-0.2c0-0.1,0-0.1,0-0.2v0c0-0.1,0-0.1,0-0.2c0-0.1,0-0.1,0-0.2
		c0,0,0,0,0-0.1c0-0.1,0-0.1,0-0.1c0,0,0-0.1-0.1-0.1c0,0,0-0.1-0.1-0.1l0,0l0-0.1L6,4L6,3.9C5.9,3.7,5.8,3.7,5.7,3.5c0,0,0,0,0,0
		c0,0,0,0,0-0.1c0-0.1,0-0.1-0.1-0.2c0-0.1-0.1-0.2-0.1-0.3c0-0.2,0-0.3,0-0.5c0-0.2,0-0.3,0.1-0.4c0-0.2,0.1-0.3,0.1-0.5
		c0,0,0,0,0-0.1c0,0,0,0,0,0c0-0.1,0.1-0.2,0.1-0.2C5.9,1.2,6,1,6,1s0.2-0.3,0.3-0.3C6.1,0.8,5.7,1,5.4,1.3C5.2,1.5,5.1,1.7,4.9,1.9
		C4.9,2,4.8,2.1,4.7,2.3v0c0,0,0,0.1,0,0.1C4.6,2.6,4.6,2.7,4.6,2.9c0,0,0,0.1,0,0.1c0,0.1,0,0.1,0,0.2C4.6,3.3,4.6,3.3,4.6,3.4z"/>
	<path fill="#DA2703" d="M2.4,3.6L2.4,3.6C2.4,3.6,2.4,3.6,2.4,3.6c0,0.1,0,0.1,0,0.2c0,0,0,0.1,0,0.1c0,0,0,0.1,0,0.1
		c0,0,0,0.1,0.1,0.1c0,0,0,0.1,0.1,0.1l0,0l0,0.1l0,0.1l0.1,0.1c0.1,0.1,0.1,0.2,0.2,0.4c0,0,0,0,0,0.1C3,5.1,3,5.1,3,5.2
		c0,0.1,0.1,0.2,0.1,0.3c0,0.1,0,0.3,0,0.4c0,0.2,0,0.3-0.1,0.4C3,6.4,3,6.6,2.9,6.7c0,0,0,0,0,0.1c0,0.1-0.1,0.1-0.1,0.2
		c0,0.1-0.2,0.3-0.2,0.3S2.5,7.4,2.5,7.5C2.6,7.4,3,7.2,3.2,6.9c0.2-0.2,0.3-0.4,0.4-0.6c0,0,0,0,0,0C3.7,6.3,3.8,6.2,3.9,6
		c0,0,0,0,0,0C3.9,5.9,3.9,5.8,4,5.6c0-0.1,0-0.1,0-0.2c0,0,0,0,0-0.1c0,0,0-0.1,0-0.1c0,0,0-0.1,0-0.1c0,0,0,0,0-0.1c0,0,0,0,0-0.1
		c0,0,0-0.1,0-0.1c0,0,0-0.1,0-0.1c0,0,0-0.1,0-0.1c0,0,0-0.1-0.1-0.1c0,0,0-0.1-0.1-0.1l0,0l0-0.1l0-0.1L3.6,4
		C3.5,3.9,3.5,3.8,3.4,3.7c0,0,0,0,0-0.1c0-0.1,0-0.1-0.1-0.2c0-0.1-0.1-0.2-0.1-0.3c0-0.1,0-0.3,0-0.4c0-0.2,0-0.3,0.1-0.4
		c0-0.2,0.1-0.3,0.1-0.4c0,0,0,0,0-0.1c0-0.1,0.1-0.1,0.1-0.2c0-0.1,0.2-0.3,0.2-0.3s0.2-0.2,0.2-0.3C3.7,1.2,3.3,1.4,3.1,1.7
		C2.9,1.8,2.8,1.9,2.7,2.1C2.6,2.2,2.5,2.4,2.5,2.6v0C2.4,2.7,2.4,2.8,2.4,3c0,0.1,0,0.2,0,0.2S2.4,3.4,2.4,3.6
		C2.4,3.5,2.4,3.6,2.4,3.6z"/>
	<path fill="#DA2703" d="M7.1,3.6L7.1,3.6C7.1,3.6,7.1,3.6,7.1,3.6c0,0.1,0,0.1,0,0.2c0,0,0,0.1,0,0.1c0,0,0,0.1,0,0.1
		c0,0,0,0.1,0.1,0.1c0,0,0,0.1,0.1,0.1l0,0l0,0.1l0,0.1l0.1,0.1c0.1,0.1,0.1,0.2,0.2,0.4c0,0,0,0,0,0.1c0,0.1,0,0.1,0.1,0.2
		c0,0.1,0.1,0.2,0.1,0.3c0,0.1,0,0.3,0,0.4c0,0.2,0,0.3-0.1,0.4c0,0.2-0.1,0.3-0.1,0.4c0,0,0,0,0,0.1c0,0.1-0.1,0.1-0.1,0.2
		c0,0.1-0.2,0.3-0.2,0.3S7.3,7.4,7.2,7.5C7.4,7.4,7.7,7.2,8,6.9c0.2-0.2,0.3-0.4,0.4-0.6c0,0,0,0,0,0C8.5,6.3,8.6,6.2,8.6,6
		c0,0,0,0,0,0c0.1-0.1,0.1-0.3,0.1-0.4c0-0.1,0-0.1,0-0.2c0,0,0,0,0-0.1s0,0,0-0.1c0-0.1,0-0.1,0-0.2c0,0,0,0,0-0.1c0,0,0,0,0-0.1
		c0,0,0-0.1,0-0.1c0,0,0-0.1,0-0.1c0,0,0-0.1,0-0.1c0,0,0-0.1-0.1-0.1c0,0,0-0.1-0.1-0.1l0,0l0-0.1l0-0.1L8.3,4
		C8.3,3.9,8.2,3.8,8.1,3.7c0,0,0,0,0-0.1c0-0.1,0-0.1-0.1-0.2C8,3.4,8,3.2,8,3.2c0-0.1,0-0.3,0-0.4c0-0.2,0-0.3,0.1-0.4
		C8,2.2,8.1,2,8.1,1.9c0,0,0,0,0-0.1c0-0.1,0.1-0.1,0.1-0.2c0-0.1,0.2-0.3,0.2-0.3s0.2-0.2,0.2-0.3C8.4,1.2,8.1,1.4,7.8,1.7
		C7.7,1.8,7.6,1.9,7.5,2.1C7.4,2.2,7.3,2.4,7.2,2.6v0C7.2,2.7,7.1,2.8,7.1,3c0,0.1,0,0.2,0,0.2S7.1,3.4,7.1,3.6
		C7.1,3.5,7.1,3.6,7.1,3.6z"/>
</g>
</svg>
