<?xml version="1.0" encoding="utf-8"?>
<!-- Generator: Adobe Illustrator 16.0.0, SVG Export Plug-In . SVG Version: 6.00 Build 0)  -->
<!DOCTYPE svg PUBLIC "-//W3C//DTD SVG 1.1//EN" "http://www.w3.org/Graphics/SVG/1.1/DTD/svg11.dtd">
<svg version="1.1" id="Icon" xmlns="http://www.w3.org/2000/svg" xmlns:xlink="http://www.w3.org/1999/xlink" x="0px" y="0px"
	 width="15px" height="15px" viewBox="24.5 24.5 15 15" enable-background="new 24.5 24.5 15 15" xml:space="preserve">
<rect x="24.5" y="24.5" fill="none" width="15" height="15"/>
<g>
	<path fill="#333333" d="M25.63,35.674c0,0,1.415,1.172,3.558,1.373c2.142,0.2,3.036-0.547,4.708-0.48
		c1.671,0.068,3.502,0.89,3.502,0.89s-1.112-1.287-3.466-1.525c-2.354-0.238-2.354,0.729-4.694,0.597
		C27.401,36.424,25.63,35.674,25.63,35.674z"/>
	<path fill="#333333" d="M37.975,32.19l-1.229-0.494c-0.326-0.134-0.699,0.021-0.834,0.347l-0.267,0.587
		c-0.04-0.28-0.08-0.562-0.088-0.625c-0.027-0.199-0.122-0.272-0.333-0.279c-0.164-0.005-0.42-0.017-0.72-0.028l-0.317-1.806
		c-0.042-0.241-0.271-0.401-0.512-0.359l-1.396,0.245c-0.24,0.042-0.401,0.271-0.359,0.512l0.229,1.301
		c-0.432-0.022-0.756-0.04-0.839-0.048c-0.314-0.032-1.571,0.794-1.571,0.794l-3.722,0.358c0,0-0.278,0.023-0.047,0.249
		c0.735,0.716,2.532,2.033,4.881,2.633c0.033,0.008,0.067,0.037,0.1,0.024c1.196-0.447,1.757-0.452,2.593-0.396
		c1.035,0.07,1.87,0.391,2.591,0.797c0.321-0.011,0.572-0.024,0.729-0.034c0.115-0.007,0.179-0.178,0.179-0.178s0-0.439,0-0.741
		c0-0.144-0.21-0.522-0.429-0.879l0.079-0.142l0.453,0.175c0.325,0.133,0.699-0.021,0.833-0.349l0.343-0.832
		C38.456,32.697,38.3,32.325,37.975,32.19z"/>
	<ellipse fill="#333333" cx="32.654" cy="27.87" rx="1.326" ry="1.326"/>
	<path fill="#FFFFFF" d="M35.365,33.51c-2.405-0.122-6.003-1.125-6.034-1.133l0.406-0.037l0.149-0.097
		c0.03,0.008,3.113,0.918,5.491,1.04L35.365,33.51z"/>
	<path fill="#FFFFFF" d="M25.63,35.674c0,0,1.771,0.75,3.607,0.854c0.151,0.009,0.292,0.013,0.424,0.013
		c1.699,0,2.009-0.647,3.57-0.647c0.209,0,0.439,0.012,0.7,0.038c2.354,0.238,3.466,1.525,3.466,1.525s-1.831-0.821-3.502-0.89
		c-0.072-0.003-0.143-0.004-0.212-0.004c-1.348,0-2.21,0.519-3.781,0.519c-0.223,0-0.46-0.011-0.715-0.034
		C27.044,36.846,25.63,35.674,25.63,35.674 M25.63,35.205c-0.16,0-0.313,0.082-0.401,0.226c-0.121,0.199-0.078,0.456,0.102,0.604
		c0.062,0.052,1.552,1.267,3.813,1.478c0.258,0.024,0.513,0.037,0.759,0.037c0.867,0,1.516-0.146,2.143-0.286
		c0.536-0.119,1.042-0.232,1.638-0.232c0.063,0,0.127,0.001,0.192,0.004c1.559,0.062,3.312,0.841,3.329,0.849
		c0.062,0.027,0.127,0.041,0.191,0.041c0.145,0,0.286-0.067,0.377-0.189c0.131-0.177,0.122-0.42-0.021-0.587
		c-0.051-0.058-1.264-1.43-3.773-1.685c-0.265-0.026-0.516-0.04-0.747-0.04c-0.84,0-1.354,0.172-1.851,0.337
		c-0.477,0.16-0.928,0.311-1.719,0.311c-0.126,0-0.26-0.004-0.397-0.012c-1.729-0.098-3.434-0.811-3.451-0.817
		C25.753,35.217,25.691,35.205,25.63,35.205L25.63,35.205z"/>
	<path fill="#FFFFFF" d="M33.752,29.526c0.211,0,0.397,0.15,0.436,0.366l0.317,1.806c0.3,0.012,0.556,0.023,0.72,0.028
		c0.211,0.007,0.306,0.081,0.333,0.279c0.008,0.063,0.048,0.345,0.088,0.625l0.267-0.587c0.102-0.247,0.34-0.395,0.591-0.395
		c0.081,0,0.163,0.015,0.243,0.048l1.229,0.494c0.325,0.135,0.481,0.507,0.347,0.833l-0.343,0.832
		c-0.102,0.247-0.34,0.396-0.591,0.396c-0.081,0-0.163-0.016-0.242-0.048l-0.453-0.175l-0.079,0.142
		c0.219,0.356,0.429,0.735,0.429,0.879c0,0.302,0,0.741,0,0.741s-0.063,0.171-0.179,0.178c-0.156,0.01-0.407,0.023-0.729,0.034
		c-0.721-0.406-1.556-0.727-2.591-0.797c-0.215-0.015-0.412-0.025-0.606-0.025c-0.56,0-1.098,0.089-1.986,0.421
		c-0.006,0.002-0.011,0.003-0.017,0.003c-0.027,0-0.056-0.021-0.083-0.027c-2.349-0.6-4.146-1.917-4.881-2.633
		c-0.231-0.226,0.047-0.249,0.047-0.249l3.722-0.358c0,0,1.21-0.795,1.552-0.795c0.007,0,0.013,0,0.019,0.001
		c0.083,0.008,0.407,0.026,0.839,0.048l-0.229-1.301c-0.042-0.241,0.119-0.47,0.359-0.512l1.396-0.245
		C33.701,29.528,33.727,29.526,33.752,29.526 M33.752,29.057L33.752,29.057c-0.053,0-0.105,0.004-0.157,0.014l-1.396,0.246
		c-0.495,0.086-0.826,0.56-0.74,1.054l0.127,0.721c-0.109-0.006-0.196-0.012-0.229-0.015c-0.019-0.002-0.042-0.003-0.065-0.003l0,0
		c-0.378,0-1.12,0.425-1.711,0.808l-3.608,0.347c-0.194,0.017-0.44,0.126-0.531,0.383c-0.047,0.131-0.083,0.392,0.203,0.669
		c0.927,0.903,2.808,2.161,5.063,2.744c0.047,0.02,0.126,0.049,0.227,0.049c0.066,0,0.13-0.012,0.191-0.036
		c0.859-0.322,1.332-0.388,1.812-0.388c0.193,0,0.391,0.012,0.574,0.024c0.841,0.058,1.601,0.292,2.393,0.737
		c0.07,0.04,0.149,0.061,0.23,0.061c0.005,0,0.01,0,0.015,0c0.333-0.011,0.589-0.025,0.744-0.035
		c0.309-0.02,0.506-0.262,0.588-0.482c0.02-0.052,0.029-0.107,0.029-0.163V35.05c0-0.087-0.017-0.187-0.073-0.33
		c0.432-0.02,0.811-0.284,0.975-0.687l0.343-0.831c0.232-0.564-0.038-1.212-0.602-1.445l-1.233-0.496
		c-0.131-0.054-0.272-0.082-0.417-0.082c-0.273,0-0.529,0.099-0.726,0.27c-0.134-0.118-0.315-0.185-0.536-0.192
		c-0.09-0.003-0.205-0.008-0.341-0.013l-0.252-1.435C34.572,29.374,34.195,29.057,33.752,29.057L33.752,29.057z"/>
	<path fill="#FFFFFF" d="M32.655,26.544c0.632,0,1.191,0.454,1.305,1.097c0.127,0.721-0.355,1.409-1.076,1.535
		c-0.078,0.014-0.155,0.021-0.23,0.021c-0.633,0-1.192-0.454-1.306-1.097c-0.126-0.721,0.355-1.408,1.077-1.536
		C32.502,26.55,32.579,26.544,32.655,26.544 M32.655,26.075L32.655,26.075c-0.104,0-0.208,0.009-0.312,0.027
		c-0.975,0.172-1.628,1.104-1.458,2.079c0.152,0.86,0.895,1.485,1.768,1.485c0.104,0,0.208-0.009,0.311-0.027
		c0.473-0.083,0.885-0.345,1.16-0.737c0.274-0.393,0.381-0.869,0.298-1.341C34.271,26.7,33.527,26.075,32.655,26.075L32.655,26.075z
		"/>
</g>
</svg>
