<?xml version="1.0" encoding="utf-8"?>
<!-- Generator: Adobe Illustrator 16.0.0, SVG Export Plug-In . SVG Version: 6.00 Build 0)  -->
<!DOCTYPE svg PUBLIC "-//W3C//DTD SVG 1.1//EN" "http://www.w3.org/Graphics/SVG/1.1/DTD/svg11.dtd">
<svg version="1.1" id="Icon" xmlns="http://www.w3.org/2000/svg" xmlns:xlink="http://www.w3.org/1999/xlink" x="0px" y="0px"
	 width="15px" height="15px" viewBox="24.5 24.5 15 15" enable-background="new 24.5 24.5 15 15" xml:space="preserve">
<rect x="24.5" y="24.5" fill="none" width="15" height="15"/>
<g>
	<path fill="#333333" d="M36.018,33.857c-1.076,0-1.971,0.776-2.163,1.796h-1.174l0.838-2.047c0,0,3.086,0,3.826,0
		c0.741,0,0.741-1.11,0-1.11c-0.74,0-3.702,0-3.702,0s-0.147-0.913-1.137-0.913c-0.986,0-1.381,0-1.776,0
		c-0.396,0-0.548,0.446-0.469,0.815c0,0,0.667,2.91,0.814,3.577c0.148,0.395,0.385,0.444,0.847,0.444c0.198,0,1.037,0,1.93,0
		c0.172,1.043,1.074,1.843,2.166,1.843c1.214,0,2.202-0.988,2.202-2.203C38.22,34.846,37.231,33.857,36.018,33.857z M36.018,37.75
		c-0.809,0-1.484-0.57-1.65-1.33c1.015,0,1.955,0,1.955,0v-0.767h-1.94c0.184-0.734,0.844-1.283,1.636-1.283
		c0.932,0,1.688,0.758,1.688,1.689S36.949,37.75,36.018,37.75z"/>
	
		<ellipse transform="matrix(-0.9655 -0.2605 0.2605 -0.9655 46.9818 69.6289)" fill="#333333" cx="28.105" cy="31.701" rx="0.411" ry="1.122"/>
	<path fill="#333333" d="M36.578,30.882l-2.794-2.823c-0.175-0.176-0.458-0.176-0.634-0.001l-0.628,0.624l-2.561,0.868
		c-0.359,0.122-0.551,0.512-0.429,0.871c0.021,0.062,0.053,0.118,0.088,0.169l-1.387,3.293c-0.084-0.01-0.167-0.025-0.255-0.025
		c-1.214,0-2.202,0.988-2.202,2.202c0,1.215,0.988,2.203,2.202,2.203c1.215,0,2.203-0.988,2.203-2.203
		c0-0.906-0.552-1.686-1.336-2.023l1.327-3.152c0.076,0.001,0.154-0.008,0.23-0.034l2.477-0.84l2.269,2.293
		c0.175,0.176,0.46,0.176,0.635,0.002l0.794-0.789C36.751,31.342,36.753,31.058,36.578,30.882z M29.669,36.06
		c0,0.932-0.758,1.69-1.69,1.69c-0.931,0-1.689-0.759-1.689-1.69s0.758-1.689,1.689-1.689c0.017,0,0.032,0.005,0.047,0.006
		l-0.724,1.719l0.576,0.238l0.768-1.824C29.247,34.769,29.669,35.365,29.669,36.06z"/>
	<ellipse fill="#333333" cx="31.522" cy="27.084" rx="1.347" ry="1.347"/>
	<path fill="#FFFFFF" d="M28.647,34.509l-0.768,1.824l-0.576-0.239l0.724-1.718c-0.016-0.001-0.031-0.006-0.048-0.006
		c-0.931,0-1.689,0.758-1.689,1.689s0.758,1.69,1.689,1.69c0.933,0,1.69-0.759,1.69-1.69C29.67,35.365,29.249,34.769,28.647,34.509z
		"/>
	<path fill="#FFFFFF" d="M36.019,34.37c-0.792,0-1.451,0.549-1.635,1.283h1.94v0.767c0,0-0.94,0-1.955,0
		c0.166,0.759,0.842,1.33,1.649,1.33c0.933,0,1.689-0.759,1.689-1.69S36.951,34.37,36.019,34.37z"/>
	<path fill="#FFFFFF" d="M37.705,34.004c0.391-0.139,0.654-0.502,0.654-0.952c0-0.578-0.436-1.013-1.013-1.013h-0.646l0.199-0.198
		c0.354-0.353,0.354-0.928,0.003-1.281l-2.792-2.822c-0.173-0.173-0.4-0.268-0.643-0.268c-0.064,0-0.127,0.008-0.188,0.021
		c0.042-0.182,0.057-0.37,0.04-0.561c-0.041-0.48-0.267-0.916-0.636-1.226c-0.325-0.274-0.737-0.424-1.161-0.424
		c-0.534,0-1.038,0.234-1.381,0.643c-0.311,0.369-0.458,0.836-0.417,1.316c0.042,0.48,0.268,0.916,0.636,1.226
		c0.151,0.127,0.321,0.227,0.503,0.298l-1.047,0.355c-0.598,0.203-0.918,0.854-0.716,1.451c0.005,0.015,0.011,0.029,0.016,0.043
		l-0.09,0.214c-0.086-0.461-0.35-0.606-0.51-0.649c-0.052-0.014-0.105-0.021-0.16-0.021l0,0c-0.542,0-0.918,0.682-1.09,1.319
		c-0.25,0.925-0.082,1.613,0.427,1.751c0.053,0.015,0.107,0.021,0.161,0.021c0.056,0,0.109-0.009,0.161-0.022l-0.073,0.175
		c-1.449,0.021-2.622,1.206-2.622,2.66c0,1.467,1.194,2.66,2.66,2.66c1.452,0,2.634-1.169,2.659-2.615
		c0.003,0.011,0.006,0.021,0.009,0.031c0.257,0.685,0.771,0.742,1.275,0.742h1.57c0.348,1.087,1.354,1.842,2.525,1.842
		c1.468,0,2.661-1.193,2.661-2.66C38.68,35.232,38.3,34.492,37.705,34.004z M30.657,28.114c-0.569-0.479-0.642-1.328-0.164-1.897
		c0.479-0.569,1.329-0.643,1.898-0.163c0.568,0.479,0.642,1.328,0.163,1.897C32.075,28.521,31.225,28.593,30.657,28.114z
		 M27.815,32.784c-0.22-0.06-0.267-0.593-0.105-1.191c0.161-0.598,0.469-1.035,0.689-0.976c0.219,0.059,0.267,0.592,0.105,1.19
		C28.343,32.405,28.034,32.844,27.815,32.784z M27.98,38.262c-1.214,0-2.202-0.988-2.202-2.202s0.988-2.202,2.202-2.202
		c0.087,0,0.17,0.016,0.255,0.025l1.387-3.293c-0.036-0.052-0.068-0.107-0.088-0.169c-0.122-0.359,0.07-0.749,0.43-0.871
		l2.561-0.869l0.627-0.623c0.176-0.175,0.46-0.175,0.635,0.001l2.793,2.822c0.175,0.176,0.173,0.46-0.002,0.635l-0.794,0.789
		c-0.175,0.174-0.459,0.174-0.634-0.002l-2.269-2.293l-2.477,0.84c-0.076,0.026-0.154,0.035-0.23,0.034l-1.327,3.152
		c0.785,0.338,1.337,1.117,1.337,2.023C30.184,37.273,29.195,38.262,27.98,38.262z M36.019,38.262c-1.091,0-1.993-0.799-2.166-1.842
		c-0.893,0-1.731,0-1.929,0c-0.461,0-0.699-0.05-0.847-0.444c-0.148-0.667-0.814-3.577-0.814-3.577
		c-0.079-0.369,0.074-0.815,0.469-0.815c0.395,0,0.79,0,1.776,0c0.989,0,1.137,0.913,1.137,0.913s2.961,0,3.702,0
		c0.74,0,0.74,1.11,0,1.11c-0.741,0-3.826,0-3.826,0l-0.839,2.047h1.175c0.192-1.02,1.087-1.796,2.162-1.796
		c1.215,0,2.203,0.988,2.203,2.202S37.233,38.262,36.019,38.262z"/>
</g>
</svg>
