<?xml version="1.0" encoding="utf-8"?>
<!-- Generator: Adobe Illustrator 16.0.0, SVG Export Plug-In . SVG Version: 6.00 Build 0)  -->
<!DOCTYPE svg PUBLIC "-//W3C//DTD SVG 1.1//EN" "http://www.w3.org/Graphics/SVG/1.1/DTD/svg11.dtd">
<svg version="1.1" id="Icon" xmlns="http://www.w3.org/2000/svg" xmlns:xlink="http://www.w3.org/1999/xlink" x="0px" y="0px"
	 width="15px" height="15px" viewBox="24.5 24.5 15 15" enable-background="new 24.5 24.5 15 15" xml:space="preserve">
<rect x="24.5" y="24.5" fill="none" width="15" height="15"/>
<g>
	<path fill="#FFFFFF" d="M34.184,30.46v-4.537c0-0.259-0.21-0.469-0.469-0.469H30.33c-0.259,0-0.469,0.21-0.469,0.469v4.537
		c-1.663,2.447-3.603,5.469-3.603,6.258c0,1.166,0.965,1.787,1.661,1.787h8.205c0.8,0,1.661-0.559,1.661-1.787
		C37.785,36.09,36.574,33.984,34.184,30.46z"/>
	<path fill="#333333" d="M33.29,31.777h-2.535c0,0-2.796,3.965-2.796,4.534s0.475,0.807,0.71,0.807c0.235,0,6.332,0,6.706,0
		s0.709-0.238,0.709-0.807S33.29,31.777,33.29,31.777z"/>
	<path fill="#333333" d="M33.715,30.604v-4.681H30.33v4.681c-0.696,1.022-3.603,5.338-3.603,6.114c0,0.931,0.776,1.318,1.193,1.318
		h8.204c0.55,0,1.192-0.346,1.192-1.318C37.316,35.942,34.41,31.626,33.715,30.604z M36.124,37.542H27.92
		c-0.179,0-0.698-0.202-0.698-0.824c0.003-0.433,1.812-3.338,3.559-5.897l0.043-0.063v-1.122h1.634v-0.454h-1.634v-1.133h1.634
		v-0.454h-1.634v-1.178h2.397v4.34l0.044,0.063c1.745,2.56,3.554,5.465,3.557,5.897C36.821,37.242,36.567,37.542,36.124,37.542z"/>
</g>
</svg>
