<?xml version="1.0" encoding="utf-8"?>
<!-- Generator: Adobe Illustrator 16.0.0, SVG Export Plug-In . SVG Version: 6.00 Build 0)  -->
<!DOCTYPE svg PUBLIC "-//W3C//DTD SVG 1.1//EN" "http://www.w3.org/Graphics/SVG/1.1/DTD/svg11.dtd">
<svg version="1.1" id="Icon" xmlns="http://www.w3.org/2000/svg" xmlns:xlink="http://www.w3.org/1999/xlink" x="0px" y="0px"
	 width="15px" height="15px" viewBox="-7.5 -7.5 15 15" enable-background="new -7.5 -7.5 15 15" xml:space="preserve">
<rect x="-7.5" y="-7.5" fill="none" width="15" height="15"/>
<g>
	<path fill="#3169B3" d="M6.067,5.097c0,0.537-0.434,0.971-0.971,0.971H-5.096c-0.536,0-0.971-0.434-0.971-0.971V-5.096
		c0-0.536,0.435-0.971,0.971-0.971H5.097c0.537,0,0.971,0.435,0.971,0.971V5.097z"/>
	<path fill="#FFFFFF" d="M1.955-1.517c-0.625,0-1.131,0.506-1.131,1.133c0,0.628,0.506,1.139,1.131,1.139
		c0.624,0,1.131-0.511,1.131-1.139C3.086-1.01,2.578-1.517,1.955-1.517z"/>
	<path fill="#FFFFFF" d="M1.978-2.711c0.494,0.491,2.51,2.49,2.729,2.708c0,0.346,0,4.323,0,4.323h0.907V-0.38L1.975-3.99
		L1.657-3.67L-1.5-0.512l0.64,0.641C-0.859,0.129,1.461-2.195,1.978-2.711z"/>
	<path fill="#FFFFFF" d="M5.542,4.491H-2.34c0,0,1.305-1.646,1.322-1.691c0.013-0.034,0.035-0.132,0.035-0.153
		c0-0.25-0.248-0.408-0.498-0.408h-1.2V0.671h0.716c0.074,0,0.143-0.032,0.19-0.089c0.047-0.056,0.067-0.131,0.055-0.204
		l-0.993-5.569c-0.021-0.117-0.121-0.203-0.24-0.206C-3.07-5.399-3.175-5.317-3.2-5.202l-0.444,1.989
		C-3.651-3.18-3.651-3.146-3.646-3.114l0.628,3.526c-0.094,0.036-0.162,0.125-0.162,0.231v1.595H-4.17V0.671h0.744
		c0.074,0,0.144-0.032,0.191-0.089c0.047-0.056,0.067-0.131,0.055-0.204l-0.639-3.58l0,0l-0.354-1.989
		c-0.021-0.117-0.122-0.203-0.241-0.206c-0.118-0.002-0.222,0.08-0.248,0.195l-1.24,5.57c-0.017,0.073,0.001,0.15,0.048,0.21
		c0.048,0.059,0.119,0.093,0.195,0.093h0.992v1.567h-0.875c-0.25,0-0.453,0.203-0.453,0.453c0,0.251,0.203,0.453,0.453,0.453h0.833
		l-1.084,1.373c0,0-0.175,0.223-0.175,0.427c0,0.251,0.202,0.453,0.453,0.453H5.542c0.251,0,0.453-0.202,0.453-0.453
		C5.995,4.693,5.793,4.491,5.542,4.491z"/>
	<path fill="#FFFFFF" d="M1.381,1.215c-0.25,0-0.451,0.203-0.451,0.453v1.917c0,0.25,0.201,0.453,0.451,0.453H2.52
		c0.25,0,0.454-0.204,0.454-0.453V1.668c0-0.25-0.204-0.453-0.454-0.453H1.381z"/>
	<path fill="#FFFFFF" d="M5.097-6.067c0.537,0,0.971,0.435,0.971,0.971V5.097c0,0.537-0.434,0.971-0.971,0.971H-5.096
		c-0.536,0-0.971-0.434-0.971-0.971V-5.096c0-0.536,0.435-0.971,0.971-0.971H5.097 M5.097-6.536H-5.096
		c-0.794,0-1.439,0.646-1.439,1.44V5.097c0,0.793,0.646,1.439,1.439,1.439H5.097c0.793,0,1.439-0.646,1.439-1.439V-5.096
		C6.536-5.89,5.89-6.536,5.097-6.536L5.097-6.536z"/>
</g>
</svg>
