<?xml version="1.0" encoding="utf-8"?>
<!-- Generator: Adobe Illustrator 16.0.0, SVG Export Plug-In . SVG Version: 6.00 Build 0)  -->
<!DOCTYPE svg PUBLIC "-//W3C//DTD SVG 1.1//EN" "http://www.w3.org/Graphics/SVG/1.1/DTD/svg11.dtd">
<svg version="1.1" id="Icon" xmlns="http://www.w3.org/2000/svg" xmlns:xlink="http://www.w3.org/1999/xlink" x="0px" y="0px"
	 width="15px" height="15px" viewBox="24.5 24.5 15 15" enable-background="new 24.5 24.5 15 15" xml:space="preserve">
<rect x="24.5" y="24.5" fill="none" width="15" height="15"/>
<g>
	<path fill="#333333" d="M33.189,30.089l-0.001,5.157c0,0.065,0.029,0.129,0.08,0.171s0.117,0.061,0.183,0.049l0.067-0.013
		c0.415-0.076,0.423-0.077,1.322-0.078c0.927-0.001,1.481,0.09,1.487,0.091c0.09,0.016,0.181-0.026,0.229-0.106
		c0.021-0.034,0.031-0.074,0.031-0.113c0-0.049-0.017-0.098-0.049-0.139c-0.007-0.01-0.796-1.012-1.596-2.498l-1.329-2.615
		c-0.048-0.092-0.152-0.143-0.253-0.118C33.262,29.9,33.189,29.986,33.189,30.089z M26.127,35.855l2.306,2.298h8.2l1.239-2.298
		H26.127z M27.357,35.441c0.013-0.003,1.278-0.25,2.532-0.23c1.256,0.021,2.292,0.228,2.302,0.23
		c0.065,0.013,0.135-0.003,0.185-0.046c0.052-0.043,0.083-0.106,0.083-0.173v-7.408c0-0.065-0.035-0.118-0.082-0.159v-0.339
		c0.012-0.002,1-0.572,1-0.572c0.036-0.021,0.058-0.058,0.059-0.099v-0.002c0-0.04-0.021-0.077-0.054-0.099l-1.058-0.68
		c-0.037-0.023-0.082-0.025-0.12-0.005c-0.038,0.021-0.062,0.061-0.062,0.103v1.659c-0.025,0.012-0.051,0.021-0.07,0.042
		c-0.019,0.019-1.791,1.943-2.878,3.492c-1.481,2.112-2.068,3.922-2.092,3.999c-0.024,0.075-0.007,0.157,0.046,0.216
		C27.2,35.43,27.28,35.457,27.357,35.441z"/>
	<path fill="#FFFFFF" d="M37.874,35.387h-0.003h-0.835c0.011-0.047,0.02-0.094,0.02-0.141c0-0.155-0.054-0.309-0.15-0.43
		c-0.133-0.172-0.833-1.097-1.55-2.429l-1.324-2.605c-0.123-0.236-0.359-0.381-0.62-0.381c-0.054,0-0.107,0.006-0.16,0.019
		c-0.13,0.031-0.236,0.102-0.324,0.19v-1.795c0-0.084-0.017-0.166-0.048-0.244c0.157-0.089,0.389-0.223,0.731-0.421
		c0.177-0.102,0.288-0.291,0.293-0.494c0-0.215-0.102-0.399-0.271-0.507l-1.056-0.679c-0.093-0.06-0.204-0.093-0.317-0.093
		c-0.095,0-0.19,0.024-0.274,0.068c-0.195,0.107-0.312,0.304-0.312,0.518v1.44c-0.3,0.328-1.853,2.043-2.864,3.483
		c-1.541,2.196-2.131,4.05-2.156,4.128c-0.04,0.121-0.04,0.25-0.01,0.372h-0.518c-0.189,0-0.361,0.114-0.433,0.29
		c-0.073,0.176-0.032,0.377,0.102,0.511l2.306,2.298c0.088,0.088,0.207,0.137,0.332,0.137h8.199c0.172,0,0.331-0.095,0.413-0.246
		l1.227-2.274c0.044-0.071,0.07-0.155,0.07-0.246C38.342,35.597,38.133,35.387,37.874,35.387z M33.189,30.089
		c0-0.104,0.072-0.189,0.172-0.213c0.101-0.025,0.205,0.026,0.253,0.118l1.329,2.615c0.8,1.486,1.589,2.488,1.596,2.498
		c0.032,0.041,0.049,0.09,0.049,0.139c0,0.039-0.011,0.079-0.031,0.113c-0.048,0.08-0.139,0.122-0.229,0.106
		c-0.006-0.001-0.561-0.092-1.487-0.091c-0.899,0.001-0.907,0.002-1.322,0.078l-0.067,0.013c-0.065,0.012-0.132-0.007-0.183-0.049
		s-0.08-0.105-0.08-0.171L33.189,30.089z M27.102,35.154c0.024-0.076,0.611-1.887,2.092-3.999c1.087-1.548,2.859-3.473,2.878-3.492
		c0.019-0.021,0.045-0.029,0.07-0.042v-1.659c0-0.042,0.024-0.082,0.062-0.103c0.038-0.02,0.083-0.019,0.12,0.005l1.058,0.68
		c0.033,0.021,0.054,0.059,0.054,0.099v0.002c-0.001,0.041-0.022,0.078-0.059,0.099c0,0-0.988,0.57-1,0.572v0.339
		c0.047,0.041,0.082,0.094,0.082,0.159v7.408c0,0.066-0.03,0.13-0.083,0.173c-0.05,0.043-0.12,0.059-0.185,0.046
		c-0.01-0.003-1.046-0.21-2.302-0.23c-1.253-0.02-2.519,0.228-2.532,0.23c-0.077,0.016-0.157-0.012-0.209-0.071
		C27.095,35.312,27.078,35.229,27.102,35.154z M36.633,38.153h-8.2l-2.306-2.298h11.745L36.633,38.153z"/>
</g>
</svg>
