<?xml version="1.0" encoding="utf-8"?>
<!-- Generator: Adobe Illustrator 16.0.0, SVG Export Plug-In . SVG Version: 6.00 Build 0)  -->
<!DOCTYPE svg PUBLIC "-//W3C//DTD SVG 1.1//EN" "http://www.w3.org/Graphics/SVG/1.1/DTD/svg11.dtd">
<svg version="1.1" id="Icon" xmlns="http://www.w3.org/2000/svg" xmlns:xlink="http://www.w3.org/1999/xlink" x="0px" y="0px"
	 width="15px" height="15px" viewBox="24.5 24.5 15 15" enable-background="new 24.5 24.5 15 15" xml:space="preserve">
<rect x="24.5" y="24.5" fill="none" width="15" height="15"/>
<g>
	<path fill="#333333" d="M37.697,33.084c-0.175-0.222-3.578-1.845-4.632-2.343l0.155-2.236c-0.118-1.875-0.77-2.566-1.221-2.566
		c-0.452,0-1.104,0.691-1.221,2.566l0.155,2.236c-1.053,0.498-4.457,2.121-4.631,2.343c-0.208,0.262-0.34,0.816-0.074,0.852
		c0.236,0.031,4.035-0.784,4.86-0.962l0.228,3.272c0.004,0.081,0.014,0.366,0.014,0.366c-0.411,0.22-1.533,0.82-1.803,1.004
		c-0.278,0.188-0.217,0.353-0.037,0.437c0.178,0.085,2.47-0.562,2.504-0.572L32,37.479l0.004,0.001
		c0.034,0.01,2.327,0.657,2.504,0.572c0.18-0.084,0.241-0.248-0.037-0.437c-0.271-0.183-1.391-0.784-1.802-1.003
		c0,0,0.009-0.286,0.013-0.367l0.228-3.272c0.825,0.178,4.624,0.993,4.86,0.962C38.036,33.9,37.904,33.346,37.697,33.084z"/>
	<path fill="#FFFFFF" d="M32,25.939c0.451,0,1.103,0.691,1.221,2.566l-0.155,2.236c1.054,0.498,4.457,2.121,4.632,2.343
		c0.207,0.262,0.339,0.816,0.073,0.852c-0.004,0.001-0.01,0.001-0.017,0.001c-0.361,0-4.034-0.788-4.844-0.963l-0.228,3.272
		c-0.004,0.081-0.013,0.367-0.013,0.367c0.411,0.219,1.531,0.82,1.802,1.003c0.278,0.188,0.217,0.353,0.037,0.437
		c-0.011,0.006-0.029,0.008-0.056,0.008c-0.395,0-2.417-0.571-2.449-0.58L32,37.479l-0.005,0.001
		c-0.032,0.009-2.054,0.58-2.449,0.58c-0.025,0-0.044-0.003-0.055-0.008c-0.18-0.084-0.241-0.248,0.037-0.437
		c0.271-0.184,1.392-0.784,1.803-1.004c0,0-0.01-0.285-0.014-0.366l-0.228-3.272c-0.81,0.175-4.483,0.963-4.843,0.963
		c-0.007,0-0.013,0-0.017-0.001c-0.266-0.035-0.134-0.59,0.074-0.852c0.174-0.222,3.579-1.845,4.631-2.343l-0.155-2.236
		C30.896,26.63,31.548,25.939,32,25.939 M32,25.471c-0.692,0-1.549,0.787-1.689,3.005c-0.001,0.021-0.001,0.042,0,0.062l0.133,1.917
		c-4.259,2.021-4.422,2.227-4.51,2.339c-0.208,0.263-0.429,0.814-0.266,1.217c0.087,0.214,0.274,0.36,0.5,0.39
		c0.02,0.002,0.046,0.005,0.078,0.005c0.328,0,2.474-0.444,4.413-0.859l0.19,2.732c0,0.014,0.001,0.034,0.002,0.06
		c-0.882,0.474-1.402,0.765-1.586,0.89c-0.353,0.239-0.409,0.507-0.394,0.689c0.019,0.24,0.173,0.445,0.422,0.562
		c0.072,0.033,0.156,0.051,0.253,0.051c0.386,0,1.762-0.37,2.453-0.563c0.528,0.148,2.045,0.563,2.454,0.563
		c0.098,0,0.182-0.018,0.256-0.053c0.247-0.114,0.4-0.319,0.42-0.56c0.015-0.183-0.042-0.45-0.395-0.689
		c-0.249-0.168-1.096-0.627-1.586-0.89c0.001-0.029,0.002-0.055,0.003-0.071l0.188-2.721c1.94,0.415,4.087,0.859,4.414,0.859
		c0.031,0,0.058-0.003,0.078-0.005c0.225-0.03,0.412-0.176,0.499-0.39c0.163-0.401-0.058-0.953-0.267-1.218
		c-0.088-0.111-0.252-0.319-4.509-2.338l0.133-1.917c0.002-0.021,0.002-0.042,0-0.062C33.549,26.258,32.691,25.471,32,25.471
		L32,25.471z"/>
</g>
</svg>
