<?xml version="1.0" encoding="utf-8"?>
<!-- Generator: Adobe Illustrator 16.0.0, SVG Export Plug-In . SVG Version: 6.00 Build 0)  -->
<!DOCTYPE svg PUBLIC "-//W3C//DTD SVG 1.1//EN" "http://www.w3.org/Graphics/SVG/1.1/DTD/svg11.dtd">
<svg version="1.1" id="Icon" xmlns="http://www.w3.org/2000/svg" xmlns:xlink="http://www.w3.org/1999/xlink" x="0px" y="0px"
	 width="15px" height="15px" viewBox="24.5 24.5 15 15" enable-background="new 24.5 24.5 15 15" xml:space="preserve">
<rect x="24.5" y="24.5" fill="none" width="15" height="15"/>
<g>
	<path fill="#333333" d="M34.885,38.723c-1.362,0-1.443,0-1.448-0.245c-0.283-1.048-1.021-1.605-1.451-1.605
		c-0.409,0-1.136,0.5-1.487,1.611c-0.005,0.239-0.094,0.239-1.418,0.239c-0.689,0-1.426-0.008-1.426-0.008
		c-0.094-0.002-0.179-0.056-0.22-0.141c-0.041-0.084-0.03-0.185,0.028-0.259c0.017-0.022,1.733-2.23,2.294-3.213
		c0.471-0.823,0.805-2.006,0.984-2.642c0.034-0.122,0.062-0.222,0.085-0.296c0.015-0.05,0.069-0.288,0.248-1.378
		c-0.333-0.086-0.579-0.375-0.579-0.717c0-0.409,0.352-0.743,0.785-0.743h0.025c0.156-1.003,0.311-2.027,0.402-2.636v-1.096
		c0-0.174,0.142-0.316,0.317-0.316c0.174,0,0.316,0.142,0.316,0.316v1.037c0.074,0.598,0.205,1.657,0.343,2.695h0.024
		c0.433,0,0.785,0.333,0.785,0.743c0,0.353-0.261,0.648-0.609,0.724c0.14,0.974,0.198,1.259,0.222,1.342
		c0.125,0.426,0.58,1.905,1.206,2.963c0.591,0.999,2.213,3.201,2.229,3.223c0.055,0.075,0.063,0.174,0.022,0.257
		s-0.126,0.136-0.219,0.138C36.345,38.715,35.591,38.723,34.885,38.723L34.885,38.723z"/>
	<path fill="#FFFFFF" d="M32.024,25.524c0.038,0,0.069,0.031,0.069,0.069v1.052c0.079,0.637,0.225,1.813,0.374,2.927h0.241
		c0.296,0,0.538,0.223,0.538,0.496c0,0.274-0.242,0.496-0.538,0.496h-0.105c0.112,0.806,0.213,1.453,0.266,1.637
		c0.174,0.597,0.626,2,1.23,3.022c0.604,1.021,2.244,3.243,2.244,3.243s-0.754,0.009-1.458,0.009c-0.619,0-1.201-0.006-1.201-0.031
		c-0.299-1.149-1.131-1.819-1.698-1.819c-0.565,0-1.369,0.627-1.733,1.819c0,0.025-0.568,0.031-1.172,0.031
		c-0.688,0-1.423-0.009-1.423-0.009s1.738-2.232,2.313-3.241c0.578-1.01,0.952-2.532,1.091-2.989
		c0.044-0.146,0.16-0.822,0.297-1.672h-0.08c-0.297,0-0.538-0.222-0.538-0.496c0-0.273,0.241-0.496,0.538-0.496h0.237
		c0.168-1.078,0.341-2.216,0.438-2.865v-1.115C31.955,25.556,31.985,25.524,32.024,25.524 M32.024,25.03
		c-0.311,0-0.564,0.253-0.564,0.563v1.078c-0.08,0.53-0.222,1.471-0.37,2.424c-0.479,0.085-0.843,0.489-0.843,0.973
		c0,0.379,0.223,0.709,0.55,0.875c-0.153,0.926-0.197,1.114-0.208,1.15c-0.022,0.073-0.051,0.176-0.086,0.299
		c-0.177,0.625-0.505,1.789-0.961,2.587c-0.552,0.967-2.257,3.161-2.275,3.184c-0.115,0.147-0.137,0.349-0.055,0.518
		s0.252,0.277,0.439,0.28c0.007,0,0.746,0.008,1.429,0.008c0.348,0,0.625-0.002,0.823-0.006c0.331-0.008,0.776-0.018,0.836-0.422
		c0.323-1.005,0.967-1.423,1.246-1.423c0.298,0,0.95,0.471,1.208,1.409c0.053,0.418,0.509,0.428,0.847,0.436
		c0.203,0.004,0.486,0.006,0.844,0.006c0.699,0,1.456-0.008,1.463-0.008c0.186-0.003,0.354-0.108,0.438-0.274
		c0.082-0.166,0.065-0.364-0.045-0.514c-0.017-0.021-1.632-2.214-2.217-3.202c-0.61-1.033-1.059-2.487-1.181-2.908
		c-0.013-0.042-0.06-0.247-0.185-1.104c0.344-0.161,0.582-0.5,0.582-0.891c0-0.482-0.361-0.885-0.838-0.972
		c-0.094-0.714-0.197-1.531-0.314-2.481v-1.021C32.588,25.283,32.335,25.03,32.024,25.03L32.024,25.03z"/>
</g>
</svg>
