<?xml version="1.0" encoding="utf-8"?>
<!-- Generator: Adobe Illustrator 16.0.0, SVG Export Plug-In . SVG Version: 6.00 Build 0)  -->
<!DOCTYPE svg PUBLIC "-//W3C//DTD SVG 1.1//EN" "http://www.w3.org/Graphics/SVG/1.1/DTD/svg11.dtd">
<svg version="1.1" id="Icon" xmlns="http://www.w3.org/2000/svg" xmlns:xlink="http://www.w3.org/1999/xlink" x="0px" y="0px"
	 width="15px" height="15px" viewBox="24.5 24.5 15 15" enable-background="new 24.5 24.5 15 15" xml:space="preserve">
<rect x="24.5" y="24.5" fill="none" width="15" height="15"/>
<g>
	<polygon fill="#333333" points="35.562,29.1 34.9,28.437 32,31.337 29.1,28.437 28.437,29.1 31.337,32 28.437,34.9 29.1,35.562 
		32,32.663 34.9,35.562 35.562,34.9 32.663,32 	"/>
	<path fill="#FFFFFF" d="M34.9,28.437l0.662,0.663L32.663,32l2.899,2.9L34.9,35.562L32,32.663l-2.9,2.899L28.437,34.9l2.9-2.9
		l-2.9-2.9l0.663-0.663l2.9,2.9L34.9,28.437 M34.9,27.968c-0.12,0-0.24,0.045-0.332,0.137L32,30.674l-2.569-2.569
		c-0.088-0.088-0.207-0.137-0.331-0.137c-0.125,0-0.244,0.049-0.332,0.137l-0.663,0.663c-0.183,0.183-0.183,0.479,0,0.663L30.674,32
		l-2.569,2.568c-0.183,0.184-0.183,0.479,0,0.663l0.663,0.663c0.091,0.091,0.211,0.137,0.332,0.137c0.12,0,0.24-0.046,0.331-0.137
		L32,33.326l2.568,2.568c0.092,0.091,0.212,0.137,0.332,0.137c0.119,0,0.239-0.046,0.331-0.137l0.663-0.663
		c0.183-0.184,0.183-0.479,0-0.663L33.326,32l2.568-2.569c0.183-0.183,0.183-0.48,0-0.663l-0.663-0.663
		C35.14,28.014,35.02,27.968,34.9,27.968L34.9,27.968z"/>
</g>
</svg>
