<?xml version="1.0" encoding="utf-8"?>
<!-- Generator: Adobe Illustrator 16.0.0, SVG Export Plug-In . SVG Version: 6.00 Build 0)  -->
<!DOCTYPE svg PUBLIC "-//W3C//DTD SVG 1.1//EN" "http://www.w3.org/Graphics/SVG/1.1/DTD/svg11.dtd">
<svg version="1.1" id="Icon" xmlns="http://www.w3.org/2000/svg" xmlns:xlink="http://www.w3.org/1999/xlink" x="0px" y="0px"
	 width="15px" height="15px" viewBox="24.5 24.5 15 15" enable-background="new 24.5 24.5 15 15" xml:space="preserve">
<rect x="24.5" y="24.5" fill="none" width="15" height="15"/>
<g>
	<path fill="#333333" d="M27.192,37.236l-0.429-1.143c1.682-0.476,3.19-1.285,4.523-2.428c-1.111-1.205-1.857-2.603-2.238-4.189
		h-2.285v-0.904h4.57v-1.809h1.047c0.317,0.064,0.333,0.19,0.048,0.381v1.428h4.618v0.904h-2.238
		c-0.254,1.492-0.92,2.889-1.999,4.189c1.11,0.984,2.586,1.714,4.427,2.19l-0.428,1.143c-1.619-0.413-3.189-1.271-4.713-2.571
		C30.508,35.793,28.874,36.729,27.192,37.236z M33.809,29.477h-3.713c0.19,1.08,0.841,2.222,1.952,3.428
		C33,31.762,33.587,30.62,33.809,29.477z"/>
	<path fill="#FFFFFF" d="M33.809,29.477h-3.712h-0.001c0.19,1.08,0.841,2.222,1.952,3.428l0,0h0
		C33.001,31.762,33.588,30.62,33.809,29.477L33.809,29.477z"/>
	<path fill="#FFFFFF" d="M37.652,35.64c-0.061-0.117-0.17-0.204-0.298-0.237c-1.577-0.407-2.884-1.014-3.894-1.803
		c0.871-1.143,1.452-2.369,1.734-3.654h1.852c0.259,0,0.469-0.209,0.469-0.469v-0.904c0-0.259-0.21-0.469-0.469-0.469h-4.149v-0.739
		c0.167-0.169,0.231-0.355,0.192-0.555c-0.036-0.182-0.172-0.417-0.617-0.506c-0.03-0.006-0.062-0.009-0.092-0.009h-1.047
		c-0.259,0-0.469,0.21-0.469,0.469v1.34h-4.102c-0.259,0-0.469,0.21-0.469,0.469v0.904c0,0.259,0.21,0.469,0.469,0.469h1.922
		c0.378,1.356,1.025,2.586,1.929,3.666c-1.186,0.938-2.522,1.619-3.979,2.032c-0.126,0.035-0.231,0.122-0.291,0.239
		c-0.06,0.117-0.067,0.253-0.021,0.376l0.429,1.143c0.07,0.188,0.248,0.304,0.438,0.304c0.045,0,0.091-0.006,0.136-0.02
		c1.631-0.492,3.233-1.382,4.77-2.646c1.479,1.201,3.023,2.013,4.596,2.414c0.039,0.01,0.078,0.015,0.116,0.015
		c0.191,0,0.369-0.118,0.438-0.305l0.429-1.143C37.723,35.896,37.714,35.758,37.652,35.64z M36.809,36.999
		c-1.619-0.413-3.189-1.271-4.713-2.571c-1.587,1.365-3.222,2.301-4.903,2.809l-0.429-1.143c1.682-0.476,3.19-1.285,4.523-2.428
		c-1.111-1.205-1.857-2.603-2.238-4.189h-2.285v-0.904h4.57v-1.809h1.047c0.317,0.064,0.333,0.19,0.048,0.381v1.428h4.618v0.904
		h-2.238c-0.254,1.492-0.92,2.889-1.999,4.189c1.11,0.984,2.586,1.714,4.427,2.19L36.809,36.999z"/>
</g>
</svg>
