<?xml version="1.0" encoding="utf-8"?>
<!-- Generator: Adobe Illustrator 20.1.0, SVG Export Plug-In . SVG Version: 6.00 Build 0)  -->
<svg version="1.1" id="レイヤー_1" xmlns="http://www.w3.org/2000/svg" xmlns:xlink="http://www.w3.org/1999/xlink" x="0px"
	 y="0px" viewBox="0 0 11 11" enable-background="new 0 0 11 11" xml:space="preserve">
<path d="M8.2,4.7V3.3h2.2V2.2H6V0H4.9v2.2H0.6v1.1h2.2v1.4h0c0,0.6,0.2,1.2,0.5,1.9c0.3,0.7,0.9,1.5,1.5,2.2l0,0l0,0
	C4,9.3,3.3,9.7,2.6,9.9H0.6V11h1.7c0.9,0,1.9-0.4,2.8-1.1c0.2-0.1,0.3-0.2,0.4-0.4c0,0,0,0,0,0c0.1,0.1,0.3,0.2,0.4,0.4l0,0h0
	C6.9,10.6,7.8,11,8.7,11h1.7V9.9h-2c0,0,0,0,0,0c-0.1,0-0.2-0.1-0.3-0.1C7.5,9.6,6.9,9.2,6.3,8.8c0.6-0.7,1.1-1.4,1.5-2.2
	C8.1,6,8.2,5.3,8.2,4.7z M7.1,4.6c0,0,0,0.1,0,0.1c0,0.1,0,0.2,0,0.3c0,0,0,0.1,0,0.1C7,5.9,6.4,7,5.5,8l0,0c-1-1.1-1.6-2.3-1.6-3.2
	V3.3h3.3V4.6z"/>
</svg>
