<?xml version="1.0" encoding="utf-8"?>
<!-- Generator: Adobe Illustrator 16.0.0, SVG Export Plug-In . SVG Version: 6.00 Build 0)  -->
<!DOCTYPE svg PUBLIC "-//W3C//DTD SVG 1.1//EN" "http://www.w3.org/Graphics/SVG/1.1/DTD/svg11.dtd">
<svg version="1.1" id="Icon" xmlns="http://www.w3.org/2000/svg" xmlns:xlink="http://www.w3.org/1999/xlink" x="0px" y="0px"
	 width="15px" height="15px" viewBox="-7.5 -7.5 15 15" enable-background="new -7.5 -7.5 15 15" xml:space="preserve">
<rect x="-7.5" y="-7.5" fill="none" width="15" height="15"/>
<g>
	<path fill="#FFFFFF" d="M0-6.562c-3.619,0-6.562,2.944-6.562,6.562c0,3.618,2.944,6.562,6.562,6.562S6.562,3.618,6.562,0
		C6.562-3.619,3.619-6.562,0-6.562z"/>
	<path fill="#333333" d="M-6.094,0c0,3.36,2.734,6.094,6.094,6.094S6.094,3.36,6.094,0S3.36-6.094,0-6.094S-6.094-3.36-6.094,0z
		 M-5.156,0c0-2.843,2.313-5.156,5.156-5.156c2.844,0,5.156,2.313,5.156,5.156S2.844,5.157,0,5.157
		C-2.843,5.157-5.156,2.843-5.156,0z"/>
	<path fill="#333333" d="M2.044-2.76c0.41,0.366,0.615,0.879,0.615,1.538S2.454-0.05,2.044,0.316
		C1.661,0.658,1.141,0.827,0.483,0.827h-1.19v3.04h-0.944v-7.139h2.134C1.141-3.272,1.661-3.102,2.044-2.76z M-0.707-2.577v2.71
		h0.943c0.494,0,0.878-0.123,1.152-0.366c0.246-0.22,0.369-0.549,0.369-0.989S1.634-1.991,1.388-2.21
		C1.114-2.455,0.73-2.577,0.236-2.577H-0.707z"/>
</g>
</svg>
