<?xml version="1.0" encoding="utf-8"?>
<!-- Generator: Adobe Illustrator 16.0.0, SVG Export Plug-In . SVG Version: 6.00 Build 0)  -->
<!DOCTYPE svg PUBLIC "-//W3C//DTD SVG 1.1//EN" "http://www.w3.org/Graphics/SVG/1.1/DTD/svg11.dtd">
<svg version="1.1" id="Icon" xmlns="http://www.w3.org/2000/svg" xmlns:xlink="http://www.w3.org/1999/xlink" x="0px" y="0px"
	 width="15px" height="15px" viewBox="24.5 24.5 15 15" enable-background="new 24.5 24.5 15 15" xml:space="preserve">
<rect x="24.5" y="24.5" fill="none" width="15" height="15"/>
<g>
	<path fill="#333333" d="M33.142,38.342c-0.072,0-0.142-0.033-0.187-0.09c-0.046-0.057-0.063-0.131-0.048-0.202
		c0.015-0.062,0.021-0.127,0.021-0.191v-3.425c0-0.512-0.417-0.928-0.929-0.928c-0.512,0-0.928,0.416-0.928,0.928v3.425
		c0,0.062,0.007,0.126,0.021,0.194c0.015,0.07-0.003,0.145-0.048,0.2c-0.045,0.057-0.114,0.089-0.186,0.089h-4.645
		c-0.287,0-0.52-0.233-0.52-0.52v-3.831c0-0.399,0.101-0.594,0.397-0.771l5.203-3.008v-1.344h-1.834c-0.245,0-0.445-0.2-0.445-0.445
		v-0.522c0-0.245,0.2-0.445,0.445-0.445h1.834v-1.352c0-0.247,0.2-0.447,0.447-0.447h0.522c0.246,0,0.445,0.2,0.445,0.447v1.352
		h1.833c0.245,0,0.444,0.2,0.444,0.445v0.522c0,0.245-0.199,0.445-0.444,0.445h-1.833v1.342l5.2,3.008
		c0.299,0.179,0.399,0.373,0.399,0.772v3.831c0,0.286-0.233,0.52-0.52,0.52H33.142z"/>
	<path fill="#FFFFFF" d="M32.262,25.898c0.112,0,0.205,0.092,0.205,0.207v1.591h2.073c0.113,0,0.205,0.092,0.205,0.206v0.522
		c0,0.114-0.092,0.205-0.205,0.205h-2.073v1.72l5.32,3.078c0.203,0.12,0.279,0.227,0.279,0.564v3.831
		c0,0.154-0.124,0.279-0.279,0.279h-4.646c0.018-0.078,0.026-0.16,0.026-0.243v-3.425c0-0.646-0.522-1.167-1.168-1.167
		c-0.645,0-1.168,0.521-1.168,1.167v3.425c0,0.083,0.01,0.165,0.026,0.243h-4.645c-0.155,0-0.28-0.125-0.28-0.279v-3.831
		c0-0.338,0.077-0.444,0.28-0.564l5.32-3.076v-1.722h-2.074c-0.113,0-0.205-0.091-0.205-0.205v-0.522
		c0-0.114,0.092-0.206,0.205-0.206h2.074v-1.591c0-0.115,0.092-0.207,0.207-0.207H32.262 M32.262,25.418H31.74
		c-0.379,0-0.687,0.308-0.687,0.687v1.112h-1.594c-0.377,0-0.685,0.308-0.685,0.685v0.522c0,0.377,0.307,0.685,0.685,0.685h1.594
		v0.965l-5.08,2.937c-0.375,0.224-0.52,0.498-0.52,0.98v3.831c0,0.418,0.341,0.759,0.76,0.759h4.645
		c0.145,0,0.281-0.064,0.372-0.177s0.127-0.26,0.097-0.4c-0.011-0.053-0.016-0.101-0.016-0.146v-3.425
		c0-0.379,0.309-0.688,0.688-0.688s0.688,0.309,0.688,0.688v3.425c0,0.047-0.005,0.095-0.015,0.14
		c-0.031,0.143,0.003,0.291,0.094,0.404s0.229,0.179,0.374,0.179h4.646c0.419,0,0.759-0.341,0.759-0.759v-3.831
		c0-0.482-0.144-0.757-0.514-0.977l-5.085-2.942v-0.964h1.593c0.377,0,0.685-0.308,0.685-0.685v-0.522
		c0-0.377-0.308-0.685-0.685-0.685h-1.593v-1.112C32.947,25.727,32.64,25.418,32.262,25.418L32.262,25.418z"/>
</g>
</svg>
