<?xml version="1.0" encoding="utf-8"?>
<!-- Generator: Adobe Illustrator 16.0.0, SVG Export Plug-In . SVG Version: 6.00 Build 0)  -->
<!DOCTYPE svg PUBLIC "-//W3C//DTD SVG 1.1//EN" "http://www.w3.org/Graphics/SVG/1.1/DTD/svg11.dtd">
<svg version="1.1" id="Icon" xmlns="http://www.w3.org/2000/svg" xmlns:xlink="http://www.w3.org/1999/xlink" x="0px" y="0px"
	 width="15px" height="15px" viewBox="-7.5 -7.5 15 15" enable-background="new -7.5 -7.5 15 15" xml:space="preserve">
<rect x="-7.5" y="-7.5" fill="none" width="15" height="15"/>
<g>
	<path fill="#3169B3" d="M6.201,5.218c0,0.549-0.444,0.993-0.993,0.993H-5.227c-0.549,0-0.994-0.444-0.994-0.993V-5.217
		c0-0.549,0.445-0.994,0.994-0.994H5.208c0.549,0,0.993,0.445,0.993,0.994V5.218z"/>
	<path fill="#FFFFFF" d="M3.602-5.723c-0.673,0-6.48,0-7.222,0c-0.94,0-1.031,0.512-1.031,1.293V2.33c0,0.523,0.448,0.95,0.998,0.95
		h0.591l-1.104,2.059l0.717,0.384l0.385-0.719h6.093V4.977l0.4,0.746l0.717-0.384L3.042,3.28h0.592c0.551,0,0.999-0.427,0.999-0.95
		V-4.43C4.633-5.173,4.542-5.723,3.602-5.723z M-2.78,4.473l0.258-0.48h5V3.951l0.281,0.521H-2.78z M2.261,3.545h-4.543l0.142-0.266
		h4.26L2.261,3.545z"/>
	<rect x="-3.541" y="-3.392" fill="#3169B3" width="7.062" height="2.967"/>
	<ellipse fill="#3169B3" cx="-2.12" cy="1.302" rx="0.562" ry="0.528"/>
	<path fill="#3169B3" d="M2.72,1.267c0,0.293-0.252,0.529-0.562,0.529c-0.309,0-0.561-0.235-0.561-0.529
		c0-0.291,0.252-0.527,0.561-0.527C2.468,0.739,2.72,0.976,2.72,1.267z"/>
	<path fill="#3169B3" d="M1.663-4.997h-3.344c-0.148,0-0.269,0.12-0.269,0.268v0.528c0,0.148,0.121,0.268,0.269,0.268h3.344
		c0.148,0,0.268-0.12,0.268-0.268v-0.528C1.931-4.877,1.811-4.997,1.663-4.997z"/>
	<path fill="#FFFFFF" d="M5.208-6.211c0.549,0,0.993,0.445,0.993,0.994V5.218c0,0.549-0.444,0.993-0.993,0.993H-5.227
		c-0.549,0-0.994-0.444-0.994-0.993V-5.217c0-0.549,0.445-0.994,0.994-0.994H5.208 M5.208-6.68H-5.227
		c-0.807,0-1.463,0.656-1.463,1.463V5.218c0,0.806,0.656,1.462,1.463,1.462H5.208c0.806,0,1.462-0.656,1.462-1.462V-5.217
		C6.67-6.024,6.014-6.68,5.208-6.68L5.208-6.68z"/>
</g>
</svg>
