<?xml version="1.0" encoding="utf-8"?>
<!-- Generator: Adobe Illustrator 16.0.0, SVG Export Plug-In . SVG Version: 6.00 Build 0)  -->
<!DOCTYPE svg PUBLIC "-//W3C//DTD SVG 1.1//EN" "http://www.w3.org/Graphics/SVG/1.1/DTD/svg11.dtd">
<svg version="1.1" id="Icon" xmlns="http://www.w3.org/2000/svg" xmlns:xlink="http://www.w3.org/1999/xlink" x="0px" y="0px"
	 width="15px" height="15px" viewBox="-7.5 -7.5 15 15" enable-background="new -7.5 -7.5 15 15" xml:space="preserve">
<rect x="-7.5" y="-7.5" fill="none" width="15" height="15"/>
<g>
	<path fill="#333333" d="M5.771,2.5C5.475,1.377,2.917-3.325,1.861-4.068C0.832-4.792,0.042-4.794,0.003-4.793l0,0H0h-0.004l0,0
		c-0.039,0-0.828,0.001-1.857,0.726C-2.917-3.325-5.475,1.377-5.772,2.5C-6.069,3.623-5.97,4.793-5.97,4.793l3.119-0.008
		c0-0.001-0.068-0.796,0.297-2.039c0.441-1.502,2.005-2.161,2.54-2.161c0.535,0,2.127,0.659,2.568,2.161
		c0.365,1.242,0.296,2.038,0.296,2.039L5.97,4.793C5.97,4.793,6.069,3.623,5.771,2.5z"/>
	<path fill="#FFFFFF" d="M0.006-4.793c0.07,0,0.848,0.018,1.854,0.726C2.917-3.325,5.475,1.377,5.771,2.5
		C6.069,3.623,5.97,4.793,5.97,4.793L2.851,4.786c0-0.001,0.068-0.796-0.296-2.039C2.113,1.245,0.521,0.586-0.014,0.586
		c-0.535,0-2.099,0.659-2.54,2.161c-0.365,1.242-0.297,2.038-0.297,2.039L-5.97,4.793c0,0-0.099-1.171,0.198-2.293
		c0.297-1.123,2.855-5.825,3.911-6.568c1.007-0.708,1.784-0.726,1.854-0.726c0.001,0,0.003,0,0.004,0H0h0.003
		C0.003-4.793,0.005-4.793,0.006-4.793 M0.006-5.262c-0.002,0-0.007,0-0.009,0h0c-0.167,0-1.03,0.04-2.127,0.811
		C-3.346-3.596-5.936,1.288-6.225,2.38c-0.314,1.188-0.216,2.402-0.212,2.453c0.021,0.243,0.224,0.429,0.467,0.429c0,0,0,0,0.001,0
		l3.119-0.008c0.258-0.001,0.467-0.21,0.467-0.469c0-0.012,0-0.025-0.001-0.037c0-0.007-0.053-0.739,0.279-1.869
		c0.374-1.275,1.715-1.824,2.09-1.824c0.369,0,1.75,0.569,2.119,1.824c0.332,1.13,0.279,1.861,0.279,1.869
		C2.382,4.761,2.382,4.773,2.382,4.786c0,0.258,0.209,0.468,0.467,0.469l3.12,0.008c0,0,0,0,0.001,0
		c0.244,0,0.447-0.187,0.467-0.429C6.441,4.782,6.54,3.567,6.225,2.38c-0.29-1.092-2.88-5.977-4.094-6.831
		C1.033-5.223,0.168-5.262,0.006-5.262L0.006-5.262z"/>
</g>
</svg>
