<?xml version="1.0" encoding="utf-8"?>
<!-- Generator: Adobe Illustrator 16.0.0, SVG Export Plug-In . SVG Version: 6.00 Build 0)  -->
<!DOCTYPE svg PUBLIC "-//W3C//DTD SVG 1.1//EN" "http://www.w3.org/Graphics/SVG/1.1/DTD/svg11.dtd">
<svg version="1.1" id="Icon" xmlns="http://www.w3.org/2000/svg" xmlns:xlink="http://www.w3.org/1999/xlink" x="0px" y="0px"
	 width="15px" height="15px" viewBox="24.5 24.5 15 15" enable-background="new 24.5 24.5 15 15" xml:space="preserve">
<rect x="24.5" y="24.5" fill="none" width="15" height="15"/>
<g>
	<path fill="#333333" d="M26.289,28.764c0-0.156,0.712-0.513,0.712-0.513s0.551-0.838,1.034-0.838c0.481,0,1.087,0.434,1.087,1.293
		c0,0.86-0.304,1.814-0.472,2.419c-0.168,0.604-0.854,1.503-0.854,2.173c0,0.449,0.543,1.218,1.156,1.396
		c0.279-0.391,0.816-2.786,4.313-2.786c3.496,0,3.742,2.957,4.054,3.427c0.311,0.47,0.786,0.601,0.787,1.116
		c0,0.194-8.531,0.122-9.185,0.122s-3.028-1.028-3.028-2.735c0-1.711,0.974-1.577,1.509-2.647c0.334-0.668,0.397-1.394,0.267-1.827
		c-0.077-0.26-0.333-0.401-0.333-0.401S26.289,28.919,26.289,28.764z"/>
	<rect x="32.706" y="33.624" fill="#FFFFFF" width="0.623" height="1.357"/>
	<rect x="30.831" y="33.624" fill="#FFFFFF" width="0.624" height="1.357"/>
	<rect x="34.58" y="33.624" fill="#FFFFFF" width="0.624" height="1.357"/>
	<path fill="#FFFFFF" d="M28.036,27.413c0.481,0,1.087,0.434,1.087,1.293c0,0.86-0.304,1.814-0.472,2.419
		c-0.168,0.604-0.854,1.503-0.854,2.173c0,0.449,0.543,1.218,1.156,1.396c0.279-0.391,0.816-2.786,4.313-2.786
		c3.496,0,3.742,2.957,4.054,3.427c0.311,0.47,0.786,0.601,0.787,1.116c0,0.111-2.812,0.135-5.33,0.135
		c-1.868,0-3.576-0.013-3.854-0.013c-0.654,0-3.028-1.028-3.028-2.735c0-1.711,0.974-1.577,1.509-2.647
		c0.334-0.668,0.397-1.394,0.267-1.827c-0.077-0.26-0.333-0.401-0.333-0.401s-1.047-0.045-1.047-0.2
		c0-0.156,0.712-0.513,0.712-0.513S27.553,27.413,28.036,27.413 M28.036,26.944c-0.604,0-1.128,0.628-1.353,0.944
		c-0.793,0.414-0.862,0.66-0.862,0.876c0,0.525,0.599,0.623,1.351,0.662c0.022,0.023,0.043,0.05,0.05,0.073
		c0.094,0.314,0.043,0.925-0.237,1.483c-0.158,0.316-0.361,0.498-0.596,0.708c-0.451,0.404-0.962,0.861-0.962,2.148
		c0,2.032,2.654,3.204,3.497,3.204c0.077,0,0.265,0.001,0.536,0.002c0.688,0.004,1.97,0.011,3.319,0.011
		c1.521,0,2.739-0.009,3.619-0.025c0.545-0.011,0.969-0.025,1.26-0.042c0.431-0.026,0.92-0.055,0.92-0.536
		c-0.001-0.529-0.32-0.823-0.555-1.039c-0.116-0.106-0.226-0.208-0.311-0.336c-0.023-0.04-0.077-0.202-0.12-0.331
		c-0.328-0.989-1.098-3.306-4.324-3.306c-3.081,0-4.106,1.764-4.517,2.615c-0.278-0.231-0.483-0.591-0.483-0.757
		c0-0.293,0.232-0.744,0.438-1.143c0.165-0.319,0.32-0.621,0.399-0.905c0.02-0.07,0.041-0.145,0.063-0.224
		c0.18-0.631,0.426-1.496,0.426-2.321C29.591,27.603,28.8,26.944,28.036,26.944L28.036,26.944z"/>
</g>
</svg>
