<?xml version="1.0" encoding="utf-8"?>
<!-- Generator: Adobe Illustrator 16.0.0, SVG Export Plug-In . SVG Version: 6.00 Build 0)  -->
<!DOCTYPE svg PUBLIC "-//W3C//DTD SVG 1.1//EN" "http://www.w3.org/Graphics/SVG/1.1/DTD/svg11.dtd">
<svg version="1.1" id="Icon" xmlns="http://www.w3.org/2000/svg" xmlns:xlink="http://www.w3.org/1999/xlink" x="0px" y="0px"
	 width="15px" height="15px" viewBox="24.5 24.5 15 15" enable-background="new 24.5 24.5 15 15" xml:space="preserve">
<rect x="24.5" y="24.5" fill="none" width="15" height="15"/>
<g>
	<path fill="#017356" d="M38.047,32.259c-0.213-0.265-0.339-0.109-0.463-0.091c-0.126,0.017-0.161-0.036-0.34-0.375
		c-0.143-0.269-0.516-1.439-0.664-1.913c-0.013-0.064-0.03-0.12-0.052-0.168c-0.007-0.02-0.011-0.034-0.011-0.034
		c-0.003,0-0.004,0.001-0.006,0.001c-0.178-0.318-0.577-0.282-0.892-0.296c-0.29-0.013-5.008,0.022-7.457,0.015
		c0.214-1.333-0.996-1.541-1.381-1.583c-0.403-0.045-0.511-0.039-0.238,0.131c0.274,0.17,0.837,0.669,0.815,0.981
		c-0.012,0.167-0.102,0.338-0.184,0.463c-0.111-0.001-0.206-0.003-0.279-0.006c-0.227-0.007-0.392,0.029-0.485,0.296
		c-0.172,0.493-0.697,1.875-0.758,2.047c-0.074,0.204-0.009,0.315,0.124,0.374c0.375,0.161,0.807,0.249,0.905,0.297
		c0.303-0.393,1.267-0.999,1.891,0.09c0.072,1.23,0,3.438,0,3.438s0.073,0.234,0.355,0.234c0.282,0,0.341-0.177,0.341-0.177
		l0.447-1.621c0,0,3.675,0.034,3.907-0.055c0.231-0.09,1.088-0.571,1.534-0.518c0.446,0.055,0.694,1.594,0.766,2.146
		c0.056,0.166,0.121,0.271,0.418,0.271c0.243,0,0.339-0.203,0.351-0.29c0.017-0.128-0.009-2.768-0.044-4.501
		c0.19,0.337,0.433,0.764,0.544,0.947c0.195,0.322,0.999,0.429,1.142,0.393S38.261,32.524,38.047,32.259z"/>
	<path fill="#FFFFFF" d="M35.145,32.968c-0.135-0.264-0.446,0.058-0.387-0.173s0.183-0.383,0.074-0.471
		c-0.108-0.088-0.343-0.274-0.383-0.452c-0.039-0.177-0.325-0.239-0.542-0.195c-0.069,0.026-0.303-0.106-0.312-0.461
		c-0.009-0.354,0.148-0.62,0.247-0.744c0.1-0.124,0.05-0.487-0.038-0.522c-0.09-0.036-0.366-0.479-0.663-0.443
		c-0.296,0.035-0.177,0.239-0.513,0.292c-0.335,0.054-0.243-0.05-0.233-0.147c0.01-0.098-0.159-0.204-0.375-0.035
		c-0.218,0.168-0.386,0.265-0.554,0.248s-0.167,0.289-0.267,0.393c-0.098,0.103-0.236,0.308,0.011,0.44
		c0.009,0.08,0.009,0.141,0.286,0.213c0.277,0.07,0.613-0.036,0.74-0.133c0.129-0.097,0.205-0.278,0.481-0.047
		c0.276,0.231,0.43,0.482,0.505,0.626c0.095,0.182,0.263,0.403,0.228,0.768c-0.012,0.118-0.252,0.455-0.352,0.628
		c-0.098,0.173-0.324,0.416-0.541,0.397c-0.218-0.018-0.481-0.193-0.561-0.468c-0.06-0.134-0.336-0.01-0.445,0.008
		s-0.385-0.242-0.532-0.281c-0.149-0.038-0.739-0.318-0.779-0.859c-0.039-0.541,0.139-0.824,0.247-0.86
		c0.108-0.035-0.148-0.194-0.296-0.115c-0.148,0.08-0.208,0.187-0.414,0.222c-0.253,0.043-0.229-0.496-0.437-0.417
		c-0.207,0.081-0.098,0.497-0.236,0.621c-0.138,0.124-0.306,0.354-0.197,0.452c0.108,0.097,0.448,0.043,0.461,0.194
		c0.012,0.15,0.33,0.266,0.37,0.398c0.04,0.134,0.031,0.709,0.18,0.789c0.147,0.08,0.244,0.229,0.274,0.416
		c0.029,0.186-0.098,0.178,0.01,0.292c0.108,0.115,0.207,0.061,0.416,0.256c0.213,0.198,0.814,0.058,1.056,0.036
		c0.336-0.03,1.48-0.033,1.726-0.094c0.247-0.061,1.275-0.393,1.435-0.454C34.991,33.223,35.237,33.15,35.145,32.968z"/>
	<path fill="#FFFFFF" d="M26.486,27.792c0.065,0,0.165,0.009,0.296,0.024c0.386,0.042,1.595,0.251,1.381,1.583
		c0.231,0,0.481,0.001,0.747,0.001c2.105,0,5.127-0.019,6.266-0.019c0.241,0,0.398,0.001,0.444,0.003
		c0.314,0.014,0.714-0.022,0.892,0.296c0.002,0,0.003-0.001,0.006-0.001c0,0,0.004,0.014,0.011,0.034
		c0.021,0.048,0.039,0.104,0.052,0.168c0.148,0.473,0.521,1.644,0.664,1.913c0.159,0.303,0.205,0.377,0.303,0.377
		c0.012,0,0.023-0.001,0.037-0.003c0.068-0.01,0.138-0.062,0.221-0.062c0.068,0,0.146,0.034,0.242,0.153
		c0.214,0.266,0.428,0.462,0.285,0.498c-0.018,0.005-0.045,0.007-0.08,0.007c-0.25,0-0.89-0.117-1.062-0.4
		c-0.111-0.183-0.354-0.61-0.544-0.947c0.035,1.734,0.061,4.374,0.044,4.501c-0.012,0.087-0.107,0.29-0.351,0.29
		c-0.297,0-0.362-0.104-0.418-0.271c-0.071-0.553-0.319-2.092-0.766-2.146c-0.022-0.003-0.047-0.004-0.073-0.004
		c-0.461,0-1.241,0.437-1.461,0.521c-0.131,0.05-1.356,0.061-2.4,0.061c-0.808,0-1.506-0.006-1.506-0.006l-0.447,1.621
		c0,0-0.059,0.177-0.341,0.177c-0.282,0-0.355-0.234-0.355-0.234s0.072-2.207,0-3.438c-0.263-0.458-0.585-0.616-0.894-0.616
		c-0.424,0-0.821,0.299-0.997,0.526c-0.098-0.048-0.531-0.136-0.905-0.297c-0.133-0.058-0.198-0.17-0.124-0.374
		c0.061-0.172,0.585-1.554,0.758-2.047c0.087-0.248,0.235-0.297,0.438-0.297c0.016,0,0.032,0,0.048,0.001
		c0.073,0.002,0.168,0.004,0.279,0.006c0.082-0.125,0.172-0.297,0.184-0.463c0.022-0.312-0.541-0.811-0.815-0.981
		C26.36,27.832,26.35,27.792,26.486,27.792 M26.486,27.323c-0.407,0-0.519,0.277-0.543,0.363c-0.106,0.372,0.227,0.581,0.353,0.659
		c0.221,0.138,0.519,0.431,0.587,0.572c-0.012,0-0.023,0-0.035,0c-0.442,0-0.738,0.206-0.879,0.611
		c-0.114,0.323-0.387,1.054-0.568,1.537c-0.095,0.253-0.168,0.449-0.189,0.507c-0.15,0.417-0.002,0.795,0.378,0.961
		c0.264,0.112,0.534,0.189,0.731,0.244c0.062,0.019,0.14,0.04,0.167,0.05c0.062,0.028,0.128,0.042,0.194,0.042
		c0.142,0,0.28-0.064,0.371-0.182c0.107-0.139,0.381-0.345,0.626-0.345c0.061,0,0.236,0,0.432,0.292
		c0.059,1.214-0.006,3.257-0.007,3.277c-0.002,0.053,0.005,0.104,0.021,0.154c0.065,0.21,0.307,0.564,0.803,0.564
		c0.428,0,0.703-0.249,0.786-0.496c0.002-0.009,0.005-0.017,0.007-0.024l0.351-1.275c0.281,0.002,0.699,0.004,1.15,0.004
		c2.328,0,2.456-0.049,2.568-0.092c0.068-0.026,0.154-0.067,0.265-0.12c0.234-0.111,0.704-0.334,0.97-0.366
		c0.119,0.19,0.311,0.793,0.433,1.737c0.004,0.03,0.011,0.061,0.021,0.09c0.085,0.253,0.268,0.59,0.862,0.59
		c0.47,0,0.771-0.359,0.815-0.698c0.019-0.141,0.004-1.692-0.015-3.039c0.387,0.231,0.906,0.293,1.111,0.293
		c0.077,0,0.14-0.007,0.196-0.021c0.179-0.045,0.319-0.174,0.374-0.345c0.098-0.303-0.098-0.532-0.287-0.754
		c-0.039-0.046-0.081-0.095-0.124-0.148c-0.174-0.217-0.378-0.327-0.606-0.327c-0.038,0-0.074,0.003-0.108,0.008
		c-0.014-0.026-0.027-0.052-0.037-0.071c-0.031-0.059-0.167-0.361-0.625-1.812c-0.017-0.077-0.039-0.15-0.068-0.218v-0.001
		c-0.019-0.062-0.05-0.118-0.09-0.166c-0.296-0.438-0.81-0.451-1.122-0.458c-0.039-0.001-0.077-0.002-0.113-0.003
		c-0.037-0.001-0.121-0.003-0.465-0.003c-0.483,0-1.305,0.003-2.252,0.007c-1.313,0.005-2.802,0.012-4.014,0.012
		c-0.088,0-0.174,0-0.259,0c-0.026-0.319-0.132-0.601-0.315-0.842c-0.396-0.518-1.035-0.688-1.502-0.739
		C26.69,27.334,26.576,27.323,26.486,27.323L26.486,27.323z"/>
</g>
</svg>
