<?xml version="1.0" encoding="utf-8"?>
<!-- Generator: Adobe Illustrator 16.0.0, SVG Export Plug-In . SVG Version: 6.00 Build 0)  -->
<!DOCTYPE svg PUBLIC "-//W3C//DTD SVG 1.1//EN" "http://www.w3.org/Graphics/SVG/1.1/DTD/svg11.dtd">
<svg version="1.1" id="Icon" xmlns="http://www.w3.org/2000/svg" xmlns:xlink="http://www.w3.org/1999/xlink" x="0px" y="0px"
	 width="15px" height="15px" viewBox="24.5 24.5 15 15" enable-background="new 24.5 24.5 15 15" xml:space="preserve">
<rect x="24.5" y="24.5" fill="none" width="15" height="15"/>
<g>
	<path fill="#333333" d="M37.134,30.719l-5.156-4.735l-5.134,4.756c0,0-0.52,0.399-0.52,0.671v6.126c0,0.273,0.22,0.493,0.493,0.493
		h10.366c0.272,0,0.493-0.22,0.493-0.493v-6.126C37.676,31.139,37.134,30.719,37.134,30.719z M31.968,28.26
		c0.837,0,1.519,0.68,1.519,1.517c0,0.838-0.682,1.519-1.519,1.519c-0.836,0-1.518-0.681-1.518-1.519
		C30.45,28.94,31.131,28.26,31.968,28.26z M35.948,32.08c-0.059,0.137-0.166,0.245-0.305,0.3l-2.397,0.97v0.524l2.648,3.223H28.04
		l2.651-3.22v-0.554l-2.335-0.944c-0.139-0.056-0.247-0.163-0.304-0.3c-0.058-0.137-0.059-0.288-0.002-0.424
		c0.11-0.277,0.443-0.419,0.725-0.307l2.034,0.823c0.145-0.24,0.403-0.387,0.688-0.387h0.947c0.29,0,0.558,0.159,0.698,0.409
		l2.086-0.844c0.282-0.113,0.613,0.03,0.726,0.308C36.007,31.792,36.006,31.943,35.948,32.08z"/>
	<path fill="#FFFFFF" d="M35.948,32.08c-0.059,0.137-0.166,0.245-0.305,0.3l-2.397,0.97v0.524l2.648,3.223H28.04l2.651-3.22v-0.554
		l-2.335-0.944c-0.139-0.056-0.247-0.163-0.304-0.3c-0.058-0.137-0.059-0.288-0.002-0.424c0.11-0.277,0.443-0.419,0.725-0.307
		l2.034,0.823c0.145-0.24,0.403-0.387,0.688-0.387h0.947c0.29,0,0.558,0.159,0.698,0.409l2.086-0.844
		c0.282-0.113,0.613,0.03,0.726,0.308C36.007,31.792,36.006,31.943,35.948,32.08z"/>
	<circle fill="#FFFFFF" cx="31.968" cy="29.778" r="1.518"/>
	<path fill="#FFFFFF" d="M31.978,25.983l5.156,4.735c0,0,0.542,0.42,0.542,0.692v6.126c0,0.273-0.221,0.493-0.493,0.493H26.817
		c-0.273,0-0.493-0.22-0.493-0.493v-6.126c0-0.272,0.52-0.671,0.52-0.671L31.978,25.983 M31.978,25.515
		c-0.115,0-0.229,0.042-0.319,0.125l-5.118,4.742c-0.264,0.206-0.686,0.601-0.686,1.029v6.126c0,0.53,0.432,0.962,0.961,0.962
		h10.366c0.53,0,0.962-0.432,0.962-0.962v-6.126c0-0.428-0.437-0.837-0.708-1.05l-5.142-4.723
		C32.205,25.556,32.091,25.515,31.978,25.515L31.978,25.515z"/>
</g>
</svg>
