<?xml version="1.0" encoding="utf-8"?>
<!-- Generator: Adobe Illustrator 16.0.0, SVG Export Plug-In . SVG Version: 6.00 Build 0)  -->
<!DOCTYPE svg PUBLIC "-//W3C//DTD SVG 1.1//EN" "http://www.w3.org/Graphics/SVG/1.1/DTD/svg11.dtd">
<svg version="1.1" id="Icon" xmlns="http://www.w3.org/2000/svg" xmlns:xlink="http://www.w3.org/1999/xlink" x="0px" y="0px"
	 width="15px" height="15px" viewBox="-7.5 -7.5 15 15" enable-background="new -7.5 -7.5 15 15" xml:space="preserve">
<rect x="-7.5" y="-7.5" fill="none" width="15" height="15"/>
<g>
	<path fill="#333333" d="M5.253,2.985L-0.001-6.11l-5.251,9.095h4.746V6.11h1.011V2.985H5.253z M-0.001-4.089
		C0.63-2.997,2.871,0.883,3.502,1.974c-1.26,0-5.743,0-7.004,0C-2.872,0.883-0.631-2.997-0.001-4.089z"/>
	<path fill="#FFFFFF" d="M-0.001-4.089c-0.63,1.092-2.871,4.972-3.501,6.063l0,0c1.261,0,5.744,0,7.004,0
		C3.344,1.702,3.086,1.254,2.777,0.72C1.851-0.883,0.472-3.27-0.001-4.089C-0.001-4.089-0.001-4.089-0.001-4.089L-0.001-4.089z"/>
	<path fill="#FFFFFF" d="M5.659,2.75L0.405-6.344C0.321-6.489,0.166-6.579-0.001-6.579c-0.167,0-0.322,0.089-0.406,0.234
		L-5.658,2.75c-0.084,0.146-0.084,0.324,0,0.469c0.083,0.146,0.238,0.234,0.406,0.234h4.277V6.11c0,0.259,0.21,0.469,0.469,0.469
		h1.011c0.259,0,0.469-0.21,0.469-0.469V3.454h4.28c0.167,0,0.322-0.089,0.406-0.234C5.743,3.074,5.742,2.896,5.659,2.75z
		 M0.504,2.985V6.11h-1.011V2.985h-4.746l5.251-9.095l5.254,9.095H0.504z"/>
</g>
</svg>
