<?xml version="1.0" encoding="utf-8"?>
<!-- Generator: Adobe Illustrator 16.0.0, SVG Export Plug-In . SVG Version: 6.00 Build 0)  -->
<!DOCTYPE svg PUBLIC "-//W3C//DTD SVG 1.1//EN" "http://www.w3.org/Graphics/SVG/1.1/DTD/svg11.dtd">
<svg version="1.1" id="Icon" xmlns="http://www.w3.org/2000/svg" xmlns:xlink="http://www.w3.org/1999/xlink" x="0px" y="0px"
	 width="15px" height="15px" viewBox="24.5 24.5 15 15" enable-background="new 24.5 24.5 15 15" xml:space="preserve">
<rect x="24.5" y="24.5" fill="none" width="15" height="15"/>
<g>
	<ellipse fill="#333333" cx="31.912" cy="28.305" rx="1.984" ry="1.984"/>
	<circle fill="#333333" cx="28.024" cy="35.695" r="1.984"/>
	<path fill="#333333" d="M37.96,35.694c0,1.097-0.888,1.984-1.985,1.984c-1.095,0-1.983-0.888-1.983-1.984
		c0-1.096,0.889-1.983,1.983-1.983C37.072,33.711,37.96,34.599,37.96,35.694z"/>
	<path fill="#FFFFFF" d="M31.912,26.321c1.097,0,1.985,0.889,1.985,1.984c0,1.096-0.888,1.984-1.985,1.984
		c-1.096,0-1.984-0.888-1.984-1.984C29.927,27.209,30.815,26.321,31.912,26.321 M31.912,25.852c-1.353,0-2.453,1.101-2.453,2.453
		c0,1.353,1.101,2.453,2.453,2.453c1.353,0,2.454-1.1,2.454-2.453C34.365,26.953,33.265,25.852,31.912,25.852L31.912,25.852z"/>
	<path fill="#FFFFFF" d="M28.024,33.711c1.096,0,1.984,0.888,1.984,1.983c0,1.097-0.888,1.984-1.984,1.984
		c-1.095,0-1.984-0.888-1.984-1.984C26.04,34.599,26.929,33.711,28.024,33.711 M28.024,33.242c-1.353,0-2.453,1.1-2.453,2.452
		s1.1,2.453,2.453,2.453s2.453-1.101,2.453-2.453S29.376,33.242,28.024,33.242L28.024,33.242z"/>
	<path fill="#FFFFFF" d="M35.975,33.711c1.098,0,1.985,0.888,1.985,1.983c0,1.097-0.888,1.984-1.985,1.984
		c-1.095,0-1.983-0.888-1.983-1.984C33.991,34.599,34.88,33.711,35.975,33.711 M35.975,33.242c-1.353,0-2.452,1.1-2.452,2.452
		s1.1,2.453,2.452,2.453c1.354,0,2.454-1.101,2.454-2.453S37.328,33.242,35.975,33.242L35.975,33.242z"/>
</g>
</svg>
