<?xml version="1.0" encoding="utf-8"?>
<!-- Generator: Adobe Illustrator 16.0.0, SVG Export Plug-In . SVG Version: 6.00 Build 0)  -->
<!DOCTYPE svg PUBLIC "-//W3C//DTD SVG 1.1//EN" "http://www.w3.org/Graphics/SVG/1.1/DTD/svg11.dtd">
<svg version="1.1" id="Icon" xmlns="http://www.w3.org/2000/svg" xmlns:xlink="http://www.w3.org/1999/xlink" x="0px" y="0px"
	 width="15px" height="15px" viewBox="24.5 24.5 15 15" enable-background="new 24.5 24.5 15 15" xml:space="preserve">
<rect x="24.5" y="24.5" fill="none" width="15" height="15"/>
<g>
	<path fill="#333333" d="M37.687,32.674l-5.602-4.235v-0.478c0.116-0.028,0.367-0.075,0.904-0.137
		c0.882-0.103,1.168-0.594,1.907-1.433c-1.709,0.675-2.549-0.068-2.812-0.384v-0.303h-0.188v2.747l-5.584,4.223
		c0,0-0.209,1.151,0.843,1.166v4.455c0,0,1.342,0,2.604,0s2.238-3.281,2.238-3.281s1.304,3.281,2.362,3.281c1.059,0,2.482,0,2.482,0
		V33.84C37.896,33.824,37.687,32.674,37.687,32.674z M29.21,35.72h-1.302v-0.976c0,0,0.143-0.539,0.662-0.539s0.64,0.539,0.64,0.539
		V35.72z M36.081,35.72h-1.303v-0.976c0,0,0.144-0.539,0.661-0.539c0.52,0,0.642,0.539,0.642,0.539V35.72z"/>
	<path fill="#FFFFFF" d="M33.247,35.494c-0.38-0.607-1.214-2.184-1.214-2.184H32c0,0-0.656,1.576-1.037,2.184
		c-0.38,0.606-1.075,1.68-1.81,1.89l0.67-0.022c0.897-0.666,1.288-1.548,2.178-3.511c1.014,1.83,1.49,2.845,2.386,3.511l0.671,0.022
		C34.322,37.174,33.627,36.101,33.247,35.494z"/>
	<path fill="#FFFFFF" d="M35.442,34.205c0.52,0,0.642,0.539,0.642,0.539v0.976h-1.303v-0.976
		C34.781,34.744,34.925,34.205,35.442,34.205"/>
	<path fill="#FFFFFF" d="M28.568,34.205c0.519,0,0.641,0.539,0.641,0.539v0.976h-1.302v-0.976
		C27.907,34.744,28.05,34.205,28.568,34.205"/>
	<path fill="#FFFFFF" d="M32.085,25.705v0.303c0.186,0.223,0.658,0.658,1.521,0.658c0.36,0,0.788-0.076,1.291-0.274
		c-0.739,0.839-1.025,1.33-1.907,1.433c-0.538,0.062-0.788,0.109-0.904,0.137v0.478l5.602,4.235c0,0,0.209,1.15-0.844,1.166v4.455
		c0,0-1.424,0-2.482,0c-1.058,0-2.362-3.281-2.362-3.281s-0.977,3.281-2.238,3.281s-2.604,0-2.604,0V33.84
		c-1.052-0.015-0.843-1.166-0.843-1.166l5.584-4.223v-2.747H32.085 M34.896,26.392h0.002 M34.36,38.764h2.482
		c0.26,0,0.469-0.209,0.469-0.469v-4.059c0.268-0.088,0.443-0.239,0.553-0.372c0.409-0.498,0.297-1.196,0.283-1.274
		c-0.021-0.116-0.084-0.219-0.179-0.29l-5.25-3.97c0.094-0.012,0.201-0.026,0.325-0.041c0.937-0.109,1.347-0.589,1.915-1.253
		c0.085-0.1,0.176-0.207,0.276-0.32c0.081-0.084,0.131-0.199,0.131-0.325c0-0.257-0.205-0.466-0.462-0.469c-0.003,0-0.005,0-0.008,0
		c-0.019,0-0.038,0.001-0.057,0.003c-0.044,0.005-0.086,0.016-0.125,0.033c-0.402,0.158-0.775,0.238-1.109,0.238
		c-0.53,0-0.863-0.202-1.052-0.375v-0.117c0-0.259-0.209-0.469-0.469-0.469l0,0h-0.188c-0.259,0-0.469,0.21-0.469,0.469v2.514
		L26.031,32.3c-0.093,0.071-0.158,0.174-0.179,0.29c-0.014,0.078-0.126,0.776,0.284,1.275c0.109,0.133,0.285,0.284,0.551,0.371
		v4.059c0,0.26,0.21,0.469,0.469,0.469h2.604H34.36z"/>
</g>
</svg>
