<?xml version="1.0" encoding="utf-8"?>
<!-- Generator: Adobe Illustrator 16.0.0, SVG Export Plug-In . SVG Version: 6.00 Build 0)  -->
<!DOCTYPE svg PUBLIC "-//W3C//DTD SVG 1.1//EN" "http://www.w3.org/Graphics/SVG/1.1/DTD/svg11.dtd">
<svg version="1.1" id="Icon" xmlns="http://www.w3.org/2000/svg" xmlns:xlink="http://www.w3.org/1999/xlink" x="0px" y="0px"
	 width="15px" height="15px" viewBox="24.5 24.5 15 15" enable-background="new 24.5 24.5 15 15" xml:space="preserve">
<rect x="24.5" y="24.5" fill="none" width="15" height="15"/>
<g>
	<path fill="#333333" d="M30.205,27.371c-0.71,0.408-0.603,1.106-0.603,1.106l4.991,8.644l1.85-1.065l-4.991-8.647
		C31.452,27.407,30.911,26.962,30.205,27.371z"/>
	<polygon fill="#333333" points="26.022,30.665 27.661,33.505 30.671,31.77 29.031,28.927 	"/>
	<polygon fill="#333333" points="37.98,27.55 32.578,26.88 32.142,27.131 33.783,29.973 	"/>
	<path fill="#FFFFFF" d="M30.811,27.198c0.387,0,0.641,0.209,0.641,0.209l4.991,8.647l-1.85,1.065l-4.991-8.644
		c0,0-0.108-0.698,0.603-1.106C30.427,27.242,30.633,27.198,30.811,27.198 M30.811,26.729c-0.288,0-0.57,0.079-0.84,0.235
		c-0.78,0.448-0.89,1.206-0.832,1.583c0.009,0.057,0.028,0.112,0.057,0.163l4.991,8.644c0.087,0.15,0.244,0.234,0.406,0.234
		c0.079,0,0.16-0.02,0.233-0.062l1.85-1.065c0.108-0.062,0.187-0.165,0.219-0.285s0.016-0.248-0.047-0.355l-4.99-8.647
		c-0.028-0.049-0.064-0.092-0.108-0.127C31.71,27.013,31.35,26.729,30.811,26.729L30.811,26.729z"/>
	<path fill="#FFFFFF" d="M29.031,28.927l1.641,2.842l-3.011,1.735l-1.639-2.84L29.031,28.927 M29.031,28.458
		c-0.082,0-0.163,0.021-0.235,0.062l-3.009,1.738c-0.224,0.129-0.301,0.416-0.171,0.64l1.639,2.84
		c0.087,0.15,0.244,0.235,0.406,0.235c0.08,0,0.16-0.021,0.234-0.063l3.011-1.736c0.107-0.062,0.186-0.165,0.219-0.285
		c0.032-0.12,0.015-0.248-0.047-0.355l-1.641-2.842c-0.062-0.108-0.165-0.187-0.285-0.219
		C29.112,28.464,29.071,28.458,29.031,28.458L29.031,28.458z"/>
	<path fill="#FFFFFF" d="M32.578,26.88l5.402,0.67l-4.197,2.423l-1.641-2.842L32.578,26.88 M32.578,26.411
		c-0.082,0-0.163,0.021-0.234,0.062l-0.436,0.25c-0.108,0.062-0.187,0.165-0.219,0.285c-0.032,0.121-0.016,0.249,0.046,0.356
		l1.641,2.842c0.087,0.15,0.244,0.235,0.406,0.235c0.079,0,0.16-0.021,0.234-0.063l4.197-2.423c0.174-0.101,0.265-0.302,0.225-0.499
		c-0.04-0.198-0.202-0.348-0.401-0.372l-5.402-0.67C32.616,26.412,32.597,26.411,32.578,26.411L32.578,26.411z"/>
</g>
</svg>
