<?xml version="1.0" encoding="utf-8"?>
<!-- Generator: Adobe Illustrator 16.0.0, SVG Export Plug-In . SVG Version: 6.00 Build 0)  -->
<!DOCTYPE svg PUBLIC "-//W3C//DTD SVG 1.1//EN" "http://www.w3.org/Graphics/SVG/1.1/DTD/svg11.dtd">
<svg version="1.1" id="Icon" xmlns="http://www.w3.org/2000/svg" xmlns:xlink="http://www.w3.org/1999/xlink" x="0px" y="0px"
	 width="15px" height="15px" viewBox="24.5 24.5 15 15" enable-background="new 24.5 24.5 15 15" xml:space="preserve">
<rect x="24.5" y="24.5" fill="none" width="15" height="15"/>
<g>
	<path fill="#FFFFFF" d="M32,25.438c-3.619,0-6.562,2.944-6.562,6.562c0,3.618,2.944,6.562,6.562,6.562
		c3.618,0,6.562-2.944,6.562-6.562C38.562,28.381,35.618,25.438,32,25.438z"/>
	<path fill="#333333" d="M25.906,32c0,3.36,2.734,6.094,6.094,6.094c3.36,0,6.094-2.733,6.094-6.094S35.36,25.906,32,25.906
		C28.64,25.906,25.906,28.64,25.906,32z M26.844,32c0-2.843,2.313-5.156,5.156-5.156c2.844,0,5.156,2.313,5.156,5.156
		c0,2.843-2.312,5.156-5.156,5.156C29.157,37.156,26.844,34.843,26.844,32z"/>
	<path fill="#333333" d="M27.807,31.497c1.123-0.903,2.015-2.099,2.674-3.589l0.806,0.549c0.122,0.123,0.06,0.196-0.184,0.22
		c-0.659,1.343-1.551,2.49-2.673,3.442L27.807,31.497z M29.309,35.087c-0.073,0.243-0.146,0.268-0.22,0.073l-0.293-0.879
		l1.172-0.073c0.536-1.27,0.988-2.515,1.354-3.736l0.879,0.293c0.195,0.073,0.159,0.146-0.109,0.22
		c-0.439,1.075-0.892,2.138-1.355,3.187l3.113-0.22c-0.245-0.414-0.599-0.915-1.062-1.501l0.732-0.331
		c0.659,0.709,1.282,1.625,1.868,2.748l-0.806,0.439c-0.073-0.196-0.196-0.439-0.366-0.732L29.309,35.087L29.309,35.087z
		 M33.41,27.908c0.487,1.611,1.415,2.747,2.783,3.406l-0.623,0.769c-1.562-0.927-2.539-2.234-2.93-3.918L33.41,27.908z"/>
</g>
</svg>
