<?xml version="1.0" encoding="utf-8"?>
<!-- Generator: Adobe Illustrator 16.0.0, SVG Export Plug-In . SVG Version: 6.00 Build 0)  -->
<!DOCTYPE svg PUBLIC "-//W3C//DTD SVG 1.1//EN" "http://www.w3.org/Graphics/SVG/1.1/DTD/svg11.dtd">
<svg version="1.1" id="Icon" xmlns="http://www.w3.org/2000/svg" xmlns:xlink="http://www.w3.org/1999/xlink" x="0px" y="0px"
	 width="15px" height="15px" viewBox="24.5 24.5 15 15" enable-background="new 24.5 24.5 15 15" xml:space="preserve">
<rect x="24.5" y="24.5" fill="none" width="15" height="15"/>
<g>
	<path id="SDF_2_" fill="#333333" d="M37.135,26.243H26.86h-0.01v11.515h0.938v-3.313h9.347V26.243z M36.07,27.307
		c0,0.317,0,1.14,0,2.087h-8.282v-2.087C29.971,27.307,35.316,27.307,36.07,27.307z M27.788,33.38v-2.111h8.282
		c0,0.956,0,1.792,0,2.111C35.316,33.38,29.971,33.38,27.788,33.38z"/>
	<path fill="#FFFFFF" d="M36.069,29.394L36.069,29.394c0.001-0.947,0.001-1.77,0.001-2.087h-0.001c-0.759,0-6.1,0-8.281,0
		c0,0-0.001,0-0.001,0v2.087h0.001H36.069z"/>
	<path fill="#FFFFFF" d="M36.069,33.38L36.069,33.38c0.001-0.319,0.001-1.155,0.001-2.111h-0.001h-8.281h-0.001v2.111
		c0,0,0.001,0,0.001,0C29.969,33.38,35.311,33.38,36.069,33.38z"/>
	<path fill="#FFFFFF" d="M37.135,25.774H26.86c-0.259,0-0.479,0.21-0.479,0.469v11.515c0,0.259,0.209,0.469,0.469,0.469h0.938
		c0.259,0,0.469-0.21,0.469-0.469v-2.845h8.878c0.26,0,0.469-0.21,0.469-0.469v-8.202C37.604,25.984,37.395,25.774,37.135,25.774z
		 M37.135,34.444h-9.347v3.313h-0.938V26.243h0.01h10.274V34.444z"/>
</g>
</svg>
