<?xml version="1.0" encoding="utf-8"?>
<!-- Generator: Adobe Illustrator 16.0.0, SVG Export Plug-In . SVG Version: 6.00 Build 0)  -->
<!DOCTYPE svg PUBLIC "-//W3C//DTD SVG 1.1//EN" "http://www.w3.org/Graphics/SVG/1.1/DTD/svg11.dtd">
<svg version="1.1" id="Icon" xmlns="http://www.w3.org/2000/svg" xmlns:xlink="http://www.w3.org/1999/xlink" x="0px" y="0px"
	 width="15px" height="15px" viewBox="24.5 24.5 15 15" enable-background="new 24.5 24.5 15 15" xml:space="preserve">
<rect x="24.5" y="24.5" fill="none" width="15" height="15"/>
<g>
	<path fill="#333333" d="M37.765,36.533l-3.899-4.679l-1.551-2.221l1.129-0.448l0.742,1.64c0.134,0.342,0.521,0.512,0.861,0.377
		c0.345-0.135,0.515-0.522,0.379-0.863l-1.021-2.251c-0.134-0.343-0.517-0.511-0.859-0.376l-2.329,0.923
		c-0.053,0.021-0.093,0.057-0.138,0.089c-0.003,0.002-0.006,0.002-0.009,0.004l-0.037,0.026c-0.013,0.01-0.03,0.017-0.041,0.028
		l-1.73,1.211c-0.088,0.054-0.167,0.124-0.223,0.219l-0.851,1.451l-1.041-1.137c-0.233-0.284-0.652-0.325-0.937-0.091
		s-0.325,0.654-0.091,0.938l1.667,1.822c0.234,0.283,0.653,0.323,0.938,0.09c0.07-0.057,0.126-0.127,0.166-0.202
		c0.009-0.014,0.021-0.021,0.03-0.034l0.829-1.414l1.377,1.967l-1.666,1.324c-0.363,0.288-0.452,0.779-0.202,1.095
		c0.066,0.084,0.149,0.145,0.242,0.188c0.087,0.061,0.188,0.107,0.299,0.138l2.752,0.729c0.449,0.121,0.896-0.101,0.996-0.493
		c0.105-0.391-0.172-0.805-0.619-0.923l-1.524-0.405l1.199-0.951c0.019-0.015,0.032-0.032,0.051-0.047l0.807-0.566l3.338,3.993
		c0.313,0.267,0.787,0.224,1.055-0.092C38.121,37.273,38.083,36.8,37.765,36.533z"/>
	<path fill="#333333" d="M30.46,27.042c0.332,0.76-0.017,1.642-0.775,1.973c-0.759,0.331-1.643-0.017-1.973-0.775
		c-0.331-0.76,0.016-1.644,0.777-1.974C29.247,25.936,30.129,26.282,30.46,27.042z"/>
	<path fill="#FFFFFF" d="M33.79,27.665c0.265,0,0.513,0.16,0.615,0.423l1.021,2.251c0.136,0.341-0.034,0.729-0.379,0.863
		c-0.079,0.031-0.161,0.046-0.242,0.046c-0.266,0-0.517-0.161-0.619-0.423l-0.742-1.64l-1.129,0.448l1.551,2.221l3.899,4.679
		c0.318,0.267,0.356,0.74,0.09,1.058c-0.149,0.176-0.362,0.267-0.576,0.267c-0.17,0-0.34-0.057-0.479-0.175l-3.338-3.993
		l-0.807,0.566c-0.019,0.015-0.032,0.032-0.051,0.047l-1.199,0.951l1.524,0.405c0.447,0.118,0.725,0.532,0.619,0.923
		c-0.082,0.32-0.393,0.526-0.748,0.526c-0.081,0-0.165-0.011-0.248-0.033L29.8,36.347c-0.111-0.03-0.212-0.077-0.299-0.138
		c-0.092-0.043-0.176-0.104-0.242-0.188c-0.25-0.315-0.162-0.807,0.202-1.095l1.666-1.324l-1.377-1.967l-0.829,1.414
		c-0.008,0.014-0.021,0.021-0.03,0.034c-0.04,0.075-0.096,0.146-0.166,0.202c-0.125,0.103-0.275,0.152-0.424,0.152
		c-0.192,0-0.382-0.083-0.514-0.242l-1.667-1.822c-0.233-0.284-0.193-0.704,0.091-0.938c0.124-0.102,0.274-0.152,0.423-0.152
		c0.192,0,0.382,0.083,0.514,0.243l1.041,1.137l0.851-1.451c0.057-0.095,0.135-0.165,0.223-0.219l1.73-1.211
		c0.011-0.012,0.028-0.018,0.041-0.028l0.037-0.026c0.003-0.002,0.006-0.002,0.009-0.004c0.044-0.032,0.084-0.068,0.138-0.089
		l2.329-0.923C33.626,27.68,33.709,27.665,33.79,27.665 M33.79,27.196L33.79,27.196c-0.143,0-0.282,0.026-0.415,0.079l-2.331,0.924
		c-0.1,0.04-0.171,0.093-0.218,0.129c-0.01,0.006-0.02,0.012-0.029,0.019l-0.03,0.021c-0.016,0.01-0.038,0.023-0.062,0.043
		l-1.703,1.191c-0.157,0.1-0.281,0.225-0.367,0.371l-0.53,0.904l-0.604-0.66c-0.216-0.256-0.531-0.403-0.867-0.403
		c-0.263,0-0.519,0.092-0.721,0.259c-0.482,0.397-0.552,1.114-0.155,1.597c0.005,0.006,0.011,0.013,0.017,0.019l1.661,1.814
		c0.216,0.256,0.531,0.402,0.867,0.402c0.262,0,0.518-0.092,0.721-0.258c0.1-0.082,0.184-0.179,0.25-0.289
		c0.016-0.019,0.033-0.042,0.05-0.069l0.462-0.788l0.705,1.007l-1.321,1.05c-0.563,0.447-0.688,1.233-0.277,1.753
		c0.1,0.126,0.226,0.229,0.375,0.304c0.125,0.082,0.263,0.143,0.411,0.183l2.755,0.729c0.119,0.032,0.244,0.049,0.368,0.049
		c0.575,0,1.069-0.361,1.202-0.879c0.077-0.288,0.034-0.6-0.124-0.872c-0.175-0.301-0.478-0.527-0.83-0.62l-0.62-0.165l0.467-0.371
		c0.023-0.02,0.041-0.035,0.058-0.051l0.426-0.299l3.062,3.663c0.017,0.021,0.035,0.039,0.056,0.057
		c0.218,0.185,0.495,0.286,0.782,0.286c0.359,0,0.7-0.157,0.934-0.431c0.424-0.508,0.371-1.254-0.11-1.69l-3.863-4.635l-0.007-0.01
		c0.171,0.101,0.368,0.157,0.573,0.157c0.143,0,0.281-0.026,0.414-0.079c0.283-0.111,0.508-0.326,0.629-0.606
		c0.121-0.278,0.126-0.585,0.014-0.866c-0.003-0.007-0.006-0.014-0.009-0.02l-1.016-2.242C34.663,27.474,34.254,27.196,33.79,27.196
		L33.79,27.196z M33.037,29.851l0.164-0.065l0.384,0.848L33.037,29.851L33.037,29.851z"/>
	<path fill="#FFFFFF" d="M29.086,26.141c0.578,0,1.128,0.336,1.374,0.902c0.332,0.76-0.017,1.642-0.775,1.973
		c-0.195,0.085-0.398,0.125-0.598,0.125c-0.579,0-1.13-0.337-1.375-0.9c-0.331-0.76,0.016-1.644,0.777-1.974
		C28.683,26.181,28.886,26.141,29.086,26.141 M29.086,25.672L29.086,25.672c-0.271,0-0.535,0.055-0.785,0.165
		c-0.481,0.208-0.853,0.593-1.046,1.082c-0.193,0.489-0.184,1.025,0.026,1.508c0.314,0.718,1.022,1.182,1.806,1.182
		c0.271,0,0.535-0.055,0.785-0.164c0.482-0.21,0.854-0.595,1.046-1.084c0.192-0.489,0.183-1.024-0.028-1.506
		C30.577,26.137,29.869,25.672,29.086,25.672L29.086,25.672z"/>
</g>
</svg>
