<?xml version="1.0" encoding="utf-8"?>
<!-- Generator: Adobe Illustrator 16.0.0, SVG Export Plug-In . SVG Version: 6.00 Build 0)  -->
<!DOCTYPE svg PUBLIC "-//W3C//DTD SVG 1.1//EN" "http://www.w3.org/Graphics/SVG/1.1/DTD/svg11.dtd">
<svg version="1.1" id="Icon" xmlns="http://www.w3.org/2000/svg" xmlns:xlink="http://www.w3.org/1999/xlink" x="0px" y="0px"
	 width="15px" height="15px" viewBox="24.5 24.5 15 15" enable-background="new 24.5 24.5 15 15" xml:space="preserve">
<rect x="24.5" y="24.5" fill="none" width="15" height="15"/>
<g>
	<path fill="#333333" d="M38.14,36.562l-0.464-0.67c-0.087-0.125-0.229-0.199-0.382-0.199h-0.088v-4.898h0.21
		c0.259,0,0.469-0.21,0.469-0.469c0-0.259-0.21-0.469-0.469-0.469h-0.641c-0.004-0.003-0.006-0.008-0.01-0.011l-4.393-3.059
		c-0.159-0.108-0.368-0.108-0.527,0l-4.375,3.05c-0.007,0.005-0.011,0.013-0.019,0.019h-0.694c-0.259,0-0.469,0.209-0.469,0.469
		c0,0.258,0.209,0.469,0.469,0.469h0.125v4.898h-0.137c-0.143,0-0.278,0.065-0.366,0.179l-0.503,0.645
		c-0.109,0.14-0.129,0.33-0.052,0.489c0.078,0.16,0.24,0.279,0.417,0.28l11.516,0.007c0.173,0.001,0.332-0.096,0.413-0.249
		C38.25,36.891,38.239,36.705,38.14,36.562z M36.269,35.693h-2.062v-4.898h2.062V35.693z M33.269,35.693H30.9v-4.898h2.368V35.693z
		 M32.109,27.743c0.298,0.203,1.916,1.332,3.035,2.115h-6.066C30.193,29.077,31.811,27.946,32.109,27.743z M27.82,30.795h2.143
		v4.898H27.82V30.795z"/>
	<polygon fill="#FFFFFF" points="34.209,30.795 34.206,30.795 34.206,35.693 34.209,35.693 36.269,35.693 36.271,35.693 
		36.271,30.795 36.269,30.795 	"/>
	<polygon fill="#FFFFFF" points="30.903,30.795 30.9,30.795 30.9,35.693 30.903,35.693 33.269,35.693 33.271,35.693 33.271,30.795 
		33.269,30.795 	"/>
	<path fill="#FFFFFF" d="M35.144,29.857h0.003c-1.119-0.783-2.736-1.912-3.035-2.115c0,0-0.001,0.001-0.001,0.001
		s-0.001,0-0.001-0.001c-0.298,0.204-1.916,1.334-3.032,2.115h0.003H35.144z"/>
	<polygon fill="#FFFFFF" points="27.823,30.795 27.82,30.795 27.82,35.693 27.823,35.693 29.963,35.693 29.966,35.693 
		29.966,30.795 29.963,30.795 	"/>
	<path fill="#FFFFFF" d="M38.524,36.295l-0.463-0.669c-0.099-0.143-0.233-0.252-0.387-0.32v-4.079
		c0.392-0.112,0.679-0.474,0.679-0.901c0-0.517-0.421-0.938-0.938-0.938h-0.488l-4.287-2.985c-0.161-0.109-0.343-0.165-0.531-0.165
		c0,0,0,0,0,0c-0.188,0-0.371,0.056-0.527,0.162l-4.287,2.988h-0.539c-0.517,0-0.938,0.42-0.938,0.938
		c0,0.396,0.247,0.735,0.594,0.872v4.088c-0.158,0.061-0.299,0.162-0.404,0.297l-0.503,0.645c-0.218,0.28-0.259,0.666-0.103,0.984
		c0.159,0.328,0.487,0.541,0.836,0.543l11.518,0.007c0.351,0,0.667-0.191,0.828-0.501C38.747,36.952,38.725,36.582,38.524,36.295z
		 M38.17,37.044c-0.08,0.152-0.238,0.249-0.41,0.249c-0.001,0-0.002,0-0.003,0l-11.516-0.007c-0.178-0.001-0.339-0.12-0.417-0.28
		c-0.078-0.159-0.058-0.35,0.052-0.489l0.503-0.645c0.088-0.113,0.223-0.179,0.366-0.179h0.137v-4.898h-0.125
		c-0.259,0-0.469-0.21-0.469-0.469c0-0.259,0.209-0.469,0.469-0.469h0.694c0.007-0.006,0.011-0.014,0.019-0.019l4.375-3.05
		c0.08-0.054,0.172-0.082,0.264-0.082c0.092,0,0.184,0.027,0.264,0.081l4.393,3.059c0.004,0.003,0.006,0.007,0.01,0.011h0.641
		c0.259,0,0.469,0.209,0.469,0.469c0,0.258-0.21,0.469-0.469,0.469h-0.21v4.898h0.088c0.152,0,0.295,0.074,0.382,0.199l0.464,0.67
		C38.239,36.705,38.25,36.891,38.17,37.044z"/>
</g>
</svg>
