<?xml version="1.0" encoding="utf-8"?>
<!-- Generator: Adobe Illustrator 16.0.0, SVG Export Plug-In . SVG Version: 6.00 Build 0)  -->
<!DOCTYPE svg PUBLIC "-//W3C//DTD SVG 1.1//EN" "http://www.w3.org/Graphics/SVG/1.1/DTD/svg11.dtd">
<svg version="1.1" id="Icon" xmlns="http://www.w3.org/2000/svg" xmlns:xlink="http://www.w3.org/1999/xlink" x="0px" y="0px"
	 width="15px" height="15px" viewBox="24.5 24.5 15 15" enable-background="new 24.5 24.5 15 15" xml:space="preserve">
<rect x="24.5" y="24.5" fill="none" width="15" height="15"/>
<g>
	<path fill="#333333" d="M36.708,35.457c-0.001-0.002-0.001-0.004-0.001-0.006l-0.361-1.162c0.003-0.017,0.01-0.031,0.01-0.048
		c0-0.201,0-2.345,0-2.345s0.002-0.023,0.004-0.054c0.12,0.038,0.243,0.16,0.335,0.426c0.162,0.473,0.377,1.146,0.516,1.706
		c0.12,0.48,0.623,0.923,0.623,0.923l-0.064-0.308l0.14,0.073l-0.059-0.256l0.207,0.146c0,0-0.407-0.633-0.549-0.896
		c-0.143-0.265-0.387-1.22-0.569-1.852c-0.184-0.632-0.888-0.483-0.888-0.483c-0.014,0-0.021,0.006-0.032,0.007
		c-0.011-0.001-0.019-0.005-0.029-0.005c-0.407-0.01-1.11-0.012-1.866-0.012v-2.42c0-0.21-0.171-0.382-0.383-0.382h-1.225
		c-0.211,0-0.382,0.171-0.382,0.382v2.42c-0.536-0.001-0.967-0.004-1.159-0.013c-0.333-0.766-1.582-2.665-3.052-3.261
		c0.09,0.401,0.204,0.775,0.204,0.775l-2.183,1.717l0.326,0.605l0.505-0.152c0.082,0.284,0.331,0.854,1.055,1.155
		c0.204,0.085,0.399,0.119,0.581,0.119c0.125,0,0.242-0.02,0.353-0.046l0.659,1.517l-1.419,3.601
		c-0.112,0.295,0.037,0.623,0.331,0.734c0.295,0.111,0.623-0.037,0.733-0.332l1.012-2.566l0.176,0.62
		c0.008,0.027,0.027,0.047,0.039,0.072c0.011,0.041,0.017,0.083,0.039,0.123l1.038,1.931c0.152,0.275,0.499,0.375,0.773,0.223
		c0.276-0.152,0.375-0.498,0.223-0.774l-1.021-1.899c0-0.001,0-0.002,0-0.004l-0.262-0.921c0.804,0.015,1.92,0.034,2.922,0.053
		l-0.155,3.063c-0.012,0.315,0.235,0.579,0.549,0.59c0.314,0.012,0.578-0.234,0.589-0.548l0.157-3.085
		c0.035,0.001,0.072,0.002,0.106,0.002l0.372,1.196c0.009,0.028,0.029,0.05,0.043,0.076c0.016,0.062,0.036,0.124,0.074,0.18
		l1.195,1.838c0.176,0.261,0.529,0.331,0.79,0.156c0.262-0.174,0.332-0.527,0.156-0.789L36.708,35.457z M27.98,31.779
		c-0.588-0.245-0.775-0.703-0.832-0.908l0.913-0.274l0.542,1.246C28.415,31.877,28.206,31.873,27.98,31.779z"/>
	<circle fill="#333333" cx="33.128" cy="26.906" r="1.146"/>
	<path fill="#FFFFFF" d="M27.923,28.038c1.47,0.596,2.719,2.495,3.052,3.261c0.192,0.009,0.623,0.012,1.159,0.013v-2.42
		c0-0.21,0.171-0.382,0.382-0.382h1.225c0.212,0,0.383,0.171,0.383,0.382v2.42c0.756,0,1.459,0.001,1.866,0.012
		c0.011,0,0.019,0.004,0.029,0.005c0.012-0.001,0.018-0.007,0.03-0.007c0.001,0,0.001,0,0.002,0c0,0,0.071-0.015,0.176-0.015
		c0.221,0,0.587,0.069,0.712,0.499c0.183,0.632,0.427,1.587,0.569,1.852c0.142,0.264,0.549,0.896,0.549,0.896l-0.207-0.146
		l0.059,0.256l-0.14-0.073l0.064,0.308c0,0-0.503-0.442-0.623-0.923c-0.139-0.561-0.354-1.233-0.516-1.706
		c-0.092-0.266-0.215-0.388-0.335-0.426c-0.002,0.031-0.004,0.054-0.004,0.054s0,2.144,0,2.345c0,0.017-0.007,0.031-0.01,0.048
		l0.361,1.162c0,0.002,0,0.004,0.001,0.006l1.176,1.81c0.176,0.262,0.105,0.615-0.156,0.789c-0.097,0.065-0.207,0.097-0.315,0.097
		c-0.184,0-0.364-0.089-0.475-0.253l-1.195-1.838c-0.038-0.056-0.059-0.117-0.074-0.18c-0.014-0.026-0.034-0.048-0.043-0.076
		l-0.372-1.196c-0.034,0-0.071-0.001-0.106-0.002l-0.157,3.085c-0.011,0.307-0.263,0.549-0.567,0.549
		c-0.008,0-0.015-0.001-0.021-0.001c-0.313-0.011-0.561-0.274-0.549-0.59l0.155-3.063c-1.002-0.019-2.118-0.038-2.922-0.053
		l0.262,0.921c0,0.002,0,0.003,0,0.004l1.021,1.899c0.152,0.276,0.053,0.622-0.223,0.774c-0.087,0.048-0.182,0.071-0.275,0.071
		c-0.2,0-0.395-0.106-0.498-0.294l-1.038-1.931c-0.022-0.04-0.027-0.082-0.039-0.123c-0.012-0.025-0.031-0.045-0.039-0.072
		l-0.176-0.62l-1.012,2.566c-0.086,0.229-0.302,0.369-0.532,0.369c-0.067,0-0.135-0.012-0.202-0.037
		c-0.294-0.111-0.443-0.439-0.331-0.734l1.419-3.601l-0.659-1.517c-0.111,0.026-0.227,0.046-0.353,0.046
		c-0.181,0-0.376-0.034-0.581-0.119c-0.724-0.302-0.973-0.871-1.055-1.155l-0.505,0.152l-0.326-0.605l2.183-1.717
		C28.126,28.812,28.013,28.439,27.923,28.038 M28.394,31.863c0.072,0,0.142-0.007,0.209-0.019l-0.542-1.246l-0.913,0.274
		c0.056,0.205,0.244,0.663,0.832,0.908C28.125,31.839,28.264,31.863,28.394,31.863 M27.923,27.569c-0.109,0-0.217,0.038-0.303,0.111
		c-0.133,0.112-0.192,0.29-0.154,0.46c0.041,0.182,0.085,0.358,0.124,0.499l-1.936,1.523c-0.179,0.141-0.231,0.39-0.123,0.59
		l0.326,0.605c0.083,0.155,0.244,0.247,0.413,0.247c0.045,0,0.09-0.007,0.135-0.02l0.103-0.031c0.187,0.344,0.529,0.763,1.143,1.018
		c0.247,0.103,0.502,0.155,0.761,0.155c0.021,0,0.043-0.001,0.065-0.002l0.439,1.012l-1.348,3.42
		c-0.1,0.266-0.092,0.548,0.022,0.801s0.32,0.446,0.58,0.544c0.118,0.045,0.241,0.067,0.367,0.067c0.429,0,0.819-0.271,0.971-0.673
		l0.561-1.422l0.891,1.658c0.185,0.336,0.533,0.541,0.911,0.541c0.175,0,0.349-0.045,0.503-0.131
		c0.241-0.133,0.418-0.353,0.495-0.62c0.077-0.267,0.045-0.547-0.09-0.791l-0.993-1.847l-0.077-0.27l1.07,0.019l0.736,0.014
		l-0.132,2.58c-0.021,0.58,0.43,1.062,1.001,1.082c0.013,0,0.025,0.001,0.038,0.001c0.562,0,1.017-0.44,1.036-1.001l0.058-1.136
		l1.029,1.582c0.197,0.294,0.521,0.466,0.867,0.466c0.206,0,0.405-0.061,0.576-0.176c0.23-0.153,0.388-0.388,0.441-0.66
		s-0.002-0.549-0.156-0.78l-1.136-1.746l-0.264-0.852c0.22,0.454,0.598,0.796,0.649,0.841c0.088,0.077,0.198,0.117,0.31,0.117
		c0.081,0,0.162-0.021,0.236-0.064c0.128-0.074,0.211-0.204,0.229-0.347c0.029-0.018,0.057-0.038,0.082-0.062
		c0.162-0.155,0.192-0.403,0.07-0.592c-0.11-0.172-0.42-0.662-0.529-0.865c-0.083-0.154-0.267-0.812-0.388-1.248
		c-0.051-0.181-0.1-0.356-0.145-0.513c-0.152-0.524-0.587-0.837-1.162-0.837c-0.1,0-0.179,0.01-0.228,0.017c-0.004,0-0.007,0-0.01,0
		c-0.324-0.008-0.854-0.011-1.397-0.012v-1.951c0-0.469-0.382-0.851-0.852-0.851h-1.225c-0.469,0-0.851,0.381-0.851,0.851v1.95
		c-0.139,0-0.275-0.002-0.393-0.003c-0.488-0.934-1.713-2.642-3.172-3.234C28.042,27.58,27.982,27.569,27.923,27.569L27.923,27.569z
		"/>
	<path fill="#FFFFFF" d="M33.128,25.759c0.634,0,1.146,0.513,1.146,1.146c0,0.634-0.513,1.146-1.146,1.146
		c-0.633,0-1.146-0.513-1.146-1.146C31.981,26.272,32.495,25.759,33.128,25.759 M33.128,25.291c-0.891,0-1.615,0.724-1.615,1.615
		s0.725,1.615,1.615,1.615s1.615-0.725,1.615-1.615S34.019,25.291,33.128,25.291L33.128,25.291z"/>
</g>
</svg>
