<?xml version="1.0" encoding="utf-8"?>
<!-- Generator: Adobe Illustrator 16.0.0, SVG Export Plug-In . SVG Version: 6.00 Build 0)  -->
<!DOCTYPE svg PUBLIC "-//W3C//DTD SVG 1.1//EN" "http://www.w3.org/Graphics/SVG/1.1/DTD/svg11.dtd">
<svg version="1.1" id="Icon" xmlns="http://www.w3.org/2000/svg" xmlns:xlink="http://www.w3.org/1999/xlink" x="0px" y="0px"
	 width="15px" height="15px" viewBox="24.5 24.5 15 15" enable-background="new 24.5 24.5 15 15" xml:space="preserve">
<rect x="24.5" y="24.5" fill="none" width="15" height="15"/>
<g>
	<path fill="#FFFFFF" d="M32,25.438c-3.619,0-6.562,2.944-6.562,6.562c0,3.618,2.944,6.562,6.562,6.562
		c3.618,0,6.562-2.944,6.562-6.562C38.562,28.381,35.618,25.438,32,25.438z"/>
	<path fill="#333333" d="M25.906,32c0,3.36,2.734,6.094,6.094,6.094c3.36,0,6.094-2.733,6.094-6.094S35.36,25.906,32,25.906
		C28.64,25.906,25.906,28.64,25.906,32z M26.844,32c0-2.843,2.313-5.156,5.156-5.156c2.844,0,5.156,2.313,5.156,5.156
		c0,2.843-2.312,5.156-5.156,5.156C29.157,37.156,26.844,34.843,26.844,32z"/>
	<path fill="#333333" d="M34.043,34.093c0.088,0,0.132-0.044,0.132-0.132v-2.34H32.33v4.087h-0.758v-4.087h-1.681v3.197h-0.758
		v-3.824h2.439v-1.021h-3.296v-0.626h3.296v-1.055h0.725c0.176,0.022,0.187,0.088,0.033,0.198v0.857h3.395v0.626H32.33v1.021h2.604
		v3.296c0,0.352-0.176,0.527-0.527,0.527h-0.857l-0.065-0.726H34.043z"/>
</g>
</svg>
