<?xml version="1.0" encoding="utf-8"?>
<!-- Generator: Adobe Illustrator 16.0.0, SVG Export Plug-In . SVG Version: 6.00 Build 0)  -->
<!DOCTYPE svg PUBLIC "-//W3C//DTD SVG 1.1//EN" "http://www.w3.org/Graphics/SVG/1.1/DTD/svg11.dtd">
<svg version="1.1" id="Icon" xmlns="http://www.w3.org/2000/svg" xmlns:xlink="http://www.w3.org/1999/xlink" x="0px" y="0px"
	 width="15px" height="15px" viewBox="-7.5 -7.5 15 15" enable-background="new -7.5 -7.5 15 15" xml:space="preserve">
<rect x="-7.5" y="-7.5" fill="none" width="15" height="15"/>
<g>
	<path fill="#333333" d="M2.344,1.406c0,0.518-0.419,0.938-0.938,0.938h-2.812c-0.517,0-0.938-0.419-0.938-0.938v-2.812
		c0-0.518,0.42-0.938,0.938-0.938h2.812c0.518,0,0.938,0.42,0.938,0.938V1.406z"/>
	<path fill="#FFFFFF" d="M1.406-2.344c0.518,0,0.938,0.42,0.938,0.938v2.812c0,0.518-0.419,0.938-0.938,0.938h-2.812
		c-0.517,0-0.938-0.419-0.938-0.938v-2.812c0-0.518,0.42-0.938,0.938-0.938H1.406 M1.406-2.738h-2.812
		c-0.734,0-1.331,0.597-1.331,1.332v2.812c0,0.734,0.597,1.331,1.331,1.331h2.812c0.734,0,1.331-0.597,1.331-1.331v-2.812
		C2.737-2.141,2.14-2.738,1.406-2.738L1.406-2.738z"/>
</g>
</svg>
