<?xml version="1.0" encoding="utf-8"?>
<!-- Generator: Adobe Illustrator 20.1.0, SVG Export Plug-In . SVG Version: 6.00 Build 0)  -->
<svg version="1.1" id="レイヤー_1" xmlns="http://www.w3.org/2000/svg" xmlns:xlink="http://www.w3.org/1999/xlink" x="0px"
	 y="0px" viewBox="0 0 11 11" enable-background="new 0 0 11 11" xml:space="preserve">
<path d="M6.4,10.1c0,0-0.2,0.2-0.5,0.3V6.8c0.1,0,0.3,0,0.5,0c1.6-0.2,3-1,3.3-2.2c0-0.1,0.1-0.9,0.1-1.2c0-0.3,0-0.9,0-0.9V0.3
	L7.4,2.5L5.5,0.4L3.6,2.5L1.2,0.3v2.2c0,0,0,0.6,0,0.9c0,0.3,0,1.1,0.1,1.2c0.3,1.2,1.6,2,3.3,2.2c0.2,0,0.3,0,0.4,0v3.6
	c-0.2-0.1-0.4-0.3-0.4-0.3C2.8,7.3,1.2,6.8,0,7.1c0.8,3.5,3.6,3.7,4.6,3.6h1.8c1,0,3.8-0.1,4.6-3.6C9.8,6.8,8.2,7.3,6.4,10.1z"/>
</svg>
