<?xml version="1.0" encoding="utf-8"?>
<!-- Generator: Adobe Illustrator 16.0.0, SVG Export Plug-In . SVG Version: 6.00 Build 0)  -->
<!DOCTYPE svg PUBLIC "-//W3C//DTD SVG 1.1//EN" "http://www.w3.org/Graphics/SVG/1.1/DTD/svg11.dtd">
<svg version="1.1" id="Icon" xmlns="http://www.w3.org/2000/svg" xmlns:xlink="http://www.w3.org/1999/xlink" x="0px" y="0px"
	 width="15px" height="15px" viewBox="24.5 24.5 15 15" enable-background="new 24.5 24.5 15 15" xml:space="preserve">
<rect x="24.5" y="24.5" fill="none" width="15" height="15"/>
<g>
	<path fill="#FFFFFF" d="M32,25.438c-3.619,0-6.562,2.944-6.562,6.562c0,3.618,2.944,6.562,6.562,6.562
		c3.618,0,6.562-2.944,6.562-6.562C38.562,28.381,35.618,25.438,32,25.438z"/>
	<path fill="#333333" d="M32,25.906c-3.36,0-6.094,2.733-6.094,6.094S28.64,38.094,32,38.094c3.36,0,6.094-2.733,6.094-6.094
		S35.36,25.906,32,25.906z M35.298,28.041L35.298,28.041L32,31.337l-3.296-3.296l-0.002,0.001c0.895-0.747,2.044-1.198,3.298-1.198
		S34.403,27.294,35.298,28.041z M26.844,32c0-1.254,0.451-2.404,1.198-3.299l-0.001,0.002L31.337,32l-3.297,3.297l0,0.001
		C27.294,34.402,26.844,33.253,26.844,32z M28.701,35.958l0.003,0.002L32,32.663l3.297,3.297l0.002-0.002
		c-0.895,0.748-2.045,1.198-3.299,1.198S29.596,36.705,28.701,35.958z M35.959,35.299l0.001-0.002L32.663,32l3.297-3.297
		l-0.001-0.002c0.746,0.895,1.197,2.044,1.197,3.299C37.156,33.254,36.705,34.403,35.959,35.299z"/>
</g>
</svg>
