<?xml version="1.0" encoding="utf-8"?>
<!-- Generator: Adobe Illustrator 20.1.0, SVG Export Plug-In . SVG Version: 6.00 Build 0)  -->
<svg version="1.1" id="レイヤー_1" xmlns="http://www.w3.org/2000/svg" xmlns:xlink="http://www.w3.org/1999/xlink" x="0px"
	 y="0px" viewBox="0 0 11 11" enable-background="new 0 0 11 11" xml:space="preserve">
<path d="M10.8,0h-6C4.6,0,4.4,0.2,4.4,0.3V4C4.3,4,4,4,3.7,4V1.9c0-0.1-0.3-0.2-0.6-0.2V1.3L4,0.4L3.6,0L3.1,0.5L2.5,1.1v0.7
	c-0.4,0-0.7,0.1-0.7,0.2V4c-0.3,0-0.4,0-0.5,0.1C1.1,4.2,0.8,4.5,0.7,4.7C0.5,5.2,0,6.6,0,8c0,2,0.9,2.6,1.7,3C2,11,2.4,11,2.7,10.8
	c0.2-0.2,0.4-0.4,0.4-0.8c0-0.2,0-3.3,0-3.3c0.4,0,0.6-0.1,0.6-0.2v-2c0.3,0,0.6,0,0.7,0v2.8c0,0,0,0,0,0V11h3.2l3.4,0V0.3
	C11,0.1,10.9,0,10.8,0z M2.5,10c0,0.2-0.1,0.3-0.1,0.4c-0.3,0.3-0.9,0-1.3-0.3C0,8.8,0.7,6.5,1,5.2c0.1-0.3,0.3-0.6,0.8-0.6v2
	c0,0.1,0.3,0.2,0.7,0.2C2.5,6.7,2.5,9.9,2.5,10z M9.9,3.9c0,0.2-0.2,0.4-0.4,0.4H5.9c-0.2,0-0.4-0.2-0.4-0.4V1.5
	c0-0.2,0.2-0.4,0.4-0.4h3.5c0.2,0,0.4,0.2,0.4,0.4V3.9z"/>
</svg>
