<?xml version="1.0" encoding="utf-8"?>
<!-- Generator: Adobe Illustrator 16.0.0, SVG Export Plug-In . SVG Version: 6.00 Build 0)  -->
<!DOCTYPE svg PUBLIC "-//W3C//DTD SVG 1.1//EN" "http://www.w3.org/Graphics/SVG/1.1/DTD/svg11.dtd">
<svg version="1.1" id="Icon" xmlns="http://www.w3.org/2000/svg" xmlns:xlink="http://www.w3.org/1999/xlink" x="0px" y="0px"
	 width="15px" height="15px" viewBox="24.5 24.5 15 15" enable-background="new 24.5 24.5 15 15" xml:space="preserve">
<rect x="24.5" y="24.5" fill="none" width="15" height="15"/>
<g>
	<path fill="#333333" d="M38.106,29.792c-0.121-1.247-1.268-1.568-1.37-1.594c-0.465-0.164-1.192-0.17-2.46-0.162
		c-1.902,0.013-2.404-0.072-3.289-0.449c-0.881-0.375-1.665-0.752-2.668-0.468c-1.295,0.366-1.248,1.961-1.92,2.488
		c0,0-0.583,0.375-0.568,1.947s0.229,3.66,0.229,3.66s0.015,0.243,0.396,0.243s0.413-0.336,0.413-0.336s-0.489-3.872,0.426-4.05
		c0.091,0.09,0.14,0.188,0.167,0.273c0.04,0.128,0.178,0.015,0.334-0.116c0.296-0.248,0.654-0.606,1.222-0.444
		c0.482,0.138,0.715,1.283,0.787,2.388L29.8,33.671c-0.107,1.271-0.233,2.813-0.233,2.813s0.216,0.332,0.604,0.332
		c0.387,0,0.548-0.251,0.548-0.251l0.615-3.069c0.189-0.328,0.982,0.056,1.907,0.085c0.869,0.028,1.269-0.198,1.617,0.172
		l0.114,0.227c0.345,1.026,0.646,1.873,0.736,2.577c0.087,0.26,0.188,0.424,0.653,0.424c0.38,0,0.531-0.319,0.548-0.455
		c0.016-0.114,0.009-1.04-0.009-2.713l0.008-0.094c0.028-0.246,0.087-0.46,0.194-0.619c0.23-0.343,0.451-1.052,0.555-1.832
		c0.079,0.18,0.136,0.307,0.148,0.349c0.07,0.233,0.11,0.601-0.013,0.819c-0.122,0.218-0.096,1.007-0.001,1.308
		c0.074,0.231,0.218,0.431,0.282,0.216C38.19,33.243,38.199,30.745,38.106,29.792z"/>
	<path fill="#FFFFFF" d="M29.02,29.975c0.001,0,0.002,0,0.003,0c1.437,0.042,1.451-0.182,1.493-0.851
		c0.025-0.409-0.193-0.706-0.325-0.847c-0.199-0.212-0.416-0.306-0.542-0.306c-0.315,0-0.557,0.238-0.56,0.241
		c-0.038,0.038-0.17,0.219,0.03,0.417c0.237,0.233,0.193,0.831-0.02,1.04C28.918,29.846,28.913,29.98,29.02,29.975z"/>
	<path fill="#FFFFFF" d="M38.573,29.747c-0.146-1.5-1.464-1.932-1.699-1.997c-0.451-0.155-1.059-0.185-2.015-0.185
		c-0.182,0-0.377,0.001-0.586,0.002c-0.116,0.001-0.229,0.001-0.335,0.001c-1.575,0-2.005-0.088-2.768-0.413l-0.138-0.059
		c-0.626-0.268-1.272-0.546-2.011-0.546c-0.28,0-0.552,0.039-0.832,0.118c-1.012,0.286-1.38,1.162-1.649,1.801
		c-0.136,0.324-0.264,0.63-0.424,0.762c-0.18,0.13-0.771,0.683-0.756,2.327c0.015,1.553,0.217,3.559,0.231,3.697
		c0.024,0.275,0.271,0.67,0.863,0.67c0.593,0,0.851-0.455,0.879-0.761c0.003-0.034,0.002-0.068-0.002-0.103
		c-0.162-1.287-0.164-2.625-0.027-3.239c0.066,0.03,0.14,0.046,0.218,0.046c0.236,0,0.415-0.149,0.572-0.282l0.072-0.061
		c0.223-0.19,0.383-0.314,0.57-0.314c0.043,0,0.088,0.006,0.137,0.019c0.096,0.076,0.367,0.574,0.459,1.955l-0.003,0.465
		c-0.107,1.267-0.232,2.796-0.232,2.796c-0.008,0.104,0.018,0.207,0.075,0.294c0.036,0.057,0.373,0.545,0.996,0.545
		c0.475,0,0.804-0.251,0.942-0.467c0.032-0.049,0.054-0.104,0.065-0.161l0.565-2.818c0.113,0.012,0.262,0.04,0.417,0.07
		c0.298,0.057,0.669,0.127,1.065,0.14c0.06,0.002,0.118,0.003,0.174,0.003c0.234,0,0.437-0.016,0.6-0.028
		c0.116-0.009,0.217-0.017,0.299-0.017c0.104,0,0.148,0.012,0.179,0.031l0.062,0.123l0.087,0.259
		c0.291,0.861,0.542,1.606,0.618,2.197c0.004,0.03,0.011,0.061,0.021,0.09c0.124,0.367,0.351,0.742,1.098,0.742
		c0.658,0,0.971-0.531,1.014-0.865c0.015-0.115,0.018-0.513-0.004-2.625c0.179,0.485,0.467,0.561,0.627,0.561
		c0.192,0,0.431-0.112,0.524-0.426c0.007-0.02,0.011-0.039,0.015-0.06C38.662,33.265,38.667,30.713,38.573,29.747z M38.074,33.959
		c-0.02,0.064-0.046,0.092-0.076,0.092c-0.069,0-0.154-0.146-0.206-0.308c-0.095-0.301-0.121-1.09,0.001-1.308
		c0.123-0.218,0.083-0.586,0.013-0.819c-0.013-0.042-0.069-0.169-0.148-0.349c-0.104,0.78-0.324,1.489-0.555,1.832
		c-0.107,0.159-0.166,0.373-0.194,0.619L36.9,33.812c0.018,1.673,0.024,2.599,0.009,2.713c-0.017,0.136-0.168,0.455-0.548,0.455
		c-0.466,0-0.566-0.164-0.653-0.424c-0.091-0.704-0.392-1.551-0.736-2.577l-0.114-0.227c-0.162-0.171-0.334-0.215-0.56-0.215
		c-0.229,0-0.515,0.045-0.898,0.045c-0.051,0-0.104-0.001-0.159-0.002c-0.651-0.021-1.236-0.217-1.592-0.217
		c-0.15,0-0.259,0.034-0.315,0.132l-0.615,3.069c0,0-0.161,0.251-0.548,0.251c-0.387,0-0.604-0.332-0.604-0.332
		s0.126-1.543,0.233-2.813l0.003-0.499c-0.072-1.105-0.304-2.25-0.787-2.388c-0.099-0.028-0.191-0.041-0.278-0.041
		c-0.413,0-0.7,0.28-0.944,0.485c-0.107,0.09-0.207,0.172-0.271,0.172c-0.029,0-0.051-0.017-0.063-0.056
		c-0.027-0.085-0.076-0.183-0.167-0.273c-0.915,0.178-0.426,4.05-0.426,4.05s-0.031,0.336-0.413,0.336s-0.396-0.243-0.396-0.243
		s-0.214-2.088-0.229-3.66s0.568-1.947,0.568-1.947c0.672-0.527,0.625-2.122,1.92-2.488c0.246-0.069,0.479-0.1,0.704-0.1
		c0.69,0,1.3,0.284,1.965,0.567c0.831,0.354,1.323,0.45,2.951,0.45c0.107,0,0.221,0,0.338-0.001
		c0.209-0.001,0.402-0.002,0.583-0.002c0.917,0,1.489,0.027,1.877,0.164c0.103,0.026,1.249,0.348,1.37,1.594
		C38.199,30.745,38.19,33.243,38.074,33.959z"/>
</g>
</svg>
