<?xml version="1.0" encoding="utf-8"?>
<!-- Generator: Adobe Illustrator 16.0.0, SVG Export Plug-In . SVG Version: 6.00 Build 0)  -->
<!DOCTYPE svg PUBLIC "-//W3C//DTD SVG 1.1//EN" "http://www.w3.org/Graphics/SVG/1.1/DTD/svg11.dtd">
<svg version="1.1" id="Icon" xmlns="http://www.w3.org/2000/svg" xmlns:xlink="http://www.w3.org/1999/xlink" x="0px" y="0px"
	 width="15px" height="15px" viewBox="24.5 24.5 15 15" enable-background="new 24.5 24.5 15 15" xml:space="preserve">
<rect x="24.5" y="24.5" fill="none" width="15" height="15"/>
<g>
	<path fill="#333333" d="M38.131,30.054c-0.095-0.043-0.208-0.017-0.276,0.063l-1.616,1.929l-3.151-0.562
		c-0.306-0.613-1.011-1.129-2.277-1.264v-0.465c0.068-0.058,0.126-0.128,0.169-0.208h1.7c0.259,0,0.469-0.21,0.469-0.469
		s-0.21-0.469-0.469-0.469h-1.907c-0.122-0.089-0.27-0.144-0.431-0.144c-0.162,0-0.311,0.054-0.431,0.144h-1.979
		c-0.259,0-0.469,0.21-0.469,0.469s0.209,0.469,0.469,0.469h1.771c0.044,0.08,0.101,0.15,0.17,0.208v0.44
		c-1.972,0.123-4.051,1.531-4.137,2.054c-0.024,0.152,0.051,0.332,0.222,0.534c0.535,0.629,1.917,1.358,4.056,1.374v0.449
		c0,0.005,0.003,0.009,0.003,0.013h-2.229l-0.405-0.456c-0.086-0.097-0.233-0.104-0.331-0.019s-0.105,0.234-0.02,0.33l0.545,0.613
		h5.247l0.662-0.594c0.097-0.087,0.104-0.234,0.019-0.332c-0.087-0.097-0.235-0.104-0.331-0.017l-0.529,0.474h-2.165
		c0.001-0.004,0.002-0.008,0.002-0.013v-0.455c1.577-0.043,2.272-0.306,2.568-0.746l3.325-0.665l1.035,0.858
		c0.042,0.035,0.095,0.054,0.148,0.054c0.029,0,0.058-0.004,0.084-0.016c0.079-0.029,0.137-0.1,0.148-0.184l0.475-3.15
		C38.281,30.199,38.227,30.097,38.131,30.054z"/>
	<polygon fill="#FFFFFF" points="28.755,30.843 29.813,30.843 29.813,32.27 27.395,32.27 27.395,31.392 	"/>
	<rect x="28.714" y="30.683" fill="#333333" width="0.444" height="1.845"/>
	<path fill="#FFFFFF" d="M30.341,28.466c0.161,0,0.309,0.054,0.431,0.144h1.907c0.259,0,0.469,0.21,0.469,0.469
		s-0.21,0.469-0.469,0.469h-1.7c-0.043,0.08-0.101,0.149-0.169,0.208v0.465c1.266,0.135,1.971,0.651,2.277,1.264l3.151,0.562
		l1.616-1.929c0.046-0.054,0.113-0.083,0.181-0.083c0.032,0,0.064,0.007,0.096,0.021c0.096,0.043,0.15,0.145,0.135,0.249
		l-0.475,3.15c-0.012,0.084-0.069,0.154-0.148,0.184c-0.026,0.012-0.055,0.016-0.084,0.016c-0.054,0-0.106-0.019-0.148-0.054
		l-1.035-0.858l-3.325,0.665c-0.296,0.44-0.991,0.703-2.568,0.746v0.455c0,0.005-0.001,0.009-0.002,0.013h2.165l0.529-0.474
		c0.045-0.041,0.101-0.061,0.157-0.061c0.063,0,0.128,0.025,0.174,0.077c0.086,0.098,0.078,0.245-0.019,0.332l-0.662,0.594h-5.247
		l-0.545-0.613c-0.086-0.096-0.078-0.244,0.02-0.33c0.045-0.04,0.101-0.06,0.156-0.06c0.064,0,0.128,0.026,0.175,0.078l0.405,0.456
		h2.229c0-0.004-0.003-0.008-0.003-0.013v-0.449c-2.139-0.016-3.521-0.745-4.056-1.374c-0.171-0.202-0.246-0.382-0.222-0.534
		c0.085-0.523,2.165-1.932,4.137-2.054v-0.44c-0.07-0.058-0.126-0.128-0.17-0.208h-1.771c-0.259,0-0.469-0.21-0.469-0.469
		s0.209-0.469,0.469-0.469h1.979C30.031,28.52,30.179,28.466,30.341,28.466 M30.341,27.997c-0.199,0-0.392,0.049-0.566,0.144h-1.845
		c-0.517,0-0.938,0.42-0.938,0.938s0.42,0.938,0.938,0.938h0.446c-1.559,0.492-2.994,1.486-3.103,2.158
		c-0.047,0.293,0.062,0.601,0.327,0.912c0.232,0.273,0.584,0.555,1.053,0.801c-0.088,0.111-0.14,0.247-0.148,0.392
		c-0.011,0.188,0.052,0.369,0.178,0.509l0.543,0.612c0.089,0.101,0.217,0.157,0.351,0.157h5.247c0.115,0,0.227-0.042,0.312-0.12
		l0.663-0.594c0.287-0.26,0.312-0.704,0.056-0.991c-0.035-0.04-0.075-0.075-0.118-0.105l2.511-0.503l0.862,0.716
		c0.122,0.104,0.282,0.162,0.448,0.162c0.093,0,0.181-0.018,0.264-0.051c0.224-0.082,0.396-0.297,0.433-0.552l0.475-3.146
		c0.046-0.311-0.121-0.618-0.408-0.746c-0.088-0.041-0.186-0.062-0.286-0.062c-0.208,0-0.404,0.091-0.539,0.25l-1.443,1.722
		l-2.668-0.477c-0.242-0.377-0.655-0.779-1.361-1.044h0.656c0.517,0,0.938-0.42,0.938-0.938s-0.421-0.938-0.938-0.938h-1.773
		C30.732,28.046,30.54,27.997,30.341,27.997L30.341,27.997z"/>
</g>
</svg>
