<?xml version="1.0" encoding="utf-8"?>
<!-- Generator: Adobe Illustrator 16.0.0, SVG Export Plug-In . SVG Version: 6.00 Build 0)  -->
<!DOCTYPE svg PUBLIC "-//W3C//DTD SVG 1.1//EN" "http://www.w3.org/Graphics/SVG/1.1/DTD/svg11.dtd">
<svg version="1.1" id="Icon" xmlns="http://www.w3.org/2000/svg" xmlns:xlink="http://www.w3.org/1999/xlink" x="0px" y="0px"
	 width="15px" height="15px" viewBox="24.5 24.5 15 15" enable-background="new 24.5 24.5 15 15" xml:space="preserve">
<rect x="24.5" y="24.5" fill="none" width="15" height="15"/>
<g>
	<path fill="#333333" d="M37.041,35.004l-1.029-1.865c0,0-2.93,0-3.438,0c0-0.271,0-0.914,0-0.914h-0.304h-0.138l0.078-1.139h-1.23
		l-0.397,1.139H29.78l-0.68,2.779h-3.185l2.053,2.936h9.121l0.996-2.936H37.041z"/>
	<path fill="#FFFFFF" d="M30.26,32.833c0.323,0,1.308,0,1.708,0c0,0.271,0,0.914,0,0.914s3.364,0,3.688,0
		c0.093,0.167,0.446,0.809,0.694,1.257h-6.621C29.869,34.431,30.187,33.132,30.26,32.833z"/>
	<ellipse fill="#333333" cx="32.375" cy="29.735" rx="0.879" ry="0.519"/>
	<ellipse fill="#333333" cx="33.851" cy="28.07" rx="0.968" ry="0.64"/>
	<ellipse fill="#333333" cx="36.112" cy="26.744" rx="1.167" ry="0.684"/>
	<path fill="#FFFFFF" d="M32.375,29.215c0.486,0,0.88,0.232,0.88,0.52s-0.394,0.518-0.88,0.518c-0.486,0-0.879-0.231-0.879-0.518
		S31.889,29.215,32.375,29.215 M32.375,28.747c-0.769,0-1.348,0.425-1.348,0.988c0,0.562,0.58,0.987,1.348,0.987
		c0.77,0,1.349-0.424,1.349-0.987C33.724,29.172,33.145,28.747,32.375,28.747L32.375,28.747z"/>
	<path fill="#FFFFFF" d="M33.851,27.429c0.534,0,0.968,0.287,0.968,0.641c0,0.354-0.434,0.64-0.968,0.64
		c-0.536,0-0.968-0.286-0.968-0.64C32.883,27.716,33.314,27.429,33.851,27.429 M33.851,26.96c-0.806,0-1.437,0.487-1.437,1.109
		c0,0.622,0.631,1.108,1.437,1.108c0.805,0,1.437-0.487,1.437-1.108C35.287,27.448,34.655,26.96,33.851,26.96L33.851,26.96z"/>
	<path fill="#FFFFFF" d="M36.112,26.06c0.646,0,1.168,0.306,1.168,0.684c0,0.379-0.522,0.685-1.168,0.685
		c-0.645,0-1.166-0.306-1.166-0.685C34.946,26.366,35.468,26.06,36.112,26.06 M36.112,25.591c-0.932,0-1.635,0.496-1.635,1.153
		s0.703,1.153,1.635,1.153c0.933,0,1.637-0.496,1.637-1.153S37.045,25.591,36.112,25.591L36.112,25.591z"/>
	<path fill="#FFFFFF" d="M32.209,31.086l-0.078,1.139h0.138h0.304c0,0,0,0.643,0,0.914c0.509,0,3.438,0,3.438,0l1.029,1.865h1.044
		l-0.996,2.936h-9.121l-2.053-2.936h3.185l0.68-2.779h0.802l0.397-1.139H32.209 M38.085,35.004L38.085,35.004 M32.209,30.618h-1.23
		c-0.2,0-0.377,0.126-0.443,0.314l-0.287,0.824H29.78c-0.216,0-0.404,0.148-0.455,0.357l-0.592,2.421h-2.817
		c-0.175,0-0.335,0.098-0.416,0.253c-0.081,0.154-0.069,0.342,0.031,0.485l2.053,2.935c0.088,0.125,0.231,0.2,0.384,0.2h9.121
		c0.2,0,0.379-0.128,0.443-0.318l0.988-2.912c0.021-0.054,0.033-0.112,0.033-0.174c0-0.259-0.209-0.469-0.468-0.469h-0.001h-0.768
		l-0.896-1.623c-0.082-0.149-0.239-0.242-0.41-0.242h-2.97v-0.445c0-0.238-0.179-0.436-0.409-0.465l0.044-0.642
		c0.009-0.129-0.037-0.257-0.125-0.352C32.462,30.671,32.338,30.618,32.209,30.618L32.209,30.618z"/>
</g>
</svg>
