<?xml version="1.0" encoding="utf-8"?>
<!-- Generator: Adobe Illustrator 16.0.0, SVG Export Plug-In . SVG Version: 6.00 Build 0)  -->
<!DOCTYPE svg PUBLIC "-//W3C//DTD SVG 1.1//EN" "http://www.w3.org/Graphics/SVG/1.1/DTD/svg11.dtd">
<svg version="1.1" id="Icon" xmlns="http://www.w3.org/2000/svg" xmlns:xlink="http://www.w3.org/1999/xlink" x="0px" y="0px"
	 width="15px" height="15px" viewBox="-7.5 -7.5 15 15" enable-background="new -7.5 -7.5 15 15" xml:space="preserve">
<rect x="-7.5" y="-7.5" fill="none" width="15" height="15"/>
<g>
	<rect x="-6.265" y="-6.264" fill="#017356" width="12.531" height="12.528"/>
	<path fill="#FFFFFF" d="M-1.165-3.879c0.392,0.465,0.589,1.116,0.59,1.954c0.001,0.838-0.193,1.489-0.584,1.955
		c-0.364,0.436-0.859,0.653-1.486,0.655l-1.135,0.002l0.005,3.863L-4.675,4.55l-0.014-9.073l2.035-0.004
		C-2.027-4.529-1.531-4.312-1.165-3.879z M-3.788-3.641l0.005,3.444l0.9-0.001c0.47-0.002,0.835-0.157,1.096-0.468
		c0.234-0.279,0.351-0.699,0.35-1.257C-1.438-2.483-1.555-2.901-1.791-3.18c-0.261-0.31-0.627-0.464-1.097-0.463L-3.788-3.641z"/>
	<path fill="#FFFFFF" d="M0.885,4.539l-0.94,0.002l1.944-9.078l0.783-0.002L4.643,4.53L3.704,4.534L3.151,1.882L1.429,1.886
		L0.885,4.539z M2.324-2.072H2.245L1.623,1l1.332-0.002L2.324-2.072z"/>
</g>
</svg>
