<?xml version="1.0" encoding="utf-8"?>
<!-- Generator: Adobe Illustrator 16.0.0, SVG Export Plug-In . SVG Version: 6.00 Build 0)  -->
<!DOCTYPE svg PUBLIC "-//W3C//DTD SVG 1.1//EN" "http://www.w3.org/Graphics/SVG/1.1/DTD/svg11.dtd">
<svg version="1.1" id="Icon" xmlns="http://www.w3.org/2000/svg" xmlns:xlink="http://www.w3.org/1999/xlink" x="0px" y="0px"
	 width="15px" height="15px" viewBox="24.5 24.5 15 15" enable-background="new 24.5 24.5 15 15" xml:space="preserve">
<rect x="24.5" y="24.5" fill="none" width="15" height="15"/>
<g>
	<polygon fill="#333333" points="36.042,29.675 34.419,30.131 33.854,38.241 36.713,37.731 	"/>
	<path fill="#333333" d="M32.813,29.147l1.267,0.316l1.687-0.468l-1.033-0.238c0.092-0.518,0.186-1.519-0.264-2.219
		c-0.251-0.393-0.633-0.634-1.135-0.717c-0.433-0.071-0.801,0.022-1.09,0.282c-0.03,0.027-0.057,0.057-0.084,0.087
		c-0.232-0.237-0.516-0.376-0.854-0.401c-0.417-0.03-0.79,0.098-1.108,0.379c-0.527,0.466-0.808,1.28-0.957,1.958l-0.322,0.048
		l0.295,0.074c-0.063,0.314-0.099,0.59-0.118,0.775l-1.246-0.313l-0.586,8.045l5.808,1.458l0.586-8.044l-0.922-0.231
		C32.748,29.862,32.79,29.56,32.813,29.147z M30.504,26.516c0.225-0.199,0.478-0.288,0.77-0.265
		c0.255,0.019,0.458,0.127,0.622,0.328c-0.243,0.487-0.304,1.087-0.316,1.453l-0.673-0.155l-1.173,0.176
		C29.872,27.487,30.107,26.867,30.504,26.516z M31.757,35.323c-0.333,0.222-0.795,0.332-1.388,0.332
		c-0.569,0-1.009-0.103-1.317-0.309c-0.379-0.253-0.569-0.554-0.569-0.902v-0.237h0.819v0.214c0,0.253,0.095,0.443,0.285,0.569
		c0.19,0.127,0.427,0.19,0.712,0.19c0.379,0,0.664-0.063,0.854-0.19c0.213-0.142,0.321-0.324,0.321-0.546
		c0-0.237-0.167-0.427-0.499-0.569c-0.593-0.254-1.151-0.522-1.673-0.808c-0.379-0.206-0.582-0.482-0.605-0.832
		c-0.023-0.347,0.154-0.64,0.535-0.877c0.355-0.222,0.747-0.333,1.174-0.333c0.522,0,0.925,0.095,1.21,0.285
		c0.356,0.237,0.522,0.569,0.499,0.996h-0.818c0.047-0.269-0.048-0.482-0.285-0.64c-0.167-0.111-0.368-0.166-0.605-0.166
		s-0.439,0.055-0.604,0.166c-0.214,0.143-0.32,0.309-0.32,0.498c0,0.206,0.166,0.403,0.498,0.594
		c0.498,0.284,0.997,0.522,1.495,0.712c0.545,0.206,0.818,0.507,0.818,0.902S32.113,35.086,31.757,35.323z M32.285,29.825
		l-2.734-0.687c0.015-0.164,0.048-0.447,0.113-0.777l2.691,0.672C32.337,29.409,32.301,29.704,32.285,29.825z M31.999,28.128
		c0.004-0.25,0.032-0.679,0.155-1.069c0.124,0.343,0.182,0.751,0.203,1.152L31.999,28.128z M32.525,26.417
		c0.193-0.172,0.434-0.23,0.741-0.18c0.383,0.064,0.661,0.237,0.849,0.528c0.363,0.567,0.285,1.432,0.207,1.897l-1.499-0.345
		c-0.023-0.621-0.124-1.293-0.404-1.788C32.452,26.489,32.487,26.451,32.525,26.417z"/>
	<path fill="#FFFFFF" d="M31.473,33.471c-0.499-0.189-0.997-0.428-1.495-0.712c-0.333-0.19-0.498-0.388-0.498-0.594
		c0-0.189,0.106-0.355,0.32-0.498c0.166-0.111,0.367-0.166,0.604-0.166s0.439,0.055,0.605,0.166c0.237,0.158,0.332,0.372,0.285,0.64
		h0.818c0.024-0.427-0.142-0.759-0.499-0.996c-0.285-0.19-0.688-0.285-1.21-0.285c-0.427,0-0.819,0.111-1.174,0.333
		c-0.38,0.237-0.558,0.53-0.535,0.877c0.024,0.349,0.226,0.625,0.605,0.831c0.522,0.285,1.08,0.554,1.673,0.808
		c0.332,0.143,0.499,0.332,0.499,0.569c0,0.222-0.107,0.404-0.321,0.546c-0.19,0.127-0.475,0.19-0.854,0.19
		c-0.285,0-0.522-0.063-0.712-0.19c-0.19-0.126-0.285-0.316-0.285-0.569v-0.214h-0.819v0.237c0,0.349,0.19,0.649,0.569,0.902
		c0.309,0.206,0.748,0.309,1.317,0.309c0.593,0,1.056-0.11,1.388-0.332c0.355-0.237,0.534-0.555,0.534-0.95
		S32.018,33.677,31.473,33.471z"/>
	<path fill="#FFFFFF" d="M32.01,28.115l0.357,0.083c-0.021-0.4-0.079-0.809-0.203-1.152C32.042,27.436,32.014,27.865,32.01,28.115z"
		/>
	<path fill="#FFFFFF" d="M29.562,29.125l2.734,0.687c0.017-0.121,0.052-0.416,0.071-0.792l-2.691-0.672
		C29.61,28.678,29.577,28.96,29.562,29.125z"/>
	<path fill="#FFFFFF" d="M31.59,28.019c0.013-0.366,0.074-0.966,0.316-1.453c-0.164-0.202-0.367-0.31-0.622-0.328
		c-0.029-0.002-0.059-0.003-0.087-0.003c-0.255,0-0.479,0.089-0.682,0.268c-0.396,0.351-0.632,0.971-0.771,1.537l1.173-0.176
		L31.59,28.019z"/>
	<path fill="#FFFFFF" d="M34.333,28.649c0.079-0.466,0.157-1.33-0.207-1.898c-0.187-0.292-0.465-0.464-0.849-0.528
		c-0.07-0.012-0.138-0.017-0.201-0.017c-0.214,0-0.391,0.065-0.539,0.197c-0.039,0.034-0.074,0.072-0.106,0.113
		c0.28,0.495,0.381,1.167,0.404,1.789L34.333,28.649z"/>
	<path fill="#FFFFFF" d="M36.521,29.623c0-0.002-0.001-0.003-0.001-0.005c-0.003-1.003-0.579-1.078-0.579-1.078v0.008
		c-0.02-0.008-0.036-0.019-0.058-0.024l-0.616-0.142c0.058-0.618,0.029-1.456-0.391-2.111c-0.321-0.502-0.824-0.822-1.453-0.926
		c-0.118-0.02-0.235-0.03-0.348-0.03c-0.333,0-0.643,0.088-0.909,0.256c-0.243-0.153-0.516-0.242-0.814-0.264
		c-0.052-0.003-0.103-0.005-0.152-0.005c-0.487,0-0.924,0.168-1.301,0.501c-0.455,0.402-0.8,1.037-1.028,1.892l-0.005,0.001
		l0.001-0.005c0,0-0.451,0.015-0.81,0.187c-0.292,0.141-0.5,0.321-0.603,0.587c-0.034,0.06-0.055,0.126-0.06,0.197l-0.586,8.044
		c-0.017,0.228,0.132,0.434,0.354,0.488l5.808,1.459c0.037,0.01,0.076,0.014,0.114,0.014c0.097,0,0.193-0.03,0.274-0.089
		c0.046-0.032,0.079-0.077,0.109-0.123c0.024,0.042,0.047,0.086,0.085,0.12c0.086,0.077,0.197,0.119,0.312,0.119
		c0.027,0,0.055-0.002,0.083-0.007l2.858-0.51c0.238-0.043,0.405-0.26,0.385-0.501L36.521,29.623z M33.084,38.2l-5.808-1.458
		l0.586-8.045l1.246,0.313c0.019-0.185,0.054-0.461,0.118-0.775l-0.295-0.074l0.323-0.049c0.149-0.677,0.429-1.491,0.957-1.957
		c0.289-0.255,0.621-0.384,0.991-0.384c0.039,0,0.078,0.002,0.118,0.004c0.337,0.025,0.622,0.164,0.854,0.401
		c0.027-0.03,0.054-0.061,0.084-0.087c0.227-0.204,0.502-0.306,0.819-0.306c0.088,0,0.178,0.008,0.271,0.023
		c0.501,0.083,0.883,0.325,1.135,0.717c0.448,0.7,0.354,1.701,0.264,2.219l1.033,0.237l-1.687,0.468l-1.267-0.316
		c-0.023,0.413-0.065,0.715-0.077,0.791l0.922,0.232L33.084,38.2z M33.865,38.228l0.565-8.11l1.623-0.456l0.671,8.056L33.865,38.228
		z"/>
</g>
</svg>
