<?xml version="1.0" encoding="utf-8"?>
<!-- Generator: Adobe Illustrator 21.1.0, SVG Export Plug-In . SVG Version: 6.00 Build 0)  -->
<svg version="1.1" id="keisatsu_x5F_hasyutsujo" xmlns="http://www.w3.org/2000/svg" xmlns:xlink="http://www.w3.org/1999/xlink"
	 x="0px" y="0px" viewBox="0 0 11 11" enable-background="new 0 0 11 11" xml:space="preserve">
<path d="M5.5,0C2.462,0,0,2.462,0,5.5S2.462,11,5.5,11S11,8.538,11,5.5S8.538,0,5.5,0z M6.349,5.5l2.716-2.716
	C9.643,3.542,10,4.476,10,5.5S9.643,7.458,9.064,8.216L6.349,5.5z M8.216,1.936L5.5,4.651L2.784,1.936C3.542,1.357,4.476,1,5.5,1
	S7.458,1.357,8.216,1.936z M1.936,2.784L4.651,5.5L1.936,8.216C1.357,7.458,1,6.524,1,5.5S1.357,3.542,1.936,2.784z M2.784,9.064
	L5.5,6.349l2.716,2.716C7.458,9.643,6.524,10,5.5,10S3.542,9.643,2.784,9.064z"/>
</svg>
