<?xml version="1.0" encoding="utf-8"?>
<!-- Generator: Adobe Illustrator 20.1.0, SVG Export Plug-In . SVG Version: 6.00 Build 0)  -->
<svg version="1.1" id="レイヤー_1" xmlns="http://www.w3.org/2000/svg" xmlns:xlink="http://www.w3.org/1999/xlink" x="0px"
	 y="0px" viewBox="0 0 11 11" enable-background="new 0 0 11 11" xml:space="preserve">
<g>
	<path d="M8.6,1.9L9,1.1h1.4c-0.3-0.6-0.9-1-1.7-1C8,0,7.4,0.4,7.1,1C7,1.1,7,1.4,6.9,1.6H4.1C4,1.4,3.9,1.1,3.9,1
		C3.6,0.4,3,0,2.2,0c-0.7,0-1.4,0.4-1.7,1H2l0.4,0.8L2,2.7H0.6c0.3,0.6,0.9,1,1.7,1c0.7,0,1.3-0.4,1.7-1C4,2.6,4.1,2.4,4.1,2.2h2.8
		c0,0.2,0.1,0.4,0.2,0.6c0.3,0.6,0.9,1,1.7,1c0.7,0,1.4-0.4,1.7-1H9L8.6,1.9z"/>
	<path d="M10.4,6.2V5.4c0-0.1-0.1-0.1-0.1-0.1h-1c-0.1,0-0.1,0.1-0.1,0.1v0.1l-1-1.4C8,3.9,7.8,3.7,7.5,3.7l-4.1,0
		C3.2,3.7,3,3.9,2.9,4.1l-1,1.4V5.4c0-0.1-0.1-0.1-0.1-0.1h-1c-0.1,0-0.1,0.1-0.1,0.1v0.8c0,0.1,0.1,0.1,0.1,0.1h0.5L0.9,6.6
		C0.8,6.6,0.8,6.7,0.8,6.8V9c0,0,0,0,0,0H0.7c-0.1,0-0.1,0.1-0.1,0.2v0.5c0,0.1,0,0.1,0.1,0.1h0.7v0.6c0,0.3,0.2,0.5,0.5,0.5h0.5
		C2.7,11,3,10.8,3,10.5V9.8h5v0.6C8,10.8,8.3,11,8.6,11h0.5c0.3,0,0.5-0.2,0.5-0.5V9.8h0.7c0.1,0,0.1,0,0.1-0.1V9.2
		c0-0.1-0.1-0.2-0.1-0.2h-0.1c0,0,0,0,0,0V6.8c0-0.1,0-0.2-0.1-0.3L9.8,6.3h0.5C10.4,6.3,10.4,6.2,10.4,6.2z M2.1,9.1
		c-0.4,0-0.8-0.3-0.8-0.8c0-0.4,0.3-0.8,0.8-0.8c0.4,0,0.8,0.4,0.8,0.8C2.9,8.8,2.5,9.1,2.1,9.1z M7,9.3C7,9.4,7,9.4,6.9,9.4H4.1
		C4,9.4,3.9,9.4,3.9,9.3V8.5c0-0.1,0.1-0.2,0.3-0.2h2.6C7,8.3,7,8.4,7,8.5L7,9.3L7,9.3z M2.5,6.4C2.1,6.4,2,6.3,2.1,6.1l1.1-1.7
		c0.1-0.1,0.2-0.3,0.4-0.3l3.7,0c0.2,0,0.4,0.2,0.4,0.3l1.1,1.7c0.1,0.2,0,0.3-0.3,0.3L2.5,6.4L2.5,6.4z M8.9,9.1
		c-0.4,0-0.8-0.3-0.8-0.8c0-0.4,0.3-0.8,0.8-0.8c0.4,0,0.8,0.3,0.8,0.8C9.7,8.8,9.3,9.1,8.9,9.1z"/>
</g>
</svg>
