<?xml version="1.0" encoding="utf-8"?>
<!-- Generator: Adobe Illustrator 20.1.0, SVG Export Plug-In . SVG Version: 6.00 Build 0)  -->
<svg version="1.1" id="レイヤー_1" xmlns="http://www.w3.org/2000/svg" xmlns:xlink="http://www.w3.org/1999/xlink" x="0px"
	 y="0px" viewBox="0 0 11 11" enable-background="new 0 0 11 11" xml:space="preserve">
<path d="M10.6,6l-4-1.9V2.4c0-0.4,0-0.8-0.1-1.1C6.3,0.6,5.9,0,5.5,0c-0.4,0-0.8,0.6-1,1.4C4.4,1.7,4.4,2,4.4,2.4v1.8L0.4,6
	c-0.1,0-0.1,0.1-0.1,0.2v1c0,0.2,0.2,0.3,0.3,0.2c0,0,4-1,4-1c0,0,0,2.1,0,2.2l-0.7,1c-0.3,0.3,0,0.8,0.4,0.8H5
	C5.1,10.8,5.3,11,5.5,11c0.2,0,0.4-0.2,0.5-0.5h0.7c0.4,0,0.7-0.5,0.4-0.8l-0.8-1c0,0,0-2.2,0-2.2c0,0,4,1,4,1
	c0.2,0,0.3-0.1,0.3-0.2v-1C10.8,6.2,10.7,6.1,10.6,6z"/>
</svg>
