<?xml version="1.0" encoding="utf-8"?>
<!-- Generator: Adobe Illustrator 16.0.0, SVG Export Plug-In . SVG Version: 6.00 Build 0)  -->
<!DOCTYPE svg PUBLIC "-//W3C//DTD SVG 1.1//EN" "http://www.w3.org/Graphics/SVG/1.1/DTD/svg11.dtd">
<svg version="1.1" id="Icon" xmlns="http://www.w3.org/2000/svg" xmlns:xlink="http://www.w3.org/1999/xlink" x="0px" y="0px"
	 width="15px" height="15px" viewBox="24.5 24.5 15 15" enable-background="new 24.5 24.5 15 15" xml:space="preserve">
<rect x="24.5" y="24.5" fill="none" width="15" height="15"/>
<g>
	<path fill="#333333" d="M37.194,26.608H26.797h-0.882v0.938h0.882v9.846h3.902l1.746-2.184l0.009,2.184h4.741v-9.846h0.883v-0.938
		H37.194z M34.735,32.851c-0.358,0.357-0.952,0.548-1.769,0.566c-0.143,0.433-0.369,0.869-0.673,1.299l-0.077,0.109l-1.022-0.354
		l0.154-0.198c0.324-0.417,0.545-0.77,0.659-1.05c-0.481-0.227-0.873-0.637-1.165-1.222l-0.062-0.124l0.744-0.65l0.101,0.218
		c0.165,0.357,0.372,0.629,0.619,0.813c0.027-0.176,0.04-0.327,0.04-0.453v-1.145c-0.021-0.249-0.035-0.447-0.044-0.589
		c-0.379,0.137-0.722,0.358-1.022,0.659c-0.725,0.724-1.091,1.423-1.091,2.076c0,0.215,0.036,0.471,0.108,0.758l0.045,0.178
		l-0.988,0.225l-0.036-0.182c-0.31-1.579-0.271-3.212,0.115-4.854l0.044-0.186l0.754,0.227c0.085,0.029,0.286,0.102,0.286,0.285
		c0,0.131-0.104,0.206-0.189,0.248c-0.101,0.352-0.173,0.765-0.215,1.233c0.142-0.203,0.294-0.386,0.456-0.548
		c0.531-0.532,1.098-0.881,1.686-1.043l-0.058-1.186h0.731c0.195,0.04,0.289,0.113,0.316,0.222c0.022,0.088-0.004,0.174-0.077,0.259
		l0.02,0.581c0.685,0.029,1.218,0.228,1.585,0.594c0.377,0.377,0.567,0.939,0.567,1.672C35.274,31.968,35.094,32.492,34.735,32.851z
		"/>
	<path fill="#333333" d="M33.199,29.934c0.009,0.191,0.015,0.414,0.015,0.671v1.23c0,0.223-0.017,0.448-0.05,0.672
		c0.393-0.031,0.691-0.144,0.889-0.34c0.175-0.174,0.263-0.479,0.263-0.904c0-0.45-0.124-0.792-0.378-1.047
		C33.776,30.055,33.527,29.959,33.199,29.934z"/>
	<path fill="#FFFFFF" d="M34.707,29.621c-0.367-0.366-0.9-0.565-1.585-0.594l-0.02-0.581c0.073-0.085,0.1-0.171,0.077-0.259
		c-0.027-0.108-0.121-0.182-0.316-0.222h-0.731l0.058,1.186c-0.588,0.162-1.154,0.511-1.686,1.043
		c-0.162,0.162-0.314,0.345-0.456,0.548c0.042-0.468,0.115-0.881,0.215-1.233c0.086-0.042,0.189-0.117,0.189-0.248
		c0-0.183-0.201-0.256-0.286-0.285l-0.754-0.227l-0.044,0.186c-0.386,1.642-0.424,3.274-0.115,4.854l0.036,0.182l0.988-0.225
		l-0.045-0.178c-0.072-0.287-0.108-0.543-0.108-0.758c0-0.652,0.367-1.352,1.091-2.076c0.301-0.301,0.644-0.522,1.022-0.659
		c0.009,0.142,0.024,0.34,0.044,0.589v1.145c0,0.125-0.013,0.277-0.04,0.453c-0.247-0.184-0.454-0.456-0.619-0.813l-0.101-0.218
		l-0.744,0.65l0.062,0.124c0.292,0.585,0.684,0.995,1.165,1.222c-0.114,0.28-0.335,0.633-0.659,1.05l-0.154,0.198l1.022,0.354
		l0.077-0.109c0.304-0.43,0.53-0.866,0.673-1.299c0.816-0.019,1.41-0.209,1.769-0.566c0.358-0.359,0.539-0.882,0.539-1.558
		C35.274,30.56,35.084,29.998,34.707,29.621z M34.053,32.167c-0.197,0.196-0.496,0.31-0.889,0.34c0.033-0.224,0.05-0.449,0.05-0.672
		v-1.23c0-0.258-0.006-0.48-0.015-0.671c0.328,0.025,0.577,0.121,0.738,0.283c0.254,0.255,0.378,0.597,0.378,1.047
		C34.315,31.689,34.228,31.993,34.053,32.167z"/>
	<path fill="#FFFFFF" d="M38.077,26.608v0.938h-0.883v9.846h-4.741l-0.009-2.184l-1.746,2.184h-3.902v-9.846h-0.882v-0.938h0.882
		h10.397H38.077 M38.077,26.139h-0.883H26.797h-0.882c-0.259,0-0.469,0.21-0.469,0.469v0.938c0,0.259,0.209,0.469,0.469,0.469h0.414
		v9.377c0,0.259,0.21,0.469,0.469,0.469h3.902c0.143,0,0.277-0.064,0.366-0.176l0.916-1.146l0.003,0.855
		c0.001,0.258,0.21,0.467,0.469,0.467h4.741c0.259,0,0.469-0.21,0.469-0.469v-9.377h0.414c0.259,0,0.469-0.21,0.469-0.469v-0.938
		C38.546,26.349,38.336,26.139,38.077,26.139L38.077,26.139z"/>
</g>
</svg>
