<?xml version="1.0" encoding="utf-8"?>
<!-- Generator: Adobe Illustrator 20.1.0, SVG Export Plug-In . SVG Version: 6.00 Build 0)  -->
<svg version="1.1" id="レイヤー_1" xmlns="http://www.w3.org/2000/svg" xmlns:xlink="http://www.w3.org/1999/xlink" x="0px"
	 y="0px" viewBox="0 0 11 11" enable-background="new 0 0 11 11" xml:space="preserve">
<path d="M9.7,9.2L9.7,9.2C9.4,9,9.2,8.8,9,8.6C8.9,8.6,8.8,8.5,8.8,8.4c-0.7-0.8-1.1-1.8-1.1-3c0-1.1,0.4-2.2,1.1-3c0,0,0,0,0,0
	C9,2.2,9.3,2,9.6,1.8c0,0,0,0,0,0c0,0,0,0,0,0C9.4,1.5,9.1,1.3,8.8,1.1c0,0,0,0,0,0C7.9,0.4,6.8,0,5.6,0C4.3,0,3.2,0.4,2.3,1.1
	c0,0,0,0,0,0C2,1.3,1.7,1.5,1.5,1.8l0,0l0,0C1.7,2,2,2.3,2.2,2.5l0,0c0.7,0.8,1.1,1.8,1.1,2.9c0,1.1-0.4,2.2-1.1,2.9
	C2.1,8.4,2,8.5,2,8.5C1.8,8.7,1.6,8.9,1.3,9l0,0c0,0,0,0,0,0c0.2,0.3,0.5,0.6,0.9,0.8c0,0,0,0,0,0C3.1,10.6,4.3,11,5.6,11
	c1.2,0,2.4-0.4,3.3-1.1C9.1,9.7,9.4,9.4,9.7,9.2C9.7,9.2,9.7,9.2,9.7,9.2z M5.5,9.9C4.6,9.9,3.7,9.6,3,9.1l0,0
	c0.9-1,1.4-2.2,1.4-3.6C4.4,4,3.9,2.8,3,1.8l0,0C3.7,1.3,4.6,1,5.5,1C6.4,1,7.3,1.3,8,1.8c-0.9,1-1.4,2.3-1.4,3.7
	c0,1.4,0.5,2.7,1.4,3.6C7.3,9.6,6.4,9.9,5.5,9.9z"/>
</svg>
