<?xml version="1.0" encoding="utf-8"?>
<!-- Generator: Adobe Illustrator 16.0.0, SVG Export Plug-In . SVG Version: 6.00 Build 0)  -->
<!DOCTYPE svg PUBLIC "-//W3C//DTD SVG 1.1//EN" "http://www.w3.org/Graphics/SVG/1.1/DTD/svg11.dtd">
<svg version="1.1" id="Icon" xmlns="http://www.w3.org/2000/svg" xmlns:xlink="http://www.w3.org/1999/xlink" x="0px" y="0px"
	 width="15px" height="15px" viewBox="24.5 24.5 15 15" enable-background="new 24.5 24.5 15 15" xml:space="preserve">
<rect x="24.5" y="24.5" fill="none" width="15" height="15"/>
<g>
	<polygon fill="#333333" points="34.904,25.962 29.1,25.962 25.874,29.641 25.874,38.038 38.13,38.038 38.13,29.641 	"/>
	<rect x="26.797" y="29.641" fill="#FFFFFF" width="10.41" height="7.474"/>
	<path fill="#333333" d="M30.356,32.038v4.117h-0.969v-5.5h1.549l1.017,3.582h0.097l1.017-3.582h1.549v5.5h-0.969v-4.117h-0.097
		l-1.162,4.117h-0.774l-1.162-4.117H30.356z"/>
	<path fill="#FFFFFF" d="M34.904,25.962l3.226,3.679v8.397H25.874v-8.397l3.226-3.679H34.904 M34.904,25.493H29.1
		c-0.135,0-0.263,0.059-0.352,0.16l-3.226,3.679c-0.075,0.085-0.116,0.195-0.116,0.309v8.397c0,0.259,0.21,0.469,0.469,0.469H38.13
		c0.259,0,0.469-0.21,0.469-0.469v-8.397c0-0.114-0.042-0.224-0.116-0.309l-3.226-3.679C35.168,25.552,35.04,25.493,34.904,25.493
		L34.904,25.493z"/>
</g>
</svg>
