<?xml version="1.0" encoding="utf-8"?>
<!-- Generator: Adobe Illustrator 16.0.0, SVG Export Plug-In . SVG Version: 6.00 Build 0)  -->
<!DOCTYPE svg PUBLIC "-//W3C//DTD SVG 1.1//EN" "http://www.w3.org/Graphics/SVG/1.1/DTD/svg11.dtd">
<svg version="1.1" id="Icon" xmlns="http://www.w3.org/2000/svg" xmlns:xlink="http://www.w3.org/1999/xlink" x="0px" y="0px"
	 width="15px" height="15px" viewBox="24.5 24.5 15 15" enable-background="new 24.5 24.5 15 15" xml:space="preserve">
<rect x="24.5" y="24.5" fill="none" width="15" height="15"/>
<g>
	<path fill="#333333" d="M28.107,27.602l-0.292,0.291l0.227,0.345c0.009,0.015,0.926,1.438,0.926,3.762s-0.917,3.748-0.926,3.763
		l-0.226,0.344l0.291,0.292c0.067,0.068,1.688,1.663,3.893,1.663s3.825-1.595,3.893-1.663l0.29-0.29l-0.227-0.346
		c-0.01-0.015-0.926-1.438-0.926-3.763c0-2.325,0.916-3.748,0.926-3.762l0.226-0.344l-0.289-0.292
		c-0.068-0.069-1.688-1.664-3.893-1.664C29.795,25.938,28.175,27.533,28.107,27.602z M32,26.949c1.309,0,2.402,0.732,2.895,1.125
		c-0.32,0.631-0.874,1.998-0.874,3.926s0.554,3.296,0.874,3.927c-0.493,0.393-1.586,1.125-2.895,1.125s-2.403-0.732-2.896-1.125
		c0.32-0.631,0.875-1.998,0.875-3.927c0,0,0,0,0-0.001c0-1.928-0.555-3.294-0.875-3.925C29.598,27.681,30.691,26.949,32,26.949z"/>
	<path fill="#FFFFFF" d="M32,26.949c-1.309,0-2.403,0.732-2.896,1.125c0.321,0.631,0.875,1.997,0.875,3.925c0,0,0,0.001,0,0.001
		c0,1.929-0.555,3.296-0.875,3.927c0.493,0.393,1.587,1.125,2.896,1.125s2.402-0.732,2.895-1.125
		c-0.32-0.631-0.874-1.998-0.874-3.927s0.554-3.295,0.874-3.926C34.402,27.681,33.31,26.949,32,26.949z"/>
	<path fill="#FFFFFF" d="M36.576,35.851l-0.227-0.345C36.343,35.495,35.5,34.154,35.5,32c0-2.156,0.842-3.493,0.851-3.506
		l0.225-0.342c0.121-0.186,0.097-0.431-0.06-0.588l-0.29-0.292C36.154,27.199,34.42,25.47,32,25.47
		c-2.437,0-4.211,1.787-4.229,1.805l-0.287,0.286c-0.157,0.157-0.183,0.403-0.061,0.589l0.227,0.345
		C27.683,28.544,28.5,29.859,28.5,32c0,2.142-0.818,3.456-0.853,3.511l-0.222,0.338c-0.122,0.186-0.097,0.431,0.059,0.589
		l0.291,0.292c0.072,0.072,1.811,1.801,4.226,1.801c2.397,0,4.151-1.727,4.224-1.8l0.291-0.291
		C36.673,36.282,36.698,36.036,36.576,35.851z M35.894,36.398c-0.068,0.068-1.688,1.663-3.893,1.663s-3.826-1.595-3.893-1.663
		l-0.291-0.292l0.226-0.344c0.009-0.015,0.926-1.438,0.926-3.763s-0.917-3.748-0.926-3.762l-0.227-0.345l0.292-0.291
		c0.067-0.069,1.688-1.664,3.893-1.664c2.205,0,3.825,1.595,3.893,1.664l0.289,0.292l-0.226,0.344
		c-0.01,0.014-0.926,1.437-0.926,3.762c0,2.324,0.916,3.748,0.926,3.763l0.227,0.346L35.894,36.398z"/>
</g>
</svg>
