<?xml version="1.0" encoding="utf-8"?>
<!-- Generator: Adobe Illustrator 16.0.0, SVG Export Plug-In . SVG Version: 6.00 Build 0)  -->
<!DOCTYPE svg PUBLIC "-//W3C//DTD SVG 1.1//EN" "http://www.w3.org/Graphics/SVG/1.1/DTD/svg11.dtd">
<svg version="1.1" id="Icon" xmlns="http://www.w3.org/2000/svg" xmlns:xlink="http://www.w3.org/1999/xlink" x="0px" y="0px"
	 width="15px" height="15px" viewBox="24.5 24.5 15 15" enable-background="new 24.5 24.5 15 15" xml:space="preserve">
<rect x="24.5" y="24.5" fill="none" width="15" height="15"/>
<g>
	<path fill="#333333" d="M31.982,26.351c-0.484-0.194-1.026-0.313-1.627-0.313c-2.834,0-4.363,3.055-4.363,5.928
		c0,3.312,2.694,6.005,6.004,6.005c3.316,0,6.01-2.693,6.01-6.005c0-2.877-1.528-5.937-4.362-5.937
		C33.029,26.029,32.475,26.15,31.982,26.351z M33.645,27.124c2.122,0,3.268,2.495,3.268,4.842c0,2.707-2.203,4.91-4.915,4.91
		c-2.707,0-4.909-2.203-4.909-4.91c0-2.343,1.145-4.833,3.268-4.833c0.129,0,0.248,0.022,0.37,0.035
		c-0.777,0.743-1.218,1.744-1.218,2.712c0,1.851,1.291,2.694,2.489,2.694c1.234,0,2.481-0.833,2.481-2.694
		c0-0.972-0.444-1.976-1.229-2.717C33.379,27.147,33.506,27.124,33.645,27.124z M30.603,29.88c0-0.87,0.528-1.772,1.396-2.299
		c0.873,0.524,1.383,1.43,1.383,2.299c0,1.482-1.061,1.598-1.386,1.598C31.765,31.479,30.603,31.401,30.603,29.88z"/>
	<path fill="#FFFFFF" d="M31.997,31.479c0.325,0,1.386-0.116,1.386-1.598c0-0.869-0.511-1.774-1.383-2.299
		c-0.869,0.526-1.396,1.429-1.396,2.299C30.603,31.401,31.765,31.479,31.997,31.479z"/>
	<path fill="#FFFFFF" d="M33.645,27.124c-0.139,0-0.266,0.023-0.396,0.039c0.785,0.741,1.229,1.746,1.229,2.717
		c0,1.86-1.247,2.694-2.481,2.694c-1.199,0-2.489-0.843-2.489-2.694c0-0.968,0.44-1.97,1.218-2.712
		c-0.123-0.013-0.241-0.035-0.37-0.035c-2.123,0-3.268,2.49-3.268,4.833c0,2.707,2.202,4.91,4.909,4.91
		c2.712,0,4.915-2.203,4.915-4.91C36.912,29.619,35.767,27.124,33.645,27.124z"/>
	<path fill="#FFFFFF" d="M33.645,25.561c-0.576,0-1.135,0.097-1.663,0.289c-0.521-0.186-1.067-0.28-1.626-0.28
		c-3.138,0-4.832,3.296-4.832,6.397c0,3.57,2.904,6.474,6.473,6.474c3.572,0,6.479-2.903,6.479-6.474
		C38.476,28.861,36.783,25.561,33.645,25.561z M31.997,37.971c-3.311,0-6.004-2.693-6.004-6.005c0-2.874,1.529-5.928,4.363-5.928
		c0.601,0,1.143,0.119,1.627,0.313c0.493-0.201,1.047-0.321,1.662-0.321c2.834,0,4.362,3.059,4.362,5.937
		C38.007,35.277,35.313,37.971,31.997,37.971z"/>
</g>
</svg>
