<?xml version="1.0" encoding="utf-8"?>
<!-- Generator: Adobe Illustrator 20.1.0, SVG Export Plug-In . SVG Version: 6.00 Build 0)  -->
<svg version="1.1" id="レイヤー_1" xmlns="http://www.w3.org/2000/svg" xmlns:xlink="http://www.w3.org/1999/xlink" x="0px"
	 y="0px" viewBox="0 0 15 15" enable-background="new 0 0 15 15" xml:space="preserve">
<g id="lawson">
	<path fill="#0078B4" d="M15,1.5c-7.8-3.4-14.9,0-14.9,0l1.9,6l-1.9,6c0,0,7.1,3.4,14.9,0l-1.9-6L15,1.5z"/>
	<path fill="#FFFFFF" d="M14.1,1.9C8.2-0.3,2.8,1.3,1,1.9l1.7,5.6L1,13.1c0.7,0.3,2.1,0.7,3.8,1c2.3,0.3,5.7,0.4,9.3-1l-1.7-5.6
		L14.1,1.9z M13.1,12.6c-2.6,0.9-5.3,1.1-8.2,0.7c-1.2-0.2-2.3-0.5-3-0.7l1.6-5.1L1.9,2.4c2-0.7,6.4-1.6,11.2,0l-1.6,5.1L13.1,12.6z
		"/>
	<path fill="#FFFFFF" d="M8.9,5L8.9,5V4.8h0.2c0,0,0,0.1,0,0.2c0.3,0,0.5-0.2,0.5-0.3c0-0.2-0.1-0.4-0.2-0.5l0.3-1
		c0,0,0.3-0.9-0.8-1c-1.1-0.1-1.5-0.1-2.8,0C4.8,2.3,5.4,3.4,5.4,3.4l0.2,0.8C5.5,4.3,5.4,4.4,5.4,4.7C5.5,4.8,5.6,5,5.9,5
		c0,0,0-0.2,0-0.2h0.3V5v0C4.7,5.9,5,7.4,5,7.4s0,2.8,0,4.1s1.1,1.3,1.1,1.3h2.7c0,0,1.3,0,1.3-1.3s0-4.1,0-4.1S10.2,5.9,8.9,5z
		 M8.6,4.8h-2V4.7h2V4.8L8.6,4.8z M6.4,3.2c0,0,0,0.1,0,0.1v1L6.1,4.6L6,4.6c0,0-0.3-1-0.4-1.3C5.3,2.4,5.9,2.6,6.2,2.5
		c1.3-0.1,1.3-0.1,2.6,0c1,0,0.7,0.7,0.7,0.7L9,4.6v0L8.7,4.3v-1c0,0-0.1-0.1-0.2-0.1C8.6,3.2,6.4,3.2,6.4,3.2z"/>
</g>
</svg>
