<?xml version="1.0" encoding="utf-8"?>
<!-- Generator: Adobe Illustrator 20.1.0, SVG Export Plug-In . SVG Version: 6.00 Build 0)  -->
<svg version="1.1" id="onsen" xmlns="http://www.w3.org/2000/svg" xmlns:xlink="http://www.w3.org/1999/xlink" x="0px" y="0px"
	 viewBox="0 0 15 15" enable-background="new 0 0 15 15" xml:space="preserve">
<path d="M4.7131,2.8353c0,0-0.0155,0.0279-0.0423,0.0802C4.6434,2.9673,4.6076,3.0458,4.5646,3.1446
	c-0.0844,0.198-0.191,0.4853-0.2525,0.8312C4.2815,4.1484,4.2625,4.3354,4.2652,4.53c0.0023,0.1946,0.0268,0.3963,0.0756,0.5983
	C4.3664,5.229,4.3961,5.3303,4.433,5.4306C4.47,5.531,4.5145,5.6301,4.5617,5.729C4.659,5.9257,4.7792,6.1177,4.9182,6.299
	l0.11,0.1498l0.0551,0.0748l0.0275,0.0374l0.0285,0.0422c0.0379,0.0563,0.0763,0.1125,0.1118,0.1695
	c0.0332,0.0568,0.0664,0.1135,0.0994,0.1699c0.0321,0.057,0.0613,0.1157,0.0916,0.1731C5.4723,7.173,5.4962,7.2339,5.5232,7.2922
	c0.0273,0.0582,0.0489,0.1191,0.0723,0.1783c0.0245,0.0587,0.0422,0.12,0.0613,0.1798c0.0756,0.2399,0.1208,0.4809,0.1389,0.7104
	c0.0178,0.2298,0.0077,0.4477-0.0212,0.6444c-0.059,0.3947-0.1928,0.6981-0.3056,0.8923c-0.056,0.0979-0.1096,0.1686-0.1458,0.216
	c-0.037,0.0471-0.0599,0.0694-0.0599,0.0694s0.0105-0.0301,0.0266-0.0865c0.0169-0.0561,0.0362-0.1399,0.0569-0.2452
	c0.0199-0.1056,0.0392-0.2335,0.0499-0.3792c0.0108-0.1457,0.0142-0.309,0.0015-0.4841C5.3859,8.8128,5.3584,8.626,5.3118,8.4342
	c-0.0459-0.192-0.112-0.389-0.1964-0.5859c-0.0215-0.0491-0.043-0.0985-0.0674-0.1474c-0.0241-0.049-0.0459-0.099-0.0736-0.1472
	C4.9227,7.4558,4.8652,7.3593,4.807,7.2622C4.7761,7.2146,4.745,7.1668,4.7139,7.1188C4.6814,7.0733,4.6495,7.0281,4.6181,6.9821
	L4.5944,6.9476L4.5663,6.9107L4.51,6.8368L4.3978,6.6881c-0.081-0.1065-0.1533-0.2208-0.2245-0.3349
	C4.1398,6.2945,4.1075,6.2352,4.0758,6.1759C4.0457,6.1156,4.0184,6.0536,3.99,5.9929C3.962,5.9319,3.9398,5.868,3.9156,5.8059
	c-0.0245-0.062-0.0402-0.1276-0.0602-0.1906c-0.0362-0.1275-0.0638-0.2562-0.08-0.3843c-0.0352-0.2557-0.03-0.5069,0.0038-0.7375
	c0.0342-0.231,0.098-0.4412,0.1737-0.6249c0.1531-0.3684,0.3522-0.6293,0.5028-0.7948c0.0752-0.0834,0.1415-0.1418,0.186-0.1813
	C4.6868,2.8534,4.7131,2.8353,4.7131,2.8353z"/>
<path d="M7.0848,1.8333c0,0-0.018,0.032-0.0488,0.0925c-0.0315,0.06-0.073,0.1506-0.1225,0.2653
	C6.8163,2.421,6.694,2.7553,6.622,3.1606c-0.0358,0.2023-0.059,0.422-0.0574,0.6518c0.0008,0.2297,0.0263,0.469,0.0795,0.7095
	c0.0278,0.1201,0.0607,0.2407,0.1014,0.3606c0.041,0.1199,0.0905,0.2384,0.1432,0.3568C6.9974,5.4746,7.133,5.7044,7.2902,5.9216
	l0.1231,0.1771L7.475,6.1871l0.0309,0.0447l0.0314,0.0492C7.5787,6.3464,7.6217,6.4117,7.66,6.4779
	c0.0367,0.0661,0.0733,0.1319,0.1097,0.1975C7.8044,6.7421,7.837,6.8097,7.8702,6.8763C7.9026,6.9434,7.9296,7.0131,7.959,7.0807
	C8.0148,7.2176,8.0656,7.3549,8.105,7.4935C8.1874,7.7693,8.2367,8.045,8.2571,8.3076c0.02,0.2627,0.0103,0.5119-0.0196,0.7376
	C8.2066,9.271,8.1561,9.4731,8.098,9.6464c-0.0583,0.1734-0.1233,0.3182-0.1841,0.433c-0.06,0.1152-0.1175,0.1994-0.1567,0.256
	c-0.04,0.0563-0.0648,0.0834-0.0648,0.0834s0.0122-0.0346,0.0312-0.0997c0.0196-0.0648,0.0427-0.1615,0.0673-0.2836
	c0.048-0.2443,0.092-0.5957,0.0701-1.007C7.8499,8.8229,7.822,8.6029,7.7724,8.3758C7.7236,8.1486,7.6522,7.9147,7.5595,7.6802
	c-0.047-0.117-0.0983-0.2346-0.1554-0.3513c-0.0573-0.1167-0.1212-0.232-0.1861-0.348c-0.0347-0.0569-0.0695-0.114-0.1045-0.1713
	C7.0777,6.7548,7.0417,6.7,7.0056,6.645L6.9788,6.6037L6.9478,6.5602L6.885,6.4727L6.7597,6.2969
	C6.67,6.1723,6.5903,6.0395,6.5121,5.9067C6.4755,5.8386,6.4399,5.77,6.4051,5.7014c-0.0327-0.0699-0.0627-0.141-0.0938-0.2111
	C6.2811,5.4199,6.2567,5.3468,6.2303,5.2755C6.2039,5.204,6.1865,5.1294,6.1648,5.0573C6.1255,4.9113,6.0956,4.7646,6.0775,4.6188
	C6.039,4.3275,6.0434,4.042,6.0783,3.7783c0.0349-0.264,0.1022-0.5058,0.1826-0.7189c0.1625-0.4272,0.3776-0.7372,0.5418-0.9361
	c0.082-0.1001,0.1545-0.1715,0.2034-0.2197C7.0558,1.8559,7.0848,1.8333,7.0848,1.8333z"/>
<path d="M9.4872,2.8353c0,0-0.0155,0.0279-0.0423,0.0802C9.4174,2.9673,9.3816,3.0458,9.3386,3.1446
	c-0.0844,0.198-0.191,0.4853-0.2525,0.8312C9.0555,4.1484,9.0365,4.3354,9.0392,4.53c0.0023,0.1946,0.0268,0.3963,0.0756,0.5983
	c0.0255,0.1008,0.0553,0.202,0.0922,0.3024C9.244,5.531,9.2886,5.6301,9.3357,5.729C9.433,5.9257,9.5532,6.1177,9.6922,6.299
	l0.11,0.1498l0.0551,0.0748l0.0275,0.0374l0.0285,0.0422c0.0379,0.0563,0.0763,0.1125,0.1118,0.1695
	c0.0332,0.0568,0.0664,0.1135,0.0994,0.1699c0.0322,0.057,0.0613,0.1157,0.0916,0.1731c0.0302,0.0574,0.0541,0.1183,0.0811,0.1767
	c0.0273,0.0582,0.0489,0.1191,0.0723,0.1783c0.0245,0.0587,0.0422,0.12,0.0613,0.1798c0.0756,0.2399,0.1208,0.4809,0.1389,0.7104
	c0.0178,0.2298,0.0078,0.4477-0.0212,0.6444c-0.059,0.3947-0.1928,0.6981-0.3056,0.8923c-0.056,0.0979-0.1096,0.1686-0.1458,0.216
	c-0.037,0.0471-0.0599,0.0694-0.0599,0.0694s0.0105-0.0301,0.0266-0.0865c0.0169-0.0561,0.0362-0.1399,0.0569-0.2452
	c0.0199-0.1056,0.0392-0.2335,0.0499-0.3792c0.0108-0.1457,0.0142-0.309,0.0015-0.4841c-0.0123-0.1751-0.0398-0.3619-0.0864-0.5537
	c-0.0459-0.192-0.112-0.389-0.1964-0.5859C9.8678,7.7991,9.8464,7.7497,9.822,7.7008c-0.0241-0.049-0.0459-0.099-0.0736-0.1472
	C9.6968,7.4558,9.6392,7.3593,9.581,7.2622C9.5501,7.2146,9.519,7.1668,9.4879,7.1188C9.4554,7.0733,9.4236,7.0281,9.3922,6.9821
	L9.3685,6.9476L9.3403,6.9107L9.2841,6.8368L9.1719,6.6881c-0.081-0.1065-0.1533-0.2208-0.2245-0.3349
	C8.9139,6.2945,8.8815,6.2352,8.8499,6.1759c-0.0302-0.0603-0.0574-0.1223-0.0858-0.183C8.736,5.9319,8.7138,5.868,8.6896,5.8059
	c-0.0245-0.062-0.0402-0.1276-0.0602-0.1906c-0.0362-0.1275-0.0638-0.2562-0.08-0.3843c-0.0352-0.2557-0.03-0.5069,0.0038-0.7375
	c0.0342-0.231,0.098-0.4412,0.1737-0.6249C8.88,3.5002,9.0791,3.2392,9.2297,3.0738c0.0752-0.0834,0.1415-0.1418,0.186-0.1813
	C9.4609,2.8534,9.4872,2.8353,9.4872,2.8353z"/>
<path d="M11.4461,8.0053c0,0,0.0157,0.0066,0.046,0.0193c0.0301,0.0132,0.0759,0.0304,0.1334,0.0576
	c0.115,0.056,0.2861,0.1367,0.4864,0.2753c0.1991,0.1382,0.4367,0.3312,0.6335,0.6366c0.098,0.1519,0.1798,0.3355,0.2239,0.545
	c0.0127,0.0521,0.0193,0.106,0.0246,0.1611l0.0043,0.0414l0.0011,0.0484c0.0005,0.0239,0.001,0.048,0.0016,0.0722
	c0.0001,0.0124,0.0008,0.0236,0.0005,0.037l-0.0036,0.0461c-0.0028,0.031-0.0057,0.0621-0.0085,0.0935
	c-0.0023,0.0328-0.009,0.0594-0.0141,0.0889c-0.0056,0.029-0.0112,0.0582-0.0169,0.0876c-0.0536,0.2332-0.164,0.4572-0.304,0.6617
	c-0.1408,0.2049-0.3162,0.3879-0.5085,0.5543c-0.3877,0.3303-0.8484,0.5905-1.3427,0.7941
	c-0.247,0.1027-0.5038,0.1892-0.7663,0.2645c-0.1312,0.0383-0.2641,0.0715-0.3979,0.1045c-0.1343,0.0298-0.2696,0.0587-0.406,0.0825
	c-0.5452,0.1018-1.1064,0.1485-1.6666,0.1553l-0.0525,0.0007L7.4873,12.833l-0.0311-0.0004l-0.1008-0.0018l-0.1008-0.0018
	l-0.0505-0.0009L7.1505,12.826l-0.214-0.0091l-0.2096-0.0139c-0.2788-0.0202-0.5557-0.0536-0.8289-0.0992
	c-0.5466-0.0886-1.0784-0.2286-1.5764-0.4203c-0.4981-0.1902-0.9632-0.4366-1.3618-0.747c-0.198-0.1565-0.3804-0.328-0.5333-0.52
	c-0.1521-0.1918-0.2778-0.4023-0.3561-0.6251c-0.0189-0.0559-0.0338-0.113-0.0499-0.1681
	c-0.0109-0.0573-0.0229-0.1134-0.0311-0.1694C1.9847,9.997,1.9773,9.9415,1.9765,9.8863c0.0003-0.0276,0.0007-0.0551,0.001-0.0824
	l0.001-0.0406l0.0003-0.0101l0.0004-0.0146l0.0005-0.0043l0.0022-0.0172c0.0029-0.0229,0.0058-0.0456,0.0086-0.0682
	c0.0017-0.012,0.0022-0.0211,0.0049-0.0353l0.0077-0.041c0.0054-0.027,0.0108-0.0538,0.0161-0.0805
	c0.0056-0.0263,0.0138-0.0491,0.0205-0.0734c0.0072-0.0238,0.0144-0.0473,0.0215-0.0707C2.07,9.3254,2.0788,9.3029,2.0875,9.2806
	c0.0162-0.0451,0.0374-0.0868,0.058-0.1276c0.0834-0.1629,0.1831-0.2978,0.2852-0.4094c0.101-0.1129,0.2057-0.2014,0.3016-0.2769
	c0.0971-0.0742,0.1868-0.1345,0.2675-0.182c0.08-0.0485,0.15-0.0854,0.2066-0.115c0.0562-0.0303,0.102-0.0486,0.1315-0.063
	C3.3678,8.0931,3.3832,8.086,3.3832,8.086S3.3318,8.13,3.2355,8.2125C3.1402,8.2948,3.0061,8.4232,2.8573,8.5974
	C2.7121,8.7727,2.552,9.003,2.4674,9.2847C2.457,9.3197,2.4469,9.3552,2.4406,9.3918C2.4367,9.4098,2.4329,9.428,2.429,9.4464
	C2.4267,9.4648,2.4244,9.4834,2.4221,9.5021C2.4203,9.5205,2.4165,9.5401,2.416,9.5575C2.4156,9.5747,2.4151,9.5919,2.4146,9.6093
	L2.4135,9.6351C2.413,9.6433,2.4141,9.6569,2.4143,9.6676C2.4152,9.6903,2.4161,9.7132,2.417,9.7363l0.0007,0.0173l0.0002,0.0043
	c0.0006-0.018,0.0005-0.0029,0.0008-0.006l0.0011,0.0072l0.0045,0.0289c0.0027,0.0192,0.0054,0.0386,0.0081,0.058
	c0.0062,0.0387,0.0183,0.077,0.0266,0.1158c0.0118,0.0384,0.0267,0.0764,0.0394,0.1149c0.0182,0.0374,0.034,0.0755,0.0531,0.113
	c0.1563,0.2999,0.445,0.5714,0.8009,0.7944c0.3564,0.2246,0.7787,0.4054,1.2328,0.5459c0.2276,0.0689,0.4623,0.1319,0.7033,0.1838
	c0.1211,0.0241,0.2426,0.0491,0.3662,0.0686c0.0613,0.0116,0.1232,0.0218,0.1855,0.0307c0.0623,0.0089,0.1241,0.0202,0.1871,0.0272
	c0.2502,0.0354,0.5051,0.0541,0.7607,0.0725l0.1919,0.0108l0.1886,0.0062l0.0472,0.0016l0.0503,0.0004l0.1008,0.0008l0.1009,0.0008
	l0.0919-0.001c0.2579,0.001,0.5153-0.0118,0.7709-0.0309c0.2555-0.0199,0.5092-0.0464,0.7589-0.0845
	c0.2495-0.0382,0.4957-0.0833,0.7353-0.1396c0.2396-0.0564,0.4728-0.1229,0.6983-0.1968c0.4486-0.152,0.8645-0.3436,1.2076-0.5813
	c0.3424-0.2363,0.6095-0.5228,0.7304-0.8328c0.0068-0.0195,0.0135-0.039,0.0203-0.0583c0.0064-0.019,0.0153-0.0398,0.0183-0.0563
	c0.0046-0.0175,0.0091-0.0349,0.0137-0.0521l0.0074-0.0261c0.0019-0.0108,0.0031-0.0238,0.0047-0.0355
	c0.003-0.024,0.0059-0.0479,0.0089-0.0716l0.0022-0.0178l0.0011-0.0089c0.0004-0.0119,0.0001,0.0112,0.0001,0.0075l0.0001-0.0037
	l0.001-0.0294c0.0009-0.0197,0.0019-0.0393,0.0028-0.0587c0.0014-0.0196-0.0013-0.0388-0.0016-0.0583
	c-0.0053-0.1553-0.0449-0.3045-0.1003-0.4416c-0.0558-0.1373-0.1297-0.2608-0.2062-0.3717c-0.0794-0.1088-0.159-0.2071-0.2385-0.29
	c-0.1581-0.1671-0.2982-0.2885-0.3958-0.3677C11.4993,8.0474,11.4461,8.0053,11.4461,8.0053z"/>
</svg>
