<?xml version="1.0" encoding="utf-8"?>
<!-- Generator: Adobe Illustrator 20.1.0, SVG Export Plug-In . SVG Version: 6.00 Build 0)  -->
<svg version="1.1" id="レイヤー_1" xmlns="http://www.w3.org/2000/svg" xmlns:xlink="http://www.w3.org/1999/xlink" x="0px"
	 y="0px" viewBox="0 0 15 15" enable-background="new 0 0 15 15" xml:space="preserve">
<g>
	<path fill="#DA2703" d="M12.7,6.3c0.7,0.6,1.2,1.4,1.2,2.3c0,2.2-2.8,4-6.4,4s-6.4-1.8-6.4-3.9c0-0.8,0.4-1.6,1.2-2.3
		C0.9,7.1,0,8.3,0,9.6c0,2.5,3.4,4.5,7.5,4.5S15,12,15,9.6C15,8.3,14.1,7.1,12.7,6.3z"/>
	<path fill="#DA2703" d="M6.3,4.6L6.3,4.6c0,0.1,0,0.1,0,0.2c0,0,0,0.1,0,0.1c0,0.1,0,0.1,0,0.2c0,0.1,0,0.1,0.1,0.2
		c0,0.1,0,0.1,0.1,0.2s0,0.1,0.1,0.2l0,0.1l0,0.1l0.1,0.1l0.1,0.2C7,6.3,7,6.5,7.2,6.7c0,0,0,0.1,0,0.1c0,0,0,0,0,0
		c0,0.1,0.1,0.1,0.1,0.2c0,0.1,0.1,0.3,0.1,0.4c0,0.2,0,0.4,0,0.6c0,0.2,0,0.4-0.1,0.6C7.3,8.9,7.2,9.1,7.2,9.3c0,0,0,0.1,0,0.1
		c0,0.1-0.1,0.2-0.1,0.3c0,0.1-0.2,0.4-0.2,0.4s-0.2,0.3-0.3,0.4c0.3-0.1,0.8-0.4,1.2-0.8c0.3-0.2,0.5-0.5,0.7-0.9
		c0.1-0.1,0.2-0.3,0.2-0.5l0,0c0,0,0,0,0,0c0.1-0.2,0.1-0.4,0.2-0.7c0-0.1,0-0.2,0-0.4c0-0.1,0-0.2,0-0.3c0-0.1,0-0.1,0-0.2v0
		c0-0.1,0-0.1,0-0.2c0-0.1,0-0.1-0.1-0.2c0,0,0,0,0-0.1c0-0.1,0-0.1-0.1-0.2s0-0.1-0.1-0.2c0-0.1,0-0.1-0.1-0.2l0-0.1l0-0.1L8.2,5.5
		L8.1,5.3C8,5.1,7.9,5,7.8,4.8c0,0,0,0,0,0c0,0,0-0.1,0-0.1c0-0.1-0.1-0.1-0.1-0.2c0-0.1-0.1-0.3-0.1-0.4c0-0.2,0-0.4,0-0.6
		c0-0.2,0.1-0.5,0.1-0.6c0.1-0.2,0.1-0.4,0.2-0.6c0,0,0-0.1,0-0.1c0,0,0,0,0,0c0-0.1,0.1-0.2,0.1-0.3c0-0.1,0.2-0.4,0.2-0.4
		S8.4,1,8.5,0.9C8.3,1,7.7,1.4,7.4,1.7C7.1,2,6.9,2.3,6.7,2.6C6.6,2.7,6.5,2.9,6.5,3.1v0c0,0,0,0.1-0.1,0.2C6.3,3.5,6.3,3.7,6.3,4
		c0,0,0,0.1,0,0.1c0,0.1,0,0.2,0,0.3C6.3,4.5,6.3,4.6,6.3,4.6z"/>
	<path fill="#DA2703" d="M3.2,4.9L3.2,4.9C3.2,4.9,3.2,4.9,3.2,4.9c0,0.1,0,0.2,0,0.3c0,0.1,0,0.1,0,0.2c0,0.1,0,0.1,0.1,0.2
		c0,0.1,0,0.1,0.1,0.2c0,0.1,0,0.1,0.1,0.2l0,0.1l0,0.1l0,0.1l0.1,0.2C3.8,6.4,3.9,6.5,4,6.7c0,0,0,0.1,0,0.1C4.1,6.9,4.1,7,4.1,7
		c0,0.1,0.1,0.3,0.1,0.4c0,0.2,0,0.4,0,0.6c0,0.2,0,0.4-0.1,0.6C4.1,8.8,4.1,8.9,4,9.1c0,0,0,0,0,0.1c0,0.1-0.1,0.2-0.1,0.2
		c0,0.1-0.2,0.4-0.2,0.4s-0.2,0.3-0.3,0.4c0.2-0.1,0.7-0.4,1.1-0.7C4.6,9.2,4.8,9,5,8.7c0,0,0,0,0,0c0.1-0.1,0.2-0.3,0.2-0.4
		c0,0,0,0,0,0C5.3,8,5.4,7.8,5.4,7.6c0-0.1,0-0.2,0-0.3c0,0,0,0,0-0.1c0-0.1,0-0.1,0-0.2c0-0.1,0-0.1,0-0.2c0,0,0-0.1,0-0.1
		c0,0,0-0.1,0-0.1c0-0.1,0-0.1,0-0.2c0-0.1,0-0.1,0-0.2c0-0.1,0-0.1-0.1-0.2c0-0.1,0-0.1-0.1-0.2c0-0.1,0-0.1-0.1-0.2l0-0.1l0-0.1
		l0-0.1L4.9,5.5C4.8,5.3,4.7,5.2,4.6,5c0,0,0-0.1,0-0.1c0-0.1-0.1-0.1-0.1-0.2c0-0.1-0.1-0.3-0.1-0.4c0-0.2,0-0.4,0-0.6
		c0-0.2,0-0.4,0.1-0.6C4.5,3,4.6,2.8,4.6,2.6c0,0,0,0,0-0.1c0-0.1,0.1-0.2,0.1-0.2C4.8,2.2,5,1.9,5,1.9s0.2-0.3,0.3-0.4
		C5,1.6,4.5,1.9,4.2,2.3C4,2.5,3.9,2.7,3.7,2.9C3.6,3,3.5,3.2,3.4,3.5v0C3.3,3.7,3.2,3.9,3.2,4.1c0,0.1,0,0.2,0,0.3
		C3.2,4.5,3.2,4.7,3.2,4.9C3.2,4.8,3.2,4.8,3.2,4.9z"/>
	<path fill="#DA2703" d="M9.7,4.9L9.7,4.9C9.7,4.9,9.7,4.9,9.7,4.9c0,0.1,0,0.2,0,0.3c0,0.1,0,0.1,0,0.2c0,0.1,0,0.1,0.1,0.2
		c0,0.1,0,0.1,0.1,0.2c0,0.1,0,0.1,0.1,0.2l0,0.1l0,0.1l0,0.1l0.1,0.2c0.1,0.2,0.2,0.3,0.3,0.5c0,0,0,0.1,0,0.1
		c0,0.1,0.1,0.1,0.1,0.2c0,0.1,0.1,0.3,0.1,0.4c0,0.2,0,0.4,0,0.6c0,0.2,0,0.4-0.1,0.6c-0.1,0.2-0.1,0.4-0.2,0.6c0,0,0,0,0,0.1
		c0,0.1-0.1,0.2-0.1,0.2c0,0.1-0.2,0.4-0.2,0.4s-0.2,0.3-0.3,0.4c0.2-0.1,0.7-0.4,1.1-0.7c0.2-0.2,0.4-0.5,0.6-0.8c0,0,0,0,0,0
		c0.1-0.1,0.2-0.3,0.2-0.4c0,0,0,0,0,0c0.1-0.2,0.1-0.4,0.1-0.6c0-0.1,0-0.2,0-0.3c0,0,0,0,0-0.1s0,0,0-0.1c0-0.1,0-0.2,0-0.3
		c0,0,0-0.1,0-0.1c0,0,0-0.1,0-0.1c0-0.1,0-0.1,0-0.2c0-0.1,0-0.1,0-0.2c0-0.1,0-0.1-0.1-0.2c0-0.1,0-0.1-0.1-0.2
		c0-0.1,0-0.1-0.1-0.2l0-0.1l0-0.1l0-0.1l-0.1-0.2c-0.1-0.2-0.2-0.3-0.3-0.5c0,0,0-0.1,0-0.1C11,4.8,11,4.8,11,4.7
		c0-0.1-0.1-0.3-0.1-0.4c0-0.2,0-0.4,0-0.6c0-0.2,0-0.4,0.1-0.6C11,3,11,2.8,11.1,2.6c0,0,0,0,0-0.1c0-0.1,0.1-0.2,0.1-0.2
		c0-0.1,0.2-0.4,0.2-0.4s0.2-0.3,0.3-0.4c-0.2,0.1-0.7,0.4-1.1,0.7c-0.2,0.2-0.3,0.4-0.5,0.6C10.1,3,9.9,3.2,9.8,3.5v0
		C9.8,3.7,9.7,3.9,9.7,4.1c0,0.1,0,0.2,0,0.3C9.7,4.5,9.7,4.7,9.7,4.9C9.7,4.8,9.7,4.8,9.7,4.9z"/>
</g>
</svg>
