<?xml version="1.0" encoding="utf-8"?>
<!-- Generator: Adobe Illustrator 20.0.0, SVG Export Plug-In . SVG Version: 6.00 Build 0)  -->
<svg version="1.1" id="parking_x5F_area" xmlns="http://www.w3.org/2000/svg" xmlns:xlink="http://www.w3.org/1999/xlink" x="0px"
	 y="0px" viewBox="0 0 15 15" enable-background="new 0 0 15 15" xml:space="preserve">
<g id="_x32_文字_1_">
	<g>
		<path fill="#00864A" d="M12.85,10.92H2.46c-0.55,0-1-0.45-1-1v-4.9c0-0.55,0.45-1,1-1h10.38c0.55,0,1,0.45,1,1v4.9
			C13.85,10.48,13.4,10.92,12.85,10.92z"/>
	</g>
</g>
<g>
	<path fill="#FFFFFF" d="M3.54,10.32V4.76l0.34-0.05c0.48-0.07,0.95-0.11,1.41-0.11c0.7,0,1.24,0.16,1.63,0.47
		C7.33,5.4,7.54,5.88,7.54,6.48c0,0.64-0.21,1.13-0.62,1.48c-0.39,0.33-0.94,0.5-1.63,0.5c-0.14,0-0.28,0-0.41-0.01v1.88H3.54z
		 M5.25,7.21c0.34,0,0.59-0.07,0.75-0.19c0.09-0.07,0.2-0.2,0.2-0.5c0-0.3-0.11-0.43-0.19-0.49C5.86,5.9,5.6,5.84,5.25,5.84
		c-0.12,0-0.24,0.01-0.37,0.02V7.2C5.01,7.21,5.13,7.21,5.25,7.21z"/>
	<path fill="#FFFFFF" d="M10.72,10.32l-0.46-1.42H8.88l-0.46,1.42H7l1.99-5.66h1.17l1.99,5.66H10.72z M9.85,7.67L9.57,6.82
		L9.28,7.67H9.85z"/>
</g>
</svg>
