<?xml version="1.0" encoding="utf-8"?>
<!-- Generator: Adobe Illustrator 23.1.1, SVG Export Plug-In . SVG Version: 6.00 Build 0)  -->
<svg version="1.1" id="レイヤー_1" xmlns="http://www.w3.org/2000/svg" xmlns:xlink="http://www.w3.org/1999/xlink" x="0px"
	 y="0px" viewBox="0 0 12 12" enable-background="new 0 0 12 12" xml:space="preserve">
<g>
	<g>
		<path fill="#00864A" d="M10.7,12.001H1.3c-0.718,0-1.3-0.582-1.3-1.3v-9.4c0-0.718,0.582-1.3,1.3-1.3h9.4
			c0.718,0,1.3,0.582,1.3,1.3v9.4C12,11.419,11.418,12.001,10.7,12.001z"/>
	</g>
	<path fill="#FFFFFF" d="M6.166,6.344C5.803,7.263,5.322,8.051,4.709,8.72c-0.607,0.669-1.401,1.257-2.37,1.77L1.726,9.339
		c1.057-0.507,1.907-1.238,2.551-2.182C4.915,6.213,5.303,5.1,5.44,3.824V2.761L3.245,2.748V1.51h3.496
		c0,0.088,0.006,0.181,0.006,0.275v0.938c0,0.669,0.056,1.276,0.163,1.82c0.106,0.544,0.306,1.107,0.6,1.695
		c0.294,0.588,0.663,1.126,1.113,1.613c0.45,0.488,1.001,0.957,1.651,1.407l-0.875,1.207c-0.9-0.725-1.601-1.426-2.095-2.101
		C6.81,7.701,6.435,7.026,6.166,6.344z"/>
</g>
</svg>
