<?xml version="1.0" encoding="utf-8"?>
<!-- Generator: Adobe Illustrator 23.1.1, SVG Export Plug-In . SVG Version: 6.00 Build 0)  -->
<svg version="1.1" id="レイヤー_1" xmlns="http://www.w3.org/2000/svg" xmlns:xlink="http://www.w3.org/1999/xlink" x="0px"
	 y="0px" viewBox="0 0 12 12" enable-background="new 0 0 12 12" xml:space="preserve">
<g>
	<g>
		<path fill="#00864A" d="M10.7,12.001H1.3c-0.718,0-1.3-0.582-1.3-1.3v-9.4c0-0.718,0.582-1.3,1.3-1.3h9.4
			c0.718,0,1.3,0.582,1.3,1.3v9.4C12,11.419,11.418,12.001,10.7,12.001z"/>
	</g>
	<polygon fill="#FFFFFF" points="8.732,6.611 8.732,9.313 6.543,9.313 6.543,5.794 9.507,5.794 9.507,2.098 8.244,2.098 
		8.244,4.653 6.543,4.653 6.543,1.512 5.268,1.512 5.268,4.653 3.646,4.653 3.646,2.128 2.396,2.128 2.396,5.794 5.268,5.794 
		5.268,9.313 3.274,9.313 3.274,6.611 1.993,6.611 1.993,10.49 10.007,10.49 10.007,6.611 	"/>
</g>
</svg>
