<?xml version="1.0" encoding="utf-8"?>
<!-- Generator: Adobe Illustrator 20.0.0, SVG Export Plug-In . SVG Version: 6.00 Build 0)  -->
<svg version="1.1" id="ramp_x5F_deiriguchi" xmlns="http://www.w3.org/2000/svg" xmlns:xlink="http://www.w3.org/1999/xlink"
	 x="0px" y="0px" viewBox="0 0 15 15" enable-background="new 0 0 15 15" xml:space="preserve">
<g id="_x32_文字_1_">
	<g>
		<path fill="#00864A" d="M12.85,10.92H2.46c-0.55,0-1-0.45-1-1v-4.9c0-0.55,0.45-1,1-1h10.38c0.55,0,1,0.45,1,1v4.9
			C13.85,10.48,13.4,10.92,12.85,10.92z"/>
	</g>
</g>
<g>
	<path fill="#FFFFFF" d="M12.14,10.17c-0.73-0.41-1.31-1.07-1.71-1.97c-0.39,0.89-0.97,1.55-1.73,1.97l-0.32,0.17L7.91,9.32
		L8.2,9.17C8.81,8.85,9.24,8.39,9.5,7.77c0.27-0.65,0.41-1.32,0.41-2V5.64h-1.1V4.6h2.13v1.17c0,0.77,0.16,1.47,0.49,2.08
		c0.32,0.6,0.73,1.04,1.23,1.3l0.28,0.15l-0.48,1.05L12.14,10.17z"/>
	<polygon fill="#FFFFFF" points="6.15,8.11 6.15,9.01 5.3,9.01 5.3,7.5 7.01,7.5 7.01,4.95 5.96,4.95 5.96,6.49 5.3,6.49 5.3,4.59 
		4.27,4.59 4.27,6.49 3.61,6.49 3.61,4.95 2.56,4.95 2.56,7.5 4.27,7.5 4.27,9.01 3.42,9.01 3.42,8.11 2.37,8.11 2.37,10.36 
		3.42,10.36 3.42,10.05 6.15,10.05 6.15,10.36 7.2,10.36 7.2,8.11 	"/>
</g>
</svg>
