<?xml version="1.0" encoding="utf-8"?>
<!-- Generator: Adobe Illustrator 20.0.0, SVG Export Plug-In . SVG Version: 6.00 Build 0)  -->
<svg version="1.1" id="ramp_x5F_deguchi" xmlns="http://www.w3.org/2000/svg" xmlns:xlink="http://www.w3.org/1999/xlink" x="0px"
	 y="0px" viewBox="0 0 15 15" enable-background="new 0 0 15 15" xml:space="preserve">
<g>
	<g id="_x31_文字">
		<g>
			<path fill="#00864A" d="M10.25,10.95h-5.5c-0.55,0-1-0.45-1-1v-4.9c0-0.55,0.45-1,1-1h5.5c0.55,0,1,0.45,1,1v4.9
				C11.25,10.5,10.8,10.95,10.25,10.95z"/>
		</g>
	</g>
	<polygon fill="#FFFFFF" points="8.87,8.13 8.87,9.04 8.01,9.04 8.01,7.53 9.72,7.53 9.72,4.97 8.68,4.97 8.68,6.51 8.01,6.51 
		8.01,4.61 6.99,4.61 6.99,6.51 6.32,6.51 6.32,4.97 5.28,4.97 5.28,7.53 6.99,7.53 6.99,9.04 6.13,9.04 6.13,8.13 5.09,8.13 
		5.09,10.39 6.13,10.39 6.13,10.07 8.87,10.07 8.87,10.39 9.91,10.39 9.91,8.13 	"/>
</g>
</svg>
