<?xml version="1.0" encoding="utf-8"?>
<!-- Generator: Adobe Illustrator 20.1.0, SVG Export Plug-In . SVG Version: 6.00 Build 0)  -->
<svg version="1.1" id="レイヤー_1" xmlns="http://www.w3.org/2000/svg" xmlns:xlink="http://www.w3.org/1999/xlink" x="0px"
	 y="0px" viewBox="0 0 15 15" enable-background="new 0 0 15 15" xml:space="preserve">
<path fill="#00864A" d="M12.2,15H2.8C1.2,15,0,13.8,0,12.2V2.8C0,1.2,1.2,0,2.8,0h9.4C13.8,0,15,1.2,15,2.8v9.4
	C15,13.8,13.8,15,12.2,15z"/>
<polygon fill="#FFFFFF" points="10.9,8.3 10.9,11.7 8.2,11.7 8.2,8.1 8.2,7.7 8.2,7.2 11.9,7.2 11.9,2.6 10.3,2.6 10.3,5.8 8.2,5.8 
	8.2,1.8 6.6,1.8 6.6,5.8 4.5,5.8 4.5,2.6 3,2.6 3,7.2 6.6,7.2 6.6,7.7 6.6,8.1 6.6,11.7 4.1,11.7 4.1,8.3 2.4,8.3 2.4,13.2 
	12.6,13.2 12.6,8.3 "/>
</svg>
