<?xml version="1.0" encoding="utf-8"?>
<!-- Generator: Adobe Illustrator 20.0.0, SVG Export Plug-In . SVG Version: 6.00 Build 0)  -->
<svg version="1.1" id="ringerhut" xmlns="http://www.w3.org/2000/svg" xmlns:xlink="http://www.w3.org/1999/xlink" x="0px" y="0px"
	 viewBox="0 0 15 15" enable-background="new 0 0 15 15" xml:space="preserve">
<circle fill="#FFC700" cx="7.5" cy="7.5" r="7.5"/>
<path fill="#E7242C" d="M3.84,12.81H3.32V1.67h3.95c0.08,0,1.81,0.03,2.85,1.23c1.18,1.37,1.29,3.1,0.3,4.75L10.4,7.68
	C9.98,8.2,9.62,8.53,9.38,8.72l3.53,3.52l-0.37,0.37L8.57,8.64l0.28-0.17c0,0,0.51-0.32,1.14-1.1c1.17-1.96,0.34-3.43-0.26-4.13
	C8.85,2.21,7.29,2.19,7.27,2.19H3.84V12.81z"/>
<path fill="#E7242C" d="M11.84,13.21L7.27,8.63l0.07-0.16c0.01-0.01,0.13-0.3,0.25-0.5l0.05-0.09l0.1-0.03
	c1.21-0.35,2.21-1.53,1.78-3.1C9.09,3.23,7.28,3.1,7.2,3.1l-2.4,0v9.71H4.28V2.58h2.94c0.11,0.01,2.28,0.15,2.8,2.04
	c0.5,1.83-0.66,3.25-2.03,3.7C7.95,8.39,7.92,8.46,7.89,8.51l4.32,4.33L11.84,13.21z"/>
<path fill="#E7242C" d="M11.14,13.92l-4.98-5.1l0.08-0.16c0,0,0.59-1.23,0.73-1.53l0.06-0.12l0.13-0.03
	c0.39-0.08,1.67-0.43,1.49-1.71C8.5,4.16,7.17,4.13,7.11,4.13H5.77v8.69H5.25V3.61h1.87C7.75,3.61,9,3.95,9.17,5.21
	c0.18,1.32-0.82,2.03-1.78,2.26c-0.15,0.32-0.45,0.95-0.6,1.26l4.72,4.84L11.14,13.92z"/>
</svg>
