<?xml version="1.0" encoding="utf-8"?>
<!-- Generator: Adobe Illustrator 20.1.0, SVG Export Plug-In . SVG Version: 6.00 Build 0)  -->
<svg version="1.1" id="レイヤー_1" xmlns="http://www.w3.org/2000/svg" xmlns:xlink="http://www.w3.org/1999/xlink" x="0px"
	 y="0px" viewBox="0 0 15 15" enable-background="new 0 0 15 15" xml:space="preserve">
<g id="レイヤー_1_1_">
	<path fill="#FFFFFF" d="M14.4,11.8L11.1,15l-0.7-0.7l-3.7-3.8v3H2.1V0h5.1c0.1,0,0.6,0,1.4,0.2c1,0.3,1.8,0.8,2.3,1.4
		c0.7,0.9,1.2,1.9,1.2,2.9c0.1,1-0.2,2.1-0.8,3.1l0,0l0,0l0,0l0,0l0,0c-0.1,0.2-0.3,0.3-0.4,0.4l2.9,2.9L14.4,11.8z"/>
	<g id="ringerhut">
		<path fill="#E7242C" d="M3.7,12.4H3.2V1h4c0.1,0,1.9,0,2.9,1.3c1.2,1.4,1.3,3.2,0.3,4.9l0,0C10,7.7,9.6,8,9.4,8.2l3.6,3.6
			l-0.4,0.4L8.5,8.2L8.8,8c0,0,0.5-0.3,1.2-1.1c1.2-2,0.3-3.5-0.3-4.2c-0.9-1-2.5-1.1-2.5-1.1H3.7V12.4z"/>
		<path fill="#E7242C" d="M11.9,12.8L7.2,8.1L7.3,8c0,0,0.1-0.3,0.3-0.5l0.1-0.1l0.1,0C8.9,7,9.9,5.8,9.5,4.2
			C9.1,2.6,7.2,2.5,7.1,2.5H4.7v9.9H4.1V2h3C7.3,2,9.5,2.1,10,4c0.5,1.9-0.7,3.3-2.1,3.8C7.9,7.9,7.9,8,7.8,8l4.4,4.4L11.9,12.8z"/>
		<path fill="#E7242C" d="M11.2,13.6L6.1,8.4l0.1-0.2c0,0,0.6-1.3,0.7-1.6L7,6.5l0.1,0C7.5,6.4,8.8,6,8.6,4.7C8.5,3.6,7.1,3.5,7,3.5
			H5.7v8.9H5.1V3H7C7.7,3,9,3.4,9.1,4.6C9.3,6,8.3,6.7,7.3,7c-0.2,0.3-0.5,1-0.6,1.3l4.8,4.9L11.2,13.6z"/>
	</g>
</g>
</svg>
