<?xml version="1.0" encoding="utf-8"?>
<!-- Generator: Adobe Illustrator 20.0.0, SVG Export Plug-In . SVG Version: 6.00 Build 0)  -->
<svg version="1.1" id="royalhost" xmlns="http://www.w3.org/2000/svg" xmlns:xlink="http://www.w3.org/1999/xlink" x="0px" y="0px"
	 viewBox="0 0 15 15" enable-background="new 0 0 15 15" xml:space="preserve">
<g>
	<path fill="#F65819" d="M4.55,5.31C5.8,3.67,4.18,3.17,4.18,3.17H1.76v0.69h0.42v3.31h0.88l0.03-1.48c0,0,0.39,0,0.88,0l0.06,0.27
		c0.04,0.19,0.09,0.39,0.11,0.51l0,0H3.57v0.13v0.58h1.46v-0.7L4.55,5.31z M3.04,4.95V3.89c0,0,0.61,0,0.84,0S4.29,4.06,4.27,4.5
		S3.79,4.95,3.79,4.95H3.04z"/>
	<path fill="#F65819" d="M6.45,4.25H6.22c-0.55,0-1,0.45-1,1v0.98c0,0.55,0.45,1,1,1h0.23c0.55,0,1-0.45,1-1V5.25
		C7.45,4.7,7,4.25,6.45,4.25z M6.73,6.28c0,0.17-0.14,0.3-0.3,0.3H6.24c-0.17,0-0.3-0.14-0.3-0.3V5.2c0-0.17,0.14-0.3,0.3-0.3h0.19
		c0.17,0,0.3,0.14,0.3,0.3V6.28z"/>
	<polygon fill="#F65819" points="9.98,4.35 8.62,4.35 8.62,4.95 9.18,4.95 8.85,5.91 8.34,4.35 7.51,4.35 8.49,6.94 8.31,7.46 
		7.45,7.46 7.45,8.07 8.77,8.07 9.19,6.98 9.2,6.98 9.19,6.97 9.98,4.95 	"/>
	<path fill="#F65819" d="M11.91,3.17v0.72h0.58v2.7h-0.31c0,0,0-1.24,0-1.69s-0.61-0.54-0.61-0.54h-0.73h-0.17h-0.34h-0.16V5.3
		l0.67-0.13V4.96c0.63,0.01,0.65,0.11,0.59,0.47c-0.75,0.02-1.27,0.03-1.27,0.79s0.34,0.96,0.34,0.96h2.74v-4H11.91z M11.46,6.59
		c0,0-0.58,0.14-0.63-0.28s0.63-0.28,0.63-0.28V6.59z"/>
</g>
<g>
	<polygon fill="#F65819" points="5.09,8.42 5.09,10.02 3.96,10.02 3.96,9.15 3.96,8.58 3.96,8.42 2.62,8.42 2.62,9.15 3.15,9.15 
		3.15,12.42 3.96,12.42 3.96,10.77 5.09,10.77 5.09,11.75 4.61,11.75 4.61,12.42 5.98,12.42 5.98,12.19 5.98,11.75 5.98,8.42 	"/>
	<path fill="#F65819" d="M7.53,9.43H7.3c-0.55,0-1,0.45-1,1v0.98c0,0.55,0.45,1,1,1h0.23c0.55,0,1-0.45,1-1v-0.98
		C8.53,9.88,8.08,9.43,7.53,9.43z M7.82,11.47c0,0.17-0.14,0.3-0.3,0.3H7.33c-0.17,0-0.3-0.14-0.3-0.3v-1.08
		c0-0.17,0.14-0.3,0.3-0.3h0.19c0.17,0,0.3,0.14,0.3,0.3V11.47z"/>
	<path fill="#F65819" d="M11.82,11.43v-1.26h0.54V9.6V9.5h-0.54V8.65h-0.78V9.5H9.82c0,0-1.02-0.07-1.02,0.92
		c-0.02,0.33,0.23,0.69,1.31,0.96c0.3,0.59-0.6,0.41-0.6,0.41l0.01-0.26l-0.72-0.21v1.1h1.31c0,0,0.73-0.03,0.77-0.65
		c0.04-0.62-0.15-0.8-0.77-1c-0.45-0.07-0.81-0.4-0.44-0.6h1.37v1.2c0,0-0.06,1.05,0.55,1.05s0.79,0,0.79,0v-0.65
		C12.38,11.77,11.82,11.97,11.82,11.43z"/>
</g>
</svg>
