<?xml version="1.0" encoding="utf-8"?>
<!-- Generator: Adobe Illustrator 20.0.0, SVG Export Plug-In . SVG Version: 6.00 Build 0)  -->
<svg version="1.1" id="ryoukinjo" xmlns="http://www.w3.org/2000/svg" xmlns:xlink="http://www.w3.org/1999/xlink" x="0px" y="0px"
	 viewBox="0 0 15 15" enable-background="new 0 0 15 15" xml:space="preserve">
<path fill="#00864A" d="M14,10.92H1c-0.55,0-1-0.45-1-1v-4.9c0-0.55,0.45-1,1-1h13c0.55,0,1,0.45,1,1v4.9
	C15,10.48,14.55,10.92,14,10.92z"/>
<g>
	<path fill="#FFFFFF" d="M2.03,7.63c0.33,0.21,0.59,0.44,0.79,0.7l-0.3,0.27C2.37,8.37,2.2,8.19,2.03,8.04V9.7H1.69V8.2
		C1.57,8.58,1.35,8.91,1.05,9.21L0.79,8.88C1.14,8.62,1.44,8.13,1.67,7.4H0.92V7.11h0.77V5.25h0.34v1.86h0.75V7.4H2.03V7.63z
		 M0.92,5.8l0.36-0.1c0.09,0.33,0.16,0.66,0.21,1.02L1.15,6.79C1.09,6.47,1.01,6.14,0.92,5.8z M2.42,5.64L2.78,5.7
		C2.74,6.06,2.67,6.43,2.55,6.81l-0.34-0.1C2.32,6.38,2.38,6.02,2.42,5.64z M4.09,5.25h0.34V8.2c0.18-0.06,0.36-0.13,0.54-0.21v0.37
		C4.79,8.43,4.61,8.5,4.43,8.57V9.7H4.09V8.67c-0.36,0.1-0.74,0.16-1.14,0.2L2.87,8.49C3.29,8.47,3.69,8.41,4.09,8.3V5.25z
		 M2.97,7.24l0.26-0.27C3.47,7.2,3.66,7.45,3.81,7.71L3.53,7.98C3.39,7.71,3.2,7.46,2.97,7.24z M3.08,6.01l0.26-0.27
		c0.24,0.23,0.43,0.48,0.58,0.74L3.64,6.75C3.5,6.48,3.32,6.23,3.08,6.01z"/>
	<path fill="#FFFFFF" d="M7.73,5.25C8.17,6.04,8.83,6.58,9.7,6.87L9.5,7.22C9.18,7.09,8.89,6.94,8.63,6.76v0.19H7.7v0.72H9.4v0.29
		H7.7v1.35h1.86v0.31H5.5V9.31h1.86V7.96H5.65V7.67h1.71V6.95H6.42V6.76C6.17,6.94,5.88,7.09,5.56,7.22L5.35,6.85
		c0.89-0.26,1.54-0.79,1.97-1.6H7.73z M6.42,8.14C6.58,8.43,6.72,8.71,6.84,9L6.52,9.16C6.4,8.87,6.27,8.59,6.1,8.32L6.42,8.14z
		 M7.53,5.52C7.29,5.97,6.97,6.34,6.56,6.66h1.93C8.08,6.34,7.76,5.97,7.53,5.52 M7.53,5.52 M8.95,8.26
		c-0.1,0.33-0.24,0.63-0.41,0.9l-0.3-0.18C8.4,8.72,8.53,8.43,8.62,8.12L8.95,8.26z"/>
	<path fill="#FFFFFF" d="M10.63,7.85c0,0.76-0.14,1.37-0.41,1.86l-0.36-0.2c0.29-0.47,0.43-1.02,0.43-1.66V6.38h1.65v1.46H10.63z
		 M10.09,5.68V5.39h1.99v0.29H10.09z M11.6,7.57V6.66h-0.97v0.92H11.6z M12.28,7.03V5.64c0.58,0.03,1.14-0.1,1.67-0.39l0.19,0.37
		c-0.45,0.22-0.96,0.33-1.52,0.33v0.78h1.59v0.29h-0.54V9.7h-0.34V7.03h-0.71c0,1.15-0.26,2.04-0.77,2.68l-0.36-0.2
		C12.02,8.87,12.28,8.04,12.28,7.03z"/>
</g>
</svg>
