<?xml version="1.0" encoding="utf-8"?>
<!-- Generator: Adobe Illustrator 20.0.0, SVG Export Plug-In . SVG Version: 6.00 Build 0)  -->
<svg version="1.1" id="service_x5F_area" xmlns="http://www.w3.org/2000/svg" xmlns:xlink="http://www.w3.org/1999/xlink" x="0px"
	 y="0px" viewBox="0 0 15 15" enable-background="new 0 0 15 15" xml:space="preserve">
<g id="_x32_文字_1_">
	<g>
		<path fill="#00864A" d="M12.85,10.92H2.46c-0.55,0-1-0.45-1-1v-4.9c0-0.55,0.45-1,1-1h10.38c0.55,0,1,0.45,1,1v4.9
			C13.85,10.48,13.4,10.92,12.85,10.92z"/>
	</g>
</g>
<g>
	<path fill="#FFFFFF" d="M4.88,10.39c-0.53,0-1.02-0.12-1.45-0.37l-0.2-0.11V8.41l0.6,0.43c0.31,0.22,0.64,0.33,1.01,0.33
		c0.62,0,0.67-0.24,0.67-0.5c0-0.14-0.04-0.25-0.12-0.34C5.32,8.25,5.15,8.13,4.8,8.01C3.44,7.55,3.16,6.77,3.16,6.19
		c0-0.49,0.17-0.88,0.49-1.16c0.31-0.27,0.73-0.41,1.26-0.41c0.54,0,1.04,0.11,1.51,0.31l0.23,0.1v1.4L6.08,6.12
		c-0.37-0.2-0.75-0.31-1.13-0.31c-0.18,0-0.32,0.04-0.41,0.11C4.51,5.95,4.45,6,4.45,6.19c0,0.1,0,0.38,0.61,0.58
		c0.62,0.2,1.05,0.44,1.32,0.73C6.67,7.8,6.81,8.2,6.81,8.67c0,0.55-0.18,0.98-0.53,1.28C5.95,10.24,5.48,10.39,4.88,10.39z"/>
	<path fill="#FFFFFF" d="M10.76,10.32L10.29,8.9H8.88l-0.47,1.42H7.04l1.98-5.64h1.14l1.98,5.64H10.76z M9.9,7.7L9.59,6.75L9.28,7.7
		H9.9z"/>
</g>
</svg>
