<?xml version="1.0" encoding="utf-8"?>
<!-- Generator: Adobe Illustrator 20.0.0, SVG Export Plug-In . SVG Version: 6.00 Build 0)  -->
<svg version="1.1" id="seven_x5F_eleven" xmlns="http://www.w3.org/2000/svg" xmlns:xlink="http://www.w3.org/1999/xlink" x="0px"
	 y="0px" viewBox="0 0 15 15" enable-background="new 0 0 15 15" xml:space="preserve">
<circle fill="#009C45" cx="7.5" cy="7.5" r="7.5"/>
<path fill="#FFFFFF" d="M12.4,2.2H2.7c-0.3,0-0.5,0.2-0.5,0.5l1.1,10.2c0,0.2,0.2,0.4,0.4,0.4h2.1v0.5h3.5v-0.5h2.1
	c0.2,0,0.4-0.2,0.4-0.4l1.1-10.2C12.9,2.5,12.6,2.2,12.4,2.2z"/>
<path fill="#F18200" d="M7.5,6.1H4V3.8h6.2C10.3,3.8,8.5,4.7,7.5,6.1z"/>
<path fill="#E70012" d="M11.2,3.8c0,0-3.4,1.1-4.4,4.4c2.6,0,2.6,0,2.6,0s0.2-1,1.8-1.9C11.2,3.8,11.2,3.8,11.2,3.8z"/>
<path fill="#E70012" d="M6.2,10.6c0,0-0.3,2.1-0.1,2.9c1,0,2.9,0,2.9,0v-2.9H6.2z"/>
<polygon fill="#019B43" points="4.8,8.9 4.8,8.5 3.8,8.5 3.8,10.2 4.8,10.2 4.8,9.9 4.4,9.9 4.4,9.5 4.8,9.5 4.8,9.2 4.4,9.2 
	4.4,8.9 "/>
<polygon fill="#019B43" points="5,8.5 5,10.2 6,10.2 6,9.9 5.6,9.9 5.6,8.5 "/>
<polygon fill="#019B43" points="7.1,8.9 7.1,8.5 6.1,8.5 6.1,10.2 7.1,10.2 7.1,9.9 6.7,9.9 6.7,9.5 7.1,9.5 7.1,9.2 6.7,9.2 
	6.7,8.9 "/>
<polygon fill="#019B43" points="9.7,8.9 9.7,8.5 8.8,8.5 8.8,10.2 9.7,10.2 9.7,9.9 9.4,9.9 9.4,9.5 9.7,9.5 9.7,9.2 9.4,9.2 
	9.4,8.9 "/>
<polygon fill="#019B43" points="7.3,8.5 7.5,10.2 8.3,10.2 8.6,8.5 8.2,8.5 8,9.6 7.8,8.5 "/>
<rect x="10" y="8.5" fill="#019B43" width="0.6" height="1.7"/>
<path fill="#019B43" d="M10.3,8.6h0.4c0,0,0.1-0.2,0.4-0.2c0.2,0,0.3,0.1,0.3,0.4c0,0.3,0,1.3,0,1.3h-0.6V9c0,0,0-0.2-0.4,0
	C10,9.1,10.3,8.6,10.3,8.6z"/>
</svg>
