<?xml version="1.0" encoding="utf-8"?>
<!-- Generator: Adobe Illustrator 20.1.0, SVG Export Plug-In . SVG Version: 6.00 Build 0)  -->
<svg version="1.1" id="レイヤー_1" xmlns="http://www.w3.org/2000/svg" xmlns:xlink="http://www.w3.org/1999/xlink" x="0px"
	 y="0px" viewBox="0 0 15 15" enable-background="new 0 0 15 15" xml:space="preserve">
<g>
	<path fill="#2f2f2f" d="M14.1,8.4l0.9-1l-0.9,0.3l-1.9-1.1v-1h0.9l0.9-1.1l-0.9,0.3L11.2,2h1.2V0h-1.2v0.8l0.4-0.4v0.7H10V2H5V1.1H3.3V0.4l0.4,0.4
		V0H2.5v2h1.2L1.9,4.8l0,0L0.9,4.5l0.9,1v0h0.9v1L0.9,7.6L0,7.3l0.9,1v0h0.9v1.9L0.9,15h13.1l-0.9-4.7h0V8.4L14.1,8.4L14.1,8.4z
		 M3.8,5.6h7.5v1H3.8V5.6z M12.2,10.2H2.8V8.4h9.4V10.2z"/>
	<rect fill="#2f2f2f" x="3.8" y="8.7" width="1.2" height="1.2"/>
	<rect fill="#2f2f2f" x="10" y="8.7" width="1.2" height="1.2"/>
</g>
</svg>
