<?xml version="1.0" encoding="utf-8"?>
<!-- Generator: Adobe Illustrator 20.0.0, SVG Export Plug-In . SVG Version: 6.00 Build 0)  -->
<svg version="1.1" id="shiro_x5F_tensyukaku" xmlns="http://www.w3.org/2000/svg" xmlns:xlink="http://www.w3.org/1999/xlink"
	 x="0px" y="0px" viewBox="0 0 15 15" enable-background="new 0 0 15 15" xml:space="preserve">
<path d="M11.4,8.8h2.1l-2.3-2.6V4.7h1.9l-2.2-1.8h0V1.9h0c0-0.4,0-1.3-0.7-1.3c0.1,0.6,0.1,1,0,1.3H4.9c-0.1-0.3-0.1-0.7,0-1.3
	C4.2,0.6,4.2,1.6,4.2,1.9h0v0.9h0L2.1,4.7H4v1.5H3.9L1.5,8.8h2.1v0.9l-1.2,3.2h10.2l-1.3-3.4V8.8z M7.6,5.2l2,2.4h-4L7.6,5.2z
	 M5.2,5.5V5h1.6L6.4,5.5H5.2z M8.7,5.5L8.3,5h1.6v0.5H8.7z M10.2,9.4H4.8V8.8h5.3V9.4z"/>
</svg>
