<?xml version="1.0" encoding="utf-8"?>
<!-- Generator: Adobe Illustrator 20.1.0, SVG Export Plug-In . SVG Version: 6.00 Build 0)  -->
<svg version="1.1" id="shiyakusyo" xmlns="http://www.w3.org/2000/svg" xmlns:xlink="http://www.w3.org/1999/xlink" x="0px" y="0px"
	 viewBox="0 0 15 15" enable-background="new 0 0 15 15" xml:space="preserve">
<circle fill="#FF0047" cx="7.5" cy="7.5" r="7.1"/>
<path d="M7.5,0.7c1.8,0,3.5,0.7,4.8,2s2,3,2,4.8c0,1.8-0.7,3.5-2,4.8c-1.3,1.3-3,2-4.8,2s-3.5-0.7-4.8-2c-1.3-1.3-2-3-2-4.8
	c0-1.8,0.7-3.5,2-4.8S5.7,0.7,7.5,0.7 M7.5,0C3.4,0,0,3.4,0,7.5S3.4,15,7.5,15S15,11.6,15,7.5S11.6,0,7.5,0L7.5,0z"/>
<path d="M7.5,3.1c1.2,0,2.3,0.5,3.1,1.3c0.8,0.8,1.3,1.9,1.3,3.1s-0.5,2.3-1.3,3.1c-0.8,0.8-1.9,1.3-3.1,1.3s-2.3-0.5-3.1-1.3
	C3.5,9.8,3.1,8.7,3.1,7.5s0.5-2.3,1.3-3.1C5.2,3.5,6.3,3.1,7.5,3.1 M7.5,2.7c-2.6,0-4.8,2.1-4.8,4.8s2.1,4.8,4.8,4.8
	s4.8-2.1,4.8-4.8S10.1,2.7,7.5,2.7L7.5,2.7z"/>
</svg>
