<?xml version="1.0" encoding="utf-8"?>
<!-- Generator: Adobe Illustrator 20.1.0, SVG Export Plug-In . SVG Version: 6.00 Build 0)  -->
<svg version="1.1" id="レイヤー_1" xmlns="http://www.w3.org/2000/svg" xmlns:xlink="http://www.w3.org/1999/xlink" x="0px"
	 y="0px" viewBox="0 0 15 15" enable-background="new 0 0 15 15" xml:space="preserve">
<path fill="#2f2f2f" d="M14.7,10.6l-0.3-0.7l-5,1.8L7.2,8.5L9,6.7C9,6.6,9.1,6.5,9.1,6.4c0,0,0,0,0,0c0-0.1,0.1-0.2,0.1-0.3c0,0,0-0.1,0-0.1
	c0-0.2-0.1-0.4-0.3-0.6L8.8,5.2h2.7v0.6H12V5.2h1.1V4.8H12V4.3h-0.4v0.6H8.5l-1-1l-2-2C5.2,1.9,4.9,2,4.7,2.2c0,0-0.1,0.1-0.1,0.1
	c0,0-0.3,0.4-0.3,0.6c0,0.1-0.5,2-0.5,2l-1.9,0c-0.1,0-0.2,0.1-0.2,0.1v0c-0.1,0-0.2,0.2-0.2,0.2C1.4,5.2,1.4,5.3,1.4,5.4
	c0,0,0,0,0,0l0,0c0,0.3,0.2,0.5,0.5,0.5c0,0,2,0.1,2,0.1s0.5,0,0.6,0c0.1,0,0.1-0.1,0.2-0.1c0,0,0.1,0,0.1-0.1c0,0,0.1-0.1,0.1-0.1
	c0,0,0-0.1,0.1-0.1c0,0,0.1-0.1,0.1-0.1L5,5.3v0l1.3,1l0,0L5,8C5,8,5,8,4.9,8.1C4.9,8.2,4.8,8.3,4.8,8.5c0,0,0,0.1,0,0.1
	c0,0.3,0.1,0.6,0.3,0.8L8,12.1l-5.8,2.1l0,0c0,0,0,0-0.1,0c0,0,0,0,0,0c0,0,0,0,0,0c-0.3,0-0.6-0.2-0.9-0.5l-0.1,0l-0.6,0.2
	c0.1,0.2,0.3,0.4,0.5,0.6C1.3,14.9,1.7,15,2,15c0,0,0.1,0,0.1,0c0.1,0,0.3,0,0.4-0.1L14.7,10.6z"/>
<circle fill="#2f2f2f" cx="3.9" cy="1.1" r="1.1"/>
</svg>
