<?xml version="1.0" encoding="utf-8"?>
<!-- Generator: Adobe Illustrator 20.0.0, SVG Export Plug-In . SVG Version: 6.00 Build 0)  -->
<svg version="1.1" id="skii_x5F_jou" xmlns="http://www.w3.org/2000/svg" xmlns:xlink="http://www.w3.org/1999/xlink" x="0px"
	 y="0px" viewBox="0 0 15 15" enable-background="new 0 0 15 15" xml:space="preserve">
<circle cx="5.8" cy="2.6" r="1.4"/>
<path d="M13.3,11.2l-5,0.7c0,0,0-0.1,0-0.1l0.4-2.4l2.3-2.6c0.4-0.4-0.1-0.9-0.2-1L8,3.5c-0.1-0.1-0.4-0.4-0.8,0L3.9,6.4
	C3.7,6.5,3.6,6.9,3.8,7.1c0,0,0,0,0.1,0.1l1.3,4.1l-0.5,0.2l0.1,0.2l0.5-0.2L5.4,12l0.3-0.1l-0.2-0.5l0.5-0.2L6,10.9l-0.5,0.2
	L4.3,7.3c0.2,0.2,2.2-1.8,2.2-1.8l2.2,1.8c0,0-1.2,1.3-1.2,1.4C7.4,8.7,7.3,9.1,7.3,9.2l-0.4,2.4c0,0.2,0.1,0.5,0.2,0.6l-3.4,0.5
	c0,0-0.4,0-0.8-0.4c-0.1,0.8,0.8,0.9,0.8,0.9l9.7-1.4L13.3,11.2z"/>
</svg>
