<?xml version="1.0" encoding="utf-8"?>
<!-- Generator: Adobe Illustrator 20.0.0, SVG Export Plug-In . SVG Version: 6.00 Build 0)  -->
<svg version="1.1" id="soccer_x5F_stadium" xmlns="http://www.w3.org/2000/svg" xmlns:xlink="http://www.w3.org/1999/xlink" x="0px"
	 y="0px" viewBox="0 0 15 15" enable-background="new 0 0 15 15" xml:space="preserve">
<path d="M14.4,4.6c-0.4-0.9-0.9-1.7-1.6-2.4c-0.7-0.7-1.5-1.2-2.4-1.6C9.5,0.2,8.5,0,7.5,0s-2,0.2-2.9,0.6C3.7,1,2.9,1.5,2.2,2.2
	C1.5,2.9,1,3.7,0.6,4.6C0.2,5.5,0,6.5,0,7.5s0.2,2,0.6,2.9c0.4,0.9,0.9,1.7,1.6,2.4c0.7,0.7,1.5,1.2,2.4,1.6C5.5,14.8,6.5,15,7.5,15
	s2-0.2,2.9-0.6c0.9-0.4,1.7-0.9,2.4-1.6c0.7-0.7,1.2-1.5,1.6-2.4C14.8,9.5,15,8.5,15,7.5S14.8,5.5,14.4,4.6z M5.7,1.6l1.6,0.6v3.2
	L5.6,6.7l-3-1L2.5,4L5.7,1.6z M9.2,1.7l3.3,2.2l-0.1,1.8l-3.1,1L7.7,5.4V2.2L9.2,1.7z M2.5,6l3.1,1L6.2,9l-1.9,2.6l-1.7-0.5L1.4,7.4
	L2.5,6z M5.5,13.3l-0.9-1.4l1.9-2.6h2.2l1.8,2.6l-1,1.5L5.5,13.3z M12.3,11.2l-1.5,0.4L8.9,8.9L9.5,7l3.1-1l1,1.3L12.3,11.2z
	 M13.7,4l-0.5-0.1L9.4,1.3L8.9,0.5C10.9,0.9,12.7,2.2,13.7,4z M6.1,0.5L5.7,1.1l0,0L2.1,3.8L1.3,4C2.3,2.2,4.1,0.9,6.1,0.5z
	 M0.4,7.5c0-0.3,0-0.6,0-0.8l0.5,0.6l1.4,4.3l-0.1,0.8C1.1,11,0.4,9.4,0.4,7.5z M7.5,14.6c-1.1,0-2.1-0.2-3-0.7l0.9-0.3l0,0l4.4,0
	l0.7,0.3C9.6,14.4,8.6,14.6,7.5,14.6z M12.7,12.3l-0.1-1l1.4-4l0.5-0.6c0,0.3,0.1,0.6,0.1,0.9C14.6,9.3,13.9,11,12.7,12.3z"/>
</svg>
