<?xml version="1.0" encoding="utf-8"?>
<!-- Generator: Adobe Illustrator 20.1.0, SVG Export Plug-In . SVG Version: 6.00 Build 0)  -->
<svg version="1.1" id="レイヤー_1" xmlns="http://www.w3.org/2000/svg" xmlns:xlink="http://www.w3.org/1999/xlink" x="0px"
	 y="0px" viewBox="0 0 15 15" enable-background="new 0 0 15 15" xml:space="preserve">
<path fill="#2f2f2f" d="M14.1,11C14.2,11,14.2,10.9,14.1,11c0.1-0.1,0.1-0.1,0.1-0.2c0,0,0-0.1,0.1-0.1c0,0,0,0,0,0c0-0.1,0-0.1,0.1-0.2
	c0,0,0,0,0,0c0.2-0.6,0.4-1.1,0.5-1.7c0,0,0,0,0,0c0-0.1,0-0.1,0-0.2c0,0,0,0,0-0.1c0,0,0-0.1,0-0.1c0,0,0,0,0-0.1v0
	c0-0.3,0-0.5,0-0.8c0-0.2,0-0.4,0-0.6l0,0c0-0.4-0.1-0.8-0.2-1.2c0,0,0,0,0,0c0,0,0-0.1,0-0.1c0,0,0,0,0,0c0,0,0-0.1,0-0.1
	c0,0,0,0,0,0c-0.2-0.6-0.4-1.1-0.7-1.6c0,0,0,0,0,0c0,0,0,0,0,0l0,0c-0.5-0.8-1.1-1.4-1.8-2c0,0,0,0,0,0c-0.1,0-0.1-0.1-0.2-0.1
	c0,0,0,0,0,0c-0.1,0-0.1-0.1-0.2-0.1c0,0,0,0,0,0c0,0-0.1-0.1-0.1-0.1c0,0,0,0-0.1,0c0,0-0.1,0-0.1-0.1C11.2,1,11.2,1,11.1,1
	c0,0-0.1,0-0.1,0c0,0-0.1,0-0.1-0.1c0,0,0,0,0,0c0,0-0.1,0-0.1-0.1l0,0C9.8,0.3,8.7,0,7.5,0C5.9,0,4.3,0.5,3.1,1.4c0,0,0,0-0.1,0.1
	c0,0,0,0-0.1,0.1C2.8,1.6,2.7,1.7,2.6,1.8c0,0,0,0,0,0c0,0-0.1,0.1-0.1,0.1c-0.5,0.5-1,1-1.4,1.6l0,0c0,0,0,0,0,0
	c0,0-0.1,0.1-0.1,0.1c0,0,0,0,0,0C0.9,3.9,0.9,4,0.8,4.1c0,0,0,0,0,0c0,0.1-0.1,0.1-0.1,0.2c0,0,0,0,0,0C0.6,4.5,0.5,4.8,0.4,5v0
	c0,0.1,0,0.1-0.1,0.2c0,0,0,0,0,0.1c0,0,0,0.1,0,0.1c0,0,0,0.1,0,0.1c0,0,0,0,0,0.1C0.1,6,0.1,6.4,0,6.9l0,0c0,0.2,0,0.4,0,0.6
	c0,1.8,0.6,3.5,1.7,4.8h0c0.8,1,1.8,1.7,3,2.2l0,0c0.5,0.2,0.9,0.3,1.4,0.4h0c0.3,0.1,0.6,0.1,1,0.1c0,0,0,0,0,0c0,0,0.1,0,0.2,0
	c0,0,0,0,0,0c0.1,0,0.1,0,0.2,0c0.1,0,0.2,0,0.3,0c0,0,0,0,0.1,0c0.1,0,0.2,0,0.2,0c0,0,0.1,0,0.1,0c0,0,0,0,0.1,0
	c0.2,0,0.3,0,0.5-0.1h0c2.2-0.4,4-1.7,5.1-3.5v0c0.1-0.1,0.1-0.2,0.2-0.3C14.1,11.1,14.1,11.1,14.1,11C14.1,11,14.1,11,14.1,11z
	 M6.3,14l-1.4-2.5l1.3-1.8h2.8l1.2,1.8l-1.4,2.5C8.4,14,8,14.1,7.5,14.1C7.1,14.1,6.7,14,6.3,14z M4.7,1.6l2.5,1.2v2.1L5.1,6.5
	l-2-0.7L2.5,3.3C3.1,2.5,3.9,2,4.7,1.6z M12,5.7L9.9,6.4L7.8,4.9V2.7l2.2-1.2c1,0.4,1.9,1.1,2.6,1.9L12,5.7z M1,8.3l1.9-2.1L5,6.9
	l0.8,2.5l-1.3,1.8l-2.6-0.3l0,0C1.4,10.2,1.1,9.3,1,8.3L1,8.3z M13.1,10.9l-2.5,0.3L9.2,9.3L10,6.9l2.1-0.7l1.9,2
	C13.9,9.2,13.6,10.1,13.1,10.9z"/>
</svg>
