<?xml version="1.0" encoding="utf-8"?>
<!-- Generator: Adobe Illustrator 20.1.0, SVG Export Plug-In . SVG Version: 6.00 Build 0)  -->
<svg version="1.1" id="stadium" xmlns="http://www.w3.org/2000/svg" xmlns:xlink="http://www.w3.org/1999/xlink" x="0px" y="0px"
	 viewBox="0 0 15 15" enable-background="new 0 0 15 15" xml:space="preserve">
<rect x="2.7639" y="2.1795" width="9.403" height="2.1135"/>
<path d="M7.4654,5.213c-3.4386,0-6.1322,1.6802-6.1322,3.8247c0,1.7029,1.7013,3.109,4.1224,3.6174
	c0.0322,0.007,0.0634,0.0148,0.0961,0.0215c0.0699,0.0138,0.141,0.0257,0.212,0.038c0.1217,0.0217,0.2454,0.0413,0.3719,0.0583
	c0.0521,0.0069,0.1044,0.0135,0.1571,0.0196c0.0988,0.0115,0.2006,0.0195,0.302,0.028V11.982c-0.0004-0.2636-0.0005-0.5518,0-0.7899
	v-0.3433c-1.2786-0.2345-2.1266-0.6896-2.6938-1.2084c0.6539-0.5086,1.9319-0.9196,3.5645-0.9196
	c1.6327,0,2.9108,0.411,3.5646,0.9197c-0.5234,0.4787-1.3023,0.895-2.4215,1.142v2.0128c0.0097-0.0011,0.0199-0.0016,0.0295-0.0027
	c0.0527-0.0061,0.1049-0.0126,0.1571-0.0196c0.1264-0.017,0.25-0.0366,0.3716-0.0582c0.0711-0.0124,0.1425-0.0242,0.2125-0.0381
	c0.0322-0.0066,0.0631-0.0143,0.095-0.0213c2.4216-0.5082,4.1232-1.9145,4.1232-3.6176C13.5976,6.8932,10.904,5.213,7.4654,5.213z
	 M11.5798,9.0016C10.7276,8.321,9.2365,7.8867,7.4654,7.8867c-1.771,0-3.262,0.4343-4.1142,1.1148
	C3.0214,8.5048,2.878,8.0084,2.8216,7.6223c0.9105-0.9294,2.6719-1.5751,4.6439-1.5751c1.9721,0,3.7336,0.6458,4.6441,1.5753
	C12.0531,8.0085,11.9096,8.505,11.5798,9.0016z"/>
</svg>
