<?xml version="1.0" encoding="utf-8"?>
<!-- Generator: Adobe Illustrator 20.1.0, SVG Export Plug-In . SVG Version: 6.00 Build 0)  -->
<svg version="1.1" id="レイヤー_1" xmlns="http://www.w3.org/2000/svg" xmlns:xlink="http://www.w3.org/1999/xlink" x="0px"
	 y="0px" viewBox="0 0 15 15" enable-background="new 0 0 15 15" xml:space="preserve">
<rect fill="#2f2f2f" x="1.3" y="0.5" width="12.5" height="2.5"/>
<path fill="#2f2f2f" d="M7.5,4.4C4.1,4.4,1.2,5.6,0,7.4v4c0.9,1.3,2.6,2.3,4.8,2.8c0,0,0.1,0,0.1,0c0,0,0,0,0.1,0v-2.8c-1-0.3-1.7-0.8-2.3-1.3
	C3.6,9.6,5.3,9,7.5,9s3.9,0.5,4.7,1.2c-0.5,0.5-1.3,0.9-2.2,1.3v2.8c0,0,0,0,0,0c0,0,0.1,0,0.1,0c2.2-0.5,3.9-1.5,4.8-2.7V7.4
	C13.7,5.6,10.9,4.4,7.5,4.4z M13,9.4c-1.1-0.9-3.1-1.5-5.5-1.5C5.2,7.9,3.2,8.5,2,9.4C1.6,8.7,1.4,8.1,1.3,7.6
	c1.2-1.2,3.6-2.1,6.2-2.1c2.6,0,5,0.9,6.2,2.1C13.6,8.1,13.4,8.7,13,9.4z"/>
</svg>
