<?xml version="1.0" encoding="utf-8"?>
<!-- Generator: Adobe Illustrator 20.0.0, SVG Export Plug-In . SVG Version: 6.00 Build 0)  -->
<svg version="1.1" id="suizokukan" xmlns="http://www.w3.org/2000/svg" xmlns:xlink="http://www.w3.org/1999/xlink" x="0px" y="0px"
	 viewBox="0 0 15 15" enable-background="new 0 0 15 15" xml:space="preserve">
<path d="M11.5,6.4L11,6.7c0,0-0.1-0.1-0.1-0.1c-0.5-0.9-1.5-1.5-2.7-1.9C8.4,3.6,9.4,2,10.8,0.5C9,0.9,5.4,3.2,4,5
	C3.3,5.3,2.7,5.7,2.2,6.2C1.5,6.6,0.9,7.1,0.5,7.7c0.6,0.8,1.2,1.4,2.1,1.8c0.6,0.5,1.4,0.9,2.3,1.1c1.3,1.6,3.4,2.4,4.8,2.7
	c-1-1.2-1.2-1.6-1.4-2.8c1.3-0.4,2.2-1.1,2.6-2L11.5,9l2.2,1.3l0-2.6l0-2.6L11.5,6.4z M3,8.7C2.4,8.7,2,8.2,2,7.7S2.4,6.8,3,6.8
	c0.5,0,0.9,0.4,0.9,0.9S3.5,8.7,3,8.7z"/>
</svg>
