<?xml version="1.0" encoding="utf-8"?>
<!-- Generator: Adobe Illustrator 20.1.0, SVG Export Plug-In . SVG Version: 6.00 Build 0)  -->
<svg version="1.1" id="レイヤー_1" xmlns="http://www.w3.org/2000/svg" xmlns:xlink="http://www.w3.org/1999/xlink" x="0px"
	 y="0px" viewBox="0 0 15 15" enable-background="new 0 0 15 15" xml:space="preserve">
<g>
	<path fill="#2f2f2f" d="M11.7,7.1c-0.5-1-1.7-1.7-3.1-2.1c0.2-1.3,1.5-3.1,3-4.8c-2,0.4-6,3-7.7,5.1C3.2,5.6,2.5,6,2,6.6C1.2,7.1,0.5,7.7,0,8.4
		c0.7,1,1.4,1.6,2.3,2.1c0.6,0.6,1.5,1,2.6,1.3c1.5,1.8,3.9,2.7,5.5,3.1c-1.2-1.3-1.3-1.8-1.6-3.1c1.4-0.4,2.5-1.2,3-2.2l3.2,1.8
		l0-5.8C15,5.4,11.8,7.1,11.7,7.1z M2.8,9.4c-0.6,0-1.1-0.5-1.1-1.1s0.5-1.1,1.1-1.1c0.6,0,1.1,0.5,1.1,1.1C3.9,8.9,3.4,9.4,2.8,9.4
		z"/>
	<circle fill="#2f2f2f" cx="0.9" cy="1" r="0.9"/>
	<circle fill="#2f2f2f" cx="1.8" cy="3.1" r="0.6"/>
	<circle fill="#2f2f2f" cx="0.7" cy="5.3" r="0.3"/>
</g>
</svg>
