<?xml version="1.0" encoding="utf-8"?>
<!-- Generator: Adobe Illustrator 20.1.0, SVG Export Plug-In . SVG Version: 6.00 Build 0)  -->
<svg version="1.1" id="レイヤー_1" xmlns="http://www.w3.org/2000/svg" xmlns:xlink="http://www.w3.org/1999/xlink" x="0px"
	 y="0px" viewBox="0 0 15 15" enable-background="new 0 0 15 15" xml:space="preserve">
<path fill="#2f2f2f" d="M8.7,13.8c0,0-0.3,0.3-0.6,0.5v-5c0.2,0,0.4,0,0.6,0c2.2-0.3,4.1-1.3,4.5-3c0.1-0.2,0.1-1.3,0.1-1.7c0-0.4,0-1.2,0-1.2v-3
	l-3.3,3L7.5,0.5L5,3.4l-3.3-3v2.9c0,0,0,0.9,0,1.2c0,0.4,0,1.5,0.1,1.7c0.4,1.6,2.2,2.7,4.5,3c0.2,0,0.4,0,0.6,0v5
	c-0.3-0.2-0.6-0.5-0.6-0.5C3.8,9.9,1.6,9.3,0,9.7c1.1,4.7,4.9,5,6.3,4.9h2.5c1.3,0.1,5.1-0.2,6.3-4.9C13.4,9.3,11.2,9.9,8.7,13.8z"
	/>
</svg>
