<?xml version="1.0" encoding="utf-8"?>
<!-- Generator: Adobe Illustrator 20.1.0, SVG Export Plug-In . SVG Version: 6.00 Build 0)  -->
<svg version="1.1" id="syokubutsuen" xmlns="http://www.w3.org/2000/svg" xmlns:xlink="http://www.w3.org/1999/xlink" x="0px"
	 y="0px" viewBox="0 0 15 15" enable-background="new 0 0 15 15" xml:space="preserve">
<path d="M8.2231,12.5232V9.1219c2.0787-0.1951,3.695-1.2268,3.9223-2.5208l0.0504-0.3063V5.3666V4.3735V1.9973L9.5968,4.3735
	L7.5177,2.1087l-2.042,2.2648l-2.636-2.3762v2.3762v0.9931v0.9281L2.89,6.6011c0.2163,1.2317,1.6915,2.2272,3.6253,2.489v3.6411
	C4.5536,9.6541,2.793,9.1297,1.4946,9.4359c0.8985,3.8089,3.9484,4.0057,5.0206,3.9529v0.0066h1.7079v-0.0031
	c1.173,0.0271,4.0189-0.2962,4.8822-3.9564C11.8376,9.1369,10.1289,9.6359,8.2231,12.5232z"/>
</svg>
