<?xml version="1.0" encoding="utf-8"?>
<!-- Generator: Adobe Illustrator 20.0.0, SVG Export Plug-In . SVG Version: 6.00 Build 0)  -->
<svg version="1.1" id="tembou_x5F_tower" xmlns="http://www.w3.org/2000/svg" xmlns:xlink="http://www.w3.org/1999/xlink" x="0px"
	 y="0px" viewBox="0 0 15 15" enable-background="new 0 0 15 15" xml:space="preserve">
<path d="M8.5,7.2L8.5,7.2c0,0,1.9-2.3,2-2.4c0-0.5-1.4-0.9-2.6-1V0.8H7.2v3.1C6,4,4.7,4.3,4.6,4.8l1.9,2.4h0
	c-1.2,2.6-3.3,5.6-3.3,5.6h1.9c0-0.9,0.4-1.6,0.8-1.6s0.8,0.7,0.8,1.6h1.5c0-0.9,0.4-1.6,0.8-1.6s0.8,0.7,0.8,1.6h1.9
	C11.7,12.8,9.7,9.8,8.5,7.2z M8.1,6.8c0,0-0.9-0.1-1.2,0c-0.4-0.5-1-1.3-1-1.3s1.5-0.6,3.1,0C8.2,6.6,8.1,6.8,8.1,6.8z"/>
</svg>
