<?xml version="1.0" encoding="utf-8"?>
<!-- Generator: Adobe Illustrator 20.1.0, SVG Export Plug-In . SVG Version: 6.00 Build 0)  -->
<svg version="1.1" id="レイヤー_1" xmlns="http://www.w3.org/2000/svg" xmlns:xlink="http://www.w3.org/1999/xlink" x="0px"
	 y="0px" viewBox="0 0 15 15" enable-background="new 0 0 15 15" xml:space="preserve">
<path fill="#2f2f2f" d="M8.6,7.7L8.6,7.7c0.5-0.5,2-2.1,2-2.1c0-0.4-1.5-0.8-2.8-0.9V0H6.9v4.7C5.6,4.8,4.2,5.1,4.1,5.5l2,2.2v0
	c0.1,1.6-0.9,3.4-1.9,4.9C4.1,12.7,4,12.9,3.9,13c-0.9,1.2-1.7,2-1.7,2h2.2l0,0h0c0,0,0.6-1,1.1-1.8C5.9,14,6.5,15,6.5,15h1.7l0,0h0
	c0,0,0.6-1.1,1.1-1.8c0.5,0.8,0.8,1.4,1,1.6v0c0,0,0.1,0.2,0.1,0.2h2.2C12.5,15,8.3,10.7,8.6,7.7z M9.1,6.1c-0.6,0.7-0.9,1-1,1.1
	H6.6c-0.5-0.5-1-1.1-1-1.1S7.2,5.6,9.1,6.1z"/>
</svg>
