<?xml version="1.0" encoding="utf-8"?>
<!-- Generator: Adobe Illustrator 23.0.6, SVG Export Plug-In . SVG Version: 6.00 Build 0)  -->
<svg version="1.1" id="レイヤー_1" xmlns="http://www.w3.org/2000/svg" xmlns:xlink="http://www.w3.org/1999/xlink" x="0px"
	 y="0px" viewBox="0 0 16 16" enable-background="new 0 0 16 16" xml:space="preserve">
<rect y="-11" display="none" fill="#A37878" width="11" height="11"/>
<g>
	<path fill="#FFFFFF" d="M14,16H2c-1.105,0-2-0.895-2-2V2c0-1.105,0.895-2,2-2h12c1.105,0,2,0.895,2,2v12C16,15.105,15.105,16,14,16
		z"/>
	<g display="none">
		<path display="inline" fill="#D82323" d="M11.636,4.073c0.723,0,1.309-0.586,1.309-1.309c0-0.723-0.586-1.309-1.309-1.309
			c-0.723,0-1.309,0.586-1.309,1.309C10.327,3.487,10.913,4.073,11.636,4.073z M12.916,5.624c-0.177-0.537-0.677-0.897-1.24-0.897
			H11.6c-0.563,0-1.064,0.36-1.24,0.897l-1.669,4.994h1.964v3.927h1.964v-3.927h1.964L12.916,5.624z"/>
		<path display="inline" fill="#2C2CB5" d="M4.364,4.073c0.723,0,1.309-0.586,1.309-1.309c0-0.723-0.586-1.309-1.309-1.309
			S3.055,2.04,3.055,2.764C3.055,3.487,3.64,4.073,4.364,4.073z M5.345,4.727H3.382c-0.72,0-1.309,0.589-1.309,1.309v3.6h0.982
			v4.909h2.618V9.636h0.982v-3.6C6.655,5.316,6.065,4.727,5.345,4.727z"/>
	</g>
	<g>
		<path fill="#2C2CB5" d="M11.534,1.85c-1.12,0-2.03,0.911-2.03,2.03s0.911,2.03,2.03,2.03s2.03-0.911,2.03-2.03
			S12.653,1.85,11.534,1.85z M14.478,7.036c-0.073-0.108-0.194-0.172-0.324-0.172H8.913c-0.13,0-0.251,0.065-0.324,0.172
			C8.516,7.144,8.502,7.281,8.55,7.401l2.62,6.504c0.06,0.148,0.203,0.245,0.363,0.245c0.16,0,0.303-0.097,0.363-0.245l2.62-6.504
			C14.565,7.281,14.551,7.144,14.478,7.036z"/>
		<path fill="#D82323" d="M4.466,1.85c-1.12,0-2.03,0.911-2.03,2.03s0.911,2.03,2.03,2.03S6.497,5,6.497,3.88
			C6.497,2.761,5.586,1.85,4.466,1.85z M7.45,13.613l-2.62-6.504C4.77,6.961,4.626,6.864,4.466,6.864
			c-0.16,0-0.303,0.097-0.363,0.245l-2.62,6.504c-0.049,0.121-0.034,0.257,0.039,0.365c0.073,0.108,0.194,0.172,0.324,0.172h5.241
			c0.13,0,0.251-0.065,0.324-0.172C7.484,13.87,7.498,13.733,7.45,13.613z"/>
	</g>
	<g display="none">
		<path display="inline" fill="#2C2CB5" d="M5.204,4.228c-1.404,0-1.423,0-2.592,0c-0.626,0-1.137,0.509-1.14,1.134L1.455,8.902
			C1.453,9.168,1.668,9.385,1.934,9.386c0.001,0,0.002,0,0.003,0c0.265,0,0.48-0.214,0.482-0.479l0.018-3.539c0,0,0-0.001,0-0.001
			c0.001-0.053,0.044-0.095,0.096-0.094c0.053,0,0.095,0.043,0.095,0.096l0,8.099c0,0.319,0.259,0.578,0.578,0.578
			s0.578-0.259,0.578-0.578V8.845h0.25v4.621c0,0.319,0.259,0.578,0.578,0.578s0.578-0.259,0.578-0.578
			c0-7.642-0.01-3.272-0.01-8.092c0-0.054,0.043-0.099,0.097-0.101c0.054-0.002,0.1,0.039,0.105,0.093c0,0,0,0,0,0L5.377,8.904
			c0,0.266,0.215,0.482,0.481,0.482c0,0,0,0,0,0c0.266,0,0.482-0.215,0.482-0.481l0.003-3.539c0-0.001,0-0.002,0-0.003
			C6.341,4.737,5.829,4.228,5.204,4.228z M3.908,1.721c0.657,0,1.19,0.533,1.19,1.19s-0.533,1.19-1.19,1.19s-1.19-0.533-1.19-1.19
			S3.251,1.721,3.908,1.721z"/>
		<path display="inline" fill="#D82323" d="M14.518,8.198c-0.009-0.025-0.885-2.524-1.023-2.925C13.274,4.628,12.902,4.3,12.39,4.3
			c-0.717,0-0.951,0-1.666,0c-0.512,0-0.884,0.327-1.106,0.973c-0.138,0.401-1.014,2.9-1.023,2.925
			c-0.087,0.249,0.044,0.522,0.293,0.61c0.249,0.087,0.522-0.044,0.61-0.293c0.028-0.081,0.555-1.545,0.849-2.388
			c-0.031,0.252,0.058-0.27-0.684,3.558c-0.032,0.164,0.095,0.317,0.261,0.317c0.103,0,0.227,0,0.365,0v3.469
			c0,0.317,0.257,0.574,0.574,0.574c0.317,0,0.574-0.257,0.574-0.574v-3.469c0.083,0,0.165,0,0.248,0v3.469
			c0,0.317,0.257,0.574,0.574,0.574s0.574-0.257,0.574-0.574v-3.469c0.138,0,0.262,0,0.365,0c0.167,0,0.293-0.152,0.261-0.317
			c-0.735-3.794-0.654-3.353-0.679-3.558c0.296,0.849,0.808,2.308,0.836,2.388c0.087,0.249,0.361,0.38,0.61,0.293
			C14.475,8.721,14.606,8.448,14.518,8.198z M11.561,1.794c0.657,0,1.19,0.533,1.19,1.19s-0.533,1.19-1.19,1.19
			c-0.657,0-1.19-0.533-1.19-1.19S10.904,1.794,11.561,1.794z"/>
		<path display="inline" d="M7.585,2.556c-0.204,0-0.369,0.165-0.369,0.369v10.107c0,0.204,0.165,0.369,0.369,0.369
			c0.204,0,0.369-0.165,0.369-0.369V2.925C7.954,2.722,7.789,2.556,7.585,2.556z"/>
	</g>
</g>
</svg>
