<?xml version="1.0" encoding="utf-8"?>
<!-- Generator: Adobe Illustrator 20.1.0, SVG Export Plug-In . SVG Version: 6.00 Build 0)  -->
<svg version="1.1" id="tosyokan" xmlns="http://www.w3.org/2000/svg" xmlns:xlink="http://www.w3.org/1999/xlink" x="0px" y="0px"
	 viewBox="0 0 15 15" enable-background="new 0 0 15 15" xml:space="preserve">
<path d="M13.1792,3.6028C12.4028,2.9762,11.4182,2.65,10.2526,2.65h-0.0053c-1.0433,0-1.9355,0.2681-2.7199,0.8043
	C6.7838,2.9234,5.8606,2.65,4.7777,2.65H4.7723c-1.1505,0-2.1139,0.3142-2.9452,0.952L1.7,3.6897v7.8458l0.5153-0.3721
	c1.4858-1.0728,3.5119-1.1049,4.9847-0.096c0.0441,0.0302,0.0878,0.0611,0.1309,0.0932l0.1903,0.1417l0.1929-0.1381
	C7.759,11.1322,7.8043,11.1013,7.85,11.071c1.5225-1.0076,3.4842-0.9777,4.932,0.0905l0.518,0.3822v-7.849L13.1792,3.6028z
	 M2.35,10.3105V4.0141c0.686-0.4853,1.481-0.7256,2.425-0.7338C5.7443,3.2887,6.5592,3.5337,7.2,4.0089v6.2945
	C5.7193,9.4771,3.8612,9.4793,2.35,10.3105z M12.65,10.3045c-1.4789-0.8262-3.29-0.8239-4.8,0.0073V4.015
	c0.6856-0.4806,1.4725-0.7185,2.4-0.7265c0.9531,0.0082,1.7595,0.2507,2.4,0.7213V10.3045z"/>
</svg>
