<?xml version="1.0" encoding="utf-8"?>
<!-- Generator: Adobe Illustrator 20.1.0, SVG Export Plug-In . SVG Version: 6.00 Build 0)  -->
<svg version="1.1" id="toukitsuukoudome" xmlns="http://www.w3.org/2000/svg" xmlns:xlink="http://www.w3.org/1999/xlink" x="0px"
	 y="0px" viewBox="0 0 15 15" enable-background="new 0 0 15 15" xml:space="preserve">
<g>
	<path d="M7.5,0.9309c-1.7487,0-3.1708,1.4227-3.1708,3.1712c0,0.8916,0.3725,1.6953,0.9668,2.2718
		c0.2335,0.2266,0.5055,0.4097,0.7996,0.5564C6.5208,7.1424,6.9933,7.2729,7.5,7.2729s0.9792-0.1305,1.4044-0.3426
		c0.294-0.1467,0.5661-0.3298,0.7996-0.5563c0.5944-0.5766,0.9672-1.3802,0.9672-2.2719C10.6712,2.3535,9.2486,0.9309,7.5,0.9309z
		 M8.7947,6.1216C8.4203,6.3624,7.9775,6.5061,7.5,6.5061c-0.4774,0-0.9202-0.1438-1.2946-0.3846
		C5.54,5.6936,5.096,4.9506,5.096,4.1021c0-1.3258,1.0782-2.4046,2.404-2.4046c1.3263,0,2.4045,1.0787,2.4045,2.4046
		C9.9045,4.9506,9.4603,5.6937,8.7947,6.1216z"/>
	<g>
		<path d="M3.0618,10.0239c0-0.8855,0.5042-1.6676,1.2832-2.2527L3.7296,7.2871c-0.8746,0.7195-1.4345,1.6703-1.4345,2.7368
			c0,0.6295,0.2084,1.2154,0.544,1.7453l0.5841-0.4939C3.1992,10.8891,3.0618,10.4703,3.0618,10.0239z"/>
		<path d="M11.9382,10.0239c0,0.3628-0.1047,0.7034-0.2543,1.0291l0.6151,0.4837c0.2511-0.4684,0.406-0.9743,0.406-1.5128
			c0-1.0869-0.579-2.055-1.483-2.779l-0.5967,0.5045C11.4215,8.3365,11.9382,9.1272,11.9382,10.0239z"/>
		<path d="M7.5,13.3025c-0.9989,0-1.9025-0.2621-2.6429-0.6767l-0.613,0.5183c0.894,0.5669,2.0148,0.9251,3.2559,0.9251
			c1.3495,0,2.5589-0.4192,3.4835-1.077l-0.6194-0.487C9.5889,12.9946,8.5976,13.3025,7.5,13.3025z"/>
	</g>
	<polygon points="8.1224,9.0467 12.5299,5.3199 12.0731,4.7793 7.5546,8.6009 2.9031,4.9422 2.4657,5.4977 7.003,9.0674 
		2.5948,12.7936 3.0517,13.3335 7.5708,9.5126 12.2223,13.1713 12.6597,12.6158 	"/>
	<circle cx="6.6322" cy="4.1019" r="0.4671"/>
	<circle cx="8.3808" cy="4.1019" r="0.4671"/>
</g>
</svg>
