<?xml version="1.0" encoding="utf-8"?>
<!-- Generator: Adobe Illustrator 20.0.0, SVG Export Plug-In . SVG Version: 6.00 Build 0)  -->
<svg version="1.1" id="tyuusyajou" xmlns="http://www.w3.org/2000/svg" xmlns:xlink="http://www.w3.org/1999/xlink" x="0px" y="0px"
	 viewBox="0 0 15 15" enable-background="new 0 0 15 15" xml:space="preserve">
<path d="M7.5,0C3.4,0,0,3.4,0,7.5S3.4,15,7.5,15S15,11.6,15,7.5S11.6,0,7.5,0z M10.8,8C10,8.6,9,9,7.6,9C7,9,6.4,8.9,5.9,8.9v4.3
	H4.4V2.1l0.1,0c1.1-0.2,2.1-0.2,3.1-0.2c1.4,0,2.4,0.3,3.2,0.9c0.7,0.6,1.1,1.5,1.1,2.6C11.9,6.5,11.5,7.4,10.8,8z"/>
<path d="M7.5,3C7,3,6.4,3.1,5.9,3.2v4.5c0.5,0.1,1.1,0.1,1.6,0.1c1,0,1.7-0.2,2.2-0.6c0.5-0.4,0.7-1,0.7-1.8c0-0.8-0.2-1.3-0.7-1.7
	C9.2,3.2,8.5,3,7.5,3z"/>
</svg>
