<?xml version="1.0" encoding="utf-8"?>
<!-- Generator: Adobe Illustrator 20.1.0, SVG Export Plug-In . SVG Version: 6.00 Build 0)  -->
<svg version="1.1" id="レイヤー_1" xmlns="http://www.w3.org/2000/svg" xmlns:xlink="http://www.w3.org/1999/xlink" x="0px"
	 y="0px" viewBox="0 0 15 15" enable-background="new 0 0 15 15" xml:space="preserve">
<circle fill="#5A80BE" cx="7.5" cy="7.5" r="7.5"/>
<path fill="#FFFFFF" d="M11.7,4.2c-0.2-0.4-0.5-0.8-0.8-1.1c-0.4-0.3-0.8-0.5-1.3-0.7C9,2.4,8.4,2.3,7.7,2.3H4.7v10.5h2V9.4h1
	c0.7,0,1.3-0.1,1.9-0.3c0.5-0.2,1-0.4,1.3-0.8c0.4-0.3,0.6-0.7,0.8-1.2c0.2-0.5,0.3-1,0.3-1.5C12,5.1,11.9,4.6,11.7,4.2z M9.7,6.6
	C9.6,6.9,9.5,7.1,9.3,7.2C9.2,7.4,8.9,7.6,8.7,7.6C8.4,7.7,8.1,7.8,7.8,7.8H6.7V3.9h1c0.4,0,0.7,0,1,0.1c0.3,0.1,0.5,0.2,0.7,0.4
	C9.5,4.6,9.7,4.8,9.8,5c0.1,0.2,0.1,0.5,0.1,0.8C9.9,6.1,9.8,6.4,9.7,6.6z"/>
</svg>
