<?xml version="1.0" encoding="utf-8"?>
<!-- Generator: Adobe Illustrator 20.1.0, SVG Export Plug-In . SVG Version: 6.00 Build 0)  -->
<svg version="1.1" id="レイヤー_1" xmlns="http://www.w3.org/2000/svg" xmlns:xlink="http://www.w3.org/1999/xlink" x="0px"
	 y="0px" viewBox="0 0 15 15" enable-background="new 0 0 15 15" xml:space="preserve">
<g>
	<path fill="#2f2f2f" d="M13.7,2.7c-0.3,0-0.5,0.1-0.7,0.3c-0.6,0.7-1.4,1.1-2.3,1.1c-0.6,0-1.2-0.2-1.7-0.5c0,0,0,0,0,0c0,0-0.1,0-0.1-0.1
		C8.1,2.9,7.2,2.6,6.2,2.6c0,0,0,0-0.1,0c-1.4,0-2.7,0.6-3.6,1.7c0,0-0.1,0.1-0.1,0.1C2.3,4.5,2.3,4.7,2.3,4.9
		c0,0.5,0.4,0.9,0.9,0.9c0.3,0,0.5-0.1,0.7-0.3c0.6-0.7,1.4-1.1,2.3-1.1c0.2,0,0.5,0,0.7,0.1L6.3,5.2L5,7.8L4.7,8.3l0,0v0l0,0
		L4.6,8.4h0v0h0C4.4,8.8,4.1,9.1,3.7,9.3C3.6,9.3,3.4,9.4,3.3,9.4C3.1,9.5,2.9,9.5,2.7,9.5c-0.2,0-0.4,0-0.5-0.1c0,0,0,0,0,0
		c0,0,0,0,0,0c-0.1,0-0.1,0-0.1,0c-0.1,0-0.1,0-0.2-0.1c0,0,0,0,0,0c0,0-0.1,0-0.1,0c0,0,0,0,0,0c-0.1,0-0.2,0-0.3,0
		c-0.3,0-0.6,0.2-0.8,0.4c-0.1,0.2-0.2,0.4-0.2,0.6c0,0.4,0.3,0.8,0.6,0.9c0,0,0,0,0,0c0.5,0.2,1,0.3,1.6,0.3c0.3,0,0.6,0,0.9-0.1
		c0.8-0.2,1.4-0.5,2-1c0.1-0.1,0.3-0.3,0.4-0.4c1,0.3,1.9,0.9,2.6,1.5c0,0,0,0,0,0l1.4,2.9c0,0,0,0.1,0,0.1l0,0c0,0,0,0,0,0
		c0.1,0.1,0.1,0.2,0.2,0.3c0.1,0.1,0.1,0.1,0.2,0.1C10.7,15,10.8,15,11,15c0.5,0,0.9-0.4,1-0.8c0-0.1,0-0.1,0-0.2
		c0-0.2,0-0.3-0.1-0.4c0,0,0,0,0,0l-1.5-3l0,0l0,0c-0.2-0.2-0.4-0.5-0.7-0.7C9.6,9.8,9.4,9.7,9.3,9.6C8.9,9.2,8.4,9,7.9,8.7l1.7-3.1
		c0.3,0.1,0.7,0.1,1,0.1c0,0,0.1,0,0.1,0c1.4,0,2.7-0.6,3.6-1.7c0,0,0.1-0.1,0.1-0.1c0.1-0.1,0.2-0.3,0.2-0.5
		C14.5,3.1,14.2,2.7,13.7,2.7z"/>
	<circle fill="#2f2f2f" cx="9.2" cy="1.4" r="1.4"/>
</g>
</svg>
