<?xml version="1.0" encoding="utf-8"?>
<!-- Generator: Adobe Illustrator 20.0.0, SVG Export Plug-In . SVG Version: 6.00 Build 0)  -->
<svg version="1.1" id="undoushisetsu" xmlns="http://www.w3.org/2000/svg" xmlns:xlink="http://www.w3.org/1999/xlink" x="0px"
	 y="0px" viewBox="0 0 15 15" enable-background="new 0 0 15 15" xml:space="preserve">
<circle cx="7.5" cy="2.18" r="1.49"/>
<path d="M12.59,10.66c0-0.33-0.27-0.6-0.6-0.6H9.9L9.18,8.41C9.19,8.37,9.2,8.34,9.2,8.3V5.52h1.53l-0.08,1.3
	c-0.02,0.33,0.23,0.61,0.56,0.63c0.33,0.02,0.61-0.23,0.63-0.56l0.12-1.93c0-0.01,0-0.01,0-0.02c0-0.01,0-0.01,0-0.02
	c0-0.03-0.01-0.07-0.02-0.1c-0.01-0.04-0.01-0.08-0.02-0.11c-0.01-0.04-0.04-0.07-0.06-0.1c-0.02-0.03-0.04-0.07-0.06-0.09
	c-0.03-0.03-0.06-0.05-0.09-0.07c-0.03-0.02-0.06-0.05-0.1-0.06c-0.04-0.02-0.07-0.02-0.11-0.03c-0.03-0.01-0.06-0.02-0.1-0.03
	c-0.01,0-0.01,0-0.02,0c-0.01,0-0.01,0-0.02,0H8.37H7.26H6.29c-0.02,0-0.03,0.01-0.05,0.01c-0.1-0.01-0.2,0-0.29,0.05L4.83,4.92
	l-1.4-1.4c-0.23-0.23-0.61-0.23-0.84,0c-0.23,0.23-0.23,0.61,0,0.84L4.12,5.9c0,0.01,0,0.01,0,0.02c0.12,0.25,0.4,0.37,0.66,0.31
	C4.87,6.22,4.94,6.2,5.01,6.16l1.33-0.64h0.1v2.42H4.46c-0.33,0-0.6,0.27-0.6,0.6v2.98h-0.8c-0.33,0-0.6,0.27-0.6,0.6
	s0.27,0.6,0.6,0.6h1.39c0.33,0,0.6-0.27,0.6-0.6V9.13h2.21h0.93l0.69,1.59c0.05,0.11,0.13,0.19,0.22,0.25
	c0.11,0.17,0.28,0.29,0.5,0.29h1.76v0.86c0,0.33,0.27,0.6,0.6,0.6s0.6-0.27,0.6-0.6V10.8C12.57,10.75,12.59,10.71,12.59,10.66z"/>
</svg>
