<?xml version="1.0" encoding="utf-8"?>
<!-- Generator: Adobe Illustrator 20.0.0, SVG Export Plug-In . SVG Version: 6.00 Build 0)  -->
<svg version="1.1" id="volks" xmlns="http://www.w3.org/2000/svg" xmlns:xlink="http://www.w3.org/1999/xlink" x="0px" y="0px"
	 viewBox="0 0 15 15" enable-background="new 0 0 15 15" xml:space="preserve">
<path fill="#81282C" d="M14,10.4H1c-0.55,0-1-0.45-1-1V5.6c0-0.55,0.45-1,1-1h13c0.55,0,1,0.45,1,1v3.8C15,9.95,14.55,10.4,14,10.4z
	"/>
<g>
	<path fill="#FFFFFF" d="M1.69,6.27c-0.3-0.23-0.13-0.48,0.14-0.6c0.27-0.13,1.11-0.26,1.69,0c0.13,0.05,0.41,0.25,0.21,0.49
		C3.57,6.25,3.57,6.3,3.59,6.41c0.04,0.12,0.39,0.87,0.39,0.87s0.13,0.19,0.21,0c0.09-0.19,0.4-0.91,0.4-0.91s0.1-0.13-0.17-0.25
		c-0.2-0.29,0.02-0.41,0.1-0.44s0.27-0.21,1.11-0.1C5.8,5.62,6.05,5.63,6.05,5.93C6.06,6.04,5.94,6.21,5.8,6.22
		C5.66,6.23,5.6,6.23,5.52,6.38S4.19,9.25,4.19,9.25s-0.13,0.24-0.4,0.23C3.53,9.48,3.51,9.44,3.37,9.27
		C3.23,9.06,2.42,7.25,1.97,6.45C1.87,6.32,1.74,6.28,1.69,6.27z"/>
	<path fill="#FFFFFF" d="M7.25,8.53V7.42c0,0,0.01-0.1-0.16-0.16s-0.12-0.29,0-0.33c0.12-0.04,0.51-0.19,1.09-0.05
		C8.53,7,8.22,7.25,8.22,7.25S8.1,7.29,8.1,7.39s0,1.13,0,1.13s0,0.2,0.13,0.2s0.33,0.05,0.43-0.12c0.1-0.17,0.07-0.31,0.25-0.3
		c0.18,0.01,0.3,0.2,0.18,0.58c-0.05,0.12-0.15,0.32-0.3,0.33C8.66,9.21,8.64,9.17,8.47,9.17c-0.17,0-1.29,0.02-1.29,0.02
		S7.01,9.15,7.01,9C6.99,8.93,7.04,8.84,7.12,8.81C7.2,8.76,7.22,8.72,7.25,8.53z"/>
	<path fill="#FFFFFF" d="M9.11,8.18V7.44c0,0,0.02-0.14-0.09-0.21C8.91,7.13,8.79,6.9,9.16,6.81c0.33-0.02,0.74,0,0.74,0
		s0.24-0.02,0.23,0.2c0,0.05,0.03,0.13-0.11,0.21C10,7.24,9.97,7.25,9.96,7.34c0,0.07-0.01,0.19-0.01,0.19s0.03,0.11,0.1,0.02
		c0.07-0.09,0.25-0.33,0.25-0.33s-0.08-0.08-0.07-0.21c0.01-0.12,0.1-0.2,0.27-0.2s0.72,0,0.72,0s0.2-0.01,0.2,0.22
		c0,0.11-0.04,0.21-0.21,0.21c-0.17,0-0.17,0-0.17,0s-0.06-0.02-0.11,0.04s-0.3,0.31-0.3,0.31s-0.05,0.04-0.01,0.11
		c0.04,0.07,0.88,1.04,0.88,1.04s0.22,0.07,0.22,0.18c0,0.11,0.02,0.27-0.25,0.27s-0.79,0-0.79,0l-0.56-0.71c0,0-0.08-0.1-0.14,0
		c-0.01,0.06,0,0.28,0,0.28s0.17,0.05,0.18,0.15s0,0.25-0.23,0.26c-0.22,0.01-0.8,0-0.8,0S9.01,9.15,9.05,9.09s0.14-0.27,0.14-0.37
		C9.2,8.5,9.22,8.46,9.12,8.34C9.12,8.26,9.11,8.18,9.11,8.18z"/>
	<path fill="#FFFFFF" d="M13.26,7.57c0,0,0.24-0.2,0-0.55c-0.12-0.13-0.24-0.3-0.46-0.19c-0.15-0.02-0.69-0.15-0.98,0.06
		c-0.06,0.04-0.51,0.26-0.4,0.86c0.03,0.09,0.1,0.48,0.68,0.65c0.06,0.02,0.35,0.07,0.39,0.13c0.04,0.06,0.09,0.21-0.19,0.19
		c-0.27-0.02-0.4-0.15-0.47-0.27c-0.12-0.12-0.22-0.24-0.37-0.14c-0.15,0.1,0.02,0.39,0.12,0.42c0.08,0.05,0.16,0.07,0.18,0.16
		c0.02,0.09,0.01,0.21,0.01,0.21s0.02,0.07,0.11,0.08c0.1,0.01,0.47,0.1,0.82,0c0.17-0.03,0.57-0.14,0.73-0.54
		c0.04-0.17,0.16-0.46-0.18-0.82c-0.06-0.04-0.17-0.17-0.7-0.25c-0.08-0.03-0.23-0.09-0.22-0.18c0.01-0.08,0.21-0.21,0.41-0.05
		c0.03,0.03,0.2,0.15,0.22,0.17C12.96,7.54,13.05,7.65,13.26,7.57z"/>
	<path fill="#FFFFFF" d="M5.69,6.81C5.37,6.84,5.31,7.07,5.31,7.07L4.77,8.23c-0.03,0.06-0.04,0.16,0,0.23
		c0.38,0.69,0.9,0.76,1.04,0.76c1.32,0.08,1.38-1,1.4-1.25C7.09,6.72,6.01,6.77,5.69,6.81z M6.27,8.6C6.16,8.66,6.01,8.7,5.89,8.53
		c0,0-0.27-0.3-0.33-0.8c0-0.15,0-0.28,0.08-0.33c0.08-0.05,0.29-0.05,0.4,0.16c0.11,0.21,0.22,0.37,0.27,0.51
		C6.36,8.22,6.38,8.54,6.27,8.6z"/>
</g>
</svg>
