<?xml version="1.0" encoding="utf-8"?>
<!-- Generator: Adobe Illustrator 20.0.0, SVG Export Plug-In . SVG Version: 6.00 Build 0)  -->
<svg version="1.1" id="yoshinoya" xmlns="http://www.w3.org/2000/svg" xmlns:xlink="http://www.w3.org/1999/xlink" x="0px" y="0px"
	 viewBox="0 0 15 15" enable-background="new 0 0 15 15" xml:space="preserve">
<g>
	<defs>
		<circle id="SVGID_1_" cx="7.5" cy="7.5" r="7.5"/>
	</defs>
	<clipPath id="SVGID_2_">
		<use xlink:href="#SVGID_1_"  overflow="visible"/>
	</clipPath>
	<g clip-path="url(#SVGID_2_)">
		<circle cx="7.5" cy="7.5" r="7.5"/>
	</g>
	<rect x="-0.1" y="-0.22" clip-path="url(#SVGID_2_)" fill="#FF6600" width="15.18" height="15.4"/>
	<rect y="8.82" clip-path="url(#SVGID_2_)" fill="#FFFFFF" width="14.98" height="2.07"/>
	<path clip-path="url(#SVGID_2_)" d="M4.77,6.82c0,0-0.26-0.36-0.64-0.51C4.09,6.3,4.06,6.25,3.91,6.36
		c-0.04,0.04-0.1,0.08-0.1,0.08S3.08,6.4,2.9,6.42C2.71,6.43,2.35,6.47,2.35,6.47S2.29,6.47,2.24,6.42
		C2.16,6.37,2.11,6.33,2.05,6.35c0,0-0.21,0.05-0.54,0.47C1.49,6.86,1.45,6.93,1.47,7.05c0.01,0.03,0.03,0.06,0.09,0.08
		c0.02,0,0.07-0.02,0.12,0.19C1.75,7.49,1.8,7.68,1.8,7.68s0.05,0.33,0.28,0.34C2.3,8.03,2.4,8.03,2.57,7.9
		C2.6,7.88,2.61,7.82,2.67,7.81c0.06-0.01,0.72-0.04,0.83,0c0.03,0.01,0.16,0.03,0.23,0.11c0.02,0.02,0.23,0.11,0.34,0.11
		c0.11-0.01,0.38-0.04,0.39-0.3C4.42,7.6,4.39,7.54,4.44,7.47c0.04-0.09,0.1-0.28,0.1-0.28S4.52,7.16,4.61,7.14
		C4.68,7.11,4.89,7,4.77,6.82z M3.64,6.96c0,0-0.03,0.21-0.04,0.28C3.58,7.3,3.55,7.29,3.53,7.29c-0.12-0.03-0.76-0.01-0.88,0
		C2.52,7.3,2.55,7.24,2.55,7.24S2.53,7.03,2.52,6.97C2.49,6.91,2.59,6.92,2.59,6.92C2.77,6.86,3.33,6.88,3.5,6.89
		C3.67,6.91,3.64,6.96,3.64,6.96z"/>
	<path clip-path="url(#SVGID_2_)" d="M2.51,4.58c0,0-0.13-0.06-0.17-0.25c0-0.05-0.01-0.08,0.04-0.08c0.04,0,0.25,0,0.36-0.08
		c0.11-0.08,0.23-0.18,0.23-0.18s0.04-0.01,0.11,0C3.13,4,3.44,4.02,3.75,4.24C3.79,4.28,3.87,4.33,3.9,4.4
		c0.01,0.04,0.05,0.12-0.08,0.18c-0.04,0.01-0.08,0-0.09,0.05C3.72,4.67,3.69,4.8,3.77,4.8c0.08,0,0.34,0.02,0.35,0.03
		C4.15,4.8,4.26,4.71,4.26,4.71s0.07-0.08,0.16,0.01C4.47,4.76,4.68,4.9,4.77,5.25c0.01,0.07,0.04,0.21-0.14,0.31
		C4.56,5.57,4.46,5.61,4.25,5.49C4.21,5.46,4.2,5.44,4.12,5.44C4.03,5.42,3.71,5.4,3.71,5.4S3.63,5.39,3.64,5.48
		c0,0.03-0.04,0.16,0.04,0.17C3.77,5.66,4.33,5.7,4.42,5.74c0.07,0.01,0.23,0.04,0.36-0.05c0.04-0.06,0.04-0.06,0.04-0.06
		s0.01-0.06,0.06,0c0.03,0.04,0.1,0.05,0.16,0.34c0,0.09-0.02,0.3-0.21,0.34C4.76,6.32,4.67,6.33,4.39,6.28
		C4.35,6.27,3.95,6.16,3.41,6.15c-0.54,0-1.16,0.02-1.49,0.12C1.8,6.31,1.63,6.41,1.53,6.42s-0.34-0.1-0.36-0.33
		c0.01-0.21,0.01-0.21,0.14-0.38C1.36,5.67,1.39,5.6,1.45,5.69C1.48,5.72,1.56,5.8,1.8,5.78c0.24-0.04,0.78-0.09,0.78-0.09
		S2.64,5.7,2.63,5.6c0-0.09,0.03-0.22-0.08-0.18c-0.1,0.01-0.38,0.04-0.38,0.04s-0.08,0-0.13,0.04C2.01,5.54,1.83,5.69,1.58,5.48
		C1.51,5.33,1.47,5.26,1.55,5C1.6,4.92,1.71,4.81,1.71,4.81l0.04-0.03c0,0,0.01-0.03,0.04,0.01c0.04,0.02,0.07,0.08,0.23,0.08
		s0.5-0.05,0.5-0.05l0.07,0c0,0,0.04,0,0.04-0.07C2.61,4.68,2.64,4.62,2.51,4.58z"/>
	<path clip-path="url(#SVGID_2_)" d="M9.1,5c0.01-0.05,0.06,0,0.06,0S9.2,5,9.27,4.99c0.12,0,0.14-0.06,0.16-0.12
		c0.01-0.3-0.16-0.39-0.19-0.42c-0.07-0.04-0.24-0.34-0.3-0.43C8.87,3.94,8.82,4,8.79,4.01c-0.03,0.01-0.09,0.1-0.09,0.1L8.68,4.1
		c0,0-0.59,0.03-0.64,0.03c-0.05,0-0.06-0.01-0.06-0.01S7.92,4.08,7.89,4.06c-0.03-0.04-0.06,0-0.06,0S7.8,4.09,7.77,4.12
		C7.74,4.15,7.72,4.13,7.72,4.13S7.52,4.01,7.44,3.99c-0.11-0.05-0.15,0-0.15,0s-0.1,0.07-0.15,0.12C7.09,4.15,7.02,4.17,7.02,4.17
		s-0.35,0.02-0.4,0.02c-0.05,0-0.1-0.04-0.1-0.04S6.47,4.11,6.45,4.1C6.33,4,6.25,4.06,6.25,4.06S5.94,4.31,5.89,4.38
		c-0.05,0.05,0,0.2,0.04,0.27C5.97,4.71,5.96,4.8,5.96,4.8s0,0.97,0.01,1.17c0.01,0.2,0.25,0.14,0.34,0.11
		c0.04-0.05,0.12-0.07,0.12-0.07s0.11-0.03,0.17-0.04c0.07-0.01,0.04,0.02,0.04,0.02s0,0.09,0,0.14c0,0.05-0.06,0.07-0.06,0.07
		S6.27,6.26,6.22,6.27S6.08,6.26,6.05,6.24C6.02,6.19,6,6.22,5.98,6.24C5.96,6.26,5.9,6.36,5.89,6.43c0,0.34,0.25,0.32,0.34,0.3
		C6.26,6.7,6.31,6.68,6.31,6.68S6.5,6.63,6.6,6.61c0.1-0.03,0.06,0.06,0.06,0.06s0,0,0,0.1c0,0.1-0.09,0.1-0.09,0.1
		S6.42,6.93,6.3,6.97c-0.16,0.05-0.2-0.01-0.25-0.04C6.02,6.89,6.02,6.92,6.02,6.92S5.94,7.01,5.9,7.1c-0.09,0.2-0.01,0.47,0.35,0.7
		C6.6,8.04,6.73,7.73,6.76,7.68c0.04-0.09,0.25-0.26,0.32-0.32c0.05-0.07,0.06-0.04,0.09-0.03c0.03,0.01,0.19,0.28,0.27,0.5
		c0.06,0.2,0.19,0.18,0.39,0.18C8.31,7.9,8.41,7.53,8.43,7.47c0.02-0.06,0.04,0,0.04,0s0.06,0.09,0.1,0.19
		c0.04,0.11,0.11,0.16,0.13,0.16C9.3,7.72,9.23,7.07,9.23,7.07s0.01-0.78,0-0.83C9.24,6.2,9.28,6.21,9.34,6.22
		c0.18,0,0.03-0.28-0.04-0.37C9.24,5.8,9.09,5.61,9.06,5.56C9.05,5.5,9.1,5.52,9.13,5.55c0.23,0.04,0.21-0.1,0.21-0.2
		c0-0.13-0.17-0.2-0.2-0.22C9.05,5.12,9.08,5.08,9.08,5.08S9.09,5.04,9.1,5z M6.67,5.32c0,0.05-0.01,0.25-0.01,0.25
		s0.01,0.02-0.02,0.03C6.62,5.6,6.49,5.63,6.49,5.63S6.46,5.64,6.46,5.6S6.45,5.34,6.45,5.34s0-0.03,0.03-0.03s0.16-0.02,0.16-0.02
		S6.67,5.27,6.67,5.32z M6.65,4.9C6.62,4.9,6.5,4.91,6.5,4.91S6.45,4.93,6.46,4.87s0-0.17,0-0.17S6.45,4.66,6.51,4.65
		s0.11-0.02,0.11-0.02s0.05-0.02,0.05,0.05c0,0.04,0,0.17,0,0.17S6.68,4.89,6.65,4.9z M7.16,4.59c0.04,0,0.17,0,0.17,0
		s0.02,0,0.02,0.02S7.34,4.82,7.34,4.82s0,0.02-0.02,0.02S7.14,4.85,7.14,4.85S7.12,4.86,7.12,4.82s0-0.21,0-0.21
		S7.12,4.59,7.16,4.59z M7.15,5.2c0.03,0,0.15,0,0.15,0s0.03,0.02,0.03,0.05c0,0.03-0.01,0.25-0.01,0.25S7.31,5.53,7.29,5.53
		s-0.15,0-0.15,0s-0.03,0-0.03-0.03s0.01-0.25,0.01-0.25S7.11,5.2,7.15,5.2z M7.11,6.09c0-0.03,0-0.15,0-0.15S7.1,5.9,7.15,5.9
		s0.11,0,0.11,0S7.3,5.91,7.3,5.94s0.04,0.1,0.05,0.11s0.02,0.04-0.02,0.04c-0.04,0-0.18,0.02-0.18,0.02S7.11,6.12,7.11,6.09z
		 M7.26,6.62C7.24,6.64,7.17,6.67,7.17,6.67S7.14,6.69,7.13,6.66S7.12,6.54,7.12,6.54s0.01-0.02,0.05-0.02s0.04,0,0.04,0
		s0.17-0.02,0.2-0.07c0.04-0.05,0.1-0.16,0.1-0.16s0.02-0.05,0.05-0.02C7.6,6.27,7.69,6.31,7.7,6.31s0.04,0.01,0.03,0.06
		S7.74,6.8,7.74,6.8s0.01,0.04-0.04,0S7.46,6.64,7.41,6.62C7.37,6.61,7.34,6.59,7.26,6.62z M7.69,7.21C7.63,7.2,7.45,7.17,7.43,7.15
		c0,0-0.05-0.02-0.01-0.05s0.29-0.2,0.29-0.2S7.74,6.87,7.74,6.9S7.73,7.18,7.73,7.18S7.75,7.21,7.69,7.21z M7.8,5.01
		C7.8,4.95,7.8,4.92,7.81,4.9S7.84,4.84,7.9,4.88C7.92,4.9,8.01,4.95,8.06,4.83c0.02-0.04,0.02-0.09,0.09-0.09s0.28-0.01,0.28-0.01
		s0.06,0,0.03,0.07C8.45,4.86,8.4,5.01,8.34,5.01c0,0-0.4,0.01-0.48,0.03C7.84,5.05,7.79,5.08,7.8,5.01z M8.34,5.64
		c-0.07,0-0.51,0.05-0.53,0.06c0,0-0.06,0-0.06-0.05S7.73,5.53,7.8,5.52c0.07-0.01,0.4-0.1,0.7-0.08c0.02,0,0.05,0.01,0.05,0.01
		S8.59,5.46,8.52,5.5C8.5,5.52,8.42,5.61,8.42,5.62C8.41,5.63,8.41,5.64,8.34,5.64z M8.58,6.94c-0.06,0-0.13,0-0.13-0.1V6.27
		c0,0-0.01-0.06,0.04-0.06s0.11,0,0.11,0S8.64,6.2,8.64,6.26s0,0.59,0,0.59S8.66,6.93,8.58,6.94z"/>
	<path clip-path="url(#SVGID_2_)" d="M13.84,7.33c-0.01-0.04-0.09-0.24-0.1-0.28c-0.05-0.08-0.04-0.39-0.03-0.43
		c0.01-0.05-0.02-0.02-0.02-0.02s-0.02,0.03-0.1,0.11c-0.14,0.12-0.2,0.1-0.27,0.08c-0.07-0.01-0.21-0.13-0.24-0.17
		c-0.03-0.03,0-0.05,0-0.05s0.03-0.03,0.06-0.05c0.05-0.03,0.07-0.02,0.09-0.01c0.03,0.01,0.07,0.03,0.14,0.04
		c0.28-0.02,0.29-0.19,0.29-0.23c0-0.15-0.17-0.22-0.23-0.24c-0.06-0.01-0.39-0.21-0.41-0.23c-0.02-0.01-0.13-0.11-0.18-0.14
		c-0.06-0.03-0.09-0.01-0.1,0c-0.01,0.01-0.08,0.02-0.11,0.02c-0.07-0.01-0.04,0.04-0.04,0.04s0.04,0.08,0.07,0.14
		c0.03,0.06-0.02,0.09-0.06,0.12c-0.04,0.03-0.07,0.01-0.08,0c-0.04-0.09-0.25-0.34-0.29-0.39c-0.05-0.05,0.01-0.05,0.01-0.05
		s0.64,0,0.7,0.01C12.99,5.6,12.98,5.62,13,5.64c0.14,0.18,0.28,0.19,0.33,0.2c0.26,0,0.33-0.11,0.4-0.18
		c0.24-0.42,0.04-0.72,0.03-0.76c-0.12-0.26-0.41-0.42-0.46-0.45c-0.08-0.05-0.1-0.01-0.11-0.01c-0.01,0-0.09,0.06-0.14,0.11
		c-0.04,0.07-0.07,0.05-0.07,0.05s-0.29-0.01-0.34-0.01c-0.05,0-0.03-0.03-0.03-0.03s0-0.06,0.01-0.08
		c-0.01-0.06,0.03-0.06,0.03-0.06s0.03-0.01,0.14-0.04c0.12-0.06,0.04-0.15,0.03-0.16c-0.1-0.06-0.32-0.13-0.35-0.15
		c-0.17-0.07-0.41-0.09-0.52-0.1c-0.13-0.01-0.2,0.06-0.22,0.08c-0.18,0.12-0.32,0.12-0.36,0.12c-0.07-0.01-0.05,0.03-0.05,0.06
		c0.01,0.13,0.11,0.2,0.17,0.22c0.04,0.01,0.05,0.03,0.07,0.07c0.04,0.14-0.04,0.16-0.04,0.16S11.22,4.7,11.16,4.7
		c-0.06,0-0.12-0.08-0.16-0.13c-0.09-0.11-0.33-0.14-0.37-0.15c-0.04,0-0.05,0.02-0.06,0.04c-0.01,0.02-0.11,0.13-0.14,0.17
		c-0.03,0.04,0,0.05,0.02,0.07c0.26,0.33-0.1,0.66-0.1,0.66S10.3,5.39,10.3,5.43c-0.01,0.33,0.1,0.41,0.2,0.47
		c0.41,0.21,0.51-0.18,0.52-0.21c0.01-0.04,0.06-0.03,0.1-0.02c0.12,0,0.1,0.08,0.09,0.1c-0.14,0.2-0.44,0.33-0.55,0.37
		c-0.11,0.05-0.21-0.01-0.24-0.03c-0.02-0.02-0.04,0.02-0.04,0.02s-0.03,0.05-0.05,0.13c-0.02,0.23,0.13,0.27,0.2,0.29
		c0.45,0.03,1.15-0.76,1.17-0.78c0.05-0.11,0.1-0.06,0.11-0.05c0.09,0.09-0.03,0.18-0.06,0.21c-0.02,0.03-0.39,0.36-0.39,0.36
		s-0.27,0.2-0.43,0.29c-0.15,0.09-0.25,0.1-0.33,0.1c-0.07,0.01-0.15-0.02-0.17-0.03c-0.03-0.03-0.04,0.01-0.05,0.03
		C10.32,6.9,10.44,7,10.46,7.02c0.22,0.17,0.63-0.09,0.66-0.11c0.46-0.27,0.75-0.64,0.79-0.69c0.03-0.05,0.05,0.01,0.06,0.04
		c0.05,0.09,0,0.12,0,0.12s-0.03,0.04-0.16,0.18c-0.23,0.24-0.45,0.38-0.78,0.59c-0.41,0.24-0.61,0.04-0.64,0.02
		c-0.02-0.03-0.04,0-0.04,0s-0.14,0.24,0.06,0.48c0.25,0.19,0.67-0.08,0.67-0.08s0,0,0.05-0.03s0.06,0,0.16,0.05
		c0.19,0.12,0.22,0.3,0.31,0.38c0.09,0.08,0.26,0.07,0.34,0.07c0.38,0.03,0.66-0.27,0.67-0.29c0.07-0.05,0.13-0.22,0.13-0.25
		c0.07-0.12,0.14,0,0.14,0c0.1,0.15,0.15,0.18,0.31,0.31c0.3,0.15,0.48,0.05,0.53,0.02C13.9,7.66,13.85,7.37,13.84,7.33z
		 M12.65,5.06l0.39,0.01c0.06,0,0.05,0.04,0.05,0.05C13.07,5.2,13.03,5.25,13,5.31c-0.04,0.05-0.07,0.01-0.08,0
		c-0.07-0.1-0.25-0.21-0.27-0.23C12.61,5.05,12.65,5.06,12.65,5.06z M11.99,6.87c-0.01,0.05-0.11,0.55-0.48,0.44
		c0,0-0.04-0.01-0.01-0.03c0.03-0.02,0.48-0.43,0.48-0.43S12.01,6.81,11.99,6.87z M11.33,5.36c-0.04,0-0.07-0.02-0.15-0.08
		c0,0-0.09-0.11,0.06-0.14c0.04-0.01,0.56-0.07,1.27-0.08c0.01,0,0.06-0.01,0.01,0.04c-0.04,0.04-0.16,0.17-0.16,0.17
		s-0.02,0.02-0.06,0.02C12.25,5.29,11.46,5.32,11.33,5.36z"/>
	<path clip-path="url(#SVGID_2_)" d="M1.79,10.09c0,0-0.53-0.49-0.59-0.99c0.13-0.01,0.49,0,0.49,0s0.17,0.44,0.4,0.62
		c0.03-0.04,0.14-0.2,0.18-0.63c0.18,0,0.49,0,0.49,0S2.7,10.48,1.3,10.74c0-0.15,0-0.4,0-0.4S1.5,10.31,1.79,10.09z"/>
	<path clip-path="url(#SVGID_2_)" d="M3.52,9.03c-0.48,0-0.87,0.39-0.87,0.87c0,0.48,0.39,0.87,0.87,0.87
		c0.48,0,0.87-0.39,0.87-0.87C4.39,9.42,4,9.03,3.52,9.03z M3.52,10.36c-0.21,0-0.39-0.21-0.39-0.47c0-0.26,0.17-0.47,0.39-0.47
		s0.39,0.21,0.39,0.47C3.91,10.15,3.74,10.36,3.52,10.36z"/>
	<path clip-path="url(#SVGID_2_)" d="M5.55,9.46V9.07c0,0-1.05-0.09-1.15,0.39c0,0.16-0.02,0.3,0.4,0.55
		c0.08,0.04,0.53,0.21,0.14,0.33c-0.09,0.02-0.51,0-0.51,0l0,0.39c0,0,0.86,0.11,1.14-0.29c0.04-0.06,0.24-0.39-0.29-0.66
		c-0.11-0.05-0.5-0.17-0.26-0.3C5.1,9.46,5.35,9.42,5.55,9.46z"/>
	<polygon clip-path="url(#SVGID_2_)" points="6.7,9.1 6.7,9.5 6.15,9.5 6.15,9.1 5.65,9.1 5.65,10.7 6.15,10.7 6.15,9.9 6.7,9.9 
		6.7,10.7 7.15,10.7 7.15,9.1 	"/>
	<rect x="7.25" y="9.1" clip-path="url(#SVGID_2_)" width="0.5" height="1.6"/>
	<path clip-path="url(#SVGID_2_)" d="M9.13,9.31C8.96,9.06,8.52,9.1,8.52,9.1l-0.69,0c0,0,0,0,0,0h0.01v1.6H8.3V9.52
		c0.1,0,0.22,0,0.29,0.01c0.3,0.1,0.23,0.52,0.21,0.62c0,0.1-0.12,0.56-0.12,0.56s0.48-0.01,0.51-0.02
		c0.05-0.08,0.11-0.46,0.12-0.66C9.35,9.49,9.15,9.34,9.13,9.31z"/>
	<path clip-path="url(#SVGID_2_)" d="M10.29,9.03c-0.48,0-0.87,0.39-0.87,0.87c0,0.48,0.39,0.87,0.87,0.87
		c0.48,0,0.87-0.39,0.87-0.87C11.16,9.42,10.77,9.03,10.29,9.03z M10.29,10.36c-0.21,0-0.39-0.21-0.39-0.47
		c0-0.26,0.17-0.47,0.39-0.47s0.39,0.21,0.39,0.47C10.68,10.15,10.51,10.36,10.29,10.36z"/>
	<path clip-path="url(#SVGID_2_)" d="M11.59,10.09c0,0-0.53-0.49-0.6-0.99c0.13-0.01,0.49,0,0.49,0s0.17,0.44,0.4,0.62
		c0.03-0.04,0.14-0.2,0.18-0.63c0.18,0,0.5,0,0.5,0s-0.06,1.38-1.46,1.65c0-0.15,0-0.4,0-0.4S11.3,10.31,11.59,10.09z"/>
	<path clip-path="url(#SVGID_2_)" d="M13.44,10.7c0,0,0,0,0.44,0c0-0.85-0.59-1.61-0.59-1.61s0,0-0.44,0
		c-0.66,0.95-0.58,1.61-0.58,1.61s0,0,0.44,0c0.01-0.05,0.02-0.15,0.04-0.2h0.65C13.43,10.65,13.44,10.7,13.44,10.7z M12.84,10.1
		c0.11-0.35,0.23-0.51,0.23-0.51c0.1,0.14,0.18,0.31,0.23,0.51H12.84z"/>
</g>
</svg>
