<?xml version="1.0" encoding="utf-8"?>
<!-- Generator: Adobe Illustrator 20.1.0, SVG Export Plug-In . SVG Version: 6.00 Build 0)  -->
<svg version="1.1" id="yuuenchi" xmlns="http://www.w3.org/2000/svg" xmlns:xlink="http://www.w3.org/1999/xlink" x="0px" y="0px"
	 viewBox="0 0 15 15" enable-background="new 0 0 15 15" xml:space="preserve">
<path d="M13.2961,6.475c0-0.6653-0.4864-1.2076-1.1516-1.2076c-0.0448,0-0.0099-0.0002,0,0
	c-0.2057-0.8644-0.6463-1.6388-1.2503-2.2518c0.1096-0.1815,0.1728-0.3943,0.1728-0.6218c0-0.6653-0.5393-1.2046-1.2046-1.2046
	c-0.5724,0-1.1012,0.6936-1.039,0.5872C8.3989,1.6526,7.9503,1.586,7.4865,1.586c-0.4545,0-0.8944,0.0636-1.3113,0.1824
	c0.0883,0.0899-0.3823-0.3168-0.8374-0.3168c-0.6653,0-1.2046,0.5393-1.2046,1.2046c0,0.181,0.0261,0.2417,0.0229,0.2806
	C3.533,3.5408,3.0729,4.312,2.8496,5.1776h0C2.2208,5.2179,1.7231,5.7496,1.7231,6.3886c0,0.6403,0.4996,1.1614,1.1303,1.2114
	h-0.005C3.0735,8.45,3.55,9.2107,4.15,9.812V9.8119c-0.1,0.1679-0.1318,0.3586-0.1318,0.5609c0,0.3247,0.1297,0.6196,0.3368,0.838
	c-0.003-0.0031-0.005-0.0059-0.008-0.009l-0.7892,1.3686L3.5925,12.6H3v0.75h9.1V12.6h-0.3759l-0.9492-1.5894
	c0.1962-0.216,0.3157-0.5028,0.3157-0.8176c0-0.1903-0.0438-0.3704-0.1217-0.5308c0.5211-0.5535,0.9127-1.231,1.1252-1.9827
	C12.7582,7.6781,13.2961,7.1394,13.2961,6.475z M13.0466,6.55h-1.9178c0-0.6,0.4293-0.9589,0.9589-0.9589
	C12.6173,5.5911,13.0466,5.95,13.0466,6.55z M11.6987,5.3363C11.3111,5.47,11.0133,5.7958,10.9188,6.2h-0.7818
	c-0.0483-0.8135-0.4648-1.5294-1.0845-1.9836L9.451,3.5262c0.1284,0.0466,0.2669,0.0721,0.4114,0.0721
	c0.2757,0,0.5297-0.0928,0.7327-0.2487C11.1242,3.8938,11.5119,4.5759,11.6987,5.3363z M8.7066,10.534
	c-0.3872,0.1137-0.7966,0.1752-1.2201,0.1752c-0.3598,0-0.7093-0.0447-1.0438-0.1278c0.0117-0.0678,0.0181-0.1374,0.0181-0.2086
	c0-0.3076-0.1142-0.5884-0.3022-0.8029L6.575,8.8517c0.2845,0.1046,0.5912,0.1626,0.9115,0.1626
	c0.3864,0,0.7535-0.0837,1.085-0.2327l0.375,0.6251c-0.1799,0.2121-0.2886,0.4864-0.2886,0.7863
	C8.6578,10.3114,8.6751,10.4257,8.7066,10.534z M7.4865,5.7427c-0.0126,0-0.0249,0.0007-0.0373,0.0013L6.554,4.2514
	c0.2853-0.1268,0.6007-0.1978,0.9325-0.1978c0.3607,0,0.7022,0.0834,1.0066,0.2318L7.6425,5.7587
	C7.5925,5.7481,7.5403,5.7427,7.4865,5.7427z M8.3903,8.4796C8.1126,8.5984,7.8072,8.6644,7.4865,8.6644
	c-0.2563,0-0.5027-0.0427-0.7332-0.1202l0.8236-1.4207L8.3903,8.4796z M7.0281,5.9168C6.9537,5.9893,6.8969,6.0838,6.865,6.2H5.187
	c0.0489-0.7129,0.4233-1.3376,0.9755-1.7265L7.0281,5.9168z M6.8885,6.65c0.0137,0.0275,0.0303,0.0547,0.0487,0.0815L6.0905,8.1921
	C5.6111,7.8262,5.2788,7.277,5.1995,6.65H6.8885z M8.1675,6.65h1.6054C9.7014,7.2137,9.4262,7.7147,9.0228,8.076L8.1675,6.65z
	 M8.108,6.2C8.0879,6.1265,8.0577,6.0618,8.0195,6.0056l0.857-1.4843C9.3925,4.9126,9.7391,5.5157,9.786,6.2H8.108z M9.8586,1.4411
	c0.5296,0,0.9589,0.3589,0.9589,0.9589H8.8997C8.8997,1.8,9.329,1.4411,9.8586,1.4411z M7.4865,2.0334
	c0.4114,0,0.8095,0.0577,1.1868,0.1653c0.0009-0.0059,0.0025-0.0115,0.0035-0.0173c-0.0123,0.069-0.019,0.1398-0.019,0.2123
	c0,0.3591,0.1573,0.6813,0.4066,0.902L8.6682,3.9821C8.312,3.8043,7.9109,3.7037,7.4865,3.7037
	c-0.3976,0-0.7747,0.0884-1.1137,0.2457L6.1374,3.5569c0.2484-0.2207,0.4051-0.5423,0.4051-0.9007
	c0-0.1761-0.0381-0.3432-0.106-0.494C6.7728,2.0783,7.1245,2.0334,7.4865,2.0334z M5.3341,1.6911
	C5.8636,1.6911,6.293,2.05,6.293,2.65H4.3752C4.3752,2.05,4.8045,1.6911,5.3341,1.6911z M4.3637,3.3645
	c0.219,0.3007,0.5737,0.4963,0.9741,0.4963c0.1452,0,0.2845-0.0257,0.4134-0.0728L5.982,4.1726
	C5.3284,4.6238,4.8861,5.3598,4.8361,6.2H4.119C4.051,5.7448,3.7284,5.3731,3.3007,5.2339
	C3.4945,4.5215,3.8657,3.8816,4.3637,3.3645z M1.965,6.4c0-0.6,0.4293-0.9589,0.9589-0.9589C3.4535,5.4411,3.8828,5.8,3.8828,6.4
	H1.965z M3.3044,7.5236C3.7013,7.393,4.0068,7.0619,4.1014,6.65h0.7467C4.931,7.4058,5.3318,8.0669,5.914,8.4965L5.5149,9.185
	C5.4271,9.1649,5.3358,9.154,5.242,9.154c-0.3073,0-0.5878,0.114-0.8022,0.3016C3.9069,8.929,3.5091,8.266,3.3044,7.5236z
	 M5.2381,9.4298C5.774,9.4298,6.2084,9.8,6.2084,10.4H4.2679C4.2679,9.8,4.7023,9.4298,5.2381,9.4298z M10.8496,12.6H4.4138
	l0.5944-1.031c0.0757,0.0147,0.1538,0.0226,0.2338,0.0226c0.4386,0,0.8229-0.2317,1.0376-0.5793
	c0.3858,0.0992,0.79,0.1519,1.2069,0.1519c0.4999,0,0.982-0.0744,1.4353-0.215c0.2228,0.2803,0.5665,0.4602,0.9524,0.4602
	c0.0853,0,0.1685-0.0089,0.2488-0.0256L10.8496,12.6z M8.9021,10.2c0-0.6,0.4335-0.9683,0.9683-0.9683
	c0.5348,0,0.9683,0.3683,0.9683,0.9683H8.9021z M10.691,9.2917c-0.2159-0.1957-0.5024-0.315-0.8167-0.315
	c-0.1,0-0.1971,0.0123-0.2902,0.0351L9.2055,8.3805c0.5028-0.4282,0.8446-1.0398,0.9204-1.7305h0.7739
	c0.0629,0.4317,0.3547,0.7889,0.7483,0.9449C11.4599,8.2339,11.1285,8.8119,10.691,9.2917z"/>
</svg>
